<?xml version="1.0" encoding="UTF-8" standalone="no"?>
<!-- Created with Inkscape (http://www.inkscape.org/) -->
<svg
   xmlns:dc="http://purl.org/dc/elements/1.1/"
   xmlns:cc="http://creativecommons.org/ns#"
   xmlns:rdf="http://www.w3.org/1999/02/22-rdf-syntax-ns#"
   xmlns:svg="http://www.w3.org/2000/svg"
   xmlns="http://www.w3.org/2000/svg"
   xmlns:sodipodi="http://sodipodi.sourceforge.net/DTD/sodipodi-0.dtd"
   xmlns:inkscape="http://www.inkscape.org/namespaces/inkscape"
   width="1360"
   height="768"
   id="svg2"
   sodipodi:version="0.32"
   inkscape:version="0.46"
   version="1.0"
   sodipodi:docname="1360x768.svg"
   inkscape:output_extension="org.inkscape.output.svg.inkscape">
  <defs
     id="defs4">
    <inkscape:perspective
       sodipodi:type="inkscape:persp3d"
       inkscape:vp_x="0 : 526.18109 : 1"
       inkscape:vp_y="0 : 1000 : 0"
       inkscape:vp_z="744.09448 : 526.18109 : 1"
       inkscape:persp3d-origin="372.04724 : 350.78739 : 1"
       id="perspective10" />
  </defs>
  <sodipodi:namedview
     id="base"
     pagecolor="#ffffff"
     bordercolor="#666666"
     borderopacity="1.0"
     gridtolerance="10000"
     guidetolerance="10"
     objecttolerance="10"
     inkscape:pageopacity="0.0"
     inkscape:pageshadow="2"
     inkscape:zoom="0.31654412"
     inkscape:cx="214.91354"
     inkscape:cy="309.9844"
     inkscape:document-units="px"
     inkscape:current-layer="layer1"
     showgrid="false"
     inkscape:window-width="1360"
     inkscape:window-height="693"
     inkscape:window-x="0"
     inkscape:window-y="25"
     showborder="true"
     inkscape:showpageshadow="false"
     showguides="true"
     inkscape:guide-bbox="true" />
  <metadata
     id="metadata7">
    <rdf:RDF>
      <cc:Work
         rdf:about="">
        <dc:format>image/svg+xml</dc:format>
        <dc:type
           rdf:resource="http://purl.org/dc/dcmitype/StillImage" />
      </cc:Work>
    </rdf:RDF>
  </metadata>
  <g
     inkscape:label="Layer 1"
     inkscape:groupmode="layer"
     id="layer1"
     transform="translate(10,10)">
    <path
       style="opacity:1;fill:#000000;fill-opacity:1;fill-rule:nonzero;stroke:#000000;stroke-width:0.06483196;stroke-linecap:butt;stroke-linejoin:miter;stroke-miterlimit:4;stroke-dasharray:none;stroke-opacity:1"
       d="M 668.94115,74.074999 C 663.87806,122.90819 661.54039,173.87874 655.30819,221.62198 C 651.65363,165.46804 627.30973,171.53115 632.11231,154.3837 C 645.42847,110.39499 605.51629,128.54033 613.68135,80.759114 C 592.70037,130.42538 629.13667,120.86652 617.15577,143.19939 C 590.83616,184.58852 638.72745,182.6935 626.08999,227.28031 L 556.17145,95.649489 L 598.22846,237.9352 C 572.01953,187.6477 552.12423,203.18574 549.55351,185.52111 C 543.88495,139.91196 514.77911,172.68151 502.86394,125.69494 C 503.82899,179.60231 533.24802,156.11216 531.35417,181.3849 C 524.07083,229.96873 567.21768,208.67667 573.64282,254.84403 C 572.96482,255.39068 572.29275,255.94063 571.62434,256.49852 L 456.33982,162.65613 L 552.39923,275.62436 C 552.24329,275.80981 552.09104,276.00069 551.93597,276.18689 C 508.97258,239.63755 496.39684,261.36532 487.41106,245.97599 C 465.06952,205.8115 450.37733,247.09056 421.728,207.98902 C 442.81721,257.60942 461.26854,224.81218 468.98009,248.95406 C 480.36448,296.46655 512.1055,261.224 535.32494,300.574 C 534.81936,301.49529 534.32295,302.42086 533.83591,303.35353 L 392.41052,259.70822 L 523.47883,328.30317 C 523.42783,328.46605 523.39693,328.63639 523.34646,328.79951 C 470.1313,311.39108 466.62719,336.16421 452.5345,325.3251 C 416.69629,296.55097 418.63413,340.31284 377.35471,314.90183 C 415.59888,352.90605 420.33903,315.56891 436.58527,335.02037 C 465.01854,374.69348 481.12041,330.19904 517.39032,357.71991 C 517.27573,358.79783 517.18458,359.87824 517.09251,360.9627 L 369.74408,373.86768 L 517.1587,387.93081 C 517.18454,388.21833 517.23053,388.50407 517.25796,388.79114 C 461.01192,392.10723 466.94752,416.52622 449.82116,411.62303 C 405.90968,398.05414 423.83076,438.03047 376.0973,429.59074 C 425.64206,450.85697 416.27397,414.40426 438.53756,426.5134 C 479.85672,453.1235 478.19544,404.97973 522.98248,418.1417 C 523.22801,418.9588 523.48479,419.77904 523.74354,420.59035 L 390.65677,487.23294 L 530.69238,446.73121 C 484.60793,471.6606 498.83044,490.70138 481.58727,493.08987 C 435.9402,498.4449 468.53071,527.79027 421.46328,539.38226 C 475.3761,538.78759 452.05956,509.22177 477.3187,511.28921 C 525.48437,518.84859 505.18953,476.24563 550.04985,469.62928 C 550.74558,470.4984 551.45349,471.35677 552.1676,472.21027 L 458.09358,586.17109 L 571.19418,491.26989 C 571.39694,491.44048 571.58612,491.6299 571.78979,491.79932 C 535.18535,534.68712 556.88252,547.29974 541.47962,556.25801 C 501.27671,578.53049 542.54415,593.32622 503.39338,621.908 C 553.05004,600.90423 520.2695,582.39209 544.42461,574.72217 C 591.96814,563.41682 556.77498,531.56493 596.20999,508.41046 L 555.0464,651.29165 C 566.69251,638.01077 615.04641,517.65895 625.26274,520.62051 C 608.10833,573.76579 632.80468,577.1509 622.01996,591.26704 C 593.36173,627.1979 637.13888,625.11869 611.86142,666.47987 C 649.74189,628.11307 612.3826,623.5251 631.78142,607.21617 C 671.33001,578.67821 626.88637,562.67454 654.15006,526.37806 L 670.82726,673.925 C 676.40325,625.30061 678.16907,573.35813 685.41982,526.37806 C 689.45601,581.71791 713.52889,575.69929 708.81423,592.78905 C 695.66987,636.82948 735.4883,618.53486 727.50992,666.34751 C 748.29682,616.59977 711.91021,626.28674 723.80387,603.90719 C 749.82724,562.62902 702.58744,564.45164 714.37331,520.52118 L 784.98673,651.19243 L 744.88202,517.41086 C 768.26094,558.77737 786.38194,546.11042 788.52733,562.84291 C 793.41952,608.54197 823.07636,576.28103 834.19111,623.46326 C 834.14262,569.54725 804.33721,592.51385 806.66048,567.27693 C 814.75569,518.90154 771.414,539.30359 765.66235,493.32144 L 881.34394,587.26311 C 850.48849,548.7341 816.88572,510.60232 787.303,472.01174 C 829.98066,509.14383 842.79476,487.48824 851.62938,502.98364 C 873.55512,543.37664 888.70435,502.23724 916.94845,541.63236 C 896.37271,491.797 877.55541,524.42429 870.09344,500.20411 C 859.1611,452.40589 826.87334,487.72658 804.0464,447.45918 L 946.76227,490.24416 C 903.58298,466.35708 857.88929,443.89556 815.92559,419.4653 C 870.08313,437.24864 873.41615,412.16004 887.63098,423.00589 C 923.58028,451.64123 921.46639,407.84704 962.84392,433.09825 C 924.45293,395.24224 919.86834,432.59979 903.54712,413.21133 C 874.77219,373.3879 858.80334,418.80186 821.91483,390.28017 L 970.25592,374.1324 L 822.17956,360.59871 C 822.17668,360.56589 822.18244,360.53227 822.17956,360.49945 C 878.67426,356.95339 872.57239,332.51374 889.74872,337.33665 C 933.72871,350.68185 915.59739,310.77543 963.37332,318.97187 C 950.96012,313.71848 942.24773,312.04941 935.80958,312.32084 C 916.49518,313.13514 917.67674,331.3768 900.93304,322.38011 C 859.504,295.9968 861.42228,344.03466 816.65357,331.18197 L 948.51603,261.42889 C 900.95998,274.27464 851.79175,292.05841 805.10527,302.65865 C 856.29717,276.71552 840.72707,256.553 858.47896,254.11606 C 904.13247,248.81684 871.62069,219.4574 918.70221,207.92284 C 864.78876,208.45164 888.03721,238.0481 862.78061,235.94982 C 814.12885,228.25329 835.2915,271.80592 788.5935,277.67593 L 882.105,161.10092 L 767.91245,256.66397 C 767.87678,256.63409 767.84886,256.59454 767.81317,256.5647 C 805.18699,212.6727 782.94288,200.11453 798.38806,190.98091 C 838.42797,168.41706 797.06897,153.93186 836.01105,125.06623 C 786.50835,146.43017 819.40944,164.70467 795.31071,172.54995 C 747.49321,184.28815 783.86561,216.26339 743.16135,239.75512 L 784.12639,96.046557 C 773.70884,109.01492 723.03588,230.3789 714.96892,227.77665 C 732.25929,173.99599 707.317,170.71587 718.07935,156.50145 C 746.5812,120.44629 702.80944,122.72622 727.90699,81.255468 C 690.19353,119.78648 727.57949,124.2253 708.25171,140.61839 C 668.71384,169.41068 713.58179,185.18175 685.98235,221.82051 L 668.94115,74.074999 z M 669.66913,226.94941 C 750.88418,226.94939 816.78593,292.85115 816.78593,374.06623 C 816.78594,455.28131 750.88419,521.18298 669.66913,521.18298 C 588.45405,521.18308 522.51923,455.28129 522.51923,374.06623 C 522.51923,292.85117 588.45405,226.94941 669.66913,226.94941 z M 646.80414,251.79978 L 664.37478,267.31885 L 664.37478,284.72403 L 635.25583,284.72403 L 619.96839,267.71592 L 619.83603,313.01573 L 635.3551,295.24656 L 664.24241,295.24656 L 664.37478,380.94888 L 647.36667,380.94888 L 647.36667,343.98768 C 647.36667,340.14846 653.10077,337.53521 656.8965,337.5352 L 660.99962,337.5352 L 660.99962,333.20044 L 617.75138,333.20044 L 617.75138,337.60137 L 622.81411,337.60137 C 626.60074,337.60139 631.48361,340.77031 631.48361,345.11273 L 631.48361,424.36257 C 631.48361,427.9247 628.29206,431.74146 623.07883,431.74157 L 617.6852,431.74157 L 617.6852,436.27486 L 661.0658,436.27486 L 661.0658,431.74157 L 656.06926,431.74157 C 651.38336,431.74153 647.39975,428.3975 647.39975,424.82583 L 647.36667,387.20283 L 664.37478,387.23592 L 664.37478,388.2948 L 669.17277,419.86236 L 674.89729,388.42715 L 674.89729,387.26902 L 693.99005,387.3352 L 693.99005,425.02436 C 693.99007,428.21155 690.15339,431.74157 685.48599,431.74157 L 679.13278,431.74157 L 679.13278,436.04323 L 722.51338,436.04323 L 722.51338,431.87393 L 717.45066,431.87393 C 711.67101,431.87389 707.68918,428.52557 707.68918,424.13094 L 707.75537,345.97307 C 707.75538,342.9786 711.74302,337.79681 718.97277,337.56828 L 722.71191,337.56828 L 722.71191,333.3328 L 679.13278,333.39898 L 679.13278,337.56828 L 682.83882,337.56828 C 688.60046,337.52233 693.9116,342.56648 694.05623,346.10543 L 694.05623,380.94888 L 674.89729,380.94888 L 674.89729,295.21346 L 704.57875,295.21346 L 719.40294,314.40549 L 719.40294,267.12031 L 705.406,284.88948 L 674.96348,284.88948 L 674.96348,267.68284 L 692.93118,251.79978 L 646.80414,251.79978 z M 786.11177,331.0827 C 785.47351,335.54054 784.2488,338.2236 782.53809,339.48749 C 730.33241,311.63035 706.828,368.92206 755.66926,390.57798 C 825.59125,418.90683 736.48866,460.60503 732.83736,402.15938 L 728.80041,402.15938 L 728.80041,438.16097 L 733.3668,438.16097 C 733.01315,434.59565 735.88648,431.07067 736.01397,430.88123 C 793.79697,454.60449 819.18782,403.0265 768.37569,377.60682 C 701.03495,347.91869 782.23938,309.52294 786.11177,368.07699 L 790.34726,368.07699 L 790.34726,331.0827 L 786.11177,331.0827 z M 556.07218,333.20044 L 556.07218,337.60137 L 561.13491,337.60137 C 564.92153,337.60139 569.8044,340.77031 569.8044,345.11273 L 569.8044,424.36257 C 569.8044,427.9247 566.61287,431.74146 561.39962,431.74157 L 556.006,431.74157 L 556.006,436.27486 L 599.38659,436.27486 L 599.38659,431.74157 L 594.39005,431.74157 C 589.70415,431.74153 585.72056,428.3975 585.72056,424.82583 L 585.68746,343.98768 C 585.68746,340.14846 591.42156,337.53521 595.21729,337.5352 L 599.32042,337.5352 L 599.32042,333.20044 L 556.07218,333.20044 z M 668.54408,452.62117 C 667.94568,452.6195 667.33286,452.63596 666.72414,452.65426 C 663.80231,452.74201 660.77673,453.06526 657.55829,453.74622 C 656.23302,457.17367 656.94479,459.08584 657.55829,461.05905 C 660.62701,462.02135 663.25978,463.53596 664.83802,466.48576 L 669.33823,498.31805 L 674.00387,465.92323 C 675.31721,463.80252 675.91566,461.46803 680.55563,460.29798 C 681.72655,455.77236 680.73458,455.57214 680.55563,453.74622 C 676.67199,453.11942 672.73289,452.63278 668.54408,452.62117 z M 623.17809,470.85359 C 618.67018,476.45925 614.46104,482.5152 611.79524,490.87281 C 614.11884,493.71958 616.09685,494.03692 618.11537,494.47964 C 620.46924,492.28831 623.10963,490.71969 626.45397,490.80663 L 656.33397,502.65274 L 630.49092,482.56735 C 629.29725,480.37726 627.59199,478.70788 628.86952,474.09639 C 625.51505,470.84054 624.85365,471.60105 623.17809,470.85359 z M 715.86235,471.31685 C 712.22385,471.83143 710.89947,473.35947 709.47604,474.85744 C 710.13266,478.00578 710.12315,481.07445 708.31789,483.89093 L 682.70647,503.34768 L 713.28134,491.63392 C 715.77308,491.74627 718.07062,491.13202 721.35523,494.61199 C 725.87714,493.42691 725.57298,492.44905 727.07975,491.40224 C 724.61663,484.64373 721.63361,477.92346 715.86235,471.31685 z"
       id="path2462" />
    <rect
       style="opacity:1;fill:#000000;fill-opacity:1;fill-rule:nonzero;stroke:none;stroke-width:4;stroke-linecap:butt;stroke-linejoin:miter;stroke-miterlimit:4;stroke-dasharray:8, 4;stroke-dashoffset:0;stroke-opacity:1"
       id="rect2470"
       width="10"
       height="768"
       x="-20"
       y="-10" />
    <rect
       style="opacity:1;fill:#000000;fill-opacity:1;fill-rule:nonzero;stroke:none;stroke-width:4;stroke-linecap:butt;stroke-linejoin:miter;stroke-miterlimit:4;stroke-dasharray:8, 4;stroke-dashoffset:0;stroke-opacity:1"
       id="rect3242"
       width="10"
       height="1360"
       x="10"
       y="-10"
       transform="matrix(0,-1,1,0,0,0)" />
  </g>
</svg>
