<?xml version="1.0" encoding="UTF-8" standalone="no"?>
<!-- Created with Inkscape (http://www.inkscape.org/) -->
<svg
   xmlns:dc="http://purl.org/dc/elements/1.1/"
   xmlns:cc="http://creativecommons.org/ns#"
   xmlns:rdf="http://www.w3.org/1999/02/22-rdf-syntax-ns#"
   xmlns:svg="http://www.w3.org/2000/svg"
   xmlns="http://www.w3.org/2000/svg"
   xmlns:sodipodi="http://sodipodi.sourceforge.net/DTD/sodipodi-0.dtd"
   xmlns:inkscape="http://www.inkscape.org/namespaces/inkscape"
   width="800"
   height="600"
   id="svg2"
   sodipodi:version="0.32"
   inkscape:version="0.46"
   version="1.0"
   sodipodi:docname="800x600.svg"
   inkscape:output_extension="org.inkscape.output.svg.inkscape">
  <defs
     id="defs4">
    <inkscape:perspective
       sodipodi:type="inkscape:persp3d"
       inkscape:vp_x="0 : 526.18109 : 1"
       inkscape:vp_y="0 : 1000 : 0"
       inkscape:vp_z="744.09448 : 526.18109 : 1"
       inkscape:persp3d-origin="372.04724 : 350.78739 : 1"
       id="perspective10" />
  </defs>
  <sodipodi:namedview
     id="base"
     pagecolor="#ffffff"
     bordercolor="#666666"
     borderopacity="1.0"
     gridtolerance="10000"
     guidetolerance="10"
     objecttolerance="10"
     inkscape:pageopacity="0.0"
     inkscape:pageshadow="2"
     inkscape:zoom="0.58925565"
     inkscape:cx="215.55192"
     inkscape:cy="371.36164"
     inkscape:document-units="px"
     inkscape:current-layer="layer1"
     showgrid="false"
     inkscape:window-width="1360"
     inkscape:window-height="693"
     inkscape:window-x="0"
     inkscape:window-y="25"
     showborder="true"
     inkscape:showpageshadow="false" />
  <metadata
     id="metadata7">
    <rdf:RDF>
      <cc:Work
         rdf:about="">
        <dc:format>image/svg+xml</dc:format>
        <dc:type
           rdf:resource="http://purl.org/dc/dcmitype/StillImage" />
      </cc:Work>
    </rdf:RDF>
  </metadata>
  <g
     inkscape:label="Layer 1"
     inkscape:groupmode="layer"
     id="layer1"
     transform="translate(10,10)">
    <path
       style="opacity:1;fill:#000000;fill-opacity:1;fill-rule:nonzero;stroke:#000000;stroke-width:0.05402822;stroke-linecap:butt;stroke-linejoin:miter;stroke-miterlimit:4;stroke-dasharray:none;stroke-opacity:1"
       d="M 389.11758,40.05515 C 384.89822,80.750669 382.9501,123.22738 377.75645,163.01458 C 374.71089,116.21826 354.42371,121.271 358.42598,106.98104 C 369.52311,70.322699 336.26198,85.444259 343.0664,45.625413 C 325.58173,87.015179 355.94621,79.049229 345.96183,97.660499 C 324.02818,132.15246 363.93876,130.57323 353.40723,167.73 L 295.14007,58.034416 L 330.18861,176.60933 C 308.34719,134.70185 291.76729,147.6506 289.62496,132.92964 C 284.90102,94.920899 260.64544,122.22966 250.71584,83.073029 C 251.52007,127.99716 276.03665,108.42146 274.4584,129.4827 C 268.38877,169.97041 304.34553,152.22651 309.69997,190.70044 C 309.13496,191.15599 308.57488,191.6143 308.01786,192.07922 L 211.9446,113.87493 L 291.99646,208.01789 C 291.86651,208.17244 291.73963,208.33151 291.6104,208.48668 C 255.80652,178.028 245.32643,196.13501 237.83806,183.31019 C 219.21956,149.8388 206.97571,184.23902 183.10057,151.65345 C 200.67543,193.005 216.05199,165.67316 222.47847,185.79199 C 231.96574,225.38689 258.41737,196.01724 277.76747,228.80987 C 277.34614,229.57763 276.93245,230.34896 276.52657,231.12621 L 158.66862,194.75405 L 267.89542,251.91819 C 267.85292,252.05393 267.82717,252.19588 267.78511,252.33182 C 223.43784,237.82437 220.51766,258.46925 208.77341,249.43639 C 178.90735,225.45724 180.52227,261.92654 146.12174,240.75008 C 177.99282,272.42119 181.94306,241.30599 195.48199,257.51602 C 219.17708,290.57792 232.5957,253.49813 262.82151,276.43286 C 262.72602,277.33115 262.65006,278.23152 262.57333,279.13526 L 139.77936,289.88973 L 262.62849,301.60935 C 262.65002,301.84896 262.68835,302.08708 262.71121,302.32631 C 215.83813,305.0898 220.78461,325.43956 206.51222,321.35345 C 169.91825,310.04571 184.85292,343.36029 145.07387,336.32698 C 186.36238,354.04936 178.55541,323.67121 197.10895,333.76245 C 231.54259,355.93819 230.15815,315.8172 267.48178,326.78583 C 267.6864,327.46677 267.90039,328.15032 268.11602,328.82643 L 157.20712,384.36356 L 273.90689,350.61112 C 235.50205,371.38623 247.35449,387.25401 232.98476,389.24448 C 194.94442,393.70713 222.10397,418.16233 182.87996,427.8226 C 227.80863,427.32703 208.37761,402.68812 229.42751,404.41104 C 269.56675,410.71071 252.65389,375.2072 290.03859,369.69341 C 290.61838,370.4177 291.20832,371.13303 291.80343,371.8443 L 213.40611,466.81444 L 307.65938,387.72778 C 307.82835,387.86994 307.98601,388.0278 308.15574,388.16899 C 277.65114,423.90987 295.73265,434.4207 282.89652,441.88614 C 249.39311,460.44709 283.78365,472.77722 251.15705,496.59607 C 292.53882,479.09242 265.2209,463.66518 285.35075,457.27339 C 324.97152,447.85199 295.64303,421.30797 328.5065,402.01201 L 294.2025,521.08317 C 303.90788,510.01544 344.20398,409.71931 352.71784,412.18735 C 338.42208,456.47639 359.00297,459.29739 350.01544,471.06119 C 326.13288,501.00445 362.61491,499.27173 341.54974,533.74039 C 373.11773,501.76712 341.98407,497.9437 358.15023,484.35252 C 391.10836,460.57019 354.0709,447.23341 376.79131,416.98545 L 390.68939,539.94485 C 395.33618,499.42333 396.80774,456.13666 402.85021,416.98545 C 406.2138,463.10335 426.27513,458.08768 422.34613,472.32957 C 411.39217,509.03101 444.57517,493.78504 437.92633,533.63009 C 455.24925,492.17242 424.92619,500.24513 434.83786,481.59496 C 456.52464,447.19547 417.15698,448.71437 426.97883,412.10457 L 485.82508,521.00048 L 452.4035,409.51256 C 471.88651,443.98567 486.98779,433.42957 488.77566,447.37372 C 492.85261,485.45739 517.56737,458.57248 526.82993,497.89216 C 526.78952,452.96083 501.95095,472.10023 503.88707,451.06884 C 510.63327,410.75483 474.51414,427.75704 469.72095,389.43746 L 566.12511,467.72448 C 540.41148,435.61603 512.40835,403.83861 487.75536,371.67885 C 523.32112,402.62317 533.99985,384.57631 541.36225,397.48953 C 559.63424,431.15135 572.25897,396.86751 595.79641,429.69774 C 578.64946,388.16705 562.96791,415.35726 556.74942,395.17318 C 547.63887,355.34016 520.73161,384.77494 501.7086,351.21778 L 620.64199,386.87298 C 584.65819,366.9665 546.579,348.24801 511.60822,327.88886 C 556.74083,342.70875 559.51843,321.80097 571.36447,330.83944 C 601.3231,354.70293 599.56147,318.2067 634.04372,339.24999 C 602.05033,307.70239 598.22972,338.83459 584.62831,322.67707 C 560.64849,289.4899 547.34073,327.33598 516.5994,303.56721 L 640.22064,290.11034 L 516.82001,278.83193 C 516.81761,278.80458 516.82241,278.77656 516.82001,278.74921 C 563.90031,275.79407 558.81527,255.4271 573.1293,259.44631 C 609.78037,270.56764 594.67049,237.31131 634.48492,244.14188 C 624.14034,239.76392 616.87976,238.37299 611.51448,238.59919 C 595.41867,239.27779 596.40334,254.47962 582.44984,246.98216 C 547.92463,224.99542 549.52324,265.02815 512.21489,254.31726 L 622.1035,196.18798 C 582.47229,206.89309 541.49756,221.71333 502.59102,230.54713 C 545.25219,208.92722 532.27673,192.12462 547.0704,190.09378 C 585.11611,185.67763 558.02217,161.21071 597.25792,151.5983 C 552.32872,152.03898 571.703,176.70342 550.65522,174.9548 C 510.11089,168.54084 527.74695,204.83576 488.83081,209.72758 L 566.75935,112.57888 L 471.59609,192.2171 C 471.56637,192.1922 471.5431,192.15924 471.51336,192.13437 C 502.65912,155.55663 484.12182,145.09118 496.99318,137.47961 C 530.36075,118.67585 495.89391,106.60449 528.34659,82.549089 C 487.09313,100.3529 514.51151,115.5821 494.42865,122.12002 C 454.57956,131.90214 484.89078,158.54896 450.96957,178.12598 L 485.10811,58.365323 C 476.42656,69.172609 434.19785,170.31223 427.47519,168.14363 C 441.88425,123.32509 421.0984,120.59158 430.06729,108.74588 C 453.81953,78.699029 417.34199,80.599029 438.25723,46.039047 C 406.82842,78.149169 437.9843,81.848299 421.87735,95.509609 C 388.92815,119.50389 426.31921,132.64683 403.319,163.18003 L 389.11758,40.05515 z M 389.72425,167.45424 C 457.40545,167.45422 512.32519,222.37397 512.32519,290.05519 C 512.3252,357.73642 457.40546,412.65609 389.72425,412.65609 C 322.04303,412.65617 267.09573,357.7364 267.09573,290.05519 C 267.09573,222.37399 322.04303,167.45424 389.72425,167.45424 z M 370.66953,188.16349 L 385.31216,201.09643 L 385.31216,215.60117 L 361.04566,215.60117 L 348.30575,201.42733 L 348.19545,239.17828 L 361.12839,224.3702 L 385.20185,224.3702 L 385.31216,295.7909 L 371.13832,295.7909 L 371.13832,264.989 C 371.13832,261.78955 375.91688,259.61178 379.08008,259.61177 L 382.49945,259.61177 L 382.49945,255.99937 L 346.45819,255.99937 L 346.45819,259.66692 L 350.67725,259.66692 C 353.83287,259.66693 357.90205,262.30778 357.90205,265.92657 L 357.90205,331.97004 C 357.90205,334.93857 355.24235,338.1193 350.89786,338.11939 L 346.40304,338.11939 L 346.40304,341.89724 L 382.5546,341.89724 L 382.5546,338.11939 L 378.39069,338.11939 C 374.48566,338.11936 371.16589,335.33258 371.16589,332.3561 L 371.13832,301.00268 L 385.31216,301.03026 L 385.31216,301.91268 L 389.31061,328.21976 L 394.08118,302.02298 L 394.08118,301.05784 L 409.99228,301.11299 L 409.99228,332.52155 C 409.9923,335.17762 406.79497,338.11939 402.90536,338.11939 L 397.61086,338.11939 L 397.61086,341.70421 L 433.76242,341.70421 L 433.76242,338.22969 L 429.54336,338.22969 C 424.72685,338.22966 421.40856,335.43931 421.40856,331.77701 L 421.46372,266.64354 C 421.46373,264.14807 424.78686,259.82979 430.81183,259.63934 L 433.92787,259.63934 L 433.92787,256.10967 L 397.61086,256.16482 L 397.61086,259.63934 L 400.69932,259.63934 C 405.50082,259.60105 409.9269,263.80463 410.04743,266.75384 L 410.04743,295.7909 L 394.08118,295.7909 L 394.08118,224.34262 L 418.81646,224.34262 L 431.17031,240.33645 L 431.17031,200.93097 L 419.50585,215.73905 L 394.13634,215.73905 L 394.13634,201.39976 L 409.10986,188.16349 L 370.66953,188.16349 z M 486.76264,254.23453 C 486.23074,257.94951 485.21012,260.18546 483.78448,261.23873 C 440.27847,238.02376 420.69089,285.76826 461.39313,303.81539 C 519.66317,327.42346 445.40883,362.17298 442.36599,313.46684 L 439.00177,313.46684 L 439.00177,343.46905 L 442.8072,343.46905 C 442.51249,340.49786 444.907,337.56029 445.01324,337.40242 C 493.16716,357.17238 514.32682,314.18946 471.98214,293.00577 C 415.8632,268.26494 483.53555,236.26754 486.76264,285.06401 L 490.29232,285.06401 L 490.29232,254.23453 L 486.76264,254.23453 z M 295.05734,255.99937 L 295.05734,259.66692 L 299.27641,259.66692 C 302.43202,259.66693 306.5012,262.30778 306.5012,265.92657 L 306.5012,331.97004 C 306.5012,334.93857 303.84151,338.1193 299.49701,338.11939 L 295.00219,338.11939 L 295.00219,341.89724 L 331.15375,341.89724 L 331.15375,338.11939 L 326.98984,338.11939 C 323.08481,338.11936 319.76505,335.33258 319.76505,332.3561 L 319.73747,264.989 C 319.73747,261.78955 324.51603,259.61178 327.67923,259.61177 L 331.0986,259.61177 L 331.0986,255.99937 L 295.05734,255.99937 z M 388.78668,355.51957 C 388.288,355.51818 387.7773,355.53189 387.27002,355.54714 C 384.83509,355.62027 382.3137,355.88965 379.63159,356.45714 C 378.52716,359.31343 379.12032,360.90695 379.63159,362.55134 C 382.18893,363.35328 384.38297,364.61549 385.69821,367.07373 L 389.44849,393.60142 L 393.33664,366.60494 C 394.43112,364.83763 394.92985,362.89217 398.7966,361.9171 C 399.7724,358.14564 398.94573,357.97878 398.7966,356.45714 C 395.56014,355.93479 392.27746,355.52924 388.78668,355.51957 z M 350.98058,370.7137 C 347.22388,375.38522 343.71616,380.43199 341.49459,387.39687 C 343.43098,389.76925 345.07937,390.03371 346.76152,390.40265 C 348.72314,388.57649 350.92353,387.26927 353.71056,387.34172 L 378.61129,397.21377 L 357.07478,380.47545 C 356.08003,378.65032 354.65894,377.25913 355.72358,373.41611 C 352.9281,370.70282 352.37692,371.3366 350.98058,370.7137 z M 428.21973,371.09976 C 425.18756,371.52859 424.08388,372.80199 422.89765,374.05034 C 423.44485,376.67403 423.43693,379.23133 421.9325,381.57847 L 400.58902,397.7929 L 426.06883,388.03115 C 428.14534,388.12478 430.06001,387.61289 432.79727,390.51295 C 436.56564,389.52535 436.31216,388.71044 437.56784,387.83808 C 435.51518,382.20582 433.02926,376.60543 428.21973,371.09976 z"
       id="path2462" />
    <rect
       style="opacity:1;fill:#000000;fill-opacity:1;fill-rule:nonzero;stroke:none;stroke-width:4;stroke-linecap:butt;stroke-linejoin:miter;stroke-miterlimit:4;stroke-dasharray:8, 4;stroke-dashoffset:0;stroke-opacity:1"
       id="rect2470"
       width="10"
       height="600"
       x="-20"
       y="-10" />
    <rect
       style="opacity:1;fill:#000000;fill-opacity:1;fill-rule:nonzero;stroke:none;stroke-width:4;stroke-linecap:butt;stroke-linejoin:miter;stroke-miterlimit:4;stroke-dasharray:8, 4;stroke-dashoffset:0;stroke-opacity:1"
       id="rect3242"
       width="10"
       height="800"
       x="10"
       y="-10"
       transform="matrix(0,-1,1,0,0,0)" />
  </g>
</svg>
