<?xml version="1.0" encoding="UTF-8" standalone="no"?>
<!-- Created with Inkscape (http://www.inkscape.org/) -->
<svg
   xmlns:dc="http://purl.org/dc/elements/1.1/"
   xmlns:cc="http://creativecommons.org/ns#"
   xmlns:rdf="http://www.w3.org/1999/02/22-rdf-syntax-ns#"
   xmlns:svg="http://www.w3.org/2000/svg"
   xmlns="http://www.w3.org/2000/svg"
   xmlns:sodipodi="http://sodipodi.sourceforge.net/DTD/sodipodi-0.dtd"
   xmlns:inkscape="http://www.inkscape.org/namespaces/inkscape"
   width="172.99998"
   height="48"
   id="svg2897"
   sodipodi:version="0.32"
   inkscape:version="0.46"
   sodipodi:docname="logo.svg"
   inkscape:output_extension="org.inkscape.output.svg.inkscape"
   version="1.0">
  <defs
     id="defs2899">
    <clipPath
       clipPathUnits="userSpaceOnUse"
       id="clipPath4429">
      <g
         transform="matrix(0.9947658,0,0,1,1.7860989,0)"
         id="g4431">
        <path
           sodipodi:nodetypes="ccccccccc"
           style="fill:#efa724;fill-opacity:1;fill-rule:evenodd;stroke:none;stroke-width:30;stroke-linecap:round;stroke-linejoin:round;marker:none;marker-start:none;marker-mid:none;marker-end:none;stroke-miterlimit:4;stroke-dasharray:none;stroke-dashoffset:0;stroke-opacity:1;visibility:visible;display:inline;overflow:visible"
           d="M 322.54143,2800.9375 L 318.10638,2806.6673 L 313.67143,2800.9375 L 313.67143,2757.7946 L 294.73171,2757.7946 L 318.10638,2732.2579 L 341.23763,2757.7946 L 322.54143,2757.7946 L 322.54143,2800.9375 z"
           id="path4433" />
      </g>
    </clipPath>
    <inkscape:perspective
       sodipodi:type="inkscape:persp3d"
       inkscape:vp_x="0 : 526.18109 : 1"
       inkscape:vp_y="0 : 1000 : 0"
       inkscape:vp_z="744.09448 : 526.18109 : 1"
       inkscape:persp3d-origin="372.04724 : 350.78739 : 1"
       id="perspective2905" />
  </defs>
  <sodipodi:namedview
     id="base"
     pagecolor="#ffffff"
     bordercolor="#666666"
     borderopacity="1.0"
     gridtolerance="10000"
     guidetolerance="10"
     objecttolerance="10"
     inkscape:pageopacity="0.0"
     inkscape:pageshadow="2"
     inkscape:zoom="7.3005787"
     inkscape:cx="86.499992"
     inkscape:cy="24"
     inkscape:document-units="px"
     inkscape:current-layer="layer1"
     showgrid="false"
     inkscape:window-width="1360"
     inkscape:window-height="693"
     inkscape:window-x="0"
     inkscape:window-y="25"
     showborder="true"
     inkscape:showpageshadow="false"
     showguides="true"
     inkscape:guide-bbox="true">
    <inkscape:grid
       type="xygrid"
       id="grid3843"
       visible="true"
       enabled="true" />
    <sodipodi:guide
       orientation="0,1"
       position="89.218851,0"
       id="guide3853" />
    <sodipodi:guide
       orientation="0,1"
       position="57.800926,48"
       id="guide3855" />
    <sodipodi:guide
       orientation="1,0"
       position="0,27.188589"
       id="guide3857" />
    <sodipodi:guide
       orientation="1,0"
       position="173,28.195574"
       id="guide3859" />
  </sodipodi:namedview>
  <metadata
     id="metadata2902">
    <rdf:RDF>
      <cc:Work
         rdf:about="">
        <dc:format>image/svg+xml</dc:format>
        <dc:type
           rdf:resource="http://purl.org/dc/dcmitype/StillImage" />
      </cc:Work>
    </rdf:RDF>
  </metadata>
  <g
     inkscape:label="Layer 1"
     inkscape:groupmode="layer"
     id="layer1"
     transform="translate(914.75396,-554.04114)">
    <g
       id="g9335"
       transform="matrix(6.7733333e-2,0,0,6.7733333e-2,-906.07077,503.27555)"
       inkscape:export-filename="/home/al/Desktop/CentOS/Symbol Construction/CentOSSymbol_20.png"
       inkscape:export-xdpi="28.883154"
       inkscape:export-ydpi="28.883154"
       inkscape:label="#g9335">
      <g
         transform="matrix(1.1808679,0,0,1.1808679,586.42082,-1141.3723)"
         id="g13583"
         inkscape:export-filename="/home/al/Desktop/CentOSSymbol_Final.png"
         inkscape:export-xdpi="50.799999"
         inkscape:export-ydpi="50.799999">
        <g
           id="g13467"
           transform="translate(-556.83343,-494.55601)">
          <g
             id="g13395"
             transform="matrix(0,-3.7770771,3.7770771,0,-6968.6287,3636.3048)">
            <g
               transform="translate(16.279512,-899.16723)"
               id="g13397">
              <g
                 id="g13399"
                 transform="matrix(1.0666663,0,0,1,-26.935596,-4.1328125e-5)">
                <path
                   id="path13401"
                   d="M 323.36653,2798.1614 L 317.96037,2803.9619 L 312.55421,2798.1614 L 312.55421,2757.3353 L 294.54088,2757.3353 L 317.96037,2732.4374 L 340.98524,2757.3353 L 323.36654,2757.3353 L 323.36653,2798.1614 z"
                   style="fill:#932279;fill-opacity:1;fill-rule:evenodd;stroke:none;stroke-width:30;stroke-linecap:round;stroke-linejoin:round;marker:none;marker-start:none;marker-mid:none;marker-end:none;stroke-miterlimit:4;stroke-dasharray:none;stroke-dashoffset:0;stroke-opacity:1;visibility:visible;display:inline;overflow:visible"
                   sodipodi:nodetypes="ccccccccc" />
              </g>
              <g
                 transform="matrix(1.0722788,0,0,1,-28.850792,-4.1328125e-5)"
                 id="g13405"
                 clip-path="url(#clipPath4429)" />
            </g>
          </g>
          <g
             transform="matrix(3.7770771,0,0,3.7770771,-988.70982,-4824.4941)"
             id="g13407">
            <g
               id="g13409"
               transform="translate(16.279512,-899.16723)">
              <g
                 transform="matrix(1.0666663,0,0,1,-26.935596,-4.1328125e-5)"
                 id="g13411">
                <path
                   sodipodi:nodetypes="ccccccccc"
                   style="fill:#efa724;fill-opacity:1;fill-rule:evenodd;stroke:none;stroke-width:30;stroke-linecap:round;stroke-linejoin:round;marker:none;marker-start:none;marker-mid:none;marker-end:none;stroke-miterlimit:4;stroke-dasharray:none;stroke-dashoffset:0;stroke-opacity:1;visibility:visible;display:inline;overflow:visible"
                   d="M 323.36653,2798.1614 L 317.96037,2803.9619 L 312.55421,2798.1614 L 312.55421,2757.3353 L 294.54088,2757.3353 L 317.96037,2732.4374 L 340.98524,2757.3353 L 323.36654,2757.3353 L 323.36653,2798.1614 z"
                   id="path13413" />
              </g>
              <g
                 clip-path="url(#clipPath4429)"
                 id="g13417"
                 transform="matrix(1.0722788,0,0,1,-28.850792,-4.1328125e-5)" />
            </g>
          </g>
          <g
             id="g13419"
             transform="matrix(0,3.7770771,-3.7770771,0,10868.313,1216.9132)">
            <g
               transform="matrix(1.0666663,0,0,1,-26.935596,-4.1328125e-5)"
               id="g13421">
              <path
                 sodipodi:nodetypes="ccccccccc"
                 style="fill:#262577;fill-opacity:1;fill-rule:evenodd;stroke:none;stroke-width:30;stroke-linecap:round;stroke-linejoin:round;marker:none;marker-start:none;marker-mid:none;marker-end:none;stroke-miterlimit:4;stroke-dasharray:none;stroke-dashoffset:0;stroke-opacity:1;visibility:visible;display:inline;overflow:visible"
                 d="M 323.36653,2798.1614 L 317.96037,2803.9619 L 312.55421,2798.1614 L 312.55421,2757.3353 L 294.54088,2757.3353 L 317.96037,2732.4374 L 340.98524,2757.3353 L 323.36654,2757.3353 L 323.36653,2798.1614 z"
                 id="path13423" />
            </g>
            <g
               clip-path="url(#clipPath4429)"
               id="g13427"
               transform="matrix(1.0722788,0,0,1,-28.850792,-4.1328125e-5)" />
          </g>
          <g
             transform="matrix(-3.7770771,0,0,-3.7770771,1492.1701,9616.2232)"
             id="g13429">
            <g
               id="g13431"
               transform="translate(16.279512,-899.16723)">
              <g
                 transform="matrix(1.0666663,0,0,1,-26.935596,-4.1328125e-5)"
                 id="g13433">
                <path
                   sodipodi:nodetypes="ccccccccc"
                   style="fill:#9ccd2a;fill-opacity:1;fill-rule:evenodd;stroke:none;stroke-width:30;stroke-linecap:round;stroke-linejoin:round;marker:none;marker-start:none;marker-mid:none;marker-end:none;stroke-miterlimit:4;stroke-dasharray:none;stroke-dashoffset:0;stroke-opacity:1;visibility:visible;display:inline;overflow:visible"
                   d="M 323.36653,2798.1614 L 317.96037,2803.9619 L 312.55421,2798.1614 L 312.55421,2757.3353 L 294.54088,2757.3353 L 317.96037,2732.4374 L 340.98524,2757.3353 L 323.36654,2757.3353 L 323.36653,2798.1614 z"
                   id="path13435" />
              </g>
              <g
                 clip-path="url(#clipPath4429)"
                 id="g13439"
                 transform="matrix(1.0722788,0,0,1,-28.850792,-4.1328125e-5)" />
            </g>
          </g>
          <g
             transform="matrix(3.7770771,0,0,3.7770771,-2493.849,-6445.1798)"
             id="g13441">
            <rect
               style="fill:#9ccd2a;fill-opacity:1;stroke:#ffffff;stroke-width:3.54330707;stroke-linecap:butt;stroke-linejoin:miter;stroke-miterlimit:4;stroke-dasharray:none;stroke-dashoffset:0;stroke-opacity:1"
               id="rect13443"
               width="49.606449"
               height="49.606449"
               x="671.98438"
               y="2285.7893" />
            <rect
               y="2285.7893"
               x="732.22076"
               height="49.606449"
               width="49.606449"
               id="rect13445"
               style="fill:#932279;fill-opacity:1;stroke:#ffffff;stroke-width:3.54330707;stroke-linecap:butt;stroke-linejoin:miter;stroke-miterlimit:4;stroke-dasharray:none;stroke-dashoffset:0;stroke-opacity:1" />
            <rect
               style="fill:#efa724;fill-opacity:1;stroke:#ffffff;stroke-width:3.54330707;stroke-linecap:butt;stroke-linejoin:miter;stroke-miterlimit:4;stroke-dasharray:none;stroke-dashoffset:0;stroke-opacity:1"
               id="rect13447"
               width="49.606449"
               height="49.606449"
               x="732.22076"
               y="2346.0256" />
            <rect
               y="2346.0256"
               x="671.98438"
               height="49.606449"
               width="49.606449"
               id="rect13449"
               style="fill:#262577;fill-opacity:1;stroke:#ffffff;stroke-width:3.54330707;stroke-linecap:butt;stroke-linejoin:miter;stroke-miterlimit:4;stroke-dasharray:none;stroke-dashoffset:0;stroke-opacity:1" />
          </g>
          <rect
             y="1664.6902"
             x="-1723.575"
             height="187.36739"
             width="187.36739"
             id="rect13459"
             style="fill:none;fill-opacity:1;stroke:#ffffff;stroke-width:13.38334465;stroke-linecap:butt;stroke-linejoin:miter;stroke-miterlimit:4;stroke-dasharray:none;stroke-dashoffset:0;stroke-opacity:1"
             transform="matrix(0.7071068,-0.7071068,0.7071068,0.7071068,0,0)" />
          <rect
             style="fill:none;fill-opacity:1;stroke:#ffffff;stroke-width:13.38334465;stroke-linecap:butt;stroke-linejoin:miter;stroke-miterlimit:4;stroke-dasharray:none;stroke-dashoffset:0;stroke-opacity:1"
             id="rect13461"
             width="187.36739"
             height="187.36739"
             x="-1496.0573"
             y="1664.6902"
             transform="matrix(0.7071068,-0.7071068,0.7071068,0.7071068,0,0)" />
          <rect
             y="1892.2074"
             x="-1496.0573"
             height="187.36739"
             width="187.36739"
             id="rect13463"
             style="fill:none;fill-opacity:1;stroke:#ffffff;stroke-width:13.38334465;stroke-linecap:butt;stroke-linejoin:miter;stroke-miterlimit:4;stroke-dasharray:none;stroke-dashoffset:0;stroke-opacity:1"
             transform="matrix(0.7071068,-0.7071068,0.7071068,0.7071068,0,0)" />
          <rect
             style="fill:none;fill-opacity:1;stroke:#ffffff;stroke-width:13.38334465;stroke-linecap:butt;stroke-linejoin:miter;stroke-miterlimit:4;stroke-dasharray:none;stroke-dashoffset:0;stroke-opacity:1"
             id="rect13465"
             width="187.36739"
             height="187.36739"
             x="-1723.575"
             y="1892.2074"
             transform="matrix(0.7071068,-0.7071068,0.7071068,0.7071068,0,0)" />
        </g>
      </g>
    </g>
    <path
       style="font-size:72.70541382px;font-style:normal;font-variant:normal;font-weight:200;font-stretch:normal;text-align:start;line-height:125%;writing-mode:lr-tb;text-anchor:start;fill:#000000;fill-opacity:1;stroke:none;stroke-width:2.48031497;stroke-linecap:butt;stroke-linejoin:miter;stroke-miterlimit:4;stroke-dasharray:none;stroke-opacity:1;display:inline;font-family:Denmark;-inkscape-font-specification:Denmark Ultra-Light"
       clip-path="none"
       d="M -838.36939,589.64335 L -847.99792,589.64335 C -848.97429,589.64335 -849.94026,589.4997 -850.89583,589.21241 C -852.74469,588.61573 -854.20921,587.24556 -855.28943,585.10192 C -856.26579,583.15717 -856.75397,580.89198 -856.75397,578.30634 C -856.75397,575.80911 -856.31773,573.59917 -855.44524,571.6765 C -854.48966,569.55497 -853.12899,568.10746 -851.36323,567.33396 C -849.99219,566.7373 -848.58998,566.43895 -847.1566,566.43893 L -838.43172,566.43893 L -838.43172,570.88092 L -847.49936,570.88092 C -848.97429,570.88094 -850.04412,571.73177 -850.70887,573.4334 C -851.22822,574.75939 -851.48789,576.49419 -851.48789,578.63783 C -851.48789,580.44999 -851.15551,581.9859 -850.49076,583.24555 C -849.72213,584.72623 -848.64191,585.46656 -847.25007,585.46655 L -838.36939,585.4334 L -838.36939,589.64335 M -822.33353,589.7428 L -829.93664,589.7428 C -831.78549,589.7428 -833.39543,588.90302 -834.76649,587.22346 C -836.11676,585.5218 -836.79191,583.56601 -836.79191,581.35606 C -836.79191,578.94723 -836.05444,576.86989 -834.57953,575.12402 C -833.08383,573.35608 -831.42195,572.4721 -829.59387,572.47208 L -822.36468,572.47208 L -822.36468,576.01904 L -827.66193,576.01904 C -828.32669,576.01906 -828.89797,576.08535 -829.37574,576.21794 C -829.83278,576.32845 -830.25863,576.56049 -830.65332,576.91407 C -831.3804,577.57706 -831.74394,578.47209 -831.74394,579.59915 L -822.39584,579.59915 L -822.39584,583.17926 L -831.71278,583.17926 C -831.71278,583.70966 -831.66085,584.16269 -831.55697,584.53837 C -831.43233,584.89198 -831.19344,585.25661 -830.84029,585.6323 C -830.48713,585.98589 -830.07167,586.22899 -829.59387,586.36158 C -829.09531,586.47209 -828.49288,586.52733 -827.78658,586.52733 L -822.33353,586.52733 L -822.33353,589.7428 M -804.56435,589.64335 L -808.89564,589.64335 L -808.89564,578.33948 C -808.89565,578.0522 -808.95797,577.79806 -809.08261,577.57705 C -809.20726,577.33397 -809.38383,577.10192 -809.61233,576.88092 C -810.02781,576.50524 -810.50559,576.3174 -811.0457,576.31738 L -815.2835,576.31738 L -815.2835,589.64335 L -819.61479,589.64335 L -819.61479,572.47208 L -811.32615,572.47208 C -809.85123,572.4721 -808.78141,572.56049 -808.11663,572.73727 C -807.07797,573.00249 -806.24703,573.58812 -805.6238,574.49418 C -804.91752,575.55496 -804.56437,576.71518 -804.56435,577.97484 L -804.56435,589.64335 M -792.12459,576.05219 L -796.33123,576.05219 L -796.33123,583.84225 C -796.33123,584.54943 -796.10272,585.13507 -795.64569,585.59915 C -795.12637,586.06324 -794.44084,586.29529 -793.58911,586.29528 L -792.31155,586.29528 L -792.31155,589.64335 L -796.33123,589.64335 C -797.53609,589.64335 -798.56437,589.17926 -799.41609,588.25109 C -799.91466,587.6986 -800.23665,587.09087 -800.38206,586.42788 C -800.52747,585.7649 -800.60018,584.98037 -800.60018,584.07429 L -800.60018,576.05219 L -803.34229,576.05219 L -803.34229,572.47208 L -800.60018,572.47208 L -800.60018,566.43893 L -796.33123,566.43893 L -796.33123,572.47208 L -792.12459,572.47208 L -792.12459,576.05219 M -766.69631,578.00799 C -766.69636,582.51628 -767.87005,585.7428 -770.21743,587.68755 C -772.12861,589.25661 -774.91226,590.04114 -778.56839,590.04114 C -782.61923,590.04114 -785.61061,589.13506 -787.54255,587.32291 C -789.66147,585.33396 -790.72091,582.14059 -790.72091,577.7428 C -790.72091,574.14061 -789.77571,571.33398 -787.88532,569.32291 C -785.82875,567.13508 -782.75426,566.04116 -778.66187,566.04114 C -774.15403,566.04116 -770.97568,567.09088 -769.12681,569.19031 C -767.50651,571.04668 -766.69636,573.9859 -766.69631,578.00799 M -772.24285,577.8754 C -772.24287,575.59917 -772.75182,573.78701 -773.7697,572.43893 C -774.91226,570.93619 -776.6053,570.18481 -778.84882,570.18479 C -781.05084,570.18481 -782.71272,570.99144 -783.83448,572.60467 C -784.7693,573.95276 -785.2367,575.70967 -785.23669,577.8754 C -785.2367,580.37264 -784.86278,582.21794 -784.11492,583.4113 C -783.07625,585.06877 -781.1547,585.89749 -778.35027,585.89749 C -775.98209,585.89749 -774.32022,585.09087 -773.36462,583.4776 C -772.61679,582.21794 -772.24287,580.35054 -772.24285,577.8754 M -741.75397,582.44998 C -741.754,584.48313 -742.38758,586.19584 -743.65474,587.5881 C -744.92193,588.98037 -746.53191,589.6765 -748.48458,589.6765 L -763.90894,589.64335 L -763.90894,585.46655 L -751.19554,585.46655 C -750.34383,585.46656 -749.62715,585.25661 -749.04547,584.83672 C -748.38075,584.35054 -748.04836,583.68755 -748.04835,582.84777 C -748.04836,580.88092 -749.35709,579.8975 -751.97453,579.89749 L -758.39356,579.89749 C -760.24242,579.8975 -761.86276,579.28977 -763.25457,578.07429 C -764.64641,576.85883 -765.34231,575.31188 -765.34231,573.4334 C -765.34231,571.35607 -764.66719,569.67652 -763.31689,568.39474 C -761.94585,567.09088 -760.14893,566.43895 -757.92616,566.43893 L -743.18735,566.43893 L -743.18735,570.41684 L -756.18117,570.41684 C -756.76286,570.41685 -757.35489,570.68204 -757.95731,571.21241 C -758.53898,571.72072 -758.82982,572.32845 -758.82981,573.03562 C -758.82982,573.83121 -758.54936,574.50524 -757.98848,575.05771 C -757.40683,575.58812 -756.7109,575.85331 -755.90073,575.85329 L -748.82735,575.85329 C -746.62539,575.85331 -744.90117,576.46105 -743.65474,577.6765 C -742.38758,578.86988 -741.754,580.46104 -741.75397,582.44998"
       id="path3841"
       inkscape:label="" />
  </g>
</svg>
