<?xml version="1.0" encoding="UTF-8" standalone="no"?>
<!-- Created with Inkscape (http://www.inkscape.org/) -->
<svg
   xmlns:dc="http://purl.org/dc/elements/1.1/"
   xmlns:cc="http://creativecommons.org/ns#"
   xmlns:rdf="http://www.w3.org/1999/02/22-rdf-syntax-ns#"
   xmlns:svg="http://www.w3.org/2000/svg"
   xmlns="http://www.w3.org/2000/svg"
   xmlns:sodipodi="http://sodipodi.sourceforge.net/DTD/sodipodi-0.dtd"
   xmlns:inkscape="http://www.inkscape.org/namespaces/inkscape"
   width="761.81097"
   height="159.44882"
   id="svg3394"
   sodipodi:version="0.32"
   inkscape:version="0.46"
   sodipodi:docname="type.svg"
   inkscape:output_extension="org.inkscape.output.svg.inkscape"
   version="1.0">
  <defs
     id="defs3396">
    <inkscape:perspective
       sodipodi:type="inkscape:persp3d"
       inkscape:vp_x="0 : 79.724411 : 1"
       inkscape:vp_y="0 : 1000 : 0"
       inkscape:vp_z="761.81097 : 79.724411 : 1"
       inkscape:persp3d-origin="380.90549 : 53.149607 : 1"
       id="perspective2505" />
  </defs>
  <sodipodi:namedview
     id="base"
     pagecolor="#ffffff"
     bordercolor="#ababab"
     borderopacity="1"
     gridtolerance="10000"
     guidetolerance="10"
     objecttolerance="10"
     inkscape:pageopacity="0.0"
     inkscape:pageshadow="2"
     inkscape:zoom="1"
     inkscape:cx="287.89371"
     inkscape:cy="105.96795"
     inkscape:document-units="mm"
     inkscape:current-layer="layer1"
     showgrid="false"
     showborder="false"
     inkscape:showpageshadow="false"
     guidecolor="#3c3cff"
     guideopacity="0.60392157"
     inkscape:window-width="1360"
     inkscape:window-height="693"
     inkscape:window-x="0"
     inkscape:window-y="25"
     units="mm"
     showguides="true"
     inkscape:guide-bbox="true">
    <inkscape:grid
       type="xygrid"
       id="grid3564"
       visible="true"
       enabled="true"
       color="#0097ff"
       opacity="0.1254902"
       empcolor="#0096ff"
       empopacity="0.25098039"
       units="mm"
       spacingx="1mm"
       spacingy="1mm" />
  </sodipodi:namedview>
  <metadata
     id="metadata3399">
    <rdf:RDF>
      <cc:Work
         rdf:about="">
        <dc:format>image/svg+xml</dc:format>
        <dc:type
           rdf:resource="http://purl.org/dc/dcmitype/StillImage" />
        <cc:license
           rdf:resource="http://creativecommons.org/licenses/by-sa/3.0/" />
        <dc:title>The CentOS Type</dc:title>
        <dc:date>2010-11-10</dc:date>
        <dc:creator>
          <cc:Agent>
            <dc:title>The CentOS Project</dc:title>
          </cc:Agent>
        </dc:creator>
        <dc:rights>
          <cc:Agent>
            <dc:title>The CentOS Project</dc:title>
          </cc:Agent>
        </dc:rights>
        <dc:publisher>
          <cc:Agent>
            <dc:title>The CentOS Project</dc:title>
          </cc:Agent>
        </dc:publisher>
        <dc:identifier>https://projects.centos.org/svn/artwork/trunk/Identity/Brands/Tpl/CentOS/Type/2c-a.svg</dc:identifier>
        <dc:source>https://projects.centos.org/svn/artwork/trunk/Identity/Brands/Tpl/CentOS/Type/2c-a.svg</dc:source>
        <dc:relation>https://projects.centos.org/svn/artwork/trunk/Identity/Brands/Tpl/CentOS/Type/2c-a.svg</dc:relation>
        <dc:language>en</dc:language>
        <dc:subject>
          <rdf:Bag>
            <rdf:li>Identity</rdf:li>
            <rdf:li>Brands</rdf:li>
            <rdf:li>Tpl</rdf:li>
            <rdf:li>Type</rdf:li>
          </rdf:Bag>
        </dc:subject>
        <dc:coverage>The CentOS Project</dc:coverage>
        <dc:description />
        <dc:contributor>
          <cc:Agent>
            <dc:title>Alain Reguera Delgado</dc:title>
          </cc:Agent>
        </dc:contributor>
      </cc:Work>
      <cc:License
         rdf:about="http://creativecommons.org/licenses/by-sa/3.0/">
        <cc:permits
           rdf:resource="http://creativecommons.org/ns#Reproduction" />
        <cc:permits
           rdf:resource="http://creativecommons.org/ns#Distribution" />
        <cc:requires
           rdf:resource="http://creativecommons.org/ns#Notice" />
        <cc:requires
           rdf:resource="http://creativecommons.org/ns#Attribution" />
        <cc:permits
           rdf:resource="http://creativecommons.org/ns#DerivativeWorks" />
        <cc:requires
           rdf:resource="http://creativecommons.org/ns#ShareAlike" />
      </cc:License>
    </rdf:RDF>
  </metadata>
  <g
     inkscape:label="Layer 1"
     inkscape:groupmode="layer"
     id="layer1"
     transform="translate(-356.4824,-379.51529)">
    <path
       inkscape:label=""
       id="CENTOSARTWORK"
       d="M 478.27,536.32132 L 414.48632,536.32132 C 408.01843,536.32132 401.61943,535.36698 395.28928,533.4583 C 383.0417,529.49409 373.33997,520.39114 366.18411,506.1494 C 359.71628,493.22909 356.48237,478.17983 356.4824,461.00159 C 356.48237,444.41075 359.37225,429.72857 365.152,416.95493 C 371.4822,402.86015 380.49584,393.24331 392.19299,388.10438 C 401.27539,384.14037 410.56427,382.15826 420.05963,382.15812 L 477.85715,382.15812 L 477.85715,411.66934 L 417.78902,411.66934 C 408.01843,411.66946 400.93137,417.32213 396.52781,428.62729 C 393.08742,437.43673 391.36727,448.96224 391.3673,463.20391 C 391.36727,475.24337 393.56908,485.4475 397.97272,493.81631 C 403.06439,503.65343 410.22026,508.57196 419.4404,508.57193 L 478.27,508.35171 L 478.27,536.32132 M 584.49871,536.98201 L 534.13231,536.98201 C 521.88471,536.98201 511.21971,531.40277 502.13725,520.24429 C 493.19241,508.93902 488.71998,495.94526 488.71998,481.26303 C 488.71998,465.2595 493.60524,451.45824 503.37577,439.8592 C 513.28389,428.11353 524.29293,422.24066 536.40293,422.24053 L 584.2923,422.24053 L 584.2923,445.80549 L 549.20096,445.80549 C 544.79727,445.80557 541.0129,446.24603 537.84788,447.12688 C 534.82032,447.8611 531.99924,449.40271 529.38467,451.75178 C 524.56815,456.15653 522.15993,462.10281 522.15998,469.59068 L 584.08587,469.59068 L 584.08587,493.37586 L 522.36638,493.37586 C 522.36635,496.89962 522.71036,499.90948 523.39848,502.4054 C 524.22413,504.7546 525.80665,507.17717 528.14613,509.67311 C 530.48551,512.02228 533.23779,513.63734 536.40293,514.51823 C 539.70559,515.25238 543.69635,515.61941 548.37525,515.61941 L 584.49871,515.61941 L 584.49871,536.98201 M 702.20955,536.32132 L 673.51721,536.32132 L 673.51721,461.2218 C 673.51712,459.31319 673.1043,457.62476 672.27867,456.15646 C 671.45291,454.54148 670.28323,452.99984 668.76954,451.53154 C 666.01722,449.03567 662.85214,447.78767 659.27425,447.78759 L 631.20118,447.78759 L 631.20118,536.32132 L 602.50882,536.32132 L 602.50882,422.24053 L 657.41646,422.24053 C 667.18694,422.24066 674.27398,422.82793 678.67769,424.00242 C 685.55825,425.7644 691.06276,429.65518 695.19129,435.67475 C 699.87002,442.72232 702.20944,450.43046 702.20955,458.79924 L 702.20955,536.32132 M 784.61614,446.02574 L 756.74949,446.02574 L 756.74949,497.78052 C 756.74943,502.47886 758.26319,506.36964 761.29072,509.45288 C 764.73099,512.53616 769.27224,514.0778 774.91443,514.07777 L 783.37763,514.07777 L 783.37763,536.32132 L 756.74949,536.32132 C 748.76789,536.32132 741.95606,533.23805 736.31393,527.07153 C 733.0112,523.401 730.87819,519.3634 729.91494,514.95871 C 728.95162,510.55406 728.46996,505.34189 728.46999,499.32215 L 728.46999,446.02574 L 710.30506,446.02574 L 710.30506,422.24053 L 728.46999,422.24053 L 728.46999,382.15812 L 756.74949,382.15812 L 756.74949,422.24053 L 784.61614,422.24053 L 784.61614,446.02574 M 953.0643,459.01949 C 953.064,488.97124 945.28894,510.40723 929.73883,523.32757 C 917.07833,533.75194 898.63815,538.96411 874.41838,538.96411 C 847.58376,538.96411 827.7675,532.9444 814.96951,520.90499 C 800.93294,507.69104 793.9147,486.47525 793.9147,457.2576 C 793.9147,433.32571 800.17609,414.67932 812.69891,401.31839 C 826.32256,386.78314 846.68926,379.51545 873.79912,379.51529 C 903.66106,379.51545 924.71583,386.4895 936.96354,400.43746 C 947.69724,412.77063 953.064,432.29795 953.0643,459.01949 M 916.32157,458.13857 C 916.32145,443.01598 912.94992,430.97657 906.20701,422.02032 C 898.63815,412.03652 887.42271,407.04458 872.56061,407.04446 C 857.97352,407.04458 846.96449,412.4036 839.53345,423.12146 C 833.34081,432.07774 830.24452,443.75008 830.24458,458.13857 C 830.24452,474.72952 832.72156,486.98913 837.67567,494.91749 C 844.55629,505.92917 857.28547,511.43499 875.86331,511.43499 C 891.55112,511.43499 902.56016,506.07599 908.89046,495.35796 C 913.84442,486.98913 916.32145,474.58269 916.32157,458.13857 M 1118.2934,488.53072 C 1118.2932,502.03839 1114.0961,513.41708 1105.7019,522.66686 C 1097.3074,531.91666 1086.6422,536.54154 1073.7069,536.54154 L 971.52908,536.32132 L 971.52908,508.57193 L 1055.7483,508.57193 C 1061.3904,508.57196 1066.138,507.17717 1069.9913,504.3875 C 1074.3947,501.15748 1076.5966,496.7528 1076.5967,491.17354 C 1076.5966,478.1064 1067.927,471.57284 1050.5879,471.57278 L 1008.0654,471.57278 C 995.81771,471.57284 985.0839,467.53524 975.86388,459.45995 C 966.64379,451.38481 962.03378,441.10726 962.03378,428.62729 C 962.03378,414.82613 966.50608,403.66768 975.45108,395.15187 C 984.53351,386.4895 996.43701,382.15826 1011.1617,382.15812 L 1108.7981,382.15812 L 1108.7981,408.5861 L 1022.7212,408.5861 C 1018.8679,408.58621 1014.946,410.34807 1010.9553,413.87169 C 1007.102,417.2487 1005.1754,421.28631 1005.1755,425.9845 C 1005.1754,431.2702 1007.0333,435.74827 1010.7488,439.41871 C 1014.6019,442.94254 1019.2121,444.70443 1024.579,444.7043 L 1071.4362,444.7043 C 1086.023,444.70443 1097.445,448.74202 1105.7019,456.81714 C 1114.0961,464.74561 1118.2932,475.3168 1118.2934,488.53072"
       clip-path="none"
       style="font-size:72.70541382px;font-style:normal;font-variant:normal;font-weight:200;font-stretch:normal;text-align:start;line-height:125%;writing-mode:lr-tb;text-anchor:start;fill:#75507b;fill-opacity:1;stroke:none;stroke-width:2.48031497;stroke-linecap:butt;stroke-linejoin:miter;stroke-miterlimit:4;stroke-dasharray:none;stroke-opacity:1;display:inline;font-family:Denmark;-inkscape-font-specification:Denmark Ultra-Light" />
  </g>
</svg>
