<?xml version="1.0" encoding="UTF-8" standalone="no"?>
<!-- Created with Inkscape (http://www.inkscape.org/) -->
<svg
   xmlns:dc="http://purl.org/dc/elements/1.1/"
   xmlns:cc="http://creativecommons.org/ns#"
   xmlns:rdf="http://www.w3.org/1999/02/22-rdf-syntax-ns#"
   xmlns:svg="http://www.w3.org/2000/svg"
   xmlns="http://www.w3.org/2000/svg"
   xmlns:sodipodi="http://sodipodi.sourceforge.net/DTD/sodipodi-0.dtd"
   xmlns:inkscape="http://www.inkscape.org/namespaces/inkscape"
   width="265.74802"
   height="265.74802"
   id="svg3394"
   sodipodi:version="0.32"
   inkscape:version="0.46"
   sodipodi:docname="5c-a.svg"
   inkscape:output_extension="org.inkscape.output.svg.inkscape"
   version="1.0"
   style="display:inline">
  <defs
     id="defs3396">
    <clipPath
       clipPathUnits="userSpaceOnUse"
       id="clipPath4429">
      <g
         transform="matrix(0.9947658,0,0,1,1.7860989,0)"
         id="g4431">
        <path
           sodipodi:nodetypes="ccccccccc"
           style="fill:#efa724;fill-opacity:1;fill-rule:evenodd;stroke:none;stroke-width:30;stroke-linecap:round;stroke-linejoin:round;marker:none;marker-start:none;marker-mid:none;marker-end:none;stroke-miterlimit:4;stroke-dasharray:none;stroke-dashoffset:0;stroke-opacity:1;visibility:visible;display:inline;overflow:visible"
           d="M 322.54143,2800.9375 L 318.10638,2806.6673 L 313.67143,2800.9375 L 313.67143,2757.7946 L 294.73171,2757.7946 L 318.10638,2732.2579 L 341.23763,2757.7946 L 322.54143,2757.7946 L 322.54143,2800.9375 z"
           id="path4433" />
      </g>
    </clipPath>
  </defs>
  <sodipodi:namedview
     id="base"
     pagecolor="#ffffff"
     bordercolor="#ababab"
     borderopacity="1"
     gridtolerance="10000"
     guidetolerance="10"
     objecttolerance="10"
     inkscape:pageopacity="0"
     inkscape:pageshadow="2"
     inkscape:zoom="3.7479114"
     inkscape:cx="144.79462"
     inkscape:cy="121.3647"
     inkscape:document-units="mm"
     inkscape:current-layer="svg3394"
     showgrid="false"
     showborder="true"
     inkscape:showpageshadow="false"
     guidecolor="#ffb43c"
     guideopacity="0.60392157"
     inkscape:window-width="1014"
     inkscape:window-height="712"
     inkscape:window-x="5"
     inkscape:window-y="25"
     units="mm"
     showguides="true"
     inkscape:guide-bbox="true">
    <inkscape:grid
       type="xygrid"
       id="grid3564"
       visible="true"
       enabled="true"
       color="#0096ff"
       opacity="0.13333333"
       empcolor="#0096ff"
       empopacity="0.25098039"
       units="mm"
       spacingx="1mm"
       spacingy="1mm"
       empspacing="5" />
  </sodipodi:namedview>
  <metadata
     id="metadata3399">
    <rdf:RDF>
      <cc:Work
         rdf:about="">
        <dc:format>image/svg+xml</dc:format>
        <dc:type
           rdf:resource="http://purl.org/dc/dcmitype/StillImage" />
        <cc:license
           rdf:resource="http://creativecommons.org/licenses/by-sa/3.0/" />
        <dc:title>5c-a.svg</dc:title>
        <dc:date>2010-11-10</dc:date>
        <dc:creator>
          <cc:Agent>
            <dc:title>The CentOS Project</dc:title>
          </cc:Agent>
        </dc:creator>
        <dc:rights>
          <cc:Agent>
            <dc:title>The CentOS Project</dc:title>
          </cc:Agent>
        </dc:rights>
        <dc:publisher>
          <cc:Agent>
            <dc:title>The CentOS Project</dc:title>
          </cc:Agent>
        </dc:publisher>
        <dc:identifier>https://projects.centos.org/svn/artwork/trunk/Identity/Brands/Tpl/CentOS/Logo/Circular/5c-a.svg</dc:identifier>
        <dc:source>https://projects.centos.org/svn/artwork/trunk/Identity/Brands/Tpl/CentOS/Logo/Circular/5c-a.svg</dc:source>
        <dc:relation>https://projects.centos.org/svn/artwork/trunk/Identity/Brands/Tpl/CentOS/Logo/Circular/5c-a.svg</dc:relation>
        <dc:language>en</dc:language>
        <dc:subject>
          <rdf:Bag>
            <rdf:li>Identity</rdf:li>
            <rdf:li>Brands</rdf:li>
            <rdf:li>Tpl</rdf:li>
            <rdf:li>CentOS</rdf:li>
            <rdf:li>Logo</rdf:li>
            <rdf:li>Circular</rdf:li>
          </rdf:Bag>
        </dc:subject>
        <dc:coverage>The CentOS Project</dc:coverage>
        <dc:description />
        <dc:contributor>
          <cc:Agent>
            <dc:title>Alain Reguera Delgado</dc:title>
          </cc:Agent>
        </dc:contributor>
      </cc:Work>
      <cc:License
         rdf:about="http://creativecommons.org/licenses/by-sa/3.0/">
        <cc:permits
           rdf:resource="http://creativecommons.org/ns#Reproduction" />
        <cc:permits
           rdf:resource="http://creativecommons.org/ns#Distribution" />
        <cc:requires
           rdf:resource="http://creativecommons.org/ns#Notice" />
        <cc:requires
           rdf:resource="http://creativecommons.org/ns#Attribution" />
        <cc:permits
           rdf:resource="http://creativecommons.org/ns#DerivativeWorks" />
        <cc:requires
           rdf:resource="http://creativecommons.org/ns#ShareAlike" />
      </cc:License>
    </rdf:RDF>
  </metadata>
  <g
     inkscape:label="Layer 1"
     inkscape:groupmode="layer"
     id="layer1"
     transform="translate(-369.60375,709.97594)"
     style="display:inline" />
  <g
     style="display:inline"
     id="CENTOSARTWORK"
     transform="translate(-37.125985,305.3937)"
     inkscape:label="#g3905">
    <g
       transform="matrix(0.5254777,0,0,0.5254819,125.27282,71.140824)"
       id="SYMBOL"
       style="display:inline"
       inkscape:label="#g3789">
      <g
         id="g3791"
         transform="matrix(0,-1.4853794,1.4853794,0,-2754.3723,24.127639)"
         style="display:inline">
        <g
           transform="translate(16.279512,-899.16723)"
           id="g3793">
          <g
             id="g3795"
             transform="matrix(1.0666663,0,0,1,-26.935596,-4.1328125e-5)">
            <path
               id="path3797"
               d="M 323.36653,2798.1614 L 317.96037,2803.9619 L 312.55421,2798.1614 L 312.55421,2757.3353 L 294.54088,2757.3353 L 317.96037,2732.4374 L 340.98524,2757.3353 L 323.36654,2757.3353 L 323.36653,2798.1614 z"
               style="fill:#932279;fill-opacity:1;fill-rule:evenodd;stroke:none;stroke-width:30;stroke-linecap:round;stroke-linejoin:round;marker:none;marker-start:none;marker-mid:none;marker-end:none;stroke-miterlimit:4;stroke-dasharray:none;stroke-dashoffset:0;stroke-opacity:1;visibility:visible;display:inline;overflow:visible"
               sodipodi:nodetypes="ccccccccc" />
          </g>
          <g
             transform="matrix(1.0722788,0,0,1,-28.850792,-4.1328125e-5)"
             id="g3801"
             clip-path="url(#clipPath4429)" />
        </g>
      </g>
      <g
         transform="matrix(1.4853794,0,0,1.4853794,-402.70015,-3303.1796)"
         id="g3803"
         style="display:inline">
        <g
           id="g3805"
           transform="translate(16.279512,-899.16723)">
          <g
             transform="matrix(1.0666663,0,0,1,-26.935596,-4.1328125e-5)"
             id="g3807">
            <path
               sodipodi:nodetypes="ccccccccc"
               style="fill:#efa724;fill-opacity:1;fill-rule:evenodd;stroke:none;stroke-width:30;stroke-linecap:round;stroke-linejoin:round;marker:none;marker-start:none;marker-mid:none;marker-end:none;stroke-miterlimit:4;stroke-dasharray:none;stroke-dashoffset:0;stroke-opacity:1;visibility:visible;display:inline;overflow:visible"
               d="M 323.36653,2798.1614 L 317.96037,2803.9619 L 312.55421,2798.1614 L 312.55421,2757.3353 L 294.54088,2757.3353 L 317.96037,2732.4374 L 340.98524,2757.3353 L 323.36654,2757.3353 L 323.36653,2798.1614 z"
               id="path3809" />
          </g>
          <g
             clip-path="url(#clipPath4429)"
             id="g3813"
             transform="matrix(1.0722788,0,0,1,-28.850792,-4.1328125e-5)" />
        </g>
      </g>
      <g
         id="g3815"
         transform="matrix(0,1.4853794,-1.4853794,0,4260.2115,-927.32613)"
         style="display:inline">
        <g
           transform="matrix(1.0666663,0,0,1,-26.935596,-4.1328125e-5)"
           id="g3817">
          <path
             sodipodi:nodetypes="ccccccccc"
             style="fill:#262577;fill-opacity:1;fill-rule:evenodd;stroke:none;stroke-width:30;stroke-linecap:round;stroke-linejoin:round;marker:none;marker-start:none;marker-mid:none;marker-end:none;stroke-miterlimit:4;stroke-dasharray:none;stroke-dashoffset:0;stroke-opacity:1;visibility:visible;display:inline;overflow:visible"
             d="M 323.36653,2798.1614 L 317.96037,2803.9619 L 312.55421,2798.1614 L 312.55421,2757.3353 L 294.54088,2757.3353 L 317.96037,2732.4374 L 340.98524,2757.3353 L 323.36654,2757.3353 L 323.36653,2798.1614 z"
             id="path3819" />
          <path
             id="path3821"
             d="M 323.42008,2798.1614 L 317.96037,2803.9619 L 317.96037,2732.4374 L 341.21333,2757.3353 L 323.4201,2757.3353 L 323.42008,2798.1614 z"
             style="fill:#ffffff;fill-opacity:0.15686275;fill-rule:evenodd;stroke:none;stroke-width:30;stroke-linecap:round;stroke-linejoin:round;marker:none;marker-start:none;marker-mid:none;marker-end:none;stroke-miterlimit:4;stroke-dasharray:none;stroke-dashoffset:0;stroke-opacity:1;visibility:visible;display:inline;overflow:visible"
             sodipodi:nodetypes="cccccc" />
        </g>
        <g
           clip-path="url(#clipPath4429)"
           id="g3823"
           transform="matrix(1.0722788,0,0,1,-28.850792,-4.1328125e-5)" />
      </g>
      <g
         transform="matrix(-1.4853794,0,0,-1.4853794,572.93464,2375.8)"
         id="g3825"
         style="display:inline">
        <g
           id="g3827"
           transform="translate(16.279512,-899.16723)">
          <g
             transform="matrix(1.0666663,0,0,1,-26.935596,-4.1328125e-5)"
             id="g3829">
            <path
               sodipodi:nodetypes="ccccccccc"
               style="fill:#9ccd2a;fill-opacity:1;fill-rule:evenodd;stroke:none;stroke-width:30;stroke-linecap:round;stroke-linejoin:round;marker:none;marker-start:none;marker-mid:none;marker-end:none;stroke-miterlimit:4;stroke-dasharray:none;stroke-dashoffset:0;stroke-opacity:1;visibility:visible;display:inline;overflow:visible"
               d="M 323.36653,2798.1614 L 317.96037,2803.9619 L 312.55421,2798.1614 L 312.55421,2757.3353 L 294.54088,2757.3353 L 317.96037,2732.4374 L 340.98524,2757.3353 L 323.36654,2757.3353 L 323.36653,2798.1614 z"
               id="path3831" />
          </g>
          <g
             clip-path="url(#clipPath4429)"
             id="g3835"
             transform="matrix(1.0722788,0,0,1,-28.850792,-4.1328125e-5)" />
        </g>
      </g>
      <g
         transform="matrix(1.4853794,0,0,1.4853794,-994.6136,-3940.533)"
         id="g3837"
         style="display:inline">
        <rect
           style="fill:#9ccd2a;fill-opacity:1;stroke:#ffffff;stroke-width:3.54330707;stroke-linecap:butt;stroke-linejoin:miter;stroke-miterlimit:4;stroke-dasharray:none;stroke-dashoffset:0;stroke-opacity:1"
           id="rect3839"
           width="49.606449"
           height="49.606449"
           x="671.98438"
           y="2285.7893" />
        <rect
           y="2285.7893"
           x="732.22076"
           height="49.606449"
           width="49.606449"
           id="rect3841"
           style="fill:#932279;fill-opacity:1;stroke:#ffffff;stroke-width:3.54392791;stroke-linecap:butt;stroke-linejoin:miter;stroke-miterlimit:4;stroke-dasharray:none;stroke-dashoffset:0;stroke-opacity:1" />
        <rect
           style="fill:#efa724;fill-opacity:1;stroke:#ffffff;stroke-width:3.54330707;stroke-linecap:butt;stroke-linejoin:miter;stroke-miterlimit:4;stroke-dasharray:none;stroke-dashoffset:0;stroke-opacity:1"
           id="rect3843"
           width="49.606449"
           height="49.606449"
           x="732.22076"
           y="2346.0256" />
        <rect
           y="2346.0256"
           x="671.98438"
           height="49.606449"
           width="49.606449"
           id="rect3845"
           style="fill:#262577;fill-opacity:1;stroke:#ffffff;stroke-width:3.54330707;stroke-linecap:butt;stroke-linejoin:miter;stroke-miterlimit:4;stroke-dasharray:none;stroke-dashoffset:0;stroke-opacity:1" />
      </g>
      <rect
         y="-349.27026"
         x="306.48581"
         height="73.684402"
         width="73.684402"
         id="rect3855"
         style="fill:none;fill-opacity:1;stroke:#ffffff;stroke-width:5.26315546;stroke-linecap:butt;stroke-linejoin:miter;stroke-miterlimit:4;stroke-dasharray:none;stroke-dashoffset:0;stroke-opacity:1;display:inline"
         transform="matrix(0.7071068,-0.7071068,0.7071068,0.7071068,0,0)" />
      <rect
         style="fill:none;fill-opacity:1;stroke:#ffffff;stroke-width:5.26315546;stroke-linecap:butt;stroke-linejoin:miter;stroke-miterlimit:4;stroke-dasharray:none;stroke-dashoffset:0;stroke-opacity:1;display:inline"
         id="rect3857"
         width="73.684402"
         height="73.684402"
         x="395.95984"
         y="-349.27026"
         transform="matrix(0.7071068,-0.7071068,0.7071068,0.7071068,0,0)" />
      <rect
         y="-259.79648"
         x="395.95984"
         height="73.684402"
         width="73.684402"
         id="rect3859"
         style="fill:none;fill-opacity:1;stroke:#ffffff;stroke-width:5.26315546;stroke-linecap:butt;stroke-linejoin:miter;stroke-miterlimit:4;stroke-dasharray:none;stroke-dashoffset:0;stroke-opacity:1;display:inline"
         transform="matrix(0.7071068,-0.7071068,0.7071068,0.7071068,0,0)" />
      <rect
         style="fill:none;fill-opacity:1;stroke:#ffffff;stroke-width:5.26315546;stroke-linecap:butt;stroke-linejoin:miter;stroke-miterlimit:4;stroke-dasharray:none;stroke-dashoffset:0;stroke-opacity:1;display:inline"
         id="rect3861"
         width="73.684402"
         height="73.684402"
         x="306.48581"
         y="-259.79648"
         transform="matrix(0.7071068,-0.7071068,0.7071068,0.7071068,0,0)" />
    </g>
    <path
       sodipodi:type="arc"
       style="fill:none;fill-opacity:1;stroke:#000000;stroke-width:1.64078403;stroke-linecap:butt;stroke-miterlimit:4;stroke-dasharray:none;stroke-dashoffset:0;stroke-opacity:1;display:inline"
       id="CIRCULAR_LINE_2"
       sodipodi:cx="391.92764"
       sodipodi:cy="-204.88971"
       sodipodi:rx="88.988396"
       sodipodi:ry="88.988396"
       d="M 480.91604,-204.88971 A 88.988396,88.988396 0 1 1 302.93925,-204.88971 A 88.988396,88.988396 0 1 1 480.91604,-204.88971 z"
       transform="matrix(0,1.4795213,-1.4795213,0,-133.13869,-752.38498)"
       inkscape:label="#path3863" />
    <path
       transform="matrix(0,0.9254745,-0.9254745,0,-19.620209,-535.23874)"
       d="M 480.91604,-204.88971 A 88.988396,88.988396 0 1 1 302.93925,-204.88971 A 88.988396,88.988396 0 1 1 480.91604,-204.88971 z"
       sodipodi:ry="88.988396"
       sodipodi:rx="88.988396"
       sodipodi:cy="-204.88971"
       sodipodi:cx="391.92764"
       id="CIRCULAR_LINE_1"
       style="fill:none;fill-opacity:1;stroke:#000000;stroke-width:2.62305975;stroke-linecap:butt;stroke-miterlimit:4;stroke-dasharray:none;stroke-dashoffset:0;stroke-opacity:1;display:inline"
       sodipodi:type="arc"
       inkscape:label="#path3865" />
    <path
       id="TEXT_DESCRIPTION"
       d="M 567.28538,-229.58873 L 562.30727,-235.29231 C 561.80247,-235.87067 561.38304,-236.51268 561.04896,-237.21836 C 560.42532,-238.60353 560.43107,-240.13696 561.06621,-241.81865 C 561.64429,-243.34215 562.65321,-244.7322 564.09295,-245.98882 C 565.48346,-247.20246 566.93955,-248.01807 568.46123,-248.43565 C 570.13659,-248.90066 571.64608,-248.79814 572.98971,-248.12809 C 574.0308,-247.60591 574.92189,-246.92029 575.66299,-246.07122 L 580.1739,-240.90292 L 577.7005,-238.74413 L 573.01238,-244.11546 C 572.2498,-244.98915 571.22292,-245.20938 569.93172,-244.77616 C 568.92488,-244.43937 567.82465,-243.75008 566.63103,-242.70828 C 565.62197,-241.82758 564.93859,-240.88424 564.58087,-239.87827 C 564.15379,-238.70337 564.30005,-237.70369 565.01965,-236.87922 L 569.62958,-231.63475 L 567.28538,-229.58873 M 581.27105,-219.56187 C 579.40583,-218.38587 577.60125,-218.07836 575.85732,-218.63934 C 574.25724,-219.1559 572.86484,-220.35369 571.68012,-222.23271 C 570.49539,-224.11174 569.99084,-225.8307 570.16649,-227.3896 C 570.36193,-229.1927 571.46825,-230.73017 573.48545,-232.00201 C 575.17104,-233.06478 576.90683,-233.25169 578.69285,-232.56274 C 580.29501,-231.95097 581.63184,-230.79539 582.70333,-229.09597 C 583.87934,-227.23077 584.35039,-225.44242 584.11651,-223.73092 C 583.90512,-222.01434 582.95663,-220.62465 581.27105,-219.56187 M 579.26641,-222.78725 C 580.13683,-223.33606 580.68796,-224.06973 580.91981,-224.98825 C 581.17417,-225.90167 581.00517,-226.82814 580.41281,-227.76765 C 579.87271,-228.62427 579.12012,-229.14416 578.15505,-229.32734 C 577.21248,-229.50541 576.28527,-229.30697 575.3734,-228.73203 C 574.32335,-228.06998 573.66604,-227.25971 573.40147,-226.30123 C 573.13689,-225.34276 573.28771,-224.41449 573.85395,-223.51642 C 574.49858,-222.49402 575.30238,-221.93883 576.26536,-221.85086 C 577.14692,-221.76952 578.14727,-222.08164 579.26641,-222.78725 M 583.52776,-197.8318 L 582.28898,-200.89855 L 589.6719,-203.88081 C 589.95963,-203.99706 590.17456,-204.11911 590.3167,-204.24697 C 590.4588,-204.37485 590.58402,-204.56635 590.69236,-204.82149 C 590.81581,-205.08276 590.8787,-205.31955 590.88103,-205.53186 C 590.89847,-205.75031 590.85826,-205.98068 590.7604,-206.22298 L 589.85196,-208.47193 L 580.71985,-204.78311 L 579.46271,-207.89529 L 588.66297,-211.61165 L 587.1856,-215.26903 L 578.00806,-211.56185 L 576.7234,-214.74219 L 588.49064,-219.49545 L 593.58342,-206.8877 C 593.90151,-206.10019 594.07661,-205.44868 594.1087,-204.93317 C 594.15591,-204.42379 594.03348,-203.85468 593.74143,-203.22583 C 593.5035,-202.72459 593.23952,-202.30968 592.94948,-201.98112 C 592.66552,-201.63743 592.31153,-201.37994 591.8875,-201.20864 L 583.52776,-197.8318 M 587.41633,-177.87119 L 586.81068,-181.12276 L 594.63855,-182.58081 C 594.94362,-182.63765 595.1785,-182.71463 595.34317,-182.81174 C 595.50783,-182.90888 595.66856,-183.07173 595.82536,-183.3003 C 595.99821,-183.53188 596.10683,-183.75148 596.15124,-183.95911 C 596.21168,-184.16975 596.21798,-184.40353 596.17014,-184.66043 L 595.72599,-187.04492 L 586.04352,-185.24143 L 585.4289,-188.54117 L 595.18363,-190.35812 L 594.46133,-194.23593 L 584.73069,-192.42346 L 584.10261,-195.79547 L 596.57903,-198.11937 L 599.06892,-184.75178 C 599.22443,-183.91682 599.26677,-183.24352 599.19594,-182.73189 C 599.14114,-182.22327 598.90822,-181.68977 598.4972,-181.13138 C 598.16455,-180.68731 597.82349,-180.33303 597.47402,-180.06855 C 597.12752,-179.78804 596.72947,-179.60591 596.27988,-179.52214 L 587.41633,-177.87119 M 587.54996,-163.9305 L 587.44172,-170.4466 C 587.42192,-171.63877 587.4651,-172.48077 587.57128,-172.9726 C 587.75369,-173.79241 588.16745,-174.45271 588.81255,-174.95349 C 589.55456,-175.52123 590.40732,-175.8131 591.37086,-175.8291 L 600.04266,-175.97316 L 600.09923,-172.56813 L 591.69689,-172.42855 C 591.28861,-172.42177 590.94047,-172.2363 590.65249,-171.87213 C 590.36449,-171.50796 590.22389,-171.12174 590.23067,-170.71346 L 590.28601,-167.38192 L 600.18265,-167.54632 L 600.23921,-164.14129 L 587.54996,-163.9305 M 586.00087,-150.03018 L 586.40908,-153.41112 L 594.70334,-152.40968 C 594.91413,-152.38424 595.10649,-152.41037 595.2804,-152.48808 C 595.47051,-152.56385 595.65741,-152.68112 595.84111,-152.8399 C 596.15592,-153.13094 596.33879,-153.48726 596.3897,-153.90885 L 596.7891,-157.21683 L 587.01111,-158.39741 L 587.41932,-161.77835 L 600.01882,-160.25711 L 599.23764,-153.7871 C 599.09862,-152.6358 598.93293,-151.80853 598.74057,-151.30529 C 598.44808,-150.51802 597.94005,-149.92128 597.21649,-149.51507 C 596.37156,-149.05773 595.48696,-148.88485 594.56269,-148.99643 L 586.00087,-150.03018 M 598.5006,-141.5595 L 599.22851,-144.86121 L 602.17134,-144.21243 L 601.44344,-140.91071 L 598.5006,-141.5595 M 584.68506,-144.55515 L 585.42352,-147.90471 L 597.81691,-145.17242 L 597.07845,-141.82286 L 584.68506,-144.55515 M 591.624,-132.19387 L 592.57121,-135.36284 L 587.05486,-137.01168 C 586.55409,-137.16137 586.08793,-137.11319 585.65639,-136.86713 C 585.21082,-136.57413 584.89214,-136.10682 584.70036,-135.4652 L 584.41269,-134.50277 L 582.04183,-135.21143 L 582.94694,-138.23955 C 583.21825,-139.14721 583.77842,-139.82361 584.62747,-140.26877 C 585.13096,-140.52742 585.63381,-140.64134 586.13603,-140.61056 C 586.63825,-140.57978 587.21017,-140.4685 587.85179,-140.27671 L 593.53246,-138.57875 L 594.1499,-140.64445 L 596.68507,-139.88668 L 596.06763,-137.82098 L 600.33987,-136.544 L 599.37862,-133.32809 L 595.10639,-134.60507 L 594.15917,-131.4361 L 591.624,-132.19387 M 588.38063,-117.30089 L 576.23988,-122.55785 C 575.72986,-122.77758 575.31758,-123.07968 575.00303,-123.46416 C 574.6735,-123.85512 574.42554,-124.29096 574.25915,-124.77167 C 574.03532,-125.49057 573.96046,-126.16306 574.03455,-126.78916 C 574.10865,-127.41527 574.31372,-128.11834 574.64975,-128.89836 L 577.28637,-135.01859 L 579.71646,-133.9717 L 576.97321,-127.60396 C 576.85044,-127.31896 576.83162,-127.00694 576.91676,-126.66792 C 577.03814,-126.20659 577.27884,-125.89838 577.63885,-125.74327 L 578.08886,-125.5494 L 579.63981,-129.14954 C 579.93708,-129.83957 580.26411,-130.39228 580.62091,-130.80767 C 580.99271,-131.2166 581.50055,-131.54914 582.14444,-131.80529 C 583.26697,-132.26428 584.40575,-132.24498 585.5608,-131.74738 L 593.18858,-128.4613 L 591.77333,-125.17618 L 584.31275,-128.4169 C 584.01274,-128.54615 583.78127,-128.62809 583.61834,-128.6627 C 583.44895,-128.68233 583.23871,-128.64841 582.98762,-128.56095 C 582.73006,-128.4585 582.51532,-128.31092 582.34338,-128.11821 C 582.18644,-127.91906 582.03689,-127.65448 581.89472,-127.32446 L 580.66365,-124.46685 L 589.77649,-120.54101 L 588.38063,-117.30089 M 561.42318,-99.8464 L 566.52475,-106.46242 C 567.31268,-107.48425 568.3035,-108.28775 569.49723,-108.87291 C 570.7896,-109.50577 572.19495,-109.66994 573.71328,-109.36542 C 575.22164,-109.04797 576.63548,-108.38058 577.95481,-107.36326 C 579.26119,-106.35592 580.24522,-105.18463 580.90692,-103.8494 C 581.61924,-102.39262 581.85158,-100.95533 581.60396,-99.537496 C 581.45964,-98.761903 581.2512,-98.076994 580.97864,-97.482768 C 580.6961,-96.875639 580.3005,-96.242237 579.79185,-95.582558 L 575.06429,-89.451585 L 572.65847,-91.3067 L 577.02697,-96.972029 C 577.41594,-97.476492 577.67393,-97.958187 577.80095,-98.417116 C 577.93091,-98.853165 577.95094,-99.373977 577.86103,-99.979552 C 577.77111,-100.58515 577.60787,-101.08228 577.37132,-101.47093 C 577.14768,-101.84963 576.79012,-102.22847 576.29861,-102.60747 L 569.41673,-93.682632 L 567.01091,-95.537747 L 573.86286,-104.42378 C 573.42309,-104.76289 572.99017,-105.0039 572.56411,-105.1468 C 572.15098,-105.27974 571.6551,-105.3321 571.07647,-105.30389 C 570.48787,-105.26276 569.97836,-105.15033 569.54793,-104.96659 C 569.10753,-104.76993 568.71279,-104.44524 568.36371,-103.99252 L 563.7708,-98.036167 L 561.42318,-99.8464 M 551.50364,-90.459863 L 553.96978,-92.808387 L 559.73127,-86.758351 C 559.8777,-86.6046 560.04272,-86.502369 560.22632,-86.45166 C 560.4212,-86.389148 560.64,-86.360697 560.88275,-86.366306 C 561.3108,-86.390521 561.67859,-86.549052 561.98612,-86.841901 L 564.39903,-89.139738 L 557.6069,-96.272038 L 560.07304,-98.620562 L 568.8251,-89.430185 L 564.10571,-84.935887 C 563.26592,-84.136165 562.61172,-83.603387 562.14312,-83.33755 C 561.41655,-82.916308 560.64493,-82.779194 559.82827,-82.92621 C 558.88545,-83.110998 558.09302,-83.540483 557.45098,-84.214665 L 551.50364,-90.459863 M 549.77345,-76.58849 L 552.41155,-78.583479 L 548.93879,-83.175729 C 548.62354,-83.59262 548.21916,-83.829483 547.72566,-83.886318 C 547.19309,-83.91361 546.65973,-83.725291 546.12559,-83.321361 L 545.32439,-82.715476 L 543.83185,-84.689166 L 546.3527,-86.595489 C 547.10831,-87.166896 547.96006,-87.380979 548.90797,-87.237738 C 549.46693,-87.148493 549.93978,-86.942935 550.32653,-86.621065 C 550.71327,-86.299201 551.10861,-85.871201 551.51253,-85.337063 L 555.08874,-80.608023 L 556.80839,-81.908461 L 558.40438,-79.79798 L 556.68473,-78.497543 L 559.37427,-74.940992 L 556.69708,-72.916448 L 554.00754,-76.472999 L 551.36944,-74.47801 L 549.77345,-76.58849 M 532.99945,-78.119884 L 538.13393,-81.181518 C 539.38248,-81.926016 540.78758,-82.041225 542.34921,-81.527145 C 543.90519,-80.990677 545.10143,-80.02101 545.93794,-78.618143 C 546.84974,-77.089029 547.13804,-75.473377 546.80286,-73.771183 C 546.462,-72.046616 545.67432,-70.816262 544.4398,-70.080118 L 539.55784,-67.169055 L 538.21524,-69.420651 L 541.79254,-71.553757 C 542.24145,-71.821453 542.60215,-72.09358 542.87461,-72.370137 C 543.14142,-72.624325 543.34117,-72.94311 543.47387,-73.326494 C 543.71392,-74.040143 543.62063,-74.754691 543.19401,-75.470142 L 536.88113,-71.705837 L 535.52598,-73.978475 L 541.81782,-77.730232 C 541.61706,-78.066926 541.4105,-78.3336 541.19815,-78.530255 C 540.98014,-78.704528 540.68079,-78.839801 540.30009,-78.936076 C 539.92776,-79.018332 539.55518,-79.005344 539.18232,-78.897113 C 538.80381,-78.766499 538.37607,-78.558982 537.89909,-78.274562 L 534.21658,-76.078718 L 532.99945,-78.119884 M 528.69616,-65.142224 L 532.14827,-66.724599 L 528.00347,-75.766913 L 531.07697,-77.175737 L 536.36516,-65.638992 L 533.26939,-64.219959 L 532.53435,-65.823522 C 532.55479,-65.347778 532.50407,-64.929247 532.38221,-64.567927 C 532.26034,-64.206633 532.03702,-63.870688 531.71223,-63.56009 C 531.56128,-63.419042 531.3995,-63.282001 531.2269,-63.148967 C 531.03945,-63.009155 530.84179,-62.891601 530.63392,-62.796303 C 530.3815,-62.680618 530.13033,-62.601419 529.88039,-62.558706 L 528.69616,-65.142224 M 512.93938,-63.20356 C 512.3121,-65.129312 512.31601,-66.831208 512.95111,-68.309255 C 513.57577,-69.766724 514.70342,-70.76104 516.33408,-71.292208 L 519.85167,-72.438019 L 518.41751,-76.840827 L 521.67885,-77.903168 L 527.04367,-61.433407 L 520.56758,-59.323901 C 518.73503,-58.726981 517.1292,-58.805131 515.75008,-59.55835 C 514.43275,-60.280183 513.49585,-61.495252 512.93938,-63.20356 M 516.1866,-64.46744 C 516.51543,-63.457988 517.10968,-62.741124 517.96935,-62.316843 C 518.81856,-61.871997 519.7246,-61.80639 520.68746,-62.120021 L 522.9704,-62.86366 L 520.67878,-69.898834 L 518.16289,-69.079313 C 517.23108,-68.775792 516.5841,-68.204309 516.22195,-67.364861 C 515.84934,-66.504837 515.83755,-65.539031 516.1866,-64.46744 M 504.18372,-58.123855 L 507.90512,-58.880292 L 505.92374,-68.627956 L 509.23699,-69.301429 L 511.76495,-56.864754 L 508.4277,-56.186401 L 508.07632,-57.915051 C 507.9881,-57.447112 507.8436,-57.051058 507.64281,-56.726887 C 507.44202,-56.402742 507.14819,-56.126341 506.76131,-55.897682 C 506.58226,-55.79463 506.39357,-55.697941 506.19525,-55.607613 C 505.98093,-55.51406 505.76173,-55.444503 505.53764,-55.39894 C 505.26554,-55.343644 505.00294,-55.323601 504.74983,-55.338808 L 504.18372,-58.123855 M 499.10276,-53.240563 L 502.45544,-53.677269 L 502.84467,-50.689013 L 499.492,-50.252307 L 499.10276,-53.240563 M 497.22823,-67.252315 L 500.6295,-67.69535 L 502.26873,-55.11066 L 498.86746,-54.667626 L 497.22823,-67.252315 M 483.26987,-62.598233 C 483.23157,-63.675556 483.54971,-64.610286 484.22431,-65.402428 C 484.8826,-66.193992 485.74224,-66.608641 486.80322,-66.646375 L 495.20141,-66.945054 L 495.28327,-64.64351 L 488.37863,-64.397948 C 487.88895,-64.380535 487.48523,-64.243599 487.16747,-63.987141 C 486.8334,-63.730108 486.67449,-63.373068 486.69074,-62.91602 C 486.72848,-61.855029 487.46556,-61.350075 488.90198,-61.401155 L 492.42775,-61.526548 C 493.17861,-61.553258 493.91775,-61.219985 494.64518,-60.52673 C 495.37262,-59.833487 495.75114,-59.070625 495.78074,-58.238144 C 495.82254,-57.062897 495.59504,-56.106875 495.09825,-55.370074 C 494.52333,-54.532457 493.64824,-54.092743 492.47298,-54.050933 L 484.39308,-53.763573 L 484.30775,-56.163056 L 491.5062,-56.419067 C 491.78369,-56.428947 492.0236,-56.5764 492.22593,-56.861428 C 492.41252,-57.129572 492.49972,-57.435031 492.48752,-57.777804 C 492.47417,-58.153243 492.33198,-58.475058 492.06094,-58.743253 C 491.77416,-58.99456 491.44306,-59.113533 491.06763,-59.100174 L 487.27253,-58.965202 C 486.08096,-58.922831 485.12961,-59.248557 484.41849,-59.94238 C 483.69165,-60.619313 483.30878,-61.504597 483.26987,-62.598233 M 470.61157,-67.674495 L 476.56322,-67.113818 C 478.01048,-66.977479 479.21252,-66.240826 480.16934,-64.903859 C 481.10838,-63.552165 481.5013,-62.063251 481.3481,-60.437113 C 481.18113,-58.664636 480.45985,-57.190454 479.18427,-56.014564 C 477.89091,-54.823966 476.52873,-54.296065 475.09773,-54.430861 L 469.43878,-54.963963 L 469.68465,-57.573907 L 473.83129,-57.183272 C 474.35166,-57.13426 474.80345,-57.140917 475.18664,-57.203242 C 475.55206,-57.250856 475.9015,-57.390196 476.23497,-57.621262 C 476.85008,-58.055494 477.19669,-58.687269 477.27481,-59.51659 L 469.95721,-60.205946 L 470.20538,-62.840282 L 477.49859,-62.153224 C 477.53536,-62.5435 477.52611,-62.880687 477.47084,-63.164785 C 477.39779,-63.434161 477.23606,-63.72009 476.98565,-64.022572 C 476.73373,-64.308798 476.42535,-64.518311 476.06053,-64.65111 C 475.67792,-64.769184 475.21017,-64.854263 474.65728,-64.906346 L 470.38868,-65.30847 L 470.61157,-67.674495 M 438.95728,-67.953311 C 440.09537,-71.084925 441.77721,-73.010976 444.00279,-73.73147 C 445.8112,-74.308142 448.06628,-74.105547 450.76806,-73.123686 C 453.76152,-72.035821 455.74334,-70.603084 456.71352,-68.825471 C 457.77724,-66.874843 457.75401,-64.3721 456.64383,-61.317234 C 455.7345,-58.815023 454.32752,-57.119275 452.4229,-56.229986 C 450.35085,-55.262545 447.80275,-55.328327 444.77858,-56.427334 C 441.44742,-57.637942 439.3637,-59.220669 438.52742,-61.175521 C 437.79868,-62.900162 437.94197,-65.159423 438.95728,-67.953311 M 443.02254,-66.371669 C 442.44794,-64.790515 442.36658,-63.395049 442.77846,-62.185268 C 443.24343,-60.834572 444.30486,-59.857966 445.96276,-59.255448 C 447.58999,-58.664108 449.02169,-58.778118 450.25789,-59.597481 C 451.289,-60.282859 452.07791,-61.377744 452.62463,-62.88214 C 453.25504,-64.616814 453.44455,-65.999044 453.19316,-67.028834 C 452.84402,-68.459103 451.63325,-69.550804 449.56085,-70.30394 C 447.81084,-70.93992 446.37913,-70.825909 445.26572,-69.961908 C 444.39511,-69.287734 443.64738,-68.090989 443.02254,-66.371669 M 426.11854,-77.599855 C 427.12337,-79.358348 428.3865,-80.498948 429.90793,-81.021657 C 431.4071,-81.538279 432.9012,-81.371164 434.39024,-80.520313 L 437.60234,-78.684894 L 439.89965,-82.705328 L 442.87775,-81.003616 L 434.2841,-65.964215 L 428.37045,-69.34333 C 426.69705,-70.299536 425.67598,-71.541397 425.30723,-73.068916 C 424.95674,-74.529587 425.22718,-76.039898 426.11854,-77.599855 M 429.23642,-76.044009 C 428.70971,-75.122218 428.57804,-74.200432 428.84141,-73.278649 C 429.08252,-72.350794 429.64269,-71.63566 430.52193,-71.133245 L 432.6066,-69.942046 L 436.27743,-76.366231 L 433.98004,-77.678981 C 433.12916,-78.165183 432.2712,-78.260387 431.40613,-77.964595 C 430.5188,-77.662721 429.79557,-77.022527 429.23642,-76.044009 M 419.51331,-91.055164 L 424.25405,-87.413478 C 425.40686,-86.527928 426.0326,-85.2646 426.13129,-83.623488 C 426.20708,-81.979374 425.74748,-80.509675 424.75248,-79.214388 C 423.66794,-77.802534 422.27282,-76.938192 420.56711,-76.621358 C 418.83852,-76.301535 417.40429,-76.579418 416.26443,-77.455008 L 411.75684,-80.917594 L 413.35381,-82.996525 L 416.65679,-80.459285 C 417.07129,-80.14089 417.45734,-79.906125 417.81495,-79.754989 C 418.14967,-79.600858 418.51968,-79.532889 418.92497,-79.551081 C 419.67683,-79.591421 420.30648,-79.941887 420.81391,-80.602478 L 414.98514,-85.07996 L 416.59703,-87.17832 L 422.40638,-82.715763 C 422.64518,-83.026632 422.81678,-83.317039 422.92116,-83.586987 C 423.00264,-83.853932 423.01786,-84.182078 422.96681,-84.571426 C 422.90581,-84.94782 422.75621,-85.2893 422.51798,-85.595868 C 422.25687,-85.899429 421.90611,-86.220359 421.46571,-86.558661 L 418.06559,-89.170525 L 419.51331,-91.055164 M 405.86625,-90.243441 L 408.6154,-87.623675 L 415.4775,-94.824678 L 417.92513,-92.492242 L 409.17004,-83.304755 L 406.70467,-85.654093 L 407.92159,-86.931118 C 407.48731,-86.735813 407.07979,-86.627794 406.69903,-86.60706 C 406.31831,-86.586337 405.92351,-86.669245 405.51466,-86.855784 C 405.32771,-86.943706 405.14047,-87.043168 404.95294,-87.154172 C 404.75361,-87.276453 404.57116,-87.416466 404.40561,-87.574211 C 404.20461,-87.765767 404.03796,-87.969701 403.90565,-88.186011 L 405.86625,-90.243441 M 403.62605,-108.05261 L 409.50163,-101.02139 C 410.16146,-100.23178 410.46382,-99.335041 410.40872,-98.331158 C 410.33062,-97.329333 409.88423,-96.488035 409.06956,-95.807262 C 408.21729,-95.095073 407.30596,-94.75923 406.33555,-94.799732 C 405.34214,-94.842299 404.526,-95.245849 403.88711,-96.010382 L 400.08526,-100.56 L 399.55886,-100.12011 C 399.39594,-99.983956 399.28426,-99.837416 399.22381,-99.68049 C 399.14039,-99.525621 399.06957,-99.317443 399.01135,-99.055957 C 398.95746,-98.712914 398.98399,-98.426446 399.09095,-98.196553 C 399.18539,-97.956185 399.374,-97.666801 399.65677,-97.3284 L 403.72569,-92.459184 L 401.58248,-90.668231 L 398.09484,-94.841844 L 397.4193,-95.650247 C 396.65476,-96.565184 396.16543,-97.316329 395.9513,-97.903684 C 395.72467,-98.480566 395.63187,-99.062858 395.67288,-99.650562 C 395.74087,-100.40978 395.96166,-101.06256 396.33523,-101.60889 C 396.70884,-102.15522 397.27791,-102.74782 398.04243,-103.38671 L 403.62605,-108.05261 M 403.87979,-103.69893 L 401.96218,-102.0965 L 404.72716,-98.787688 C 404.989,-98.474353 405.30818,-98.283436 405.6847,-98.214937 C 406.03822,-98.148497 406.36538,-98.240958 406.66617,-98.49232 C 406.92938,-98.712261 407.05969,-99.002079 407.0571,-99.361776 C 407.05453,-99.721469 406.93803,-100.03918 406.70761,-100.31492 L 403.87979,-103.69893 M 389.92311,-110.69193 L 391.73342,-107.92384 L 396.55195,-111.07513 C 396.98938,-111.3612 397.25329,-111.74847 397.34366,-112.23694 C 397.40724,-112.76641 397.25575,-113.31138 396.88921,-113.87183 L 396.33941,-114.71251 L 398.41035,-116.0669 L 400.14021,-113.42184 C 400.65872,-112.629 400.81418,-111.76462 400.60659,-110.8287 C 400.47941,-110.27713 400.24207,-109.81941 399.89456,-109.45552 C 399.54705,-109.09164 399.09307,-108.72643 398.53261,-108.3599 L 393.57056,-105.11474 L 394.75062,-103.31036 L 392.53615,-101.86211 L 391.35609,-103.66649 L 387.6243,-101.22591 L 385.78716,-104.03501 L 389.51895,-106.47559 L 387.70864,-109.24367 L 389.92311,-110.69193 M 383.55486,-113.76281 L 385.19126,-110.8042 L 382.55424,-109.34567 L 380.91784,-112.30428 L 383.55486,-113.76281 M 395.90156,-120.64772 L 397.56167,-117.64623 L 386.45617,-111.50382 L 384.79606,-114.50531 L 395.90156,-120.64772 M 390.0171,-133.50722 L 391.36621,-130.38035 L 383.69525,-127.07066 C 383.5003,-126.98654 383.34725,-126.86714 383.23609,-126.71245 C 383.10996,-126.55129 383.00749,-126.35588 382.92868,-126.12621 C 382.80316,-125.71627 382.82451,-125.31634 382.99273,-124.92642 L 384.31272,-121.86703 L 393.35591,-125.76877 L 394.70502,-122.6419 L 383.05235,-117.61428 L 380.4706,-123.59808 C 380.01121,-124.66286 379.73796,-125.46109 379.65087,-125.99276 C 379.50732,-126.82025 379.64592,-127.5916 380.06666,-128.30681 C 380.56653,-129.12729 381.24387,-129.72194 382.09869,-130.09077 L 390.0171,-133.50722 M 385.49919,-147.96484 C 386.33492,-148.19054 387.03212,-148.30271 387.5908,-148.30135 C 388.14949,-148.29996 388.745,-148.13089 389.37735,-147.79413 C 390.02547,-147.4616 390.50865,-147.05071 390.8269,-146.56145 C 391.16092,-146.07642 391.43653,-145.43181 391.65373,-144.62764 L 393.55739,-137.57919 L 390.95561,-136.87649 L 389.35219,-142.81328 C 389.29683,-143.01826 389.25637,-143.16805 389.23082,-143.26267 C 389.15842,-143.53073 389.07727,-143.73721 388.98738,-143.88213 C 388.91326,-144.03128 388.77968,-144.18131 388.58666,-144.33221 C 388.47375,-144.43706 388.29351,-144.54064 388.04593,-144.64297 C 387.79836,-144.74528 387.60361,-144.77728 387.46169,-144.73896 L 386.89403,-144.58564 L 388.05029,-140.30454 C 388.45487,-138.80654 388.14694,-137.37835 387.12649,-136.01996 C 386.16786,-134.74593 384.87647,-133.8896 383.25233,-133.45094 C 381.59666,-133.00377 380.03122,-133.13083 378.55599,-133.8321 C 377.06077,-134.54489 376.10021,-135.6897 375.67432,-137.26653 L 373.64928,-144.76438 L 385.49919,-147.96484 M 384.20852,-143.91109 L 377.37933,-142.04126 L 378.16507,-139.132 C 378.39932,-138.26474 378.92722,-137.68828 379.74878,-137.40262 C 380.55459,-137.11269 381.48573,-137.1104 382.5422,-137.39574 C 383.34639,-137.61293 383.9827,-138.01319 384.45114,-138.59651 C 385.0432,-139.34856 385.19656,-140.25283 384.91122,-141.30931 L 384.20852,-143.91109 M 378.76783,-177.60351 C 380.2705,-177.60602 381.53717,-177.10999 382.56784,-176.11541 C 383.59852,-175.12079 384.11515,-173.85583 384.11774,-172.32052 L 384.11368,-160.19299 L 381.02669,-160.18779 L 381.00984,-170.18377 C 381.00871,-170.85343 380.8526,-171.41666 380.54149,-171.87349 C 380.18128,-172.39553 379.69084,-172.65604 379.07017,-172.65501 C 377.61651,-172.65254 376.89142,-171.62232 376.89488,-169.56434 L 376.90338,-164.51734 C 376.90584,-163.06367 376.45882,-161.78892 375.56233,-160.69308 C 374.66585,-159.59723 373.52344,-159.04814 372.1351,-159.0458 C 370.59978,-159.04321 369.35756,-159.57195 368.40842,-160.63202 C 367.44295,-161.70839 366.95874,-163.12041 366.95578,-164.86808 L 366.93625,-176.45656 L 369.87624,-176.46152 L 369.89346,-166.24503 C 369.89425,-165.78769 370.09103,-165.32252 370.48381,-164.84952 C 370.86026,-164.39282 371.30982,-164.16491 371.83247,-164.1658 C 372.42048,-164.16678 372.91827,-164.38812 373.32585,-164.82981 C 373.71709,-165.2878 373.91217,-165.8353 373.91108,-166.4723 L 373.90171,-172.0338 C 373.8988,-173.76511 374.34568,-175.12153 375.24235,-176.10306 C 376.12268,-177.10086 377.29784,-177.60101 378.76783,-177.60351 M 373.97293,-193.24519 L 387.02051,-191.05564 C 387.56835,-190.96473 388.04108,-190.77041 388.43871,-190.47266 C 388.85245,-190.17221 389.19776,-189.80862 389.47466,-189.38189 C 389.86448,-188.73773 390.09856,-188.10285 390.17689,-187.47727 C 390.25522,-186.85167 390.22488,-186.11994 390.08587,-185.28207 L 388.99516,-178.70793 L 386.38484,-179.14101 L 387.51966,-185.98101 C 387.57045,-186.28715 387.51384,-186.59456 387.34982,-186.90325 C 387.12126,-187.32196 386.81363,-187.5634 386.42692,-187.62756 L 385.94353,-187.70776 L 385.30194,-183.84063 C 385.17896,-183.09942 384.99414,-182.48438 384.74746,-181.9955 C 384.48467,-181.50928 384.07148,-181.06458 383.50789,-180.66139 C 382.52833,-179.94641 381.41819,-179.69184 380.17748,-179.89768 L 371.98398,-181.25706 L 372.56944,-184.78583 L 380.58974,-183.43035 C 380.912,-183.37688 381.15637,-183.35289 381.32285,-183.35839 C 381.492,-183.37999 381.68796,-183.46337 381.91072,-183.60854 C 382.13616,-183.76982 382.30921,-183.96462 382.42987,-184.19295 C 382.53443,-184.42395 382.61611,-184.7167 382.67492,-185.07119 L 383.18418,-188.14073 L 373.39549,-189.76477 L 373.97293,-193.24519 M 386.8564,-205.74366 C 387.88584,-205.42375 388.6629,-204.81455 389.18757,-203.91606 C 389.71708,-203.03315 389.82431,-202.08477 389.50926,-201.07094 L 387.01552,-193.04597 L 384.81626,-193.72939 L 386.86651,-200.32718 C 387.01192,-200.79509 387.01611,-201.22139 386.87908,-201.60605 C 386.7469,-202.00629 386.46245,-202.27428 386.02572,-202.41 C 385.01187,-202.72504 384.29169,-202.19627 383.86516,-200.8237 L 382.81822,-197.45461 C 382.59526,-196.73712 382.03643,-196.14966 381.14171,-195.69223 C 380.24701,-195.2348 379.40191,-195.12968 378.60643,-195.37688 C 377.48341,-195.72585 376.6563,-196.25653 376.1251,-196.96893 C 375.52457,-197.78838 375.39878,-198.75962 375.74775,-199.88265 L 378.14698,-207.60346 L 380.43983,-206.89096 L 378.30233,-200.01242 C 378.21994,-199.74726 378.27982,-199.47209 378.48196,-199.18694 C 378.67337,-198.92221 378.93284,-198.73895 379.26038,-198.63717 C 379.61913,-198.52569 379.96986,-198.55353 380.31256,-198.7207 C 380.64453,-198.9083 380.86625,-199.18148 380.97772,-199.54023 L 382.10463,-203.16667 C 382.45846,-204.30528 383.08031,-205.09551 383.97017,-205.53736 C 384.84929,-205.99962 385.81136,-206.06839 386.8564,-205.74366 M 385.13041,-217.07094 L 383.80181,-214.04202 L 389.07437,-211.72926 C 389.55302,-211.5193 390.02157,-211.50997 390.48002,-211.70126 C 390.95815,-211.93741 391.33172,-212.36212 391.60072,-212.97539 L 392.00423,-213.89529 L 394.27031,-212.90129 L 393.00075,-210.00699 C 392.62021,-209.13944 391.98133,-208.53682 391.08411,-208.19913 C 390.5527,-208.00417 390.03967,-207.95275 389.54502,-208.04488 C 389.05036,-208.137 388.4964,-208.31757 387.88314,-208.58657 L 382.45352,-210.96822 L 381.58746,-208.99381 L 379.16433,-210.0567 L 380.03038,-212.03111 L 375.94695,-213.82226 L 377.29523,-216.89606 L 381.37867,-215.1049 L 382.70727,-218.13382 L 385.13041,-217.07094 M 400.52072,-223.92087 L 397.53282,-218.74314 C 396.80625,-217.48407 395.63598,-216.69791 394.02203,-216.38467 C 392.40208,-216.09372 390.88477,-216.35644 389.47009,-217.17281 C 387.92809,-218.06265 386.88811,-219.33224 386.35012,-220.9816 C 385.80617,-222.65326 385.89339,-224.11155 386.61179,-225.35648 L 389.45275,-230.27956 L 391.72331,-228.96929 L 389.64157,-225.36186 C 389.38034,-224.90915 389.19828,-224.49562 389.09539,-224.12127 C 388.98653,-223.76922 388.96772,-223.39349 389.03895,-222.99409 C 389.17763,-222.25403 389.60771,-221.67583 390.32919,-221.2595 L 394.00285,-227.62556 L 396.29463,-226.30304 L 392.63322,-219.9582 C 392.97275,-219.76226 393.28316,-219.63028 393.56448,-219.56223 C 393.83981,-219.51649 394.16711,-219.54448 394.54639,-219.6462 C 394.91152,-219.75607 395.23041,-219.9492 395.50306,-220.2256 C 395.76972,-220.5243 396.04183,-220.91415 396.3194,-221.39515 L 398.46236,-225.10868 L 400.52072,-223.92087 M 413.05749,-239.964 L 410.95843,-237.40793 L 404.80492,-242.46121 C 404.56509,-242.65814 404.35502,-242.78838 404.17471,-242.85193 C 403.99439,-242.91545 403.76631,-242.93367 403.49045,-242.90661 C 403.20197,-242.88987 402.96397,-242.83169 402.77648,-242.73207 C 402.57635,-242.64277 402.39336,-242.49716 402.22751,-242.29521 L 400.6882,-240.42076 L 408.29963,-234.17023 L 406.16947,-231.57629 L 398.50125,-237.87346 L 395.99793,-234.8251 L 403.64722,-228.54348 L 401.47042,-225.89274 L 391.66267,-233.9469 L 400.29212,-244.4552 C 400.83114,-245.11156 401.31924,-245.57726 401.75644,-245.8523 C 402.18102,-246.13766 402.73926,-246.30271 403.43116,-246.34745 C 403.98514,-246.37861 404.47579,-246.34554 404.90312,-246.24826 C 405.34082,-246.16356 405.73638,-245.97609 406.08982,-245.68588 L 413.05749,-239.964"
       style="font-size:24px;font-style:normal;font-variant:normal;font-weight:200;font-stretch:normal;text-align:start;line-height:125%;writing-mode:lr-tb;text-anchor:start;fill:#000000;fill-opacity:1;stroke:none;stroke-width:1px;stroke-linecap:butt;stroke-linejoin:miter;stroke-opacity:1;display:inline;font-family:Denmark;-inkscape-font-specification:Denmark Ultra-Light"
       transform="translate(-315.78171,-4.2126195)"
       inkscape:label="#text3867" />
    <path
       id="TEXT_CENTOS"
       d="M 425.54864,-261.18812 C 426.21234,-260.24717 426.44839,-259.22215 426.25677,-258.11307 C 426.06515,-257.00397 425.51271,-256.12733 424.59944,-255.48315 C 423.6585,-254.81944 422.63837,-254.57647 421.53903,-254.75426 C 420.44378,-254.95563 419.55942,-255.53371 418.88595,-256.48849 C 418.22225,-257.42943 417.98416,-258.44264 418.1717,-259.52815 C 418.35925,-260.61364 418.9304,-261.49312 419.88518,-262.1666 C 420.79845,-262.81077 421.80475,-263.04397 422.90408,-262.8662 C 424.00341,-262.68841 424.88493,-262.12905 425.54864,-261.18812 M 453.76716,-265.34876 L 446.54162,-262.28411 C 445.80893,-261.97334 445.04106,-261.76721 444.23801,-261.66572 C 442.67206,-261.49816 441.16309,-261.99854 439.71109,-263.16686 C 438.39655,-264.22793 437.35248,-265.67042 436.57888,-267.49435 C 435.83173,-269.25591 435.4979,-270.95367 435.57739,-272.58763 C 435.65974,-274.38832 436.24774,-275.84249 437.34139,-276.95014 C 438.19175,-277.80742 439.15475,-278.46418 440.23039,-278.92043 L 446.77781,-281.69746 L 448.10682,-278.56406 L 441.30218,-275.67792 C 440.19536,-275.20846 439.64708,-274.26776 439.65736,-272.85583 C 439.66435,-271.75518 439.98852,-270.44878 440.62989,-268.93666 C 441.17207,-267.65834 441.88103,-266.68069 442.75676,-266.00371 C 443.77656,-265.20388 444.80869,-265.02547 445.85316,-265.46848 L 452.50758,-268.31848 L 453.76716,-265.34876 M 466.47089,-268.54724 L 460.47185,-266.99106 C 459.01306,-266.61264 457.5812,-266.90597 456.17627,-267.87105 C 454.78347,-268.85677 453.87448,-270.16918 453.44929,-271.80826 C 452.98584,-273.59486 453.16804,-275.28653 453.99589,-276.8833 C 454.83588,-278.50069 455.97707,-279.49647 457.41947,-279.87065 L 463.12348,-281.3503 L 463.8059,-278.71957 L 459.62624,-277.63534 C 459.10173,-277.49927 458.66374,-277.33317 458.31226,-277.13705 C 457.97292,-276.96154 457.68155,-276.70227 457.43816,-276.35925 C 456.99203,-275.7187 456.87739,-274.98046 457.09424,-274.14454 L 464.47012,-276.05787 L 465.15892,-273.40256 L 457.80763,-271.4956 C 457.90967,-271.10221 458.03781,-270.77683 458.19205,-270.51945 C 458.35842,-270.28271 458.61707,-270.06115 458.968,-269.8548 C 459.31467,-269.66482 459.68926,-269.56956 460.09176,-269.56901 C 460.5064,-269.5891 460.99236,-269.67142 461.54965,-269.81599 L 465.85225,-270.9321 L 466.47089,-268.54724 M 480.83507,-270.42785 L 477.327,-270.02968 L 476.3502,-278.63583 C 476.32536,-278.85454 476.25292,-279.04231 476.13288,-279.19911 C 476.01092,-279.37272 475.84785,-279.53315 475.64368,-279.68041 C 475.2747,-279.92824 474.87149,-280.02733 474.43404,-279.97769 L 471.00168,-279.58811 L 472.15321,-269.44246 L 468.64514,-269.04429 L 467.16132,-282.11755 L 473.87462,-282.87951 C 475.0692,-283.01508 475.94335,-283.04613 476.49704,-282.97265 C 477.36121,-282.86622 478.08483,-282.49674 478.6679,-281.8642 C 479.33161,-281.1215 479.7179,-280.27064 479.82676,-279.31161 L 480.83507,-270.42785 M 491.03022,-280.72591 L 487.60135,-280.75508 L 487.55057,-274.7863 C 487.54595,-274.24445 487.72839,-273.79415 488.09789,-273.43539 C 488.51818,-273.0762 489.07545,-272.89365 489.76969,-272.88775 L 490.81106,-272.87889 L 490.78923,-270.31358 L 487.51275,-270.34146 C 486.53065,-270.34982 485.6955,-270.71253 485.00732,-271.42961 C 484.60453,-271.85639 484.34604,-272.32427 484.23183,-272.83326 C 484.11762,-273.34225 484.06347,-273.94386 484.06938,-274.63811 L 484.12167,-280.78469 L 481.88655,-280.8037 L 481.90989,-283.5468 L 484.14501,-283.52779 L 484.18434,-288.15042 L 487.66401,-288.12082 L 487.62469,-283.49818 L 491.05356,-283.46901 L 491.03022,-280.72591 M 512.94904,-276.26902 C 512.39571,-272.85922 511.05533,-270.57212 508.9279,-269.40772 C 507.19756,-268.47052 504.8615,-268.2406 501.91973,-268.71796 C 498.66036,-269.24687 496.36465,-270.32275 495.0326,-271.9456 C 493.57181,-273.72658 493.11129,-276.28018 493.65105,-279.60641 C 494.09315,-282.33089 495.19814,-284.33024 496.966,-285.60447 C 498.88927,-286.99069 501.4973,-287.41664 504.79011,-286.88233 C 508.41718,-286.29374 510.84569,-285.0848 512.07565,-283.25552 C 513.15153,-281.63992 513.44267,-279.31108 512.94904,-276.26902 M 508.50249,-277.0935 C 508.78185,-278.8151 508.59475,-280.25216 507.9412,-281.40467 C 507.20631,-282.69044 505.93629,-283.47979 504.13111,-283.77273 C 502.35934,-284.06023 500.92317,-283.66713 499.82259,-282.59344 C 498.90496,-281.69588 498.31325,-280.42809 498.04745,-278.79006 C 497.74095,-276.9013 497.81534,-275.4568 498.27061,-274.45657 C 498.90291,-273.06735 500.3473,-272.18965 502.6038,-271.82349 C 504.50926,-271.51428 505.94543,-271.90738 506.91232,-273.00279 C 507.66864,-273.85788 508.1987,-275.22145 508.50249,-277.0935 M 532.55948,-265.37604 C 532.00304,-263.92094 531.05192,-262.87963 529.70611,-262.25212 C 528.36027,-261.62461 526.94398,-261.59512 525.45726,-262.16362 L 513.72263,-266.67799 L 514.8657,-269.6673 L 524.54536,-265.96592 C 525.19382,-265.71795 525.79694,-265.65955 526.35472,-265.79072 C 526.99389,-265.94514 527.42839,-266.32287 527.65823,-266.92389 C 528.19649,-268.33155 527.46919,-269.41641 525.47634,-270.17846 L 520.58906,-272.04729 C 519.18139,-272.58556 518.11403,-273.49225 517.38698,-274.76738 C 516.65991,-276.04249 516.55342,-277.35225 517.0675,-278.69665 C 517.63601,-280.18338 518.60969,-281.18887 519.98855,-281.71312 C 521.38926,-282.24711 522.93579,-282.19054 524.62816,-281.54342 L 535.84992,-277.25236 L 534.76128,-274.4054 L 524.8681,-278.18843 C 524.42523,-278.35776 523.90189,-278.34033 523.29807,-278.13614 C 522.71609,-277.9417 522.32834,-277.59142 522.13482,-277.0853 C 521.91708,-276.5159 521.94614,-275.95185 522.22199,-275.39315 C 522.51969,-274.84421 522.97696,-274.4518 523.59382,-274.21594 L 528.97931,-272.15659 C 530.65583,-271.5155 531.80227,-270.57857 532.41864,-269.34578 C 533.05683,-268.12277 533.10377,-266.79952 532.55948,-265.37604 M 551.25724,-257.54804 C 550.60813,-256.59696 549.73057,-256.01707 548.62458,-255.80835 C 547.51857,-255.59964 546.50402,-255.81029 545.58092,-256.4403 C 544.62984,-257.0894 544.04518,-257.95996 543.82692,-259.05198 C 543.63219,-260.14843 543.86415,-261.17919 544.5228,-262.14426 C 545.1719,-263.09532 546.03769,-263.673 547.12016,-263.87728 C 548.20263,-264.08154 549.22639,-263.85436 550.19146,-263.19572 C 551.11455,-262.5657 551.68523,-261.70468 551.9035,-260.61267 C 552.12175,-259.52065 551.90633,-258.49911 551.25724,-257.54804"
       style="font-size:24.39999962px;font-style:normal;font-variant:normal;font-weight:200;font-stretch:normal;text-align:start;line-height:125%;writing-mode:lr-tb;text-anchor:start;fill:#000000;fill-opacity:1;stroke:none;stroke-width:1px;stroke-linecap:butt;stroke-linejoin:miter;stroke-opacity:1;display:inline;font-family:Denmark;-inkscape-font-specification:Denmark Ultra-Light"
       transform="translate(-315.78171,-4.2126195)"
       inkscape:label="#text3873" />
  </g>
</svg>
