<?xml version="1.0" encoding="UTF-8" standalone="no"?>
<!-- Created with Inkscape (http://www.inkscape.org/) -->
<svg
   xmlns:dc="http://purl.org/dc/elements/1.1/"
   xmlns:cc="http://creativecommons.org/ns#"
   xmlns:rdf="http://www.w3.org/1999/02/22-rdf-syntax-ns#"
   xmlns:svg="http://www.w3.org/2000/svg"
   xmlns="http://www.w3.org/2000/svg"
   xmlns:sodipodi="http://sodipodi.sourceforge.net/DTD/sodipodi-0.dtd"
   xmlns:inkscape="http://www.inkscape.org/namespaces/inkscape"
   width="640"
   height="300"
   id="svg57249"
   sodipodi:version="0.32"
   inkscape:version="0.46"
   version="1.0"
   sodipodi:docname="640x300.svg"
   inkscape:output_extension="org.inkscape.output.svg.inkscape"
   inkscape:export-xdpi="45"
   inkscape:export-ydpi="45">
  <defs
     id="defs57251">
    <inkscape:perspective
       sodipodi:type="inkscape:persp3d"
       inkscape:vp_x="0 : 150 : 1"
       inkscape:vp_y="0 : 1000 : 0"
       inkscape:vp_z="640 : 150 : 1"
       inkscape:persp3d-origin="320 : 100 : 1"
       id="perspective2583" />
    <clipPath
       clipPathUnits="userSpaceOnUse"
       id="clipPath14205">
      <rect
         y="205.3979"
         x="-642.43378"
         height="600"
         width="800"
         id="rect14207"
         style="opacity:1;fill:#091126;fill-opacity:1;fill-rule:nonzero;stroke:none;stroke-width:1;stroke-linecap:round;stroke-linejoin:round;marker:none;marker-start:none;marker-mid:none;marker-end:none;stroke-miterlimit:4;stroke-dasharray:none;stroke-dashoffset:0;stroke-opacity:1;visibility:visible;display:inline;overflow:visible;enable-background:accumulate" />
    </clipPath>
    <clipPath
       clipPathUnits="userSpaceOnUse"
       id="clipPath14209">
      <rect
         y="205.3979"
         x="-642.43378"
         height="600"
         width="800"
         id="rect14211"
         style="opacity:1;fill:#091126;fill-opacity:1;fill-rule:nonzero;stroke:none;stroke-width:1;stroke-linecap:round;stroke-linejoin:round;marker:none;marker-start:none;marker-mid:none;marker-end:none;stroke-miterlimit:4;stroke-dasharray:none;stroke-dashoffset:0;stroke-opacity:1;visibility:visible;display:inline;overflow:visible;enable-background:accumulate" />
    </clipPath>
    <clipPath
       clipPathUnits="userSpaceOnUse"
       id="clipPath14213">
      <rect
         y="205.3979"
         x="-642.43378"
         height="600"
         width="800"
         id="rect14215"
         style="opacity:1;fill:#091126;fill-opacity:1;fill-rule:nonzero;stroke:none;stroke-width:1;stroke-linecap:round;stroke-linejoin:round;marker:none;marker-start:none;marker-mid:none;marker-end:none;stroke-miterlimit:4;stroke-dasharray:none;stroke-dashoffset:0;stroke-opacity:1;visibility:visible;display:inline;overflow:visible;enable-background:accumulate" />
    </clipPath>
    <clipPath
       clipPathUnits="userSpaceOnUse"
       id="clipPath14217">
      <rect
         y="205.3979"
         x="-642.43378"
         height="600"
         width="800"
         id="rect14219"
         style="opacity:1;fill:#091126;fill-opacity:1;fill-rule:nonzero;stroke:none;stroke-width:1;stroke-linecap:round;stroke-linejoin:round;marker:none;marker-start:none;marker-mid:none;marker-end:none;stroke-miterlimit:4;stroke-dasharray:none;stroke-dashoffset:0;stroke-opacity:1;visibility:visible;display:inline;overflow:visible;enable-background:accumulate" />
    </clipPath>
  </defs>
  <sodipodi:namedview
     id="base"
     pagecolor="#ffffff"
     bordercolor="#666666"
     borderopacity="1.0"
     gridtolerance="10000"
     guidetolerance="10"
     objecttolerance="10"
     inkscape:pageopacity="0.0"
     inkscape:pageshadow="2"
     inkscape:zoom="1.58125"
     inkscape:cx="398.43193"
     inkscape:cy="204.02312"
     inkscape:document-units="px"
     inkscape:current-layer="layer1"
     showgrid="false"
     showborder="true"
     inkscape:showpageshadow="false"
     inkscape:window-width="1360"
     inkscape:window-height="693"
     inkscape:window-x="0"
     inkscape:window-y="25"
     showguides="true"
     inkscape:guide-bbox="true">
    <sodipodi:guide
       orientation="0,1"
       position="1477.515,-1422.1082"
       id="guide4274" />
    <sodipodi:guide
       orientation="0,1"
       position="315.91173,150"
       id="guide2675" />
    <sodipodi:guide
       orientation="1,0"
       position="320,141.23113"
       id="guide2677" />
    <sodipodi:guide
       orientation="0,1"
       position="209.61672,92"
       id="guide2679" />
    <sodipodi:guide
       orientation="0,1"
       position="96.126482,166.32411"
       id="guide3027" />
    <sodipodi:guide
       orientation="0,1"
       position="510.98814,300"
       id="guide3029" />
  </sodipodi:namedview>
  <metadata
     id="metadata3399">
    <rdf:RDF>
      <cc:Work
         rdf:about="">
        <dc:format>image/svg+xml</dc:format>
        <dc:type
           rdf:resource="http://purl.org/dc/dcmitype/StillImage" />
        <cc:license
           rdf:resource="http://creativecommons.org/licenses/by-sa/3.0/" />
        <dc:title>Backgrounds</dc:title>
        <dc:date>2010-06-15</dc:date>
        <dc:creator>
          <cc:Agent>
            <dc:title>Alain Reguera Delgado</dc:title>
          </cc:Agent>
        </dc:creator>
        <dc:rights>
          <cc:Agent>
            <dc:title>Alain Reguera Delgado</dc:title>
          </cc:Agent>
        </dc:rights>
        <dc:publisher>
          <cc:Agent>
            <dc:title>The CentOS Project</dc:title>
          </cc:Agent>
        </dc:publisher>
        <dc:identifier />
        <dc:source />
        <dc:relation />
        <dc:language>en</dc:language>
        <dc:subject>
          <rdf:Bag>
            <rdf:li>Identity</rdf:li>
            <rdf:li>Themes</rdf:li>
            <rdf:li>TreeFlower</rdf:li>
          </rdf:Bag>
        </dc:subject>
        <dc:coverage>The CentOS Project</dc:coverage>
        <dc:description />
        <dc:contributor>
          <cc:Agent>
            <dc:title />
          </cc:Agent>
        </dc:contributor>
      </cc:Work>
      <cc:License
         rdf:about="http://creativecommons.org/licenses/by-sa/3.0/">
        <cc:permits
           rdf:resource="http://creativecommons.org/ns#Reproduction" />
        <cc:permits
           rdf:resource="http://creativecommons.org/ns#Distribution" />
        <cc:requires
           rdf:resource="http://creativecommons.org/ns#Notice" />
        <cc:requires
           rdf:resource="http://creativecommons.org/ns#Attribution" />
        <cc:permits
           rdf:resource="http://creativecommons.org/ns#DerivativeWorks" />
        <cc:requires
           rdf:resource="http://creativecommons.org/ns#ShareAlike" />
      </cc:License>
    </rdf:RDF>
  </metadata>
  <g
     inkscape:label="Layer 1"
     inkscape:groupmode="layer"
     id="layer1"
     transform="translate(1133.3497,-141.95511)">
    <g
       id="g2972"
       transform="matrix(0.5326201,0,0,0.5326201,-249.46505,56.878971)">
      <path
         style="fill:#e7f1ff;fill-opacity:1;fill-rule:evenodd;stroke:none;stroke-width:1px;stroke-linecap:butt;stroke-linejoin:miter;stroke-opacity:1"
         d="M -830.14231,85.391815 C -825.87518,73.607087 -818.69828,62.749094 -809.24813,54.300663 C -776.00019,24.576926 -727.69448,27.567388 -692.99554,51.477227 C -694.0252,43.842246 -692.74151,35.924913 -688.49366,28.744484 C -680.56283,15.33871 -662.61339,8.4705597 -648.69344,17.057304 C -639.17946,22.926174 -634.29522,35.952918 -640.71503,45.855729 C -644.92358,52.347808 -654.06313,55.647952 -660.83716,50.985045 C -665.05357,48.082667 -667.18994,41.978721 -663.92126,37.569211 C -662.01717,35.000658 -658.09032,33.663632 -655.40033,35.854398 C -653.96491,37.023364 -653.24699,39.362496 -654.63155,40.86413 C -655.28599,41.573827 -656.56845,41.956591 -657.30486,41.149523 C -657.59572,40.830712 -657.76278,40.186257 -657.33435,39.910222 C -657.16684,39.802322 -656.80791,39.828042 -657.05434,40.161811 C -657.2462,40.146789 -657.40174,40.301591 -657.38359,40.450568 C -657.32206,40.956472 -656.71354,41.142109 -656.29526,41.035801 C -655.23648,40.76658 -654.95258,39.45683 -655.27026,38.545205 C -655.94233,36.616442 -658.34488,36.150825 -660.05239,36.86602 C -663.25236,38.206365 -663.94556,42.282681 -662.57722,45.172414 C -660.22817,50.133265 -653.81891,51.137089 -649.2721,48.785777 C -641.9673,45.008149 -640.59531,35.402424 -644.33825,28.631188 C -650.04774,18.302536 -663.80793,16.45538 -673.46759,22.08145 C -686.05863,29.414897 -689.50796,45.445989 -684.24957,58.183757 C -680.30798,61.555411 -676.60033,65.21009 -673.19798,69.160649 C -625.7911,124.20619 -642.30094,207.89586 -695.65404,252.42097 C -735.21897,225.67662 -701.66302,249.42292 -674.87445,183.16746 C -655.6145,135.53216 -675.2068,74.704399 -725.87599,56.171846 C -760.50792,43.50504 -804.15899,57.485953 -816.70831,94.338658 C -824.93534,118.49856 -814.90354,148.88824 -788.99088,156.91828 C -772.86202,161.91641 -752.59457,154.97023 -747.84389,137.49783 C -745.07669,127.32008 -749.69407,114.48481 -760.86276,111.98835 C -766.82242,110.6562 -774.38441,113.53708 -775.44807,120.1904 C -775.95076,123.33494 -774.26717,127.41454 -770.6727,127.6745 C -769.25274,127.7772 -767.33268,126.89547 -767.42615,125.2168 C -767.45373,124.72252 -768.04878,124.26791 -768.66324,124.42811 C -769.65717,123.48713 -768.51158,123.22434 -767.90519,123.47761 C -766.35372,124.12547 -766.53528,126.29452 -767.29498,127.49852 C -769.21797,130.54646 -773.6019,130.08948 -776.13855,128.16434 C -781.50578,124.09105 -780.46464,116.06425 -776.48142,111.43542 C -769.01671,102.76072 -755.53137,104.71823 -747.85831,111.9549 C -734.6858,124.37816 -738.11984,145.56174 -750.1285,157.43265 C -769.42149,176.5043 -800.94678,171.03625 -818.37953,152.39539 C -835.83023,133.73548 -838.28865,107.88993 -830.14231,85.391815 z M -768.66324,124.42811 C -768.58842,124.49892 -768.82536,124.44105 -768.66324,124.42811 z"
         id="path15121" />
      <path
         style="fill:#e7f1ff;fill-opacity:1;stroke:none;stroke-width:1;stroke-linejoin:round;stroke-miterlimit:4;stroke-dasharray:none;stroke-dashoffset:0;stroke-opacity:1"
         d="M -970.31014,303.06729 C -958.20691,270.06209 -922.22934,252.65586 -889.04651,263.17846 C -896.61461,251.94065 -898.86085,237.35621 -893.84262,223.67164 C -885.53602,201.01977 -860.4232,189.35592 -837.7713,197.66252 C -824.62489,202.48339 -815.2124,212.99342 -811.2285,225.37653 C -781.79939,207.31073 -744.69261,202.38586 -709.77287,215.19115 C -699.54558,218.94157 -690.15514,223.99065 -681.72015,230.05718 C -681.85915,223.49776 -680.8056,216.80245 -678.41173,210.27443 C -668.11677,182.20029 -636.97239,167.76884 -608.89821,178.06383 C -580.82412,188.35878 -566.39263,219.50321 -576.68761,247.57734 C -586.42481,274.13038 -614.83108,288.47284 -641.63338,281.23961 C -631.15157,307.18367 -629.85649,336.93638 -640.23952,365.25066 C -662.46161,425.84971 -729.70001,457.00606 -790.29903,434.78401 C -822.90287,422.82796 -846.97109,397.83321 -858.78852,367.86267 C -876.03248,388.28289 -904.83072,396.84221 -931.36647,387.11138 C -965.29964,374.66785 -982.75363,337.00042 -970.31014,303.06729 z M -953.6405,309.18015 C -962.71389,333.92304 -949.9966,361.36835 -925.25361,370.44174 C -901.53828,379.13831 -875.36687,367.8004 -865.24236,345.05844 C -867.47874,332.28558 -867.58141,319.03516 -865.36896,305.8121 C -870.47995,294.60211 -879.90781,285.36651 -892.37891,280.79326 C -917.12179,271.71988 -944.56713,284.43728 -953.6405,309.18015 z M -882.75141,227.73886 C -888.80828,244.25579 -880.31606,262.58284 -863.79911,268.63971 C -860.40259,269.88524 -856.92334,270.52173 -853.49647,270.59364 C -845.54079,255.41464 -834.56633,242.54833 -821.59162,232.52101 C -823.69975,221.9976 -831.04368,212.7495 -841.85055,208.78655 C -858.36751,202.72965 -876.69453,211.22189 -882.75141,227.73886 z M -860.1112,281.83024 C -859.77311,282.20733 -859.44574,282.59235 -859.11696,282.9766 C -858.99503,282.65964 -858.85958,282.35233 -858.73518,282.03702 C -859.19468,281.97404 -859.65179,281.90831 -860.1112,281.83024 z M -830.10268,295.62658 C -846.30627,339.81339 -823.57178,388.81788 -779.38492,405.0215 C -735.19804,421.22512 -686.20564,398.52338 -670.00203,354.33655 C -653.79843,310.14969 -676.48809,261.12446 -720.67495,244.92085 C -764.8618,228.71726 -813.89908,251.43975 -830.10268,295.62658 z M -664.66257,215.31634 C -668.70837,226.34914 -667.49153,238.02632 -662.3284,247.62902 C -662.32428,247.63669 -662.29972,247.63339 -662.29558,247.64105 C -659.35019,250.99113 -656.62669,254.52365 -654.09448,258.16828 C -650.4312,261.49626 -646.0775,264.19799 -641.14718,266.00597 C -620.67644,273.51274 -597.97634,262.99413 -590.46958,242.5234 C -582.96285,222.05267 -593.48143,199.35256 -613.95216,191.8458 C -634.42286,184.33905 -657.15582,194.84562 -664.66257,215.31634 z"
         id="path15123" />
      <path
         id="path15125"
         d="M -864.99337,212.43609 C -864.99327,212.4358 -856.38115,215.59366 -845.76351,219.48721 C -835.14577,223.38081 -826.52448,226.54256 -826.52459,226.54285 C -826.5247,226.54314 -835.14616,223.38186 -845.7639,219.48826 C -856.38154,215.59471 -864.99348,212.43639 -864.99337,212.43609 z M -859.78982,214.34427 C -859.7899,214.34448 -853.5059,216.64905 -845.76385,219.48812 C -838.02179,222.32718 -831.73767,224.63142 -831.73759,224.63121 C -831.73751,224.631 -838.02151,222.32643 -845.76357,219.48736 C -853.50563,216.6483 -859.78975,214.34406 -859.78982,214.34427 z"
         style="fill:#e7f1ff;fill-opacity:1;stroke:none;stroke-width:1;stroke-linejoin:round;stroke-miterlimit:4;stroke-dasharray:none;stroke-dashoffset:0;stroke-opacity:1" />
      <path
         style="fill:#e7f1ff;fill-opacity:1;fill-rule:evenodd;stroke:none;stroke-width:1px;stroke-linecap:butt;stroke-linejoin:miter;stroke-opacity:1"
         d="M -1051.6173,149.58371 C -1051.444,149.0875 -1051.2425,148.60419 -1051.043,148.1191 C -1048.5599,142.08246 -1044.0524,136.97784 -1037.5797,134.1449 C -1027.4677,129.71911 -1014.1599,133.09656 -1009.7281,143.87434 C -1006.8226,150.94003 -1009.2849,160.18842 -1016.878,163.06738 C -1021.6041,164.85937 -1027.7675,163.15754 -1029.5103,158.02551 C -1030.5256,155.03604 -1029.3934,151.10721 -1026.1028,150.15449 C -1024.347,149.64609 -1022.0318,150.3994 -1021.5909,152.36745 C -1021.3824,153.2976 -1021.8181,154.53989 -1022.8871,154.68412 C -1023.3095,154.74108 -1023.9232,154.51551 -1023.9065,154.01247 C -1023.9,153.81586 -1023.6715,153.53624 -1023.539,153.92389 C -1023.6591,154.07126 -1023.6056,154.28805 -1023.4745,154.35704 C -1023.0291,154.59139 -1022.5556,154.17998 -1022.4069,153.78064 C -1022.0304,152.76973 -1022.9364,151.79162 -1023.855,151.53716 C -1025.7988,150.99877 -1027.5331,152.69117 -1027.9121,154.47939 C -1028.6223,157.83069 -1025.6766,160.69338 -1022.5614,161.20659 C -1017.2136,162.08759 -1012.8075,157.45075 -1012.161,152.43778 C -1011.1225,144.38401 -1018.1467,137.87314 -1025.7479,137.1063 C -1037.3424,135.9367 -1046.5778,146.06764 -1047.4391,157.07216 C -1048.6752,172.86451 -1035.1203,185.55132 -1020.1012,186.67851 C -1009.0158,179.22956 -995.87535,174.6001 -982.31028,173.77055 C -975.5039,173.35431 -968.87837,173.77369 -962.5187,174.92304 C -972.49517,145.0557 -964.09645,109.74351 -935.69529,92.436687 C -926.93515,87.098579 -916.77879,84.294589 -906.69887,84.12138 C -897.85892,76.941688 -894.92623,63.201429 -902.51722,53.937511 C -907.80295,47.486869 -917.92572,45.204736 -924.60903,50.936379 C -928.99048,54.693932 -930.50406,61.786056 -926.38266,66.330767 C -923.81727,69.159575 -919.08412,70.109676 -916.14889,67.254313 C -914.43918,65.591018 -913.87085,62.579476 -915.75817,60.808434 C -916.76537,59.863389 -918.55384,59.556513 -919.52639,60.729546 C -919.98606,61.28397 -920.1449,62.257223 -919.47505,62.721397 C -919.27656,62.858906 -918.94634,62.929274 -918.72578,62.810023 L -918.71375,62.777209 C -918.65152,62.737895 -918.58155,62.690633 -918.54311,62.616423 C -918.49165,62.517026 -918.5625,62.374835 -918.70061,62.335306 C -918.7858,62.037793 -918.52055,62.0915 -918.43152,62.210619 C -918.20407,62.51521 -918.50289,62.937515 -918.78923,63.08457 C -919.51431,63.456731 -920.31503,62.868467 -920.58745,62.201793 C -921.16376,60.791236 -920.05013,59.338219 -918.74205,58.895234 C -916.29061,58.065045 -913.8765,60.007618 -913.21509,62.299403 C -912.07959,66.233743 -915.18408,69.936269 -918.88795,70.866016 C -924.83856,72.35975 -930.33505,67.675727 -931.58473,62.040614 C -933.49088,53.445024 -926.71184,45.629709 -918.53151,44.007231 C -906.5631,41.633331 -895.8109,51.108042 -893.76148,62.546198 C -892.2941,70.736307 -894.86574,78.457651 -899.77498,84.4268 C -884.79317,85.999291 -870.74652,93.582275 -862.58038,107.55916 C -852.43042,124.93151 -855.71429,149.69721 -874.2905,159.99876 C -886.46869,166.7523 -903.73319,164.30772 -910.55039,151.16925 C -914.79354,142.99138 -913.02147,131.4188 -904.09818,127.17868 C -898.90044,124.70873 -891.58249,125.96902 -889.1622,131.72513 C -887.87064,134.79664 -888.66885,139.13541 -892.1388,140.34981 C -893.77867,140.92379 -896.15264,140.41822 -896.63981,138.51312 C -896.83224,137.76056 -896.53339,136.61814 -895.6192,136.54209 C -895.26187,136.51232 -894.73209,136.85691 -895.40593,137.1787 C -895.69812,136.99245 -896.07662,137.09184 -896.1738,137.34384 C -896.50398,138.19974 -895.66709,138.9988 -894.91269,139.1837 C -893.00283,139.65177 -891.43823,137.80526 -891.17171,136.08831 C -890.60776,132.4555 -894.06778,129.68787 -897.38547,129.37968 C -903.60291,128.80216 -908.1365,134.70362 -908.40721,140.45206 C -908.87204,150.32047 -899.50439,157.33324 -890.29193,157.44412 C -875.49115,157.62227 -865.196,143.52444 -865.41416,129.60067 C -865.74703,108.36179 -886.06319,93.786737 -906.16873,94.553178 C -935.58486,95.674523 -955.94819,123.97266 -953.94014,151.93558 C -952.89283,166.52058 -949.24286,174.67015 -946.39156,179.57126 C -913.12866,192.95649 -889.69412,227.10686 -886.93437,263.91578 C -886.71301,263.9943 -886.4871,264.04257 -886.26605,264.12362 C -852.33298,276.56711 -834.91172,314.22258 -847.3552,348.15568 C -859.7987,382.08879 -897.4334,399.55486 -931.36647,387.11138 C -965.29964,374.66785 -982.75363,337.00042 -970.31014,303.06729 C -960.10417,275.23588 -932.93471,258.53387 -904.77229,260.27819 C -905.3854,252.79667 -907.60135,241.17208 -917.47687,224.57211 C -936.44854,192.68224 -979.9897,177.37288 -1012.7872,198.40672 C -1035.2039,212.78318 -1046.2306,243.96662 -1030.526,267.28625 C -1020.2303,282.57412 -998.38575,290.09036 -982.44523,278.70088 C -972.52325,271.61166 -967.66955,256.90512 -975.63943,246.53838 C -980.28193,240.49976 -989.64864,237.55156 -995.9647,242.88212 C -999.3349,245.72655 -1000.997,251.33276 -997.63648,254.85175 C -996.04815,256.51494 -992.95893,257.32681 -991.23874,255.37373 C -990.55924,254.6022 -990.23378,253.1122 -991.23973,252.43244 C -991.53598,252.23228 -992.05869,252.38866 -992.23512,252.81196 C -993.21043,252.9722 -992.88523,252.18038 -992.47464,251.94237 C -991.42413,251.33344 -990.22297,252.384 -989.86264,253.34692 C -988.95058,255.78454 -991.14659,258.11013 -993.36197,258.72731 C -998.04932,260.03318 -1002.2044,255.96073 -1003.1252,251.64775 C -1004.8506,243.56512 -997.83842,236.66955 -990.32469,235.42026 C -977.4256,233.27552 -966.74505,244.46626 -965.16753,256.55816 C -962.63305,275.98489 -979.55812,291.74515 -997.8938,293.62226 C -1025.8624,296.48567 -1048.1831,272.02543 -1050.3004,245.47912 C -1052.0044,224.11502 -1042.4447,205.28711 -1027.3545,192.2458 C -1037.2139,189.48075 -1045.8503,183.03082 -1050.4565,173.0156 C -1053.8454,165.64685 -1054.2166,157.02668 -1051.6173,149.58371 z M -953.6405,309.18015 C -962.71389,333.92304 -949.9966,361.36835 -925.25361,370.44174 C -900.51073,379.51512 -873.0654,366.79776 -863.99202,342.05485 C -854.91863,317.31195 -867.63604,289.86665 -892.37891,280.79326 C -917.12179,271.71988 -944.56713,284.43728 -953.6405,309.18015 z"
         id="path15127" />
      <path
         id="path15129"
         d="M -801.47053,306.11887 C -791.05429,277.71402 -759.55733,263.09842 -731.15249,273.51466 C -702.74764,283.93091 -688.14119,315.45294 -698.55743,343.85778 C -708.97367,372.26262 -740.49573,386.86901 -768.90057,376.45278 C -797.30542,366.03654 -811.88678,334.52371 -801.47053,306.11887 z M -787.54974,311.22371 C -795.14492,331.93559 -784.49838,354.91182 -763.78656,362.50698 C -743.07463,370.10218 -720.0984,359.45564 -712.50322,338.74377 C -704.90804,318.0319 -715.55458,295.05566 -736.2665,287.46046 C -756.97832,279.8653 -779.95456,290.51184 -787.54974,311.22371 z"
         style="fill:#e7f1ff;fill-opacity:1;stroke:none;stroke-width:1;stroke-linejoin:round;stroke-miterlimit:4;stroke-dasharray:none;stroke-dashoffset:0;stroke-opacity:1" />
      <path
         sodipodi:nodetypes="csssssssssssccsssssssssssc"
         d="M -758.16206,317.16172 C -758.1592,317.1666 -758.16121,317.16169 -758.16206,317.16172 C -758.23558,317.16762 -758.1281,317.19385 -758.16206,317.16172 C -758.61312,316.73468 -758.10244,316.59599 -757.82725,316.71095 C -757.12309,317.00495 -757.19785,317.99464 -757.54262,318.54108 C -758.41547,319.92436 -760.40533,319.7229 -761.55661,318.84916 C -763.99253,317.00049 -763.52898,313.35394 -761.72113,311.25313 C -758.33327,307.31613 -752.21473,308.21209 -748.73233,311.49641 C -742.75394,317.13475 -744.30344,326.7388 -749.75354,332.12641 C -758.50965,340.7821 -772.82124,338.30419 -780.73322,329.84398 C -792.80175,316.93914 -789.06362,296.47997 -776.58664,285.32559 C -758.33182,269.00574 -730.05857,274.39507 -714.84081,292.06485 C -693.32508,317.04734 -698.95318,347.30517 -723.16743,367.51296 M -758.16206,317.16172 C -758.165,317.16649 -758.16159,317.16238 -758.16206,317.16172 C -758.20194,317.09959 -758.20735,317.17348 -758.16206,317.16172 C -757.8831,317.08905 -757.61224,317.28958 -757.59979,317.51386 C -757.55741,318.27573 -758.43553,318.67379 -759.07995,318.62721 C -760.71124,318.50923 -761.47126,316.65917 -761.24311,315.23202 C -760.76036,312.21237 -757.32561,310.90291 -754.62077,311.50755 C -749.55182,312.64059 -747.45892,318.45944 -748.71488,323.07858 C -750.87089,331.00846 -760.07206,334.16732 -767.39215,331.89894 C -779.15266,328.25448 -783.71076,314.46375 -779.97692,303.49877 C -774.28143,286.77314 -754.47458,280.42972 -738.75692,286.1785 C -715.76058,294.58959 -701.12412,319.53597 -709.86533,341.15527 C -722.02322,371.22537 -741.12409,355.375 -723.16743,367.51296"
         style="fill:#e7f1ff;fill-opacity:1;fill-rule:evenodd;stroke:none;stroke-width:1px;stroke-linecap:butt;stroke-linejoin:miter;stroke-opacity:1"
         id="path15131" />
      <path
         style="opacity:0.1;fill:#e7f1ff;fill-opacity:1;stroke:none;stroke-width:1;stroke-linejoin:round;stroke-miterlimit:4;stroke-dasharray:none;stroke-dashoffset:0;stroke-opacity:1"
         d="M -678.40729,210.27669 C -668.11232,182.20256 -636.98212,167.75711 -608.90795,178.0521 C -580.83387,188.34705 -566.39744,219.50208 -576.69241,247.57622 C -586.98738,275.65035 -618.14246,290.08666 -646.21654,279.79172 C -674.29072,269.49674 -688.70227,238.35083 -678.40729,210.27669 z M -664.64863,215.32209 C -672.15538,235.79281 -661.63279,258.50153 -641.16206,266.00829 C -620.69133,273.51504 -597.98261,262.99246 -590.47586,242.52173 C -582.96911,222.05101 -593.4917,199.34229 -613.96242,191.83554 C -634.43315,184.32879 -657.14188,194.85136 -664.64863,215.32209 z"
         id="path15133" />
      <path
         id="path15135"
         d="M -651.38842,220.18469 C -646.56282,207.02539 -631.97112,200.25429 -618.81172,205.07993 C -605.65243,209.90553 -598.88568,224.50891 -603.71128,237.66822 C -608.53688,250.82751 -623.14023,257.59434 -636.29953,252.76874 C -649.45893,247.94311 -656.21402,233.34399 -651.38842,220.18469 z M -644.9393,222.54963 C -648.45796,232.14495 -643.52573,242.78929 -633.93033,246.30798 C -624.33502,249.82665 -613.69073,244.89433 -610.17206,235.299 C -606.65339,225.70367 -611.58563,215.05935 -621.18093,211.54069 C -630.77634,208.02199 -641.42062,212.9543 -644.9393,222.54963 z"
         style="opacity:0.1;fill:#e7f1ff;fill-opacity:1;stroke:none;stroke-width:1;stroke-linejoin:round;stroke-miterlimit:4;stroke-dasharray:none;stroke-dashoffset:0;stroke-opacity:1" />
      <path
         style="fill:#e7f1ff;fill-opacity:1;stroke:none;stroke-width:1;stroke-linejoin:round;stroke-miterlimit:4;stroke-dasharray:none;stroke-dashoffset:0;stroke-opacity:1"
         d="M -651.38842,220.18469 C -646.56282,207.02539 -631.97112,200.25429 -618.81172,205.07993 C -605.65243,209.90553 -598.88568,224.50891 -603.71128,237.66822 C -608.53688,250.82751 -623.14023,257.59434 -636.29953,252.76874 C -649.45893,247.94311 -656.21402,233.34399 -651.38842,220.18469 z M -644.9393,222.54963 C -648.45796,232.14495 -643.52573,242.78929 -633.93033,246.30798 C -624.33502,249.82665 -613.69073,244.89433 -610.17206,235.299 C -606.65339,225.70367 -611.58563,215.05935 -621.18093,211.54069 C -630.77634,208.02199 -641.42062,212.9543 -644.9393,222.54963 z"
         id="path15143" />
      <path
         sodipodi:nodetypes="csssssssssssccsssssssssssc"
         d="M -631.32475,225.30053 C -631.32344,225.30279 -631.32428,225.30055 -631.32475,225.30053 C -631.35876,225.30328 -631.30891,225.31547 -631.32475,225.30053 C -631.5337,225.1027 -631.29703,225.03848 -631.16956,225.09173 C -630.84341,225.2279 -630.87802,225.68643 -631.03779,225.93955 C -631.44208,226.58042 -632.36396,226.48709 -632.89728,226.08232 C -634.02583,225.22585 -633.81101,223.53652 -632.97355,222.56323 C -631.40399,220.73932 -628.56947,221.15438 -626.95613,222.67594 C -624.18654,225.28803 -624.90433,229.73738 -627.42925,232.23334 C -631.48573,236.24333 -638.11595,235.09537 -641.78133,231.17596 C -647.37242,225.19745 -645.64068,215.71917 -639.86041,210.55161 C -631.40331,202.99103 -618.30501,205.48776 -611.25501,213.67375 C -601.28724,225.24757 -604.75865,242.84673 -615.97656,252.20852 M -631.32475,225.30053 C -631.32605,225.30276 -631.32451,225.30085 -631.32475,225.30053 C -631.34315,225.27177 -631.3457,225.30599 -631.32475,225.30053 C -631.19554,225.26686 -631.06999,225.35979 -631.06425,225.46368 C -631.04455,225.81666 -631.45133,226.00108 -631.74992,225.97949 C -632.50573,225.92481 -632.85782,225.06772 -632.75213,224.40655 C -632.52838,223.00766 -630.93716,222.40101 -629.6841,222.68111 C -627.33575,223.20603 -626.36622,225.90175 -626.94808,228.04169 C -627.94693,231.71541 -632.2095,233.17887 -635.60077,232.12796 C -641.04919,230.43956 -643.16081,224.05064 -641.43107,218.97081 C -638.79248,211.22222 -629.61639,208.28347 -622.33475,210.94676 C -611.68108,214.84342 -607.55976,227.6328 -611.60938,237.6485 C -617.24191,251.57926 -624.29538,246.58532 -615.97656,252.20852"
         style="fill:#e7f1ff;fill-opacity:1;fill-rule:evenodd;stroke:none;stroke-width:1px;stroke-linecap:butt;stroke-linejoin:miter;stroke-opacity:1"
         id="path15145" />
      <path
         style="fill:#e7f1ff;fill-opacity:1;stroke:none;stroke-width:1;stroke-linejoin:round;stroke-miterlimit:4;stroke-dasharray:none;stroke-dashoffset:0;stroke-opacity:1"
         d="M -702.04693,194.66819 C -698.25921,184.33918 -686.80579,179.02443 -676.47681,182.81214 C -666.14784,186.59984 -660.83639,198.06237 -664.62411,208.39139 C -668.41182,218.7204 -679.87438,224.03179 -690.20336,220.2441 C -700.53234,216.45639 -705.83465,204.9972 -702.04693,194.66819 z M -696.98482,196.5245 C -699.7467,204.05607 -695.87525,212.41105 -688.34372,215.17291 C -680.81209,217.9348 -672.45712,214.06334 -669.69525,206.53177 C -666.93337,199.0002 -670.80483,190.64523 -678.33645,187.88333 C -685.86798,185.12147 -694.22295,188.99293 -696.98482,196.5245 z"
         id="path15147" />
      <path
         id="path15149"
         d="M -692.10616,198.31354 C -690.33073,193.47198 -684.96211,190.98077 -680.12062,192.75618 C -675.27902,194.53162 -672.78945,199.90448 -674.56488,204.74605 C -676.34031,209.5876 -681.71313,212.07726 -686.55472,210.30182 C -691.39621,208.52641 -693.88159,203.15509 -692.10616,198.31354 z M -689.73346,199.18363 C -691.02804,202.71392 -689.21333,206.6302 -685.68305,207.92478 C -682.15276,209.21936 -678.23647,207.40468 -676.94189,203.87438 C -675.6473,200.34407 -677.46201,196.4278 -680.9923,195.13322 C -684.52258,193.83864 -688.43887,195.65332 -689.73346,199.18363 z"
         style="fill:#e7f1ff;fill-opacity:1;stroke:none;stroke-width:1;stroke-linejoin:round;stroke-miterlimit:4;stroke-dasharray:none;stroke-dashoffset:0;stroke-opacity:1" />
      <path
         id="path15153"
         d="M -712.27031,146.18917 C -709.74759,139.30977 -702.11932,135.77 -695.23992,138.29272 C -688.36052,140.81544 -684.82298,148.44979 -687.3457,155.32919 C -689.86842,162.20859 -697.50277,165.74612 -704.38217,163.2234 C -711.26157,160.70068 -714.79303,153.06857 -712.27031,146.18917 z M -708.89884,147.42551 C -710.73832,152.44174 -708.15983,158.00637 -703.1436,159.84586 C -698.12737,161.68534 -692.56274,159.10684 -690.72325,154.09062 C -688.88377,149.07439 -691.46226,143.50975 -696.47849,141.67027 C -701.49472,139.83078 -707.05935,142.40928 -708.89884,147.42551 z"
         style="fill:#e7f1ff;fill-opacity:1;stroke:none;stroke-width:1;stroke-linejoin:round;stroke-miterlimit:4;stroke-dasharray:none;stroke-dashoffset:0;stroke-opacity:1" />
      <path
         style="fill:#e7f1ff;fill-opacity:1;stroke:none;stroke-width:1;stroke-linejoin:round;stroke-miterlimit:4;stroke-dasharray:none;stroke-dashoffset:0;stroke-opacity:1"
         d="M -705.64951,148.61706 C -704.46703,145.39245 -700.8914,143.73324 -697.66679,144.91572 C -694.44218,146.09821 -692.78402,149.67669 -693.9665,152.90129 C -695.14899,156.1259 -698.72746,157.78407 -701.95207,156.60158 C -705.17668,155.4191 -706.832,151.84166 -705.64951,148.61706 z M -704.06919,149.19657 C -704.93142,151.54785 -703.72279,154.15618 -701.37151,155.01841 C -699.02024,155.88064 -696.4119,154.67201 -695.54967,152.32074 C -694.68744,149.96946 -695.89607,147.36112 -698.24735,146.49889 C -700.59863,145.63667 -703.20696,146.8453 -704.06919,149.19657 z"
         id="path15155" />
      <path
         transform="matrix(-0.2298526,0.6268024,-0.6268024,-0.2298526,-931.08808,47.865168)"
         d="M 185.65564,215.85391 C 230.04118,234.53637 228.68309,169.06242 185.43211,190.23938 C 105.57307,229.34073 166.01559,140.53997 158.53359,229.14246 C 154.48141,277.12882 216.33116,255.60463 182.82538,221.01455 C 120.95999,157.14707 224.0923,187.19038 137.51425,207.45425 C 90.624323,218.42899 130.20767,270.60026 152.75094,228.04545 C 194.37506,149.47183 197.67181,256.84038 151.64563,180.76165 C 126.71825,139.55805 89.332353,193.32586 136.77063,201.61562 C 224.36115,216.92193 123.26635,253.23603 181.39865,185.95292 C 212.88261,149.51296 150.19351,130.57202 156.96871,178.25019 C 169.4785,266.28363 103.70173,181.35843 185.65564,215.85391 z"
         inkscape:randomized="0"
         inkscape:rounded="1.88"
         inkscape:flatsided="false"
         sodipodi:arg2="-0.54381798"
         sodipodi:arg1="0.48689923"
         sodipodi:r2="26.272663"
         sodipodi:r1="25.691782"
         sodipodi:cy="203.83304"
         sodipodi:cx="162.94955"
         sodipodi:sides="5"
         id="path15181"
         style="fill:#e7f1ff;fill-opacity:1;stroke:none;stroke-width:1;stroke-linejoin:round;stroke-miterlimit:4;stroke-dasharray:none;stroke-dashoffset:0;stroke-opacity:1"
         sodipodi:type="star" />
      <path
         id="path15183"
         d="M -888.67137,190.27237 C -886.29007,183.77863 -889.62359,176.57438 -896.11724,174.19312 C -902.61099,171.81181 -909.81741,175.151 -912.1987,181.64474 C -914.58,188.13848 -911.24071,195.34485 -904.74696,197.72615 C -898.25331,200.10742 -891.05267,196.76611 -888.67137,190.27237 z M -891.85377,189.10536 C -893.59013,193.84037 -898.84281,196.27431 -903.57782,194.53795 C -908.31284,192.80159 -910.74678,187.54892 -909.01042,182.8139 C -907.27406,178.0789 -902.02139,175.64495 -897.28637,177.38132 C -892.55135,179.11768 -890.11741,184.37035 -891.85377,189.10536 z"
         style="fill:#e7f1ff;fill-opacity:1;stroke:none;stroke-width:1;stroke-linejoin:round;stroke-miterlimit:4;stroke-dasharray:none;stroke-dashoffset:0;stroke-opacity:1" />
      <path
         style="fill:#e7f1ff;fill-opacity:1;stroke:none;stroke-width:1;stroke-linejoin:round;stroke-miterlimit:4;stroke-dasharray:none;stroke-dashoffset:0;stroke-opacity:1"
         d="M -894.92098,187.98059 C -893.80479,184.93676 -895.36735,181.55987 -898.41115,180.44369 C -901.45494,179.32751 -904.83289,180.89268 -905.94909,183.93651 C -907.06528,186.98035 -905.49999,190.35825 -902.45619,191.47443 C -899.4124,192.59061 -896.03718,191.02443 -894.92098,187.98059 z M -896.41269,187.43357 C -897.22659,189.65304 -899.68868,190.79391 -901.90818,189.98001 C -904.12768,189.1661 -905.26854,186.704 -904.45465,184.48453 C -903.64076,182.26507 -901.17866,181.1242 -898.95916,181.93811 C -896.73966,182.75201 -895.5988,185.21411 -896.41269,187.43357 z"
         id="path15185" />
      <path
         style="opacity:0.1;fill:#e7f1ff;fill-opacity:1;stroke:none;stroke-width:1;stroke-linejoin:round;stroke-miterlimit:4;stroke-dasharray:none;stroke-dashoffset:0;stroke-opacity:1"
         d="M -925.87215,169.66747 C -924.27731,165.31837 -926.50987,160.4934 -930.85898,158.89856 C -935.20808,157.30371 -940.03446,159.54012 -941.6293,163.88922 C -943.22415,168.23832 -940.98774,173.0647 -936.63864,174.65955 C -932.28953,176.25439 -927.467,174.01658 -925.87215,169.66747 z M -928.00357,168.88587 C -929.16648,172.05709 -932.6844,173.68719 -935.85562,172.52428 C -939.02685,171.36138 -940.65695,167.84346 -939.49404,164.67224 C -938.33113,161.50101 -934.81321,159.87091 -931.64199,161.03382 C -928.47077,162.19673 -926.84067,165.71464 -928.00357,168.88587 z"
         id="path15189" />
      <path
         id="path15191"
         d="M -930.05777,168.13258 C -929.31021,166.09401 -930.35669,163.83238 -932.39527,163.08482 C -934.43384,162.33726 -936.69613,163.38554 -937.44368,165.42412 C -938.19124,167.46269 -937.14296,169.72497 -935.10439,170.47253 C -933.06582,171.22009 -930.80533,170.17115 -930.05777,168.13258 z M -931.05684,167.76621 C -931.60194,169.25267 -933.25091,170.01676 -934.73736,169.47166 C -936.22382,168.92657 -936.98791,167.2776 -936.44282,165.79114 C -935.89772,164.30468 -934.24875,163.54059 -932.76229,164.08569 C -931.27583,164.63078 -930.51175,166.27975 -931.05684,167.76621 z"
         style="opacity:0.1;fill:#e7f1ff;fill-opacity:1;stroke:none;stroke-width:1;stroke-linejoin:round;stroke-miterlimit:4;stroke-dasharray:none;stroke-dashoffset:0;stroke-opacity:1" />
      <path
         id="path15193"
         d="M -925.87215,169.66749 C -924.2773,165.31838 -926.50987,160.49341 -930.85899,158.89856 C -935.20811,157.30371 -940.03443,159.54013 -941.62928,163.88924 C -943.22412,168.23834 -940.98777,173.06469 -936.63865,174.65956 C -932.28953,176.25441 -927.46699,174.01658 -925.87215,169.66749 z M -928.00355,168.88589 C -929.16646,172.05711 -932.68437,173.68721 -935.85564,172.52429 C -939.02691,171.36136 -940.657,167.84345 -939.4941,164.67223 C -938.33119,161.50101 -934.81318,159.87094 -931.64201,161.03382 C -928.47074,162.19675 -926.84064,165.71467 -928.00355,168.88589 z"
         style="fill:#e7f1ff;fill-opacity:1;stroke:none;stroke-width:1;stroke-linejoin:round;stroke-miterlimit:4;stroke-dasharray:none;stroke-dashoffset:0;stroke-opacity:1" />
      <path
         style="fill:#e7f1ff;fill-opacity:1;stroke:none;stroke-width:1;stroke-linejoin:round;stroke-miterlimit:4;stroke-dasharray:none;stroke-dashoffset:0;stroke-opacity:1"
         d="M -930.05777,168.13259 C -929.31021,166.09401 -930.35674,163.83238 -932.39531,163.08482 C -934.43389,162.33726 -936.69609,163.38556 -937.44365,165.42414 C -938.19121,167.46271 -937.14301,169.72497 -935.10443,170.47253 C -933.06586,171.22009 -930.80533,170.17116 -930.05777,168.13259 z M -931.0569,167.7662 C -931.602,169.25266 -933.25095,170.01675 -934.73741,169.47165 C -936.22387,168.92656 -936.98794,167.2776 -936.44285,165.79114 C -935.89775,164.30468 -934.24879,163.54058 -932.76234,164.08568 C -931.27588,164.63077 -930.51181,166.27974 -931.0569,167.7662 z"
         id="path15195" />
      <path
         sodipodi:type="star"
         style="fill:#e7f1ff;fill-opacity:1;stroke:none;stroke-width:1;stroke-linejoin:round;stroke-miterlimit:4;stroke-dasharray:none;stroke-dashoffset:0;stroke-opacity:1"
         id="path15197"
         sodipodi:sides="5"
         sodipodi:cx="162.94955"
         sodipodi:cy="203.83304"
         sodipodi:r1="25.691782"
         sodipodi:r2="26.272663"
         sodipodi:arg1="0.48689923"
         sodipodi:arg2="-0.54381798"
         inkscape:flatsided="false"
         inkscape:rounded="1.88"
         inkscape:randomized="0"
         d="M 185.65564,215.85391 C 230.04118,234.53637 228.68309,169.06242 185.43211,190.23938 C 105.57307,229.34073 166.01559,140.53997 158.53359,229.14246 C 154.48141,277.12882 216.33116,255.60463 182.82538,221.01455 C 120.95999,157.14707 224.0923,187.19038 137.51425,207.45425 C 90.624323,218.42899 130.20767,270.60026 152.75094,228.04545 C 194.37506,149.47183 197.67181,256.84038 151.64563,180.76165 C 126.71825,139.55805 89.332353,193.32586 136.77063,201.61562 C 224.36115,216.92193 123.26635,253.23603 181.39865,185.95292 C 212.88261,149.51296 150.19351,130.57202 156.96871,178.25019 C 169.4785,266.28363 103.70173,181.35843 185.65564,215.85391 z"
         transform="matrix(-7.9011819e-2,0.2154633,-0.2154633,-7.9011819e-2,-1043.4415,216.84512)" />
      <path
         sodipodi:type="star"
         style="fill:#e7f1ff;fill-opacity:1;stroke:none;stroke-width:1;stroke-linejoin:round;stroke-miterlimit:4;stroke-dasharray:none;stroke-dashoffset:0;stroke-opacity:1"
         id="path15199"
         sodipodi:sides="5"
         sodipodi:cx="162.94955"
         sodipodi:cy="203.83304"
         sodipodi:r1="25.691782"
         sodipodi:r2="26.272663"
         sodipodi:arg1="0.48689923"
         sodipodi:arg2="-0.54381798"
         inkscape:flatsided="false"
         inkscape:rounded="1.88"
         inkscape:randomized="0"
         d="M 185.65564,215.85391 C 230.04118,234.53637 228.68309,169.06242 185.43211,190.23938 C 105.57307,229.34073 166.01559,140.53997 158.53359,229.14246 C 154.48141,277.12882 216.33116,255.60463 182.82538,221.01455 C 120.95999,157.14707 224.0923,187.19038 137.51425,207.45425 C 90.624323,218.42899 130.20767,270.60026 152.75094,228.04545 C 194.37506,149.47183 197.67181,256.84038 151.64563,180.76165 C 126.71825,139.55805 89.332353,193.32586 136.77063,201.61562 C 224.36115,216.92193 123.26635,253.23603 181.39865,185.95292 C 212.88261,149.51296 150.19351,130.57202 156.96871,178.25019 C 169.4785,266.28363 103.70173,181.35843 185.65564,215.85391 z"
         transform="matrix(0.1149263,-0.3134012,0.3134012,0.1149263,-1094.2141,109.92961)" />
      <path
         style="fill:#e7f1ff;fill-opacity:1;stroke:none;stroke-width:1;stroke-linejoin:round;stroke-miterlimit:4;stroke-dasharray:none;stroke-dashoffset:0;stroke-opacity:1"
         d="M -880.01725,336.18215 C -874.18456,320.27655 -882.3495,302.63062 -898.25511,296.79793 C -914.16072,290.96524 -931.81181,299.14425 -937.6445,315.04985 C -943.47719,330.95545 -935.29817,348.60653 -919.39256,354.43923 C -903.48695,360.27193 -885.84993,352.08775 -880.01725,336.18215 z M -887.81233,333.32364 C -892.06533,344.92147 -904.93105,350.88314 -916.52891,346.63013 C -928.12677,342.37712 -934.08845,329.51132 -929.83545,317.91349 C -925.58244,306.31564 -912.71662,300.35401 -901.11876,304.60702 C -889.5209,308.86004 -883.55933,321.7258 -887.81233,333.32364 z"
         id="path15203" />
      <path
         sodipodi:nodetypes="csssssssssssccsssssssssssc"
         d="M -903.17315,324.22186 C -903.17098,324.22114 -903.17288,324.22209 -903.17315,324.22186 C -903.19374,324.20136 -903.15468,324.22088 -903.17315,324.22186 C -903.41753,324.23533 -903.29934,324.40712 -903.1873,324.44268 C -902.90069,324.53367 -902.67107,324.21709 -902.63545,323.96501 C -902.54555,323.32677 -903.19504,322.88046 -903.76372,322.84985 C -904.96697,322.78509 -905.75655,323.99944 -905.7483,325.09151 C -905.73271,327.13813 -903.66503,328.42744 -901.78146,328.3272 C -898.54781,328.15509 -896.56709,324.87308 -896.83313,321.86501 C -897.26048,317.03229 -902.19424,314.13144 -906.72795,314.65935 C -913.64354,315.46457 -917.73159,322.5675 -916.82215,329.09927 C -915.49153,338.65584 -905.61881,344.23806 -896.54262,342.80259 C -883.71018,340.77305 -878.74235,327.98086 -880.87418,315.73732 M -903.17315,324.22186 C -903.17282,324.21967 -903.17277,324.22181 -903.17315,324.22186 C -903.20093,324.23039 -903.18371,324.20681 -903.17315,324.22186 C -903.10775,324.31478 -902.97526,324.32349 -902.91441,324.25923 C -902.70752,324.04101 -902.87012,323.69763 -903.07571,323.54748 C -903.59617,323.16739 -904.29593,323.52998 -904.59096,324.01712 C -905.21506,325.0479 -904.51606,326.31654 -903.54883,326.82383 C -901.73637,327.77445 -899.62478,326.55831 -898.82572,324.84968 C -897.45382,321.91647 -899.41528,318.62289 -902.19377,317.44009 C -906.65771,315.53983 -911.54117,318.52459 -913.21185,322.77221 C -915.76039,329.25132 -911.42177,336.20402 -905.23213,338.47971 C -896.17598,341.80926 -886.46901,335.77613 -883.58961,327.0499 C -879.58449,314.91274 -889.36451,314.81206 -880.87418,315.73732"
         style="fill:#e7f1ff;fill-opacity:1;fill-rule:evenodd;stroke:none;stroke-width:1px;stroke-linecap:butt;stroke-linejoin:miter;stroke-opacity:1;display:inline"
         id="path15205" />
      <path
         sodipodi:type="arc"
         style="fill:#e7f1ff;fill-opacity:1;stroke:none;stroke-width:5;stroke-linecap:round;stroke-linejoin:miter;stroke-miterlimit:4;stroke-dasharray:none;stroke-dashoffset:0;stroke-opacity:1"
         id="path15207"
         sodipodi:cx="683.40015"
         sodipodi:cy="400.20007"
         sodipodi:rx="19.200005"
         sodipodi:ry="19.200005"
         d="M 702.60015,400.20007 A 19.200005,19.200005 0 1 1 664.20014,400.20007 A 19.200005,19.200005 0 1 1 702.60015,400.20007 z"
         transform="matrix(-0.3674536,1.0020371,1.0020371,0.3674536,-1002.7113,-593.11927)" />
      <path
         id="path15209"
         d="M -921.28216,231.33658 C -919.73433,227.11569 -915.05402,224.94383 -910.83312,226.49166 C -906.61221,228.0395 -904.44174,232.72358 -905.98957,236.94448 C -907.5374,241.16536 -912.22148,243.33584 -916.44239,241.78801 C -920.6633,240.24018 -922.82998,235.55747 -921.28216,231.33658 z M -919.21355,232.09516 C -920.34217,235.17289 -918.76017,238.58708 -915.68246,239.71569 C -912.60474,240.84431 -909.19048,239.26229 -908.06185,236.18456 C -906.93323,233.10682 -908.51533,229.69259 -911.59305,228.56397 C -914.67076,227.43535 -918.08492,229.01742 -919.21355,232.09516 z"
         style="fill:#e7f1ff;fill-opacity:1;stroke:none;stroke-width:1;stroke-linejoin:round;stroke-miterlimit:4;stroke-dasharray:none;stroke-dashoffset:0;stroke-opacity:1" />
      <path
         sodipodi:type="arc"
         style="fill:#e7f1ff;fill-opacity:1;stroke:none;stroke-width:5;stroke-linecap:round;stroke-linejoin:miter;stroke-miterlimit:4;stroke-dasharray:none;stroke-dashoffset:0;stroke-opacity:1"
         id="path15211"
         sodipodi:cx="696.60016"
         sodipodi:cy="365.40009"
         sodipodi:rx="5.400001"
         sodipodi:ry="4.2000008"
         d="M 702.00016,365.40009 A 5.400001,4.2000008 0 1 1 691.20016,365.40009 A 5.400001,4.2000008 0 1 1 702.00016,365.40009 z"
         transform="matrix(-0.2434449,0.6638683,0.853545,0.3130006,-1055.9375,-342.68068)" />
      <path
         sodipodi:type="star"
         style="fill:#e7f1ff;fill-opacity:1;stroke:none;stroke-width:1;stroke-linejoin:round;stroke-miterlimit:4;stroke-dasharray:none;stroke-dashoffset:0;stroke-opacity:1;display:inline"
         id="path11241"
         sodipodi:sides="5"
         sodipodi:cx="162.94955"
         sodipodi:cy="203.83304"
         sodipodi:r1="25.691782"
         sodipodi:r2="26.272663"
         sodipodi:arg1="0.48689923"
         sodipodi:arg2="-0.54381798"
         inkscape:flatsided="false"
         inkscape:rounded="1.88"
         inkscape:randomized="0"
         d="M 185.65564,215.85391 C 230.04118,234.53637 228.68309,169.06242 185.43211,190.23938 C 105.57307,229.34073 166.01559,140.53997 158.53359,229.14246 C 154.48141,277.12882 216.33116,255.60463 182.82538,221.01455 C 120.95999,157.14707 224.0923,187.19038 137.51425,207.45425 C 90.624323,218.42899 130.20767,270.60026 152.75094,228.04545 C 194.37506,149.47183 197.67181,256.84038 151.64563,180.76165 C 126.71825,139.55805 89.332353,193.32586 136.77063,201.61562 C 224.36115,216.92193 123.26635,253.23603 181.39865,185.95292 C 212.88261,149.51296 150.19351,130.57202 156.96871,178.25019 C 169.4785,266.28363 103.70173,181.35843 185.65564,215.85391 z"
         transform="matrix(0.1345416,-0.3668916,0.3668916,0.1345416,-947.88525,20.446003)" />
      <path
         transform="matrix(-0.2553674,2.9362965e-3,2.9362965e-3,0.2553674,-406.77112,307.7047)"
         d="M 519.29922,279.25638 A 69.579308,69.579308 0 1 1 380.1406,279.25638 A 69.579308,69.579308 0 1 1 519.29922,279.25638 z"
         sodipodi:ry="69.579308"
         sodipodi:rx="69.579308"
         sodipodi:cy="279.25638"
         sodipodi:cx="449.71991"
         id="path10825"
         style="fill:#e7f1ff;fill-opacity:1;fill-rule:nonzero;stroke:none;stroke-width:27.55895996;stroke-linecap:round;stroke-linejoin:round;marker:none;marker-start:none;marker-mid:none;marker-end:none;stroke-miterlimit:4;stroke-dasharray:none;stroke-dashoffset:0;stroke-opacity:1;visibility:visible;display:inline;overflow:visible;enable-background:accumulate"
         sodipodi:type="arc" />
      <path
         transform="matrix(-0.1833537,2.1082191e-3,2.1082191e-3,0.1833537,-508.25443,329.82259)"
         d="M 519.29922,279.25638 A 69.579308,69.579308 0 1 1 380.1406,279.25638 A 69.579308,69.579308 0 1 1 519.29922,279.25638 z"
         sodipodi:ry="69.579308"
         sodipodi:rx="69.579308"
         sodipodi:cy="279.25638"
         sodipodi:cx="449.71991"
         id="path10827"
         style="fill:#e7f1ff;fill-opacity:1;fill-rule:nonzero;stroke:none;stroke-width:27.55895996;stroke-linecap:round;stroke-linejoin:round;marker:none;marker-start:none;marker-mid:none;marker-end:none;stroke-miterlimit:4;stroke-dasharray:none;stroke-dashoffset:0;stroke-opacity:1;visibility:visible;display:inline;overflow:visible;enable-background:accumulate"
         sodipodi:type="arc" />
      <path
         sodipodi:type="arc"
         style="fill:#e7f1ff;fill-opacity:1;fill-rule:nonzero;stroke:none;stroke-width:27.55895996;stroke-linecap:round;stroke-linejoin:round;marker:none;marker-start:none;marker-mid:none;marker-end:none;stroke-miterlimit:4;stroke-dasharray:none;stroke-dashoffset:0;stroke-opacity:1;visibility:visible;display:inline;overflow:visible;enable-background:accumulate"
         id="path10829"
         sodipodi:cx="449.71991"
         sodipodi:cy="279.25638"
         sodipodi:rx="69.579308"
         sodipodi:ry="69.579308"
         d="M 519.29922,279.25638 A 69.579308,69.579308 0 1 1 380.1406,279.25638 A 69.579308,69.579308 0 1 1 519.29922,279.25638 z"
         transform="matrix(-0.4987571,5.7348165e-3,5.7348165e-3,0.4987571,-402.08403,220.27775)" />
      <path
         transform="matrix(-0.1117218,1.2846049e-3,1.2846049e-3,0.1117218,-541.51538,281.24677)"
         d="M 519.29922,279.25638 A 69.579308,69.579308 0 1 1 380.1406,279.25638 A 69.579308,69.579308 0 1 1 519.29922,279.25638 z"
         sodipodi:ry="69.579308"
         sodipodi:rx="69.579308"
         sodipodi:cy="279.25638"
         sodipodi:cx="449.71991"
         id="path10831"
         style="fill:#e7f1ff;fill-opacity:1;fill-rule:nonzero;stroke:none;stroke-width:27.55895996;stroke-linecap:round;stroke-linejoin:round;marker:none;marker-start:none;marker-mid:none;marker-end:none;stroke-miterlimit:4;stroke-dasharray:none;stroke-dashoffset:0;stroke-opacity:1;visibility:visible;display:inline;overflow:visible;enable-background:accumulate"
         sodipodi:type="arc" />
      <path
         sodipodi:type="arc"
         style="fill:#e7f1ff;fill-opacity:1;fill-rule:nonzero;stroke:none;stroke-width:27.55895996;stroke-linecap:round;stroke-linejoin:round;marker:none;marker-start:none;marker-mid:none;marker-end:none;stroke-miterlimit:4;stroke-dasharray:none;stroke-dashoffset:0;stroke-opacity:1;visibility:visible;display:inline;overflow:visible;enable-background:accumulate"
         id="path10833"
         sodipodi:cx="449.71991"
         sodipodi:cy="279.25638"
         sodipodi:rx="69.579308"
         sodipodi:ry="69.579308"
         d="M 519.29922,279.25638 A 69.579308,69.579308 0 1 1 380.1406,279.25638 A 69.579308,69.579308 0 1 1 519.29922,279.25638 z"
         transform="matrix(-0.1117218,1.2846049e-3,1.2846049e-3,0.1117218,-525.15349,341.23347)" />
      <path
         transform="matrix(-6.5892582e-2,7.5764926e-4,7.5764926e-4,6.5892582e-2,-522.58382,345.30405)"
         d="M 519.29922,279.25638 A 69.579308,69.579308 0 1 1 380.1406,279.25638 A 69.579308,69.579308 0 1 1 519.29922,279.25638 z"
         sodipodi:ry="69.579308"
         sodipodi:rx="69.579308"
         sodipodi:cy="279.25638"
         sodipodi:cx="449.71991"
         id="path10835"
         style="fill:#e7f1ff;fill-opacity:1;fill-rule:nonzero;stroke:none;stroke-width:27.55895996;stroke-linecap:round;stroke-linejoin:round;marker:none;marker-start:none;marker-mid:none;marker-end:none;stroke-miterlimit:4;stroke-dasharray:none;stroke-dashoffset:0;stroke-opacity:1;visibility:visible;display:inline;overflow:visible;enable-background:accumulate"
         sodipodi:type="arc" />
      <path
         sodipodi:type="arc"
         style="fill:#e7f1ff;fill-opacity:1;fill-rule:nonzero;stroke:none;stroke-width:27.55895996;stroke-linecap:round;stroke-linejoin:round;marker:none;marker-start:none;marker-mid:none;marker-end:none;stroke-miterlimit:4;stroke-dasharray:none;stroke-dashoffset:0;stroke-opacity:1;visibility:visible;display:inline;overflow:visible;enable-background:accumulate"
         id="path10837"
         sodipodi:cx="449.71991"
         sodipodi:cy="279.25638"
         sodipodi:rx="69.579308"
         sodipodi:ry="69.579308"
         d="M 519.29922,279.25638 A 69.579308,69.579308 0 1 1 380.1406,279.25638 A 69.579308,69.579308 0 1 1 519.29922,279.25638 z"
         transform="matrix(-3.3542552e-2,3.8568047e-4,3.8568047e-4,3.3542552e-2,-546.82678,335.92488)" />
      <path
         sodipodi:type="arc"
         style="fill:#e7f1ff;fill-opacity:1;fill-rule:nonzero;stroke:none;stroke-width:27.55895996;stroke-linecap:round;stroke-linejoin:round;marker:none;marker-start:none;marker-mid:none;marker-end:none;stroke-miterlimit:4;stroke-dasharray:none;stroke-dashoffset:0;stroke-opacity:1;visibility:visible;display:inline;overflow:visible;enable-background:accumulate"
         id="path10839"
         sodipodi:cx="449.71991"
         sodipodi:cy="279.25638"
         sodipodi:rx="69.579308"
         sodipodi:ry="69.579308"
         d="M 519.29922,279.25638 A 69.579308,69.579308 0 1 1 380.1406,279.25638 A 69.579308,69.579308 0 1 1 519.29922,279.25638 z"
         transform="matrix(-9.2850913e-2,1.0676237e-3,1.0676237e-3,9.2850913e-2,-525.59277,301.65481)" />
      <path
         transform="matrix(-4.9717539e-2,5.7166435e-4,5.7166435e-4,4.9717539e-2,-487.79052,329.63637)"
         d="M 519.29922,279.25638 A 69.579308,69.579308 0 1 1 380.1406,279.25638 A 69.579308,69.579308 0 1 1 519.29922,279.25638 z"
         sodipodi:ry="69.579308"
         sodipodi:rx="69.579308"
         sodipodi:cy="279.25638"
         sodipodi:cx="449.71991"
         id="path10841"
         style="fill:#e7f1ff;fill-opacity:1;fill-rule:nonzero;stroke:none;stroke-width:27.55895996;stroke-linecap:round;stroke-linejoin:round;marker:none;marker-start:none;marker-mid:none;marker-end:none;stroke-miterlimit:4;stroke-dasharray:none;stroke-dashoffset:0;stroke-opacity:1;visibility:visible;display:inline;overflow:visible;enable-background:accumulate"
         sodipodi:type="arc" />
      <path
         transform="matrix(-2.6842614e-2,3.0864354e-4,3.0864354e-4,2.6842614e-2,-535.93288,351.43641)"
         d="M 519.29922,279.25638 A 69.579308,69.579308 0 1 1 380.1406,279.25638 A 69.579308,69.579308 0 1 1 519.29922,279.25638 z"
         sodipodi:ry="69.579308"
         sodipodi:rx="69.579308"
         sodipodi:cy="279.25638"
         sodipodi:cx="449.71991"
         id="path10843"
         style="fill:#e7f1ff;fill-opacity:1;fill-rule:nonzero;stroke:none;stroke-width:27.55895996;stroke-linecap:round;stroke-linejoin:round;marker:none;marker-start:none;marker-mid:none;marker-end:none;stroke-miterlimit:4;stroke-dasharray:none;stroke-dashoffset:0;stroke-opacity:1;visibility:visible;display:inline;overflow:visible;enable-background:accumulate"
         sodipodi:type="arc" />
      <path
         sodipodi:type="arc"
         style="fill:#e7f1ff;fill-opacity:1;fill-rule:nonzero;stroke:none;stroke-width:27.55895996;stroke-linecap:round;stroke-linejoin:round;marker:none;marker-start:none;marker-mid:none;marker-end:none;stroke-miterlimit:4;stroke-dasharray:none;stroke-dashoffset:0;stroke-opacity:1;visibility:visible;display:inline;overflow:visible;enable-background:accumulate"
         id="path10845"
         sodipodi:cx="449.71991"
         sodipodi:cy="279.25638"
         sodipodi:rx="69.579308"
         sodipodi:ry="69.579308"
         d="M 519.29922,279.25638 A 69.579308,69.579308 0 1 1 380.1406,279.25638 A 69.579308,69.579308 0 1 1 519.29922,279.25638 z"
         transform="matrix(-9.6088826e-2,1.1048604e-3,1.1048604e-3,9.6088826e-2,-457.13143,358.05362)" />
      <path
         sodipodi:type="arc"
         style="fill:#e7f1ff;fill-opacity:1;fill-rule:nonzero;stroke:none;stroke-width:27.55895996;stroke-linecap:round;stroke-linejoin:round;marker:none;marker-start:none;marker-mid:none;marker-end:none;stroke-miterlimit:4;stroke-dasharray:none;stroke-dashoffset:0;stroke-opacity:1;visibility:visible;display:inline;overflow:visible;enable-background:accumulate"
         id="path2469"
         sodipodi:cx="449.71991"
         sodipodi:cy="279.25638"
         sodipodi:rx="69.579308"
         sodipodi:ry="69.579308"
         d="M 519.29922,279.25638 A 69.579308,69.579308 0 1 1 380.1406,279.25638 A 69.579308,69.579308 0 1 1 519.29922,279.25638 z"
         transform="matrix(0.2480161,6.0902483e-2,-6.0902483e-2,0.2480161,-1174.8401,269.27)" />
      <path
         sodipodi:type="arc"
         style="fill:#e7f1ff;fill-opacity:1;fill-rule:nonzero;stroke:none;stroke-width:27.55895996;stroke-linecap:round;stroke-linejoin:round;marker:none;marker-start:none;marker-mid:none;marker-end:none;stroke-miterlimit:4;stroke-dasharray:none;stroke-dashoffset:0;stroke-opacity:1;visibility:visible;display:inline;overflow:visible;enable-background:accumulate"
         id="path2471"
         sodipodi:cx="449.71991"
         sodipodi:cy="279.25638"
         sodipodi:rx="69.579308"
         sodipodi:ry="69.579308"
         d="M 519.29922,279.25638 A 69.579308,69.579308 0 1 1 380.1406,279.25638 A 69.579308,69.579308 0 1 1 519.29922,279.25638 z"
         transform="matrix(0.1780755,4.3727928e-2,-4.3727928e-2,0.1780755,-1081.0402,313.87537)" />
      <path
         transform="matrix(0.4843994,0.1189484,-0.1189484,0.4843994,-1159.5331,183.06597)"
         d="M 519.29922,279.25638 A 69.579308,69.579308 0 1 1 380.1406,279.25638 A 69.579308,69.579308 0 1 1 519.29922,279.25638 z"
         sodipodi:ry="69.579308"
         sodipodi:rx="69.579308"
         sodipodi:cy="279.25638"
         sodipodi:cx="449.71991"
         id="path2473"
         style="fill:#e7f1ff;fill-opacity:1;fill-rule:nonzero;stroke:none;stroke-width:27.55895996;stroke-linecap:round;stroke-linejoin:round;marker:none;marker-start:none;marker-mid:none;marker-end:none;stroke-miterlimit:4;stroke-dasharray:none;stroke-dashoffset:0;stroke-opacity:1;visibility:visible;display:inline;overflow:visible;enable-background:accumulate"
         sodipodi:type="arc" />
      <path
         sodipodi:type="arc"
         style="fill:#e7f1ff;fill-opacity:1;fill-rule:nonzero;stroke:none;stroke-width:27.55895996;stroke-linecap:round;stroke-linejoin:round;marker:none;marker-start:none;marker-mid:none;marker-end:none;stroke-miterlimit:4;stroke-dasharray:none;stroke-dashoffset:0;stroke-opacity:1;visibility:visible;display:inline;overflow:visible;enable-background:accumulate"
         id="path2475"
         sodipodi:cx="449.71991"
         sodipodi:cy="279.25638"
         sodipodi:rx="69.579308"
         sodipodi:ry="69.579308"
         d="M 519.29922,279.25638 A 69.579308,69.579308 0 1 1 380.1406,279.25638 A 69.579308,69.579308 0 1 1 519.29922,279.25638 z"
         transform="matrix(0.1085057,2.6644493e-2,-2.6644493e-2,0.1085057,-1037.6089,274.13091)" />
      <path
         transform="matrix(0.1085057,2.6644493e-2,-2.6644493e-2,0.1085057,-1067.1771,328.82861)"
         d="M 519.29922,279.25638 A 69.579308,69.579308 0 1 1 380.1406,279.25638 A 69.579308,69.579308 0 1 1 519.29922,279.25638 z"
         sodipodi:ry="69.579308"
         sodipodi:rx="69.579308"
         sodipodi:cy="279.25638"
         sodipodi:cx="449.71991"
         id="path2477"
         style="fill:#e7f1ff;fill-opacity:1;fill-rule:nonzero;stroke:none;stroke-width:27.55895996;stroke-linecap:round;stroke-linejoin:round;marker:none;marker-start:none;marker-mid:none;marker-end:none;stroke-miterlimit:4;stroke-dasharray:none;stroke-dashoffset:0;stroke-opacity:1;visibility:visible;display:inline;overflow:visible;enable-background:accumulate"
         sodipodi:type="arc" />
      <path
         sodipodi:type="arc"
         style="fill:#e7f1ff;fill-opacity:1;fill-rule:nonzero;stroke:none;stroke-width:27.55895996;stroke-linecap:round;stroke-linejoin:round;marker:none;marker-start:none;marker-mid:none;marker-end:none;stroke-miterlimit:4;stroke-dasharray:none;stroke-dashoffset:0;stroke-opacity:1;visibility:visible;display:inline;overflow:visible;enable-background:accumulate"
         id="path2479"
         sodipodi:cx="449.71991"
         sodipodi:cy="279.25638"
         sodipodi:rx="69.579308"
         sodipodi:ry="69.579308"
         d="M 519.29922,279.25638 A 69.579308,69.579308 0 1 1 380.1406,279.25638 A 69.579308,69.579308 0 1 1 519.29922,279.25638 z"
         transform="matrix(6.3995742e-2,1.5714697e-2,-1.5714697e-2,6.3995742e-2,-1070.6047,332.20858)" />
      <path
         transform="matrix(3.2576967e-2,7.9995504e-3,-7.9995504e-3,3.2576967e-2,-1044.8644,328.58515)"
         d="M 519.29922,279.25638 A 69.579308,69.579308 0 1 1 380.1406,279.25638 A 69.579308,69.579308 0 1 1 519.29922,279.25638 z"
         sodipodi:ry="69.579308"
         sodipodi:rx="69.579308"
         sodipodi:cy="279.25638"
         sodipodi:cx="449.71991"
         id="path2481"
         style="fill:#e7f1ff;fill-opacity:1;fill-rule:nonzero;stroke:none;stroke-width:27.55895996;stroke-linecap:round;stroke-linejoin:round;marker:none;marker-start:none;marker-mid:none;marker-end:none;stroke-miterlimit:4;stroke-dasharray:none;stroke-dashoffset:0;stroke-opacity:1;visibility:visible;display:inline;overflow:visible;enable-background:accumulate"
         sodipodi:type="arc" />
      <path
         transform="matrix(9.0178028e-2,2.214398e-2,-2.214398e-2,9.0178028e-2,-1057.7534,290.3857)"
         d="M 519.29922,279.25638 A 69.579308,69.579308 0 1 1 380.1406,279.25638 A 69.579308,69.579308 0 1 1 519.29922,279.25638 z"
         sodipodi:ry="69.579308"
         sodipodi:rx="69.579308"
         sodipodi:cy="279.25638"
         sodipodi:cx="449.71991"
         id="path2483"
         style="fill:#e7f1ff;fill-opacity:1;fill-rule:nonzero;stroke:none;stroke-width:27.55895996;stroke-linecap:round;stroke-linejoin:round;marker:none;marker-start:none;marker-mid:none;marker-end:none;stroke-miterlimit:4;stroke-dasharray:none;stroke-dashoffset:0;stroke-opacity:1;visibility:visible;display:inline;overflow:visible;enable-background:accumulate"
         sodipodi:type="arc" />
      <path
         sodipodi:type="arc"
         style="fill:#e7f1ff;fill-opacity:1;fill-rule:nonzero;stroke:none;stroke-width:27.55895996;stroke-linecap:round;stroke-linejoin:round;marker:none;marker-start:none;marker-mid:none;marker-end:none;stroke-miterlimit:4;stroke-dasharray:none;stroke-dashoffset:0;stroke-opacity:1;visibility:visible;display:inline;overflow:visible;enable-background:accumulate"
         id="path2485"
         sodipodi:cx="449.71991"
         sodipodi:cy="279.25638"
         sodipodi:rx="69.579308"
         sodipodi:ry="69.579308"
         d="M 519.29922,279.25638 A 69.579308,69.579308 0 1 1 380.1406,279.25638 A 69.579308,69.579308 0 1 1 519.29922,279.25638 z"
         transform="matrix(4.8286328e-2,1.1857117e-2,-1.1857117e-2,4.8286328e-2,-1100.9262,309.04273)" />
      <path
         sodipodi:type="arc"
         style="fill:#e7f1ff;fill-opacity:1;fill-rule:nonzero;stroke:none;stroke-width:27.55895996;stroke-linecap:round;stroke-linejoin:round;marker:none;marker-start:none;marker-mid:none;marker-end:none;stroke-miterlimit:4;stroke-dasharray:none;stroke-dashoffset:0;stroke-opacity:1;visibility:visible;display:inline;overflow:visible;enable-background:accumulate"
         id="path2487"
         sodipodi:cx="449.71991"
         sodipodi:cy="279.25638"
         sodipodi:rx="69.579308"
         sodipodi:ry="69.579308"
         d="M 519.29922,279.25638 A 69.579308,69.579308 0 1 1 380.1406,279.25638 A 69.579308,69.579308 0 1 1 519.29922,279.25638 z"
         transform="matrix(2.6069899e-2,6.4016854e-3,-6.4016854e-3,2.6069899e-2,-1058.9989,341.21458)" />
      <path
         transform="matrix(9.332273e-2,2.2916195e-2,-2.2916195e-2,9.332273e-2,-1137.2418,329.74763)"
         d="M 519.29922,279.25638 A 69.579308,69.579308 0 1 1 380.1406,279.25638 A 69.579308,69.579308 0 1 1 519.29922,279.25638 z"
         sodipodi:ry="69.579308"
         sodipodi:rx="69.579308"
         sodipodi:cy="279.25638"
         sodipodi:cx="449.71991"
         id="path2489"
         style="fill:#e7f1ff;fill-opacity:1;fill-rule:nonzero;stroke:none;stroke-width:27.55895996;stroke-linecap:round;stroke-linejoin:round;marker:none;marker-start:none;marker-mid:none;marker-end:none;stroke-miterlimit:4;stroke-dasharray:none;stroke-dashoffset:0;stroke-opacity:1;visibility:visible;display:inline;overflow:visible;enable-background:accumulate"
         sodipodi:type="arc" />
    </g>
    <path
       sodipodi:nodetypes="ccccc"
       id="path3482"
       d="M -1133.3497,308.11076 L -493.3497,308.11076 C -493.3497,308.11076 -493.3497,291.95511 -493.3497,291.95511 L -1133.3497,291.95511 C -1133.3497,291.95511 -1133.3497,308.11076 -1133.3497,308.11076 z"
       style="fill:#204c8d;fill-opacity:1;fill-rule:nonzero;stroke:none;stroke-width:5;stroke-linecap:round;stroke-linejoin:round;marker:none;marker-start:none;marker-mid:none;marker-end:none;stroke-miterlimit:4;stroke-dashoffset:0;stroke-opacity:1;visibility:visible;display:inline;overflow:visible;enable-background:accumulate" />
    <path
       style="fill:#80b3ff;fill-opacity:1;fill-rule:nonzero;stroke:none;stroke-width:5;stroke-linecap:round;stroke-linejoin:round;marker:none;marker-start:none;marker-mid:none;marker-end:none;stroke-miterlimit:4;stroke-dashoffset:0;stroke-opacity:1;visibility:visible;display:inline;overflow:visible;enable-background:accumulate"
       d="M -1133.3497,292.27312 L -493.3497,292.27312 C -493.3497,292.27312 -493.3497,276.0194 -493.3497,276.0194 L -1133.3497,276.0194 C -1133.3497,276.0194 -1133.3497,292.27312 -1133.3497,292.27312 z"
       id="path3458"
       sodipodi:nodetypes="ccccc" />
    <path
       style="fill:#e7f1ff;fill-opacity:1;fill-rule:nonzero;stroke:none;stroke-width:5;stroke-linecap:round;stroke-linejoin:round;marker:none;marker-start:none;marker-mid:none;marker-end:none;stroke-miterlimit:4;stroke-dashoffset:0;stroke-opacity:1;visibility:visible;display:inline;overflow:visible;enable-background:accumulate"
       d="M -1133.3497,276.3374 L -493.3497,276.3374 C -493.3497,276.3374 -493.3497,259.98523 -493.3497,259.98523 L -1133.3497,259.98523 C -1133.3497,259.98523 -1133.3497,276.3374 -1133.3497,276.3374 z"
       id="path3484"
       sodipodi:nodetypes="ccccc" />
  </g>
</svg>
