<?xml version="1.0" encoding="UTF-8" standalone="no"?>
<!-- Created with Inkscape (http://www.inkscape.org/) -->
<svg
   xmlns:dc="http://purl.org/dc/elements/1.1/"
   xmlns:cc="http://creativecommons.org/ns#"
   xmlns:rdf="http://www.w3.org/1999/02/22-rdf-syntax-ns#"
   xmlns:svg="http://www.w3.org/2000/svg"
   xmlns="http://www.w3.org/2000/svg"
   xmlns:xlink="http://www.w3.org/1999/xlink"
   xmlns:sodipodi="http://sodipodi.sourceforge.net/DTD/sodipodi-0.dtd"
   xmlns:inkscape="http://www.inkscape.org/namespaces/inkscape"
   width="636.91199"
   height="335.48105"
   id="svg2"
   sodipodi:version="0.32"
   inkscape:version="0.46"
   sodipodi:docname="figure-1.svg"
   inkscape:output_extension="org.inkscape.output.svg.inkscape"
   version="1.0">
  <defs
     id="defs4">
    <linearGradient
       inkscape:collect="always"
       id="linearGradient5097">
      <stop
         style="stop-color:#ffffff;stop-opacity:1;"
         offset="0"
         id="stop5099" />
      <stop
         style="stop-color:#ffffff;stop-opacity:0;"
         offset="1"
         id="stop5101" />
    </linearGradient>
    <inkscape:perspective
       sodipodi:type="inkscape:persp3d"
       inkscape:vp_x="0 : 526.18109 : 1"
       inkscape:vp_y="0 : 1000 : 0"
       inkscape:vp_z="744.09448 : 526.18109 : 1"
       inkscape:persp3d-origin="372.04724 : 350.78739 : 1"
       id="perspective10" />
    <radialGradient
       inkscape:collect="always"
       xlink:href="#linearGradient5097"
       id="radialGradient5113"
       cx="80.359207"
       cy="613.36218"
       fx="80.359207"
       fy="613.36218"
       r="324.66989"
       gradientTransform="matrix(1.0440019,0,0,0.4543958,10.794147,328.39103)"
       gradientUnits="userSpaceOnUse" />
  </defs>
  <sodipodi:namedview
     id="base"
     pagecolor="#ffffff"
     bordercolor="#666666"
     borderopacity="1.0"
     gridtolerance="10000"
     guidetolerance="10"
     objecttolerance="10"
     inkscape:pageopacity="0.0"
     inkscape:pageshadow="2"
     inkscape:zoom="1.4903972"
     inkscape:cx="399.5394"
     inkscape:cy="237.25965"
     inkscape:document-units="px"
     inkscape:current-layer="layer1"
     showgrid="false"
     inkscape:window-width="1360"
     inkscape:window-height="693"
     inkscape:window-x="0"
     inkscape:window-y="25"
     showborder="false"
     inkscape:showpageshadow="false"
     showguides="true"
     inkscape:guide-bbox="true"
     borderlayer="false">
    <inkscape:grid
       type="xygrid"
       id="grid2464" />
  </sodipodi:namedview>
  <metadata
     id="metadata7">
    <rdf:RDF>
      <cc:Work
         rdf:about="">
        <dc:format>image/svg+xml</dc:format>
        <dc:type
           rdf:resource="http://purl.org/dc/dcmitype/StillImage" />
        <cc:license
           rdf:resource="http://creativecommons.org/licenses/by-sa/3.0/" />
        <dc:creator>
          <cc:Agent>
            <dc:title>Alain Reguera Delgado</dc:title>
          </cc:Agent>
        </dc:creator>
        <dc:rights>
          <cc:Agent>
            <dc:title>Alain Reguera Delgado</dc:title>
          </cc:Agent>
        </dc:rights>
        <dc:publisher>
          <cc:Agent>
            <dc:title>The CentOS Project</dc:title>
          </cc:Agent>
        </dc:publisher>
      </cc:Work>
      <cc:License
         rdf:about="http://creativecommons.org/licenses/by-sa/3.0/">
        <cc:permits
           rdf:resource="http://creativecommons.org/ns#Reproduction" />
        <cc:permits
           rdf:resource="http://creativecommons.org/ns#Distribution" />
        <cc:requires
           rdf:resource="http://creativecommons.org/ns#Notice" />
        <cc:requires
           rdf:resource="http://creativecommons.org/ns#Attribution" />
        <cc:permits
           rdf:resource="http://creativecommons.org/ns#DerivativeWorks" />
        <cc:requires
           rdf:resource="http://creativecommons.org/ns#ShareAlike" />
      </cc:License>
    </rdf:RDF>
  </metadata>
  <g
     inkscape:label="Layer 1"
     inkscape:groupmode="layer"
     id="layer1"
     transform="translate(227.26668,-386.216)">
    <rect
       style="opacity:1;fill:#ffffff;fill-opacity:1;stroke:none;stroke-width:1.37864077;stroke-linecap:round;stroke-linejoin:round;stroke-miterlimit:4;stroke-dasharray:none;stroke-dashoffset:0;stroke-opacity:1"
       id="CENTOSARTWORK"
       width="636.91199"
       height="335.48105"
       x="-227.26668"
       y="386.216"
       inkscape:label="#rect3605" />
    <g
       id="g3391"
       transform="matrix(1.9948599,0,0,1.9948599,-288.32645,-572.97304)">
      <rect
         ry="0.87977332"
         rx="0.87977332"
         y="454.81122"
         x="31.319902"
         height="7.5696859"
         width="12.248009"
         id="rect3379"
         style="opacity:1;fill:#000000;fill-opacity:1;stroke:none;stroke-width:30;stroke-linecap:round;stroke-linejoin:miter;stroke-miterlimit:4;stroke-dasharray:none;stroke-dashoffset:0;stroke-opacity:1" />
      <path
         transform="matrix(0.1268335,0,0,0.1268335,32.290584,396.43816)"
         d="M 71.701099,464.41318 A 31.070477,31.070477 0 1 1 9.5601463,464.41318 A 31.070477,31.070477 0 1 1 71.701099,464.41318 z"
         sodipodi:ry="31.070477"
         sodipodi:rx="31.070477"
         sodipodi:cy="464.41318"
         sodipodi:cx="40.630623"
         id="path3381"
         style="opacity:1;fill:none;fill-opacity:1;stroke:#000000;stroke-width:14.03023338;stroke-linecap:round;stroke-linejoin:miter;stroke-miterlimit:4;stroke-dasharray:none;stroke-dashoffset:0;stroke-opacity:1"
         sodipodi:type="arc" />
      <g
         transform="matrix(1.0535117,0,0,1.0535117,-2.0036876,-26.180334)"
         id="g3387">
        <path
           sodipodi:type="arc"
           style="opacity:1;fill:#ffffff;fill-opacity:1;stroke:none;stroke-width:2;stroke-linecap:round;stroke-linejoin:miter;stroke-miterlimit:4;stroke-dasharray:none;stroke-dashoffset:0;stroke-opacity:1"
           id="path3383"
           sodipodi:cx="37.180244"
           sodipodi:cy="458.60495"
           sodipodi:rx="1.9716796"
           sodipodi:ry="1.9716796"
           d="M 39.151924,458.60495 A 1.9716796,1.9716796 0 1 1 35.208565,458.60495 A 1.9716796,1.9716796 0 1 1 39.151924,458.60495 z"
           transform="matrix(0.4895582,0,0,0.4949237,19.242013,232.81308)" />
        <path
           transform="matrix(0.3109868,0,0,0.4949237,25.881342,233.54366)"
           d="M 39.151924,458.60495 A 1.9716796,1.9716796 0 1 1 35.208565,458.60495 A 1.9716796,1.9716796 0 1 1 39.151924,458.60495 z"
           sodipodi:ry="1.9716796"
           sodipodi:rx="1.9716796"
           sodipodi:cy="458.60495"
           sodipodi:cx="37.180244"
           id="path3385"
           style="opacity:1;fill:#ffffff;fill-opacity:1;stroke:none;stroke-width:2;stroke-linecap:round;stroke-linejoin:miter;stroke-miterlimit:4;stroke-dasharray:none;stroke-dashoffset:0;stroke-opacity:1"
           sodipodi:type="arc" />
      </g>
      <path
         id="path3593"
         d="M 32.730465,456.77714 L 31.604044,456.77714"
         style="fill:none;fill-rule:evenodd;stroke:#ffffff;stroke-width:0.56828254;stroke-linecap:round;stroke-linejoin:miter;stroke-miterlimit:4;stroke-dasharray:none;stroke-opacity:1" />
      <path
         style="fill:none;fill-rule:evenodd;stroke:#ffffff;stroke-width:0.56828254;stroke-linecap:round;stroke-linejoin:miter;stroke-miterlimit:4;stroke-dasharray:none;stroke-opacity:1"
         d="M 32.730465,460.8807 L 31.604044,460.8807"
         id="path3595" />
      <path
         id="path3597"
         d="M 32.730465,458.82892 L 31.604044,458.82892"
         style="fill:none;fill-rule:evenodd;stroke:#ffffff;stroke-width:0.56828254;stroke-linecap:round;stroke-linejoin:miter;stroke-miterlimit:4;stroke-dasharray:none;stroke-opacity:1" />
      <use
         x="0"
         y="0"
         xlink:href="#path3593"
         id="use3599"
         transform="translate(10.553305,0)"
         width="744.09448"
         height="1052.3622" />
      <use
         x="0"
         y="0"
         xlink:href="#path3595"
         id="use3601"
         transform="translate(10.553305,0)"
         width="744.09448"
         height="1052.3622" />
      <use
         x="0"
         y="0"
         xlink:href="#path3597"
         id="use3603"
         transform="translate(10.553305,0)"
         width="744.09448"
         height="1052.3622" />
    </g>
    <g
       id="g3464"
       transform="matrix(1.7486867,7.0246696e-2,-7.0246696e-2,1.7486867,-196.34294,-352.52419)"
       style="fill:#000000">
      <g
         id="g3448"
         transform="translate(1.0119225,0.8513383)"
         style="fill:#000000">
        <path
           sodipodi:type="star"
           style="fill:#000000;fill-opacity:1;stroke:none;stroke-width:2;stroke-linecap:round;stroke-linejoin:miter;stroke-miterlimit:4;stroke-dasharray:none;stroke-dashoffset:0;stroke-opacity:1"
           id="path3398"
           sodipodi:sides="7"
           sodipodi:cx="-77.740509"
           sodipodi:cy="472.68839"
           sodipodi:r1="18.83659"
           sodipodi:r2="29.899347"
           sodipodi:arg1="0.74541948"
           sodipodi:arg2="1.1942184"
           inkscape:flatsided="false"
           inkscape:rounded="0.5"
           inkscape:randomized="0"
           d="M -63.899318,485.46487 C -69.086427,491.08424 -59.633736,497.68037 -66.745313,500.49264 C -73.85689,503.30491 -71.472216,492.0277 -79.099725,491.47587 C -86.727234,490.92405 -85.990639,502.42708 -92.623359,498.62045 C -99.256078,494.81381 -88.952376,489.647 -93.276615,483.33951 C -97.600854,477.03203 -106.13503,484.77994 -107.29432,477.22088 C -108.4536,469.66182 -97.989771,474.49612 -95.7545,467.18264 C -93.519229,459.86916 -104.89776,458.02762 -99.710653,452.40825 C -94.523543,446.78888 -91.779059,457.98398 -84.667483,455.1717 C -77.555906,452.35943 -83.210533,442.31515 -75.583024,442.86698 C -67.955515,443.41881 -74.997033,452.54456 -68.364313,456.35119 C -61.731593,460.15782 -57.404264,449.47435 -53.080026,455.78183 C -48.755787,462.08932 -60.2809,462.27385 -59.12161,469.83291 C -57.962321,477.39198 -46.911603,474.11419 -49.146874,481.42766 C -51.382145,488.74114 -58.712209,479.8455 -63.899318,485.46487 z"
           transform="matrix(0.1945715,0.1005164,-0.1005164,0.1945715,97.41442,311.90926)" />
        <path
           sodipodi:type="arc"
           style="fill:#000000;fill-opacity:1;stroke:#ffffff;stroke-width:1.51230884;stroke-linecap:round;stroke-linejoin:miter;stroke-miterlimit:4;stroke-dasharray:none;stroke-dashoffset:0;stroke-opacity:1"
           id="path3400"
           sodipodi:cx="78.47287"
           sodipodi:cy="454.45468"
           sodipodi:rx="3.5850549"
           sodipodi:ry="3.5850549"
           d="M 82.057925,454.45468 A 3.5850549,3.5850549 0 1 1 74.887815,454.45468 A 3.5850549,3.5850549 0 1 1 82.057925,454.45468 z"
           transform="matrix(0.6612406,0,0,0.6612406,-17.11405,95.562866)" />
      </g>
      <g
         transform="translate(12.417603,4.32646)"
         id="g3511"
         style="fill:#000000">
        <path
           transform="matrix(0.1945715,0.1005164,-0.1005164,0.1945715,97.41442,311.90926)"
           d="M -63.899318,485.46487 C -69.086427,491.08424 -59.633736,497.68037 -66.745313,500.49264 C -73.85689,503.30491 -71.472216,492.0277 -79.099725,491.47587 C -86.727234,490.92405 -85.990639,502.42708 -92.623359,498.62045 C -99.256078,494.81381 -88.952376,489.647 -93.276615,483.33951 C -97.600854,477.03203 -106.13503,484.77994 -107.29432,477.22088 C -108.4536,469.66182 -97.989771,474.49612 -95.7545,467.18264 C -93.519229,459.86916 -104.89776,458.02762 -99.710653,452.40825 C -94.523543,446.78888 -91.779059,457.98398 -84.667483,455.1717 C -77.555906,452.35943 -83.210533,442.31515 -75.583024,442.86698 C -67.955515,443.41881 -74.997033,452.54456 -68.364313,456.35119 C -61.731593,460.15782 -57.404264,449.47435 -53.080026,455.78183 C -48.755787,462.08932 -60.2809,462.27385 -59.12161,469.83291 C -57.962321,477.39198 -46.911603,474.11419 -49.146874,481.42766 C -51.382145,488.74114 -58.712209,479.8455 -63.899318,485.46487 z"
           inkscape:randomized="0"
           inkscape:rounded="0.5"
           inkscape:flatsided="false"
           sodipodi:arg2="1.1942184"
           sodipodi:arg1="0.74541948"
           sodipodi:r2="29.899347"
           sodipodi:r1="18.83659"
           sodipodi:cy="472.68839"
           sodipodi:cx="-77.740509"
           sodipodi:sides="7"
           id="path3513"
           style="fill:#000000;fill-opacity:1;stroke:none;stroke-width:2;stroke-linecap:round;stroke-linejoin:miter;stroke-miterlimit:4;stroke-dasharray:none;stroke-dashoffset:0;stroke-opacity:1"
           sodipodi:type="star" />
        <path
           transform="matrix(0.6612406,0,0,0.6612406,-17.11405,95.562866)"
           d="M 82.057925,454.45468 A 3.5850549,3.5850549 0 1 1 74.887815,454.45468 A 3.5850549,3.5850549 0 1 1 82.057925,454.45468 z"
           sodipodi:ry="3.5850549"
           sodipodi:rx="3.5850549"
           sodipodi:cy="454.45468"
           sodipodi:cx="78.47287"
           id="path3515"
           style="fill:#000000;fill-opacity:1;stroke:#ffffff;stroke-width:1.51230884;stroke-linecap:round;stroke-linejoin:miter;stroke-miterlimit:4;stroke-dasharray:none;stroke-dashoffset:0;stroke-opacity:1"
           sodipodi:type="arc" />
      </g>
      <g
         id="g3517"
         transform="translate(11.032464,-7.2078292)"
         style="fill:#000000">
        <path
           sodipodi:type="star"
           style="fill:#000000;fill-opacity:1;stroke:none;stroke-width:2;stroke-linecap:round;stroke-linejoin:miter;stroke-miterlimit:4;stroke-dasharray:none;stroke-dashoffset:0;stroke-opacity:1"
           id="path3519"
           sodipodi:sides="7"
           sodipodi:cx="-77.740509"
           sodipodi:cy="472.68839"
           sodipodi:r1="18.83659"
           sodipodi:r2="29.899347"
           sodipodi:arg1="0.74541948"
           sodipodi:arg2="1.1942184"
           inkscape:flatsided="false"
           inkscape:rounded="0.5"
           inkscape:randomized="0"
           d="M -63.899318,485.46487 C -69.086427,491.08424 -59.633736,497.68037 -66.745313,500.49264 C -73.85689,503.30491 -71.472216,492.0277 -79.099725,491.47587 C -86.727234,490.92405 -85.990639,502.42708 -92.623359,498.62045 C -99.256078,494.81381 -88.952376,489.647 -93.276615,483.33951 C -97.600854,477.03203 -106.13503,484.77994 -107.29432,477.22088 C -108.4536,469.66182 -97.989771,474.49612 -95.7545,467.18264 C -93.519229,459.86916 -104.89776,458.02762 -99.710653,452.40825 C -94.523543,446.78888 -91.779059,457.98398 -84.667483,455.1717 C -77.555906,452.35943 -83.210533,442.31515 -75.583024,442.86698 C -67.955515,443.41881 -74.997033,452.54456 -68.364313,456.35119 C -61.731593,460.15782 -57.404264,449.47435 -53.080026,455.78183 C -48.755787,462.08932 -60.2809,462.27385 -59.12161,469.83291 C -57.962321,477.39198 -46.911603,474.11419 -49.146874,481.42766 C -51.382145,488.74114 -58.712209,479.8455 -63.899318,485.46487 z"
           transform="matrix(0.218856,7.9782205e-3,-7.9782205e-3,0.218856,55.570586,293.33092)" />
        <path
           sodipodi:type="arc"
           style="fill:#000000;fill-opacity:1;stroke:#ffffff;stroke-width:1.51230884;stroke-linecap:round;stroke-linejoin:miter;stroke-miterlimit:4;stroke-dasharray:none;stroke-dashoffset:0;stroke-opacity:1"
           id="path3521"
           sodipodi:cx="78.47287"
           sodipodi:cy="454.45468"
           sodipodi:rx="3.5850549"
           sodipodi:ry="3.5850549"
           d="M 82.057925,454.45468 A 3.5850549,3.5850549 0 1 1 74.887815,454.45468 A 3.5850549,3.5850549 0 1 1 82.057925,454.45468 z"
           transform="matrix(0.6612406,0,0,0.6612406,-17.11405,95.562866)" />
      </g>
    </g>
    <path
       style="fill:none;fill-rule:evenodd;stroke:#000000;stroke-width:7.1393199;stroke-linecap:round;stroke-linejoin:miter;stroke-miterlimit:4;stroke-dasharray:none;stroke-opacity:1"
       d="M -218.44161,531.50618 L 390.65107,531.50618"
       id="path2569"
       sodipodi:nodetypes="cc" />
    <text
       xml:space="preserve"
       style="font-size:9.39601707px;font-style:normal;font-variant:normal;font-weight:bold;font-stretch:normal;text-align:start;line-height:100%;writing-mode:lr-tb;text-anchor:start;fill:#000000;fill-opacity:1;stroke:none;stroke-width:1px;stroke-linecap:butt;stroke-linejoin:miter;stroke-opacity:1;font-family:DejaVu LGC Sans Mono;-inkscape-font-specification:DejaVu LGC Sans Mono Bold"
       x="-220.69077"
       y="513.55176"
       id="text3341"
       sodipodi:linespacing="100%"><tspan
         sodipodi:role="line"
         id="tspan3343"
         x="-220.69077"
         y="513.55176">trunk/Identity/Themes/Motifs/TreeFlower</tspan></text>
    <path
       transform="matrix(1.3230372,0,0,1.2890068,297.27306,-33.545654)"
       style="fill:#000000;fill-opacity:1;stroke:none;stroke-width:5;stroke-linecap:round;stroke-linejoin:miter;stroke-miterlimit:4;stroke-dashoffset:0;stroke-opacity:1"
       d="M 70.968871,445.3443 L 70.968871,431.38006 L 83.062258,438.36218 L 70.968871,445.3443 z"
       id="path3347"
       sodipodi:nodetypes="cccc" />
    <path
       style="fill:none;fill-rule:evenodd;stroke:#000000;stroke-width:2.14179587;stroke-linecap:round;stroke-linejoin:miter;stroke-miterlimit:4;stroke-dasharray:none;stroke-opacity:1"
       d="M -127.66597,531.95924 L -127.66597,585.40387 L 183.01023,585.40387"
       id="path3349"
       sodipodi:nodetypes="ccc" />
    <path
       sodipodi:type="star"
       style="fill:#000000;fill-opacity:1;stroke:none;stroke-width:5;stroke-linecap:round;stroke-linejoin:miter;stroke-miterlimit:4;stroke-dasharray:none;stroke-dashoffset:0;stroke-opacity:1"
       id="path3351"
       sodipodi:sides="3"
       sodipodi:cx="75"
       sodipodi:cy="438.36218"
       sodipodi:r1="8.0622578"
       sodipodi:r2="4.0311289"
       sodipodi:arg1="2.0943951"
       sodipodi:arg2="3.1415927"
       inkscape:flatsided="false"
       inkscape:rounded="0"
       inkscape:randomized="0"
       d="M 70.968871,445.3443 L 70.968871,438.36218 L 70.968871,431.38006 L 77.015565,434.87112 L 83.062258,438.36218 L 77.015564,441.85324 L 70.968871,445.3443 z"
       transform="matrix(0.4961389,0,0,0.5728919,147.42847,334.26031)" />
    <text
       xml:space="preserve"
       style="font-size:9.39601707px;font-style:normal;font-variant:normal;font-weight:normal;font-stretch:normal;text-align:start;line-height:100%;writing-mode:lr-tb;text-anchor:start;fill:#000000;fill-opacity:1;stroke:none;stroke-width:1px;stroke-linecap:butt;stroke-linejoin:miter;stroke-opacity:1;font-family:DejaVu LGC Sans Mono;-inkscape-font-specification:DejaVu LGC Sans Mono"
       x="-119.62232"
       y="576.4176"
       id="text3553"
       sodipodi:linespacing="100%"><tspan
         sodipodi:role="line"
         id="tspan3555"
         x="-119.62232"
         y="576.4176">branches/Identity/Themes/Motifs/TreeFlower/1/</tspan></text>
    <use
       height="1052.3622"
       width="744.09448"
       transform="matrix(0.4761905,0,0,0.4761905,246.23019,409.09766)"
       id="use3563"
       xlink:href="#g3464"
       y="0"
       x="0" />
    <path
       transform="matrix(0.6693112,0,0,0.6693112,-141.02775,211.43505)"
       d="M 101,558.36218 A 8,8 0 1 1 85,558.36218 A 8,8 0 1 1 101,558.36218 z"
       sodipodi:ry="8"
       sodipodi:rx="8"
       sodipodi:cy="558.36218"
       sodipodi:cx="93"
       id="path3565"
       style="fill:#000000;fill-opacity:1;stroke:none;stroke-width:5;stroke-linecap:round;stroke-linejoin:round;stroke-miterlimit:4;stroke-dasharray:none;stroke-dashoffset:0;stroke-opacity:1"
       sodipodi:type="arc" />
    <path
       style="fill:none;fill-rule:evenodd;stroke:#000000;stroke-width:2.14179587;stroke-linecap:round;stroke-linejoin:miter;stroke-miterlimit:4;stroke-dasharray:none;stroke-opacity:1"
       d="M -78.671998,586.08842 L -78.671998,634.62887"
       id="path3569"
       sodipodi:nodetypes="cc" />
    <text
       sodipodi:linespacing="100%"
       id="text3571"
       y="648.58643"
       x="-62.661049"
       style="font-size:9.39601707px;font-style:normal;font-variant:normal;font-weight:normal;font-stretch:normal;text-align:start;line-height:100%;writing-mode:lr-tb;text-anchor:start;fill:#000000;fill-opacity:1;stroke:none;stroke-width:1px;stroke-linecap:butt;stroke-linejoin:miter;stroke-opacity:1;font-family:DejaVu LGC Sans Mono;-inkscape-font-specification:DejaVu LGC Sans Mono"
       xml:space="preserve"><tspan
         y="648.58643"
         x="-62.661049"
         id="tspan3573"
         sodipodi:role="line">tags/Identity/Themes/Motifs/TreeFlower/1.0/</tspan></text>
    <use
       height="1052.3622"
       width="744.09448"
       transform="matrix(0.713932,0,0,0.713932,73.73627,401.14866)"
       id="use3575"
       xlink:href="#g3391"
       y="0"
       x="0" />
    <use
       x="0"
       y="0"
       xlink:href="#g3464"
       id="use3579"
       transform="matrix(0.7142857,0,0,0.7142857,482.27917,266.27395)"
       width="744.09448"
       height="1052.3622" />
    <path
       sodipodi:type="arc"
       style="fill:#000000;fill-opacity:1;stroke:none;stroke-width:5;stroke-linecap:round;stroke-linejoin:round;stroke-miterlimit:4;stroke-dasharray:none;stroke-dashoffset:0;stroke-opacity:1"
       id="use5165"
       sodipodi:cx="93"
       sodipodi:cy="558.36218"
       sodipodi:rx="8"
       sodipodi:ry="8"
       d="M 101,558.36218 A 8,8 0 1 1 85,558.36218 A 8,8 0 1 1 101,558.36218 z"
       transform="matrix(1.25,0,0,1.25,-243.92216,-166.44655)" />
    <g
       id="g5123"
       transform="matrix(1.0440019,0,0,1.0440019,22.312324,-62.887535)">
      <text
         sodipodi:linespacing="125%"
         id="text3429"
         y="722.29272"
         x="-215.96948"
         style="font-size:9.5785265px;font-style:normal;font-variant:normal;font-weight:normal;font-stretch:normal;text-indent:0;text-align:start;text-decoration:none;line-height:125%;letter-spacing:normal;word-spacing:normal;text-transform:none;direction:ltr;block-progression:tb;writing-mode:lr-tb;text-anchor:start;opacity:1;fill:#000000;fill-opacity:1;fill-rule:nonzero;stroke:none;stroke-width:1px;stroke-linecap:butt;stroke-linejoin:miter;marker:none;marker-start:none;marker-mid:none;marker-end:none;stroke-miterlimit:4;stroke-dasharray:none;stroke-dashoffset:0;stroke-opacity:1;visibility:visible;display:inline;overflow:visible;enable-background:accumulate;font-family:DejaVu LGC Sans;-inkscape-font-specification:DejaVu LGC Sans"
         xml:space="preserve"><tspan
           y="722.29272"
           x="-215.96948"
           id="tspan3431"
           sodipodi:role="line">Immutable branch (tagged revision)</tspan></text>
      <use
         height="284"
         width="650"
         transform="matrix(0.5287493,0,0,0.5287493,-113.04449,539.2433)"
         id="use5115"
         xlink:href="#g3391"
         y="0"
         x="0" />
      <use
         height="284"
         width="650"
         transform="matrix(0.3448498,0,0,0.3448498,-174.53491,620.84341)"
         id="use5117"
         xlink:href="#g3464"
         y="0"
         x="0" />
      <text
         xml:space="preserve"
         style="font-size:9.5785265px;font-style:normal;font-variant:normal;font-weight:normal;font-stretch:normal;text-indent:0;text-align:start;text-decoration:none;line-height:125%;letter-spacing:normal;word-spacing:normal;text-transform:none;direction:ltr;block-progression:tb;writing-mode:lr-tb;text-anchor:start;opacity:1;fill:#000000;fill-opacity:1;fill-rule:nonzero;stroke:none;stroke-width:1px;stroke-linecap:butt;stroke-linejoin:miter;marker:none;marker-start:none;marker-mid:none;marker-end:none;stroke-miterlimit:4;stroke-dasharray:none;stroke-dashoffset:0;stroke-opacity:1;visibility:visible;display:inline;overflow:visible;enable-background:accumulate;font-family:DejaVu LGC Sans;-inkscape-font-specification:DejaVu LGC Sans"
         x="-215.96948"
         y="741.84607"
         id="text5119"
         sodipodi:linespacing="125%"><tspan
           sodipodi:role="line"
           id="tspan5121"
           x="-215.96948"
           y="741.84607">Development branch</tspan></text>
    </g>
    <path
       sodipodi:type="arc"
       style="fill:#000000;fill-opacity:1;stroke:none;stroke-width:5;stroke-linecap:round;stroke-linejoin:round;stroke-miterlimit:4;stroke-dasharray:none;stroke-dashoffset:0;stroke-opacity:1"
       id="path2484"
       sodipodi:cx="93"
       sodipodi:cy="558.36218"
       sodipodi:rx="8"
       sodipodi:ry="8"
       d="M 101,558.36218 A 8,8 0 1 1 85,558.36218 A 8,8 0 1 1 101,558.36218 z"
       transform="matrix(0.6693112,0,0,0.6693112,-85.014741,211.43505)" />
    <path
       sodipodi:nodetypes="cc"
       id="path2486"
       d="M -22.658989,586.08842 L -22.658989,614.62887"
       style="fill:none;fill-rule:evenodd;stroke:#000000;stroke-width:2.14179587;stroke-linecap:round;stroke-linejoin:miter;stroke-miterlimit:4;stroke-dasharray:none;stroke-opacity:1" />
    <use
       x="0"
       y="0"
       xlink:href="#g3391"
       id="use2488"
       transform="matrix(0.713932,0,0,0.713932,129.74928,381.14866)"
       width="744.09448"
       height="1052.3622" />
    <text
       sodipodi:linespacing="100%"
       id="text2490"
       y="628.58643"
       x="-6.6480417"
       style="font-size:9.39601707px;font-style:normal;font-variant:normal;font-weight:normal;font-stretch:normal;text-align:start;line-height:100%;writing-mode:lr-tb;text-anchor:start;fill:#000000;fill-opacity:1;stroke:none;stroke-width:1px;stroke-linecap:butt;stroke-linejoin:miter;stroke-opacity:1;font-family:DejaVu LGC Sans Mono;-inkscape-font-specification:DejaVu LGC Sans Mono"
       xml:space="preserve"><tspan
         y="628.58643"
         x="-6.6480417"
         id="tspan2492"
         sodipodi:role="line">tags/Identity/Themes/Motifs/TreeFlower/1.1/</tspan></text>
    <use
       x="0"
       y="0"
       xlink:href="#use5165"
       id="use2494"
       transform="translate(149.7876,0)"
       width="636.91199"
       height="266.05725" />
    <path
       style="fill:none;fill-rule:evenodd;stroke:#000000;stroke-width:2.14179587;stroke-linecap:round;stroke-linejoin:miter;stroke-miterlimit:4;stroke-dasharray:none;stroke-opacity:1"
       d="M 22.545496,524.57245 L 22.545496,471.12782 L 316.07587,471.12782"
       id="path2496"
       sodipodi:nodetypes="ccc" />
    <path
       sodipodi:type="star"
       style="fill:#000000;fill-opacity:1;stroke:none;stroke-width:5;stroke-linecap:round;stroke-linejoin:miter;stroke-miterlimit:4;stroke-dasharray:none;stroke-dashoffset:0;stroke-opacity:1"
       id="path2498"
       sodipodi:sides="3"
       sodipodi:cx="75"
       sodipodi:cy="438.36218"
       sodipodi:r1="8.0622578"
       sodipodi:r2="4.0311289"
       sodipodi:arg1="2.0943951"
       sodipodi:arg2="3.1415927"
       inkscape:flatsided="false"
       inkscape:rounded="0"
       inkscape:randomized="0"
       d="M 70.968871,445.3443 L 70.968871,438.36218 L 70.968871,431.38006 L 77.015565,434.87112 L 83.062258,438.36218 L 77.015564,441.85324 L 70.968871,445.3443 z"
       transform="matrix(0.4961389,0,0,0.5728919,279.93634,219.98662)" />
    <text
       xml:space="preserve"
       style="font-size:9.39601707px;font-style:normal;font-variant:normal;font-weight:normal;font-stretch:normal;text-align:start;line-height:100%;writing-mode:lr-tb;text-anchor:start;fill:#000000;fill-opacity:1;stroke:none;stroke-width:1px;stroke-linecap:butt;stroke-linejoin:miter;stroke-opacity:1;font-family:DejaVu LGC Sans Mono;-inkscape-font-specification:DejaVu LGC Sans Mono"
       x="28.589136"
       y="485.24615"
       id="text2500"
       sodipodi:linespacing="100%"><tspan
         sodipodi:role="line"
         id="tspan2502"
         x="28.589136"
         y="485.24615">branches/Identity/Themes/Motifs/TreeFlower/2/</tspan></text>
    <use
       x="0"
       y="0"
       xlink:href="#g3464"
       id="use2504"
       transform="matrix(0.4761905,0,0,0.4761905,379.29583,295.51901)"
       width="636.91199"
       height="266.05725" />
    <path
       transform="matrix(0.6693112,0,0,0.6693112,17.040637,97.356632)"
       d="M 101,558.36218 A 8,8 0 1 1 85,558.36218 A 8,8 0 1 1 101,558.36218 z"
       sodipodi:ry="8"
       sodipodi:rx="8"
       sodipodi:cy="558.36218"
       sodipodi:cx="93"
       id="path2526"
       style="fill:#000000;fill-opacity:1;stroke:none;stroke-width:5;stroke-linecap:round;stroke-linejoin:round;stroke-miterlimit:4;stroke-dasharray:none;stroke-dashoffset:0;stroke-opacity:1"
       sodipodi:type="arc" />
    <path
       style="fill:none;fill-rule:evenodd;stroke:#000000;stroke-width:2.14179587;stroke-linecap:round;stroke-linejoin:miter;stroke-miterlimit:4;stroke-dasharray:none;stroke-opacity:1"
       d="M 79.396389,404.62887 L 79.396389,468.98602"
       id="path2528"
       sodipodi:nodetypes="cc" />
    <text
       sodipodi:linespacing="100%"
       id="text2530"
       y="405.44031"
       x="95.407341"
       style="font-size:9.39601707px;font-style:normal;font-variant:normal;font-weight:normal;font-stretch:normal;text-align:start;line-height:100%;writing-mode:lr-tb;text-anchor:start;fill:#000000;fill-opacity:1;stroke:none;stroke-width:1px;stroke-linecap:butt;stroke-linejoin:miter;stroke-opacity:1;font-family:DejaVu LGC Sans Mono;-inkscape-font-specification:DejaVu LGC Sans Mono"
       xml:space="preserve"><tspan
         y="405.44031"
         x="95.407341"
         id="tspan2532"
         sodipodi:role="line">tags/Identity/Themes/Motifs/TreeFlower/2.0/</tspan></text>
    <use
       height="1052.3622"
       width="744.09448"
       transform="matrix(0.713932,0,0,0.713932,231.80465,158.00253)"
       id="use2534"
       xlink:href="#g3391"
       y="0"
       x="0" />
    <path
       sodipodi:type="arc"
       style="fill:#000000;fill-opacity:1;stroke:none;stroke-width:5;stroke-linecap:round;stroke-linejoin:round;stroke-miterlimit:4;stroke-dasharray:none;stroke-dashoffset:0;stroke-opacity:1"
       id="path2536"
       sodipodi:cx="93"
       sodipodi:cy="558.36218"
       sodipodi:rx="8"
       sodipodi:ry="8"
       d="M 101,558.36218 A 8,8 0 1 1 85,558.36218 A 8,8 0 1 1 101,558.36218 z"
       transform="matrix(0.6693112,0,0,0.6693112,73.053647,97.356632)" />
    <path
       sodipodi:nodetypes="cc"
       id="path2538"
       d="M 135.4094,434.62887 L 135.4094,468.98602"
       style="fill:none;fill-rule:evenodd;stroke:#000000;stroke-width:2.14179587;stroke-linecap:round;stroke-linejoin:miter;stroke-miterlimit:4;stroke-dasharray:none;stroke-opacity:1" />
    <use
       x="0"
       y="0"
       xlink:href="#g3391"
       id="use2540"
       transform="matrix(0.713932,0,0,0.713932,287.81766,186.1015)"
       width="744.09448"
       height="1052.3622" />
    <text
       sodipodi:linespacing="100%"
       id="text2542"
       y="433.53931"
       x="151.42035"
       style="font-size:9.39601707px;font-style:normal;font-variant:normal;font-weight:normal;font-stretch:normal;text-align:start;line-height:100%;writing-mode:lr-tb;text-anchor:start;fill:#000000;fill-opacity:1;stroke:none;stroke-width:1px;stroke-linecap:butt;stroke-linejoin:miter;stroke-opacity:1;font-family:DejaVu LGC Sans Mono;-inkscape-font-specification:DejaVu LGC Sans Mono"
       xml:space="preserve"><tspan
         y="433.53931"
         x="151.42035"
         id="tspan2544"
         sodipodi:role="line">tags/Identity/Themes/Motifs/TreeFlower/2.1/</tspan></text>
  </g>
</svg>
