<?xml version="1.0" encoding="UTF-8" standalone="no"?>
<!-- Created with Inkscape (http://www.inkscape.org/) -->
<svg
   xmlns:dc="http://purl.org/dc/elements/1.1/"
   xmlns:cc="http://creativecommons.org/ns#"
   xmlns:rdf="http://www.w3.org/1999/02/22-rdf-syntax-ns#"
   xmlns:svg="http://www.w3.org/2000/svg"
   xmlns="http://www.w3.org/2000/svg"
   xmlns:xlink="http://www.w3.org/1999/xlink"
   xmlns:sodipodi="http://sodipodi.sourceforge.net/DTD/sodipodi-0.dtd"
   xmlns:inkscape="http://www.inkscape.org/namespaces/inkscape"
   width="336.61877"
   height="177.16536"
   id="svg3106"
   sodipodi:version="0.32"
   inkscape:version="0.46"
   sodipodi:docname="centos.svg"
   inkscape:output_extension="org.inkscape.output.svg.inkscape"
   version="1.0">
  <defs
     id="defs3108">
    <inkscape:perspective
       sodipodi:type="inkscape:persp3d"
       inkscape:vp_x="0 : 88.58268 : 1"
       inkscape:vp_y="0 : 1000 : 0"
       inkscape:vp_z="336.61877 : 88.58268 : 1"
       inkscape:persp3d-origin="168.30939 : 59.05512 : 1"
       id="perspective2625" />
  </defs>
  <sodipodi:namedview
     id="base"
     pagecolor="#ffffff"
     bordercolor="#666666"
     borderopacity="1.0"
     gridtolerance="10000"
     guidetolerance="10"
     objecttolerance="10"
     inkscape:pageopacity="0.0"
     inkscape:pageshadow="2"
     inkscape:zoom="2.8222221"
     inkscape:cx="168.30939"
     inkscape:cy="88.58268"
     inkscape:document-units="mm"
     inkscape:current-layer="layer1"
     showgrid="false"
     inkscape:window-width="1360"
     inkscape:window-height="693"
     inkscape:window-x="0"
     inkscape:window-y="25"
     units="mm"
     showborder="false"
     inkscape:showpageshadow="false"
     showguides="false"
     inkscape:guide-bbox="true">
    <inkscape:grid
       type="xygrid"
       id="grid4233"
       visible="true"
       enabled="true"
       units="mm"
       spacingx="5mm"
       spacingy="5mm"
       color="#3886c7"
       opacity="0.1254902"
       empcolor="#3886c7"
       empopacity="0.24313725" />
    <sodipodi:guide
       orientation="1,0"
       position="293.43969,126.06585"
       id="guide13880" />
    <sodipodi:guide
       orientation="0,1"
       position="293.66918,130.80862"
       id="guide13882" />
  </sodipodi:namedview>
  <metadata
     id="CENTOSMETADATA">
    <rdf:RDF>
      <cc:Work
         rdf:about="">
        <dc:format>image/svg+xml</dc:format>
        <dc:type
           rdf:resource="http://purl.org/dc/dcmitype/StillImage" />
        <cc:license
           rdf:resource="http://creativecommons.org/licenses/by-sa/3.0/" />
        <dc:title>a.svg</dc:title>
        <dc:date>2011-08-01</dc:date>
        <dc:creator>
          <cc:Agent>
            <dc:title>The CentOS Project</dc:title>
          </cc:Agent>
        </dc:creator>
        <dc:rights>
          <cc:Agent>
            <dc:title>The CentOS Project</dc:title>
          </cc:Agent>
        </dc:rights>
        <dc:publisher>
          <cc:Agent>
            <dc:title>The CentOS Project</dc:title>
          </cc:Agent>
        </dc:publisher>
        <dc:identifier>https://projects.centos.org/svn/artwork/trunk/Identity/Models/Manuals/Brands/Types/a.svg</dc:identifier>
        <dc:source>https://projects.centos.org/svn/artwork/trunk/Identity/Models/Manuals/Brands/Types/a.svg</dc:source>
        <dc:relation>https://projects.centos.org/svn/artwork/trunk/Identity/Models/Manuals/Brands/Types/a.svg</dc:relation>
        <dc:language>en_US</dc:language>
        <dc:subject>
          <rdf:Bag>
            <rdf:li>Identity</rdf:li>
            <rdf:li>Models</rdf:li>
            <rdf:li>Manuals</rdf:li>
            <rdf:li>Brands</rdf:li>
            <rdf:li>Types</rdf:li>
          </rdf:Bag>
        </dc:subject>
        <dc:coverage>The CentOS Project</dc:coverage>
        <dc:description />
        <dc:contributor />
      </cc:Work>
      <cc:License
         rdf:about="http://creativecommons.org/licenses/by-sa/3.0/">
        <cc:permits
           rdf:resource="http://creativecommons.org/ns#Reproduction" />
        <cc:permits
           rdf:resource="http://creativecommons.org/ns#Distribution" />
        <cc:requires
           rdf:resource="http://creativecommons.org/ns#Notice" />
        <cc:requires
           rdf:resource="http://creativecommons.org/ns#Attribution" />
        <cc:permits
           rdf:resource="http://creativecommons.org/ns#DerivativeWorks" />
        <cc:requires
           rdf:resource="http://creativecommons.org/ns#ShareAlike" />
      </cc:License>
    </rdf:RDF>
  </metadata>
  <g
     inkscape:label="Layer 1"
     inkscape:groupmode="layer"
     id="layer1"
     transform="translate(-0.2825948,-928.34627)">
    <rect
       style="fill:#888888;fill-opacity:1;stroke:none;stroke-width:1;stroke-linecap:round;stroke-linejoin:miter;stroke-miterlimit:4;stroke-dasharray:none;stroke-dashoffset:0;stroke-opacity:0.08910893000000000;display:inline"
       id="rect12678"
       width="336.61417"
       height="159.44882"
       x="0.28259483"
       y="928.34631"
       clip-path="none"
       inkscape:label="#rect12678" />
    <g
       id="g3874">
      <path
         sodipodi:nodetypes="cc"
         id="path3685"
         d="M 18.24913,929.12938 L 18.24913,1087.2457"
         style="fill:none;fill-rule:evenodd;stroke:#ffffff;stroke-width:0.5;stroke-linecap:butt;stroke-linejoin:miter;stroke-miterlimit:4;stroke-dasharray:none;stroke-opacity:0.11764706;display:inline" />
      <path
         sodipodi:nodetypes="cc"
         style="fill:none;fill-rule:evenodd;stroke:#ffffff;stroke-width:0.5;stroke-linecap:butt;stroke-linejoin:miter;stroke-miterlimit:4;stroke-dasharray:none;stroke-opacity:0.11764706;display:inline"
         d="M 35.965666,929.14074 L 35.965666,1087.2559"
         id="path3687" />
      <path
         sodipodi:nodetypes="cc"
         id="path3689"
         d="M 53.682201,929.14074 L 53.682201,1087.2559"
         style="fill:none;fill-rule:evenodd;stroke:#ffffff;stroke-width:0.5;stroke-linecap:butt;stroke-linejoin:miter;stroke-miterlimit:4;stroke-dasharray:none;stroke-opacity:0.11764706;display:inline" />
      <path
         sodipodi:nodetypes="cc"
         style="fill:none;fill-rule:evenodd;stroke:#ffffff;stroke-width:0.5;stroke-linecap:butt;stroke-linejoin:miter;stroke-miterlimit:4;stroke-dasharray:none;stroke-opacity:0.11764706;display:inline"
         d="M 71.398737,929.14074 L 71.398737,1087.2559"
         id="path3691" />
      <path
         sodipodi:nodetypes="cc"
         id="path3693"
         d="M 89.115272,929.14074 L 89.115272,1087.2559"
         style="fill:none;fill-rule:evenodd;stroke:#ffffff;stroke-width:0.5;stroke-linecap:butt;stroke-linejoin:miter;stroke-miterlimit:4;stroke-dasharray:none;stroke-opacity:0.11764706;display:inline" />
      <path
         sodipodi:nodetypes="cc"
         style="fill:none;fill-rule:evenodd;stroke:#ffffff;stroke-width:0.5;stroke-linecap:butt;stroke-linejoin:miter;stroke-miterlimit:4;stroke-dasharray:none;stroke-opacity:0.11764706;display:inline"
         d="M 106.83181,929.14074 L 106.83181,1087.2559"
         id="path3695" />
      <path
         id="path3697"
         d="M 124.54834,928.80708 L 124.54834,1087.2559"
         style="fill:none;fill-rule:evenodd;stroke:#ffffff;stroke-width:0.5;stroke-linecap:butt;stroke-linejoin:miter;stroke-miterlimit:4;stroke-dasharray:none;stroke-opacity:0.11764706;display:inline" />
      <path
         style="fill:none;fill-rule:evenodd;stroke:#ffffff;stroke-width:0.5;stroke-linecap:butt;stroke-linejoin:miter;stroke-miterlimit:4;stroke-dasharray:none;stroke-opacity:0.11764706;display:inline"
         d="M 142.26488,928.80708 L 142.26488,1087.2559"
         id="path3699" />
      <path
         id="path3701"
         d="M 159.98141,928.80708 L 159.98141,1087.2559"
         style="fill:none;fill-rule:evenodd;stroke:#ffffff;stroke-width:0.5;stroke-linecap:butt;stroke-linejoin:miter;stroke-miterlimit:4;stroke-dasharray:none;stroke-opacity:0.11764706;display:inline" />
      <path
         style="fill:none;fill-rule:evenodd;stroke:#ffffff;stroke-width:0.5;stroke-linecap:butt;stroke-linejoin:miter;stroke-miterlimit:4;stroke-dasharray:none;stroke-opacity:0.11764706;display:inline"
         d="M 177.69795,928.80708 L 177.69795,1087.2559"
         id="path3703" />
      <path
         id="path3705"
         d="M 195.41448,928.80708 L 195.41448,1087.2559"
         style="fill:none;fill-rule:evenodd;stroke:#ffffff;stroke-width:0.5;stroke-linecap:butt;stroke-linejoin:miter;stroke-miterlimit:4;stroke-dasharray:none;stroke-opacity:0.11764706;display:inline" />
      <path
         style="fill:none;fill-rule:evenodd;stroke:#ffffff;stroke-width:0.5;stroke-linecap:butt;stroke-linejoin:miter;stroke-miterlimit:4;stroke-dasharray:none;stroke-opacity:0.11764706;display:inline"
         d="M 213.13102,928.80708 L 213.13102,1087.2559"
         id="path3707" />
      <path
         id="path3709"
         d="M 230.84756,928.80708 L 230.84756,1087.2559"
         style="fill:none;fill-rule:evenodd;stroke:#ffffff;stroke-width:0.5;stroke-linecap:butt;stroke-linejoin:miter;stroke-miterlimit:4;stroke-dasharray:none;stroke-opacity:0.11764706;display:inline" />
      <path
         style="fill:none;fill-rule:evenodd;stroke:#ffffff;stroke-width:0.5;stroke-linecap:butt;stroke-linejoin:miter;stroke-miterlimit:4;stroke-dasharray:none;stroke-opacity:0.11764706;display:inline"
         d="M 283.99716,928.80708 L 283.99716,1087.2559"
         id="path3711" />
      <path
         sodipodi:nodetypes="cc"
         id="path3713"
         d="M 266.28063,928.80708 L 266.28063,1087.2559"
         style="fill:none;fill-rule:evenodd;stroke:#ffffff;stroke-width:0.5;stroke-linecap:butt;stroke-linejoin:miter;stroke-miterlimit:4;stroke-dasharray:none;stroke-opacity:0.11764706;display:inline" />
      <path
         id="path3717"
         d="M 0.49241538,1034.4018 L 336.44989,1034.4018"
         style="fill:none;fill-rule:evenodd;stroke:#ffffff;stroke-width:0.48747578;stroke-linecap:square;stroke-linejoin:miter;stroke-miterlimit:4;stroke-dasharray:none;stroke-opacity:0.11764706;display:inline"
         sodipodi:nodetypes="cc" />
      <path
         sodipodi:nodetypes="cc"
         style="fill:none;fill-rule:evenodd;stroke:#ffffff;stroke-width:0.48747578;stroke-linecap:square;stroke-linejoin:miter;stroke-miterlimit:4;stroke-dasharray:none;stroke-opacity:0.11764706;display:inline"
         d="M 0.49241538,1016.6853 L 336.48074,1016.6853"
         id="path3719" />
      <path
         id="path3721"
         d="M 0.49241538,998.96872 L 336.48074,998.96872"
         style="fill:none;fill-rule:evenodd;stroke:#ffffff;stroke-width:0.48747578;stroke-linecap:square;stroke-linejoin:miter;stroke-miterlimit:4;stroke-dasharray:none;stroke-opacity:0.11764706;display:inline"
         sodipodi:nodetypes="cc" />
      <path
         sodipodi:nodetypes="cc"
         style="fill:none;fill-rule:evenodd;stroke:#ffffff;stroke-width:0.48747578;stroke-linecap:square;stroke-linejoin:miter;stroke-miterlimit:4;stroke-dasharray:none;stroke-opacity:0.11764706;display:inline"
         d="M 0.49241538,981.25218 L 336.47985,981.25218"
         id="path3723" />
      <path
         id="path3725"
         d="M 0.49241538,963.53565 L 336.31017,963.53565"
         style="fill:none;fill-rule:evenodd;stroke:#ffffff;stroke-width:0.48747578;stroke-linecap:square;stroke-linejoin:miter;stroke-miterlimit:4;stroke-dasharray:none;stroke-opacity:0.11764706;display:inline"
         sodipodi:nodetypes="cc" />
      <path
         sodipodi:nodetypes="cc"
         style="fill:none;fill-rule:evenodd;stroke:#ffffff;stroke-width:0.48747578;stroke-linecap:square;stroke-linejoin:miter;stroke-miterlimit:4;stroke-dasharray:none;stroke-opacity:0.11764706;display:inline"
         d="M 0.49241538,945.81911 L 336.25774,945.81911"
         id="path3727" />
      <path
         style="fill:none;fill-rule:evenodd;stroke:#ffffff;stroke-width:0.5;stroke-linecap:butt;stroke-linejoin:miter;stroke-miterlimit:4;stroke-dasharray:none;stroke-opacity:0.11764706;display:inline"
         d="M 248.56409,928.80708 L 248.56409,1087.2559"
         id="path3785"
         sodipodi:nodetypes="cc" />
      <path
         sodipodi:nodetypes="cc"
         id="path3787"
         d="M 301.7137,928.80708 L 301.7137,1087.2559"
         style="fill:none;fill-rule:evenodd;stroke:#ffffff;stroke-width:0.5;stroke-linecap:butt;stroke-linejoin:miter;stroke-miterlimit:4;stroke-dasharray:none;stroke-opacity:0.11764706;display:inline" />
      <path
         sodipodi:nodetypes="cc"
         style="fill:none;fill-rule:evenodd;stroke:#ffffff;stroke-width:0.48747578;stroke-linecap:square;stroke-linejoin:miter;stroke-miterlimit:4;stroke-dasharray:none;stroke-opacity:0.11764706;display:inline"
         d="M 0.49241538,1052.1183 L 336.44989,1052.1183"
         id="path2479" />
      <path
         id="path2481"
         d="M 0.49241538,1069.8349 L 336.44989,1069.8349"
         style="fill:none;fill-rule:evenodd;stroke:#ffffff;stroke-width:0.48747578;stroke-linecap:square;stroke-linejoin:miter;stroke-miterlimit:4;stroke-dasharray:none;stroke-opacity:0.11764706;display:inline"
         sodipodi:nodetypes="cc" />
      <path
         style="fill:none;fill-rule:evenodd;stroke:#ffffff;stroke-width:0.5;stroke-linecap:butt;stroke-linejoin:miter;stroke-miterlimit:4;stroke-dasharray:none;stroke-opacity:0.11764706;display:inline"
         d="M 319.43023,928.80708 L 319.43023,1087.2559"
         id="path3872"
         sodipodi:nodetypes="cc" />
    </g>
    <rect
       y="946.31171"
       x="18.247993"
       height="88.084953"
       width="300.68338"
       id="rect5058"
       style="opacity:1;fill:#fcaf3e;fill-opacity:0.1372549;stroke:#fcaf3e;stroke-width:0.49772608;stroke-linecap:round;stroke-linejoin:miter;stroke-miterlimit:4;stroke-dasharray:none;stroke-opacity:1" />
    <rect
       style="opacity:1;fill:#cc0000;fill-opacity:0.1372549;stroke:#cc0000;stroke-width:0.46874201;stroke-linecap:round;stroke-linejoin:miter;stroke-miterlimit:4;stroke-dasharray:none;stroke-opacity:1"
       id="rect5037"
       width="265.6058"
       height="53.286243"
       x="36.194324"
       y="963.40833" />
    <path
       transform="scale(0.9903898,1.0097034)"
       style="font-size:72.70556641px;font-style:normal;font-variant:normal;font-weight:200;font-stretch:normal;text-align:start;line-height:125%;writing-mode:lr-tb;text-anchor:start;fill:#fffdf5;fill-opacity:1;stroke:none;stroke-width:1;stroke-linecap:butt;stroke-linejoin:miter;stroke-miterlimit:4;stroke-opacity:1;display:inline;font-family:Denmark;-inkscape-font-specification:Denmark Ultra-Light"
       clip-path="none"
       d="M 78.958513,1005.5818 L 56.492493,1005.5818 C 54.214365,1005.5818 51.960494,1005.2667 49.730875,1004.6366 C 45.417,1003.3279 41.999842,1000.3228 39.47939,995.62112 C 37.201279,991.35575 36.062226,986.38754 36.062229,980.71648 C 36.062226,975.23936 37.080103,970.39233 39.115862,966.17537 C 41.345492,961.52226 44.520299,958.34745 48.640292,956.65094 C 51.839318,955.34229 55.111066,954.68794 58.455543,954.68789 L 78.813102,954.68789 L 78.813102,964.43044 L 57.655782,964.43044 C 54.214365,964.43048 51.718143,966.29659 50.167108,970.02877 C 48.955334,972.93702 48.349455,976.74194 48.349469,981.44354 C 48.349455,985.41813 49.12498,988.78682 50.676047,991.54961 C 52.469433,994.79714 54.98989,996.42089 58.237426,996.42089 L 78.958513,996.34818 L 78.958513,1005.5818 M 116.37461,1005.7999 L 98.634457,1005.7999 C 94.320579,1005.7999 90.564129,1003.958 87.365094,1000.2743 C 84.214516,996.54207 82.63923,992.25245 82.639232,987.4054 C 82.63923,982.12215 84.359927,977.56594 87.801327,973.73675 C 91.291184,969.85915 95.16881,967.92034 99.434218,967.9203 L 116.30191,967.9203 L 116.30191,975.6998 L 103.94196,975.6998 C 102.39089,975.69983 101.05795,975.84524 99.943157,976.13603 C 98.87679,976.37841 97.883148,976.88735 96.962229,977.66285 C 95.265751,979.11699 94.41752,981.08004 94.417534,983.552 L 116.2292,983.552 L 116.2292,991.4042 L 94.490239,991.4042 C 94.490225,992.5675 94.611401,993.56115 94.853767,994.38513 C 95.144575,995.16067 95.701984,995.96043 96.525995,996.78441 C 97.349975,997.55995 98.319381,998.09312 99.434218,998.38394 C 100.59749,998.62629 102.00313,998.74747 103.65114,998.74746 L 116.37461,998.74746 L 116.37461,1005.7999 M 157.83496,1005.5818 L 147.72889,1005.5818 L 147.72889,980.78919 C 147.72886,980.1591 147.58345,979.60169 147.29266,979.11696 C 147.00181,978.58381 146.58981,978.07488 146.05666,977.59014 C 145.08723,976.76618 143.97241,976.35418 142.71221,976.35415 L 132.82425,976.35415 L 132.82425,1005.5818 L 122.71818,1005.5818 L 122.71818,967.9203 L 142.05786,967.9203 C 145.49923,967.92034 147.99545,968.11422 149.54653,968.50195 C 151.97002,969.08363 153.90883,970.36809 155.36297,972.35534 C 157.01093,974.68195 157.83493,977.22664 157.83496,979.98943 L 157.83496,1005.5818 M 186.86039,975.7725 L 177.04514,975.7725 L 177.04514,992.85831 C 177.04512,994.40938 177.5783,995.69384 178.64466,996.71171 C 179.8564,997.72959 181.45592,998.23853 183.44323,998.23852 L 186.42416,998.23852 L 186.42416,1005.5818 L 177.04514,1005.5818 C 174.23384,1005.5818 171.83456,1004.5639 169.84729,1002.5282 C 168.68399,1001.3164 167.9327,999.98346 167.59342,998.52935 C 167.25412,997.07524 167.08447,995.35455 167.08448,993.36725 L 167.08448,975.7725 L 160.68639,975.7725 L 160.68639,967.9203 L 167.08448,967.9203 L 167.08448,954.68789 L 177.04514,954.68789 L 177.04514,967.9203 L 186.86039,967.9203 L 186.86039,975.7725 M 246.19154,980.06213 C 246.19148,989.95011 243.45291,997.02677 237.97581,1001.2922 C 233.51649,1004.7336 227.02147,1006.4543 218.49072,1006.4543 C 209.03897,1006.4543 202.05925,1004.467 197.55151,1000.4924 C 192.60753,996.13007 190.13554,989.12611 190.13555,979.48049 C 190.13554,971.57985 192.34094,965.42412 196.75175,961.01327 C 201.55031,956.21476 208.72392,953.81548 218.2726,953.81542 C 228.79063,953.81548 236.20659,956.11782 240.5205,960.72245 C 244.30114,964.79401 246.19148,971.24056 246.19154,980.06213 M 233.24995,979.77131 C 233.2499,974.77889 232.06238,970.80433 229.68738,967.8476 C 227.02147,964.55165 223.07113,962.90366 217.83637,962.90362 C 212.69848,962.90366 208.82086,964.67283 206.20348,968.21113 C 204.02229,971.16785 202.93171,975.02124 202.93173,979.77131 C 202.93171,985.24848 203.80418,989.29576 205.54913,991.91314 C 207.97263,995.54843 212.45613,997.36607 218.99966,997.36606 C 224.52524,997.36607 228.40287,995.5969 230.63255,992.05855 C 232.37744,989.29576 233.2499,985.20001 233.24995,979.77131 M 304.38895,989.80468 C 304.38889,994.26397 302.91054,998.02042 299.95391,1001.074 C 296.99716,1004.1277 293.24071,1005.6545 288.68454,1005.6545 L 252.69529,1005.5818 L 252.69529,996.42089 L 282.35916,996.42089 C 284.34641,996.42089 286.01864,995.96043 287.37584,995.03948 C 288.92685,993.97314 289.70238,992.51903 289.70242,990.67715 C 289.70238,986.3633 286.64875,984.20637 280.54152,984.20635 L 265.56417,984.20635 C 261.2503,984.20637 257.46961,982.87344 254.22211,980.20754 C 250.97459,977.5417 249.35083,974.14878 249.35083,970.02877 C 249.35083,965.47259 250.92612,961.78884 254.0767,958.97752 C 257.27573,956.11782 261.46841,954.68794 266.65476,954.68789 L 301.04449,954.68789 L 301.04449,963.41256 L 270.72627,963.41256 C 269.36908,963.4126 267.98767,963.99424 266.58205,965.15749 C 265.22486,966.27235 264.54628,967.60528 264.5463,969.1563 C 264.54628,970.90127 265.20063,972.37961 266.50935,973.59134 C 267.8665,974.75466 269.49025,975.3363 271.38062,975.33627 L 287.88478,975.33627 C 293.0226,975.3363 297.04563,976.66924 299.95391,979.33508 C 302.91054,981.9525 304.38889,985.44237 304.38895,989.80468"
       id="text5083" />
    <g
       id="g3976"
       transform="matrix(0.9979155,0,0,1,5.8906886e-4,48.796332)">
      <path
         sodipodi:nodetypes="ccccc"
         id="rect4586"
         d="M 0.2825948,1038.9988 C 0.2825948,1038.9988 337.59991,1038.9988 337.59991,1038.9988 C 337.59991,1038.9988 337.59991,1056.7153 337.59991,1056.7153 C 337.59991,1056.7153 0.2825948,1056.7153 0.2825948,1056.7153 C 0.2825948,1056.7153 0.2825948,1038.9988 0.2825948,1038.9988 z"
         style="fill:#000000;fill-opacity:1;fill-rule:nonzero;stroke:none;stroke-width:1.00000095;stroke-linecap:round;stroke-linejoin:round;marker:none;marker-start:none;marker-mid:none;marker-end:none;stroke-miterlimit:4;stroke-dashoffset:0;stroke-opacity:1;visibility:visible;display:inline;overflow:visible;enable-background:accumulate" />
      <text
         transform="scale(0.9995648,1.0004354)"
         xml:space="preserve"
         style="font-size:11.66189194px;font-style:normal;font-variant:normal;font-weight:normal;font-stretch:normal;text-indent:0;text-align:start;text-decoration:none;line-height:125%;letter-spacing:normal;word-spacing:normal;text-transform:none;direction:ltr;block-progression:tb;writing-mode:lr-tb;text-anchor:start;fill:#eeeeee;fill-opacity:1;fill-rule:nonzero;stroke:none;stroke-width:1px;stroke-linecap:butt;stroke-linejoin:miter;marker:none;marker-start:none;marker-mid:none;marker-end:none;stroke-miterlimit:4;stroke-dasharray:none;stroke-dashoffset:0;stroke-opacity:1;visibility:visible;display:inline;overflow:visible;enable-background:accumulate;font-family:DejaVu LGC Sans;-inkscape-font-specification:DejaVu LGC Sans"
         x="273.21985"
         y="1051.5603"
         id="text4582"
         sodipodi:linespacing="125%"><tspan
           sodipodi:role="line"
           id="tspan4584"
           x="273.21985"
           y="1051.5603">A = 5mm</tspan></text>
      <g
         id="g4540"
         transform="matrix(1.000133,0,0,1.000133,-1.0449328e-3,-0.1399377)">
        <g
           transform="translate(106.49068,-45.938103)"
           id="g3396">
          <rect
             y="1090.0043"
             x="-98.080559"
             height="7.5649605"
             width="7.5649605"
             id="rect2614"
             style="opacity:1;fill:#ffdca7;fill-opacity:1;fill-rule:nonzero;stroke:#efa724;stroke-width:1.10551178;stroke-linecap:round;stroke-linejoin:round;marker:none;marker-start:none;marker-mid:none;marker-end:none;stroke-miterlimit:4;stroke-dasharray:none;stroke-dashoffset:0;stroke-opacity:1;visibility:visible;display:inline;overflow:visible;enable-background:accumulate" />
          <text
             sodipodi:linespacing="125%"
             id="text3386"
             y="1097.4269"
             x="-85.49704"
             style="font-size:10px;font-style:normal;font-variant:normal;font-weight:normal;font-stretch:normal;text-indent:0;text-align:start;text-decoration:none;line-height:125%;letter-spacing:normal;word-spacing:normal;text-transform:none;direction:ltr;block-progression:tb;writing-mode:lr-tb;text-anchor:start;opacity:1;fill:#fcaf3e;fill-opacity:1;fill-rule:nonzero;stroke:none;stroke-width:1px;stroke-linecap:butt;stroke-linejoin:miter;marker:none;marker-start:none;marker-mid:none;marker-end:none;stroke-miterlimit:4;stroke-dasharray:none;stroke-dashoffset:0;stroke-opacity:1;visibility:visible;display:inline;overflow:visible;enable-background:accumulate;font-family:DejaVu LGC Sans;-inkscape-font-specification:DejaVu LGC Sans"
             xml:space="preserve"><tspan
               y="1097.4269"
               x="-85.49704"
               id="tspan3388"
               sodipodi:role="line">PROTECTION AREA</tspan></text>
        </g>
        <g
           id="g3426"
           transform="translate(234.39258,-45.938103)">
          <rect
             style="opacity:1;fill:#ffb6b6;fill-opacity:1;fill-rule:nonzero;stroke:#cc0000;stroke-width:1.10551178;stroke-linecap:round;stroke-linejoin:round;marker:none;marker-start:none;marker-mid:none;marker-end:none;stroke-miterlimit:4;stroke-dasharray:none;stroke-dashoffset:0;stroke-opacity:1;visibility:visible;display:inline;overflow:visible;enable-background:accumulate"
             id="rect3428"
             width="7.5649605"
             height="7.5649605"
             x="-98.080559"
             y="1090.0043" />
          <text
             xml:space="preserve"
             style="font-size:10px;font-style:normal;font-variant:normal;font-weight:normal;font-stretch:normal;text-indent:0;text-align:start;text-decoration:none;line-height:125%;letter-spacing:normal;word-spacing:normal;text-transform:none;direction:ltr;block-progression:tb;writing-mode:lr-tb;text-anchor:start;opacity:1;fill:#cc0000;fill-opacity:1;fill-rule:nonzero;stroke:none;stroke-width:1px;stroke-linecap:butt;stroke-linejoin:miter;marker:none;marker-start:none;marker-mid:none;marker-end:none;stroke-miterlimit:4;stroke-dasharray:none;stroke-dashoffset:0;stroke-opacity:1;visibility:visible;display:inline;overflow:visible;enable-background:accumulate;font-family:DejaVu LGC Sans;-inkscape-font-specification:DejaVu LGC Sans"
             x="-85.49704"
             y="1097.4269"
             id="text3430"
             sodipodi:linespacing="125%"><tspan
               sodipodi:role="line"
               id="tspan3432"
               x="-85.49704"
               y="1097.4269">CONTENT AREA</tspan></text>
        </g>
      </g>
    </g>
    <rect
       inkscape:label="#rect12678"
       clip-path="none"
       y="928.87335"
       x="0.80967611"
       height="176.11119"
       width="335.56461"
       id="CENTOSARTWORK"
       style="fill:none;fill-opacity:0.95544553;stroke:#000000;stroke-width:1.05416262;stroke-linecap:round;stroke-linejoin:miter;stroke-miterlimit:4;stroke-dasharray:none;stroke-dashoffset:0;stroke-opacity:1;display:inline" />
    <g
       id="g3273"
       transform="matrix(0.9991009,0,0,0.999973,-16.080371,-17.201398)">
      <path
         id="use3265"
         d="M 34.713495,1086.4538 L 34.713495,1052.4777"
         style="fill:none;fill-rule:evenodd;stroke:#ffffff;stroke-width:1.20528269;stroke-linecap:square;stroke-linejoin:miter;stroke-miterlimit:4;stroke-dasharray:none;stroke-opacity:1" />
      <path
         style="fill:none;fill-rule:evenodd;stroke:#ffffff;stroke-width:1.20528269;stroke-linecap:square;stroke-linejoin:miter;stroke-miterlimit:4;stroke-dasharray:none;stroke-opacity:1"
         d="M 52.057616,1086.4538 L 52.057616,1052.4777"
         id="use3267" />
      <path
         id="use3269"
         d="M 51.845629,1069.4658 L 34.713495,1069.4658"
         style="fill:none;fill-rule:evenodd;stroke:#ffffff;stroke-width:1.20612359px;stroke-linecap:butt;stroke-linejoin:miter;stroke-opacity:1"
         sodipodi:nodetypes="cc" />
      <text
         xml:space="preserve"
         style="font-size:11.99444008px;font-style:normal;font-variant:normal;font-weight:normal;font-stretch:normal;text-indent:0;text-align:start;text-decoration:none;line-height:125%;letter-spacing:normal;word-spacing:normal;text-transform:none;direction:ltr;block-progression:tb;writing-mode:lr-tb;text-anchor:start;fill:#ffffff;fill-opacity:1;fill-rule:nonzero;stroke:none;stroke-width:1px;stroke-linecap:butt;stroke-linejoin:miter;marker:none;marker-start:none;marker-mid:none;marker-end:none;stroke-miterlimit:4;stroke-dasharray:none;stroke-dashoffset:0;stroke-opacity:1;visibility:visible;display:inline;overflow:visible;enable-background:accumulate;font-family:DejaVu LGC Sans;-inkscape-font-specification:DejaVu LGC Sans"
         x="39.304825"
         y="1086.583"
         id="use3271"
         sodipodi:linespacing="125%"
         transform="scale(0.9995638,1.0004363)"><tspan
           sodipodi:role="line"
           id="tspan2514"
           x="39.304825"
           y="1086.583">A</tspan></text>
    </g>
    <use
       x="0"
       y="0"
       xlink:href="#g3273"
       id="use4797"
       transform="translate(282.64743,0)"
       width="336.61877"
       height="177.16536" />
    <g
       id="use4566"
       transform="matrix(0.5856736,0,0,0.5856736,-150.91682,452.51242)">
      <g
         style="stroke-width:1.00374997;stroke-miterlimit:4;stroke-dasharray:none;display:inline"
         id="g2725"
         transform="matrix(1.3118802,0,0,-1.1676886,-660.09465,1303.52)">
        <path
           sodipodi:nodetypes="ccccc"
           id="path2727"
           d="M 745.95339,286.71791 L 745.95339,349.38998 L 747.61977,349.38998 L 747.61977,286.71791 L 745.95339,286.71791 z"
           style="fill:#0076d4;fill-opacity:1;fill-rule:evenodd;stroke:none;stroke-width:1.00374997;stroke-linecap:butt;stroke-linejoin:miter;stroke-miterlimit:4;stroke-dasharray:none;stroke-opacity:1" />
        <path
           id="path2729"
           d="M 746.78658,348.0695 L 742.38658,343.6695 L 746.78656,359.0695 L 751.18658,343.6695 L 746.78658,348.0695 z"
           style="fill:#ffffff;fill-opacity:1;fill-rule:evenodd;stroke:#0076d4;stroke-width:1.0034852;marker-start:none;stroke-miterlimit:4;stroke-dasharray:none;stroke-opacity:1" />
      </g>
      <g
         style="stroke-width:1.00374997;stroke-miterlimit:4;stroke-dasharray:none;display:inline"
         id="use2731"
         transform="matrix(0,1.3118802,1.1676886,0,-20.4273,-16.2867)">
        <path
           sodipodi:nodetypes="ccccc"
           id="path2749"
           d="M 745.95339,286.71791 L 745.95339,349.38998 L 747.61977,349.38998 L 747.61977,286.71791 L 745.95339,286.71791 z"
           style="fill:#0076d4;fill-opacity:1;fill-rule:evenodd;stroke:none;stroke-width:1.00374997;stroke-linecap:butt;stroke-linejoin:miter;stroke-miterlimit:4;stroke-dasharray:none;stroke-opacity:1" />
        <path
           id="path2751"
           d="M 746.78658,348.0695 L 742.38658,343.6695 L 746.78656,359.0695 L 751.18658,343.6695 L 746.78658,348.0695 z"
           style="fill:#ffffff;fill-opacity:1;fill-rule:evenodd;stroke:#0076d4;stroke-width:1.0034852;marker-start:none;stroke-miterlimit:4;stroke-dasharray:none;stroke-opacity:1" />
      </g>
      <path
         transform="matrix(2.6574803,0,0,2.6574803,-116.80624,788.67104)"
         d="M 166,65.752808 A 1.75,1.75 0 1 1 162.5,65.752808 A 1.75,1.75 0 1 1 166,65.752808 z"
         sodipodi:ry="1.75"
         sodipodi:rx="1.75"
         sodipodi:cy="65.752808"
         sodipodi:cx="164.25"
         id="path2733"
         style="fill:#ffffff;fill-opacity:1;stroke:#0076d4;stroke-width:0.5;stroke-linecap:square;stroke-miterlimit:4;stroke-dasharray:none;stroke-dashoffset:0;stroke-opacity:1;display:inline"
         sodipodi:type="arc" />
    </g>
  </g>
</svg>
