<?xml version="1.0" encoding="UTF-8" standalone="no"?>
<!-- Created with Inkscape (http://www.inkscape.org/) -->
<svg
   xmlns:dc="http://purl.org/dc/elements/1.1/"
   xmlns:cc="http://creativecommons.org/ns#"
   xmlns:rdf="http://www.w3.org/1999/02/22-rdf-syntax-ns#"
   xmlns:svg="http://www.w3.org/2000/svg"
   xmlns="http://www.w3.org/2000/svg"
   xmlns:xlink="http://www.w3.org/1999/xlink"
   xmlns:sodipodi="http://sodipodi.sourceforge.net/DTD/sodipodi-0.dtd"
   xmlns:inkscape="http://www.inkscape.org/namespaces/inkscape"
   width="779.52826"
   height="231.31493"
   id="svg3106"
   sodipodi:version="0.32"
   inkscape:version="0.46"
   sodipodi:docname="tmd.svg"
   inkscape:output_extension="org.inkscape.output.svg.inkscape"
   version="1.0">
  <defs
     id="defs3108" />
  <sodipodi:namedview
     id="base"
     pagecolor="#ffffff"
     bordercolor="#666666"
     borderopacity="1.0"
     gridtolerance="10000"
     guidetolerance="10"
     objecttolerance="10"
     inkscape:pageopacity="0.0"
     inkscape:pageshadow="2"
     inkscape:zoom="1.1737868"
     inkscape:cx="389.76413"
     inkscape:cy="115.65746"
     inkscape:document-units="mm"
     inkscape:current-layer="layer1"
     showgrid="false"
     inkscape:window-width="1360"
     inkscape:window-height="693"
     inkscape:window-x="0"
     inkscape:window-y="25"
     units="mm"
     showborder="false"
     inkscape:showpageshadow="false"
     showguides="true"
     inkscape:guide-bbox="true">
    <inkscape:grid
       type="xygrid"
       id="grid4233"
       visible="true"
       enabled="true"
       units="mm"
       spacingx="5mm"
       spacingy="5mm"
       color="#3886c7"
       opacity="0.1254902"
       empcolor="#3886c7"
       empopacity="0.24313725" />
  </sodipodi:namedview>
  <metadata
     id="CENTOSMETADATA">
    <rdf:RDF>
      <cc:Work
         rdf:about="">
        <dc:format>image/svg+xml</dc:format>
        <dc:type
           rdf:resource="http://purl.org/dc/dcmitype/StillImage" />
        <cc:license
           rdf:resource="http://creativecommons.org/licenses/by-sa/3.0/" />
        <dc:title>tmd.svg</dc:title>
        <dc:date>2011-08-01</dc:date>
        <dc:creator>
          <cc:Agent>
            <dc:title>The CentOS Project</dc:title>
          </cc:Agent>
        </dc:creator>
        <dc:rights>
          <cc:Agent>
            <dc:title>The CentOS Project</dc:title>
          </cc:Agent>
        </dc:rights>
        <dc:publisher>
          <cc:Agent>
            <dc:title>The CentOS Project</dc:title>
          </cc:Agent>
        </dc:publisher>
        <dc:identifier>https://projects.centos.org/svn/artwork/trunk/Identity/Models/Manuals/Brands/Types/tmd.svg</dc:identifier>
        <dc:source>https://projects.centos.org/svn/artwork/trunk/Identity/Models/Manuals/Brands/Types/tmd.svg</dc:source>
        <dc:relation>https://projects.centos.org/svn/artwork/trunk/Identity/Models/Manuals/Brands/Types/tmd.svg</dc:relation>
        <dc:language>en_US</dc:language>
        <dc:subject>
          <rdf:Bag>
            <rdf:li>Identity</rdf:li>
            <rdf:li>Models</rdf:li>
            <rdf:li>Manuals</rdf:li>
            <rdf:li>Brands</rdf:li>
            <rdf:li>Types</rdf:li>
          </rdf:Bag>
        </dc:subject>
        <dc:coverage>The CentOS Project</dc:coverage>
        <dc:description />
        <dc:contributor />
      </cc:Work>
      <cc:License
         rdf:about="http://creativecommons.org/licenses/by-sa/3.0/">
        <cc:permits
           rdf:resource="http://creativecommons.org/ns#Reproduction" />
        <cc:permits
           rdf:resource="http://creativecommons.org/ns#Distribution" />
        <cc:requires
           rdf:resource="http://creativecommons.org/ns#Notice" />
        <cc:requires
           rdf:resource="http://creativecommons.org/ns#Attribution" />
        <cc:permits
           rdf:resource="http://creativecommons.org/ns#DerivativeWorks" />
        <cc:requires
           rdf:resource="http://creativecommons.org/ns#ShareAlike" />
      </cc:License>
    </rdf:RDF>
  </metadata>
  <g
     inkscape:label="Layer 1"
     inkscape:groupmode="layer"
     id="layer1"
     transform="translate(-0.2741672,-879.59737)">
    <rect
       style="fill:#888888;fill-opacity:1;stroke:none;stroke-width:1;stroke-linecap:round;stroke-linejoin:miter;stroke-miterlimit:4;stroke-dasharray:none;stroke-dashoffset:0;stroke-opacity:0.08910893000000000;display:inline"
       id="CENTOSARTWORK"
       width="779.52759"
       height="230.31496"
       x="0.27416721"
       y="880.59735"
       clip-path="none"
       inkscape:label="#rect12678" />
    <g
       id="g11130"
       style="stroke:#ffffff;stroke-width:0.5;stroke-miterlimit:4;stroke-dasharray:none;stroke-opacity:0.19607843"
       transform="matrix(0.9997771,0,0,0.996751,-8.3800871e-2,1.5994093)">
      <path
         sodipodi:nodetypes="cc"
         id="path3685"
         d="M 18.435535,882.3718 L 18.435535,1112.6784"
         style="fill:none;fill-rule:evenodd;stroke:#ffffff;stroke-width:0.5;stroke-linecap:butt;stroke-linejoin:miter;stroke-miterlimit:4;stroke-dasharray:none;stroke-opacity:0.19607843;display:inline" />
      <path
         sodipodi:nodetypes="cc"
         style="fill:none;fill-rule:evenodd;stroke:#ffffff;stroke-width:0.5;stroke-linecap:butt;stroke-linejoin:miter;stroke-miterlimit:4;stroke-dasharray:none;stroke-opacity:0.19607843;display:inline"
         d="M 36.155931,882.3718 L 36.155931,1112.6784"
         id="path3687" />
      <path
         sodipodi:nodetypes="cc"
         id="path3689"
         d="M 53.876327,882.3718 L 53.876327,1112.6784"
         style="fill:none;fill-rule:evenodd;stroke:#ffffff;stroke-width:0.5;stroke-linecap:butt;stroke-linejoin:miter;stroke-miterlimit:4;stroke-dasharray:none;stroke-opacity:0.19607843;display:inline" />
      <path
         sodipodi:nodetypes="cc"
         style="fill:none;fill-rule:evenodd;stroke:#ffffff;stroke-width:0.5;stroke-linecap:butt;stroke-linejoin:miter;stroke-miterlimit:4;stroke-dasharray:none;stroke-opacity:0.19607843;display:inline"
         d="M 71.596724,882.3718 L 71.596724,1112.6784"
         id="path3691" />
      <path
         sodipodi:nodetypes="cc"
         id="path3693"
         d="M 89.317119,882.3718 L 89.317119,1112.6784"
         style="fill:none;fill-rule:evenodd;stroke:#ffffff;stroke-width:0.5;stroke-linecap:butt;stroke-linejoin:miter;stroke-miterlimit:4;stroke-dasharray:none;stroke-opacity:0.19607843;display:inline" />
      <path
         sodipodi:nodetypes="cc"
         style="fill:none;fill-rule:evenodd;stroke:#ffffff;stroke-width:0.5;stroke-linecap:butt;stroke-linejoin:miter;stroke-miterlimit:4;stroke-dasharray:none;stroke-opacity:0.19607843;display:inline"
         d="M 107.03752,882.3718 L 107.03752,1112.6784"
         id="path3695" />
      <path
         id="path3697"
         d="M 124.75791,882.3718 L 124.75791,1112.6784"
         style="fill:none;fill-rule:evenodd;stroke:#ffffff;stroke-width:0.5;stroke-linecap:butt;stroke-linejoin:miter;stroke-miterlimit:4;stroke-dasharray:none;stroke-opacity:0.19607843;display:inline"
         sodipodi:nodetypes="cc" />
      <path
         style="fill:none;fill-rule:evenodd;stroke:#ffffff;stroke-width:0.5;stroke-linecap:butt;stroke-linejoin:miter;stroke-miterlimit:4;stroke-dasharray:none;stroke-opacity:0.19607843;display:inline"
         d="M 142.47831,882.3718 L 142.47831,1112.6784"
         id="path3699"
         sodipodi:nodetypes="cc" />
      <path
         id="path3701"
         d="M 160.1987,882.3718 L 160.1987,1112.6784"
         style="fill:none;fill-rule:evenodd;stroke:#ffffff;stroke-width:0.5;stroke-linecap:butt;stroke-linejoin:miter;stroke-miterlimit:4;stroke-dasharray:none;stroke-opacity:0.19607843;display:inline"
         sodipodi:nodetypes="cc" />
      <path
         style="fill:none;fill-rule:evenodd;stroke:#ffffff;stroke-width:0.5;stroke-linecap:butt;stroke-linejoin:miter;stroke-miterlimit:4;stroke-dasharray:none;stroke-opacity:0.19607843;display:inline"
         d="M 177.91911,882.3718 L 177.91911,1112.6784"
         id="path3703"
         sodipodi:nodetypes="cc" />
      <path
         id="path3705"
         d="M 195.63949,882.3718 L 195.63949,1112.6784"
         style="fill:none;fill-rule:evenodd;stroke:#ffffff;stroke-width:0.5;stroke-linecap:butt;stroke-linejoin:miter;stroke-miterlimit:4;stroke-dasharray:none;stroke-opacity:0.19607843;display:inline"
         sodipodi:nodetypes="cc" />
      <path
         style="fill:none;fill-rule:evenodd;stroke:#ffffff;stroke-width:0.5;stroke-linecap:butt;stroke-linejoin:miter;stroke-miterlimit:4;stroke-dasharray:none;stroke-opacity:0.19607843;display:inline"
         d="M 213.3599,882.3718 L 213.3599,1112.6784"
         id="path3707"
         sodipodi:nodetypes="cc" />
      <path
         id="path3709"
         d="M 231.08029,882.3718 L 231.08029,1112.6784"
         style="fill:none;fill-rule:evenodd;stroke:#ffffff;stroke-width:0.5;stroke-linecap:butt;stroke-linejoin:miter;stroke-miterlimit:4;stroke-dasharray:none;stroke-opacity:0.19607843;display:inline"
         sodipodi:nodetypes="cc" />
      <path
         style="fill:none;fill-rule:evenodd;stroke:#ffffff;stroke-width:0.5;stroke-linecap:butt;stroke-linejoin:miter;stroke-miterlimit:4;stroke-dasharray:none;stroke-opacity:0.19607843;display:inline"
         d="M 284.24148,882.3718 L 284.24148,1112.6784"
         id="path3711"
         sodipodi:nodetypes="cc" />
      <path
         sodipodi:nodetypes="cc"
         id="path3713"
         d="M 266.52108,882.3718 L 266.52108,1112.6784"
         style="fill:none;fill-rule:evenodd;stroke:#ffffff;stroke-width:0.5;stroke-linecap:butt;stroke-linejoin:miter;stroke-miterlimit:4;stroke-dasharray:none;stroke-opacity:0.19607843;display:inline" />
      <path
         sodipodi:nodetypes="cc"
         style="fill:none;fill-rule:evenodd;stroke:#ffffff;stroke-width:0.49994376;stroke-linecap:square;stroke-linejoin:miter;stroke-miterlimit:4;stroke-dasharray:none;stroke-opacity:0.19607843;display:inline"
         d="M 0.60799562,1023.8457 L 779.81015,1023.8457"
         id="path3719" />
      <path
         id="path3721"
         d="M 0.60799562,1006.1292 L 779.81015,1006.1292"
         style="fill:none;fill-rule:evenodd;stroke:#ffffff;stroke-width:0.49994376;stroke-linecap:square;stroke-linejoin:miter;stroke-miterlimit:4;stroke-dasharray:none;stroke-opacity:0.19607843;display:inline"
         sodipodi:nodetypes="cc" />
      <path
         sodipodi:nodetypes="cc"
         style="fill:none;fill-rule:evenodd;stroke:#ffffff;stroke-width:0.49994376;stroke-linecap:square;stroke-linejoin:miter;stroke-miterlimit:4;stroke-dasharray:none;stroke-opacity:0.19607843;display:inline"
         d="M 0.60926867,988.41266 L 779.81015,988.41266"
         id="path3723" />
      <path
         id="path3725"
         d="M 0.88020753,970.69612 L 779.81015,970.69612"
         style="fill:none;fill-rule:evenodd;stroke:#ffffff;stroke-width:0.49994376;stroke-linecap:square;stroke-linejoin:miter;stroke-miterlimit:4;stroke-dasharray:none;stroke-opacity:0.19607843;display:inline"
         sodipodi:nodetypes="cc" />
      <path
         sodipodi:nodetypes="cc"
         style="fill:none;fill-rule:evenodd;stroke:#ffffff;stroke-width:0.49994376;stroke-linecap:square;stroke-linejoin:miter;stroke-miterlimit:4;stroke-dasharray:none;stroke-opacity:0.19607843;display:inline"
         d="M 0.92515902,952.97959 L 779.81015,952.97959"
         id="path3727" />
      <path
         id="path3729"
         d="M 0.88020753,935.26305 L 779.81015,935.26305"
         style="fill:none;fill-rule:evenodd;stroke:#ffffff;stroke-width:0.49994376;stroke-linecap:square;stroke-linejoin:miter;stroke-miterlimit:4;stroke-dasharray:none;stroke-opacity:0.19607843;display:inline"
         sodipodi:nodetypes="cc" />
      <path
         style="fill:none;fill-rule:evenodd;stroke:#ffffff;stroke-width:0.5;stroke-linecap:butt;stroke-linejoin:miter;stroke-miterlimit:4;stroke-dasharray:none;stroke-opacity:0.19607843;display:inline"
         d="M 248.80069,882.3718 L 248.80069,1112.6784"
         id="path3785"
         sodipodi:nodetypes="cc" />
      <path
         sodipodi:nodetypes="cc"
         id="path3787"
         d="M 301.96187,882.3718 L 301.96187,1112.6784"
         style="fill:none;fill-rule:evenodd;stroke:#ffffff;stroke-width:0.5;stroke-linecap:butt;stroke-linejoin:miter;stroke-miterlimit:4;stroke-dasharray:none;stroke-opacity:0.19607843;display:inline" />
      <path
         style="fill:none;fill-rule:evenodd;stroke:#ffffff;stroke-width:0.5;stroke-linecap:butt;stroke-linejoin:miter;stroke-miterlimit:4;stroke-dasharray:none;stroke-opacity:0.19607843;display:inline"
         d="M 319.68227,882.3718 L 319.68227,1112.6784"
         id="path3789"
         sodipodi:nodetypes="cc" />
      <path
         sodipodi:nodetypes="cc"
         id="path3791"
         d="M 337.40267,882.3718 L 337.40267,1112.6784"
         style="fill:none;fill-rule:evenodd;stroke:#ffffff;stroke-width:0.5;stroke-linecap:butt;stroke-linejoin:miter;stroke-miterlimit:4;stroke-dasharray:none;stroke-opacity:0.19607843;display:inline" />
      <path
         style="fill:none;fill-rule:evenodd;stroke:#ffffff;stroke-width:0.5;stroke-linecap:butt;stroke-linejoin:miter;stroke-miterlimit:4;stroke-dasharray:none;stroke-opacity:0.19607843;display:inline"
         d="M 355.12306,882.3718 L 355.12306,1112.6784"
         id="path3793"
         sodipodi:nodetypes="cc" />
      <path
         sodipodi:nodetypes="cc"
         style="fill:none;fill-rule:evenodd;stroke:#ffffff;stroke-width:0.49994376;stroke-linecap:square;stroke-linejoin:miter;stroke-miterlimit:4;stroke-dasharray:none;stroke-opacity:0.19607843;display:inline"
         d="M 0.88104221,917.54652 L 779.81015,917.54652"
         id="path6619" />
      <path
         id="path6621"
         d="M 0.88104221,899.82998 L 779.81015,899.82998"
         style="fill:none;fill-rule:evenodd;stroke:#ffffff;stroke-width:0.49994376;stroke-linecap:square;stroke-linejoin:miter;stroke-miterlimit:4;stroke-dasharray:none;stroke-opacity:0.19607843;display:inline"
         sodipodi:nodetypes="cc" />
      <path
         sodipodi:nodetypes="cc"
         id="path4235"
         d="M 372.84346,882.3718 L 372.84346,1112.6784"
         style="fill:none;fill-rule:evenodd;stroke:#ffffff;stroke-width:0.5;stroke-linecap:butt;stroke-linejoin:miter;stroke-miterlimit:4;stroke-dasharray:none;stroke-opacity:0.19607843;display:inline" />
      <path
         style="fill:none;fill-rule:evenodd;stroke:#ffffff;stroke-width:0.5;stroke-linecap:butt;stroke-linejoin:miter;stroke-miterlimit:4;stroke-dasharray:none;stroke-opacity:0.19607843;display:inline"
         d="M 390.56385,882.3718 L 390.56385,1112.6784"
         id="path4237"
         sodipodi:nodetypes="cc" />
      <path
         sodipodi:nodetypes="cc"
         id="path4239"
         d="M 408.28426,882.3718 L 408.28426,1112.6784"
         style="fill:none;fill-rule:evenodd;stroke:#ffffff;stroke-width:0.5;stroke-linecap:butt;stroke-linejoin:miter;stroke-miterlimit:4;stroke-dasharray:none;stroke-opacity:0.19607843;display:inline" />
      <path
         style="fill:none;fill-rule:evenodd;stroke:#ffffff;stroke-width:0.5;stroke-linecap:butt;stroke-linejoin:miter;stroke-miterlimit:4;stroke-dasharray:none;stroke-opacity:0.19607843;display:inline"
         d="M 426.00465,882.3718 L 426.00465,1112.6784"
         id="path5011"
         sodipodi:nodetypes="cc" />
      <path
         id="path9589"
         d="M 0.88104221,882.11344 L 779.81015,882.11344"
         style="fill:none;fill-rule:evenodd;stroke:#ffffff;stroke-width:0.49994376;stroke-linecap:square;stroke-linejoin:miter;stroke-miterlimit:4;stroke-dasharray:none;stroke-opacity:0.19607843;display:inline"
         sodipodi:nodetypes="cc" />
      <path
         sodipodi:nodetypes="cc"
         id="path10273"
         d="M 443.44598,882.3718 L 443.44598,1112.6784"
         style="fill:none;fill-rule:evenodd;stroke:#ffffff;stroke-width:0.5;stroke-linecap:butt;stroke-linejoin:miter;stroke-miterlimit:4;stroke-dasharray:none;stroke-opacity:0.19607843;display:inline" />
      <path
         style="fill:none;fill-rule:evenodd;stroke:#ffffff;stroke-width:0.5;stroke-linecap:butt;stroke-linejoin:miter;stroke-miterlimit:4;stroke-dasharray:none;stroke-opacity:0.19607843;display:inline"
         d="M 461.16252,882.3718 L 461.16252,1112.6784"
         id="path3598"
         sodipodi:nodetypes="cc" />
      <use
         x="0"
         y="0"
         xlink:href="#path3598"
         id="use4269"
         transform="translate(17.716532,0)"
         width="779.52759"
         height="290.55118" />
      <use
         x="0"
         y="0"
         xlink:href="#use4269"
         id="use4271"
         transform="translate(17.716535,0)"
         width="779.52759"
         height="290.55118" />
      <use
         x="0"
         y="0"
         xlink:href="#use4271"
         id="use4273"
         transform="translate(17.716535,0)"
         width="779.52759"
         height="290.55118" />
      <use
         x="0"
         y="0"
         xlink:href="#use4273"
         id="use4275"
         transform="translate(17.716536,0)"
         width="779.52759"
         height="290.55118" />
      <use
         x="0"
         y="0"
         xlink:href="#use4275"
         id="use4277"
         transform="translate(17.716535,0)"
         width="779.52759"
         height="290.55118" />
      <use
         x="0"
         y="0"
         xlink:href="#use4277"
         id="use4279"
         transform="translate(17.716536,0)"
         width="779.52759"
         height="290.55118" />
      <use
         x="0"
         y="0"
         xlink:href="#use4279"
         id="use4281"
         transform="translate(17.716535,0)"
         width="779.52759"
         height="290.55118" />
      <use
         x="0"
         y="0"
         xlink:href="#use4281"
         id="use4283"
         transform="translate(17.716536,0)"
         width="779.52759"
         height="290.55118" />
      <use
         x="0"
         y="0"
         xlink:href="#use4283"
         id="use4285"
         transform="translate(17.716535,0)"
         width="779.52759"
         height="290.55118" />
      <use
         x="0"
         y="0"
         xlink:href="#use4285"
         id="use4287"
         transform="translate(17.716535,0)"
         width="779.52759"
         height="290.55118" />
      <use
         x="0"
         y="0"
         xlink:href="#use4287"
         id="use4289"
         transform="translate(17.716536,0)"
         width="779.52759"
         height="290.55118" />
      <use
         x="0"
         y="0"
         xlink:href="#use4289"
         id="use4291"
         transform="translate(17.716535,0)"
         width="779.52759"
         height="290.55118" />
      <use
         x="0"
         y="0"
         xlink:href="#use4291"
         id="use4293"
         transform="translate(17.716536,0)"
         width="779.52759"
         height="290.55118" />
      <use
         x="0"
         y="0"
         xlink:href="#use4293"
         id="use4295"
         transform="translate(17.716535,0)"
         width="779.52759"
         height="290.55118" />
      <use
         x="0"
         y="0"
         xlink:href="#use4295"
         id="use4297"
         transform="translate(17.716536,0)"
         width="779.52759"
         height="290.55118" />
      <use
         x="0"
         y="0"
         xlink:href="#use4297"
         id="use4299"
         transform="translate(17.716535,0)"
         width="779.52759"
         height="290.55118" />
      <use
         x="0"
         y="0"
         xlink:href="#use4299"
         id="use4301"
         width="779.52759"
         height="290.55118"
         transform="translate(17.716535,0)" />
      <use
         x="0"
         y="0"
         xlink:href="#path3719"
         id="use4303"
         transform="translate(0,17.716535)"
         width="779.52759"
         height="290.55118" />
      <use
         x="0"
         y="0"
         xlink:href="#use4303"
         id="use4305"
         transform="translate(0,17.716536)"
         width="779.52759"
         height="290.55118" />
      <use
         x="0"
         y="0"
         xlink:href="#use4305"
         id="use4307"
         transform="translate(0,17.716535)"
         width="779.52759"
         height="290.55118" />
      <use
         x="0"
         y="0"
         xlink:href="#use4307"
         id="use4309"
         transform="translate(0,17.716536)"
         width="779.52759"
         height="290.55118" />
    </g>
    <rect
       y="898.80969"
       x="18.490704"
       height="140.73647"
       width="743.09869"
       id="rect5058"
       style="opacity:1;fill:#efa724;fill-opacity:0.1372549;stroke:#efa724;stroke-width:1;stroke-linecap:round;stroke-linejoin:miter;stroke-miterlimit:4;stroke-dasharray:none;stroke-opacity:1" />
    <rect
       style="opacity:1;fill:#cc0000;fill-opacity:0.1372549;stroke:#cc0000;stroke-width:1;stroke-linecap:round;stroke-linejoin:miter;stroke-miterlimit:4;stroke-dasharray:none;stroke-opacity:1"
       id="rect14283"
       width="265.24805"
       height="52.651711"
       x="35.963383"
       y="916.02216" />
    <path
       style="font-size:72.70556641px;font-style:normal;font-variant:normal;font-weight:200;font-stretch:normal;text-align:start;line-height:125%;writing-mode:lr-tb;text-anchor:start;fill:#fffdf5;fill-opacity:1;stroke:none;stroke-width:1;stroke-linecap:butt;stroke-linejoin:miter;stroke-miterlimit:4;stroke-opacity:1;display:inline;font-family:Denmark;-inkscape-font-specification:Denmark Ultra-Light"
       clip-path="none"
       d="M 78.207013,968.04293 L 55.956896,968.04293 C 53.700661,968.04293 51.468451,967.72481 49.260259,967.08859 C 44.987841,965.76719 41.603522,962.73287 39.107292,957.98562 C 36.851075,953.67885 35.722968,948.66243 35.722971,942.93635 C 35.722968,937.40607 36.731063,932.51201 38.747258,928.25413 C 40.955461,923.55587 44.099757,920.35026 48.180156,918.63728 C 51.348439,917.31593 54.588745,916.65525 57.901081,916.65518 L 78.063,916.65518 L 78.063,926.49227 L 57.109006,926.49227 C 53.700661,926.49231 51.228429,928.37653 49.692299,932.14492 C 48.492171,935.08139 47.892114,938.92324 47.892128,943.67046 C 47.892114,947.68361 48.660186,951.08499 50.196347,953.8746 C 51.972499,957.15363 54.468733,958.79315 57.68506,958.79314 L 78.207013,958.71972 L 78.207013,968.04293 M 115.26354,968.26316 L 97.693867,968.26316 C 93.421447,968.26316 89.701097,966.40342 86.532805,962.68392 C 83.412505,958.91549 81.852358,954.58425 81.85236,949.69017 C 81.852358,944.35565 83.556519,939.75523 86.964846,935.88888 C 90.421165,931.97367 94.261526,930.01604 98.485938,930.016 L 115.19153,930.016 L 115.19153,937.87098 L 102.95037,937.87098 C 101.4142,937.87101 100.09407,938.01783 98.989988,938.31145 C 97.933868,938.55619 96.949779,939.07006 96.03771,939.85308 C 94.357535,941.32133 93.517456,943.30343 93.51747,945.79937 L 115.11952,945.79937 L 115.11952,953.72778 L 93.589476,953.72778 C 93.589462,954.90237 93.709474,955.90565 93.949511,956.73762 C 94.237524,957.52069 94.789576,958.32821 95.605668,959.16019 C 96.42173,959.94325 97.381819,960.4816 98.485938,960.77523 C 99.638038,961.01995 101.03017,961.14229 102.66234,961.14229 L 115.26354,961.14229 L 115.26354,968.26316 M 156.32544,968.04293 L 146.3165,968.04293 L 146.3165,943.00976 C 146.31647,942.37355 146.17245,941.81073 145.88446,941.3213 C 145.5964,940.78299 145.18836,940.26911 144.66034,939.77967 C 143.70022,938.94771 142.59612,938.53171 141.34803,938.53168 L 131.55509,938.53168 L 131.55509,968.04293 L 121.54614,968.04293 L 121.54614,930.016 L 140.69996,930.016 C 144.10826,930.01604 146.58049,930.21181 148.11667,930.60329 C 150.51687,931.19061 152.43704,932.48755 153.87721,934.49408 C 155.50933,936.84326 156.32541,939.41265 156.32544,942.20224 L 156.32544,968.04293 M 185.07193,937.9444 L 175.35101,937.9444 L 175.35101,955.196 C 175.35099,956.76211 175.87905,958.05903 176.93516,959.08678 C 178.13525,960.11455 179.7194,960.62842 181.68761,960.62841 L 184.6399,960.62841 L 184.6399,968.04293 L 175.35101,968.04293 C 172.56673,968.04293 170.1905,967.01517 168.22233,964.95967 C 167.07021,963.73615 166.32614,962.39029 165.99012,960.92206 C 165.65408,959.45385 165.48606,957.71645 165.48607,955.70988 L 165.48607,937.9444 L 159.14947,937.9444 L 159.14947,930.016 L 165.48607,930.016 L 165.48607,916.65518 L 175.35101,916.65518 L 175.35101,930.016 L 185.07193,930.016 L 185.07193,937.9444 M 243.8329,942.27565 C 243.83284,952.25957 241.12059,959.40491 235.69612,963.71167 C 231.27966,967.18647 224.84706,968.92386 216.39829,968.92386 C 207.03737,968.92386 200.12473,966.91729 195.66031,962.90415 C 190.76384,958.4995 188.31561,951.42757 188.31562,941.68836 C 188.31561,933.71106 190.49981,927.49559 194.86824,923.04195 C 199.62068,918.19687 206.72535,915.77431 216.18227,915.77426 C 226.59922,915.77431 233.94391,918.09899 238.21636,922.74831 C 241.96067,926.85937 243.83284,933.36847 243.8329,942.27565 M 231.01568,941.982 C 231.01563,936.94115 229.83952,932.92801 227.48735,929.94259 C 224.84706,926.61467 220.93468,924.95069 215.75023,924.95063 C 210.66171,924.95069 206.82136,926.73701 204.22913,930.30965 C 202.0689,933.29507 200.9888,937.18585 200.98882,941.982 C 200.9888,947.51233 201.85289,951.59887 203.58107,954.24165 C 205.98128,957.91221 210.42169,959.74749 216.90234,959.74748 C 222.37482,959.74749 226.21518,957.96115 228.42343,954.38848 C 230.15156,951.59887 231.01563,947.46339 231.01568,941.982 M 301.47102,952.11273 C 301.47096,956.61529 300.00682,960.40819 297.0786,963.49145 C 294.15027,966.57471 290.42992,968.11634 285.91753,968.11634 L 250.27415,968.04293 L 250.27415,958.79314 L 279.65294,958.79314 C 281.62109,958.79315 283.27725,958.32821 284.62141,957.39832 C 286.15751,956.32165 286.92559,954.85343 286.92563,952.99366 C 286.92559,948.63796 283.90131,946.4601 277.85277,946.46007 L 263.01935,946.46007 C 258.74694,946.4601 255.00258,945.11423 251.78629,942.42247 C 248.56998,939.73076 246.96183,936.30491 246.96183,932.14492 C 246.96183,927.54453 248.52198,923.82505 251.64228,920.98644 C 254.81057,918.09899 258.96296,916.65525 264.09946,916.65518 L 298.1587,916.65518 L 298.1587,925.46451 L 268.13185,925.46451 C 266.7877,925.46455 265.41956,926.05185 264.02745,927.22639 C 262.68331,928.35205 262.01125,929.69793 262.01127,931.26399 C 262.01125,933.02589 262.65931,934.51858 263.95545,935.74206 C 265.29956,936.91667 266.9077,937.50396 268.77991,937.50393 L 285.12546,937.50393 C 290.2139,937.50396 294.19827,938.84983 297.0786,941.54154 C 300.00682,944.18436 301.47096,947.70809 301.47102,952.11273"
       id="text5083" />
    <rect
       style="fill:none;fill-opacity:1;stroke:#000000;stroke-width:0.99996752;stroke-linecap:round;stroke-linejoin:miter;stroke-miterlimit:4;stroke-dasharray:none;stroke-dashoffset:0;stroke-opacity:1;display:inline"
       id="rect2443"
       width="778.52832"
       height="230.31496"
       x="0.77415091"
       y="880.09735"
       clip-path="none"
       inkscape:label="#rect12678" />
    <g
       id="g3976"
       transform="matrix(0.9979155,0,0,1,-6.61904e-3,54.197)">
      <path
         sodipodi:nodetypes="ccccc"
         id="rect4586"
         d="M 0.2825948,1038.9988 C 0.2825948,1038.9988 781.43847,1038.9988 781.43847,1038.9988 C 781.43847,1038.9988 781.43847,1056.7153 781.43847,1056.7153 C 781.43847,1056.7153 0.2825948,1056.7153 0.2825948,1056.7153 C 0.2825948,1056.7153 0.2825948,1038.9988 0.2825948,1038.9988 z"
         style="fill:#000000;fill-opacity:1;fill-rule:nonzero;stroke:none;stroke-width:1.00000095;stroke-linecap:round;stroke-linejoin:round;marker:none;marker-start:none;marker-mid:none;marker-end:none;stroke-miterlimit:4;stroke-dashoffset:0;stroke-opacity:1;visibility:visible;display:inline;overflow:visible;enable-background:accumulate" />
      <text
         transform="scale(0.9995648,1.0004354)"
         xml:space="preserve"
         style="font-size:11.66189194px;font-style:normal;font-variant:normal;font-weight:normal;font-stretch:normal;text-indent:0;text-align:start;text-decoration:none;line-height:125%;letter-spacing:normal;word-spacing:normal;text-transform:none;direction:ltr;block-progression:tb;writing-mode:lr-tb;text-anchor:start;fill:#eeeeee;fill-opacity:1;fill-rule:nonzero;stroke:none;stroke-width:1px;stroke-linecap:butt;stroke-linejoin:miter;marker:none;marker-start:none;marker-mid:none;marker-end:none;stroke-miterlimit:4;stroke-dasharray:none;stroke-dashoffset:0;stroke-opacity:1;visibility:visible;display:inline;overflow:visible;enable-background:accumulate;font-family:DejaVu LGC Sans;-inkscape-font-specification:DejaVu LGC Sans"
         x="717.42419"
         y="1051.5603"
         id="text4582"
         sodipodi:linespacing="125%"><tspan
           sodipodi:role="line"
           id="tspan4584"
           x="717.42419"
           y="1051.5603">A = 5mm</tspan></text>
      <g
         id="g4540"
         transform="matrix(1.000133,0,0,1.000133,-1.0449328e-3,-0.1399377)">
        <g
           transform="translate(106.49068,-45.938103)"
           id="g3396">
          <rect
             y="1090.0043"
             x="-98.080559"
             height="7.5649605"
             width="7.5649605"
             id="rect2614"
             style="opacity:1;fill:#ffdca7;fill-opacity:1;fill-rule:nonzero;stroke:#efa724;stroke-width:1.10551178;stroke-linecap:round;stroke-linejoin:round;marker:none;marker-start:none;marker-mid:none;marker-end:none;stroke-miterlimit:4;stroke-dasharray:none;stroke-dashoffset:0;stroke-opacity:1;visibility:visible;display:inline;overflow:visible;enable-background:accumulate" />
          <text
             sodipodi:linespacing="125%"
             id="text3386"
             y="1097.4269"
             x="-85.49704"
             style="font-size:10px;font-style:normal;font-variant:normal;font-weight:normal;font-stretch:normal;text-indent:0;text-align:start;text-decoration:none;line-height:125%;letter-spacing:normal;word-spacing:normal;text-transform:none;direction:ltr;block-progression:tb;writing-mode:lr-tb;text-anchor:start;opacity:1;fill:#fcaf3e;fill-opacity:1;fill-rule:nonzero;stroke:none;stroke-width:1px;stroke-linecap:butt;stroke-linejoin:miter;marker:none;marker-start:none;marker-mid:none;marker-end:none;stroke-miterlimit:4;stroke-dasharray:none;stroke-dashoffset:0;stroke-opacity:1;visibility:visible;display:inline;overflow:visible;enable-background:accumulate;font-family:DejaVu LGC Sans;-inkscape-font-specification:DejaVu LGC Sans"
             xml:space="preserve"><tspan
               y="1097.4269"
               x="-85.49704"
               id="tspan3388"
               sodipodi:role="line">PROTECTION AREA</tspan></text>
        </g>
        <g
           id="g3426"
           transform="translate(234.39258,-45.938103)">
          <rect
             style="opacity:1;fill:#ffb6b6;fill-opacity:1;fill-rule:nonzero;stroke:#cc0000;stroke-width:1.10551178;stroke-linecap:round;stroke-linejoin:round;marker:none;marker-start:none;marker-mid:none;marker-end:none;stroke-miterlimit:4;stroke-dasharray:none;stroke-dashoffset:0;stroke-opacity:1;visibility:visible;display:inline;overflow:visible;enable-background:accumulate"
             id="rect3428"
             width="7.5649605"
             height="7.5649605"
             x="-98.080559"
             y="1090.0043" />
          <text
             xml:space="preserve"
             style="font-size:10px;font-style:normal;font-variant:normal;font-weight:normal;font-stretch:normal;text-indent:0;text-align:start;text-decoration:none;line-height:125%;letter-spacing:normal;word-spacing:normal;text-transform:none;direction:ltr;block-progression:tb;writing-mode:lr-tb;text-anchor:start;opacity:1;fill:#cc0000;fill-opacity:1;fill-rule:nonzero;stroke:none;stroke-width:1px;stroke-linecap:butt;stroke-linejoin:miter;marker:none;marker-start:none;marker-mid:none;marker-end:none;stroke-miterlimit:4;stroke-dasharray:none;stroke-dashoffset:0;stroke-opacity:1;visibility:visible;display:inline;overflow:visible;enable-background:accumulate;font-family:DejaVu LGC Sans;-inkscape-font-specification:DejaVu LGC Sans"
             x="-85.49704"
             y="1097.4269"
             id="text3430"
             sodipodi:linespacing="125%"><tspan
               sodipodi:role="line"
               id="tspan3432"
               x="-85.49704"
               y="1097.4269">CONTENT AREA</tspan></text>
        </g>
      </g>
    </g>
    <g
       id="g3273"
       transform="matrix(0.9991009,0,0,0.999973,-16.082653,-11.55467)">
      <path
         id="use3265"
         d="M 34.713495,1086.4538 L 34.713495,1052.4777"
         style="fill:none;fill-rule:evenodd;stroke:#ffffff;stroke-width:1.20528269;stroke-linecap:square;stroke-linejoin:miter;stroke-miterlimit:4;stroke-dasharray:none;stroke-opacity:1" />
      <path
         style="fill:none;fill-rule:evenodd;stroke:#ffffff;stroke-width:1.20528269;stroke-linecap:square;stroke-linejoin:miter;stroke-miterlimit:4;stroke-dasharray:none;stroke-opacity:1"
         d="M 52.057616,1086.4538 L 52.057616,1052.4777"
         id="use3267" />
      <path
         id="use3269"
         d="M 51.845629,1069.4658 L 34.713495,1069.4658"
         style="fill:none;fill-rule:evenodd;stroke:#ffffff;stroke-width:1.20612359px;stroke-linecap:butt;stroke-linejoin:miter;stroke-opacity:1"
         sodipodi:nodetypes="cc" />
      <text
         xml:space="preserve"
         style="font-size:11.99444008px;font-style:normal;font-variant:normal;font-weight:normal;font-stretch:normal;text-indent:0;text-align:start;text-decoration:none;line-height:125%;letter-spacing:normal;word-spacing:normal;text-transform:none;direction:ltr;block-progression:tb;writing-mode:lr-tb;text-anchor:start;fill:#ffffff;fill-opacity:1;fill-rule:nonzero;stroke:none;stroke-width:1px;stroke-linecap:butt;stroke-linejoin:miter;marker:none;marker-start:none;marker-mid:none;marker-end:none;stroke-miterlimit:4;stroke-dasharray:none;stroke-dashoffset:0;stroke-opacity:1;visibility:visible;display:inline;overflow:visible;enable-background:accumulate;font-family:DejaVu LGC Sans;-inkscape-font-specification:DejaVu LGC Sans"
         x="39.304825"
         y="1086.583"
         id="use3271"
         sodipodi:linespacing="125%"
         transform="scale(0.9995638,1.0004363)"><tspan
           sodipodi:role="line"
           id="tspan2514"
           x="39.304825"
           y="1086.583">A</tspan></text>
    </g>
    <g
       id="g4518"
       transform="translate(166.82958,38.814333)">
      <path
         style="fill:none;fill-rule:evenodd;stroke:#ffffff;stroke-width:1.20556498px;stroke-linecap:square;stroke-linejoin:miter;stroke-opacity:1"
         d="M 135.23463,1036.0559 L 135.23463,1002.0807"
         id="path2518" />
      <path
         id="path2520"
         d="M 152.93523,1036.0559 L 152.93523,1002.0807"
         style="fill:none;fill-rule:evenodd;stroke:#ffffff;stroke-width:1.20556498px;stroke-linecap:square;stroke-linejoin:miter;stroke-opacity:1" />
      <path
         sodipodi:nodetypes="cc"
         style="fill:none;fill-rule:evenodd;stroke:#ffffff;stroke-width:1.20556498px;stroke-linecap:butt;stroke-linejoin:miter;stroke-opacity:1"
         d="M 170.31774,1019.0684 L 135.87268,1019.0684"
         id="path2522" />
      <text
         transform="scale(0.9991279,1.0008729)"
         sodipodi:linespacing="125%"
         id="text2524"
         y="1035.7546"
         x="140.11295"
         style="font-size:11.98888588px;font-style:normal;font-variant:normal;font-weight:normal;font-stretch:normal;text-indent:0;text-align:start;text-decoration:none;line-height:125%;letter-spacing:normal;word-spacing:normal;text-transform:none;direction:ltr;block-progression:tb;writing-mode:lr-tb;text-anchor:start;fill:#ffffff;fill-opacity:1;fill-rule:nonzero;stroke:none;stroke-width:1px;stroke-linecap:butt;stroke-linejoin:miter;marker:none;marker-start:none;marker-mid:none;marker-end:none;stroke-miterlimit:4;stroke-dasharray:none;stroke-dashoffset:0;stroke-opacity:1;visibility:visible;display:inline;overflow:visible;enable-background:accumulate;font-family:DejaVu LGC Sans;-inkscape-font-specification:DejaVu LGC Sans"
         xml:space="preserve"><tspan
           y="1035.7546"
           x="140.11295"
           id="tspan2526"
           sodipodi:role="line">A</tspan></text>
      <path
         style="fill:none;fill-rule:evenodd;stroke:#ffffff;stroke-width:1.20556498px;stroke-linecap:square;stroke-linejoin:miter;stroke-opacity:1"
         d="M 170.63584,1036.0559 L 170.63584,1002.0807"
         id="path2532" />
      <text
         xml:space="preserve"
         style="font-size:11.98888588px;font-style:normal;font-variant:normal;font-weight:normal;font-stretch:normal;text-indent:0;text-align:start;text-decoration:none;line-height:125%;letter-spacing:normal;word-spacing:normal;text-transform:none;direction:ltr;block-progression:tb;writing-mode:lr-tb;text-anchor:start;fill:#ffffff;fill-opacity:1;fill-rule:nonzero;stroke:none;stroke-width:1px;stroke-linecap:butt;stroke-linejoin:miter;marker:none;marker-start:none;marker-mid:none;marker-end:none;stroke-miterlimit:4;stroke-dasharray:none;stroke-dashoffset:0;stroke-opacity:1;visibility:visible;display:inline;overflow:visible;enable-background:accumulate;font-family:DejaVu LGC Sans;-inkscape-font-specification:DejaVu LGC Sans"
         x="157.82899"
         y="1035.7546"
         id="text2536"
         sodipodi:linespacing="125%"
         transform="scale(0.9991279,1.0008729)"><tspan
           sodipodi:role="line"
           id="tspan2538"
           x="157.82899"
           y="1035.7546">A</tspan></text>
    </g>
    <g
       transform="matrix(0.9991009,0,0,0.999973,710.47816,-11.55467)"
       id="g4528">
      <path
         style="fill:none;fill-rule:evenodd;stroke:#ffffff;stroke-width:1.20528269;stroke-linecap:square;stroke-linejoin:miter;stroke-miterlimit:4;stroke-dasharray:none;stroke-opacity:1"
         d="M 34.713495,1086.4538 L 34.713495,1052.4777"
         id="path4530" />
      <path
         id="path4532"
         d="M 52.057616,1086.4538 L 52.057616,1052.4777"
         style="fill:none;fill-rule:evenodd;stroke:#ffffff;stroke-width:1.20528269;stroke-linecap:square;stroke-linejoin:miter;stroke-miterlimit:4;stroke-dasharray:none;stroke-opacity:1" />
      <path
         sodipodi:nodetypes="cc"
         style="fill:none;fill-rule:evenodd;stroke:#ffffff;stroke-width:1.20612359px;stroke-linecap:butt;stroke-linejoin:miter;stroke-opacity:1"
         d="M 51.845629,1069.4658 L 34.713495,1069.4658"
         id="path4534" />
      <text
         transform="scale(0.9995638,1.0004363)"
         sodipodi:linespacing="125%"
         id="text4536"
         y="1086.583"
         x="39.304825"
         style="font-size:11.99444008px;font-style:normal;font-variant:normal;font-weight:normal;font-stretch:normal;text-indent:0;text-align:start;text-decoration:none;line-height:125%;letter-spacing:normal;word-spacing:normal;text-transform:none;direction:ltr;block-progression:tb;writing-mode:lr-tb;text-anchor:start;fill:#ffffff;fill-opacity:1;fill-rule:nonzero;stroke:none;stroke-width:1px;stroke-linecap:butt;stroke-linejoin:miter;marker:none;marker-start:none;marker-mid:none;marker-end:none;stroke-miterlimit:4;stroke-dasharray:none;stroke-dashoffset:0;stroke-opacity:1;visibility:visible;display:inline;overflow:visible;enable-background:accumulate;font-family:DejaVu LGC Sans;-inkscape-font-specification:DejaVu LGC Sans"
         xml:space="preserve"><tspan
           y="1086.583"
           x="39.304825"
           id="tspan4538"
           sodipodi:role="line">A</tspan></text>
    </g>
    <g
       id="use4566"
       transform="matrix(0.5856736,0,0,0.5856736,-151.18531,404.38696)">
      <g
         style="stroke-width:1.00374997;stroke-miterlimit:4;stroke-dasharray:none;display:inline"
         id="g2725"
         transform="matrix(1.3118802,0,0,-1.1676886,-660.09465,1303.52)">
        <path
           sodipodi:nodetypes="ccccc"
           id="path2727"
           d="M 745.95339,286.71791 L 745.95339,349.38998 L 747.61977,349.38998 L 747.61977,286.71791 L 745.95339,286.71791 z"
           style="fill:#0076d4;fill-opacity:1;fill-rule:evenodd;stroke:none;stroke-width:1.00374997;stroke-linecap:butt;stroke-linejoin:miter;stroke-miterlimit:4;stroke-dasharray:none;stroke-opacity:1" />
        <path
           id="path2729"
           d="M 746.78658,348.0695 L 742.38658,343.6695 L 746.78656,359.0695 L 751.18658,343.6695 L 746.78658,348.0695 z"
           style="fill:#ffffff;fill-opacity:1;fill-rule:evenodd;stroke:#0076d4;stroke-width:1.0034852;marker-start:none;stroke-miterlimit:4;stroke-dasharray:none;stroke-opacity:1" />
      </g>
      <g
         style="stroke-width:1.00374997;stroke-miterlimit:4;stroke-dasharray:none;display:inline"
         id="use2731"
         transform="matrix(0,1.3118802,1.1676886,0,-20.4273,-16.2867)">
        <path
           sodipodi:nodetypes="ccccc"
           id="path2749"
           d="M 745.95339,286.71791 L 745.95339,349.38998 L 747.61977,349.38998 L 747.61977,286.71791 L 745.95339,286.71791 z"
           style="fill:#0076d4;fill-opacity:1;fill-rule:evenodd;stroke:none;stroke-width:1.00374997;stroke-linecap:butt;stroke-linejoin:miter;stroke-miterlimit:4;stroke-dasharray:none;stroke-opacity:1" />
        <path
           id="path2751"
           d="M 746.78658,348.0695 L 742.38658,343.6695 L 746.78656,359.0695 L 751.18658,343.6695 L 746.78658,348.0695 z"
           style="fill:#ffffff;fill-opacity:1;fill-rule:evenodd;stroke:#0076d4;stroke-width:1.0034852;marker-start:none;stroke-miterlimit:4;stroke-dasharray:none;stroke-opacity:1" />
      </g>
      <path
         transform="matrix(2.6574803,0,0,2.6574803,-116.80624,788.67104)"
         d="M 166,65.752808 A 1.75,1.75 0 1 1 162.5,65.752808 A 1.75,1.75 0 1 1 166,65.752808 z"
         sodipodi:ry="1.75"
         sodipodi:rx="1.75"
         sodipodi:cy="65.752808"
         sodipodi:cx="164.25"
         id="path2733"
         style="fill:#ffffff;fill-opacity:1;stroke:#0076d4;stroke-width:0.5;stroke-linecap:square;stroke-miterlimit:4;stroke-dasharray:none;stroke-dashoffset:0;stroke-opacity:1;display:inline"
         sodipodi:type="arc" />
    </g>
    <rect
       style="opacity:1;fill:#cc0000;fill-opacity:0.1372549;stroke:#cc0000;stroke-width:1;stroke-linecap:round;stroke-linejoin:miter;stroke-miterlimit:4;stroke-dasharray:none;stroke-opacity:1"
       id="rect3757"
       width="708.66144"
       height="35.433071"
       x="36.222973"
       y="986.63177" />
    <path
       style="font-size:36.35176468px;font-style:normal;font-variant:normal;font-weight:200;font-stretch:normal;text-indent:0;text-align:start;text-decoration:none;line-height:125%;letter-spacing:normal;word-spacing:normal;text-transform:none;direction:ltr;block-progression:tb;writing-mode:lr-tb;text-anchor:start;fill:#fffdf5;fill-opacity:1;fill-rule:nonzero;stroke:none;stroke-width:1px;stroke-linecap:butt;stroke-linejoin:miter;marker:none;marker-start:none;marker-mid:none;marker-end:none;stroke-miterlimit:4;stroke-dashoffset:0;stroke-opacity:1;visibility:visible;display:inline;overflow:visible;enable-background:accumulate;font-family:Denmark;-inkscape-font-specification:Denmark Ultra-Light"
       d="M 57.110607,1012.5946 L 45.909286,1012.5946 C 44.773435,1012.5946 43.649679,1012.4366 42.538015,1012.1206 C 40.387162,1011.4645 38.683402,1009.9578 37.426732,1007.6004 C 36.290889,1005.4618 35.72297,1002.9708 35.722971,1000.1274 C 35.72297,997.38126 36.230473,994.95102 37.245481,992.83669 C 38.357151,990.50369 39.940076,988.91188 41.994261,988.06127 C 43.589262,987.40513 45.220521,987.07705 46.888043,987.07702 L 57.038107,987.07702 L 57.038107,991.96181 L 46.48929,991.96181 C 44.773435,991.96183 43.528845,992.89747 42.755516,994.76874 C 42.151338,996.22689 41.849253,998.13463 41.84926,1000.4919 C 41.849253,1002.4847 42.235922,1004.1737 43.009268,1005.559 C 43.90343,1007.1873 45.160104,1008.0014 46.779291,1008.0014 L 57.110607,1007.9649 L 57.110607,1012.5946 M 80.659664,1003.0801 C 80.659641,1006.361 79.620469,1008.8763 77.542144,1010.6261 C 75.632947,1012.23 73.035016,1013.032 69.748344,1013.032 C 66.461647,1013.032 63.912051,1012.3029 62.099545,1010.8448 C 59.997029,1009.1679 58.945774,1006.5554 58.945775,1003.0072 C 58.945774,1000.0423 60.081613,997.70934 62.353297,996.00816 C 64.383304,994.47712 66.884567,993.7116 69.857095,993.71158 C 73.1196,993.7116 75.729615,994.53788 77.687145,996.19042 C 79.668802,997.8187 80.659641,1000.1152 80.659664,1003.0801 M 75.040878,1003.0437 C 75.040861,1001.5126 74.557525,1000.2368 73.590868,999.21602 C 72.648348,998.17108 71.355424,997.64858 69.712094,997.64856 C 68.213741,997.64858 66.969151,998.18324 65.97832,999.25252 C 65.01164,1000.2975 64.528305,1001.622 64.528311,1003.2259 C 64.528305,1005.0729 65.023723,1006.5432 66.014571,1007.6369 C 67.0054,1008.7305 68.286241,1009.2773 69.857095,1009.2773 C 71.645426,1009.2773 72.974599,1008.7062 73.84462,1007.564 C 74.642109,1006.5189 75.040861,1005.0122 75.040878,1003.0437 M 110.07616,1012.631 L 105.18237,1012.631 L 105.18237,1000.7836 C 105.18235,1000.3218 105.13402,999.95732 105.03738,999.68992 C 104.94068,999.42262 104.74735,999.14322 104.45737,998.85153 C 104.16735,998.53562 103.87735,998.3169 103.58737,998.19537 C 103.29734,998.04957 102.95901,997.97666 102.57236,997.97665 L 98.983588,997.97665 L 98.983588,1012.631 L 94.017306,1012.631 L 94.017306,997.86729 L 88.181019,997.86729 L 88.181019,1012.5946 L 83.105987,1012.5946 L 83.105987,993.71158 L 103.22487,993.71158 C 104.48152,993.7116 105.47235,993.83311 106.19738,994.07611 C 106.92236,994.29485 107.63528,994.7809 108.33615,995.53426 C 108.89195,996.14183 109.31488,996.73725 109.60491,997.32049 C 109.91905,997.90375 110.07613,998.53562 110.07616,999.21602 L 110.07616,1012.631 M 140.09588,1012.631 L 135.2021,1012.631 L 135.2021,1000.7836 C 135.20207,1000.3218 135.15375,999.95732 135.0571,999.68992 C 134.96041,999.42262 134.76707,999.14322 134.47709,998.85153 C 134.18707,998.53562 133.89707,998.3169 133.60709,998.19537 C 133.31707,998.04957 132.97873,997.97666 132.59208,997.97665 L 129.00331,997.97665 L 129.00331,1012.631 L 124.03703,1012.631 L 124.03703,997.86729 L 118.20074,997.86729 L 118.20074,1012.5946 L 113.12571,1012.5946 L 113.12571,993.71158 L 133.24458,993.71158 C 134.50123,993.7116 135.49208,993.83311 136.21711,994.07611 C 136.94209,994.29485 137.65501,994.7809 138.35587,995.53426 C 138.91168,996.14183 139.3346,996.73725 139.62462,997.32049 C 139.93876,997.90375 140.09585,998.53562 140.09588,999.21602 L 140.09588,1012.631 M 160.65429,1012.5946 L 151.01173,1012.5946 C 149.24755,1012.5946 148.00296,1012.5095 147.27796,1012.3393 C 146.06961,1012.0477 145.10294,1011.4159 144.37794,1010.4437 C 143.55626,1009.3259 143.14543,1008.05 143.14543,1006.6161 L 143.14543,993.71158 L 148.18421,993.71158 L 148.18421,1006.2151 C 148.18421,1006.8227 148.45004,1007.3452 148.98172,1007.7827 C 149.51338,1008.2201 150.08131,1008.4388 150.68548,1008.4388 L 155.61551,1008.4388 L 155.61551,993.71158 L 160.65429,993.71158 L 160.65429,1012.5946 M 181.39906,1012.5946 L 176.36028,1012.5946 L 176.36028,1000.1638 C 176.36026,999.84792 176.28776,999.56842 176.14278,999.32542 C 175.99777,999.05812 175.79234,998.80295 175.52653,998.55991 C 175.04317,998.14678 174.48734,997.94021 173.85902,997.9402 L 168.92898,997.9402 L 168.92898,1012.5946 L 163.8902,1012.5946 L 163.8902,993.71158 L 173.53276,993.71158 C 175.24859,993.7116 176.49318,993.80881 177.26653,994.00321 C 178.47486,994.29485 179.44153,994.93886 180.16655,995.93525 C 180.98821,997.10177 181.39904,998.37765 181.39906,999.76292 L 181.39906,1012.5946 M 189.70828,991.56082 L 184.70575,991.56082 L 184.70575,987.07702 L 189.70828,987.07702 L 189.70828,991.56082 M 189.78078,1012.5946 L 184.70575,1012.5946 L 184.70575,993.71158 L 189.78078,993.71158 L 189.78078,1012.5946 M 204.36699,997.64856 L 199.4732,997.64856 L 199.4732,1006.2151 C 199.47319,1006.9929 199.73903,1007.6369 200.27071,1008.1472 C 200.87487,1008.6576 201.67237,1008.9127 202.66323,1008.9127 L 204.14948,1008.9127 L 204.14948,1012.5946 L 199.4732,1012.5946 C 198.07152,1012.5946 196.87527,1012.0842 195.88443,1011.0635 C 195.30442,1010.456 194.92984,1009.7876 194.76067,1009.0586 C 194.59151,1008.3295 194.50692,1007.4668 194.50692,1006.4703 L 194.50692,997.64856 L 191.3169,997.64856 L 191.3169,993.71158 L 194.50692,993.71158 L 194.50692,987.07702 L 199.4732,987.07702 L 199.4732,993.71158 L 204.36699,993.71158 L 204.36699,997.64856 M 224.70505,993.71158 L 224.6688,1013.3965 C 224.66878,1014.2228 224.49962,1014.9641 224.16129,1015.6202 C 223.82294,1016.3007 223.37585,1016.8961 222.82004,1017.4064 C 221.97418,1018.1355 221.10418,1018.6337 220.21002,1018.9011 C 219.31583,1019.1683 218.24041,1019.302 216.98375,1019.302 L 207.12368,1019.302 L 207.12368,1015.365 L 217.3825,1015.365 C 217.84165,1015.365 218.27667,1015.2071 218.68751,1014.8912 C 219.24334,1014.4536 219.52125,1013.9433 219.52127,1013.3601 L 219.52127,1012.631 L 213.72122,1012.631 C 212.60955,1012.631 211.66704,1012.5095 210.89371,1012.2664 C 210.12037,1011.9992 209.3712,1011.5009 208.6462,1010.7719 C 207.36536,1009.5082 206.72493,1007.9406 206.72493,1006.0693 L 206.72493,993.71158 L 212.01747,993.71158 L 211.98122,1005.8141 C 211.98121,1006.3002 212.00538,1006.6647 212.05372,1006.9078 C 212.12621,1007.1508 212.29538,1007.4181 212.56122,1007.7098 C 212.85121,1008.0014 213.17747,1008.208 213.53998,1008.3295 C 213.90247,1008.4267 214.34955,1008.4753 214.88124,1008.4753 L 219.48501,1008.4753 L 219.48501,993.71158 L 224.70505,993.71158 M 265.0391,1012.5946 L 252.67777,1012.5946 C 250.76858,1012.5946 248.9319,1012.1571 247.16773,1011.2822 C 245.25855,1010.3344 243.79646,1008.8277 242.78145,1006.7619 C 241.79061,1004.6962 241.29519,1002.424 241.29519,999.94512 C 241.29519,997.49062 241.77853,995.26695 242.7452,993.27413 C 243.80854,991.11124 245.28271,989.53159 247.16773,988.53517 C 248.20689,988.00054 249.19774,987.62385 250.14025,987.40511 C 251.10691,987.18641 252.2065,987.07705 253.43902,987.07702 L 264.89409,987.07702 L 264.89409,991.59727 L 254.30903,991.59727 C 253.36651,991.59729 252.56901,991.73095 251.91651,991.99826 C 251.28816,992.24131 250.65982,992.69089 250.0315,993.34705 C 249.40315,994.00323 248.96815,994.64724 248.72649,995.27908 C 248.48481,995.88666 248.36398,996.65219 248.36399,997.57566 L 265.0391,997.57566 L 265.0391,1002.0959 L 248.43649,1002.0959 C 248.43648,1002.9222 248.54524,1003.6512 248.76275,1004.2831 C 248.98024,1004.8907 249.3669,1005.5225 249.92275,1006.1787 C 250.50274,1006.8348 251.09483,1007.3331 251.69901,1007.6733 C 252.32733,1008.0136 253.06443,1008.1837 253.91028,1008.1837 L 265.0391,1008.1837 L 265.0391,1012.5946 M 285.12286,1012.5946 L 280.08409,1012.5946 L 280.08409,1000.1638 C 280.08407,999.84792 280.01157,999.56842 279.86659,999.32542 C 279.72156,999.05812 279.51615,998.80295 279.25033,998.55991 C 278.76698,998.14678 278.21114,997.94021 277.58281,997.9402 L 272.65278,997.9402 L 272.65278,1012.5946 L 267.61401,1012.5946 L 267.61401,993.71158 L 277.25657,993.71158 C 278.9724,993.7116 280.21699,993.80881 280.99034,994.00321 C 282.19866,994.29485 283.16534,994.93886 283.89036,995.93525 C 284.71201,997.10177 285.12284,998.37765 285.12286,999.76292 L 285.12286,1012.5946 M 299.59463,997.64856 L 294.70085,997.64856 L 294.70085,1006.2151 C 294.70084,1006.9929 294.96667,1007.6369 295.49835,1008.1472 C 296.10251,1008.6576 296.90002,1008.9127 297.89087,1008.9127 L 299.37713,1008.9127 L 299.37713,1012.5946 L 294.70085,1012.5946 C 293.29916,1012.5946 292.1029,1012.0842 291.11208,1011.0635 C 290.53206,1010.456 290.15748,1009.7876 289.98832,1009.0586 C 289.81915,1008.3295 289.73457,1007.4668 289.73457,1006.4703 L 289.73457,997.64856 L 286.54454,997.64856 L 286.54454,993.71158 L 289.73457,993.71158 L 289.73457,987.07702 L 294.70085,987.07702 L 294.70085,993.71158 L 299.59463,993.71158 L 299.59463,997.64856 M 318.04771,1012.704 L 309.20266,1012.704 C 307.0518,1012.704 305.17888,1011.7804 303.58387,1009.9334 C 302.01303,1008.0622 301.22761,1005.9114 301.22761,1003.4811 C 301.22761,1000.8322 302.08552,998.54777 303.80137,996.62787 C 305.54137,994.68369 307.47472,993.7116 309.60141,993.71158 L 318.01147,993.71158 L 318.01147,997.61211 L 311.84893,997.61211 C 311.07557,997.61213 310.41098,997.68503 309.85516,997.83083 C 309.32348,997.95236 308.82806,998.20753 308.3689,998.59636 C 307.52305,999.32542 307.10014,1000.3097 307.10014,1001.5491 L 317.97521,1001.5491 L 317.97521,1005.4861 L 307.1364,1005.4861 C 307.13639,1006.0693 307.1968,1006.5675 307.31764,1006.9807 C 307.46263,1007.3695 307.74055,1007.7705 308.1514,1008.1837 C 308.56222,1008.5725 309.04556,1008.8398 309.60141,1008.9856 C 310.1814,1009.1072 310.88223,1009.1679 311.70392,1009.1679 L 318.04771,1009.1679 L 318.04771,1012.704 M 331.83185,997.79438 L 326.21306,997.79438 L 326.21306,1012.5946 L 321.21053,1012.5946 L 321.21053,993.71158 L 326.24931,993.71158 L 326.24931,996.33624 C 326.51514,995.68009 326.84139,995.14544 327.22807,994.73228 C 327.61473,994.31915 328.12223,994.00323 328.75058,993.78449 C 329.04056,993.6873 329.34266,993.60224 329.65683,993.52932 C 329.99516,993.45642 330.33349,993.41997 330.67184,993.41995 C 331.08266,993.41997 331.46933,993.46858 331.83185,993.56577 L 331.83185,997.79438 M 353.26934,1002.7156 C 353.26932,1005.7291 352.4839,1008.1351 350.91308,1009.9334 C 349.36638,1011.7075 347.32429,1012.5946 344.78679,1012.5946 L 339.313,1012.5946 L 339.313,1019.4843 L 334.23798,1019.4843 L 334.23798,993.71158 L 344.31554,993.71158 C 347.1672,993.7116 349.39056,994.56218 350.98558,996.26333 C 352.50807,997.8916 353.26932,1000.0423 353.26934,1002.7156 M 348.12181,1003.0072 C 348.1218,1001.4276 347.61429,1000.1395 346.5993,999.14312 C 345.60845,998.12248 344.36385,997.61213 342.86553,997.61211 L 339.313,997.61211 L 339.313,1008.6211 L 343.22803,1008.6211 C 344.67802,1008.6211 345.85012,1008.1108 346.74431,1007.0901 C 347.66263,1006.045 348.1218,1004.6841 348.12181,1003.0072 M 366.38284,997.79438 L 360.76405,997.79438 L 360.76405,1012.5946 L 355.76152,1012.5946 L 355.76152,993.71158 L 360.8003,993.71158 L 360.8003,996.33624 C 361.06613,995.68009 361.39238,995.14544 361.77906,994.73228 C 362.16572,994.31915 362.67322,994.00323 363.30157,993.78449 C 363.59156,993.6873 363.89364,993.60224 364.20782,993.52932 C 364.54615,993.45642 364.88449,993.41997 365.22283,993.41995 C 365.63365,993.41997 366.02033,993.46858 366.38284,993.56577 L 366.38284,997.79438 M 373.7915,991.56082 L 368.78896,991.56082 L 368.78896,987.07702 L 373.7915,987.07702 L 373.7915,991.56082 M 373.864,1012.5946 L 368.78896,1012.5946 L 368.78896,993.71158 L 373.864,993.71158 L 373.864,1012.5946 M 394.75771,1006.8348 C 394.75769,1008.4388 394.2381,1009.8119 393.19895,1010.9542 C 392.18392,1012.0964 390.891,1012.6675 389.32018,1012.6675 L 376.88634,1012.6675 L 376.88634,1009.2408 L 387.10891,1009.2408 C 387.8339,1009.2408 388.43807,1009.0586 388.92142,1008.694 C 389.42891,1008.3295 389.68266,1007.807 389.68267,1007.1265 C 389.68266,1005.5468 388.61932,1004.757 386.49266,1004.757 L 381.27263,1004.757 C 380.16094,1004.757 379.08552,1004.2223 378.04635,1003.153 C 377.00717,1002.0837 376.48759,1000.9294 376.48759,999.68992 C 376.48759,997.94021 376.87426,996.53067 377.6476,995.46135 C 378.54177,994.24625 379.85886,993.63869 381.59887,993.63867 L 393.56145,993.63867 L 393.56145,997.21112 L 382.90388,997.21112 C 382.49304,997.21114 382.13053,997.41771 381.81637,997.83083 C 381.52637,998.21969 381.38136,998.66928 381.38137,999.17962 C 381.38136,999.73862 381.5747,1000.2246 381.96138,1000.6377 C 382.37221,1001.0266 382.85554,1001.221 383.41139,1001.221 L 389.03017,1001.221 C 390.79434,1001.221 392.18392,1001.7557 393.19895,1002.825 C 394.2381,1003.87 394.75769,1005.2066 394.75771,1006.8348 M 413.34616,1012.704 L 404.50109,1012.704 C 402.35025,1012.704 400.47732,1011.7804 398.88231,1009.9334 C 397.31147,1008.0622 396.52605,1005.9114 396.52605,1003.4811 C 396.52605,1000.8322 397.38397,998.54777 399.09981,996.62787 C 400.83982,994.68369 402.77316,993.7116 404.89985,993.71158 L 413.3099,993.71158 L 413.3099,997.61211 L 407.14736,997.61211 C 406.37402,997.61213 405.70943,997.68503 405.15361,997.83083 C 404.62193,997.95236 404.1265,998.20753 403.66734,998.59636 C 402.8215,999.32542 402.39858,1000.3097 402.39858,1001.5491 L 413.27365,1001.5491 L 413.27365,1005.4861 L 402.43483,1005.4861 C 402.43483,1006.0693 402.49524,1006.5675 402.61608,1006.9807 C 402.76108,1007.3695 403.039,1007.7705 403.44984,1008.1837 C 403.86067,1008.5725 404.344,1008.8398 404.89985,1008.9856 C 405.47984,1009.1072 406.18068,1009.1679 407.00237,1009.1679 L 413.34616,1009.1679 L 413.34616,1012.704 M 457.68076,999.79932 C 457.68074,1004.757 456.31532,1008.3052 453.5845,1010.4437 C 451.36112,1012.1693 448.12277,1013.032 443.86943,1013.032 C 439.15689,1013.032 435.67687,1012.0356 433.42936,1010.0428 C 430.96434,1007.8556 429.73184,1004.3439 429.73184,999.50772 C 429.73184,995.54643 430.83143,992.46003 433.03061,990.24849 C 435.42311,987.84257 438.99981,986.63961 443.76068,986.63958 C 449.00486,986.63961 452.70238,987.79398 454.85325,990.10268 C 456.73823,992.1441 457.68074,995.37632 457.68076,999.79932 M 451.22823,999.65352 C 451.22821,997.15038 450.63611,995.15758 449.45196,993.67512 C 448.12277,992.02259 446.15318,991.1963 443.54318,991.19628 C 440.98149,991.1963 439.04814,992.08334 437.74314,993.85739 C 436.65562,995.33985 436.11188,997.27189 436.11188,999.65352 C 436.11188,1002.3997 436.54688,1004.4289 437.41689,1005.7412 C 438.62522,1007.564 440.86064,1008.4753 444.12318,1008.4753 C 446.87818,1008.4753 448.81152,1007.5883 449.92322,1005.8141 C 450.7932,1004.4289 451.22821,1002.3754 451.22823,999.65352 M 479.0123,1002.7156 C 479.01228,1005.7291 478.22686,1008.1351 476.65603,1009.9334 C 475.10935,1011.7075 473.06725,1012.5946 470.52974,1012.5946 L 465.05597,1012.5946 L 465.05597,1019.4843 L 459.98093,1019.4843 L 459.98093,993.71158 L 470.05849,993.71158 C 472.91017,993.7116 475.13351,994.56218 476.72854,996.26333 C 478.25103,997.8916 479.01228,1000.0423 479.0123,1002.7156 M 473.86477,1003.0072 C 473.86475,1001.4276 473.35725,1000.1395 472.34226,999.14312 C 471.3514,998.12248 470.10682,997.61213 468.60849,997.61211 L 465.05597,997.61211 L 465.05597,1008.6211 L 468.97099,1008.6211 C 470.42099,1008.6211 471.59308,1008.1108 472.48726,1007.0901 C 473.40559,1006.045 473.86475,1004.6841 473.86477,1003.0072 M 497.59961,1012.704 L 488.75456,1012.704 C 486.6037,1012.704 484.73077,1011.7804 483.13577,1009.9334 C 481.56493,1008.0622 480.7795,1005.9114 480.7795,1003.4811 C 480.7795,1000.8322 481.63742,998.54777 483.35327,996.62787 C 485.09327,994.68369 487.02662,993.7116 489.15331,993.71158 L 497.56335,993.71158 L 497.56335,997.61211 L 491.40082,997.61211 C 490.62747,997.61213 489.96288,997.68503 489.40706,997.83083 C 488.87538,997.95236 488.37996,998.20753 487.9208,998.59636 C 487.07495,999.32542 486.65204,1000.3097 486.65204,1001.5491 L 497.52711,1001.5491 L 497.52711,1005.4861 L 486.68829,1005.4861 C 486.68828,1006.0693 486.7487,1006.5675 486.86954,1006.9807 C 487.01453,1007.3695 487.29245,1007.7705 487.70329,1008.1837 C 488.11412,1008.5725 488.59746,1008.8398 489.15331,1008.9856 C 489.7333,1009.1072 490.43413,1009.1679 491.25582,1009.1679 L 497.59961,1009.1679 L 497.59961,1012.704 M 511.38377,997.79438 L 505.76499,997.79438 L 505.76499,1012.5946 L 500.76245,1012.5946 L 500.76245,993.71158 L 505.80124,993.71158 L 505.80124,996.33624 C 506.06707,995.68009 506.39332,995.14544 506.78,994.73228 C 507.16666,994.31915 507.67416,994.00323 508.30251,993.78449 C 508.59249,993.6873 508.89459,993.60224 509.20876,993.52932 C 509.54709,993.45642 509.88542,993.41997 510.22376,993.41995 C 510.63459,993.41997 511.02126,993.46858 511.38377,993.56577 L 511.38377,997.79438 M 532.13249,1012.631 L 518.5749,1012.631 C 517.05239,1012.631 515.74738,1012.1206 514.65988,1011.1 C 513.59654,1010.055 513.06487,1008.7426 513.06487,1007.163 C 513.06487,1005.5104 513.5482,1004.1494 514.51487,1003.0801 C 515.50571,1001.9865 516.73822,1001.4397 518.2124,1001.4397 L 526.98496,1001.4397 L 526.98496,1000.419 C 526.98494,1000.1031 526.92453,999.83582 526.8037,999.61702 C 526.70703,999.37402 526.53786,999.09452 526.29621,998.77863 C 525.95785,998.3898 525.60744,998.14678 525.24494,998.04955 C 524.88243,997.92806 524.37493,997.8673 523.72244,997.86729 L 514.33362,997.86729 L 514.33362,993.71158 L 522.38117,993.71158 L 523.93994,993.71158 C 525.7041,993.7116 527.0212,993.86957 527.89121,994.18548 C 528.7612,994.47712 529.51037,994.92672 530.13872,995.53426 C 530.93621,996.33626 531.46788,997.21114 531.73374,998.15892 C 531.99955,999.10672 532.13247,1000.3218 532.13249,1001.8043 L 532.13249,1012.631 M 526.94871,1008.7669 L 526.94871,1005.0486 L 520.56867,1005.0486 C 519.96449,1005.0486 519.4449,1005.2309 519.0099,1005.5954 C 518.59907,1005.9357 518.39364,1006.3974 518.39365,1006.9807 C 518.39364,1007.4911 518.59907,1007.9164 519.0099,1008.2566 C 519.42073,1008.5968 519.89198,1008.7669 520.42366,1008.7669 L 526.94871,1008.7669 M 546.47852,997.64856 L 541.58473,997.64856 L 541.58473,1006.2151 C 541.58473,1006.9929 541.85057,1007.6369 542.38224,1008.1472 C 542.98641,1008.6576 543.7839,1008.9127 544.77476,1008.9127 L 546.26102,1008.9127 L 546.26102,1012.5946 L 541.58473,1012.5946 C 540.18306,1012.5946 538.9868,1012.0842 537.99597,1011.0635 C 537.41596,1010.456 537.04137,1009.7876 536.8722,1009.0586 C 536.70304,1008.3295 536.61845,1007.4668 536.61845,1006.4703 L 536.61845,997.64856 L 533.42844,997.64856 L 533.42844,993.71158 L 536.61845,993.71158 L 536.61845,987.07702 L 541.58473,987.07702 L 541.58473,993.71158 L 546.47852,993.71158 L 546.47852,997.64856 M 553.83902,991.56082 L 548.83648,991.56082 L 548.83648,987.07702 L 553.83902,987.07702 L 553.83902,991.56082 M 553.91152,1012.5946 L 548.83648,1012.5946 L 548.83648,993.71158 L 553.91152,993.71158 L 553.91152,1012.5946 M 574.8415,1012.5946 L 569.80273,1012.5946 L 569.80273,1000.1638 C 569.80271,999.84792 569.73021,999.56842 569.58523,999.32542 C 569.44021,999.05812 569.23479,998.80295 568.96897,998.55991 C 568.48562,998.14678 567.92978,997.94021 567.30146,997.9402 L 562.37143,997.9402 L 562.37143,1012.5946 L 557.33265,1012.5946 L 557.33265,993.71158 L 566.97521,993.71158 C 568.69104,993.7116 569.93563,993.80881 570.70898,994.00321 C 571.9173,994.29485 572.88398,994.93886 573.609,995.93525 C 574.43066,997.10177 574.84148,998.37765 574.8415,999.76292 L 574.8415,1012.5946 M 597.2883,1011.9748 C 597.28828,1013.2628 597.17954,1014.3078 596.96206,1015.1099 C 596.74454,1015.9118 596.27328,1016.7016 595.5483,1017.4793 C 594.82327,1018.2813 594.04993,1018.8159 593.22827,1019.0833 C 592.4066,1019.3749 591.3795,1019.5207 590.147,1019.5207 L 579.34444,1019.5207 L 579.34444,1015.5108 L 588.44325,1015.5108 C 588.75741,1015.5108 588.98699,1015.5108 589.13201,1015.5108 C 589.54283,1015.5108 589.86907,1015.4744 590.11076,1015.4015 C 590.35241,1015.3529 590.61825,1015.2192 590.90826,1015.0005 C 591.10158,1014.8789 591.31908,1014.6602 591.56077,1014.3443 C 591.80242,1014.0284 591.92326,1013.7611 591.92327,1013.5423 L 591.92327,1012.6675 L 585.36198,1012.6675 C 583.06613,1012.6675 581.14486,1011.6711 579.59819,1009.6783 C 578.14818,1007.807 577.42317,1005.6197 577.42318,1003.1166 C 577.42317,1000.5648 578.20859,998.3655 579.77944,996.51851 C 581.37445,994.64724 583.38029,993.7116 585.79698,993.71158 L 597.2883,993.71158 L 597.2883,1011.9748 M 591.99577,1008.5482 L 591.95952,998.0131 L 587.50075,998.0131 C 586.17156,998.01312 585.14447,998.54777 584.41948,999.61702 C 583.69446,1000.6621 583.33196,1001.9987 583.33196,1003.6269 C 583.33196,1004.8664 583.65821,1005.9357 584.31072,1006.8348 C 585.15655,1007.9771 586.38906,1008.5482 588.00825,1008.5482 L 591.99577,1008.5482 M 641.11488,1004.6841 C 641.11485,1006.92 640.37776,1008.8034 638.90361,1010.3344 C 637.42941,1011.8655 635.55649,1012.631 633.28483,1012.631 L 615.34096,1012.5946 L 615.34096,1008.0014 L 630.13105,1008.0014 C 631.12188,1008.0014 631.95563,1007.7705 632.63232,1007.3088 C 633.40564,1006.7741 633.79231,1006.045 633.79233,1005.1215 C 633.79231,1002.9586 632.2698,1001.8772 629.2248,1001.8772 L 621.75726,1001.8772 C 619.6064,1001.8772 617.72139,1001.2089 616.10222,999.87222 C 614.48304,998.53562 613.67345,996.83445 613.67345,994.76874 C 613.67345,992.48433 614.45887,990.63735 616.02972,989.22779 C 617.62472,987.79398 619.71515,987.07705 622.301,987.07702 L 639.44737,987.07702 L 639.44737,991.45145 L 624.33102,991.45145 C 623.65433,991.45148 622.96558,991.74311 622.26476,992.32635 C 621.58807,992.88532 621.24974,993.55363 621.24975,994.33129 C 621.24974,995.20619 621.57599,995.94742 622.22851,996.55496 C 622.90516,997.13824 623.71475,997.42986 624.65727,997.42984 L 632.88608,997.42984 C 635.44773,997.42986 637.45357,998.09818 638.90361,999.43482 C 640.37776,1000.7471 641.11485,1002.4969 641.11488,1004.6841 M 661.33622,993.71158 L 661.29997,1013.3965 C 661.29995,1014.2228 661.13078,1014.9641 660.79246,1015.6202 C 660.45411,1016.3007 660.00702,1016.8961 659.45121,1017.4064 C 658.60535,1018.1355 657.73535,1018.6337 656.84119,1018.9011 C 655.947,1019.1683 654.87159,1019.302 653.61492,1019.302 L 643.75485,1019.302 L 643.75485,1015.365 L 654.01367,1015.365 C 654.47283,1015.365 654.90783,1015.2071 655.31868,1014.8912 C 655.87451,1014.4536 656.15242,1013.9433 656.15244,1013.3601 L 656.15244,1012.631 L 650.3524,1012.631 C 649.24072,1012.631 648.29822,1012.5095 647.52488,1012.2664 C 646.75154,1011.9992 646.00237,1011.5009 645.27737,1010.7719 C 643.99653,1009.5082 643.3561,1007.9406 643.3561,1006.0693 L 643.3561,993.71158 L 648.64864,993.71158 L 648.61239,1005.8141 C 648.61238,1006.3002 648.63655,1006.6647 648.68488,1006.9078 C 648.75738,1007.1508 648.92655,1007.4181 649.19239,1007.7098 C 649.48238,1008.0014 649.80864,1008.208 650.17115,1008.3295 C 650.53364,1008.4267 650.98072,1008.4753 651.51241,1008.4753 L 656.11619,1008.4753 L 656.11619,993.71158 L 661.33622,993.71158 M 682.13994,1006.8348 C 682.13992,1008.4388 681.62034,1009.8119 680.58118,1010.9542 C 679.56615,1012.0964 678.27323,1012.6675 676.7024,1012.6675 L 664.26858,1012.6675 L 664.26858,1009.2408 L 674.49113,1009.2408 C 675.21613,1009.2408 675.8203,1009.0586 676.30365,1008.694 C 676.81114,1008.3295 677.06488,1007.807 677.0649,1007.1265 C 677.06488,1005.5468 676.00155,1004.757 673.87488,1004.757 L 668.65485,1004.757 C 667.54317,1004.757 666.46775,1004.2223 665.42858,1003.153 C 664.38941,1002.0837 663.86982,1000.9294 663.86982,999.68992 C 663.86982,997.94021 664.25649,996.53067 665.02982,995.46135 C 665.924,994.24625 667.24109,993.63869 668.98111,993.63867 L 680.94368,993.63867 L 680.94368,997.21112 L 670.28611,997.21112 C 669.87527,997.21114 669.51277,997.41771 669.19861,997.83083 C 668.9086,998.21969 668.7636,998.66928 668.7636,999.17962 C 668.7636,999.73862 668.95692,1000.2246 669.3436,1000.6377 C 669.75443,1001.0266 670.23777,1001.221 670.79361,1001.221 L 676.4124,1001.221 C 678.17656,1001.221 679.56615,1001.7557 680.58118,1002.825 C 681.62034,1003.87 682.13992,1005.2066 682.13994,1006.8348 M 695.79832,997.64856 L 690.90454,997.64856 L 690.90454,1006.2151 C 690.90453,1006.9929 691.17037,1007.6369 691.70205,1008.1472 C 692.3062,1008.6576 693.10371,1008.9127 694.09457,1008.9127 L 695.58082,1008.9127 L 695.58082,1012.5946 L 690.90454,1012.5946 C 689.50286,1012.5946 688.30661,1012.0842 687.31577,1011.0635 C 686.73576,1010.456 686.36118,1009.7876 686.19201,1009.0586 C 686.02284,1008.3295 685.93826,1007.4668 685.93826,1006.4703 L 685.93826,997.64856 L 682.74824,997.64856 L 682.74824,993.71158 L 685.93826,993.71158 L 685.93826,987.07702 L 690.90454,987.07702 L 690.90454,993.71158 L 695.79832,993.71158 L 695.79832,997.64856 M 714.25139,1012.704 L 705.40633,1012.704 C 703.25548,1012.704 701.38255,1011.7804 699.78755,1009.9334 C 698.2167,1008.0622 697.43128,1005.9114 697.43128,1003.4811 C 697.43128,1000.8322 698.28921,998.54777 700.00505,996.62787 C 701.74506,994.68369 703.6784,993.7116 705.80509,993.71158 L 714.21514,993.71158 L 714.21514,997.61211 L 708.0526,997.61211 C 707.27926,997.61213 706.61467,997.68503 706.05883,997.83083 C 705.52716,997.95236 705.03174,998.20753 704.57258,998.59636 C 703.72674,999.32542 703.30381,1000.3097 703.30382,1001.5491 L 714.17889,1001.5491 L 714.17889,1005.4861 L 703.34007,1005.4861 C 703.34006,1006.0693 703.40048,1006.5675 703.52132,1006.9807 C 703.66632,1007.3695 703.94424,1007.7705 704.35508,1008.1837 C 704.76591,1008.5725 705.24924,1008.8398 705.80509,1008.9856 C 706.38508,1009.1072 707.08592,1009.1679 707.9076,1009.1679 L 714.25139,1009.1679 L 714.25139,1012.704 M 744.38441,1012.631 L 739.49062,1012.631 L 739.49062,1000.7836 C 739.4906,1000.3218 739.44227,999.95732 739.34563,999.68992 C 739.24893,999.42262 739.0556,999.14322 738.76563,998.85153 C 738.4756,998.53562 738.1856,998.3169 737.89562,998.19537 C 737.60559,998.04957 737.26726,997.97666 736.88062,997.97665 L 733.29184,997.97665 L 733.29184,1012.631 L 728.32556,1012.631 L 728.32556,997.86729 L 722.48927,997.86729 L 722.48927,1012.5946 L 717.41424,1012.5946 L 717.41424,993.71158 L 737.53312,993.71158 C 738.78977,993.7116 739.7806,993.83311 740.50563,994.07611 C 741.23061,994.29485 741.94353,994.7809 742.6444,995.53426 C 743.2002,996.14183 743.62313,996.73725 743.91316,997.32049 C 744.2273,997.90375 744.38438,998.53562 744.38441,999.21602 L 744.38441,1012.631"
       id="text3749" />
    <g
       transform="matrix(0.5856736,0,0,0.5856736,-151.11395,449.28452)"
       id="g4313"
       style="opacity:1">
      <g
         transform="matrix(1.3118802,0,0,-1.1676886,-660.09465,1303.52)"
         id="g4315"
         style="stroke-width:1.00374997;stroke-miterlimit:4;stroke-dasharray:none;display:inline">
        <path
           style="fill:#0076d4;fill-opacity:1;fill-rule:evenodd;stroke:none;stroke-width:1.00374997;stroke-linecap:butt;stroke-linejoin:miter;stroke-miterlimit:4;stroke-dasharray:none;stroke-opacity:1"
           d="M 745.95339,286.71791 L 745.95339,318.96491 L 747.61977,318.96491 L 747.61977,286.71791 L 745.95339,286.71791 z"
           id="path4317"
           sodipodi:nodetypes="ccccc" />
        <path
           style="fill:#ffffff;fill-opacity:1;fill-rule:evenodd;stroke:#0076d4;stroke-width:1.0034852;marker-start:none;stroke-miterlimit:4;stroke-dasharray:none;stroke-opacity:1"
           d="M 746.78658,316.39995 L 742.38658,311.99995 L 746.78656,327.39995 L 751.18658,311.99995 L 746.78658,316.39995 z"
           id="path4319" />
      </g>
      <g
         style="stroke-width:1.00374997;stroke-miterlimit:4;stroke-dasharray:none;display:inline"
         id="use4321"
         transform="matrix(0,1.3118802,1.1676886,0,-20.4273,-16.2867)">
        <path
           sodipodi:nodetypes="ccccc"
           id="path2743"
           d="M 745.95339,286.71791 L 745.95339,349.38998 L 747.61977,349.38998 L 747.61977,286.71791 L 745.95339,286.71791 z"
           style="fill:#0076d4;fill-opacity:1;fill-rule:evenodd;stroke:none;stroke-width:1.00374997;stroke-linecap:butt;stroke-linejoin:miter;stroke-miterlimit:4;stroke-dasharray:none;stroke-opacity:1" />
        <path
           id="path2745"
           d="M 746.78658,348.0695 L 742.38658,343.6695 L 746.78656,359.0695 L 751.18658,343.6695 L 746.78658,348.0695 z"
           style="fill:#ffffff;fill-opacity:1;fill-rule:evenodd;stroke:#0076d4;stroke-width:1.0034852;marker-start:none;stroke-miterlimit:4;stroke-dasharray:none;stroke-opacity:1" />
      </g>
      <path
         sodipodi:type="arc"
         style="fill:#ffffff;fill-opacity:1;stroke:#0076d4;stroke-width:0.5;stroke-linecap:square;stroke-miterlimit:4;stroke-dasharray:none;stroke-dashoffset:0;stroke-opacity:1;display:inline"
         id="path4323"
         sodipodi:cx="164.25"
         sodipodi:cy="65.752808"
         sodipodi:rx="1.75"
         sodipodi:ry="1.75"
         d="M 166,65.752808 A 1.75,1.75 0 1 1 162.5,65.752808 A 1.75,1.75 0 1 1 166,65.752808 z"
         transform="matrix(2.6574803,0,0,2.6574803,-116.80624,788.67104)" />
    </g>
  </g>
</svg>
