<?xml version="1.0" encoding="UTF-8" standalone="no"?>
<!-- Created with Inkscape (http://www.inkscape.org/) -->
<svg
   xmlns:dc="http://purl.org/dc/elements/1.1/"
   xmlns:cc="http://creativecommons.org/ns#"
   xmlns:rdf="http://www.w3.org/1999/02/22-rdf-syntax-ns#"
   xmlns:svg="http://www.w3.org/2000/svg"
   xmlns="http://www.w3.org/2000/svg"
   xmlns:sodipodi="http://sodipodi.sourceforge.net/DTD/sodipodi-0.dtd"
   xmlns:inkscape="http://www.inkscape.org/namespaces/inkscape"
   width="265.74802"
   height="53.149387"
   id="svg3394"
   sodipodi:version="0.32"
   inkscape:version="0.46"
   sodipodi:docname="2c-a.svg"
   inkscape:output_extension="org.inkscape.output.svg.inkscape"
   version="1.0">
  <defs
     id="defs3396">
    <inkscape:perspective
       sodipodi:type="inkscape:persp3d"
       inkscape:vp_x="0 : 33.661419 : 1"
       inkscape:vp_y="0 : 1000 : 0"
       inkscape:vp_z="354.33069 : 33.661419 : 1"
       inkscape:persp3d-origin="177.16534 : 22.440946 : 1"
       id="perspective4302" />
    <clipPath
       clipPathUnits="userSpaceOnUse"
       id="clipPath4429">
      <g
         transform="matrix(0.9947658,0,0,1,1.7860989,0)"
         id="g4431">
        <path
           sodipodi:nodetypes="ccccccccc"
           style="fill:#eea623;fill-opacity:1;fill-rule:evenodd;stroke:none;stroke-width:30;stroke-linecap:round;stroke-linejoin:round;marker:none;marker-start:none;marker-mid:none;marker-end:none;stroke-miterlimit:4;stroke-dasharray:none;stroke-dashoffset:0;stroke-opacity:1;visibility:visible;display:inline;overflow:visible"
           d="M 322.54143,2800.9375 L 318.10638,2806.6673 L 313.67143,2800.9375 L 313.67143,2757.7946 L 294.73171,2757.7946 L 318.10638,2732.2579 L 341.23763,2757.7946 L 322.54143,2757.7946 L 322.54143,2800.9375 z"
           id="path4433" />
      </g>
    </clipPath>
  </defs>
  <sodipodi:namedview
     id="base"
     pagecolor="#ffffff"
     bordercolor="#ababab"
     borderopacity="1"
     gridtolerance="10000"
     guidetolerance="10"
     objecttolerance="10"
     inkscape:pageopacity="0.0"
     inkscape:pageshadow="2"
     inkscape:zoom="3.5635261"
     inkscape:cx="132.87401"
     inkscape:cy="26.574694"
     inkscape:document-units="mm"
     inkscape:current-layer="layer1"
     showgrid="true"
     showborder="false"
     inkscape:showpageshadow="false"
     guidecolor="#ffb43c"
     guideopacity="0.60392157"
     inkscape:window-width="1024"
     inkscape:window-height="700"
     inkscape:window-x="0"
     inkscape:window-y="0"
     units="mm"
     showguides="true"
     inkscape:guide-bbox="true">
    <inkscape:grid
       type="xygrid"
       id="grid3564"
       visible="true"
       enabled="true"
       color="#0097ff"
       opacity="0.1254902"
       empcolor="#0096ff"
       empopacity="0.25098039"
       units="mm"
       spacingx="1mm"
       spacingy="1mm" />
  </sodipodi:namedview>
  <metadata
     id="metadata3399">
    <rdf:RDF>
      <cc:Work
         rdf:about="">
        <dc:format>image/svg+xml</dc:format>
        <dc:type
           rdf:resource="http://purl.org/dc/dcmitype/StillImage" />
        <cc:license
           rdf:resource="http://creativecommons.org/licenses/by-sa/3.0/" />
        <dc:title>The CentOS Logo</dc:title>
        <dc:date>2010-06-15</dc:date>
        <dc:creator>
          <cc:Agent>
            <dc:title>The CentOS Project</dc:title>
          </cc:Agent>
        </dc:creator>
        <dc:rights>
          <cc:Agent>
            <dc:title>The CentOS Project</dc:title>
          </cc:Agent>
        </dc:rights>
        <dc:publisher>
          <cc:Agent>
            <dc:title>The CentOS Project</dc:title>
          </cc:Agent>
        </dc:publisher>
        <dc:identifier></dc:identifier>
        <dc:source></dc:source>
        <dc:relation></dc:relation>
        <dc:language>en</dc:language>
        <dc:subject>
          <rdf:Bag>
            <rdf:li>Identity</rdf:li>\
            <rdf:li>Brands</rdf:li>\
            <rdf:li>tpl</rdf:li>\
            <rdf:li>centos</rdf:li>
          </rdf:Bag>
        </dc:subject>
        <dc:coverage>The CentOS Project</dc:coverage>
        <dc:description />
        <dc:contributor>
          <cc:Agent>
            <dc:title>Alain Reguera Delgado</dc:title>
          </cc:Agent>
        </dc:contributor>
      </cc:Work>
      <cc:License
         rdf:about="http://creativecommons.org/licenses/by-sa/3.0/">
        <cc:permits
           rdf:resource="http://creativecommons.org/ns#Reproduction" />
        <cc:permits
           rdf:resource="http://creativecommons.org/ns#Distribution" />
        <cc:requires
           rdf:resource="http://creativecommons.org/ns#Notice" />
        <cc:requires
           rdf:resource="http://creativecommons.org/ns#Attribution" />
        <cc:permits
           rdf:resource="http://creativecommons.org/ns#DerivativeWorks" />
        <cc:requires
           rdf:resource="http://creativecommons.org/ns#ShareAlike" />
      </cc:License>
    </rdf:RDF>
  </metadata>
  <g
     inkscape:label="Layer 1"
     inkscape:groupmode="layer"
     id="layer1"
     transform="translate(-400.97882,-594.5838)">
    <path
       transform="scale(0.9903918,1.0097014)"
       style="font-size:72.70541382px;font-style:normal;font-variant:normal;font-weight:200;font-stretch:normal;text-align:start;line-height:125%;writing-mode:lr-tb;text-anchor:start;fill:#000000;fill-opacity:1;stroke:none;stroke-width:1px;stroke-linecap:butt;stroke-linejoin:miter;stroke-opacity:1;display:inline;font-family:Denmark;-inkscape-font-specification:Denmark Ultra-Light"
       clip-path="none"
       d="M 447.76507,640.63721 L 425.2991,640.63721 C 423.02097,640.63721 420.76711,640.32215 418.53749,639.69204 C 414.22363,638.38334 410.80648,635.37819 408.28603,630.67657 C 406.00792,626.4112 404.86887,621.443 404.86888,615.77196 C 404.86887,610.29484 405.88675,605.44782 407.9225,601.23087 C 410.15213,596.57777 413.32693,593.40297 417.44691,591.70646 C 420.64593,590.39782 423.91767,589.74347 427.26214,589.74342 L 447.61966,589.74342 L 447.61966,599.48594 L 426.46238,599.48594 C 423.02097,599.48598 420.52476,601.35209 418.97373,605.08426 C 417.76195,607.99251 417.15608,611.79742 417.15609,616.49901 C 417.15608,620.47359 417.9316,623.84227 419.48266,626.60506 C 421.27605,629.85258 423.7965,631.47633 427.04403,631.47632 L 447.76507,631.40362 L 447.76507,640.63721 M 485.18109,640.85532 L 467.44097,640.85532 C 463.1271,640.85532 459.37066,639.01345 456.17163,635.32971 C 453.02106,631.59751 451.44578,627.30789 451.44578,622.46085 C 451.44578,617.17762 453.16647,612.62142 456.60786,608.79224 C 460.09771,604.91465 463.97533,602.97584 468.24073,602.9758 L 485.10839,602.9758 L 485.10839,610.75528 L 472.74847,610.75528 C 471.1974,610.75531 469.86446,610.90072 468.74967,611.19151 C 467.6833,611.4339 466.68966,611.94283 465.76875,612.71833 C 464.07227,614.17246 463.22404,616.13551 463.22406,618.60747 L 485.03568,618.60747 L 485.03568,626.45965 L 463.29676,626.45965 C 463.29675,627.62295 463.41792,628.61659 463.66029,629.44057 C 463.9511,630.21611 464.5085,631.01587 465.33251,631.83985 C 466.15649,632.61538 467.1259,633.14856 468.24073,633.43937 C 469.404,633.68173 470.80963,633.8029 472.45764,633.8029 L 485.18109,633.8029 L 485.18109,640.85532 M 526.64136,640.63721 L 516.53531,640.63721 L 516.53531,615.84466 C 516.53528,615.21457 516.38987,614.65717 516.09907,614.17244 C 515.80822,613.63929 515.39623,613.13035 514.86308,612.64562 C 513.89365,611.82166 512.77884,611.40966 511.51863,611.40963 L 501.6307,611.40963 L 501.6307,640.63721 L 491.52464,640.63721 L 491.52464,602.9758 L 510.86428,602.9758 C 514.30565,602.97584 516.80186,603.16972 518.35294,603.55745 C 520.77642,604.13913 522.71523,605.42359 524.16938,607.41083 C 525.81733,609.73744 526.64132,612.28212 526.64136,615.0449 L 526.64136,640.63721 M 555.66672,610.82799 L 545.85149,610.82799 L 545.85149,627.91376 C 545.85147,629.46482 546.38465,630.74928 547.45101,631.76715 C 548.66275,632.78503 550.26227,633.29397 552.24957,633.29396 L 555.23049,633.29396 L 555.23049,640.63721 L 545.85149,640.63721 C 543.0402,640.63721 540.64093,639.61933 538.65365,637.58358 C 537.49036,636.37183 536.73907,635.0389 536.39979,633.58478 C 536.06049,632.13068 535.89084,630.40999 535.89085,628.4227 L 535.89085,610.82799 L 529.49277,610.82799 L 529.49277,602.9758 L 535.89085,602.9758 L 535.89085,589.74342 L 545.85149,589.74342 L 545.85149,602.9758 L 555.66672,602.9758 L 555.66672,610.82799 M 614.99775,615.11761 C 614.99769,625.00556 612.25912,632.08221 606.78204,636.34759 C 602.32273,639.78898 595.82771,641.50967 587.29699,641.50967 C 577.84526,641.50967 570.86555,639.52239 566.35783,635.54783 C 561.41385,631.18551 558.94187,624.18156 558.94187,614.53596 C 558.94187,606.63534 561.14727,600.47962 565.55807,596.06879 C 570.35661,591.27028 577.5302,588.871 587.07887,588.87095 C 597.59688,588.871 605.01282,591.17334 609.32673,595.77797 C 613.10735,599.84951 614.99769,606.29605 614.99775,615.11761 M 602.05618,614.82679 C 602.05614,609.83438 600.86862,605.85982 598.49362,602.9031 C 595.82771,599.60716 591.87739,597.95917 586.64264,597.95913 C 581.50476,597.95917 577.62714,599.72834 575.00977,603.26662 C 572.82859,606.22335 571.73801,610.07673 571.73803,614.82679 C 571.73801,620.30395 572.61048,624.35121 574.35542,626.96859 C 576.77892,630.60387 581.26241,632.4215 587.80592,632.4215 C 593.3315,632.4215 597.20912,630.65234 599.43879,627.114 C 601.18368,624.35121 602.05614,620.25548 602.05618,614.82679 M 673.19502,624.86013 C 673.19496,629.31941 671.71662,633.07585 668.75999,636.12947 C 665.80325,639.1831 662.04681,640.70991 657.49065,640.70991 L 621.50147,640.63721 L 621.50147,631.47632 L 651.16528,631.47632 C 653.15253,631.47633 654.82475,631.01587 656.18195,630.09492 C 657.73296,629.02859 658.50849,627.57448 658.50853,625.7326 C 658.50849,621.41876 655.45486,619.26184 649.34765,619.26182 L 634.37033,619.26182 C 630.05646,619.26184 626.27578,617.92891 623.02829,615.26302 C 619.78077,612.59718 618.15702,609.20426 618.15702,605.08426 C 618.15702,600.52809 619.7323,596.84436 622.88287,594.03304 C 626.0819,591.17334 630.27458,589.74347 635.46091,589.74342 L 669.85057,589.74342 L 669.85057,598.46807 L 639.53241,598.46807 C 638.17522,598.46811 636.79382,599.04975 635.38821,600.213 C 634.03102,601.32785 633.35244,602.66078 633.35245,604.21179 C 633.35244,605.95676 634.00679,607.4351 635.3155,608.64682 C 636.67265,609.81014 638.2964,610.39179 640.18676,610.39175 L 656.69089,610.39175 C 661.8287,610.39179 665.85172,611.72472 668.75999,614.39055 C 671.71662,617.00797 673.19496,620.49783 673.19502,624.86013"
       id="CENTOSARTWORK"
       inkscape:label="#TEXT_CENTOS" />
    <text
       xml:space="preserve"
       style="font-size:24px;font-style:normal;font-variant:normal;font-weight:normal;font-stretch:normal;text-align:center;line-height:125%;writing-mode:lr-tb;text-anchor:middle;fill:#000000;fill-opacity:1;stroke:none;stroke-width:1px;stroke-linecap:butt;stroke-linejoin:miter;stroke-opacity:1;font-family:DejaVu LGC Sans Mono;-inkscape-font-specification:DejaVu LGC Sans Mono"
       x="415.83362"
       y="39.326515"
       id="text2673"
       sodipodi:linespacing="125%"
       transform="translate(276.96307,568.00889)"><tspan
         sodipodi:role="line"
         id="tspan2675"
         x="415.83362"
         y="39.326515"
         style="font-size:20px;font-style:normal;font-variant:normal;font-weight:normal;font-stretch:normal;font-family:DejaVu LGC Sans Mono;-inkscape-font-specification:DejaVu LGC Sans Mono" /></text>
  </g>
</svg>
