<?xml version="1.0" encoding="UTF-8" standalone="no"?>
<!-- Created with Inkscape (http://www.inkscape.org/) -->
<svg
   xmlns:dc="http://purl.org/dc/elements/1.1/"
   xmlns:cc="http://creativecommons.org/ns#"
   xmlns:rdf="http://www.w3.org/1999/02/22-rdf-syntax-ns#"
   xmlns:svg="http://www.w3.org/2000/svg"
   xmlns="http://www.w3.org/2000/svg"
   xmlns:sodipodi="http://sodipodi.sourceforge.net/DTD/sodipodi-0.dtd"
   xmlns:inkscape="http://www.inkscape.org/namespaces/inkscape"
   width="3047.2439"
   height="637.79529"
   id="svg3394"
   sodipodi:version="0.32"
   inkscape:version="0.46"
   sodipodi:docname="centos.svg"
   inkscape:output_extension="org.inkscape.output.svg.inkscape"
   version="1.0">
  <defs
     id="defs3396" />
  <sodipodi:namedview
     id="base"
     pagecolor="#ffffff"
     bordercolor="#ababab"
     borderopacity="1"
     gridtolerance="10000"
     guidetolerance="10"
     objecttolerance="10"
     inkscape:pageopacity="0.0"
     inkscape:pageshadow="2"
     inkscape:zoom="0.28255041"
     inkscape:cx="1529.2539"
     inkscape:cy="229.61854"
     inkscape:document-units="mm"
     inkscape:current-layer="layer1"
     showgrid="false"
     showborder="false"
     inkscape:showpageshadow="false"
     guidecolor="#3c3cff"
     guideopacity="0.60392157"
     inkscape:window-width="1360"
     inkscape:window-height="693"
     inkscape:window-x="0"
     inkscape:window-y="25"
     units="mm"
     showguides="true"
     inkscape:guide-bbox="true">
    <inkscape:grid
       type="xygrid"
       id="grid3564"
       visible="true"
       enabled="true"
       color="#0097ff"
       opacity="0.1254902"
       empcolor="#0096ff"
       empopacity="0.25098039"
       units="mm"
       spacingx="1mm"
       spacingy="1mm" />
  </sodipodi:namedview>
  <metadata
     id="CENTOSMETADATA">
    <rdf:RDF>
      <cc:Work
         rdf:about="">
        <dc:format>image/svg+xml</dc:format>
        <dc:type
           rdf:resource="http://purl.org/dc/dcmitype/StillImage" />
        <cc:license
           rdf:resource="http://creativecommons.org/licenses/by-sa/3.0/" />
        <dc:title>centos.svg</dc:title>
        <dc:date>2011-07-29</dc:date>
        <dc:creator>
          <cc:Agent>
            <dc:title>The CentOS Artwork SIG</dc:title>
          </cc:Agent>
        </dc:creator>
        <dc:rights>
          <cc:Agent>
            <dc:title>The CentOS Artwork SIG</dc:title>
          </cc:Agent>
        </dc:rights>
        <dc:publisher>
          <cc:Agent>
            <dc:title>The CentOS Artwork SIG</dc:title>
          </cc:Agent>
        </dc:publisher>
        <dc:identifier>https://projects.centos.org/svn/artwork/trunk/Identity/Models/Brands/Types/White/centos.svg</dc:identifier>
        <dc:source>https://projects.centos.org/svn/artwork/trunk/Identity/Models/Brands/Types/White/centos.svg</dc:source>
        <dc:relation>https://projects.centos.org/svn/artwork/trunk/Identity/Models/Brands/Types/White/centos.svg</dc:relation>
        <dc:language>en_US</dc:language>
        <dc:subject>
          <rdf:Bag>
            <rdf:li>Identity</rdf:li>
            <rdf:li>Models</rdf:li>
            <rdf:li>Brands</rdf:li>
            <rdf:li>Types</rdf:li>
            <rdf:li>White</rdf:li>
          </rdf:Bag>
        </dc:subject>
        <dc:coverage>The CentOS Artwork SIG</dc:coverage>
        <dc:description />
        <dc:contributor />
      </cc:Work>
      <cc:License
         rdf:about="http://creativecommons.org/licenses/by-sa/3.0/">
        <cc:permits
           rdf:resource="http://creativecommons.org/ns#Reproduction" />
        <cc:permits
           rdf:resource="http://creativecommons.org/ns#Distribution" />
        <cc:requires
           rdf:resource="http://creativecommons.org/ns#Notice" />
        <cc:requires
           rdf:resource="http://creativecommons.org/ns#Attribution" />
        <cc:permits
           rdf:resource="http://creativecommons.org/ns#DerivativeWorks" />
        <cc:requires
           rdf:resource="http://creativecommons.org/ns#ShareAlike" />
      </cc:License>
    </rdf:RDF>
  </metadata>
  <g
     inkscape:label="Layer 1"
     inkscape:groupmode="layer"
     id="layer1"
     transform="translate(-356.4824,98.831166)">
    <path
       inkscape:label=""
       id="CENTOSARTWORK"
       d="M 843.63279,528.39295 L 588.49808,528.39295 C 562.62652,528.39295 537.03052,524.57559 511.70992,516.94087 C 462.71959,501.08403 423.91268,464.67223 395.28925,407.70527 C 369.41792,356.02403 356.48228,295.82699 356.4824,227.11404 C 356.48228,160.75067 368.0418,102.02196 391.1608,50.927394 C 416.48159,-5.4517261 452.53615,-43.919086 499.32476,-64.474807 C 535.65436,-80.330846 572.80987,-88.259286 610.79132,-88.259846 L 841.9814,-88.259846 L 841.9814,29.785033 L 601.70888,29.785033 C 562.62652,29.785514 534.27828,52.396194 516.66404,97.616836 C 502.90248,132.85459 496.02187,178.95664 496.022,235.92332 C 496.02187,284.08115 504.82912,324.89767 522.44369,358.37291 C 542.81036,397.72139 571.43384,417.39551 608.3144,417.39539 L 843.63279,416.5145 L 843.63279,528.39295 M 1268.5476,531.03571 L 1067.082,531.03571 C 1018.0916,531.03571 975.43164,508.71875 939.10179,464.08483 C 903.32244,418.86376 885.43272,366.88871 885.43272,308.15979 C 885.43272,244.14566 904.97375,188.94063 944.05588,142.54448 C 983.68836,95.561798 1027.7245,72.070313 1076.1645,72.069794 L 1267.722,72.069794 L 1267.722,166.32964 L 1127.3566,166.32964 C 1109.7419,166.32995 1094.6044,168.0918 1081.9444,171.6152 C 1069.8341,174.55208 1058.5498,180.71851 1048.0914,190.11479 C 1028.8254,207.7338 1019.1925,231.51892 1019.1927,261.47039 L 1266.8963,261.47039 L 1266.8963,356.61111 L 1020.0183,356.61111 C 1020.0182,370.70614 1021.3942,382.74558 1024.1467,392.72928 C 1027.4493,402.12607 1033.7794,411.81635 1043.1373,421.80011 C 1052.4949,431.19678 1063.504,437.65703 1076.1645,441.18059 C 1089.3752,444.11719 1105.3383,445.58531 1124.0538,445.58531 L 1268.5476,445.58531 L 1268.5476,531.03571 M 1739.391,528.39295 L 1624.6216,528.39295 L 1624.6216,227.99487 C 1624.6213,220.36044 1622.97,213.60671 1619.6675,207.73351 C 1616.3645,201.27359 1611.6857,195.10703 1605.6309,189.23383 C 1594.6217,179.25035 1581.9614,174.25836 1567.6498,174.25803 L 1455.3575,174.25803 L 1455.3575,528.39295 L 1340.5881,528.39295 L 1340.5881,72.069794 L 1560.2186,72.069794 C 1599.3006,72.070313 1627.6487,74.419394 1645.2635,79.117352 C 1672.7858,86.165277 1694.8039,101.7284 1711.318,125.80668 C 1730.0328,153.99696 1739.3905,184.82952 1739.391,218.30464 L 1739.391,528.39295 M 2069.0174,167.21064 L 1957.5507,167.21064 L 1957.5507,374.22975 C 1957.5505,393.02312 1963.6055,408.58623 1975.7156,420.9192 C 1989.4767,433.25231 2007.6417,439.41888 2030.2105,439.41874 L 2064.0632,439.41874 L 2064.0632,528.39295 L 1957.5507,528.39295 C 1925.6244,528.39295 1898.3771,516.05987 1875.8085,491.39378 C 1862.5976,476.71167 1854.0656,460.56126 1850.2125,442.94251 C 1846.3593,425.3239 1844.4327,404.47523 1844.4328,380.39627 L 1844.4328,167.21064 L 1771.7731,167.21064 L 1771.7731,72.069794 L 1844.4328,72.069794 L 1844.4328,-88.259846 L 1957.5507,-88.259846 L 1957.5507,72.069794 L 2069.0174,72.069794 L 2069.0174,167.21064 M 2742.81,219.18564 C 2742.8087,338.99262 2711.7086,424.7366 2649.5081,476.41795 C 2598.8661,518.11543 2525.1054,538.96411 2428.2263,538.96411 C 2320.8878,538.96411 2241.6228,514.88526 2190.4308,466.72763 C 2134.2845,413.87183 2106.2116,329.00868 2106.2116,212.13807 C 2106.2116,116.41052 2131.2571,41.824954 2181.3484,-11.618766 C 2235.8431,-69.759765 2317.3098,-98.830526 2425.7492,-98.831166 C 2545.1971,-98.830526 2629.4161,-70.934325 2678.407,-15.142486 C 2721.3417,34.190194 2742.8087,112.29947 2742.81,219.18564 M 2595.839,215.66195 C 2595.8386,155.17159 2582.3525,107.01395 2555.3808,71.188954 C 2525.1054,31.253753 2480.2436,11.285994 2420.7953,11.285513 C 2362.4468,11.285994 2318.4107,32.722074 2288.6866,75.593512 C 2263.916,111.41863 2251.5309,158.10799 2251.5311,215.66195 C 2251.5309,282.02575 2261.439,331.06419 2281.2554,362.77763 C 2308.778,406.82436 2359.6947,428.84763 2434.0061,428.84763 C 2496.7573,428.84763 2540.7934,407.41163 2566.1147,364.5395 C 2585.9304,331.06419 2595.8386,281.43843 2595.839,215.66195 M 3403.7264,337.23055 C 3403.7256,391.26122 3386.9372,436.77598 3353.3604,473.77511 C 3319.7824,510.77432 3277.1216,529.27383 3225.3804,529.27383 L 2816.6691,528.39295 L 2816.6691,417.39539 L 3153.546,417.39539 C 3176.1144,417.39551 3195.1048,411.81635 3210.518,400.65768 C 3228.1316,387.73759 3236.9392,370.11887 3236.9396,347.80183 C 3236.9392,295.53326 3202.2608,269.39904 3132.9044,269.39879 L 2962.8144,269.39879 C 2913.8237,269.39904 2870.8883,253.24863 2834.0084,220.94747 C 2797.1279,188.64692 2778.6879,147.53672 2778.6879,97.616836 C 2778.6879,42.412193 2796.5771,-2.2216067 2832.3571,-36.284846 C 2868.6868,-70.934325 2916.3009,-88.259286 2975.1995,-88.259846 L 3365.7452,-88.259846 L 3365.7452,17.452074 L 3021.4376,17.452074 C 3006.0244,17.452514 2990.3368,24.499953 2974.3741,38.594434 C 2958.9608,52.102473 2951.2544,68.252913 2951.2548,87.045668 C 2951.2544,108.18847 2958.6859,126.10075 2973.548,140.78252 C 2988.9604,154.87783 3007.4012,161.9254 3028.8687,161.92487 L 3216.2976,161.92487 C 3274.6447,161.9254 3320.3327,178.07575 3353.3604,210.37624 C 3386.9372,242.09012 3403.7256,284.37487 3403.7264,337.23055"
       clip-path="none"
       style="font-size:72.70541382000000397px;font-style:normal;font-variant:normal;font-weight:200;font-stretch:normal;text-align:start;line-height:125%;writing-mode:lr-tb;text-anchor:start;fill:#ffffff;fill-opacity:1;stroke:none;stroke-width:2.48031496999999979;stroke-linecap:butt;stroke-linejoin:miter;stroke-miterlimit:4;stroke-dasharray:none;stroke-opacity:1;display:inline;font-family:Denmark;-inkscape-font-specification:Denmark Ultra-Light" />
  </g>
</svg>
