<?xml version="1.0" encoding="UTF-8" standalone="no"?>
<!-- Created with Inkscape (http://www.inkscape.org/) -->
<svg
   xmlns:dc="http://purl.org/dc/elements/1.1/"
   xmlns:cc="http://creativecommons.org/ns#"
   xmlns:rdf="http://www.w3.org/1999/02/22-rdf-syntax-ns#"
   xmlns:svg="http://www.w3.org/2000/svg"
   xmlns="http://www.w3.org/2000/svg"
   xmlns:sodipodi="http://sodipodi.sourceforge.net/DTD/sodipodi-0.dtd"
   xmlns:inkscape="http://www.inkscape.org/namespaces/inkscape"
   width="800.00006"
   height="600.00012"
   id="svg2"
   sodipodi:version="0.32"
   inkscape:version="0.46"
   sodipodi:docname="800x600.svg"
   inkscape:output_extension="org.inkscape.output.svg.inkscape"
   version="1.0"
   style="display:inline">
  <defs
     id="defs4">
    <filter
       inkscape:collect="always"
       id="filter3670">
      <feGaussianBlur
         inkscape:collect="always"
         stdDeviation="1.4864866"
         id="feGaussianBlur3672" />
    </filter>
    <filter
       inkscape:collect="always"
       id="filter3700">
      <feGaussianBlur
         inkscape:collect="always"
         stdDeviation="1.5874831"
         id="feGaussianBlur3702" />
    </filter>
    <filter
       inkscape:collect="always"
       id="filter3474">
      <feGaussianBlur
         inkscape:collect="always"
         stdDeviation="1.6061345"
         id="feGaussianBlur3476" />
    </filter>
    <filter
       inkscape:collect="always"
       id="filter3387">
      <feGaussianBlur
         inkscape:collect="always"
         stdDeviation="1.7344037"
         id="feGaussianBlur3389" />
    </filter>
    <filter
       inkscape:collect="always"
       id="filter3466">
      <feGaussianBlur
         inkscape:collect="always"
         stdDeviation="3.2352817"
         id="feGaussianBlur3468" />
    </filter>
  </defs>
  <sodipodi:namedview
     id="base"
     pagecolor="#ffffff"
     bordercolor="#666666"
     borderopacity="1.0"
     gridtolerance="10000"
     guidetolerance="10"
     objecttolerance="10"
     inkscape:pageopacity="0.0"
     inkscape:pageshadow="2"
     inkscape:zoom="0.41666658"
     inkscape:cx="-104.47832"
     inkscape:cy="253.44464"
     inkscape:document-units="px"
     inkscape:current-layer="layer1"
     showgrid="false"
     showborder="true"
     inkscape:showpageshadow="false"
     showguides="false"
     inkscape:guide-bbox="true"
     inkscape:window-width="1360"
     inkscape:window-height="693"
     inkscape:window-x="0"
     inkscape:window-y="25">
    <sodipodi:guide
       orientation="0,1"
       position="2214.8215,759.57019"
       id="guide3161" />
    <sodipodi:guide
       orientation="1,0"
       position="1689.5113,1249.3865"
       id="guide3163" />
    <sodipodi:guide
       orientation="1,0"
       position="800,1611.4246"
       id="guide3274" />
    <sodipodi:guide
       orientation="0,1"
       position="2647.8475,1540.4367"
       id="guide3286" />
    <sodipodi:guide
       orientation="0,1"
       position="2477.4766,0"
       id="guide3288" />
    <sodipodi:guide
       orientation="1,0"
       position="2045.4132,466.74651"
       id="guide3290" />
    <sodipodi:guide
       orientation="1,0"
       position="0,0"
       id="guide3932" />
    <sodipodi:guide
       orientation="0,1"
       position="1610.5709,1241.9002"
       id="guide8458" />
    <sodipodi:guide
       orientation="1,0"
       position="578,1274.2196"
       id="guide8464" />
    <sodipodi:guide
       orientation="1,0"
       position="1988.7352,934.82463"
       id="guide8466" />
    <sodipodi:guide
       orientation="0,1"
       position="71.957677,300"
       id="guide5363" />
    <inkscape:grid
       type="xygrid"
       id="grid5369"
       visible="true"
       enabled="true"
       units="mm"
       spacingx="1mm"
       spacingy="1mm"
       color="#008aff"
       opacity="0.1254902"
       empcolor="#008aff"
       empopacity="0.25098039" />
  </sodipodi:namedview>
  <metadata
     id="metadata7">
    <rdf:RDF>
      <cc:Work
         rdf:about="">
        <dc:format>image/svg+xml</dc:format>
        <dc:type
           rdf:resource="http://purl.org/dc/dcmitype/StillImage" />
        <dc:creator>
          <cc:Agent>
            <dc:title>Alain Reguera Delgado</dc:title>
          </cc:Agent>
        </dc:creator>
        <dc:rights>
          <cc:Agent>
            <dc:title>The CentOS Project</dc:title>
          </cc:Agent>
        </dc:rights>
        <dc:publisher>
          <cc:Agent>
            <dc:title>The CentOS Project</dc:title>
          </cc:Agent>
        </dc:publisher>
        <dc:title>TreeFlower</dc:title>
        <dc:date>2010-04-22</dc:date>
        <dc:language>en</dc:language>
        <dc:description>Artistic Motif for CentOS Project.</dc:description>
        <dc:identifier />
        <cc:license
           rdf:resource="http://creativecommons.org/licenses/by-sa/3.0/" />
        <dc:contributor>
          <cc:Agent>
            <dc:title />
          </cc:Agent>
        </dc:contributor>
      </cc:Work>
      <cc:License
         rdf:about="http://creativecommons.org/licenses/by-sa/3.0/">
        <cc:permits
           rdf:resource="http://creativecommons.org/ns#Reproduction" />
        <cc:permits
           rdf:resource="http://creativecommons.org/ns#Distribution" />
        <cc:requires
           rdf:resource="http://creativecommons.org/ns#Notice" />
        <cc:requires
           rdf:resource="http://creativecommons.org/ns#Attribution" />
        <cc:permits
           rdf:resource="http://creativecommons.org/ns#DerivativeWorks" />
        <cc:requires
           rdf:resource="http://creativecommons.org/ns#ShareAlike" />
      </cc:License>
    </rdf:RDF>
  </metadata>
  <g
     inkscape:label="Background"
     inkscape:groupmode="layer"
     id="layer1"
     style="display:inline"
     transform="translate(-67.999994,-823.15657)">
    <g
       transform="matrix(1.1571082,0.9854835,0.9854835,-1.1571082,208.53328,1168.0122)"
       id="g17290"
       style="opacity:0.1;filter:url(#filter3670)" />
    <g
       style="opacity:0.1"
       id="g22175"
       transform="matrix(0.381003,0.1771145,0.1771145,-0.381003,658.50485,887.48913)" />
    <g
       style="opacity:0.1"
       transform="matrix(0.8187318,0,0,0.8187318,495.17619,696.7082)"
       id="g22181">
      <g
         id="g22183"
         transform="matrix(0.4010554,0,0,0.4010554,297.65753,82.48033)" />
    </g>
    <g
       style="opacity:0.1"
       inkscape:transform-center-y="44.005377"
       inkscape:transform-center-x="-10.433289"
       transform="matrix(-0.4683679,-0.5724281,0.5724281,-0.4683679,879.65712,1136.3958)"
       id="g22197" />
    <g
       style="opacity:0.1"
       id="g22243"
       transform="matrix(0.1747465,0,0,-0.1747465,706.59619,1212.9507)" />
    <g
       id="g10023"
       transform="matrix(1.5141043,0,0,1.5141043,-64.269164,-1140.9464)"
       style="fill:#060e1a">
      <g
         transform="matrix(2.042901,0,0,2.042901,-91.286491,-1055.472)"
         id="g8979"
         style="fill:#060e1a">
        <g
           transform="matrix(0.753824,0,0,0.753824,43.591171,320.09806)"
           id="g11750"
           style="fill:#060e1a;display:inline">
          <g
             style="fill:#060e1a;fill-opacity:1;display:inline"
             transform="matrix(0.4179296,0,0,0.4190481,-0.2144611,1050.3541)"
             id="g3054">
            <text
               xml:space="preserve"
               style="font-size:69.71334076px;font-style:normal;font-weight:normal;text-align:center;text-anchor:middle;fill:#060e1a;fill-opacity:1;stroke:none;stroke-width:1px;stroke-linecap:butt;stroke-linejoin:miter;stroke-opacity:1;display:inline;font-family:Bitstream Vera Sans"
               x="333.58936"
               y="104.39967"
               id="text3056"><tspan
                 sodipodi:role="line"
                 id="tspan3058"
                 x="333.58936"
                 y="104.39967"
                 style="font-style:normal;font-variant:normal;font-weight:200;font-stretch:normal;text-align:center;text-anchor:middle;fill:#060e1a;fill-opacity:1;font-family:Denmark;-inkscape-font-specification:Denmark Ultra-Light">TreeFl  wer</tspan></text>
          </g>
          <path
             sodipodi:type="star"
             style="opacity:1;fill:#060e1a;fill-opacity:1;stroke:none;stroke-width:1;stroke-linejoin:round;stroke-miterlimit:4;stroke-dasharray:none;stroke-dashoffset:0;stroke-opacity:1;display:inline"
             id="path4446"
             sodipodi:sides="5"
             sodipodi:cx="162.94955"
             sodipodi:cy="203.83304"
             sodipodi:r1="25.691782"
             sodipodi:r2="26.272663"
             sodipodi:arg1="0.48689923"
             sodipodi:arg2="-0.54381798"
             inkscape:flatsided="false"
             inkscape:rounded="1.88"
             inkscape:randomized="0"
             d="M 185.65564,215.85391 C 230.04118,234.53637 228.68309,169.06242 185.43211,190.23938 C 105.57307,229.34073 166.01559,140.53997 158.53359,229.14246 C 154.48141,277.12882 216.33116,255.60463 182.82538,221.01455 C 120.95999,157.14707 224.0923,187.19038 137.51425,207.45425 C 90.624323,218.42899 130.20767,270.60026 152.75094,228.04545 C 194.37506,149.47183 197.67181,256.84038 151.64563,180.76165 C 126.71825,139.55805 89.332353,193.32586 136.77063,201.61562 C 224.36115,216.92193 123.26635,253.23603 181.39865,185.95292 C 212.88261,149.51296 150.19351,130.57202 156.96871,178.25019 C 169.4785,266.28363 103.70173,181.35843 185.65564,215.85391 z"
             transform="matrix(0.1877957,-6.5668885e-2,-6.5649806e-2,-0.1877411,140.84415,1133.7555)" />
        </g>
      </g>
      <path
         sodipodi:nodetypes="csssssssssssccsssssssssssc"
         d="M 95.707267,1260.5138 C 95.707509,1260.5134 95.70738,1260.5138 95.707267,1260.5138 C 95.701106,1260.5138 95.709904,1260.5109 95.707267,1260.5138 C 95.671809,1260.5527 95.715801,1260.5613 95.738418,1260.5499 C 95.796112,1260.5207 95.783712,1260.4375 95.751146,1260.3933 C 95.668892,1260.2817 95.501873,1260.311 95.409989,1260.392 C 95.215321,1260.5632 95.276892,1260.8687 95.442589,1261.0352 C 95.753191,1261.3473 96.265084,1261.2341 96.539397,1260.935 C 97.01025,1260.4216 96.820339,1259.619 96.326448,1259.197 C 95.533044,1258.5188 94.338116,1258.816 93.721115,1259.5799 C 92.779828,1260.7452 93.221346,1262.452 94.344677,1263.3186 C 95.98829,1264.5865 98.345767,1263.9574 99.524138,1262.3701 C 101.1901,1260.1258 100.3235,1256.9597 98.152325,1255.3997 M 95.707267,1260.5138 C 95.707063,1260.5134 95.70733,1260.5137 95.707267,1260.5138 C 95.704349,1260.5193 95.703357,1260.5131 95.707267,1260.5138 C 95.73132,1260.5183 95.753035,1260.4997 95.752591,1260.4805 C 95.751597,1260.4159 95.674848,1260.3876 95.620751,1260.3956 C 95.483506,1260.4156 95.430603,1260.5766 95.458638,1260.6959 C 95.517938,1260.9482 95.816456,1261.0379 96.041352,1260.9701 C 96.463004,1260.8433 96.604347,1260.3385 96.469794,1259.9556 C 96.238821,1259.2983 95.441477,1259.0876 94.836441,1259.3243 C 93.864471,1259.7047 93.563641,1260.8986 93.94654,1261.8028 C 94.53076,1263.1822 96.244405,1263.597 97.538093,1263.0145 C 99.430874,1262.1623 100.01375,1259.7736 99.142003,1257.9991 C 97.929555,1255.5311 96.708442,1256.5361 98.152325,1255.3997"
         style="opacity:1;fill:#060e1a;fill-opacity:1;fill-rule:evenodd;stroke:none;stroke-width:1px;stroke-linecap:butt;stroke-linejoin:miter;stroke-opacity:1"
         id="path9995" />
      <g
         transform="matrix(0.6023818,-0.8498805,0.8498805,0.6023818,-1001.8974,609.50651)"
         id="g10011"
         style="fill:#060e1a">
        <path
           sodipodi:nodetypes="csssssssssssccsssssssssssc"
           d="M 94.755812,1245.7201 C 94.756563,1245.7205 94.755904,1245.7199 94.755812,1245.7201 C 94.749327,1245.7275 94.762071,1245.7201 94.755812,1245.7201 C 94.672542,1245.7209 94.708833,1245.66 94.746055,1245.6454 C 94.841402,1245.6082 94.926448,1245.7106 94.944169,1245.7954 C 94.989051,1246.0103 94.778436,1246.1761 94.586019,1246.199 C 94.178858,1246.248 93.883545,1245.8536 93.861896,1245.4827 C 93.82127,1244.7872 94.494572,1244.303 95.136406,1244.2947 C 96.238324,1244.2809 96.984544,1245.351 96.96154,1246.3783 C 96.924802,1248.029 95.314445,1249.1246 93.763049,1249.0469 C 91.39655,1248.9286 89.849204,1246.6081 90.011666,1244.37 C 90.24932,1241.0949 93.476703,1238.978 96.590953,1239.2621 C 100.99406,1239.6636 103.81406,1244.0236 103.36449,1248.2287 M 94.755812,1245.7201 C 94.756036,1245.7208 94.755962,1245.7201 94.755812,1245.7201 C 94.746234,1245.7179 94.752549,1245.7256 94.755812,1245.7201 C 94.775918,1245.6871 94.820733,1245.6811 94.842858,1245.7018 C 94.917992,1245.7711 94.870487,1245.8915 94.804022,1245.9469 C 94.635763,1246.0876 94.390072,1245.9801 94.27897,1245.8214 C 94.043908,1245.4854 94.252913,1245.0389 94.569926,1244.8451 C 95.164055,1244.4816 95.908396,1244.847 96.218046,1245.4095 C 96.74968,1246.3749 96.157407,1247.5371 95.240396,1248.0011 C 93.767111,1248.7464 92.041988,1247.8424 91.379419,1246.4375 C 90.368728,1244.2944 91.686262,1241.8361 93.737134,1240.9247 C 96.737619,1239.5909 100.16913,1241.4222 101.34262,1244.321 C 102.9747,1248.3527 100.5021,1248.7333 103.36449,1248.2287"
           style="opacity:1;fill:#060e1a;fill-opacity:1;fill-rule:evenodd;stroke:none;stroke-width:1px;stroke-linecap:butt;stroke-linejoin:miter;stroke-opacity:1"
           id="path10003" />
        <path
           id="path10005"
           style="opacity:1;fill:#060e1a;fill-opacity:1;fill-rule:evenodd;stroke:none;stroke-width:1px;stroke-linecap:butt;stroke-linejoin:miter;stroke-opacity:1"
           d="M 115.39129,1244.7928 C 115.39005,1244.7932 115.39114,1244.7924 115.39129,1244.7928 C 115.40195,1244.8049 115.38099,1244.7928 115.39129,1244.7928 C 115.5282,1244.7941 115.46853,1244.694 115.40733,1244.6699 C 115.25055,1244.6087 115.11071,1244.777 115.08157,1244.9165 C 115.00778,1245.2696 115.35408,1245.5426 115.67047,1245.5803 C 116.33996,1245.6609 116.82554,1245.0122 116.86114,1244.4022 C 116.92794,1243.2588 115.82084,1242.4626 114.76548,1242.4489 C 112.95361,1242.4263 111.72661,1244.1858 111.76444,1245.8749 C 111.82485,1248.5892 114.47273,1250.3909 117.02367,1250.2629 C 120.91487,1250.0683 123.45915,1246.2529 123.19202,1242.5726 C 122.80124,1237.1875 117.4945,1233.7067 112.37379,1234.1737 C 105.13382,1234.834 100.49693,1242.0031 101.23615,1248.9175 M 115.39129,1244.7928 C 115.39092,1244.7939 115.39104,1244.7928 115.39129,1244.7928 C 115.40703,1244.7889 115.39665,1244.8017 115.39129,1244.7928 C 115.35822,1244.7384 115.28453,1244.7285 115.24816,1244.7625 C 115.12462,1244.8766 115.20272,1245.0744 115.31202,1245.1656 C 115.58868,1245.397 115.99267,1245.2203 116.17535,1244.9593 C 116.56185,1244.4068 116.21819,1243.6725 115.69693,1243.3539 C 114.72001,1242.7561 113.4961,1243.3571 112.98696,1244.282 C 112.1128,1245.8694 113.08666,1247.7804 114.59449,1248.5433 C 117.01699,1249.7688 119.85359,1248.2823 120.94304,1245.9723 C 122.6049,1242.4483 120.4385,1238.4062 117.06629,1236.9077 C 112.13263,1234.7145 106.49026,1237.7257 104.56071,1242.4922 C 101.87709,1249.1215 105.94274,1249.7472 101.23615,1248.9175"
           sodipodi:nodetypes="csssssssssssccsssssssssssc" />
        <path
           sodipodi:nodetypes="csssssssssssccsssssssssssc"
           d="M 108.58635,1230.0116 C 108.58598,1230.0124 108.58608,1230.0115 108.58635,1230.0116 C 108.59729,1230.0119 108.58159,1230.0167 108.58635,1230.0116 C 108.65026,1229.9441 108.57292,1229.9276 108.53266,1229.9468 C 108.42985,1229.9964 108.44886,1230.1437 108.50477,1230.2227 C 108.64617,1230.4225 108.94185,1230.3764 109.10676,1230.2366 C 109.45612,1229.941 109.35799,1229.4 109.07127,1229.1005 C 108.53377,1228.5391 107.62659,1228.7216 107.13219,1229.2398 C 106.28389,1230.1299 106.59163,1231.5527 107.44866,1232.3142 C 108.82569,1233.5382 110.9445,1233.0543 112.05939,1231.7274 C 113.76035,1229.7033 113.03933,1226.676 111.08666,1225.1086 C 108.22948,1222.8149 104.04771,1223.8445 101.91411,1226.6055 C 98.89751,1230.5092 100.31874,1236.126 104.09705,1238.9529 M 108.58635,1230.0116 C 108.58674,1230.0122 108.58624,1230.0117 108.58635,1230.0116 C 108.59169,1230.0019 108.59327,1230.013 108.58635,1230.0116 C 108.54402,1230.0028 108.50507,1230.035 108.50516,1230.0687 C 108.5048,1230.1828 108.6392,1230.2354 108.73503,1230.2232 C 108.97785,1230.1926 109.07669,1229.9101 109.03132,1229.6988 C 108.9353,1229.2514 108.41155,1229.083 108.01234,1229.1949 C 107.26391,1229.4043 106.99721,1230.2903 107.22167,1230.9706 C 107.60685,1232.1385 109.00664,1232.5373 110.08241,1232.1403 C 111.81073,1231.5024 112.38234,1229.4057 111.73746,1227.797 C 110.75365,1225.343 107.74365,1224.5523 105.4409,1225.5362 C 102.07151,1226.9752 100.96149,1231.1709 102.43924,1234.3321 C 104.49453,1238.7286 106.68384,1236.9968 104.09705,1238.9529"
           style="opacity:1;fill:#060e1a;fill-opacity:1;fill-rule:evenodd;stroke:none;stroke-width:1px;stroke-linecap:butt;stroke-linejoin:miter;stroke-opacity:1"
           id="path10007" />
      </g>
    </g>
    <path
       sodipodi:type="star"
       style="opacity:1;fill:#e7f1ff;fill-opacity:1;stroke:none;stroke-width:1;stroke-linejoin:round;stroke-miterlimit:4;stroke-dasharray:none;stroke-dashoffset:0;stroke-opacity:1"
       id="path3674"
       sodipodi:sides="5"
       sodipodi:cx="162.94955"
       sodipodi:cy="203.83304"
       sodipodi:r1="25.691782"
       sodipodi:r2="26.272663"
       sodipodi:arg1="0.48689923"
       sodipodi:arg2="-0.54381798"
       inkscape:flatsided="false"
       inkscape:rounded="1.88"
       inkscape:randomized="0"
       d="M 185.65564,215.85391 C 230.04118,234.53637 228.68309,169.06242 185.43211,190.23938 C 105.57307,229.34073 166.01559,140.53997 158.53359,229.14246 C 154.48141,277.12882 216.33116,255.60463 182.82538,221.01455 C 120.95999,157.14707 224.0923,187.19038 137.51425,207.45425 C 90.624323,218.42899 130.20767,270.60026 152.75094,228.04545 C 194.37506,149.47183 197.67181,256.84038 151.64563,180.76165 C 126.71825,139.55805 89.332353,193.32586 136.77063,201.61562 C 224.36115,216.92193 123.26635,253.23603 181.39865,185.95292 C 212.88261,149.51296 150.19351,130.57202 156.96871,178.25019 C 169.4785,266.28363 103.70173,181.35843 185.65564,215.85391 z"
       transform="matrix(0.4816353,0,0,0.4816353,460.11877,1108.5449)" />
    <path
       sodipodi:nodetypes="csccsc"
       d="M 355.18161,-47.68625 C 365.85766,-8.7142536 389.752,21.968041 324.30392,77.665812 C 258.85586,133.36359 274.12404,228.4141 310.16512,267.26223 C 346.20619,306.11035 354.77883,299.98799 319.01965,260.47203 C 283.26044,220.9561 266.35924,134.17038 328.43009,80.511203 C 390.50092,26.852037 366.66586,-8.8173476 355.23651,-47.403257"
       style="opacity:0.17000002;fill:#e7f1ff;fill-opacity:1;fill-rule:evenodd;stroke:none;stroke-width:1px;stroke-linecap:butt;stroke-linejoin:miter;stroke-opacity:1;filter:url(#filter3466)"
       id="path3443"
       transform="matrix(1.5198936,0,0,1.5198936,210.34436,962.68332)" />
    <path
       sodipodi:nodetypes="csccsc"
       d="M 348.37198,7.7413837 C 356.95697,39.080156 376.17126,63.752885 323.54212,108.54145 C 270.913,153.33002 283.19069,229.76353 312.17261,261.0027 C 341.15452,292.24186 348.04809,287.31865 319.29285,255.54246 C 290.5376,223.76629 276.94674,153.97879 326.86012,110.82953 C 376.77349,67.68028 357.60687,38.997255 348.41612,7.9689477"
       style="opacity:0.85;fill:#e7f1ff;fill-opacity:1;fill-rule:evenodd;stroke:none;stroke-width:1px;stroke-linecap:butt;stroke-linejoin:miter;stroke-opacity:1;filter:url(#filter3387)"
       id="path3385"
       transform="matrix(1.5198936,0,0,1.5198936,210.34436,962.68332)" />
    <path
       id="path2454"
       style="opacity:1;fill:#e7f1ff;fill-opacity:1;fill-rule:evenodd;stroke:none;stroke-width:1px;stroke-linecap:butt;stroke-linejoin:miter;stroke-opacity:1"
       d="M 612.52118,1247.0082 C 612.52571,1247.0136 612.52078,1247.0091 612.52118,1247.0082 C 612.55982,1246.9243 612.54432,1247.062 612.52118,1247.0082 C 612.21365,1246.2939 611.83051,1246.8344 611.847,1247.2075 C 611.88908,1248.1619 613.08461,1248.5005 613.87553,1248.3308 C 615.87774,1247.9012 616.49865,1245.4753 615.96788,1243.7454 C 614.84484,1240.0853 610.35871,1239.0584 607.1101,1240.2778 C 601.02203,1242.563 599.4378,1250.1413 601.79731,1255.6503 C 605.84791,1265.1079 617.80484,1267.4264 626.48695,1263.3424 C 640.43549,1256.781 643.69176,1238.8904 637.15765,1225.9437 C 627.1908,1206.1952 601.53085,1201.7704 583.04134,1211.6283 C 555.98964,1226.0513 550.13749,1261.608 564.34785,1287.1121 C 584.43918,1323.1712 632.32245,1330.7383 666.513,1310.9861 M 612.52118,1247.0082 C 612.52807,1247.0067 612.52177,1247.009 612.52118,1247.0082 C 612.46534,1246.9346 612.55455,1246.9601 612.52118,1247.0082 C 612.31553,1247.3047 612.43448,1247.7095 612.69276,1247.8209 C 613.57,1248.1992 614.41643,1247.3386 614.63943,1246.561 C 615.20393,1244.5926 613.35686,1242.9018 611.58098,1242.5548 C 607.82349,1241.8207 604.80377,1245.2936 604.34855,1248.7336 C 603.49544,1255.1802 609.43307,1260.1485 615.404,1260.6633 C 625.65448,1261.5471 633.33366,1252.0933 633.82255,1242.5111 C 634.608,1227.1164 620.36248,1215.814 605.86428,1215.4766 C 583.74922,1214.9619 567.75524,1235.5095 567.73766,1256.4628 C 567.71197,1287.1192 596.3272,1309.4755 625.50734,1308.5196 C 666.0937,1307.1901 659.98557,1284.6471 666.513,1310.9861"
       sodipodi:nodetypes="csssssssssssccsssssssssssc" />
    <path
       sodipodi:nodetypes="csssssssssssccsssssssssssc"
       d="M 531.35214,1275.9379 C 531.35547,1275.9379 531.35234,1275.9375 531.35214,1275.9379 C 531.33305,1275.9776 531.37894,1275.9301 531.35214,1275.9379 C 530.9961,1276.042 531.07827,1275.7369 531.2204,1275.6295 C 531.58402,1275.3548 532.07197,1275.6913 532.25006,1276.0336 C 532.70086,1276.9002 531.99796,1277.8659 531.20075,1278.1968 C 529.51399,1278.8968 527.77258,1277.56 527.23316,1275.9952 C 526.22218,1273.0627 528.52603,1270.1764 531.26833,1269.3687 C 535.97609,1267.9822 540.46355,1271.6723 541.602,1276.1052 C 543.43102,1283.227 537.84506,1289.8632 531.09978,1291.3976 C 520.81069,1293.7383 511.38293,1285.6518 509.38501,1275.8587 C 506.4619,1261.5304 517.75206,1248.5691 531.44685,1246.0383 C 550.80924,1242.4603 568.14855,1257.7598 571.28322,1276.3323 M 531.35214,1275.9379 C 531.35369,1275.9409 531.35261,1275.9379 531.35214,1275.9379 C 531.30811,1275.9398 531.34459,1275.9648 531.35214,1275.9379 C 531.39859,1275.7722 531.58356,1275.6928 531.70303,1275.7539 C 532.10877,1275.9613 532.04977,1276.5341 531.83178,1276.8525 C 531.27986,1277.6584 530.09684,1277.4936 529.42938,1276.9463 C 528.01717,1275.7884 528.37562,1273.6226 529.50161,1272.4094 C 531.61181,1270.1358 535.24317,1270.8078 537.24773,1272.846 C 540.689,1276.345 539.54883,1282.0418 536.17538,1285.1348 C 530.75562,1290.1039 522.27025,1288.304 517.73835,1283.0776 C 510.82554,1275.1053 513.5155,1262.9795 521.21183,1256.6026 C 532.47225,1247.2727 549.38949,1250.9937 557.90974,1262.0099 C 569.76049,1277.3323 559.61743,1281.9409 571.28322,1276.3323"
       style="opacity:1;fill:#e7f1ff;fill-opacity:1;fill-rule:evenodd;stroke:none;stroke-width:1px;stroke-linecap:butt;stroke-linejoin:miter;stroke-opacity:1"
       id="path3257" />
    <path
       id="path3373"
       style="opacity:1;fill:#e7f1ff;fill-opacity:1;fill-rule:evenodd;stroke:none;stroke-width:1px;stroke-linecap:butt;stroke-linejoin:miter;stroke-opacity:1"
       d="M 642.39546,1336.984 C 642.39573,1336.982 642.39522,1336.9838 642.39546,1336.984 C 642.41789,1336.9985 642.39279,1336.9673 642.39546,1336.984 C 642.43103,1337.2058 642.25394,1337.1333 642.20021,1337.0397 C 642.06278,1336.8005 642.3019,1336.5329 642.52105,1336.4518 C 643.07579,1336.2467 643.60268,1336.7422 643.74099,1337.2462 C 644.03361,1338.3126 643.09856,1339.2574 642.11761,1339.4628 C 640.27925,1339.8478 638.71999,1338.2449 638.44272,1336.5363 C 637.96672,1333.603 640.52374,1331.1869 643.2731,1330.8391 C 647.69018,1330.2803 651.2533,1334.1392 651.66369,1338.3077 C 652.28972,1344.6663 646.71702,1349.7169 640.68232,1350.1746 C 631.85306,1350.8443 624.92266,1343.0791 624.44063,1334.6601 C 623.75916,1322.757 634.26495,1313.5005 645.65994,1313.0255 M 642.39546,1336.984 C 642.39739,1336.9833 642.3955,1336.9837 642.39546,1336.984 C 642.39325,1337.0106 642.41105,1336.9906 642.39546,1336.984 C 642.29943,1336.9435 642.26579,1336.8264 642.31153,1336.7592 C 642.4669,1336.5312 642.80653,1336.6101 642.98125,1336.7652 C 643.42358,1337.1579 643.23484,1337.856 642.85546,1338.2155 C 642.05278,1338.9761 640.77885,1338.5966 640.13541,1337.8282 C 638.92959,1336.3881 639.60861,1334.2575 640.98502,1333.2078 C 643.34795,1331.4058 646.68384,1332.5227 648.28616,1334.7838 C 650.8604,1338.4164 649.13576,1343.3775 645.6524,1345.7037 C 640.33898,1349.2521 633.25838,1346.7168 630.01105,1341.6097 C 625.25991,1334.1377 628.77796,1324.2569 636.0419,1319.9736 C 646.14521,1314.0161 648.14478,1320.4589 645.65994,1313.0255"
       sodipodi:nodetypes="csssssssssssccsssssssssssc" />
    <path
       style="opacity:1;fill:#e7f1ff;fill-opacity:1;stroke:none;stroke-width:1;stroke-linejoin:round;stroke-miterlimit:4;stroke-dasharray:none;stroke-dashoffset:0;stroke-opacity:1"
       d="M 702.1319,1194.3312 C 695.68591,1194.3312 690.45189,1199.5595 690.45189,1206.0055 C 690.45189,1212.4515 695.68591,1217.6855 702.1319,1217.6855 C 708.57788,1217.6855 713.8119,1212.4515 713.8119,1206.0055 C 713.8119,1199.5595 708.57788,1194.3312 702.1319,1194.3312 z M 702.1319,1197.4902 C 706.83209,1197.4902 710.64714,1201.3053 710.64714,1206.0055 C 710.64714,1210.7057 706.83209,1214.5207 702.1319,1214.5207 C 697.4317,1214.5207 693.61665,1210.7057 693.61665,1206.0055 C 693.61665,1201.3053 697.4317,1197.4902 702.1319,1197.4902 z"
       id="path3294" />
    <path
       id="path3296"
       d="M 702.1319,1200.5349 C 699.11044,1200.5349 696.65708,1202.9855 696.65708,1206.007 C 696.65708,1209.0285 699.11044,1211.4818 702.1319,1211.4818 C 705.15335,1211.4818 707.60671,1209.0285 707.60671,1206.007 C 707.60671,1202.9855 705.15335,1200.5349 702.1319,1200.5349 z M 702.1319,1202.0156 C 704.33504,1202.0156 706.12328,1203.8039 706.12328,1206.007 C 706.12328,1208.2101 704.33504,1209.9984 702.1319,1209.9984 C 699.92875,1209.9984 698.14051,1208.2101 698.14051,1206.007 C 698.14051,1203.8039 699.92875,1202.0156 702.1319,1202.0156 z"
       style="opacity:1;fill:#e7f1ff;fill-opacity:1;stroke:none;stroke-width:1;stroke-linejoin:round;stroke-miterlimit:4;stroke-dasharray:none;stroke-dashoffset:0;stroke-opacity:1" />
    <path
       style="opacity:1;fill:#e7f1ff;fill-opacity:1;stroke:none;stroke-width:1;stroke-linejoin:round;stroke-miterlimit:4;stroke-dasharray:none;stroke-dashoffset:0;stroke-opacity:1"
       d="M 739.02533,1170.6327 C 733.69996,1170.6327 729.37587,1174.9521 729.37587,1180.2775 C 729.37587,1185.6028 733.69996,1189.9269 739.02533,1189.9269 C 744.35069,1189.9269 748.67479,1185.6028 748.67479,1180.2775 C 748.67479,1174.9521 744.35069,1170.6327 739.02533,1170.6327 z M 739.02533,1173.2426 C 742.90841,1173.2426 746.06022,1176.3944 746.06022,1180.2775 C 746.06022,1184.1605 742.90841,1187.3123 739.02533,1187.3123 C 735.14225,1187.3123 731.99044,1184.1605 731.99044,1180.2775 C 731.99044,1176.3944 735.14225,1173.2426 739.02533,1173.2426 z"
       id="path3300" />
    <path
       id="path3302"
       d="M 739.02533,1175.7579 C 736.52915,1175.7579 734.5023,1177.7825 734.5023,1180.2787 C 734.5023,1182.7749 736.52915,1184.8017 739.02533,1184.8017 C 741.52151,1184.8017 743.54836,1182.7749 743.54836,1180.2787 C 743.54836,1177.7825 741.52151,1175.7579 739.02533,1175.7579 z M 739.02533,1176.9812 C 740.84546,1176.9812 742.32282,1178.4586 742.32282,1180.2787 C 742.32282,1182.0988 740.84546,1183.5762 739.02533,1183.5762 C 737.2052,1183.5762 735.72784,1182.0988 735.72784,1180.2787 C 735.72784,1178.4586 737.2052,1176.9812 739.02533,1176.9812 z"
       style="opacity:1;fill:#e7f1ff;fill-opacity:1;stroke:none;stroke-width:1;stroke-linejoin:round;stroke-miterlimit:4;stroke-dasharray:none;stroke-dashoffset:0;stroke-opacity:1" />
    <g
       id="g3280"
       transform="matrix(0.6095615,0,0,0.6095615,681.35228,1105.6298)"
       style="opacity:1;fill:#e7f1ff">
      <path
         id="path3282"
         d="M 126.21875,144.40625 C 90.82931,144.40625 62.09375,173.11056 62.09375,208.5 C 62.09375,243.88944 90.82931,272.62499 126.21875,272.625 C 161.60819,272.625 190.34374,243.88944 190.34375,208.5 C 190.34375,173.11056 161.60819,144.40626 126.21875,144.40625 z M 126.21875,161.75 C 152.02355,161.75 172.96875,182.6952 172.96875,208.5 C 172.96875,234.30481 152.02355,255.25 126.21875,255.25 C 100.41395,255.25 79.46875,234.3048 79.46875,208.5 C 79.46875,182.6952 100.41395,161.75 126.21875,161.75 z"
         style="opacity:1;fill:#e7f1ff;fill-opacity:1;stroke:none;stroke-width:1;stroke-linejoin:round;stroke-miterlimit:4;stroke-dasharray:none;stroke-dashoffset:0;stroke-opacity:1" />
      <path
         style="opacity:1;fill:#e7f1ff;fill-opacity:1;stroke:none;stroke-width:1;stroke-linejoin:round;stroke-miterlimit:4;stroke-dasharray:none;stroke-dashoffset:0;stroke-opacity:1"
         d="M 126.21875,178.46538 C 109.63052,178.46538 96.161181,191.92007 96.161181,208.5083 C 96.161181,225.09654 109.63052,238.56587 126.21875,238.56587 C 142.80698,238.56587 156.27631,225.09654 156.27632,208.5083 C 156.27632,191.92007 142.80698,178.46538 126.21875,178.46538 z M 126.21875,186.59499 C 138.31434,186.59499 148.13207,196.41271 148.13207,208.5083 C 148.13207,220.60389 138.31434,230.42162 126.21875,230.42162 C 114.12316,230.42162 104.30543,220.60389 104.30543,208.5083 C 104.30543,196.41271 114.12316,186.59499 126.21875,186.59499 z"
         id="path3284" />
    </g>
    <path
       sodipodi:type="arc"
       style="opacity:1;fill:#e7f1ff;fill-opacity:1;stroke:none;stroke-width:1;stroke-linejoin:round;stroke-miterlimit:4;stroke-dasharray:none;stroke-dashoffset:0;stroke-opacity:1"
       id="path3308"
       sodipodi:cx="171.6313"
       sodipodi:cy="207.84"
       sodipodi:rx="40.069565"
       sodipodi:ry="40.069565"
       d="M 211.70087,207.84 A 40.069565,40.069565 0 1 1 131.56174,207.84 A 40.069565,40.069565 0 1 1 211.70087,207.84 z"
       transform="matrix(0.4559681,0,0,0.4559681,680.03198,1137.9645)" />
    <g
       transform="matrix(0.1135843,0,0,0.1135843,758.82584,1156.5797)"
       id="g3318"
       style="opacity:1;fill:#e7f1ff">
      <path
         style="opacity:1;fill:#e7f1ff;fill-opacity:1;stroke:none;stroke-width:1;stroke-linejoin:round;stroke-miterlimit:4;stroke-dasharray:none;stroke-dashoffset:0;stroke-opacity:1"
         d="M 126.21875,144.40625 C 90.82931,144.40625 62.09375,173.11056 62.09375,208.5 C 62.09375,243.88944 90.82931,272.62499 126.21875,272.625 C 161.60819,272.625 190.34374,243.88944 190.34375,208.5 C 190.34375,173.11056 161.60819,144.40626 126.21875,144.40625 z M 126.21875,161.75 C 152.02355,161.75 172.96875,182.6952 172.96875,208.5 C 172.96875,234.30481 152.02355,255.25 126.21875,255.25 C 100.41395,255.25 79.46875,234.3048 79.46875,208.5 C 79.46875,182.6952 100.41395,161.75 126.21875,161.75 z"
         id="path3320" />
      <path
         id="path3322"
         d="M 126.21875,178.46538 C 109.63052,178.46538 96.161181,191.92007 96.161181,208.5083 C 96.161181,225.09654 109.63052,238.56587 126.21875,238.56587 C 142.80698,238.56587 156.27631,225.09654 156.27632,208.5083 C 156.27632,191.92007 142.80698,178.46538 126.21875,178.46538 z M 126.21875,186.59499 C 138.31434,186.59499 148.13207,196.41271 148.13207,208.5083 C 148.13207,220.60389 138.31434,230.42162 126.21875,230.42162 C 114.12316,230.42162 104.30543,220.60389 104.30543,208.5083 C 104.30543,196.41271 114.12316,186.59499 126.21875,186.59499 z"
         style="opacity:1;fill:#e7f1ff;fill-opacity:1;stroke:none;stroke-width:1;stroke-linejoin:round;stroke-miterlimit:4;stroke-dasharray:none;stroke-dashoffset:0;stroke-opacity:1" />
    </g>
    <path
       transform="matrix(8.496405e-2,0,0,8.496405e-2,758.57982,1162.6049)"
       d="M 211.70087,207.84 A 40.069565,40.069565 0 1 1 131.56174,207.84 A 40.069565,40.069565 0 1 1 211.70087,207.84 z"
       sodipodi:ry="40.069565"
       sodipodi:rx="40.069565"
       sodipodi:cy="207.84"
       sodipodi:cx="171.6313"
       id="path3324"
       style="opacity:1;fill:#e7f1ff;fill-opacity:1;stroke:none;stroke-width:1;stroke-linejoin:round;stroke-miterlimit:4;stroke-dasharray:none;stroke-dashoffset:0;stroke-opacity:1"
       sodipodi:type="arc" />
    <path
       sodipodi:type="star"
       style="opacity:1;fill:#e7f1ff;fill-opacity:1;stroke:none;stroke-width:1;stroke-linejoin:round;stroke-miterlimit:4;stroke-dasharray:none;stroke-dashoffset:0;stroke-opacity:1"
       id="path11209"
       sodipodi:sides="5"
       sodipodi:cx="162.94955"
       sodipodi:cy="203.83304"
       sodipodi:r1="25.691782"
       sodipodi:r2="26.272663"
       sodipodi:arg1="0.48689923"
       sodipodi:arg2="-0.54381798"
       inkscape:flatsided="false"
       inkscape:rounded="1.88"
       inkscape:randomized="0"
       d="M 185.65564,215.85391 C 230.04118,234.53637 228.68309,169.06242 185.43211,190.23938 C 105.57307,229.34073 166.01559,140.53997 158.53359,229.14246 C 154.48141,277.12882 216.33116,255.60463 182.82538,221.01455 C 120.95999,157.14707 224.0923,187.19038 137.51425,207.45425 C 90.624323,218.42899 130.20767,270.60026 152.75094,228.04545 C 194.37506,149.47183 197.67181,256.84038 151.64563,180.76165 C 126.71825,139.55805 89.332353,193.32586 136.77063,201.61562 C 224.36115,216.92193 123.26635,253.23603 181.39865,185.95292 C 212.88261,149.51296 150.19351,130.57202 156.96871,178.25019 C 169.4785,266.28363 103.70173,181.35843 185.65564,215.85391 z"
       transform="matrix(0.5573294,0,0,0.5573294,593.42381,951.7204)" />
    <path
       transform="matrix(0.2891761,0,0,0.2891761,662.89718,1101.6642)"
       d="M 185.65564,215.85391 C 230.04118,234.53637 228.68309,169.06242 185.43211,190.23938 C 105.57307,229.34073 166.01559,140.53997 158.53359,229.14246 C 154.48141,277.12882 216.33116,255.60463 182.82538,221.01455 C 120.95999,157.14707 224.0923,187.19038 137.51425,207.45425 C 90.624323,218.42899 130.20767,270.60026 152.75094,228.04545 C 194.37506,149.47183 197.67181,256.84038 151.64563,180.76165 C 126.71825,139.55805 89.332353,193.32586 136.77063,201.61562 C 224.36115,216.92193 123.26635,253.23603 181.39865,185.95292 C 212.88261,149.51296 150.19351,130.57202 156.96871,178.25019 C 169.4785,266.28363 103.70173,181.35843 185.65564,215.85391 z"
       inkscape:randomized="0"
       inkscape:rounded="1.88"
       inkscape:flatsided="false"
       sodipodi:arg2="-0.54381798"
       sodipodi:arg1="0.48689923"
       sodipodi:r2="26.272663"
       sodipodi:r1="25.691782"
       sodipodi:cy="203.83304"
       sodipodi:cx="162.94955"
       sodipodi:sides="5"
       id="path11211"
       style="opacity:1;fill:#e7f1ff;fill-opacity:1;stroke:none;stroke-width:1;stroke-linejoin:round;stroke-miterlimit:4;stroke-dasharray:none;stroke-dashoffset:0;stroke-opacity:1"
       sodipodi:type="star" />
    <path
       id="path11213"
       style="opacity:0.85;fill:#e7f1ff;fill-opacity:1;fill-rule:evenodd;stroke:none;stroke-width:1px;stroke-linecap:butt;stroke-linejoin:miter;stroke-opacity:1"
       d="M 739.83277,974.4494 C 752.88103,1022.081 782.08473,1059.5809 702.09402,1127.6548 C 622.10334,1195.7287 640.76414,1311.8995 684.81357,1359.3797 C 728.86301,1406.8599 739.34049,1399.3772 695.63559,1351.0807 C 651.93066,1302.7843 631.27398,1196.7147 707.13702,1131.1324 C 783.00005,1065.5502 753.86882,1021.955 739.89986,974.79527"
       sodipodi:nodetypes="csccsc" />
    <path
       sodipodi:nodetypes="csssssssssssccsssssssssssc"
       d="M 754.36396,1107.537 C 754.36111,1107.5376 754.36387,1107.5374 754.36396,1107.537 C 754.37227,1107.4995 754.3428,1107.5489 754.36396,1107.537 C 754.64503,1107.3782 754.63589,1107.653 754.53673,1107.7722 C 754.28306,1108.0771 753.80286,1107.8887 753.58408,1107.6339 C 753.03026,1106.9889 753.43443,1106.0312 754.04441,1105.5928 C 755.33502,1104.6652 757.07572,1105.4527 757.8431,1106.6718 C 759.28121,1108.9564 757.90113,1111.8591 755.73738,1113.0872 C 752.02282,1115.1955 747.4885,1112.9581 745.64489,1109.4273 C 742.68298,1103.7548 746.10096,1097.0237 751.51283,1094.3861 C 759.76791,1090.3627 769.36035,1095.3462 772.99499,1103.249 C 778.31277,1114.8115 771.31497,1128.0334 760.21151,1132.8932 C 744.51288,1139.764 726.78601,1130.2366 720.44748,1115.1194 M 754.36396,1107.537 C 754.36206,1107.5348 754.36358,1107.5371 754.36396,1107.537 C 754.40091,1107.5267 754.36502,1107.5127 754.36396,1107.537 C 754.35745,1107.6866 754.21645,1107.7905 754.1031,1107.7625 C 753.71814,1107.6671 753.65457,1107.1701 753.7762,1106.857 C 754.0841,1106.0647 755.11931,1105.9698 755.79342,1106.3013 C 757.21973,1107.0025 757.34537,1108.9089 756.63169,1110.1602 C 755.29422,1112.5052 752.08372,1112.6557 749.98093,1111.326 C 746.37102,1109.0431 746.2078,1103.9895 748.45331,1100.6996 C 752.06093,1095.4142 759.60844,1095.2572 764.48503,1098.7877 C 771.92361,1104.173 772.04816,1114.9819 766.79039,1121.9117 C 759.09785,1132.0504 744.02417,1132.2511 734.61992,1124.605 C 721.53962,1113.9701 729.22135,1108.0538 720.44748,1115.1194"
       style="opacity:1;fill:#e7f1ff;fill-opacity:1;fill-rule:evenodd;stroke:none;stroke-width:1px;stroke-linecap:butt;stroke-linejoin:miter;stroke-opacity:1"
       id="path3349" />
    <path
       id="path3351"
       style="opacity:1;fill:#e7f1ff;fill-opacity:1;fill-rule:evenodd;stroke:none;stroke-width:1px;stroke-linecap:butt;stroke-linejoin:miter;stroke-opacity:1"
       d="M 775.08909,1134.3413 C 775.08809,1134.3406 775.08912,1134.3411 775.08909,1134.3413 C 775.0866,1134.357 775.08275,1134.3335 775.08909,1134.3413 C 775.17331,1134.4453 775.21159,1134.3379 775.19148,1134.2769 C 775.14004,1134.1207 774.92622,1134.1203 774.80312,1134.1853 C 774.49149,1134.3498 774.50167,1134.7805 774.6702,1135.0423 C 775.02676,1135.5963 775.81772,1135.5574 776.299,1135.204 C 777.20098,1134.5418 777.11029,1133.2127 776.46275,1132.4101 C 775.35113,1131.0322 773.26249,1131.2053 772.01466,1132.2864 C 770.00989,1134.0231 770.30412,1137.1383 771.9897,1138.9784 C 774.56084,1141.7852 779.01743,1141.3226 781.62078,1138.8281 C 785.42969,1135.1786 784.7423,1129.0162 781.20008,1125.4537 C 776.19189,1120.4169 767.90773,1121.3945 763.16462,1126.2595 M 775.08909,1134.3413 C 775.08802,1134.3419 775.08895,1134.3412 775.08909,1134.3413 C 775.10177,1134.3509 775.0858,1134.3508 775.08909,1134.3413 C 775.10934,1134.2826 775.07077,1134.2211 775.0228,1134.2147 C 774.85987,1134.1929 774.75976,1134.3749 774.75905,1134.5141 C 774.75727,1134.8664 775.142,1135.0604 775.45234,1135.0351 C 776.10895,1134.9817 776.44732,1134.2657 776.36245,1133.6747 C 776.20338,1132.5671 774.98835,1132.0208 773.97532,1132.2137 C 772.2362,1132.545 771.40468,1134.4687 771.77019,1136.0787 C 772.3574,1138.6654 775.24371,1139.8738 777.66098,1139.2541 C 781.34819,1138.3089 783.04008,1134.1601 782.06668,1130.6885 C 780.6425,1125.6092 774.86086,1123.2394 770.07189,1124.7574 C 763.41095,1126.8687 765.47311,1130.3182 763.16462,1126.2595"
       sodipodi:nodetypes="csssssssssssccsssssssssssc" />
    <path
       id="path3355"
       style="opacity:1;fill:#e7f1ff;fill-opacity:1;fill-rule:evenodd;stroke:none;stroke-width:1px;stroke-linecap:butt;stroke-linejoin:miter;stroke-opacity:1"
       d="M 650.43675,1152.3232 C 650.43967,1152.3231 650.43691,1152.3228 650.43675,1152.3232 C 650.42213,1152.3587 650.45966,1152.3151 650.43675,1152.3232 C 650.13256,1152.4313 650.18883,1152.1621 650.30701,1152.0618 C 650.60932,1151.8051 651.04997,1152.0732 651.22168,1152.3618 C 651.65634,1153.0924 651.09349,1153.9664 650.41721,1154.2934 C 648.98631,1154.9852 647.40697,1153.9101 646.86067,1152.5772 C 645.83686,1150.0793 647.69553,1147.4572 650.03823,1146.6195 C 654.06001,1145.1814 658.14204,1148.1651 659.35102,1151.9604 C 661.29332,1158.0578 656.76876,1164.1008 650.98393,1165.7685 C 642.15995,1168.3123 633.56738,1161.7535 631.34589,1153.3434 C 628.09566,1141.0387 637.26293,1129.2171 649.03667,1126.3392 C 665.68299,1122.2702 681.50739,1134.7042 685.15188,1150.6862 M 650.43675,1152.3232 C 650.43825,1152.3257 650.43715,1152.3232 650.43675,1152.3232 C 650.39859,1152.327 650.43153,1152.3469 650.43675,1152.3232 C 650.4689,1152.1769 650.62568,1152.0988 650.73251,1152.1459 C 651.09534,1152.306 651.07248,1152.8066 650.89884,1153.0941 C 650.45926,1153.8217 649.42317,1153.7371 648.81609,1153.2947 C 647.53162,1152.3586 647.73569,1150.459 648.65391,1149.349 C 650.37471,1147.269 653.56327,1147.6728 655.40606,1149.3444 C 658.56962,1152.214 657.86137,1157.2204 655.08357,1160.0751 C 650.62079,1164.6614 643.15871,1163.5182 638.96189,1159.2017 C 632.5602,1152.6175 634.29627,1141.9481 640.66737,1136.0257 C 649.98882,1127.3609 664.87246,1129.7553 672.82177,1138.9047 C 683.87838,1151.6305 675.29369,1156.1377 685.15188,1150.6862"
       sodipodi:nodetypes="csssssssssssccsssssssssssc" />
    <path
       sodipodi:nodetypes="csssssssssssccsssssssssssc"
       d="M 634.62975,1122.3542 C 634.63062,1122.3551 634.62969,1122.3544 634.62975,1122.3542 C 634.6349,1122.3392 634.63465,1122.363 634.62975,1122.3542 C 634.56467,1122.2373 634.50849,1122.3365 634.5178,1122.4001 C 634.54164,1122.5627 634.7522,1122.5999 634.88464,1122.557 C 635.21991,1122.4486 635.28395,1122.0225 635.16296,1121.7356 C 634.90697,1121.1286 634.1211,1121.0309 633.58622,1121.2963 C 632.5838,1121.7935 632.44459,1123.1184 632.94445,1124.0204 C 633.80258,1125.5689 635.88986,1125.7576 637.30501,1124.9072 C 639.57858,1123.541 639.82444,1120.4217 638.48039,1118.3191 C 636.43023,1115.112 631.96046,1114.8014 628.96695,1116.811 C 624.58718,1119.7512 624.20461,1125.94 627.08145,1130.0585 C 631.14888,1135.8816 639.47776,1136.343 644.9868,1132.3662 M 634.62975,1122.3542 C 634.63091,1122.3538 634.62987,1122.3543 634.62975,1122.3542 C 634.61891,1122.3426 634.63463,1122.3454 634.62975,1122.3542 C 634.59971,1122.4085 634.62713,1122.4758 634.67328,1122.4903 C 634.83004,1122.5398 634.95995,1122.3778 634.98459,1122.2408 C 635.04693,1121.894 634.70129,1121.6367 634.39124,1121.6082 C 633.73521,1121.548 633.27875,1122.1951 633.26073,1122.7919 C 633.22696,1123.9104 634.32995,1124.6575 635.36107,1124.6416 C 637.13123,1124.6144 638.28119,1122.8622 638.19799,1121.2134 C 638.06433,1118.5643 635.42882,1116.8775 632.94101,1117.0723 C 629.14618,1117.3693 626.76605,1121.1654 627.12796,1124.7527 C 627.65747,1130.0012 632.94545,1133.33 637.92412,1132.6581 C 644.84891,1131.7237 643.41066,1127.9709 644.9868,1132.3662"
       style="opacity:1;fill:#e7f1ff;fill-opacity:1;fill-rule:evenodd;stroke:none;stroke-width:1px;stroke-linecap:butt;stroke-linejoin:miter;stroke-opacity:1"
       id="path3357" />
    <path
       sodipodi:type="star"
       style="opacity:1;fill:#e7f1ff;fill-opacity:1;stroke:none;stroke-width:1;stroke-linejoin:round;stroke-miterlimit:4;stroke-dasharray:none;stroke-dashoffset:0;stroke-opacity:1"
       id="path3375"
       sodipodi:sides="5"
       sodipodi:cx="162.94955"
       sodipodi:cy="203.83304"
       sodipodi:r1="25.691782"
       sodipodi:r2="26.272663"
       sodipodi:arg1="0.48689923"
       sodipodi:arg2="-0.54381798"
       inkscape:flatsided="false"
       inkscape:rounded="1.88"
       inkscape:randomized="0"
       d="M 185.65564,215.85391 C 230.04118,234.53637 228.68309,169.06242 185.43211,190.23938 C 105.57307,229.34073 166.01559,140.53997 158.53359,229.14246 C 154.48141,277.12882 216.33116,255.60463 182.82538,221.01455 C 120.95999,157.14707 224.0923,187.19038 137.51425,207.45425 C 90.624323,218.42899 130.20767,270.60026 152.75094,228.04545 C 194.37506,149.47183 197.67181,256.84038 151.64563,180.76165 C 126.71825,139.55805 89.332353,193.32586 136.77063,201.61562 C 224.36115,216.92193 123.26635,253.23603 181.39865,185.95292 C 212.88261,149.51296 150.19351,130.57202 156.96871,178.25019 C 169.4785,266.28363 103.70173,181.35843 185.65564,215.85391 z"
       transform="matrix(0.1207911,0,0,0.1207911,601.20521,1115.983)" />
    <path
       id="path3377"
       style="opacity:1;fill:#e7f1ff;fill-opacity:1;fill-rule:evenodd;stroke:none;stroke-width:1px;stroke-linecap:butt;stroke-linejoin:miter;stroke-opacity:1"
       d="M 570.3588,1070.8955 C 606.71347,1112.2119 568.26093,1180.0356 658.34422,1198.258 C 661.6562,1199.6548 658.50282,1203.935 655.13044,1202.8721 C 565.04715,1184.6498 606.62497,1112.2708 570.27028,1070.9543"
       sodipodi:nodetypes="cccc" />
    <path
       id="path3447"
       style="opacity:0.17000002;fill:#e7f1ff;fill-opacity:1;fill-rule:evenodd;stroke:none;stroke-width:1px;stroke-linecap:butt;stroke-linejoin:miter;stroke-opacity:1;filter:url(#filter3474)"
       d="M 373.82647,9.1947481 C 321.49122,-12.306164 230.30772,63.25072 334.00723,218.82243 C 348.43662,241.37427 321.1875,232.13552 328.69961,231.38685 C 223.11475,58.84704 320.96767,-14.683318 373.56705,9.1947481"
       sodipodi:nodetypes="cccc"
       transform="matrix(1.5198936,0,0,1.5198936,210.34436,962.68332)" />
    <g
       id="g3270"
       transform="matrix(1.6307227,0,0,1.6307227,593.22858,1005.5504)"
       style="opacity:1;fill:#e7f1ff">
      <path
         id="path3263"
         d="M 126.21875,144.40625 C 90.82931,144.40625 62.09375,173.11056 62.09375,208.5 C 62.09375,243.88944 90.82931,272.62499 126.21875,272.625 C 161.60819,272.625 190.34374,243.88944 190.34375,208.5 C 190.34375,173.11056 161.60819,144.40626 126.21875,144.40625 z M 126.21875,161.75 C 152.02355,161.75 172.96875,182.6952 172.96875,208.5 C 172.96875,234.30481 152.02355,255.25 126.21875,255.25 C 100.41395,255.25 79.46875,234.3048 79.46875,208.5 C 79.46875,182.6952 100.41395,161.75 126.21875,161.75 z"
         style="opacity:1;fill:#e7f1ff;fill-opacity:1;stroke:none;stroke-width:1;stroke-linejoin:round;stroke-miterlimit:4;stroke-dasharray:none;stroke-dashoffset:0;stroke-opacity:1" />
      <path
         style="opacity:1;fill:#e7f1ff;fill-opacity:1;stroke:none;stroke-width:1;stroke-linejoin:round;stroke-miterlimit:4;stroke-dasharray:none;stroke-dashoffset:0;stroke-opacity:1"
         d="M 126.21875,178.46538 C 109.63052,178.46538 96.161181,191.92007 96.161181,208.5083 C 96.161181,225.09654 109.63052,238.56587 126.21875,238.56587 C 142.80698,238.56587 156.27631,225.09654 156.27632,208.5083 C 156.27632,191.92007 142.80698,178.46538 126.21875,178.46538 z M 126.21875,186.59499 C 138.31434,186.59499 148.13207,196.41271 148.13207,208.5083 C 148.13207,220.60389 138.31434,230.42162 126.21875,230.42162 C 114.12316,230.42162 104.30543,220.60389 104.30543,208.5083 C 104.30543,196.41271 114.12316,186.59499 126.21875,186.59499 z"
         id="path3268" />
    </g>
    <g
       transform="matrix(0.2850568,0,0,0.2850568,657.94511,1201.2263)"
       id="g3286"
       style="opacity:1;fill:#e7f1ff">
      <path
         style="opacity:1;fill:#e7f1ff;fill-opacity:1;stroke:none;stroke-width:1;stroke-linejoin:round;stroke-miterlimit:4;stroke-dasharray:none;stroke-dashoffset:0;stroke-opacity:1"
         d="M 126.21875,144.40625 C 90.82931,144.40625 62.09375,173.11056 62.09375,208.5 C 62.09375,243.88944 90.82931,272.62499 126.21875,272.625 C 161.60819,272.625 190.34374,243.88944 190.34375,208.5 C 190.34375,173.11056 161.60819,144.40626 126.21875,144.40625 z M 126.21875,161.75 C 152.02355,161.75 172.96875,182.6952 172.96875,208.5 C 172.96875,234.30481 152.02355,255.25 126.21875,255.25 C 100.41395,255.25 79.46875,234.3048 79.46875,208.5 C 79.46875,182.6952 100.41395,161.75 126.21875,161.75 z"
         id="path3288" />
      <path
         id="path3290"
         d="M 126.21875,178.46538 C 109.63052,178.46538 96.161181,191.92007 96.161181,208.5083 C 96.161181,225.09654 109.63052,238.56587 126.21875,238.56587 C 142.80698,238.56587 156.27631,225.09654 156.27632,208.5083 C 156.27632,191.92007 142.80698,178.46538 126.21875,178.46538 z M 126.21875,186.59499 C 138.31434,186.59499 148.13207,196.41271 148.13207,208.5083 C 148.13207,220.60389 138.31434,230.42162 126.21875,230.42162 C 114.12316,230.42162 104.30543,220.60389 104.30543,208.5083 C 104.30543,196.41271 114.12316,186.59499 126.21875,186.59499 z"
         style="opacity:1;fill:#e7f1ff;fill-opacity:1;stroke:none;stroke-width:1;stroke-linejoin:round;stroke-miterlimit:4;stroke-dasharray:none;stroke-dashoffset:0;stroke-opacity:1" />
    </g>
    <path
       sodipodi:nodetypes="csssssssssssccsssssssssssc"
       d="M 794.99458,1336.3323 C 794.9978,1336.3362 794.99429,1336.333 794.99458,1336.3323 C 795.02216,1336.2724 795.0111,1336.3708 794.99458,1336.3323 C 794.77495,1335.8222 794.50133,1336.2082 794.51311,1336.4747 C 794.54314,1337.1562 795.39696,1337.3981 795.9618,1337.2769 C 797.39168,1336.97 797.8351,1335.2376 797.45604,1334.0022 C 796.65402,1331.3884 793.45025,1330.6549 791.13022,1331.5258 C 786.78243,1333.1578 785.65107,1338.5698 787.33609,1342.5041 C 790.22885,1349.2583 798.76792,1350.914 804.96824,1347.9974 C 814.92964,1343.3116 817.25511,1330.535 812.58875,1321.2891 C 805.4709,1307.1856 787.1458,1304.0256 773.94149,1311.0657 C 754.62244,1321.3659 750.44312,1346.7588 760.59147,1364.9726 C 774.93975,1390.7243 806.07209,1391.3141 830.48935,1377.2081 M 794.99458,1336.3323 C 794.99948,1336.3313 794.99499,1336.3329 794.99458,1336.3323 C 794.9547,1336.2798 795.01839,1336.298 794.99458,1336.3323 C 794.84771,1336.5441 794.93266,1336.8332 795.1171,1336.9127 C 795.7436,1337.1829 796.34806,1336.5683 796.50734,1336.013 C 796.91046,1334.6072 795.59138,1333.3997 794.32314,1333.1519 C 791.6397,1332.6277 789.48316,1335.1079 789.15808,1337.5645 C 788.54883,1342.1684 792.78919,1345.7165 797.05334,1346.0842 C 804.37374,1346.7153 809.85784,1339.9639 810.207,1333.1207 C 810.76792,1322.1265 800.59445,1314.055 790.24054,1313.814 C 774.44702,1313.4464 763.02489,1328.1205 763.01231,1343.0844 C 762.99399,1364.9777 783.4296,1380.9435 804.26867,1380.2608 C 833.2535,1379.3114 825.82779,1358.398 830.48935,1377.2081"
       style="opacity:1;fill:#e7f1ff;fill-opacity:1;fill-rule:evenodd;stroke:none;stroke-width:1px;stroke-linecap:butt;stroke-linejoin:miter;stroke-opacity:1"
       id="path3484" />
    <g
       transform="matrix(0.9131407,0,0,-0.9131407,733.21652,1402.8604)"
       id="g3516"
       style="opacity:1;fill:#e7f1ff">
      <path
         style="opacity:1;fill:#e7f1ff;fill-opacity:1;stroke:none;stroke-width:1;stroke-linejoin:round;stroke-miterlimit:4;stroke-dasharray:none;stroke-dashoffset:0;stroke-opacity:1"
         d="M 126.21875,144.40625 C 90.82931,144.40625 62.09375,173.11056 62.09375,208.5 C 62.09375,243.88944 90.82931,272.62499 126.21875,272.625 C 161.60819,272.625 190.34374,243.88944 190.34375,208.5 C 190.34375,173.11056 161.60819,144.40626 126.21875,144.40625 z M 126.21875,161.75 C 152.02355,161.75 172.96875,182.6952 172.96875,208.5 C 172.96875,234.30481 152.02355,255.25 126.21875,255.25 C 100.41395,255.25 79.46875,234.3048 79.46875,208.5 C 79.46875,182.6952 100.41395,161.75 126.21875,161.75 z"
         id="path3518" />
      <path
         id="path3520"
         d="M 126.21875,178.46538 C 109.63052,178.46538 96.161181,191.92007 96.161181,208.5083 C 96.161181,225.09654 109.63052,238.56587 126.21875,238.56587 C 142.80698,238.56587 156.27631,225.09654 156.27632,208.5083 C 156.27632,191.92007 142.80698,178.46538 126.21875,178.46538 z M 126.21875,186.59499 C 138.31434,186.59499 148.13207,196.41271 148.13207,208.5083 C 148.13207,220.60389 138.31434,230.42162 126.21875,230.42162 C 114.12316,230.42162 104.30543,220.60389 104.30543,208.5083 C 104.30543,196.41271 114.12316,186.59499 126.21875,186.59499 z"
         style="opacity:1;fill:#e7f1ff;fill-opacity:1;stroke:none;stroke-width:1;stroke-linejoin:round;stroke-miterlimit:4;stroke-dasharray:none;stroke-dashoffset:0;stroke-opacity:1" />
    </g>
    <g
       id="g3528"
       transform="matrix(0.9131407,0,0,-0.9131407,733.21652,1402.8604)"
       style="opacity:1;fill:#e7f1ff">
      <path
         id="path3530"
         d="M 126.21875,144.40625 C 90.82931,144.40625 62.09375,173.11056 62.09375,208.5 C 62.09375,243.88944 90.82931,272.62499 126.21875,272.625 C 161.60819,272.625 190.34374,243.88944 190.34375,208.5 C 190.34375,173.11056 161.60819,144.40626 126.21875,144.40625 z M 126.21875,161.75 C 152.02355,161.75 172.96875,182.6952 172.96875,208.5 C 172.96875,234.30481 152.02355,255.25 126.21875,255.25 C 100.41395,255.25 79.46875,234.3048 79.46875,208.5 C 79.46875,182.6952 100.41395,161.75 126.21875,161.75 z"
         style="opacity:1;fill:#e7f1ff;fill-opacity:1;stroke:none;stroke-width:1;stroke-linejoin:round;stroke-miterlimit:4;stroke-dasharray:none;stroke-dashoffset:0;stroke-opacity:1" />
      <path
         style="opacity:1;fill:#e7f1ff;fill-opacity:1;stroke:none;stroke-width:1;stroke-linejoin:round;stroke-miterlimit:4;stroke-dasharray:none;stroke-dashoffset:0;stroke-opacity:1"
         d="M 126.21875,178.46538 C 109.63052,178.46538 96.161181,191.92007 96.161181,208.5083 C 96.161181,225.09654 109.63052,238.56587 126.21875,238.56587 C 142.80698,238.56587 156.27631,225.09654 156.27632,208.5083 C 156.27632,191.92007 142.80698,178.46538 126.21875,178.46538 z M 126.21875,186.59499 C 138.31434,186.59499 148.13207,196.41271 148.13207,208.5083 C 148.13207,220.60389 138.31434,230.42162 126.21875,230.42162 C 114.12316,230.42162 104.30543,220.60389 104.30543,208.5083 C 104.30543,196.41271 114.12316,186.59499 126.21875,186.59499 z"
         id="path3532" />
    </g>
    <path
       id="path3552"
       style="opacity:1;fill:#e7f1ff;fill-opacity:1;fill-rule:evenodd;stroke:none;stroke-width:1px;stroke-linecap:butt;stroke-linejoin:miter;stroke-opacity:1"
       d="M 846.19755,1217.6355 C 846.19936,1217.6333 846.19739,1217.6351 846.19755,1217.6355 C 846.213,1217.669 846.2068,1217.6139 846.19755,1217.6355 C 846.07457,1217.9211 845.92135,1217.705 845.92795,1217.5558 C 845.94477,1217.1741 846.42287,1217.0387 846.73916,1217.1066 C 847.53984,1217.2784 847.78813,1218.2485 847.57587,1218.9402 C 847.12678,1220.4039 845.33279,1220.8146 844.03366,1220.3269 C 841.59907,1219.4131 840.96555,1216.3826 841.9091,1214.1795 C 843.52893,1210.3974 848.31047,1209.4703 851.78241,1211.1035 C 857.36041,1213.7274 858.66258,1220.8818 856.0496,1226.0591 C 852.06388,1233.9565 841.80254,1235.7259 834.40865,1231.7838 C 823.59074,1226.0161 821.25049,1211.7971 826.93316,1201.598 C 834.96764,1187.1781 854.11602,1184.152 867.78872,1192.0509 M 846.19755,1217.6355 C 846.2003,1217.6361 846.19779,1217.6352 846.19755,1217.6355 C 846.17522,1217.6649 846.21089,1217.6547 846.19755,1217.6355 C 846.11531,1217.5169 846.16288,1217.355 846.26616,1217.3105 C 846.61698,1217.1592 846.95545,1217.5033 847.04464,1217.8143 C 847.27037,1218.6015 846.53174,1219.2776 845.82157,1219.4164 C 844.31895,1219.7099 843.11138,1218.3211 842.92934,1216.9455 C 842.58818,1214.3675 844.96262,1212.3807 847.35038,1212.1748 C 851.44952,1211.8214 854.52039,1215.6019 854.71591,1219.4338 C 855.03001,1225.5901 849.33326,1230.1099 843.53548,1230.2448 C 834.69172,1230.4507 828.29578,1222.2338 828.28874,1213.8546 C 828.27848,1201.5952 839.72162,1192.655 851.39068,1193.0372 C 867.62105,1193.5689 865.17843,1202.5838 867.78872,1192.0509"
       sodipodi:nodetypes="csssssssssssccsssssssssssc" />
    <g
       id="g3570"
       transform="matrix(0.7554757,0,0,0.7554757,585.36409,1261.2843)"
       style="opacity:1;fill:#e7f1ff">
      <path
         id="path3572"
         d="M 126.21875,144.40625 C 90.82931,144.40625 62.09375,173.11056 62.09375,208.5 C 62.09375,243.88944 90.82931,272.62499 126.21875,272.625 C 161.60819,272.625 190.34374,243.88944 190.34375,208.5 C 190.34375,173.11056 161.60819,144.40626 126.21875,144.40625 z M 126.21875,161.75 C 152.02355,161.75 172.96875,182.6952 172.96875,208.5 C 172.96875,234.30481 152.02355,255.25 126.21875,255.25 C 100.41395,255.25 79.46875,234.3048 79.46875,208.5 C 79.46875,182.6952 100.41395,161.75 126.21875,161.75 z"
         style="opacity:1;fill:#e7f1ff;fill-opacity:1;stroke:none;stroke-width:1;stroke-linejoin:round;stroke-miterlimit:4;stroke-dasharray:none;stroke-dashoffset:0;stroke-opacity:1" />
      <path
         style="opacity:1;fill:#e7f1ff;fill-opacity:1;stroke:none;stroke-width:1;stroke-linejoin:round;stroke-miterlimit:4;stroke-dasharray:none;stroke-dashoffset:0;stroke-opacity:1"
         d="M 126.21875,178.46538 C 109.63052,178.46538 96.161181,191.92007 96.161181,208.5083 C 96.161181,225.09654 109.63052,238.56587 126.21875,238.56587 C 142.80698,238.56587 156.27631,225.09654 156.27632,208.5083 C 156.27632,191.92007 142.80698,178.46538 126.21875,178.46538 z M 126.21875,186.59499 C 138.31434,186.59499 148.13207,196.41271 148.13207,208.5083 C 148.13207,220.60389 138.31434,230.42162 126.21875,230.42162 C 114.12316,230.42162 104.30543,220.60389 104.30543,208.5083 C 104.30543,196.41271 114.12316,186.59499 126.21875,186.59499 z"
         id="path3574" />
    </g>
    <g
       transform="matrix(0.1320602,0,0,0.1320602,615.34574,1351.9364)"
       id="g3576"
       style="opacity:1;fill:#e7f1ff">
      <path
         style="opacity:1;fill:#e7f1ff;fill-opacity:1;stroke:none;stroke-width:1;stroke-linejoin:round;stroke-miterlimit:4;stroke-dasharray:none;stroke-dashoffset:0;stroke-opacity:1"
         d="M 126.21875,144.40625 C 90.82931,144.40625 62.09375,173.11056 62.09375,208.5 C 62.09375,243.88944 90.82931,272.62499 126.21875,272.625 C 161.60819,272.625 190.34374,243.88944 190.34375,208.5 C 190.34375,173.11056 161.60819,144.40626 126.21875,144.40625 z M 126.21875,161.75 C 152.02355,161.75 172.96875,182.6952 172.96875,208.5 C 172.96875,234.30481 152.02355,255.25 126.21875,255.25 C 100.41395,255.25 79.46875,234.3048 79.46875,208.5 C 79.46875,182.6952 100.41395,161.75 126.21875,161.75 z"
         id="path3578" />
      <path
         id="path3580"
         d="M 126.21875,178.46538 C 109.63052,178.46538 96.161181,191.92007 96.161181,208.5083 C 96.161181,225.09654 109.63052,238.56587 126.21875,238.56587 C 142.80698,238.56587 156.27631,225.09654 156.27632,208.5083 C 156.27632,191.92007 142.80698,178.46538 126.21875,178.46538 z M 126.21875,186.59499 C 138.31434,186.59499 148.13207,196.41271 148.13207,208.5083 C 148.13207,220.60389 138.31434,230.42162 126.21875,230.42162 C 114.12316,230.42162 104.30543,220.60389 104.30543,208.5083 C 104.30543,196.41271 114.12316,186.59499 126.21875,186.59499 z"
         style="opacity:1;fill:#e7f1ff;fill-opacity:1;stroke:none;stroke-width:1;stroke-linejoin:round;stroke-miterlimit:4;stroke-dasharray:none;stroke-dashoffset:0;stroke-opacity:1" />
    </g>
    <g
       transform="matrix(0.7554757,0,0,0.7554757,585.36409,1261.2843)"
       id="g3582"
       style="opacity:1;fill:#e7f1ff">
      <path
         style="opacity:1;fill:#e7f1ff;fill-opacity:1;stroke:none;stroke-width:1;stroke-linejoin:round;stroke-miterlimit:4;stroke-dasharray:none;stroke-dashoffset:0;stroke-opacity:1"
         d="M 126.21875,144.40625 C 90.82931,144.40625 62.09375,173.11056 62.09375,208.5 C 62.09375,243.88944 90.82931,272.62499 126.21875,272.625 C 161.60819,272.625 190.34374,243.88944 190.34375,208.5 C 190.34375,173.11056 161.60819,144.40626 126.21875,144.40625 z M 126.21875,161.75 C 152.02355,161.75 172.96875,182.6952 172.96875,208.5 C 172.96875,234.30481 152.02355,255.25 126.21875,255.25 C 100.41395,255.25 79.46875,234.3048 79.46875,208.5 C 79.46875,182.6952 100.41395,161.75 126.21875,161.75 z"
         id="path3584" />
      <path
         id="path3586"
         d="M 126.21875,178.46538 C 109.63052,178.46538 96.161181,191.92007 96.161181,208.5083 C 96.161181,225.09654 109.63052,238.56587 126.21875,238.56587 C 142.80698,238.56587 156.27631,225.09654 156.27632,208.5083 C 156.27632,191.92007 142.80698,178.46538 126.21875,178.46538 z M 126.21875,186.59499 C 138.31434,186.59499 148.13207,196.41271 148.13207,208.5083 C 148.13207,220.60389 138.31434,230.42162 126.21875,230.42162 C 114.12316,230.42162 104.30543,220.60389 104.30543,208.5083 C 104.30543,196.41271 114.12316,186.59499 126.21875,186.59499 z"
         style="opacity:1;fill:#e7f1ff;fill-opacity:1;stroke:none;stroke-width:1;stroke-linejoin:round;stroke-miterlimit:4;stroke-dasharray:none;stroke-dashoffset:0;stroke-opacity:1" />
    </g>
    <path
       sodipodi:nodetypes="csssssssssssccsssssssssssc"
       d="M 678.83755,1414.5278 C 678.83904,1414.5296 678.83742,1414.5282 678.83755,1414.5278 C 678.85033,1414.5001 678.84521,1414.5457 678.83755,1414.5278 C 678.7358,1414.2915 678.60904,1414.4704 678.6145,1414.5938 C 678.62841,1414.9095 679.02397,1415.0216 679.28564,1414.9654 C 679.94807,1414.8233 680.1535,1414.0207 679.97789,1413.4484 C 679.60633,1412.2374 678.1221,1411.8977 677.04728,1412.3011 C 675.03305,1413.0572 674.50892,1415.5644 675.28955,1417.3871 C 676.6297,1420.5161 680.58565,1421.2832 683.45812,1419.932 C 688.073,1417.7612 689.15034,1411.8421 686.98852,1407.5587 C 683.69099,1401.0249 675.20139,1399.5609 669.08415,1402.8224 C 660.13409,1407.5943 658.1979,1419.3582 662.8994,1427.7962 C 669.54662,1439.7264 685.38879,1442.2299 696.70074,1435.6949 M 678.83755,1414.5278 C 678.83982,1414.5274 678.83774,1414.5281 678.83755,1414.5278 C 678.81907,1414.5035 678.84858,1414.5119 678.83755,1414.5278 C 678.76951,1414.6259 678.80887,1414.7599 678.89431,1414.7967 C 679.18456,1414.9219 679.46459,1414.6372 679.53838,1414.3799 C 679.72514,1413.7286 679.11404,1413.1692 678.52649,1413.0544 C 677.28332,1412.8116 676.28424,1413.9606 676.13364,1415.0987 C 675.85139,1417.2316 677.81585,1418.8753 679.79133,1419.0456 C 683.1827,1419.338 685.72335,1416.2103 685.88511,1413.04 C 686.14497,1407.9466 681.43184,1404.2073 676.63512,1404.0956 C 669.31835,1403.9253 664.02674,1410.7235 664.02092,1417.6559 C 664.01243,1427.7986 673.47977,1435.1952 683.13402,1434.8789 C 696.56202,1434.439 694.54115,1426.9807 696.70074,1435.6949"
       style="opacity:1;fill:#e7f1ff;fill-opacity:1;fill-rule:evenodd;stroke:none;stroke-width:1px;stroke-linecap:butt;stroke-linejoin:miter;stroke-opacity:1"
       id="path3606" />
    <path
       transform="matrix(0.4816353,0,0,0.4816353,460.11877,1108.5449)"
       d="M 185.65564,215.85391 C 230.04118,234.53637 228.68309,169.06242 185.43211,190.23938 C 105.57307,229.34073 166.01559,140.53997 158.53359,229.14246 C 154.48141,277.12882 216.33116,255.60463 182.82538,221.01455 C 120.95999,157.14707 224.0923,187.19038 137.51425,207.45425 C 90.624323,218.42899 130.20767,270.60026 152.75094,228.04545 C 194.37506,149.47183 197.67181,256.84038 151.64563,180.76165 C 126.71825,139.55805 89.332353,193.32586 136.77063,201.61562 C 224.36115,216.92193 123.26635,253.23603 181.39865,185.95292 C 212.88261,149.51296 150.19351,130.57202 156.96871,178.25019 C 169.4785,266.28363 103.70173,181.35843 185.65564,215.85391 z"
       inkscape:randomized="0"
       inkscape:rounded="1.88"
       inkscape:flatsided="false"
       sodipodi:arg2="-0.54381798"
       sodipodi:arg1="0.48689923"
       sodipodi:r2="26.272663"
       sodipodi:r1="25.691782"
       sodipodi:cy="203.83304"
       sodipodi:cx="162.94955"
       sodipodi:sides="5"
       id="path3698"
       style="opacity:1;fill:#e7f1ff;fill-opacity:1;stroke:none;stroke-width:1;stroke-linejoin:round;stroke-miterlimit:4;stroke-dasharray:none;stroke-dashoffset:0;stroke-opacity:1;filter:url(#filter3700)"
       sodipodi:type="star" />
    <path
       sodipodi:nodetypes="csssssssssssccsssssssssssc"
       d="M 612.52118,1247.0082 C 612.52571,1247.0136 612.52078,1247.0091 612.52118,1247.0082 C 612.55982,1246.9243 612.54432,1247.062 612.52118,1247.0082 C 612.21365,1246.2939 611.83051,1246.8344 611.847,1247.2075 C 611.88908,1248.1619 613.08461,1248.5005 613.87553,1248.3308 C 615.87774,1247.9012 616.49865,1245.4753 615.96788,1243.7454 C 614.84484,1240.0853 610.35871,1239.0584 607.1101,1240.2778 C 601.02203,1242.563 599.4378,1250.1413 601.79731,1255.6503 C 605.84791,1265.1079 617.80484,1267.4264 626.48695,1263.3424 C 640.43549,1256.781 643.69176,1238.8904 637.15765,1225.9437 C 627.1908,1206.1952 601.53085,1201.7704 583.04134,1211.6283 C 555.98964,1226.0513 550.13749,1261.608 564.34785,1287.1121 C 584.43918,1323.1712 632.32245,1330.7383 666.513,1310.9861 M 612.52118,1247.0082 C 612.52807,1247.0067 612.52177,1247.009 612.52118,1247.0082 C 612.46534,1246.9346 612.55455,1246.9601 612.52118,1247.0082 C 612.31553,1247.3047 612.43448,1247.7095 612.69276,1247.8209 C 613.57,1248.1992 614.41643,1247.3386 614.63943,1246.561 C 615.20393,1244.5926 613.35686,1242.9018 611.58098,1242.5548 C 607.82349,1241.8207 604.80377,1245.2936 604.34855,1248.7336 C 603.49544,1255.1802 609.43307,1260.1485 615.404,1260.6633 C 625.65448,1261.5471 633.33366,1252.0933 633.82255,1242.5111 C 634.608,1227.1164 620.36248,1215.814 605.86428,1215.4766 C 583.74922,1214.9619 567.75524,1235.5095 567.73766,1256.4628 C 567.71197,1287.1192 596.3272,1309.4755 625.50734,1308.5196 C 666.0937,1307.1901 659.98557,1284.6471 666.513,1310.9861"
       style="opacity:1;fill:#e7f1ff;fill-opacity:1;fill-rule:evenodd;stroke:none;stroke-width:1px;stroke-linecap:butt;stroke-linejoin:miter;stroke-opacity:1"
       id="path3664" />
    <path
       id="path3666"
       style="opacity:1;fill:#e7f1ff;fill-opacity:1;fill-rule:evenodd;stroke:none;stroke-width:1px;stroke-linecap:butt;stroke-linejoin:miter;stroke-opacity:1"
       d="M 531.35214,1275.9379 C 531.35547,1275.9379 531.35234,1275.9375 531.35214,1275.9379 C 531.33305,1275.9776 531.37894,1275.9301 531.35214,1275.9379 C 530.9961,1276.042 531.07827,1275.7369 531.2204,1275.6295 C 531.58402,1275.3548 532.07197,1275.6913 532.25006,1276.0336 C 532.70086,1276.9002 531.99796,1277.8659 531.20075,1278.1968 C 529.51399,1278.8968 527.77258,1277.56 527.23316,1275.9952 C 526.22218,1273.0627 528.52603,1270.1764 531.26833,1269.3687 C 535.97609,1267.9822 540.46355,1271.6723 541.602,1276.1052 C 543.43102,1283.227 537.84506,1289.8632 531.09978,1291.3976 C 520.81069,1293.7383 511.38293,1285.6518 509.38501,1275.8587 C 506.4619,1261.5304 517.75206,1248.5691 531.44685,1246.0383 C 550.80924,1242.4603 568.14855,1257.7598 571.28322,1276.3323 M 531.35214,1275.9379 C 531.35369,1275.9409 531.35261,1275.9379 531.35214,1275.9379 C 531.30811,1275.9398 531.34459,1275.9648 531.35214,1275.9379 C 531.39859,1275.7722 531.58356,1275.6928 531.70303,1275.7539 C 532.10877,1275.9613 532.04977,1276.5341 531.83178,1276.8525 C 531.27986,1277.6584 530.09684,1277.4936 529.42938,1276.9463 C 528.01717,1275.7884 528.37562,1273.6226 529.50161,1272.4094 C 531.61181,1270.1358 535.24317,1270.8078 537.24773,1272.846 C 540.689,1276.345 539.54883,1282.0418 536.17538,1285.1348 C 530.75562,1290.1039 522.27025,1288.304 517.73835,1283.0776 C 510.82554,1275.1053 513.5155,1262.9795 521.21183,1256.6026 C 532.47225,1247.2727 549.38949,1250.9937 557.90974,1262.0099 C 569.76049,1277.3323 559.61743,1281.9409 571.28322,1276.3323"
       sodipodi:nodetypes="csssssssssssccsssssssssssc" />
    <path
       sodipodi:nodetypes="csssssssssssccsssssssssssc"
       d="M 642.39546,1336.984 C 642.39573,1336.982 642.39522,1336.9838 642.39546,1336.984 C 642.41789,1336.9985 642.39279,1336.9673 642.39546,1336.984 C 642.43103,1337.2058 642.25394,1337.1333 642.20021,1337.0397 C 642.06278,1336.8005 642.3019,1336.5329 642.52105,1336.4518 C 643.07579,1336.2467 643.60268,1336.7422 643.74099,1337.2462 C 644.03361,1338.3126 643.09856,1339.2574 642.11761,1339.4628 C 640.27925,1339.8478 638.71999,1338.2449 638.44272,1336.5363 C 637.96672,1333.603 640.52374,1331.1869 643.2731,1330.8391 C 647.69018,1330.2803 651.2533,1334.1392 651.66369,1338.3077 C 652.28972,1344.6663 646.71702,1349.7169 640.68232,1350.1746 C 631.85306,1350.8443 624.92266,1343.0791 624.44063,1334.6601 C 623.75916,1322.757 634.26495,1313.5005 645.65994,1313.0255 M 642.39546,1336.984 C 642.39739,1336.9833 642.3955,1336.9837 642.39546,1336.984 C 642.39325,1337.0106 642.41105,1336.9906 642.39546,1336.984 C 642.29943,1336.9435 642.26579,1336.8264 642.31153,1336.7592 C 642.4669,1336.5312 642.80653,1336.6101 642.98125,1336.7652 C 643.42358,1337.1579 643.23484,1337.856 642.85546,1338.2155 C 642.05278,1338.9761 640.77885,1338.5966 640.13541,1337.8282 C 638.92959,1336.3881 639.60861,1334.2575 640.98502,1333.2078 C 643.34795,1331.4058 646.68384,1332.5227 648.28616,1334.7838 C 650.8604,1338.4164 649.13576,1343.3775 645.6524,1345.7037 C 640.33898,1349.2521 633.25838,1346.7168 630.01105,1341.6097 C 625.25991,1334.1377 628.77796,1324.2569 636.0419,1319.9736 C 646.14521,1314.0161 648.14478,1320.4589 645.65994,1313.0255"
       style="opacity:1;fill:#e7f1ff;fill-opacity:1;fill-rule:evenodd;stroke:none;stroke-width:1px;stroke-linecap:butt;stroke-linejoin:miter;stroke-opacity:1"
       id="path3668" />
    <path
       style="opacity:1;fill:#e7f1ff;fill-opacity:1;stroke:none;stroke-width:1;stroke-linejoin:round;stroke-miterlimit:4;stroke-dasharray:none;stroke-dashoffset:0;stroke-opacity:1"
       d="M 674.89379,1345.7307 C 665.05715,1345.7307 657.06999,1353.7092 657.06999,1363.5458 C 657.06999,1373.3824 665.05715,1381.3696 674.89379,1381.3696 C 684.73042,1381.3696 692.71758,1373.3824 692.71759,1363.5458 C 692.71759,1353.7092 684.73042,1345.7307 674.89379,1345.7307 z M 674.89379,1350.5515 C 682.06633,1350.5515 687.88814,1356.3733 687.88814,1363.5458 C 687.88814,1370.7184 682.06633,1376.5402 674.89379,1376.5402 C 667.72124,1376.5402 661.89944,1370.7184 661.89944,1363.5458 C 661.89944,1356.3733 667.72124,1350.5515 674.89379,1350.5515 z"
       id="path3652" />
    <path
       id="path3654"
       d="M 674.89379,1355.1976 C 670.28302,1355.1976 666.53916,1358.9374 666.53916,1363.5481 C 666.53916,1368.1589 670.28302,1371.9027 674.89379,1371.9027 C 679.50455,1371.9027 683.24841,1368.1589 683.24841,1363.5481 C 683.24841,1358.9374 679.50455,1355.1976 674.89379,1355.1976 z M 674.89379,1357.4572 C 678.2558,1357.4572 680.98468,1360.1861 680.98468,1363.5481 C 680.98468,1366.9101 678.2558,1369.639 674.89379,1369.639 C 671.53177,1369.639 668.80289,1366.9101 668.80289,1363.5481 C 668.80289,1360.1861 671.53177,1357.4572 674.89379,1357.4572 z"
       style="opacity:1;fill:#e7f1ff;fill-opacity:1;stroke:none;stroke-width:1;stroke-linejoin:round;stroke-miterlimit:4;stroke-dasharray:none;stroke-dashoffset:0;stroke-opacity:1" />
    <path
       id="path3658"
       d="M 689.34531,1320.2255 C 682.79385,1320.2255 677.47418,1325.5394 677.47418,1332.0908 C 677.47418,1338.6423 682.79385,1343.9619 689.34531,1343.9619 C 695.89677,1343.9619 701.21644,1338.6423 701.21644,1332.0908 C 701.21644,1325.5394 695.89677,1320.2255 689.34531,1320.2255 z M 689.34531,1323.4362 C 694.12242,1323.4362 697.9999,1327.3137 697.9999,1332.0908 C 697.9999,1336.8679 694.12242,1340.7454 689.34531,1340.7454 C 684.5682,1340.7454 680.69073,1336.8679 680.69073,1332.0908 C 680.69073,1327.3137 684.5682,1323.4362 689.34531,1323.4362 z"
       style="opacity:1;fill:#e7f1ff;fill-opacity:1;stroke:none;stroke-width:1;stroke-linejoin:round;stroke-miterlimit:4;stroke-dasharray:none;stroke-dashoffset:0;stroke-opacity:1" />
    <path
       style="opacity:1;fill:#e7f1ff;fill-opacity:1;stroke:none;stroke-width:1;stroke-linejoin:round;stroke-miterlimit:4;stroke-dasharray:none;stroke-dashoffset:0;stroke-opacity:1"
       d="M 689.34531,1326.5307 C 686.27442,1326.5307 683.78091,1329.0215 683.78091,1332.0924 C 683.78091,1335.1633 686.27442,1337.6568 689.34531,1337.6568 C 692.4162,1337.6568 694.90971,1335.1633 694.90971,1332.0924 C 694.90971,1329.0215 692.4162,1326.5307 689.34531,1326.5307 z M 689.34531,1328.0357 C 691.5845,1328.0357 693.40201,1329.8532 693.40201,1332.0924 C 693.40201,1334.3316 691.5845,1336.1491 689.34531,1336.1491 C 687.10612,1336.1491 685.28861,1334.3316 685.28861,1332.0924 C 685.28861,1329.8532 687.10612,1328.0357 689.34531,1328.0357 z"
       id="path3660" />
    <path
       transform="matrix(-1.5198936,0,0,-1.5198936,1271.5799,1168.4262)"
       sodipodi:nodetypes="cccc"
       d="M 373.82647,9.1947481 C 321.49122,-12.306164 230.30772,63.25072 334.00723,218.82243 C 348.43662,241.37427 321.1875,232.13552 328.69961,231.38685 C 223.11475,58.84704 320.96767,-14.683318 373.56705,9.1947481"
       style="opacity:0.17000002;fill:#e7f1ff;fill-opacity:1;fill-rule:evenodd;stroke:none;stroke-width:1px;stroke-linecap:butt;stroke-linejoin:miter;stroke-opacity:1;filter:url(#filter3474)"
       id="path3704" />
    <path
       sodipodi:nodetypes="cccc"
       d="M 782.43871,1013.3284 C 770.27415,1029.5489 783.14067,1056.1759 752.99808,1063.3299 C 751.88986,1063.8782 752.94502,1065.5586 754.07344,1065.1413 C 784.21604,1057.9874 770.30377,1029.572 782.46832,1013.3515"
       style="opacity:1;fill:#e7f1ff;fill-opacity:1;fill-rule:evenodd;stroke:none;stroke-width:1px;stroke-linecap:butt;stroke-linejoin:miter;stroke-opacity:1"
       id="path5631" />
  </g>
</svg>
