<?xml version="1.0" encoding="UTF-8" standalone="no"?>
<!-- Created with Inkscape (http://www.inkscape.org/) -->
<svg
   xmlns:dc="http://purl.org/dc/elements/1.1/"
   xmlns:cc="http://creativecommons.org/ns#"
   xmlns:rdf="http://www.w3.org/1999/02/22-rdf-syntax-ns#"
   xmlns:svg="http://www.w3.org/2000/svg"
   xmlns="http://www.w3.org/2000/svg"
   xmlns:sodipodi="http://sodipodi.sourceforge.net/DTD/sodipodi-0.dtd"
   xmlns:inkscape="http://www.inkscape.org/namespaces/inkscape"
   width="800"
   height="600"
   id="svg2615"
   sodipodi:version="0.32"
   inkscape:version="0.46"
   version="1.0"
   sodipodi:docname="800x600.svg"
   inkscape:output_extension="org.inkscape.output.svg.inkscape">
  <defs
     id="defs2617">
    <inkscape:perspective
       sodipodi:type="inkscape:persp3d"
       inkscape:vp_x="0 : 526.18109 : 1"
       inkscape:vp_y="0 : 1000 : 0"
       inkscape:vp_z="744.09448 : 526.18109 : 1"
       inkscape:persp3d-origin="372.04724 : 350.78739 : 1"
       id="perspective2623" />
  </defs>
  <sodipodi:namedview
     id="base"
     pagecolor="#ffffff"
     bordercolor="#666666"
     borderopacity="1.0"
     gridtolerance="10000"
     guidetolerance="10"
     objecttolerance="10"
     inkscape:pageopacity="0.0"
     inkscape:pageshadow="2"
     inkscape:zoom="0.83"
     inkscape:cx="400"
     inkscape:cy="300"
     inkscape:document-units="px"
     inkscape:current-layer="layer1"
     showgrid="false"
     inkscape:showpageshadow="false"
     inkscape:window-width="1201"
     inkscape:window-height="691"
     inkscape:window-x="0"
     inkscape:window-y="25"
     showguides="false" />
  <metadata
     id="metadata2620">
    <rdf:RDF>
      <cc:Work
         rdf:about="">
        <dc:format>image/svg+xml</dc:format>
        <dc:type
           rdf:resource="http://purl.org/dc/dcmitype/StillImage" />
      </cc:Work>
    </rdf:RDF>
  </metadata>
  <g
     inkscape:label="Layer 1"
     inkscape:groupmode="layer"
     id="layer1">
    <path
       style="fill:#e7f1ff;fill-opacity:1;fill-rule:nonzero;stroke:none;stroke-width:5;stroke-linecap:round;stroke-linejoin:round;marker:none;marker-start:none;marker-mid:none;marker-end:none;stroke-miterlimit:4;stroke-dashoffset:0;stroke-opacity:1;visibility:visible;display:inline;overflow:visible;enable-background:accumulate"
       d="M 799.99997,600 L 799.99997,259.82112 C 799.99997,239.63554 786.79127,224.56151 770.58821,224.56151 C 754.38521,224.56151 741.17644,239.63554 741.17644,259.82112 L 741.17644,600 C 741.17644,600 799.99997,600 799.99997,600 z"
       id="rect2462"
       sodipodi:nodetypes="ccsccc" />
    <path
       sodipodi:nodetypes="ccsccc"
       id="path2694"
       d="M 741.17644,600 L 741.17644,314.67272 C 741.17644,294.48702 727.80345,279.413 711.60044,279.413 C 695.39733,279.413 682.35292,294.48702 682.35292,314.67272 L 682.35292,600 C 682.35292,600 741.17644,600 741.17644,600 z"
       style="fill:#80b3ff;fill-opacity:1;fill-rule:nonzero;stroke:none;stroke-width:5;stroke-linecap:round;stroke-linejoin:round;marker:none;marker-start:none;marker-mid:none;marker-end:none;stroke-miterlimit:4;stroke-dashoffset:0;stroke-opacity:1;visibility:visible;display:inline;overflow:visible;enable-background:accumulate" />
    <path
       sodipodi:nodetypes="ccccc"
       id="path2692"
       d="M 682.35292,600 L 682.35292,359.89554 C 682.35292,359.89554 623.52939,359.89554 623.52939,359.89554 L 623.52939,600 C 623.52939,600 682.35292,600 682.35292,600 z"
       style="fill:#204c8d;fill-opacity:1;fill-rule:nonzero;stroke:none;stroke-width:5;stroke-linecap:round;stroke-linejoin:round;marker:none;marker-start:none;marker-mid:none;marker-end:none;stroke-miterlimit:4;stroke-dashoffset:0;stroke-opacity:1;visibility:visible;display:inline;overflow:visible;enable-background:accumulate" />
    <g
       transform="matrix(0.5882353,0,0,0.5882353,40.172176,174.22621)"
       id="g3623">
      <path
         style="fill:#80b3ff;fill-opacity:1;fill-rule:nonzero;stroke:none;stroke-width:5;stroke-linecap:round;stroke-linejoin:round;marker:none;marker-start:none;marker-mid:none;marker-end:none;stroke-miterlimit:4;stroke-dashoffset:0;stroke-opacity:1;visibility:visible;display:inline;overflow:visible;enable-background:accumulate"
         d="M 1291.7073,239.81534 L 768.89323,239.81534 C 737.21153,239.81534 711.70733,217.30823 711.70733,190.03821 C 711.70733,162.76818 737.21153,139.81534 768.89323,139.81534 L 1291.7073,139.81534 C 1291.7073,139.81534 1291.7073,239.81534 1291.7073,239.81534 z"
         id="path3553"
         sodipodi:nodetypes="ccsccc" />
      <path
         style="fill:#204c8d;fill-opacity:1;fill-rule:nonzero;stroke:none;stroke-width:5;stroke-linecap:round;stroke-linejoin:round;marker:none;marker-start:none;marker-mid:none;marker-end:none;stroke-miterlimit:4;stroke-dashoffset:0;stroke-opacity:1;visibility:visible;display:inline;overflow:visible;enable-background:accumulate"
         d="M 711.70733,-296.18455 L 711.70733,89.460678 C 711.70733,89.460678 611.70733,89.460678 611.70733,89.460678 L 611.70733,-296.18455 C 611.70733,-296.18455 711.70733,-296.18455 711.70733,-296.18455 z"
         id="path2690"
         sodipodi:nodetypes="ccccc" />
      <path
         style="fill:#204c8d;fill-opacity:1;fill-rule:nonzero;stroke:none;stroke-width:5;stroke-linecap:round;stroke-linejoin:round;marker:none;marker-start:none;marker-mid:none;marker-end:none;stroke-miterlimit:4;stroke-dashoffset:0;stroke-opacity:1;visibility:visible;display:inline;overflow:visible;enable-background:accumulate"
         d="M 1291.7073,139.81534 L 668.89321,139.81534 C 637.21273,139.81534 611.70733,117.08103 611.70733,89.535868 C 611.70733,61.990708 637.21273,39.815328 668.89321,39.815328 L 1291.7073,39.815328 C 1291.7073,39.815328 1291.7073,139.81534 1291.7073,139.81534 z"
         id="path3555"
         sodipodi:nodetypes="ccsccc" />
      <path
         sodipodi:nodetypes="ccccc"
         id="path2686"
         d="M 811.70733,-296.18455 L 811.70733,189.41623 C 811.70733,189.41623 711.70733,189.41623 711.70733,189.41623 L 711.70733,-296.18455 C 711.70733,-296.18455 811.70733,-296.18455 811.70733,-296.18455 z"
         style="fill:#80b3ff;fill-opacity:1;fill-rule:nonzero;stroke:none;stroke-width:5;stroke-linecap:round;stroke-linejoin:round;marker:none;marker-start:none;marker-mid:none;marker-end:none;stroke-miterlimit:4;stroke-dashoffset:0;stroke-opacity:1;visibility:visible;display:inline;overflow:visible;enable-background:accumulate" />
      <path
         style="fill:#e7f1ff;fill-opacity:1;fill-rule:nonzero;stroke:none;stroke-width:5;stroke-linecap:round;stroke-linejoin:round;marker:none;marker-start:none;marker-mid:none;marker-end:none;stroke-miterlimit:4;stroke-dashoffset:0;stroke-opacity:1;visibility:visible;display:inline;overflow:visible;enable-background:accumulate"
         d="M 911.70733,-296.18455 L 911.70733,287.89734 C 911.70733,287.89734 811.70733,287.89734 811.70733,287.89734 L 811.70733,-296.18455 C 811.70733,-296.18455 911.70733,-296.18455 911.70733,-296.18455 z"
         id="path2688"
         sodipodi:nodetypes="ccccc" />
      <path
         sodipodi:nodetypes="ccsccc"
         id="path3550"
         d="M 1291.7073,339.81534 L 868.89247,339.81534 C 837.21199,339.81534 811.70733,317.08104 811.70733,289.53588 C 811.70733,261.99072 837.21199,239.81534 868.89247,239.81534 L 1291.7073,239.81534 C 1291.7073,239.81534 1291.7073,339.81534 1291.7073,339.81534 z"
         style="fill:#e7f1ff;fill-opacity:1;fill-rule:nonzero;stroke:none;stroke-width:5;stroke-linecap:round;stroke-linejoin:round;marker:none;marker-start:none;marker-mid:none;marker-end:none;stroke-miterlimit:4;stroke-dashoffset:0;stroke-opacity:1;visibility:visible;display:inline;overflow:visible;enable-background:accumulate" />
    </g>
    <path
       style="fill:#80b3ff;fill-opacity:1;fill-rule:nonzero;stroke:none;stroke-width:5;stroke-linecap:round;stroke-linejoin:round;marker:none;marker-start:none;marker-mid:none;marker-end:none;stroke-miterlimit:4;stroke-dashoffset:0;stroke-opacity:1;visibility:visible;display:inline;overflow:visible;enable-background:accumulate"
       d="M -1.0928758e-16,433.53461 L 307.53769,433.53461 C 326.17398,433.53461 341.17645,446.77408 341.17645,462.81527 C 341.17645,478.85646 326.17398,492.35814 307.53769,492.35814 L -1.0928758e-16,492.35814 C -1.0928758e-16,492.35814 -1.0928758e-16,433.53461 -1.0928758e-16,433.53461 z"
       id="path3633"
       sodipodi:nodetypes="ccsccc" />
    <path
       style="fill:#204c8d;fill-opacity:1;fill-rule:nonzero;stroke:none;stroke-width:5;stroke-linecap:round;stroke-linejoin:round;marker:none;marker-start:none;marker-mid:none;marker-end:none;stroke-miterlimit:4;stroke-dashoffset:0;stroke-opacity:1;visibility:visible;display:inline;overflow:visible;enable-background:accumulate"
       d="M 341.17645,599.99994 L 341.17645,521.38504 C 341.17645,521.38504 399.99998,521.38504 399.99998,521.38504 L 399.99998,599.99994 C 399.99998,599.99994 341.17645,599.99994 341.17645,599.99994 z"
       id="path3635"
       sodipodi:nodetypes="ccccc" />
    <path
       style="fill:#204c8d;fill-opacity:1;fill-rule:nonzero;stroke:none;stroke-width:5;stroke-linecap:round;stroke-linejoin:round;marker:none;marker-start:none;marker-mid:none;marker-end:none;stroke-miterlimit:4;stroke-dashoffset:0;stroke-opacity:1;visibility:visible;display:inline;overflow:visible;enable-background:accumulate"
       d="M -1.0928758e-16,492.35814 L 366.36123,492.35814 C 384.9968,492.35814 399.99998,505.73126 399.99998,521.93429 C 399.99998,538.13733 384.9968,551.18167 366.36123,551.18167 L -1.0928758e-16,551.18167 C -1.0928758e-16,551.18167 -1.0928758e-16,492.35814 -1.0928758e-16,492.35814 z"
       id="path3637"
       sodipodi:nodetypes="ccsccc" />
    <path
       sodipodi:nodetypes="ccccc"
       id="path3639"
       d="M 282.35292,599.99994 L 282.35292,462.58765 C 282.35292,462.58765 341.17645,462.58765 341.17645,462.58765 L 341.17645,599.99994 C 341.17645,599.99994 282.35292,599.99994 282.35292,599.99994 z"
       style="fill:#80b3ff;fill-opacity:1;fill-rule:nonzero;stroke:none;stroke-width:5;stroke-linecap:round;stroke-linejoin:round;marker:none;marker-start:none;marker-mid:none;marker-end:none;stroke-miterlimit:4;stroke-dashoffset:0;stroke-opacity:1;visibility:visible;display:inline;overflow:visible;enable-background:accumulate" />
    <path
       style="fill:#e7f1ff;fill-opacity:1;fill-rule:nonzero;stroke:none;stroke-width:5;stroke-linecap:round;stroke-linejoin:round;marker:none;marker-start:none;marker-mid:none;marker-end:none;stroke-miterlimit:4;stroke-dashoffset:0;stroke-opacity:1;visibility:visible;display:inline;overflow:visible;enable-background:accumulate"
       d="M 223.52939,599.99994 L 223.52939,404.65759 C 223.52939,404.65759 282.35292,404.65759 282.35292,404.65759 L 282.35292,599.99994 C 282.35292,599.99994 223.52939,599.99994 223.52939,599.99994 z"
       id="path3641"
       sodipodi:nodetypes="ccccc" />
    <path
       sodipodi:nodetypes="ccsccc"
       id="path3643"
       d="M -1.0928758e-16,374.71108 L 248.7146,374.71108 C 267.35018,374.71108 282.35292,388.08419 282.35292,404.28723 C 282.35292,420.49026 267.35018,433.53461 248.7146,433.53461 L -1.0928758e-16,433.53461 C -1.0928758e-16,433.53461 -1.0928758e-16,374.71108 -1.0928758e-16,374.71108 z"
       style="fill:#e7f1ff;fill-opacity:1;fill-rule:nonzero;stroke:none;stroke-width:5;stroke-linecap:round;stroke-linejoin:round;marker:none;marker-start:none;marker-mid:none;marker-end:none;stroke-miterlimit:4;stroke-dashoffset:0;stroke-opacity:1;visibility:visible;display:inline;overflow:visible;enable-background:accumulate" />
  </g>
</svg>
