<?xml version="1.0" encoding="UTF-8" standalone="no"?>
<!-- Created with Inkscape (http://www.inkscape.org/) -->
<svg
   xmlns:dc="http://purl.org/dc/elements/1.1/"
   xmlns:cc="http://creativecommons.org/ns#"
   xmlns:rdf="http://www.w3.org/1999/02/22-rdf-syntax-ns#"
   xmlns:svg="http://www.w3.org/2000/svg"
   xmlns="http://www.w3.org/2000/svg"
   xmlns:sodipodi="http://sodipodi.sourceforge.net/DTD/sodipodi-0.dtd"
   xmlns:inkscape="http://www.inkscape.org/namespaces/inkscape"
   width="2048"
   height="1536"
   id="svg57249"
   sodipodi:version="0.32"
   inkscape:version="0.46"
   version="1.0"
   sodipodi:docname="2048x1536.svg"
   inkscape:output_extension="org.inkscape.output.svg.inkscape"
   inkscape:export-xdpi="45"
   inkscape:export-ydpi="45">
  <defs
     id="defs57251">
    <clipPath
       clipPathUnits="userSpaceOnUse"
       id="clipPath14205">
      <rect
         y="205.3979"
         x="-642.43378"
         height="600"
         width="800"
         id="rect14207"
         style="opacity:1;fill:#091126;fill-opacity:1;fill-rule:nonzero;stroke:none;stroke-width:1;stroke-linecap:round;stroke-linejoin:round;marker:none;marker-start:none;marker-mid:none;marker-end:none;stroke-miterlimit:4;stroke-dasharray:none;stroke-dashoffset:0;stroke-opacity:1;visibility:visible;display:inline;overflow:visible;enable-background:accumulate" />
    </clipPath>
    <clipPath
       clipPathUnits="userSpaceOnUse"
       id="clipPath14209">
      <rect
         y="205.3979"
         x="-642.43378"
         height="600"
         width="800"
         id="rect14211"
         style="opacity:1;fill:#091126;fill-opacity:1;fill-rule:nonzero;stroke:none;stroke-width:1;stroke-linecap:round;stroke-linejoin:round;marker:none;marker-start:none;marker-mid:none;marker-end:none;stroke-miterlimit:4;stroke-dasharray:none;stroke-dashoffset:0;stroke-opacity:1;visibility:visible;display:inline;overflow:visible;enable-background:accumulate" />
    </clipPath>
    <clipPath
       clipPathUnits="userSpaceOnUse"
       id="clipPath14213">
      <rect
         y="205.3979"
         x="-642.43378"
         height="600"
         width="800"
         id="rect14215"
         style="opacity:1;fill:#091126;fill-opacity:1;fill-rule:nonzero;stroke:none;stroke-width:1;stroke-linecap:round;stroke-linejoin:round;marker:none;marker-start:none;marker-mid:none;marker-end:none;stroke-miterlimit:4;stroke-dasharray:none;stroke-dashoffset:0;stroke-opacity:1;visibility:visible;display:inline;overflow:visible;enable-background:accumulate" />
    </clipPath>
    <clipPath
       clipPathUnits="userSpaceOnUse"
       id="clipPath14217">
      <rect
         y="205.3979"
         x="-642.43378"
         height="600"
         width="800"
         id="rect14219"
         style="opacity:1;fill:#091126;fill-opacity:1;fill-rule:nonzero;stroke:none;stroke-width:1;stroke-linecap:round;stroke-linejoin:round;marker:none;marker-start:none;marker-mid:none;marker-end:none;stroke-miterlimit:4;stroke-dasharray:none;stroke-dashoffset:0;stroke-opacity:1;visibility:visible;display:inline;overflow:visible;enable-background:accumulate" />
    </clipPath>
  </defs>
  <sodipodi:namedview
     id="base"
     pagecolor="#ffffff"
     bordercolor="#666666"
     borderopacity="1.0"
     gridtolerance="10000"
     guidetolerance="10"
     objecttolerance="10"
     inkscape:pageopacity="0.0"
     inkscape:pageshadow="2"
     inkscape:zoom="0.32552083"
     inkscape:cx="1024"
     inkscape:cy="768"
     inkscape:document-units="px"
     inkscape:current-layer="layer1"
     showgrid="false"
     showborder="false"
     inkscape:showpageshadow="false"
     inkscape:window-width="1360"
     inkscape:window-height="693"
     inkscape:window-x="0"
     inkscape:window-y="25"
     showguides="true"
     inkscape:guide-bbox="true" />
  <metadata
     id="metadata57254">
    <rdf:RDF>
      <cc:Work
         rdf:about="">
        <dc:format>image/svg+xml</dc:format>
        <dc:type
           rdf:resource="http://purl.org/dc/dcmitype/StillImage" />
        <cc:license
           rdf:resource="http://creativecommons.org/licenses/by-sa/3.0/" />
        <dc:title>TreeFlower's Background</dc:title>
        <dc:date>2010-04-23</dc:date>
        <dc:creator>
          <cc:Agent>
            <dc:title>Alain Reguera Delgado</dc:title>
          </cc:Agent>
        </dc:creator>
        <dc:rights>
          <cc:Agent>
            <dc:title>The CentOS Project</dc:title>
          </cc:Agent>
        </dc:rights>
        <dc:publisher>
          <cc:Agent>
            <dc:title>The CentOS Project</dc:title>
          </cc:Agent>
        </dc:publisher>
        <dc:description>Background image for 2048x1536 and related resolutions.</dc:description>
        <dc:coverage>The CentOS Project</dc:coverage>
      </cc:Work>
      <cc:License
         rdf:about="http://creativecommons.org/licenses/by-sa/3.0/">
        <cc:permits
           rdf:resource="http://creativecommons.org/ns#Reproduction" />
        <cc:permits
           rdf:resource="http://creativecommons.org/ns#Distribution" />
        <cc:requires
           rdf:resource="http://creativecommons.org/ns#Notice" />
        <cc:requires
           rdf:resource="http://creativecommons.org/ns#Attribution" />
        <cc:permits
           rdf:resource="http://creativecommons.org/ns#DerivativeWorks" />
        <cc:requires
           rdf:resource="http://creativecommons.org/ns#ShareAlike" />
      </cc:License>
    </rdf:RDF>
  </metadata>
  <g
     inkscape:label="Layer 1"
     inkscape:groupmode="layer"
     id="layer1"
     transform="translate(-578.32233,1251.9968)">
    <rect
       style="opacity:1;fill:#010a27;fill-opacity:1;fill-rule:nonzero;stroke:none;stroke-width:1;stroke-linecap:round;stroke-linejoin:round;marker:none;marker-start:none;marker-mid:none;marker-end:none;stroke-miterlimit:4;stroke-dasharray:none;stroke-dashoffset:0;stroke-opacity:1;visibility:visible;display:inline;overflow:visible;enable-background:accumulate"
       id="CENTOSARTWORK"
       width="2048"
       height="1536"
       x="578.32233"
       y="-1251.9968"
       inkscape:label="#rect10795" />
    <path
       style="fill:#ffffff;fill-opacity:1;fill-rule:nonzero;stroke:none;stroke-width:5;stroke-linecap:round;stroke-linejoin:round;marker:none;marker-start:none;marker-mid:none;marker-end:none;stroke-miterlimit:4;stroke-dasharray:none;stroke-dashoffset:0;stroke-opacity:1;visibility:visible;display:inline;overflow:visible;enable-background:accumulate"
       d="M 158.87523,705.03649 L -641.12468,705.03649 L -645.17468,478.32355 C -454.49679,260.81996 -82.308889,655.50657 160.30713,494.90983"
       id="path10853"
       sodipodi:nodetypes="cccc"
       clip-path="url(#clipPath14209)"
       transform="matrix(2.56,0,0,2.56,2222.9528,-1520.8902)" />
    <g
       style="display:inline"
       id="g11273"
       transform="matrix(1.0110656,0.6884585,-0.6884585,1.0110656,1263.6255,-1024.597)">
      <path
         sodipodi:type="arc"
         style="fill:#ffffff;fill-opacity:1;fill-rule:nonzero;stroke:none;stroke-width:27.55895996;stroke-linecap:round;stroke-linejoin:round;marker:none;marker-start:none;marker-mid:none;marker-end:none;stroke-miterlimit:4;stroke-dasharray:none;stroke-dashoffset:0;stroke-opacity:1;visibility:visible;display:inline;overflow:visible;enable-background:accumulate"
         id="path11275"
         sodipodi:cx="449.71991"
         sodipodi:cy="279.25638"
         sodipodi:rx="69.579308"
         sodipodi:ry="69.579308"
         d="M 519.29922,279.25638 A 69.579308,69.579308 0 1 1 380.1406,279.25638 A 69.579308,69.579308 0 1 1 519.29922,279.25638 z"
         transform="matrix(0.2343874,1.0482631e-2,-1.0482631e-2,0.2343874,582.44774,206.25806)" />
      <path
         sodipodi:type="arc"
         style="fill:#ffffff;fill-opacity:1;fill-rule:nonzero;stroke:none;stroke-width:27.55895996;stroke-linecap:round;stroke-linejoin:round;marker:none;marker-start:none;marker-mid:none;marker-end:none;stroke-miterlimit:4;stroke-dasharray:none;stroke-dashoffset:0;stroke-opacity:1;visibility:visible;display:inline;overflow:visible;enable-background:accumulate"
         id="path11277"
         sodipodi:cx="449.71991"
         sodipodi:cy="279.25638"
         sodipodi:rx="69.579308"
         sodipodi:ry="69.579308"
         d="M 519.29922,279.25638 A 69.579308,69.579308 0 1 1 380.1406,279.25638 A 69.579308,69.579308 0 1 1 519.29922,279.25638 z"
         transform="matrix(0.1682901,7.5264889e-3,-7.5264889e-3,0.1682901,674.95476,229.66097)" />
      <path
         transform="matrix(0.4577812,2.047354e-2,-2.047354e-2,0.4577812,580.80986,125.84018)"
         d="M 519.29922,279.25638 A 69.579308,69.579308 0 1 1 380.1406,279.25638 A 69.579308,69.579308 0 1 1 519.29922,279.25638 z"
         sodipodi:ry="69.579308"
         sodipodi:rx="69.579308"
         sodipodi:cy="279.25638"
         sodipodi:cx="449.71991"
         id="path11279"
         style="fill:#ffffff;fill-opacity:1;fill-rule:nonzero;stroke:none;stroke-width:27.55895996;stroke-linecap:round;stroke-linejoin:round;marker:none;marker-start:none;marker-mid:none;marker-end:none;stroke-miterlimit:4;stroke-dasharray:none;stroke-dashoffset:0;stroke-opacity:1;visibility:visible;display:inline;overflow:visible;enable-background:accumulate"
         sodipodi:type="arc" />
      <path
         sodipodi:type="arc"
         style="fill:#ffffff;fill-opacity:1;fill-rule:nonzero;stroke:none;stroke-width:27.55895996;stroke-linecap:round;stroke-linejoin:round;marker:none;marker-start:none;marker-mid:none;marker-end:none;stroke-miterlimit:4;stroke-dasharray:none;stroke-dashoffset:0;stroke-opacity:1;visibility:visible;display:inline;overflow:visible;enable-background:accumulate"
         id="path11281"
         sodipodi:cx="449.71991"
         sodipodi:cy="279.25638"
         sodipodi:rx="69.579308"
         sodipodi:ry="69.579308"
         d="M 519.29922,279.25638 A 69.579308,69.579308 0 1 1 380.1406,279.25638 A 69.579308,69.579308 0 1 1 519.29922,279.25638 z"
         transform="matrix(0.1025432,4.5860855e-3,-4.5860855e-3,0.1025432,706.97594,186.07309)" />
      <path
         transform="matrix(0.1025432,4.5860855e-3,-4.5860855e-3,0.1025432,690.12345,240.65365)"
         d="M 519.29922,279.25638 A 69.579308,69.579308 0 1 1 380.1406,279.25638 A 69.579308,69.579308 0 1 1 519.29922,279.25638 z"
         sodipodi:ry="69.579308"
         sodipodi:rx="69.579308"
         sodipodi:cy="279.25638"
         sodipodi:cx="449.71991"
         id="path11283"
         style="fill:#ffffff;fill-opacity:1;fill-rule:nonzero;stroke:none;stroke-width:27.55895996;stroke-linecap:round;stroke-linejoin:round;marker:none;marker-start:none;marker-mid:none;marker-end:none;stroke-miterlimit:4;stroke-dasharray:none;stroke-dashoffset:0;stroke-opacity:1;visibility:visible;display:inline;overflow:visible;enable-background:accumulate"
         sodipodi:type="arc" />
      <path
         sodipodi:type="arc"
         style="fill:#ffffff;fill-opacity:1;fill-rule:nonzero;stroke:none;stroke-width:27.55895996;stroke-linecap:round;stroke-linejoin:round;marker:none;marker-start:none;marker-mid:none;marker-end:none;stroke-miterlimit:4;stroke-dasharray:none;stroke-dashoffset:0;stroke-opacity:1;visibility:visible;display:inline;overflow:visible;enable-background:accumulate"
         id="path11285"
         sodipodi:cx="449.71991"
         sodipodi:cy="279.25638"
         sodipodi:rx="69.579308"
         sodipodi:ry="69.579308"
         d="M 519.29922,279.25638 A 69.579308,69.579308 0 1 1 380.1406,279.25638 A 69.579308,69.579308 0 1 1 519.29922,279.25638 z"
         transform="matrix(6.0479113e-2,2.7048346e-3,-2.7048346e-3,6.0479113e-2,687.63988,244.31288)" />
      <path
         transform="matrix(3.0786831e-2,1.3768932e-3,-1.3768932e-3,3.0786831e-2,710.18562,236.44019)"
         d="M 519.29922,279.25638 A 69.579308,69.579308 0 1 1 380.1406,279.25638 A 69.579308,69.579308 0 1 1 519.29922,279.25638 z"
         sodipodi:ry="69.579308"
         sodipodi:rx="69.579308"
         sodipodi:cy="279.25638"
         sodipodi:cx="449.71991"
         id="path11287"
         style="fill:#ffffff;fill-opacity:1;fill-rule:nonzero;stroke:none;stroke-width:27.55895996;stroke-linecap:round;stroke-linejoin:round;marker:none;marker-start:none;marker-mid:none;marker-end:none;stroke-miterlimit:4;stroke-dasharray:none;stroke-dashoffset:0;stroke-opacity:1;visibility:visible;display:inline;overflow:visible;enable-background:accumulate"
         sodipodi:type="arc" />
      <path
         transform="matrix(8.5222657e-2,3.811452e-3,-3.811452e-3,8.5222657e-2,691.73361,204.32613)"
         d="M 519.29922,279.25638 A 69.579308,69.579308 0 1 1 380.1406,279.25638 A 69.579308,69.579308 0 1 1 519.29922,279.25638 z"
         sodipodi:ry="69.579308"
         sodipodi:rx="69.579308"
         sodipodi:cy="279.25638"
         sodipodi:cx="449.71991"
         id="path11289"
         style="fill:#ffffff;fill-opacity:1;fill-rule:nonzero;stroke:none;stroke-width:27.55895996;stroke-linecap:round;stroke-linejoin:round;marker:none;marker-start:none;marker-mid:none;marker-end:none;stroke-miterlimit:4;stroke-dasharray:none;stroke-dashoffset:0;stroke-opacity:1;visibility:visible;display:inline;overflow:visible;enable-background:accumulate"
         sodipodi:type="arc" />
      <path
         sodipodi:type="arc"
         style="fill:#ffffff;fill-opacity:1;fill-rule:nonzero;stroke:none;stroke-width:27.55895996;stroke-linecap:round;stroke-linejoin:round;marker:none;marker-start:none;marker-mid:none;marker-end:none;stroke-miterlimit:4;stroke-dasharray:none;stroke-dashoffset:0;stroke-opacity:1;visibility:visible;display:inline;overflow:visible;enable-background:accumulate"
         id="path11291"
         sodipodi:cx="449.71991"
         sodipodi:cy="279.25638"
         sodipodi:rx="69.579308"
         sodipodi:ry="69.579308"
         d="M 519.29922,279.25638 A 69.579308,69.579308 0 1 1 380.1406,279.25638 A 69.579308,69.579308 0 1 1 519.29922,279.25638 z"
         transform="matrix(4.5632947e-2,2.0408626e-3,-2.0408626e-3,4.5632947e-2,656.17059,228.866)" />
      <path
         sodipodi:type="arc"
         style="fill:#ffffff;fill-opacity:1;fill-rule:nonzero;stroke:none;stroke-width:27.55895996;stroke-linecap:round;stroke-linejoin:round;marker:none;marker-start:none;marker-mid:none;marker-end:none;stroke-miterlimit:4;stroke-dasharray:none;stroke-dashoffset:0;stroke-opacity:1;visibility:visible;display:inline;overflow:visible;enable-background:accumulate"
         id="path11293"
         sodipodi:cx="449.71991"
         sodipodi:cy="279.25638"
         sodipodi:rx="69.579308"
         sodipodi:ry="69.579308"
         d="M 519.29922,279.25638 A 69.579308,69.579308 0 1 1 380.1406,279.25638 A 69.579308,69.579308 0 1 1 519.29922,279.25638 z"
         transform="matrix(2.4637333e-2,1.101867e-3,-1.101867e-3,2.4637333e-2,699.70993,250.35062)" />
      <path
         transform="matrix(8.8194556e-2,3.9443715e-3,-3.9443715e-3,8.8194556e-2,627.15309,254.02373)"
         d="M 519.29922,279.25638 A 69.579308,69.579308 0 1 1 380.1406,279.25638 A 69.579308,69.579308 0 1 1 519.29922,279.25638 z"
         sodipodi:ry="69.579308"
         sodipodi:rx="69.579308"
         sodipodi:cy="279.25638"
         sodipodi:cx="449.71991"
         id="path11295"
         style="fill:#ffffff;fill-opacity:1;fill-rule:nonzero;stroke:none;stroke-width:27.55895996;stroke-linecap:round;stroke-linejoin:round;marker:none;marker-start:none;marker-mid:none;marker-end:none;stroke-miterlimit:4;stroke-dasharray:none;stroke-dashoffset:0;stroke-opacity:1;visibility:visible;display:inline;overflow:visible;enable-background:accumulate"
         sodipodi:type="arc" />
    </g>
    <g
       style="opacity:1;fill:#ffffff;display:inline"
       clip-path="none"
       id="g15119"
       transform="matrix(-0.4327171,1.180009,1.180009,0.4327171,1009.2806,-1628.776)">
      <path
         style="opacity:1;fill:#ffffff;fill-opacity:1;fill-rule:evenodd;stroke:none;stroke-width:1px;stroke-linecap:butt;stroke-linejoin:miter;stroke-opacity:1"
         d="M 554.59375,381.40625 C 543.38754,381.36058 532.06356,384.04278 522.0625,389.375 C 486.87626,408.135 474.51661,449.60564 483.90625,486.09375 C 477.81405,482.87912 470.77271,481.51951 463.4375,482.875 C 449.74271,485.4058 438.45187,498.35918 441.375,512.6875 C 443.37291,522.4806 452.80465,530.5907 463.09375,528.25 C 469.83903,526.7156 475.42276,520.05932 473.59375,512.9375 C 472.4553,508.5046 467.989,504.83225 463.28125,506.21875 C 460.53895,507.02645 458.20778,509.91126 459.21875,512.84375 C 459.75817,514.40855 461.50075,515.73126 463.1875,515.03125 C 463.98471,514.70035 464.7008,513.74162 464.25,512.875 C 464.07191,512.5327 463.58235,512.19408 463.21875,512.46875 C 463.07661,512.57615 462.98771,512.88537 463.34375,512.78125 C 463.3902,512.61557 463.56803,512.53265 463.6875,512.59375 C 464.09324,512.80113 464.06175,513.3691 463.84375,513.6875 C 463.29183,514.49341 462.10497,514.32855 461.4375,513.78125 C 460.02529,512.62335 460.37401,510.4632 461.5,509.25 C 463.6102,506.97639 467.24544,507.6493 469.25,509.6875 C 472.69126,513.18651 471.56095,518.87575 468.1875,521.96875 C 462.76774,526.93787 454.2819,525.13265 449.75,519.90625 C 442.8372,511.93396 445.52242,499.8144 453.21875,493.4375 C 463.2507,485.12545 477.76976,487.16479 486.84375,495.5 C 488.46073,499.84666 490.38731,504.08406 492.65625,508.15625 C 524.27077,564.89653 599.60605,576.79965 653.40625,545.71875 C 643.13509,504.27335 652.73929,539.75163 588.875,541.84375 C 542.95888,543.34785 497.92831,508.17649 497.96875,459.9375 C 497.99641,426.9666 523.16979,394.62759 557.96875,395.4375 C 580.78224,395.9685 603.20467,413.74455 601.96875,437.96875 C 601.19946,453.04665 589.12956,467.92185 573,466.53125 C 563.60449,465.72115 554.25133,457.89401 555.59375,447.75 C 556.31005,442.3371 561.05621,436.87604 566.96875,438.03125 C 569.76317,438.57725 572.66951,441.24636 571.78125,444.34375 C 571.43035,445.56735 570.09913,446.90771 568.71875,446.3125 C 568.31232,446.1372 568.11387,445.49774 568.4375,445.03125 C 567.95356,443.90724 567.38031,444.788 567.40625,445.375 C 567.47251,446.87681 569.3492,447.3921 570.59375,447.125 C 573.74429,446.449 574.71019,442.62825 573.875,439.90625 C 572.10789,434.14686 565.04932,432.54995 559.9375,434.46875 C 550.35768,438.06464 547.84971,449.98745 551.5625,458.65625 C 557.93627,473.53814 576.77586,477.1764 590.4375,470.75 C 612.38612,460.42539 617.50043,432.27835 607.21875,411.90625 C 596.92661,391.51321 575.98742,381.49345 554.59375,381.40625 z M 568.4375,445.03125 C 568.47391,445.11585 568.49827,444.89914 568.4375,445.03125 z"
         transform="translate(67.999994,823.15657)"
         id="path15121" />
      <path
         style="opacity:1;fill:#ffffff;fill-opacity:1;stroke:none;stroke-width:1;stroke-linejoin:round;stroke-miterlimit:4;stroke-dasharray:none;stroke-dashoffset:0;stroke-opacity:1"
         d="M 780.46875,330.75 C 749.03689,330.75 723.35028,355.59309 721.96875,386.6875 C 714.86489,376.87514 703.31349,370.5 690.28125,370.5 C 668.70918,370.50001 651.1875,387.9904 651.1875,409.5625 C 651.18749,422.08223 657.11265,433.21882 666.28125,440.375 C 642.05678,459.51797 626.5,489.15112 626.5,522.40625 C 626.5,532.14602 627.84777,541.58306 630.34375,550.53125 C 624.88025,548.39537 618.93558,547.21875 612.71875,547.21875 C 585.98289,547.21874 564.28125,568.92035 564.28125,595.65625 C 564.28125,622.39207 585.98289,644.09375 612.71875,644.09375 C 638.00603,644.09373 658.79009,624.66322 660.96875,599.9375 C 679.52079,616.7228 704.09795,626.96875 731.0625,626.96875 C 788.77284,626.96874 835.62499,580.11655 835.625,522.40625 C 835.625,491.35661 822.05217,463.45846 800.53125,444.3125 C 822.98117,436.12308 839.03125,414.58331 839.03125,389.3125 C 839.03124,356.9969 812.78431,330.75001 780.46875,330.75 z M 780.46875,346.625 C 804.03216,346.625 823.15627,365.749 823.15625,389.3125 C 823.15625,411.89733 805.58231,430.37669 783.375,431.875 C 773.34129,426.0658 762.24987,421.90073 750.46875,419.6875 C 742.63188,411.94631 737.78126,401.18912 737.78125,389.3125 C 737.78125,365.7491 756.90535,346.625 780.46875,346.625 z M 690.28125,381.0625 C 706.01083,381.0625 718.78125,393.8329 718.78125,409.5625 C 718.78125,412.79711 718.24453,415.91368 717.25,418.8125 C 702.05903,420.8183 687.88017,426.07014 675.46875,433.875 C 667.28385,428.86591 661.78125,419.85422 661.78125,409.5625 C 661.78123,393.83289 674.55164,381.0625 690.28125,381.0625 z M 728.71875,416.71875 C 728.93122,417.11864 729.15365,417.51197 729.375,417.90625 C 729.07139,417.91103 728.77173,417.93014 728.46875,417.9375 C 728.55733,417.53239 728.64286,417.12843 728.71875,416.71875 z M 731.0625,446.15625 C 773.14295,446.15626 807.28125,480.32575 807.28125,522.40625 C 807.28125,564.48677 773.14297,598.625 731.0625,598.625 C 688.98201,598.62499 654.8125,564.48675 654.8125,522.40625 C 654.81252,480.32577 688.98203,446.15625 731.0625,446.15625 z M 612.71875,560.3125 C 623.22562,560.3125 632.65341,564.92857 639.125,572.21875 C 639.13017,572.22457 639.11984,572.24417 639.125,572.25 C 641.03053,575.75376 643.15752,579.12741 645.4375,582.375 C 647.10349,586.47458 648.03125,590.96096 648.03125,595.65625 C 648.03126,615.15117 632.21365,630.96875 612.71875,630.96875 C 593.22385,630.96873 577.40625,615.15115 577.40625,595.65625 C 577.40624,576.16137 593.22385,560.3125 612.71875,560.3125 z"
         transform="translate(67.999994,823.15657)"
         id="path15123" />
      <path
         id="path15125"
         d="M 739.96893,1214.4153 C 739.96865,1214.4153 739.96843,1222.6168 739.96843,1232.7283 C 739.96843,1242.8399 739.96865,1251.0503 739.96893,1251.0503 C 739.96921,1251.0503 739.96943,1242.8399 739.96943,1232.7283 C 739.96943,1222.6168 739.96921,1214.4153 739.96893,1214.4153 z M 739.96893,1219.3708 C 739.96913,1219.3708 739.96929,1225.3553 739.96929,1232.7283 C 739.96929,1240.1013 739.96913,1246.0858 739.96893,1246.0858 C 739.96873,1246.0858 739.96857,1240.1013 739.96857,1232.7283 C 739.96857,1225.3553 739.96873,1219.3708 739.96893,1219.3708 z"
         style="opacity:1;fill:#ffffff;fill-opacity:1;stroke:none;stroke-width:1;stroke-linejoin:round;stroke-miterlimit:4;stroke-dasharray:none;stroke-dashoffset:0;stroke-opacity:1" />
      <path
         style="opacity:1;fill:#ffffff;fill-opacity:1;fill-rule:evenodd;stroke:none;stroke-width:1px;stroke-linecap:butt;stroke-linejoin:miter;stroke-opacity:1"
         d="M 676.65625,215.25 C 676.18637,215.24272 675.71863,215.26308 675.25,215.28125 C 669.41819,215.5074 663.74561,217.71979 659.375,222.28125 C 652.54699,229.40735 651.28562,241.61825 658.96875,248.65625 C 664.00564,253.27025 672.52715,254.0502 677.28125,248.5625 C 680.24038,245.1468 680.70908,239.44904 676.9375,236.40625 C 674.74052,234.63375 671.09396,234.37475 669.28125,236.84375 C 668.31399,238.16115 668.23367,240.3365 669.75,241.3125 C 670.46665,241.7738 671.6436,241.7905 672.09375,240.9375 C 672.27158,240.6005 672.27114,240.0159 671.84375,239.875 C 671.67668,239.82 671.37161,239.92574 671.65625,240.15625 C 671.81692,240.10084 671.98244,240.21245 672,240.34375 C 672.05962,240.78976 671.5685,241.0606 671.1875,241.0625 C 670.22299,241.0674 669.68082,240.00575 669.75,239.15625 C 669.8964,237.35885 671.85095,236.42395 673.46875,236.65625 C 676.50059,237.09175 677.99688,240.44575 677.46875,243.21875 C 676.56208,247.97915 671.31336,250.2505 666.90625,249.25 C 659.82584,247.64259 656.52258,239.7419 658.21875,233.125 C 660.80608,223.03199 672.1534,218.398 681.65625,221.0625 C 695.29359,224.88627 701.77088,240.17028 698.09375,253.125 C 688.42833,260.13759 680.49711,269.7432 675.625,280.875 C 673.18038,286.46046 671.49288,292.15134 670.5,297.84375 C 648.49901,280.27495 616.27091,276.45505 593,294.96875 C 585.8223,300.67919 580.34206,308.34176 577.09375,316.75 C 568.34557,321.96054 555.90858,320.1927 550.46875,310.96875 C 546.68089,304.54595 547.88126,295.34591 554.75,291.5 C 559.25301,288.9787 565.6724,289.8913 568.21875,294.75 C 569.80368,297.7743 569.14423,302.04 565.84375,303.625 C 563.9212,304.5482 561.21822,304.09824 560.3125,301.96875 C 559.82923,300.83235 560.12217,299.23656 561.40625,298.78125 C 562.01316,298.56605 562.87905,298.73231 563.0625,299.4375 C 563.11683,299.64645 563.07425,299.94531 562.90625,300.09375 L 562.875,300.09375 C 562.82284,300.13389 562.76163,300.17807 562.6875,300.1875 C 562.58822,300.2001 562.49067,300.09685 562.5,299.96875 C 562.27648,299.80565 562.23991,300.04485 562.3125,300.15625 C 562.49817,300.44095 562.94466,300.3201 563.15625,300.125 C 563.69186,299.6309 563.44453,298.77765 562.96875,298.34375 C 561.96207,297.42575 560.39953,297.9133 559.625,298.875 C 558.17347,300.6773 559.06102,303.3018 560.78125,304.5625 C 563.73438,306.7268 567.79811,305.2605 569.71875,302.4375 C 572.80444,297.9021 570.56444,291.8462 566.21875,289.0625 C 559.58998,284.8164 550.94264,288.10125 547.0625,294.46875 C 541.38549,303.78484 546.02915,315.72735 555,320.96875 C 561.42346,324.7217 568.69675,324.93981 575.21875,322.65625 C 571.92691,335.71675 573.96843,349.84245 583.1875,361 C 594.64619,374.8681 616.44656,379.73511 630.8125,367.3125 C 640.23056,359.1685 643.49301,343.92335 634.5625,334.15625 C 629.00379,328.07695 618.74372,326.00211 612.4375,332.1875 C 608.76409,335.7904 607.56934,342.32139 611.65625,346.125 C 613.83704,348.1547 617.72492,348.82026 619.8125,346.28125 C 620.79913,345.08135 621.10551,342.9329 619.65625,341.9375 C 619.08375,341.5443 618.03275,341.4435 617.6875,342.1875 C 617.55251,342.4783 617.67869,343.02909 618.15625,342.5625 C 618.08984,342.25989 618.28979,341.97275 618.53125,341.96875 C 619.35137,341.95505 619.76452,342.90355 619.6875,343.59375 C 619.49251,345.34106 617.46083,346.08605 615.9375,345.78125 C 612.71435,345.13636 611.45617,341.3799 612.21875,338.5 C 613.64787,333.10301 619.99741,331.11395 624.90625,332.65625 C 633.33335,335.30385 636.33655,345.32625 633.59375,353.09375 C 629.18716,365.57306 614.18361,369.87555 602.5625,365.40625 C 584.83606,358.58884 578.85501,337.04785 585.6875,320.40625 C 595.684,296.05815 625.70725,287.67525 648.5625,297.96875 C 660.48344,303.33763 666.201,308.91027 669.4375,312.8125 C 670.43435,344.85533 691.8879,375.03992 721.9375,388.6875 C 721.93528,388.89749 721.90625,389.10199 721.90625,389.3125 C 721.90625,421.628 748.15323,447.84374 780.46875,447.84375 C 812.78429,447.84375 839.03125,421.628 839.03125,389.3125 C 839.03124,356.9969 812.78431,330.75001 780.46875,330.75 C 753.96405,330.75 731.58,348.41593 724.375,372.59375 C 718.2834,369.77603 709.20731,364.33745 698.3125,350.9375 C 677.38271,325.1951 677.93462,283.93191 705.6875,262.875 C 724.65632,248.4829 754.22752,248.8258 768.96875,269.1875 C 778.6328,282.5362 778.21784,303.18731 763.75,313.0625 C 754.74468,319.2092 740.9052,318.75649 734.65625,308.875 C 731.01625,303.119 731.42475,294.34859 737.84375,290.6875 C 741.26895,288.734 746.4867,289.06455 748.40625,292.96875 C 749.31347,294.81405 749.04404,297.65721 746.875,298.5 C 746.01817,298.8329 744.66721,298.64744 744.40625,297.59375 C 744.32942,297.28345 744.6216,296.8928 745.03125,296.875 C 745.46599,296.1056 744.70119,296.13485 744.375,296.40625 C 743.54046,297.10065 744.0526,298.43235 744.75,299.03125 C 746.51549,300.54725 749.1437,299.4197 750.34375,297.75 C 752.88287,294.2172 750.74333,289.4756 747.40625,287.375 C 741.15245,283.4385 733.20542,287.2022 729.84375,293.125 C 724.07262,303.29289 730.17885,315.7035 739.84375,320.75 C 755.37127,328.85771 773.81123,319.5015 781.03125,304.6875 C 792.04453,282.09079 778.38246,255.8241 756.75,245.875 C 739.3405,237.86808 720.59272,240.09707 705,248.75 C 705.7139,239.62241 702.95808,230.38712 695.96875,223.4375 C 690.8263,218.32432 683.70438,215.3592 676.65625,215.25 z M 780.46875,346.625 C 804.03216,346.625 823.15627,365.749 823.15625,389.3125 C 823.15625,412.8759 804.03218,432 780.46875,432 C 756.90533,432 737.78127,412.8759 737.78125,389.3125 C 737.78125,365.7491 756.90535,346.625 780.46875,346.625 z"
         id="path15127"
         transform="translate(67.999994,823.15657)" />
      <path
         id="path15129"
         d="M 799.05637,1296.5778 C 772.00557,1296.5778 750.04081,1318.5187 750.04081,1345.5695 C 750.04081,1372.6203 772.00557,1394.5851 799.05637,1394.5851 C 826.10717,1394.5851 848.07192,1372.6203 848.07193,1345.5695 C 848.07193,1318.5187 826.10717,1296.5778 799.05637,1296.5778 z M 799.05637,1309.835 C 818.78092,1309.835 834.79092,1325.845 834.79092,1345.5695 C 834.79092,1365.2941 818.78092,1381.3041 799.05637,1381.3041 C 779.33182,1381.3041 763.32182,1365.2941 763.32182,1345.5695 C 763.32182,1325.845 779.33182,1309.835 799.05637,1309.835 z"
         style="opacity:1;fill:#ffffff;fill-opacity:1;stroke:none;stroke-width:1;stroke-linejoin:round;stroke-miterlimit:4;stroke-dasharray:none;stroke-dashoffset:0;stroke-opacity:1" />
      <path
         sodipodi:nodetypes="csssssssssssccsssssssssssc"
         d="M 794.99458,1336.3323 C 794.9978,1336.3362 794.99429,1336.333 794.99458,1336.3323 C 795.02216,1336.2724 795.0111,1336.3707 794.99458,1336.3323 C 794.77495,1335.8222 794.50133,1336.2082 794.51312,1336.4746 C 794.54315,1337.1562 795.39696,1337.3981 795.9618,1337.2769 C 797.39168,1336.97 797.8351,1335.2376 797.45604,1334.0022 C 796.65403,1331.3883 793.45025,1330.6549 791.13022,1331.5258 C 786.78243,1333.1578 785.65107,1338.5698 787.33609,1342.5041 C 790.22885,1349.2583 798.76792,1350.914 804.96824,1347.9974 C 814.92964,1343.3116 817.25511,1330.535 812.58876,1321.289 C 805.4709,1307.1856 787.1458,1304.0256 773.94149,1311.0657 C 754.62244,1321.3659 750.44312,1346.7588 760.59147,1364.9726 C 774.93975,1390.7243 802.07209,1395.3141 826.48935,1381.2081 M 794.99458,1336.3323 C 794.99949,1336.3313 794.99499,1336.3329 794.99458,1336.3323 C 794.9547,1336.2797 795.01839,1336.2979 794.99458,1336.3323 C 794.84771,1336.5441 794.93266,1336.8332 795.1171,1336.9127 C 795.7436,1337.1828 796.34806,1336.5682 796.50734,1336.0129 C 796.91046,1334.6072 795.59139,1333.3997 794.32314,1333.1519 C 791.6397,1332.6276 789.48316,1335.1078 789.15808,1337.5645 C 788.54883,1342.1684 792.78919,1345.7165 797.05334,1346.0841 C 804.37374,1346.7153 809.85784,1339.9638 810.207,1333.1207 C 810.76792,1322.1265 800.59445,1314.055 790.24054,1313.814 C 774.44702,1313.4464 763.02489,1328.1205 763.01231,1343.0843 C 762.99399,1364.9777 779.4296,1384.9435 800.26867,1384.2608 C 829.2535,1383.3114 821.82779,1362.398 826.48935,1381.2081"
         style="opacity:1;fill:#ffffff;fill-opacity:1;fill-rule:evenodd;stroke:none;stroke-width:1px;stroke-linecap:butt;stroke-linejoin:miter;stroke-opacity:1"
         id="path15131" />
      <path
         style="opacity:0.1;fill:#ffffff;fill-opacity:1;stroke:none;stroke-width:1;stroke-linejoin:round;stroke-miterlimit:4;stroke-dasharray:none;stroke-dashoffset:0;stroke-opacity:1"
         d="M 680.71929,1370.3797 C 653.98343,1370.3797 632.27441,1392.0651 632.27441,1418.801 C 632.27441,1445.5368 653.98343,1467.2459 680.71929,1467.2459 C 707.45515,1467.2459 729.16416,1445.5368 729.16417,1418.801 C 729.16417,1392.0651 707.45515,1370.3797 680.71929,1370.3797 z M 680.71929,1383.4825 C 700.21419,1383.4825 716.03778,1399.3061 716.03778,1418.801 C 716.03778,1438.2959 700.21419,1454.1195 680.71929,1454.1195 C 661.22439,1454.1195 645.4008,1438.2959 645.4008,1418.801 C 645.4008,1399.3061 661.22439,1383.4825 680.71929,1383.4825 z"
         id="path15133" />
      <path
         id="path15135"
         d="M 680.71929,1396.1106 C 668.18728,1396.1106 658.01153,1406.2752 658.01153,1418.8073 C 658.01153,1431.3393 668.18728,1441.515 680.71929,1441.515 C 693.25129,1441.515 703.42704,1431.3393 703.42705,1418.8073 C 703.42705,1406.2752 693.25129,1396.1106 680.71929,1396.1106 z M 680.71929,1402.2523 C 689.85721,1402.2523 697.27427,1409.6693 697.27427,1418.8073 C 697.27427,1427.9452 689.85721,1435.3622 680.71929,1435.3622 C 671.58136,1435.3622 664.16431,1427.9452 664.16431,1418.8073 C 664.16431,1409.6693 671.58136,1402.2523 680.71929,1402.2523 z"
         style="opacity:0.1;fill:#ffffff;fill-opacity:1;stroke:none;stroke-width:1;stroke-linejoin:round;stroke-miterlimit:4;stroke-dasharray:none;stroke-dashoffset:0;stroke-opacity:1" />
      <g
         id="g15141"
         style="fill:#ffffff">
        <path
           id="path15143"
           d="M 680.71929,1396.1106 C 668.18728,1396.1106 658.01153,1406.2752 658.01153,1418.8073 C 658.01153,1431.3393 668.18728,1441.515 680.71929,1441.515 C 693.25129,1441.515 703.42704,1431.3393 703.42705,1418.8073 C 703.42705,1406.2752 693.25129,1396.1106 680.71929,1396.1106 z M 680.71929,1402.2523 C 689.85721,1402.2523 697.27427,1409.6693 697.27427,1418.8073 C 697.27427,1427.9452 689.85721,1435.3622 680.71929,1435.3622 C 671.58136,1435.3622 664.16431,1427.9452 664.16431,1418.8073 C 664.16431,1409.6693 671.58136,1402.2523 680.71929,1402.2523 z"
           style="opacity:1;fill:#ffffff;fill-opacity:1;stroke:none;stroke-width:1;stroke-linejoin:round;stroke-miterlimit:4;stroke-dasharray:none;stroke-dashoffset:0;stroke-opacity:1" />
        <path
           id="path15145"
           style="opacity:1;fill:#ffffff;fill-opacity:1;fill-rule:evenodd;stroke:none;stroke-width:1px;stroke-linecap:butt;stroke-linejoin:miter;stroke-opacity:1"
           d="M 678.83755,1414.5278 C 678.83904,1414.5296 678.83742,1414.5282 678.83755,1414.5278 C 678.85033,1414.5001 678.84521,1414.5457 678.83755,1414.5278 C 678.7358,1414.2915 678.60904,1414.4704 678.6145,1414.5938 C 678.62841,1414.9095 679.02397,1415.0216 679.28564,1414.9654 C 679.94807,1414.8233 680.1535,1414.0207 679.97789,1413.4484 C 679.60633,1412.2374 678.1221,1411.8977 677.04728,1412.3011 C 675.03305,1413.0572 674.50892,1415.5644 675.28955,1417.3871 C 676.6297,1420.5161 680.58565,1421.2832 683.45812,1419.932 C 688.073,1417.7612 689.15034,1411.8421 686.98852,1407.5587 C 683.69099,1401.0249 675.20139,1399.5609 669.08415,1402.8224 C 660.13409,1407.5943 658.1979,1419.3582 662.8994,1427.7962 C 669.54662,1439.7264 685.38879,1442.2299 696.70074,1435.6949 M 678.83755,1414.5278 C 678.83982,1414.5274 678.83774,1414.5281 678.83755,1414.5278 C 678.81907,1414.5035 678.84858,1414.5119 678.83755,1414.5278 C 678.76951,1414.6259 678.80887,1414.7599 678.89431,1414.7967 C 679.18456,1414.9219 679.46459,1414.6372 679.53838,1414.3799 C 679.72514,1413.7286 679.11404,1413.1692 678.52649,1413.0544 C 677.28332,1412.8116 676.28424,1413.9606 676.13364,1415.0987 C 675.85139,1417.2316 677.81585,1418.8753 679.79133,1419.0456 C 683.1827,1419.338 685.72335,1416.2103 685.88511,1413.04 C 686.14497,1407.9466 681.43184,1404.2073 676.63512,1404.0956 C 669.31835,1403.9253 664.02674,1410.7235 664.02092,1417.6559 C 664.01243,1427.7986 673.47977,1435.1952 683.13402,1434.8789 C 696.56202,1434.439 694.54115,1426.9807 696.70074,1435.6949"
           sodipodi:nodetypes="csssssssssssccsssssssssssc" />
      </g>
      <path
         style="opacity:1;fill:#ffffff;fill-opacity:1;stroke:none;stroke-width:1;stroke-linejoin:round;stroke-miterlimit:4;stroke-dasharray:none;stroke-dashoffset:0;stroke-opacity:1"
         d="M 674.89379,1345.7307 C 665.05715,1345.7307 657.06999,1353.7092 657.06999,1363.5458 C 657.06999,1373.3824 665.05715,1381.3696 674.89379,1381.3696 C 684.73042,1381.3696 692.71758,1373.3824 692.71759,1363.5458 C 692.71759,1353.7092 684.73042,1345.7307 674.89379,1345.7307 z M 674.89379,1350.5515 C 682.06633,1350.5515 687.88814,1356.3733 687.88814,1363.5458 C 687.88814,1370.7184 682.06633,1376.5402 674.89379,1376.5402 C 667.72124,1376.5402 661.89944,1370.7184 661.89944,1363.5458 C 661.89944,1356.3733 667.72124,1350.5515 674.89379,1350.5515 z"
         id="path15147" />
      <path
         id="path15149"
         d="M 674.89379,1355.1976 C 670.28302,1355.1976 666.53916,1358.9374 666.53916,1363.5481 C 666.53916,1368.1589 670.28302,1371.9027 674.89379,1371.9027 C 679.50455,1371.9027 683.24841,1368.1589 683.24841,1363.5481 C 683.24841,1358.9374 679.50455,1355.1976 674.89379,1355.1976 z M 674.89379,1357.4572 C 678.2558,1357.4572 680.98468,1360.1861 680.98468,1363.5481 C 680.98468,1366.9101 678.2558,1369.639 674.89379,1369.639 C 671.53177,1369.639 668.80289,1366.9101 668.80289,1363.5481 C 668.80289,1360.1861 671.53177,1357.4572 674.89379,1357.4572 z"
         style="opacity:1;fill:#ffffff;fill-opacity:1;stroke:none;stroke-width:1;stroke-linejoin:round;stroke-miterlimit:4;stroke-dasharray:none;stroke-dashoffset:0;stroke-opacity:1" />
      <g
         style="opacity:1;fill:#ffffff"
         transform="matrix(0.1851248,0,0,0.1851248,613.97906,1295.4922)"
         id="g15151">
        <path
           style="opacity:1;fill:#ffffff;fill-opacity:1;stroke:none;stroke-width:1;stroke-linejoin:round;stroke-miterlimit:4;stroke-dasharray:none;stroke-dashoffset:0;stroke-opacity:1"
           d="M 126.21875,144.40625 C 90.82931,144.40625 62.09375,173.11056 62.09375,208.5 C 62.09375,243.88944 90.82931,272.62499 126.21875,272.625 C 161.60819,272.625 190.34374,243.88944 190.34375,208.5 C 190.34375,173.11056 161.60819,144.40626 126.21875,144.40625 z M 126.21875,161.75 C 152.02355,161.75 172.96875,182.6952 172.96875,208.5 C 172.96875,234.30481 152.02355,255.25 126.21875,255.25 C 100.41395,255.25 79.46875,234.3048 79.46875,208.5 C 79.46875,182.6952 100.41395,161.75 126.21875,161.75 z"
           id="path15153" />
        <path
           id="path15155"
           d="M 126.21875,178.46538 C 109.63052,178.46538 96.161181,191.92007 96.161181,208.5083 C 96.161181,225.09654 109.63052,238.56587 126.21875,238.56587 C 142.80698,238.56587 156.27631,225.09654 156.27632,208.5083 C 156.27632,191.92007 142.80698,178.46538 126.21875,178.46538 z M 126.21875,186.59499 C 138.31434,186.59499 148.13207,196.41271 148.13207,208.5083 C 148.13207,220.60389 138.31434,230.42162 126.21875,230.42162 C 114.12316,230.42162 104.30543,220.60389 104.30543,208.5083 C 104.30543,196.41271 114.12316,186.59499 126.21875,186.59499 z"
           style="opacity:1;fill:#ffffff;fill-opacity:1;stroke:none;stroke-width:1;stroke-linejoin:round;stroke-miterlimit:4;stroke-dasharray:none;stroke-dashoffset:0;stroke-opacity:1" />
      </g>
      <path
         style="opacity:1;fill:#ffffff;fill-opacity:1;stroke:none;stroke-width:1;stroke-linejoin:round;stroke-miterlimit:4;stroke-dasharray:none;stroke-dashoffset:0;stroke-opacity:1"
         d="M 808.50895,970.87457 C 806.27132,970.87457 804.45441,969.05964 804.45441,966.82201 C 804.45441,964.58438 806.27132,962.76748 808.50895,962.76747 C 810.74657,962.76747 812.56348,964.58438 812.56348,966.82201 C 812.56348,969.05964 810.74657,970.87457 808.50895,970.87457 z M 808.50895,969.77795 C 810.14055,969.77795 811.46489,968.45361 811.46489,966.82201 C 811.46489,965.19041 810.14055,963.86607 808.50895,963.86607 C 806.87735,963.86607 805.55301,965.19041 805.55301,966.82201 C 805.55301,968.45361 806.87735,969.77795 808.50895,969.77795 z"
         id="path15179" />
      <path
         transform="matrix(0.5969231,0,0,-0.5969231,622.16634,1108.2723)"
         d="M 185.65564,215.85391 C 230.04118,234.53637 228.68309,169.06242 185.43211,190.23938 C 105.57307,229.34073 166.01559,140.53997 158.53359,229.14246 C 154.48141,277.12882 216.33116,255.60463 182.82538,221.01455 C 120.95999,157.14707 224.0923,187.19038 137.51425,207.45425 C 90.624323,218.42899 130.20767,270.60026 152.75094,228.04545 C 194.37506,149.47183 197.67181,256.84038 151.64563,180.76165 C 126.71825,139.55805 89.332353,193.32586 136.77063,201.61562 C 224.36115,216.92193 123.26635,253.23603 181.39865,185.95292 C 212.88261,149.51296 150.19351,130.57202 156.96871,178.25019 C 169.4785,266.28363 103.70173,181.35843 185.65564,215.85391 z"
         inkscape:randomized="0"
         inkscape:rounded="1.88"
         inkscape:flatsided="false"
         sodipodi:arg2="-0.54381798"
         sodipodi:arg1="0.48689923"
         sodipodi:r2="26.272663"
         sodipodi:r1="25.691782"
         sodipodi:cy="203.83304"
         sodipodi:cx="162.94955"
         sodipodi:sides="5"
         id="path15181"
         style="opacity:1;fill:#ffffff;fill-opacity:1;stroke:none;stroke-width:1;stroke-linejoin:round;stroke-miterlimit:4;stroke-dasharray:none;stroke-dashoffset:0;stroke-opacity:1"
         sodipodi:type="star" />
      <path
         id="path15183"
         d="M 728.65247,1187.7162 C 722.46829,1187.7162 717.44686,1182.7002 717.44686,1176.5161 C 717.44686,1170.3319 722.46829,1165.3104 728.65247,1165.3104 C 734.83666,1165.3104 739.85809,1170.3319 739.85809,1176.5161 C 739.85809,1182.7002 734.83666,1187.7162 728.65247,1187.7162 z M 728.65247,1184.6855 C 733.16177,1184.6855 736.82187,1181.0254 736.82187,1176.5161 C 736.82187,1172.0068 733.16177,1168.3467 728.65247,1168.3467 C 724.14318,1168.3467 720.48308,1172.0068 720.48308,1176.5161 C 720.48308,1181.0254 724.14318,1184.6855 728.65247,1184.6855 z"
         style="opacity:1;fill:#ffffff;fill-opacity:1;stroke:none;stroke-width:1;stroke-linejoin:round;stroke-miterlimit:4;stroke-dasharray:none;stroke-dashoffset:0;stroke-opacity:1" />
      <path
         style="opacity:1;fill:#ffffff;fill-opacity:1;stroke:none;stroke-width:1;stroke-linejoin:round;stroke-miterlimit:4;stroke-dasharray:none;stroke-dashoffset:0;stroke-opacity:1"
         d="M 728.65247,1181.7645 C 725.75374,1181.7645 723.40002,1179.4133 723.40002,1176.5146 C 723.40002,1173.6159 725.75374,1171.2621 728.65247,1171.2621 C 731.55121,1171.2621 733.90493,1173.6159 733.90493,1176.5146 C 733.90493,1179.4133 731.55121,1181.7645 728.65247,1181.7645 z M 728.65247,1180.3439 C 730.76614,1180.3439 732.48175,1178.6283 732.48175,1176.5146 C 732.48175,1174.4009 730.76614,1172.6853 728.65247,1172.6853 C 726.53881,1172.6853 724.8232,1174.4009 724.8232,1176.5146 C 724.8232,1178.6283 726.53881,1180.3439 728.65247,1180.3439 z"
         id="path15185" />
      <g
         style="opacity:0.1;fill:#ffffff"
         id="g15187"
         transform="matrix(0.1170345,0,0,-0.1170345,708.03536,1167.0458)">
        <path
           id="path15189"
           d="M 126.21875,144.40625 C 90.82931,144.40625 62.09375,173.11056 62.09375,208.5 C 62.09375,243.88944 90.82931,272.62499 126.21875,272.625 C 161.60819,272.625 190.34374,243.88944 190.34375,208.5 C 190.34375,173.11056 161.60819,144.40626 126.21875,144.40625 z M 126.21875,161.75 C 152.02355,161.75 172.96875,182.6952 172.96875,208.5 C 172.96875,234.30481 152.02355,255.25 126.21875,255.25 C 100.41395,255.25 79.46875,234.3048 79.46875,208.5 C 79.46875,182.6952 100.41395,161.75 126.21875,161.75 z"
           style="opacity:1;fill:#ffffff;fill-opacity:1;stroke:none;stroke-width:1;stroke-linejoin:round;stroke-miterlimit:4;stroke-dasharray:none;stroke-dashoffset:0;stroke-opacity:1" />
        <path
           style="opacity:1;fill:#ffffff;fill-opacity:1;stroke:none;stroke-width:1;stroke-linejoin:round;stroke-miterlimit:4;stroke-dasharray:none;stroke-dashoffset:0;stroke-opacity:1"
           d="M 126.21875,178.46538 C 109.63052,178.46538 96.161181,191.92007 96.161181,208.5083 C 96.161181,225.09654 109.63052,238.56587 126.21875,238.56587 C 142.80698,238.56587 156.27631,225.09654 156.27632,208.5083 C 156.27632,191.92007 142.80698,178.46538 126.21875,178.46538 z M 126.21875,186.59499 C 138.31434,186.59499 148.13207,196.41271 148.13207,208.5083 C 148.13207,220.60389 138.31434,230.42162 126.21875,230.42162 C 114.12316,230.42162 104.30543,220.60389 104.30543,208.5083 C 104.30543,196.41271 114.12316,186.59499 126.21875,186.59499 z"
           id="path15191" />
      </g>
      <path
         id="path15193"
         d="M 722.80731,1150.1453 C 718.66552,1150.1453 715.30247,1146.7859 715.30247,1142.6441 C 715.30247,1138.5023 718.66552,1135.1393 722.80731,1135.1393 C 726.94909,1135.1393 730.31214,1138.5023 730.31215,1142.6441 C 730.31215,1146.7859 726.94909,1150.1453 722.80731,1150.1453 z M 722.80731,1148.1155 C 725.82736,1148.1155 728.27867,1145.6642 728.27867,1142.6441 C 728.27867,1139.624 725.82736,1137.1727 722.80731,1137.1727 C 719.78726,1137.1727 717.33595,1139.6241 717.33595,1142.6441 C 717.33595,1145.6642 719.78726,1148.1155 722.80731,1148.1155 z"
         style="opacity:1;fill:#ffffff;fill-opacity:1;stroke:none;stroke-width:1;stroke-linejoin:round;stroke-miterlimit:4;stroke-dasharray:none;stroke-dashoffset:0;stroke-opacity:1" />
      <path
         style="opacity:1;fill:#ffffff;fill-opacity:1;stroke:none;stroke-width:1;stroke-linejoin:round;stroke-miterlimit:4;stroke-dasharray:none;stroke-dashoffset:0;stroke-opacity:1"
         d="M 722.80731,1146.1592 C 720.86591,1146.1592 719.28954,1144.5845 719.28954,1142.6431 C 719.28954,1140.7017 720.86591,1139.1254 722.80731,1139.1254 C 724.7487,1139.1254 726.32508,1140.7017 726.32508,1142.6431 C 726.32508,1144.5845 724.7487,1146.1592 722.80731,1146.1592 z M 722.80731,1145.2077 C 724.22291,1145.2077 725.37192,1144.0587 725.37192,1142.6431 C 725.37192,1141.2275 724.22291,1140.0785 722.80731,1140.0785 C 721.39171,1140.0785 720.24269,1141.2275 720.24269,1142.6431 C 720.24269,1144.0587 721.39171,1145.2077 722.80731,1145.2077 z"
         id="path15195" />
      <path
         sodipodi:type="star"
         style="opacity:1;fill:#ffffff;fill-opacity:1;stroke:none;stroke-width:1;stroke-linejoin:round;stroke-miterlimit:4;stroke-dasharray:none;stroke-dashoffset:0;stroke-opacity:1"
         id="path15197"
         sodipodi:sides="5"
         sodipodi:cx="162.94955"
         sodipodi:cy="203.83304"
         sodipodi:r1="25.691782"
         sodipodi:r2="26.272663"
         sodipodi:arg1="0.48689923"
         sodipodi:arg2="-0.54381798"
         inkscape:flatsided="false"
         inkscape:rounded="1.88"
         inkscape:randomized="0"
         d="M 185.65564,215.85391 C 230.04118,234.53637 228.68309,169.06242 185.43211,190.23938 C 105.57307,229.34073 166.01559,140.53997 158.53359,229.14246 C 154.48141,277.12882 216.33116,255.60463 182.82538,221.01455 C 120.95999,157.14707 224.0923,187.19038 137.51425,207.45425 C 90.624323,218.42899 130.20767,270.60026 152.75094,228.04545 C 194.37506,149.47183 197.67181,256.84038 151.64563,180.76165 C 126.71825,139.55805 89.332353,193.32586 136.77063,201.61562 C 224.36115,216.92193 123.26635,253.23603 181.39865,185.95292 C 212.88261,149.51296 150.19351,130.57202 156.96871,178.25019 C 169.4785,266.28363 103.70173,181.35843 185.65564,215.85391 z"
         transform="matrix(0.2051923,0,0,-0.2051923,691.31587,927.30694)" />
      <path
         sodipodi:type="star"
         style="opacity:1;fill:#ffffff;fill-opacity:1;stroke:none;stroke-width:1;stroke-linejoin:round;stroke-miterlimit:4;stroke-dasharray:none;stroke-dashoffset:0;stroke-opacity:1"
         id="path15199"
         sodipodi:sides="5"
         sodipodi:cx="162.94955"
         sodipodi:cy="203.83304"
         sodipodi:r1="25.691782"
         sodipodi:r2="26.272663"
         sodipodi:arg1="0.48689923"
         sodipodi:arg2="-0.54381798"
         inkscape:flatsided="false"
         inkscape:rounded="1.88"
         inkscape:randomized="0"
         d="M 185.65564,215.85391 C 230.04118,234.53637 228.68309,169.06242 185.43211,190.23938 C 105.57307,229.34073 166.01559,140.53997 158.53359,229.14246 C 154.48141,277.12882 216.33116,255.60463 182.82538,221.01455 C 120.95999,157.14707 224.0923,187.19038 137.51425,207.45425 C 90.624323,218.42899 130.20767,270.60026 152.75094,228.04545 C 194.37506,149.47183 197.67181,256.84038 151.64563,180.76165 C 126.71825,139.55805 89.332353,193.32586 136.77063,201.61562 C 224.36115,216.92193 123.26635,253.23603 181.39865,185.95292 C 212.88261,149.51296 150.19351,130.57202 156.96871,178.25019 C 169.4785,266.28363 103.70173,181.35843 185.65564,215.85391 z"
         transform="matrix(-0.2984616,0,0,0.2984616,724.48137,990.44197)" />
      <g
         id="g15201"
         style="fill:#ffffff">
        <path
           id="path15203"
           d="M 848.472,1239.8964 C 833.32461,1239.8964 821.02521,1227.6104 821.02521,1212.463 C 821.02521,1197.3156 833.32461,1185.0162 848.472,1185.0162 C 863.61939,1185.0162 875.91878,1197.3156 875.91879,1212.463 C 875.91879,1227.6104 863.61939,1239.8964 848.472,1239.8964 z M 848.472,1232.4729 C 859.51697,1232.4729 868.48194,1223.508 868.48194,1212.463 C 868.48194,1201.418 859.51697,1192.453 848.472,1192.453 C 837.42702,1192.453 828.46205,1201.418 828.46205,1212.463 C 828.46205,1223.508 837.42702,1232.4729 848.472,1232.4729 z"
           style="opacity:1;fill:#ffffff;fill-opacity:1;stroke:none;stroke-width:1;stroke-linejoin:round;stroke-miterlimit:4;stroke-dasharray:none;stroke-dashoffset:0;stroke-opacity:1" />
        <path
           id="path15205"
           style="opacity:1;fill:#ffffff;fill-opacity:1;fill-rule:evenodd;stroke:none;stroke-width:1px;stroke-linecap:butt;stroke-linejoin:miter;stroke-opacity:1;display:inline"
           d="M 845.56007,1216.7765 C 845.5588,1216.7781 845.56018,1216.7768 845.56007,1216.7765 C 845.5492,1216.7529 845.55356,1216.7917 845.56007,1216.7765 C 845.64661,1216.5755 845.75443,1216.7276 845.74979,1216.8326 C 845.73795,1217.1012 845.40151,1217.1965 845.17894,1217.1488 C 844.6155,1217.0278 844.44077,1216.3452 844.59014,1215.8584 C 844.90617,1214.8284 846.16861,1214.5394 847.08281,1214.8825 C 848.79604,1215.5256 849.24185,1217.6582 848.57788,1219.2085 C 847.43799,1221.87 844.07319,1222.5224 841.62997,1221.3731 C 837.70471,1219.5267 836.78836,1214.4921 838.62713,1210.8488 C 841.4319,1205.2914 848.65286,1204.0462 853.85598,1206.8203 C 861.46861,1210.8791 863.11546,1220.8851 859.11653,1228.0622 C 853.46262,1238.2096 841.195,1238.442 831.57344,1232.8835 M 845.56007,1216.7765 C 845.55813,1216.7761 845.55991,1216.7768 845.56007,1216.7765 C 845.57578,1216.7558 845.55069,1216.763 845.56007,1216.7765 C 845.61794,1216.86 845.58447,1216.9739 845.51179,1217.0052 C 845.26492,1217.1117 845.02673,1216.8695 844.96397,1216.6507 C 844.80512,1216.0968 845.3249,1215.621 845.82465,1215.5233 C 846.88205,1215.3167 847.73183,1216.294 847.85993,1217.2621 C 848.1,1219.0762 846.4291,1220.4744 844.74882,1220.6192 C 841.86423,1220.8679 839.70324,1218.2075 839.56565,1215.511 C 839.34462,1211.1788 843.35345,1207.9982 847.43339,1207.9033 C 853.65678,1207.7584 858.15764,1213.5407 858.1626,1219.4371 C 858.16982,1228.0642 850.11722,1234.3555 841.90564,1234.0864 C 830.48424,1233.7123 833.41032,1225.4715 831.57344,1232.8835"
           sodipodi:nodetypes="csssssssssssccsssssssssssc" />
      </g>
      <path
         sodipodi:type="arc"
         style="opacity:1;fill:#ffffff;fill-opacity:1;stroke:none;stroke-width:5;stroke-linecap:round;stroke-linejoin:miter;stroke-miterlimit:4;stroke-dasharray:none;stroke-dashoffset:0;stroke-opacity:1"
         id="path15207"
         sodipodi:cx="683.40015"
         sodipodi:cy="400.20007"
         sodipodi:rx="19.200005"
         sodipodi:ry="19.200005"
         d="M 702.60015,400.20007 A 19.200005,19.200005 0 1 1 664.20014,400.20007 A 19.200005,19.200005 0 1 1 702.60015,400.20007 z"
         transform="matrix(0.9542706,0,0,0.9542706,106.1417,850.83364)" />
      <path
         id="path15209"
         d="M 773.16231,1172.982 C 769.14262,1172.982 765.87872,1176.2423 765.87872,1180.262 C 765.87872,1184.2817 769.14262,1187.5456 773.16231,1187.5456 C 777.18199,1187.5456 780.4459,1184.2817 780.4459,1180.262 C 780.4459,1176.2423 777.18199,1172.982 773.16231,1172.982 z M 773.16231,1174.952 C 776.09333,1174.952 778.47237,1177.331 778.47237,1180.262 C 778.47237,1183.193 776.09333,1185.5721 773.16231,1185.5721 C 770.23129,1185.5721 767.85224,1183.193 767.85224,1180.262 C 767.85224,1177.331 770.23129,1174.952 773.16231,1174.952 z"
         style="opacity:1;fill:#ffffff;fill-opacity:1;stroke:none;stroke-width:1;stroke-linejoin:round;stroke-miterlimit:4;stroke-dasharray:none;stroke-dashoffset:0;stroke-opacity:1" />
      <path
         sodipodi:type="arc"
         style="opacity:1;fill:#ffffff;fill-opacity:1;stroke:none;stroke-width:5;stroke-linecap:round;stroke-linejoin:miter;stroke-miterlimit:4;stroke-dasharray:none;stroke-dashoffset:0;stroke-opacity:1"
         id="path15211"
         sodipodi:cx="696.60016"
         sodipodi:cy="365.40009"
         sodipodi:rx="5.400001"
         sodipodi:ry="4.2000008"
         d="M 702.00016,365.40009 A 5.400001,4.2000008 0 1 1 691.20016,365.40009 A 5.400001,4.2000008 0 1 1 702.00016,365.40009 z"
         transform="matrix(0.6322221,0,0,0.812857,332.75629,883.24578)" />
      <path
         sodipodi:type="arc"
         style="opacity:1;fill:#ffffff;fill-opacity:1;stroke:none;stroke-width:5;stroke-linecap:round;stroke-linejoin:miter;stroke-miterlimit:4;stroke-dasharray:none;stroke-dashoffset:0;stroke-opacity:1"
         id="path15213"
         sodipodi:cx="731.5271"
         sodipodi:cy="134.07503"
         sodipodi:rx="0.67297798"
         sodipodi:ry="0.78514099"
         d="M 732.20008,134.07503 A 0.67297798,0.78514099 0 1 1 730.85412,134.07503 A 0.67297798,0.78514099 0 1 1 732.20008,134.07503 z"
         transform="matrix(2.8240151,0,0,2.4205844,-1257.3346,642.2811)" />
      <path
         sodipodi:type="star"
         style="opacity:1;fill:#ffffff;fill-opacity:1;stroke:none;stroke-width:1;stroke-linejoin:round;stroke-miterlimit:4;stroke-dasharray:none;stroke-dashoffset:0;stroke-opacity:1;display:inline"
         id="path11241"
         sodipodi:sides="5"
         sodipodi:cx="162.94955"
         sodipodi:cy="203.83304"
         sodipodi:r1="25.691782"
         sodipodi:r2="26.272663"
         sodipodi:arg1="0.48689923"
         sodipodi:arg2="-0.54381798"
         inkscape:flatsided="false"
         inkscape:rounded="1.88"
         inkscape:randomized="0"
         d="M 185.65564,215.85391 C 230.04118,234.53637 228.68309,169.06242 185.43211,190.23938 C 105.57307,229.34073 166.01559,140.53997 158.53359,229.14246 C 154.48141,277.12882 216.33116,255.60463 182.82538,221.01455 C 120.95999,157.14707 224.0923,187.19038 137.51425,207.45425 C 90.624323,218.42899 130.20767,270.60026 152.75094,228.04545 C 194.37506,149.47183 197.67181,256.84038 151.64563,180.76165 C 126.71825,139.55805 89.332353,193.32586 136.77063,201.61562 C 224.36115,216.92193 123.26635,253.23603 181.39865,185.95292 C 212.88261,149.51296 150.19351,130.57202 156.96871,178.25019 C 169.4785,266.28363 103.70173,181.35843 185.65564,215.85391 z"
         transform="matrix(-0.6157623,0,0,0.6157623,599.19739,1129.372)" />
    </g>
    <g
       style="display:inline"
       transform="matrix(-1.0110656,0.6884585,0.6884585,1.0110656,3095.9425,-993.87701)"
       id="g10823">
      <path
         transform="matrix(0.2343874,1.0482631e-2,-1.0482631e-2,0.2343874,582.44774,206.25806)"
         d="M 519.29922,279.25638 A 69.579308,69.579308 0 1 1 380.1406,279.25638 A 69.579308,69.579308 0 1 1 519.29922,279.25638 z"
         sodipodi:ry="69.579308"
         sodipodi:rx="69.579308"
         sodipodi:cy="279.25638"
         sodipodi:cx="449.71991"
         id="path10825"
         style="fill:#ffffff;fill-opacity:1;fill-rule:nonzero;stroke:none;stroke-width:27.55895996;stroke-linecap:round;stroke-linejoin:round;marker:none;marker-start:none;marker-mid:none;marker-end:none;stroke-miterlimit:4;stroke-dasharray:none;stroke-dashoffset:0;stroke-opacity:1;visibility:visible;display:inline;overflow:visible;enable-background:accumulate"
         sodipodi:type="arc" />
      <path
         transform="matrix(0.1682901,7.5264889e-3,-7.5264889e-3,0.1682901,674.95476,229.66097)"
         d="M 519.29922,279.25638 A 69.579308,69.579308 0 1 1 380.1406,279.25638 A 69.579308,69.579308 0 1 1 519.29922,279.25638 z"
         sodipodi:ry="69.579308"
         sodipodi:rx="69.579308"
         sodipodi:cy="279.25638"
         sodipodi:cx="449.71991"
         id="path10827"
         style="fill:#ffffff;fill-opacity:1;fill-rule:nonzero;stroke:none;stroke-width:27.55895996;stroke-linecap:round;stroke-linejoin:round;marker:none;marker-start:none;marker-mid:none;marker-end:none;stroke-miterlimit:4;stroke-dasharray:none;stroke-dashoffset:0;stroke-opacity:1;visibility:visible;display:inline;overflow:visible;enable-background:accumulate"
         sodipodi:type="arc" />
      <path
         sodipodi:type="arc"
         style="fill:#ffffff;fill-opacity:1;fill-rule:nonzero;stroke:none;stroke-width:27.55895996;stroke-linecap:round;stroke-linejoin:round;marker:none;marker-start:none;marker-mid:none;marker-end:none;stroke-miterlimit:4;stroke-dasharray:none;stroke-dashoffset:0;stroke-opacity:1;visibility:visible;display:inline;overflow:visible;enable-background:accumulate"
         id="path10829"
         sodipodi:cx="449.71991"
         sodipodi:cy="279.25638"
         sodipodi:rx="69.579308"
         sodipodi:ry="69.579308"
         d="M 519.29922,279.25638 A 69.579308,69.579308 0 1 1 380.1406,279.25638 A 69.579308,69.579308 0 1 1 519.29922,279.25638 z"
         transform="matrix(0.4577812,2.047354e-2,-2.047354e-2,0.4577812,580.80986,125.84018)" />
      <path
         transform="matrix(0.1025432,4.5860855e-3,-4.5860855e-3,0.1025432,706.97594,186.07309)"
         d="M 519.29922,279.25638 A 69.579308,69.579308 0 1 1 380.1406,279.25638 A 69.579308,69.579308 0 1 1 519.29922,279.25638 z"
         sodipodi:ry="69.579308"
         sodipodi:rx="69.579308"
         sodipodi:cy="279.25638"
         sodipodi:cx="449.71991"
         id="path10831"
         style="fill:#ffffff;fill-opacity:1;fill-rule:nonzero;stroke:none;stroke-width:27.55895996;stroke-linecap:round;stroke-linejoin:round;marker:none;marker-start:none;marker-mid:none;marker-end:none;stroke-miterlimit:4;stroke-dasharray:none;stroke-dashoffset:0;stroke-opacity:1;visibility:visible;display:inline;overflow:visible;enable-background:accumulate"
         sodipodi:type="arc" />
      <path
         sodipodi:type="arc"
         style="fill:#ffffff;fill-opacity:1;fill-rule:nonzero;stroke:none;stroke-width:27.55895996;stroke-linecap:round;stroke-linejoin:round;marker:none;marker-start:none;marker-mid:none;marker-end:none;stroke-miterlimit:4;stroke-dasharray:none;stroke-dashoffset:0;stroke-opacity:1;visibility:visible;display:inline;overflow:visible;enable-background:accumulate"
         id="path10833"
         sodipodi:cx="449.71991"
         sodipodi:cy="279.25638"
         sodipodi:rx="69.579308"
         sodipodi:ry="69.579308"
         d="M 519.29922,279.25638 A 69.579308,69.579308 0 1 1 380.1406,279.25638 A 69.579308,69.579308 0 1 1 519.29922,279.25638 z"
         transform="matrix(0.1025432,4.5860855e-3,-4.5860855e-3,0.1025432,690.12345,240.65365)" />
      <path
         transform="matrix(6.0479113e-2,2.7048346e-3,-2.7048346e-3,6.0479113e-2,687.63988,244.31288)"
         d="M 519.29922,279.25638 A 69.579308,69.579308 0 1 1 380.1406,279.25638 A 69.579308,69.579308 0 1 1 519.29922,279.25638 z"
         sodipodi:ry="69.579308"
         sodipodi:rx="69.579308"
         sodipodi:cy="279.25638"
         sodipodi:cx="449.71991"
         id="path10835"
         style="fill:#ffffff;fill-opacity:1;fill-rule:nonzero;stroke:none;stroke-width:27.55895996;stroke-linecap:round;stroke-linejoin:round;marker:none;marker-start:none;marker-mid:none;marker-end:none;stroke-miterlimit:4;stroke-dasharray:none;stroke-dashoffset:0;stroke-opacity:1;visibility:visible;display:inline;overflow:visible;enable-background:accumulate"
         sodipodi:type="arc" />
      <path
         sodipodi:type="arc"
         style="fill:#ffffff;fill-opacity:1;fill-rule:nonzero;stroke:none;stroke-width:27.55895996;stroke-linecap:round;stroke-linejoin:round;marker:none;marker-start:none;marker-mid:none;marker-end:none;stroke-miterlimit:4;stroke-dasharray:none;stroke-dashoffset:0;stroke-opacity:1;visibility:visible;display:inline;overflow:visible;enable-background:accumulate"
         id="path10837"
         sodipodi:cx="449.71991"
         sodipodi:cy="279.25638"
         sodipodi:rx="69.579308"
         sodipodi:ry="69.579308"
         d="M 519.29922,279.25638 A 69.579308,69.579308 0 1 1 380.1406,279.25638 A 69.579308,69.579308 0 1 1 519.29922,279.25638 z"
         transform="matrix(3.0786831e-2,1.3768932e-3,-1.3768932e-3,3.0786831e-2,710.18562,236.44019)" />
      <path
         sodipodi:type="arc"
         style="fill:#ffffff;fill-opacity:1;fill-rule:nonzero;stroke:none;stroke-width:27.55895996;stroke-linecap:round;stroke-linejoin:round;marker:none;marker-start:none;marker-mid:none;marker-end:none;stroke-miterlimit:4;stroke-dasharray:none;stroke-dashoffset:0;stroke-opacity:1;visibility:visible;display:inline;overflow:visible;enable-background:accumulate"
         id="path10839"
         sodipodi:cx="449.71991"
         sodipodi:cy="279.25638"
         sodipodi:rx="69.579308"
         sodipodi:ry="69.579308"
         d="M 519.29922,279.25638 A 69.579308,69.579308 0 1 1 380.1406,279.25638 A 69.579308,69.579308 0 1 1 519.29922,279.25638 z"
         transform="matrix(8.5222657e-2,3.811452e-3,-3.811452e-3,8.5222657e-2,691.73361,204.32613)" />
      <path
         transform="matrix(4.5632947e-2,2.0408626e-3,-2.0408626e-3,4.5632947e-2,656.17059,228.866)"
         d="M 519.29922,279.25638 A 69.579308,69.579308 0 1 1 380.1406,279.25638 A 69.579308,69.579308 0 1 1 519.29922,279.25638 z"
         sodipodi:ry="69.579308"
         sodipodi:rx="69.579308"
         sodipodi:cy="279.25638"
         sodipodi:cx="449.71991"
         id="path10841"
         style="fill:#ffffff;fill-opacity:1;fill-rule:nonzero;stroke:none;stroke-width:27.55895996;stroke-linecap:round;stroke-linejoin:round;marker:none;marker-start:none;marker-mid:none;marker-end:none;stroke-miterlimit:4;stroke-dasharray:none;stroke-dashoffset:0;stroke-opacity:1;visibility:visible;display:inline;overflow:visible;enable-background:accumulate"
         sodipodi:type="arc" />
      <path
         transform="matrix(2.4637333e-2,1.101867e-3,-1.101867e-3,2.4637333e-2,699.70993,250.35062)"
         d="M 519.29922,279.25638 A 69.579308,69.579308 0 1 1 380.1406,279.25638 A 69.579308,69.579308 0 1 1 519.29922,279.25638 z"
         sodipodi:ry="69.579308"
         sodipodi:rx="69.579308"
         sodipodi:cy="279.25638"
         sodipodi:cx="449.71991"
         id="path10843"
         style="fill:#ffffff;fill-opacity:1;fill-rule:nonzero;stroke:none;stroke-width:27.55895996;stroke-linecap:round;stroke-linejoin:round;marker:none;marker-start:none;marker-mid:none;marker-end:none;stroke-miterlimit:4;stroke-dasharray:none;stroke-dashoffset:0;stroke-opacity:1;visibility:visible;display:inline;overflow:visible;enable-background:accumulate"
         sodipodi:type="arc" />
      <path
         sodipodi:type="arc"
         style="fill:#ffffff;fill-opacity:1;fill-rule:nonzero;stroke:none;stroke-width:27.55895996;stroke-linecap:round;stroke-linejoin:round;marker:none;marker-start:none;marker-mid:none;marker-end:none;stroke-miterlimit:4;stroke-dasharray:none;stroke-dashoffset:0;stroke-opacity:1;visibility:visible;display:inline;overflow:visible;enable-background:accumulate"
         id="path10845"
         sodipodi:cx="449.71991"
         sodipodi:cy="279.25638"
         sodipodi:rx="69.579308"
         sodipodi:ry="69.579308"
         d="M 519.29922,279.25638 A 69.579308,69.579308 0 1 1 380.1406,279.25638 A 69.579308,69.579308 0 1 1 519.29922,279.25638 z"
         transform="matrix(8.8194556e-2,3.9443715e-3,-3.9443715e-3,8.8194556e-2,627.15309,254.02373)" />
    </g>
    <path
       sodipodi:nodetypes="ccccc"
       id="path10849"
       d="M -642.43373,474.79395 C -444.10464,261.61027 -78.795966,666.67759 157.56618,500.06388 L 157.56618,701.50708 L -642.43373,701.50708 L -642.43373,474.79395 z"
       style="fill:#0066fa;fill-opacity:1;fill-rule:nonzero;stroke:none;stroke-width:1;stroke-linecap:round;stroke-linejoin:round;marker:none;marker-start:none;marker-mid:none;marker-end:none;stroke-miterlimit:4;stroke-dashoffset:0;stroke-opacity:1;visibility:visible;display:inline;overflow:visible;enable-background:accumulate"
       clip-path="url(#clipPath14217)"
       transform="matrix(2.56,0,0,2.56,2222.9528,-1511.855)" />
    <path
       style="fill:#0045aa;fill-opacity:1;fill-rule:nonzero;stroke:none;stroke-width:1;stroke-linecap:round;stroke-linejoin:round;marker:none;marker-start:none;marker-mid:none;marker-end:none;stroke-miterlimit:4;stroke-dashoffset:0;stroke-opacity:1;visibility:visible;display:inline;overflow:visible;enable-background:accumulate"
       d="M -642.43373,492.44119 C -413.30961,248.30893 -95.141184,776.08116 157.56618,530.68453 L 157.56618,701.50708 L -642.43373,701.50708 L -642.43373,492.44119 z"
       id="path10851"
       sodipodi:nodetypes="ccccc"
       clip-path="url(#clipPath14213)"
       transform="matrix(2.56,0,0,2.56,2222.9528,-1511.855)" />
    <path
       sodipodi:nodetypes="ccccc"
       id="path10855"
       d="M -642.43373,510.08825 C -403.73353,257.85263 -108.84234,836.69082 157.56618,551.70885 L 157.56618,701.50708 L -642.43373,701.50708 L -642.43373,510.08825 z"
       style="fill:#010a27;fill-opacity:1;fill-rule:nonzero;stroke:none;stroke-width:1;stroke-linecap:round;stroke-linejoin:round;marker:none;marker-start:none;marker-mid:none;marker-end:none;stroke-miterlimit:4;stroke-dashoffset:0;stroke-opacity:1;visibility:visible;display:inline;overflow:visible;enable-background:accumulate"
       clip-path="url(#clipPath14205)"
       transform="matrix(2.56,0,0,2.56,2222.9528,-1511.855)" />
  </g>
</svg>
