<?xml version="1.0" encoding="UTF-8" standalone="no"?>
<!-- Created with Inkscape (http://www.inkscape.org/) -->
<svg
   xmlns:dc="http://purl.org/dc/elements/1.1/"
   xmlns:cc="http://creativecommons.org/ns#"
   xmlns:rdf="http://www.w3.org/1999/02/22-rdf-syntax-ns#"
   xmlns:svg="http://www.w3.org/2000/svg"
   xmlns="http://www.w3.org/2000/svg"
   xmlns:sodipodi="http://sodipodi.sourceforge.net/DTD/sodipodi-0.dtd"
   xmlns:inkscape="http://www.inkscape.org/namespaces/inkscape"
   width="660.52502"
   height="146"
   id="svg3394"
   sodipodi:version="0.32"
   inkscape:version="0.46"
   sodipodi:docname="centos-5-msg.svg"
   inkscape:output_extension="org.inkscape.output.svg.inkscape"
   version="1.0">
  <defs
     id="defs3396">
    <inkscape:perspective
       sodipodi:type="inkscape:persp3d"
       inkscape:vp_x="0 : 48 : 1"
       inkscape:vp_y="0 : 1000 : 0"
       inkscape:vp_z="344.09 : 48 : 1"
       inkscape:persp3d-origin="172.045 : 32 : 1"
       id="perspective2452" />
  </defs>
  <sodipodi:namedview
     id="base"
     pagecolor="#ffffff"
     bordercolor="#ababab"
     borderopacity="1"
     gridtolerance="10000"
     guidetolerance="10"
     objecttolerance="10"
     inkscape:pageopacity="0.0"
     inkscape:pageshadow="2"
     inkscape:zoom="1.3035085"
     inkscape:cx="330.26251"
     inkscape:cy="73"
     inkscape:document-units="mm"
     inkscape:current-layer="layer1"
     showgrid="false"
     showborder="true"
     inkscape:showpageshadow="false"
     guidecolor="#3c3cff"
     guideopacity="0.60392157"
     inkscape:window-width="1360"
     inkscape:window-height="693"
     inkscape:window-x="0"
     inkscape:window-y="25"
     units="mm"
     showguides="true"
     inkscape:guide-bbox="true">
    <inkscape:grid
       type="xygrid"
       id="grid3564"
       visible="true"
       enabled="true"
       color="#0097ff"
       opacity="0.1254902"
       empcolor="#0096ff"
       empopacity="0.25098039"
       units="mm"
       spacingx="1mm"
       spacingy="1mm" />
  </sodipodi:namedview>
  <metadata
     id="CENTOSMETADATA">
    <rdf:RDF>
      <cc:Work
         rdf:about="">
        <dc:format>image/svg+xml</dc:format>
        <dc:type
           rdf:resource="http://purl.org/dc/dcmitype/StillImage" />
        <cc:license
           rdf:resource="http://creativecommons.org/licenses/by-sa/3.0/" />
        <dc:title>centos-5.svg</dc:title>
        <dc:date>2011-07-29</dc:date>
        <dc:creator>
          <cc:Agent>
            <dc:title>The CentOS Artwork SIG</dc:title>
          </cc:Agent>
        </dc:creator>
        <dc:rights>
          <cc:Agent>
            <dc:title>The CentOS Artwork SIG</dc:title>
          </cc:Agent>
        </dc:rights>
        <dc:publisher>
          <cc:Agent>
            <dc:title>The CentOS Artwork SIG</dc:title>
          </cc:Agent>
        </dc:publisher>
        <dc:identifier>https://projects.centos.org/svn/artwork/trunk/Identity/Models/Brands/Types/Black/centos-5.svg</dc:identifier>
        <dc:source>https://projects.centos.org/svn/artwork/trunk/Identity/Models/Brands/Types/Black/centos-5.svg</dc:source>
        <dc:relation>https://projects.centos.org/svn/artwork/trunk/Identity/Models/Brands/Types/Black/centos-5.svg</dc:relation>
        <dc:language>en_US</dc:language>
        <dc:subject>
          <rdf:Bag>
            <rdf:li>Identity</rdf:li>
            <rdf:li>Models</rdf:li>
            <rdf:li>Brands</rdf:li>
            <rdf:li>Types</rdf:li>
            <rdf:li>Black</rdf:li>
          </rdf:Bag>
        </dc:subject>
        <dc:coverage>The CentOS Artwork SIG</dc:coverage>
        <dc:description />
        <dc:contributor />
      </cc:Work>
      <cc:License
         rdf:about="http://creativecommons.org/licenses/by-sa/3.0/">
        <cc:permits
           rdf:resource="http://creativecommons.org/ns#Reproduction" />
        <cc:permits
           rdf:resource="http://creativecommons.org/ns#Distribution" />
        <cc:requires
           rdf:resource="http://creativecommons.org/ns#Notice" />
        <cc:requires
           rdf:resource="http://creativecommons.org/ns#Attribution" />
        <cc:permits
           rdf:resource="http://creativecommons.org/ns#DerivativeWorks" />
        <cc:requires
           rdf:resource="http://creativecommons.org/ns#ShareAlike" />
      </cc:License>
    </rdf:RDF>
  </metadata>
  <g
     inkscape:label="Layer 1"
     inkscape:groupmode="layer"
     id="layer1"
     transform="translate(-444.85186,-636.90041)">
    <g
       id="CENTOSARTWORK"
       transform="matrix(0.9320742,0,0,0.9320742,290.17345,-256.29288)"
       inkscape:label="#g3681">
      <path
         id="text5083"
         d="M 208.43479,1063.4478 L 186.18467,1063.4478 C 183.92844,1063.4478 181.69623,1063.1296 179.48803,1062.4934 C 175.21562,1061.172 171.8313,1058.1377 169.33507,1053.3904 C 167.07885,1049.0837 165.95074,1044.0673 165.95075,1038.3412 C 165.95074,1032.8109 166.95884,1027.9168 168.97503,1023.659 C 171.18324,1018.9607 174.32753,1015.7551 178.40793,1014.0421 C 181.57621,1012.7208 184.81652,1012.0601 188.12886,1012.06 L 208.29077,1012.06 L 208.29077,1021.8971 L 187.33678,1021.8971 C 183.92844,1021.8971 181.4562,1023.7814 179.92007,1027.5497 C 178.71995,1030.4862 178.11989,1034.3281 178.1199,1039.0753 C 178.11989,1043.0884 178.88796,1046.4898 180.42412,1049.2794 C 182.20027,1052.5585 184.69651,1054.198 187.91283,1054.198 L 208.43479,1054.1245 L 208.43479,1063.4478 M 245.49131,1063.668 L 227.92164,1063.668 C 223.64922,1063.668 219.92887,1061.8082 216.76058,1058.0887 C 213.64028,1054.3203 212.08013,1049.9891 212.08013,1045.095 C 212.08013,1039.7605 213.78429,1035.1601 217.19262,1031.2937 C 220.64894,1027.3785 224.4893,1025.4209 228.71371,1025.4208 L 245.4193,1025.4208 L 245.4193,1033.2758 L 233.17814,1033.2758 C 231.64197,1033.2758 230.32184,1033.4227 229.21776,1033.7163 C 228.16164,1033.961 227.17755,1034.4749 226.26548,1035.2579 C 224.58531,1036.7262 223.74523,1038.7083 223.74524,1041.2042 L 245.34729,1041.2042 L 245.34729,1049.1326 L 223.81725,1049.1326 C 223.81724,1050.3072 223.93725,1051.3105 224.17729,1052.1424 C 224.4653,1052.9255 225.01735,1053.733 225.83344,1054.565 C 226.6495,1055.3481 227.60959,1055.8864 228.71371,1056.1801 C 229.86581,1056.4248 231.25794,1056.5471 232.89011,1056.5471 L 245.49131,1056.5471 L 245.49131,1063.668 M 286.55321,1063.4478 L 276.54427,1063.4478 L 276.54427,1038.4146 C 276.54424,1037.7784 276.40022,1037.2156 276.11223,1036.7261 C 275.82417,1036.1878 275.41613,1035.6739 274.88811,1035.1845 C 273.92799,1034.3525 272.82389,1033.9365 271.5758,1033.9365 L 261.78286,1033.9365 L 261.78286,1063.4478 L 251.77391,1063.4478 L 251.77391,1025.4208 L 270.92773,1025.4208 C 274.33603,1025.4209 276.80826,1025.6166 278.34444,1026.0081 C 280.74464,1026.5954 282.66481,1027.8924 284.10498,1029.8989 C 285.7371,1032.2481 286.55318,1034.8175 286.55321,1037.6071 L 286.55321,1063.4478 M 315.2997,1033.3492 L 305.57878,1033.3492 L 305.57878,1050.6008 C 305.57876,1052.1669 306.10682,1053.4639 307.16293,1054.4916 C 308.36302,1055.5194 309.94717,1056.0332 311.91538,1056.0332 L 314.86767,1056.0332 L 314.86767,1063.4478 L 305.57878,1063.4478 C 302.7945,1063.4478 300.41827,1062.42 298.4501,1060.3645 C 297.29798,1059.141 296.55391,1057.7951 296.21789,1056.3269 C 295.88185,1054.8587 295.71383,1053.1213 295.71384,1051.1147 L 295.71384,1033.3492 L 289.37724,1033.3492 L 289.37724,1025.4208 L 295.71384,1025.4208 L 295.71384,1012.06 L 305.57878,1012.06 L 305.57878,1025.4208 L 315.2997,1025.4208 L 315.2997,1033.3492 M 374.06067,1037.6805 C 374.06061,1047.6644 371.34836,1054.8097 365.92389,1059.1165 C 361.50743,1062.5913 355.07483,1064.3287 346.62606,1064.3287 C 337.26514,1064.3287 330.3525,1062.3221 325.88808,1058.309 C 320.99161,1053.9043 318.54338,1046.8324 318.54339,1037.0932 C 318.54338,1029.1159 320.72758,1022.9004 325.09601,1018.4468 C 329.84845,1013.6017 336.95312,1011.1791 346.41004,1011.1791 C 356.82699,1011.1791 364.17168,1013.5038 368.44413,1018.1531 C 372.18844,1022.2642 374.06061,1028.7733 374.06067,1037.6805 M 361.24345,1037.3868 C 361.2434,1032.346 360.06729,1028.3328 357.71512,1025.3474 C 355.07483,1022.0195 351.16245,1020.3555 345.978,1020.3555 C 340.88948,1020.3555 337.04913,1022.1418 334.4569,1025.7145 C 332.29667,1028.6999 331.21657,1032.5907 331.21659,1037.3868 C 331.21657,1042.9172 332.08066,1047.0037 333.80884,1049.6465 C 336.20905,1053.317 340.64946,1055.1523 347.13011,1055.1523 C 352.60259,1055.1523 356.44295,1053.366 358.6512,1049.7933 C 360.37933,1047.0037 361.2434,1042.8682 361.24345,1037.3868 M 431.69879,1047.5176 C 431.69873,1052.0201 430.23459,1055.813 427.30637,1058.8963 C 424.37804,1061.9795 420.65769,1063.5212 416.1453,1063.5212 L 380.50192,1063.4478 L 380.50192,1054.198 L 409.88071,1054.198 C 411.84886,1054.198 413.50502,1053.733 414.84918,1052.8031 C 416.38528,1051.7265 417.15336,1050.2583 417.1534,1048.3985 C 417.15336,1044.0428 414.12908,1041.8649 408.08054,1041.8649 L 393.24712,1041.8649 C 388.97471,1041.8649 385.23035,1040.5191 382.01406,1037.8273 C 378.79775,1035.1356 377.1896,1031.7097 377.1896,1027.5497 C 377.1896,1022.9494 378.74975,1019.2299 381.87005,1016.3913 C 385.03834,1013.5038 389.19073,1012.0601 394.32723,1012.06 L 428.38647,1012.06 L 428.38647,1020.8693 L 398.35962,1020.8693 C 397.01547,1020.8694 395.64733,1021.4567 394.25522,1022.6312 C 392.91108,1023.7569 392.23902,1025.1028 392.23904,1026.6688 C 392.23902,1028.4307 392.88708,1029.9234 394.18322,1031.1469 C 395.52733,1032.3215 397.13547,1032.9088 399.00768,1032.9088 L 415.35323,1032.9088 C 420.44167,1032.9088 424.42604,1034.2547 427.30637,1036.9464 C 430.23459,1039.5892 431.69873,1043.1129 431.69879,1047.5176"
         clip-path="none"
         style="font-size:72.70556641px;font-style:normal;font-variant:normal;font-weight:200;font-stretch:normal;text-align:start;line-height:125%;writing-mode:lr-tb;text-anchor:start;fill:#000000;fill-opacity:1;stroke:none;stroke-width:1;stroke-linecap:butt;stroke-linejoin:miter;stroke-miterlimit:4;stroke-opacity:1;display:inline;font-family:Denmark;-inkscape-font-specification:Denmark Ultra-Light" />
      <path
         id="text5788"
         d="M 560.96312,1031.1765 C 560.96302,1042.2114 556.5592,1050.7153 547.75165,1056.6883 C 540.05753,1061.9526 530.38937,1064.5848 518.74715,1064.5848 L 467.11611,1064.5848 L 467.11611,1044.8435 L 520.11386,1044.8435 C 524.06205,1044.8436 527.45349,1043.4769 530.28821,1040.7434 C 533.12278,1038.01 534.33763,1034.6186 533.93275,1030.5691 C 533.93268,1027.532 532.71783,1024.9504 530.28821,1022.8244 C 527.45349,1020.3948 523.60648,1019.1799 518.74715,1019.1799 L 467.11611,1019.1799 L 467.11611,958.28561 L 554.73703,958.28561 L 554.73703,976.81204 L 491.86864,976.81204 L 491.71678,1000.5016 L 528.9215,1000.5016 C 538.3365,1000.5016 546.03053,1003.3363 552.00362,1009.0055 C 557.97652,1014.6749 560.96302,1022.0652 560.96312,1031.1765"
         style="font-size:151.85601807px;font-style:normal;font-variant:normal;font-weight:200;font-stretch:normal;text-indent:0;text-align:start;text-decoration:none;line-height:125%;letter-spacing:normal;word-spacing:normal;text-transform:none;direction:ltr;block-progression:tb;writing-mode:lr-tb;text-anchor:start;fill:#000000;fill-opacity:1;fill-rule:nonzero;stroke:none;stroke-width:1px;stroke-linecap:butt;stroke-linejoin:miter;marker:none;marker-start:none;marker-mid:none;marker-end:none;stroke-miterlimit:4;stroke-dashoffset:0;stroke-opacity:1;visibility:visible;display:inline;overflow:visible;enable-background:accumulate;font-family:Denmark;-inkscape-font-specification:Denmark Ultra-Light" />
      <path
         id="text3749"
         d="M 187.33838,1107.9994 L 176.13706,1107.9994 C 175.00121,1107.9994 173.87745,1107.8414 172.76579,1107.5254 C 170.61494,1106.8693 168.91118,1105.3626 167.65451,1103.0052 C 166.51866,1100.8666 165.95074,1098.3756 165.95075,1095.5322 C 165.95074,1092.7861 166.45825,1090.3558 167.47326,1088.2415 C 168.58493,1085.9085 170.16785,1084.3167 172.22204,1083.4661 C 173.81704,1082.81 175.4483,1082.4819 177.11582,1082.4818 L 187.26588,1082.4818 L 187.26588,1087.3666 L 176.71706,1087.3666 C 175.00121,1087.3667 173.75662,1088.3023 172.98329,1090.1736 C 172.37911,1091.6317 172.07703,1093.5395 172.07703,1095.8967 C 172.07703,1097.8895 172.4637,1099.5785 173.23704,1100.9638 C 174.1312,1102.5921 175.38788,1103.4062 177.00707,1103.4062 L 187.33838,1103.3697 L 187.33838,1107.9994 M 210.88744,1098.4849 C 210.88742,1101.7658 209.84824,1104.2811 207.76992,1106.0309 C 205.86072,1107.6348 203.26279,1108.4368 199.97612,1108.4368 C 196.68942,1108.4368 194.13983,1107.7077 192.32732,1106.2496 C 190.2248,1104.5727 189.17355,1101.9602 189.17355,1098.412 C 189.17355,1095.4471 190.30939,1093.1142 192.58107,1091.413 C 194.61108,1089.8819 197.11234,1089.1164 200.08487,1089.1164 C 203.34737,1089.1164 205.95739,1089.9427 207.91492,1091.5952 C 209.89658,1093.2235 210.88742,1095.52 210.88744,1098.4849 M 205.26865,1098.4485 C 205.26864,1096.9174 204.7853,1095.6416 203.81864,1094.6208 C 202.87612,1093.5759 201.5832,1093.0534 199.93987,1093.0534 C 198.44152,1093.0534 197.19693,1093.5881 196.20609,1094.6573 C 195.23941,1095.7023 194.75608,1097.0268 194.75609,1098.6307 C 194.75608,1100.4777 195.2515,1101.948 196.24235,1103.0417 C 197.23317,1104.1353 198.51402,1104.6821 200.08487,1104.6821 C 201.8732,1104.6821 203.20237,1104.111 204.07239,1102.9688 C 204.86988,1101.9237 205.26864,1100.417 205.26865,1098.4485 M 240.30393,1108.0358 L 235.41014,1108.0358 L 235.41014,1096.1884 C 235.41012,1095.7266 235.36179,1095.3621 235.26515,1095.0947 C 235.16845,1094.8274 234.97512,1094.548 234.68514,1094.2564 C 234.39512,1093.9404 234.10512,1093.7217 233.81514,1093.6002 C 233.52511,1093.4544 233.18678,1093.3815 232.80013,1093.3815 L 229.21136,1093.3815 L 229.21136,1108.0358 L 224.24508,1108.0358 L 224.24508,1093.2721 L 218.40879,1093.2721 L 218.40879,1107.9994 L 213.33376,1107.9994 L 213.33376,1089.1164 L 233.45264,1089.1164 C 234.70929,1089.1164 235.70012,1089.2379 236.42515,1089.4809 C 237.15013,1089.6997 237.86305,1090.1857 238.56392,1090.9391 C 239.11972,1091.5467 239.54265,1092.1421 239.83268,1092.7253 C 240.14682,1093.3086 240.3039,1093.9404 240.30393,1094.6208 L 240.30393,1108.0358 M 270.32365,1108.0358 L 265.42987,1108.0358 L 265.42987,1096.1884 C 265.42984,1095.7266 265.38152,1095.3621 265.28487,1095.0947 C 265.18818,1094.8274 264.99484,1094.548 264.70486,1094.2564 C 264.41484,1093.9404 264.12484,1093.7217 263.83486,1093.6002 C 263.54484,1093.4544 263.2065,1093.3815 262.81985,1093.3815 L 259.23108,1093.3815 L 259.23108,1108.0358 L 254.2648,1108.0358 L 254.2648,1093.2721 L 248.42851,1093.2721 L 248.42851,1107.9994 L 243.35348,1107.9994 L 243.35348,1089.1164 L 263.47235,1089.1164 C 264.729,1089.1164 265.71985,1089.2379 266.44488,1089.4809 C 267.16986,1089.6997 267.88278,1090.1857 268.58364,1090.9391 C 269.13945,1091.5467 269.56237,1092.1421 269.85239,1092.7253 C 270.16653,1093.3086 270.32362,1093.9404 270.32365,1094.6208 L 270.32365,1108.0358 M 290.88206,1107.9994 L 281.2395,1107.9994 C 279.47532,1107.9994 278.23073,1107.9143 277.50573,1107.7441 C 276.29738,1107.4525 275.33071,1106.8207 274.60571,1105.8485 C 273.78403,1104.7307 273.3732,1103.4548 273.3732,1102.0209 L 273.3732,1089.1164 L 278.41198,1089.1164 L 278.41198,1101.6199 C 278.41198,1102.2275 278.67781,1102.75 279.20949,1103.1875 C 279.74115,1103.6249 280.30908,1103.8436 280.91325,1103.8436 L 285.84328,1103.8436 L 285.84328,1089.1164 L 290.88206,1089.1164 L 290.88206,1107.9994 M 311.62683,1107.9994 L 306.58805,1107.9994 L 306.58805,1095.5686 C 306.58803,1095.2527 306.51553,1094.9732 306.37055,1094.7302 C 306.22554,1094.4629 306.02011,1094.2078 305.7543,1093.9647 C 305.27094,1093.5516 304.71511,1093.345 304.08679,1093.345 L 299.15675,1093.345 L 299.15675,1107.9994 L 294.11797,1107.9994 L 294.11797,1089.1164 L 303.76053,1089.1164 C 305.47636,1089.1164 306.72095,1089.2136 307.4943,1089.408 C 308.70263,1089.6997 309.6693,1090.3437 310.39432,1091.3401 C 311.21598,1092.5066 311.62681,1093.7825 311.62683,1095.1677 L 311.62683,1107.9994 M 319.93605,1086.9656 L 314.93352,1086.9656 L 314.93352,1082.4818 L 319.93605,1082.4818 L 319.93605,1086.9656 M 320.00855,1107.9994 L 314.93352,1107.9994 L 314.93352,1089.1164 L 320.00855,1089.1164 L 320.00855,1107.9994 M 334.59476,1093.0534 L 329.70097,1093.0534 L 329.70097,1101.6199 C 329.70096,1102.3977 329.9668,1103.0417 330.49848,1103.552 C 331.10264,1104.0624 331.90014,1104.3175 332.891,1104.3175 L 334.37725,1104.3175 L 334.37725,1107.9994 L 329.70097,1107.9994 C 328.29929,1107.9994 327.10304,1107.489 326.1122,1106.4683 C 325.53219,1105.8608 325.15761,1105.1924 324.98844,1104.4634 C 324.81928,1103.7343 324.73469,1102.8716 324.73469,1101.8751 L 324.73469,1093.0534 L 321.54467,1093.0534 L 321.54467,1089.1164 L 324.73469,1089.1164 L 324.73469,1082.4818 L 329.70097,1082.4818 L 329.70097,1089.1164 L 334.59476,1089.1164 L 334.59476,1093.0534 M 354.93282,1089.1164 L 354.89657,1108.8013 C 354.89655,1109.6276 354.72739,1110.3689 354.38906,1111.025 C 354.05071,1111.7055 353.60362,1112.3009 353.04781,1112.8112 C 352.20195,1113.5403 351.33195,1114.0385 350.43779,1114.3059 C 349.5436,1114.5731 348.46818,1114.7068 347.21152,1114.7068 L 337.35145,1114.7068 L 337.35145,1110.7698 L 347.61027,1110.7698 C 348.06942,1110.7698 348.50444,1110.6119 348.91528,1110.296 C 349.47111,1109.8584 349.74902,1109.3481 349.74904,1108.7649 L 349.74904,1108.0358 L 343.94899,1108.0358 C 342.83732,1108.0358 341.89481,1107.9143 341.12148,1107.6712 C 340.34814,1107.404 339.59897,1106.9057 338.87397,1106.1767 C 337.59313,1104.913 336.9527,1103.3454 336.9527,1101.4741 L 336.9527,1089.1164 L 342.24524,1089.1164 L 342.20899,1101.2189 C 342.20898,1101.705 342.23315,1102.0695 342.28149,1102.3126 C 342.35398,1102.5556 342.52315,1102.8229 342.78899,1103.1146 C 343.07898,1103.4062 343.40524,1103.6128 343.76775,1103.7343 C 344.13024,1103.8315 344.57732,1103.8801 345.10901,1103.8801 L 349.71278,1103.8801 L 349.71278,1089.1164 L 354.93282,1089.1164 M 395.26687,1107.9994 L 382.90554,1107.9994 C 380.99635,1107.9994 379.15967,1107.5619 377.3955,1106.687 C 375.48632,1105.7392 374.02423,1104.2325 373.00922,1102.1667 C 372.01838,1100.101 371.52296,1097.8288 371.52296,1095.3499 C 371.52296,1092.8954 372.0063,1090.6718 372.97297,1088.679 C 374.03631,1086.5161 375.51048,1084.9364 377.3955,1083.94 C 378.43466,1083.4054 379.42551,1083.0287 380.36802,1082.8099 C 381.33468,1082.5912 382.43427,1082.4819 383.66679,1082.4818 L 395.12186,1082.4818 L 395.12186,1087.0021 L 384.5368,1087.0021 C 383.59428,1087.0021 382.79678,1087.1358 382.14428,1087.4031 C 381.51593,1087.6461 380.88759,1088.0957 380.25927,1088.7519 C 379.63092,1089.4081 379.19592,1090.0521 378.95426,1090.6839 C 378.71258,1091.2915 378.59175,1092.057 378.59176,1092.9805 L 395.26687,1092.9805 L 395.26687,1097.5007 L 378.66426,1097.5007 C 378.66425,1098.327 378.77301,1099.056 378.99052,1099.6879 C 379.20801,1100.2955 379.59467,1100.9273 380.15052,1101.5835 C 380.73051,1102.2396 381.3226,1102.7379 381.92678,1103.0781 C 382.5551,1103.4184 383.2922,1103.5885 384.13805,1103.5885 L 395.26687,1103.5885 L 395.26687,1107.9994 M 415.35063,1107.9994 L 410.31186,1107.9994 L 410.31186,1095.5686 C 410.31184,1095.2527 410.23934,1094.9732 410.09436,1094.7302 C 409.94933,1094.4629 409.74392,1094.2078 409.4781,1093.9647 C 408.99475,1093.5516 408.43891,1093.345 407.81058,1093.345 L 402.88055,1093.345 L 402.88055,1107.9994 L 397.84178,1107.9994 L 397.84178,1089.1164 L 407.48434,1089.1164 C 409.20017,1089.1164 410.44476,1089.2136 411.21811,1089.408 C 412.42643,1089.6997 413.39311,1090.3437 414.11813,1091.3401 C 414.93978,1092.5066 415.35061,1093.7825 415.35063,1095.1677 L 415.35063,1107.9994 M 429.8224,1093.0534 L 424.92862,1093.0534 L 424.92862,1101.6199 C 424.92861,1102.3977 425.19444,1103.0417 425.72612,1103.552 C 426.33028,1104.0624 427.12779,1104.3175 428.11864,1104.3175 L 429.6049,1104.3175 L 429.6049,1107.9994 L 424.92862,1107.9994 C 423.52693,1107.9994 422.33067,1107.489 421.33985,1106.4683 C 420.75983,1105.8608 420.38525,1105.1924 420.21609,1104.4634 C 420.04692,1103.7343 419.96234,1102.8716 419.96234,1101.8751 L 419.96234,1093.0534 L 416.77231,1093.0534 L 416.77231,1089.1164 L 419.96234,1089.1164 L 419.96234,1082.4818 L 424.92862,1082.4818 L 424.92862,1089.1164 L 429.8224,1089.1164 L 429.8224,1093.0534 M 448.27548,1108.1088 L 439.43043,1108.1088 C 437.27957,1108.1088 435.40665,1107.1852 433.81164,1105.3382 C 432.2408,1103.467 431.45538,1101.3162 431.45538,1098.8859 C 431.45538,1096.237 432.31329,1093.9526 434.02914,1092.0327 C 435.76914,1090.0885 437.70249,1089.1164 439.82918,1089.1164 L 448.23924,1089.1164 L 448.23924,1093.0169 L 442.0767,1093.0169 C 441.30334,1093.017 440.63875,1093.0899 440.08293,1093.2357 C 439.55125,1093.3572 439.05583,1093.6124 438.59667,1094.0012 C 437.75082,1094.7302 437.32791,1095.7145 437.32791,1096.9539 L 448.20298,1096.9539 L 448.20298,1100.8909 L 437.36417,1100.8909 C 437.36416,1101.4741 437.42457,1101.9723 437.54541,1102.3855 C 437.6904,1102.7743 437.96832,1103.1753 438.37917,1103.5885 C 438.78999,1103.9773 439.27333,1104.2446 439.82918,1104.3904 C 440.40917,1104.512 441.11,1104.5727 441.93169,1104.5727 L 448.27548,1104.5727 L 448.27548,1108.1088 M 462.05962,1093.1992 L 456.44083,1093.1992 L 456.44083,1107.9994 L 451.4383,1107.9994 L 451.4383,1089.1164 L 456.47708,1089.1164 L 456.47708,1091.7411 C 456.74291,1091.0849 457.06916,1090.5503 457.45584,1090.1371 C 457.8425,1089.724 458.35,1089.4081 458.97835,1089.1893 C 459.26833,1089.0921 459.57043,1089.0071 459.8846,1088.9341 C 460.22293,1088.8612 460.56126,1088.8248 460.89961,1088.8248 C 461.31043,1088.8248 461.6971,1088.8734 462.05962,1088.9706 L 462.05962,1093.1992 M 483.49711,1098.1204 C 483.49709,1101.1339 482.71167,1103.5399 481.14085,1105.3382 C 479.59415,1107.1123 477.55206,1107.9994 475.01456,1107.9994 L 469.54077,1107.9994 L 469.54077,1114.8891 L 464.46575,1114.8891 L 464.46575,1089.1164 L 474.54331,1089.1164 C 477.39497,1089.1164 479.61833,1089.967 481.21335,1091.6682 C 482.73584,1093.2964 483.49709,1095.4471 483.49711,1098.1204 M 478.34958,1098.412 C 478.34957,1096.8324 477.84206,1095.5443 476.82707,1094.5479 C 475.83622,1093.5273 474.59162,1093.017 473.0933,1093.0169 L 469.54077,1093.0169 L 469.54077,1104.0259 L 473.4558,1104.0259 C 474.90579,1104.0259 476.07789,1103.5156 476.97208,1102.4949 C 477.8904,1101.4498 478.34957,1100.0889 478.34958,1098.412 M 496.61061,1093.1992 L 490.99182,1093.1992 L 490.99182,1107.9994 L 485.98929,1107.9994 L 485.98929,1089.1164 L 491.02807,1089.1164 L 491.02807,1091.7411 C 491.2939,1091.0849 491.62015,1090.5503 492.00683,1090.1371 C 492.39349,1089.724 492.90099,1089.4081 493.52934,1089.1893 C 493.81933,1089.0921 494.12141,1089.0071 494.43559,1088.9341 C 494.77392,1088.8612 495.11226,1088.8248 495.4506,1088.8248 C 495.86142,1088.8248 496.2481,1088.8734 496.61061,1088.9706 L 496.61061,1093.1992 M 504.01927,1086.9656 L 499.01673,1086.9656 L 499.01673,1082.4818 L 504.01927,1082.4818 L 504.01927,1086.9656 M 504.09177,1107.9994 L 499.01673,1107.9994 L 499.01673,1089.1164 L 504.09177,1089.1164 L 504.09177,1107.9994 M 524.98548,1102.2396 C 524.98546,1103.8436 524.46587,1105.2167 523.42672,1106.359 C 522.41169,1107.5012 521.11877,1108.0723 519.54795,1108.0723 L 507.11411,1108.0723 L 507.11411,1104.6456 L 517.33668,1104.6456 C 518.06167,1104.6456 518.66584,1104.4634 519.14919,1104.0988 C 519.65668,1103.7343 519.91043,1103.2118 519.91044,1102.5313 C 519.91043,1100.9516 518.84709,1100.1618 516.72043,1100.1618 L 511.5004,1100.1618 C 510.38871,1100.1618 509.31329,1099.6271 508.27412,1098.5578 C 507.23494,1097.4885 506.71536,1096.3342 506.71536,1095.0947 C 506.71536,1093.345 507.10203,1091.9355 507.87537,1090.8662 C 508.76954,1089.6511 510.08663,1089.0435 511.82664,1089.0435 L 523.78922,1089.0435 L 523.78922,1092.6159 L 513.13165,1092.6159 C 512.72081,1092.616 512.3583,1092.8225 512.04414,1093.2357 C 511.75414,1093.6245 511.60913,1094.0741 511.60914,1094.5844 C 511.60913,1095.1434 511.80247,1095.6294 512.18915,1096.0425 C 512.59998,1096.4314 513.08331,1096.6258 513.63916,1096.6258 L 519.25794,1096.6258 C 521.02211,1096.6258 522.41169,1097.1605 523.42672,1098.2298 C 524.46587,1099.2748 524.98546,1100.6114 524.98548,1102.2396 M 543.57393,1108.1088 L 534.72886,1108.1088 C 532.57802,1108.1088 530.70509,1107.1852 529.11008,1105.3382 C 527.53924,1103.467 526.75382,1101.3162 526.75382,1098.8859 C 526.75382,1096.237 527.61174,1093.9526 529.32758,1092.0327 C 531.06759,1090.0885 533.00093,1089.1164 535.12762,1089.1164 L 543.53767,1089.1164 L 543.53767,1093.0169 L 537.37513,1093.0169 C 536.60179,1093.017 535.9372,1093.0899 535.38138,1093.2357 C 534.8497,1093.3572 534.35427,1093.6124 533.89511,1094.0012 C 533.04927,1094.7302 532.62635,1095.7145 532.62635,1096.9539 L 543.50142,1096.9539 L 543.50142,1100.8909 L 532.6626,1100.8909 C 532.6626,1101.4741 532.72301,1101.9723 532.84385,1102.3855 C 532.98885,1102.7743 533.26677,1103.1753 533.67761,1103.5885 C 534.08844,1103.9773 534.57177,1104.2446 535.12762,1104.3904 C 535.70761,1104.512 536.40845,1104.5727 537.23014,1104.5727 L 543.57393,1104.5727 L 543.57393,1108.1088 M 587.90853,1095.2041 C 587.90851,1100.1618 586.54309,1103.71 583.81227,1105.8485 C 581.58889,1107.5741 578.35054,1108.4368 574.0972,1108.4368 C 569.38466,1108.4368 565.90464,1107.4404 563.65713,1105.4476 C 561.19211,1103.2604 559.95961,1099.7487 559.95961,1094.9125 C 559.95961,1090.9513 561.0592,1087.8649 563.25838,1085.6533 C 565.65088,1083.2474 569.22758,1082.0444 573.98845,1082.0444 C 579.23263,1082.0444 582.93015,1083.1988 585.08102,1085.5075 C 586.966,1087.5489 587.90851,1090.7811 587.90853,1095.2041 M 581.456,1095.0583 C 581.45598,1092.5552 580.86388,1090.5624 579.67973,1089.0799 C 578.35054,1087.4274 576.38095,1086.6011 573.77095,1086.6011 C 571.20926,1086.6011 569.27591,1087.4882 567.97091,1089.2622 C 566.88339,1090.7447 566.33965,1092.6767 566.33965,1095.0583 C 566.33965,1097.8045 566.77465,1099.8337 567.64466,1101.146 C 568.85299,1102.9688 571.08841,1103.8801 574.35095,1103.8801 C 577.10595,1103.8801 579.03929,1102.9931 580.15099,1101.2189 C 581.02097,1099.8337 581.45598,1097.7802 581.456,1095.0583 M 609.24007,1098.1204 C 609.24005,1101.1339 608.45463,1103.5399 606.8838,1105.3382 C 605.33712,1107.1123 603.29502,1107.9994 600.75751,1107.9994 L 595.28374,1107.9994 L 595.28374,1114.8891 L 590.2087,1114.8891 L 590.2087,1089.1164 L 600.28626,1089.1164 C 603.13794,1089.1164 605.36128,1089.967 606.95631,1091.6682 C 608.4788,1093.2964 609.24005,1095.4471 609.24007,1098.1204 M 604.09254,1098.412 C 604.09252,1096.8324 603.58502,1095.5443 602.57003,1094.5479 C 601.57917,1093.5273 600.33459,1093.017 598.83626,1093.0169 L 595.28374,1093.0169 L 595.28374,1104.0259 L 599.19876,1104.0259 C 600.64876,1104.0259 601.82085,1103.5156 602.71503,1102.4949 C 603.63336,1101.4498 604.09252,1100.0889 604.09254,1098.412 M 627.82738,1108.1088 L 618.98233,1108.1088 C 616.83147,1108.1088 614.95854,1107.1852 613.36354,1105.3382 C 611.7927,1103.467 611.00727,1101.3162 611.00727,1098.8859 C 611.00727,1096.237 611.86519,1093.9526 613.58104,1092.0327 C 615.32104,1090.0885 617.25439,1089.1164 619.38108,1089.1164 L 627.79112,1089.1164 L 627.79112,1093.0169 L 621.62859,1093.0169 C 620.85524,1093.017 620.19065,1093.0899 619.63483,1093.2357 C 619.10315,1093.3572 618.60773,1093.6124 618.14857,1094.0012 C 617.30272,1094.7302 616.87981,1095.7145 616.87981,1096.9539 L 627.75488,1096.9539 L 627.75488,1100.8909 L 616.91606,1100.8909 C 616.91605,1101.4741 616.97647,1101.9723 617.09731,1102.3855 C 617.2423,1102.7743 617.52022,1103.1753 617.93106,1103.5885 C 618.34189,1103.9773 618.82523,1104.2446 619.38108,1104.3904 C 619.96107,1104.512 620.6619,1104.5727 621.48359,1104.5727 L 627.82738,1104.5727 L 627.82738,1108.1088 M 641.61154,1093.1992 L 635.99276,1093.1992 L 635.99276,1107.9994 L 630.99022,1107.9994 L 630.99022,1089.1164 L 636.02901,1089.1164 L 636.02901,1091.7411 C 636.29484,1091.0849 636.62109,1090.5503 637.00777,1090.1371 C 637.39443,1089.724 637.90193,1089.4081 638.53028,1089.1893 C 638.82026,1089.0921 639.12236,1089.0071 639.43653,1088.9341 C 639.77486,1088.8612 640.11319,1088.8248 640.45153,1088.8248 C 640.86236,1088.8248 641.24903,1088.8734 641.61154,1088.9706 L 641.61154,1093.1992 M 662.36026,1108.0358 L 648.80267,1108.0358 C 647.28016,1108.0358 645.97515,1107.5254 644.88765,1106.5048 C 643.82431,1105.4598 643.29264,1104.1474 643.29264,1102.5678 C 643.29264,1100.9152 643.77597,1099.5542 644.74264,1098.4849 C 645.73348,1097.3913 646.96599,1096.8445 648.44017,1096.8445 L 657.21273,1096.8445 L 657.21273,1095.8238 C 657.21271,1095.5079 657.1523,1095.2406 657.03147,1095.0218 C 656.9348,1094.7788 656.76563,1094.4993 656.52398,1094.1835 C 656.18562,1093.7946 655.83521,1093.5516 655.47271,1093.4544 C 655.1102,1093.3329 654.6027,1093.2721 653.95021,1093.2721 L 644.56139,1093.2721 L 644.56139,1089.1164 L 652.60894,1089.1164 L 654.16771,1089.1164 C 655.93187,1089.1164 657.24897,1089.2744 658.11898,1089.5903 C 658.98897,1089.8819 659.73814,1090.3315 660.36649,1090.9391 C 661.16398,1091.7411 661.69565,1092.616 661.96151,1093.5637 C 662.22732,1094.5115 662.36024,1095.7266 662.36026,1097.2091 L 662.36026,1108.0358 M 657.17648,1104.1717 L 657.17648,1100.4534 L 650.79644,1100.4534 C 650.19226,1100.4534 649.67267,1100.6357 649.23767,1101.0002 C 648.82684,1101.3405 648.62141,1101.8022 648.62142,1102.3855 C 648.62141,1102.8959 648.82684,1103.3212 649.23767,1103.6614 C 649.6485,1104.0016 650.11975,1104.1717 650.65143,1104.1717 L 657.17648,1104.1717 M 676.70629,1093.0534 L 671.8125,1093.0534 L 671.8125,1101.6199 C 671.8125,1102.3977 672.07834,1103.0417 672.61001,1103.552 C 673.21418,1104.0624 674.01167,1104.3175 675.00253,1104.3175 L 676.48879,1104.3175 L 676.48879,1107.9994 L 671.8125,1107.9994 C 670.41083,1107.9994 669.21457,1107.489 668.22374,1106.4683 C 667.64373,1105.8608 667.26914,1105.1924 667.09997,1104.4634 C 666.93081,1103.7343 666.84622,1102.8716 666.84622,1101.8751 L 666.84622,1093.0534 L 663.65621,1093.0534 L 663.65621,1089.1164 L 666.84622,1089.1164 L 666.84622,1082.4818 L 671.8125,1082.4818 L 671.8125,1089.1164 L 676.70629,1089.1164 L 676.70629,1093.0534 M 684.06679,1086.9656 L 679.06425,1086.9656 L 679.06425,1082.4818 L 684.06679,1082.4818 L 684.06679,1086.9656 M 684.13929,1107.9994 L 679.06425,1107.9994 L 679.06425,1089.1164 L 684.13929,1089.1164 L 684.13929,1107.9994 M 705.06927,1107.9994 L 700.0305,1107.9994 L 700.0305,1095.5686 C 700.03048,1095.2527 699.95798,1094.9732 699.813,1094.7302 C 699.66798,1094.4629 699.46256,1094.2078 699.19674,1093.9647 C 698.71339,1093.5516 698.15755,1093.345 697.52923,1093.345 L 692.5992,1093.345 L 692.5992,1107.9994 L 687.56042,1107.9994 L 687.56042,1089.1164 L 697.20298,1089.1164 C 698.91881,1089.1164 700.1634,1089.2136 700.93675,1089.408 C 702.14507,1089.6997 703.11175,1090.3437 703.83677,1091.3401 C 704.65843,1092.5066 705.06925,1093.7825 705.06927,1095.1677 L 705.06927,1107.9994 M 727.51607,1107.3796 C 727.51605,1108.6676 727.40731,1109.7126 727.18983,1110.5147 C 726.97231,1111.3166 726.50105,1112.1064 725.77607,1112.8841 C 725.05104,1113.6861 724.2777,1114.2207 723.45604,1114.4881 C 722.63437,1114.7797 721.60727,1114.9255 720.37477,1114.9255 L 709.57221,1114.9255 L 709.57221,1110.9156 L 718.67102,1110.9156 C 718.98518,1110.9156 719.21476,1110.9156 719.35978,1110.9156 C 719.7706,1110.9156 720.09684,1110.8792 720.33853,1110.8063 C 720.58018,1110.7577 720.84602,1110.624 721.13603,1110.4053 C 721.32935,1110.2837 721.54685,1110.065 721.78854,1109.7491 C 722.03019,1109.4332 722.15103,1109.1659 722.15104,1108.9471 L 722.15104,1108.0723 L 715.58975,1108.0723 C 713.2939,1108.0723 711.37263,1107.0759 709.82596,1105.0831 C 708.37595,1103.2118 707.65094,1101.0245 707.65095,1098.5214 C 707.65094,1095.9696 708.43636,1093.7703 710.00721,1091.9233 C 711.60222,1090.0521 713.60806,1089.1164 716.02475,1089.1164 L 727.51607,1089.1164 L 727.51607,1107.3796 M 722.22354,1103.953 L 722.18729,1093.4179 L 717.72852,1093.4179 C 716.39933,1093.4179 715.37224,1093.9526 714.64725,1095.0218 C 713.92223,1096.0669 713.55973,1097.4035 713.55973,1099.0317 C 713.55973,1100.2712 713.88598,1101.3405 714.53849,1102.2396 C 715.38432,1103.3819 716.61683,1103.953 718.23602,1103.953 L 722.22354,1103.953 M 771.34265,1100.0889 C 771.34262,1102.3248 770.60553,1104.2082 769.13138,1105.7392 C 767.65718,1107.2703 765.78426,1108.0358 763.5126,1108.0358 L 745.56873,1107.9994 L 745.56873,1103.4062 L 760.35882,1103.4062 C 761.34965,1103.4062 762.1834,1103.1753 762.86009,1102.7136 C 763.63341,1102.1789 764.02008,1101.4498 764.0201,1100.5263 C 764.02008,1098.3634 762.49757,1097.282 759.45257,1097.282 L 751.98503,1097.282 C 749.83417,1097.282 747.94916,1096.6137 746.32999,1095.277 C 744.71081,1093.9404 743.90122,1092.2393 743.90122,1090.1736 C 743.90122,1087.8892 744.68664,1086.0422 746.25749,1084.6326 C 747.85249,1083.1988 749.94292,1082.4819 752.52877,1082.4818 L 769.67514,1082.4818 L 769.67514,1086.8563 L 754.55879,1086.8563 C 753.8821,1086.8563 753.19335,1087.1479 752.49253,1087.7312 C 751.81584,1088.2901 751.47751,1088.9585 751.47752,1089.7361 C 751.47751,1090.611 751.80376,1091.3522 752.45628,1091.9598 C 753.13293,1092.5431 753.94252,1092.8347 754.88504,1092.8347 L 763.11385,1092.8347 C 765.6755,1092.8347 767.68134,1093.503 769.13138,1094.8396 C 770.60553,1096.1519 771.34262,1097.9017 771.34265,1100.0889 M 791.56399,1089.1164 L 791.52774,1108.8013 C 791.52772,1109.6276 791.35855,1110.3689 791.02023,1111.025 C 790.68188,1111.7055 790.23479,1112.3009 789.67898,1112.8112 C 788.83312,1113.5403 787.96312,1114.0385 787.06896,1114.3059 C 786.17477,1114.5731 785.09936,1114.7068 783.84269,1114.7068 L 773.98262,1114.7068 L 773.98262,1110.7698 L 784.24144,1110.7698 C 784.7006,1110.7698 785.1356,1110.6119 785.54645,1110.296 C 786.10228,1109.8584 786.38019,1109.3481 786.38021,1108.7649 L 786.38021,1108.0358 L 780.58017,1108.0358 C 779.46849,1108.0358 778.52599,1107.9143 777.75265,1107.6712 C 776.97931,1107.404 776.23014,1106.9057 775.50514,1106.1767 C 774.2243,1104.913 773.58387,1103.3454 773.58387,1101.4741 L 773.58387,1089.1164 L 778.87641,1089.1164 L 778.84016,1101.2189 C 778.84015,1101.705 778.86432,1102.0695 778.91265,1102.3126 C 778.98515,1102.5556 779.15432,1102.8229 779.42016,1103.1146 C 779.71015,1103.4062 780.03641,1103.6128 780.39892,1103.7343 C 780.76141,1103.8315 781.20849,1103.8801 781.74018,1103.8801 L 786.34396,1103.8801 L 786.34396,1089.1164 L 791.56399,1089.1164 M 812.36771,1102.2396 C 812.36769,1103.8436 811.84811,1105.2167 810.80895,1106.359 C 809.79392,1107.5012 808.501,1108.0723 806.93017,1108.0723 L 794.49635,1108.0723 L 794.49635,1104.6456 L 804.7189,1104.6456 C 805.4439,1104.6456 806.04807,1104.4634 806.53142,1104.0988 C 807.03891,1103.7343 807.29265,1103.2118 807.29267,1102.5313 C 807.29265,1100.9516 806.22932,1100.1618 804.10265,1100.1618 L 798.88262,1100.1618 C 797.77094,1100.1618 796.69552,1099.6271 795.65635,1098.5578 C 794.61718,1097.4885 794.09759,1096.3342 794.09759,1095.0947 C 794.09759,1093.345 794.48426,1091.9355 795.25759,1090.8662 C 796.15177,1089.6511 797.46886,1089.0435 799.20888,1089.0435 L 811.17145,1089.0435 L 811.17145,1092.6159 L 800.51388,1092.6159 C 800.10304,1092.616 799.74054,1092.8225 799.42638,1093.2357 C 799.13637,1093.6245 798.99137,1094.0741 798.99137,1094.5844 C 798.99137,1095.1434 799.18469,1095.6294 799.57137,1096.0425 C 799.9822,1096.4314 800.46554,1096.6258 801.02138,1096.6258 L 806.64017,1096.6258 C 808.40433,1096.6258 809.79392,1097.1605 810.80895,1098.2298 C 811.84811,1099.2748 812.36769,1100.6114 812.36771,1102.2396 M 826.02609,1093.0534 L 821.13231,1093.0534 L 821.13231,1101.6199 C 821.1323,1102.3977 821.39814,1103.0417 821.92982,1103.552 C 822.53397,1104.0624 823.33148,1104.3175 824.32234,1104.3175 L 825.80859,1104.3175 L 825.80859,1107.9994 L 821.13231,1107.9994 C 819.73063,1107.9994 818.53438,1107.489 817.54354,1106.4683 C 816.96353,1105.8608 816.58895,1105.1924 816.41978,1104.4634 C 816.25061,1103.7343 816.16603,1102.8716 816.16603,1101.8751 L 816.16603,1093.0534 L 812.97601,1093.0534 L 812.97601,1089.1164 L 816.16603,1089.1164 L 816.16603,1082.4818 L 821.13231,1082.4818 L 821.13231,1089.1164 L 826.02609,1089.1164 L 826.02609,1093.0534 M 844.47916,1108.1088 L 835.6341,1108.1088 C 833.48325,1108.1088 831.61032,1107.1852 830.01532,1105.3382 C 828.44447,1103.467 827.65905,1101.3162 827.65905,1098.8859 C 827.65905,1096.237 828.51698,1093.9526 830.23282,1092.0327 C 831.97283,1090.0885 833.90617,1089.1164 836.03286,1089.1164 L 844.44291,1089.1164 L 844.44291,1093.0169 L 838.28037,1093.0169 C 837.50703,1093.017 836.84244,1093.0899 836.2866,1093.2357 C 835.75493,1093.3572 835.25951,1093.6124 834.80035,1094.0012 C 833.95451,1094.7302 833.53158,1095.7145 833.53159,1096.9539 L 844.40666,1096.9539 L 844.40666,1100.8909 L 833.56784,1100.8909 C 833.56783,1101.4741 833.62825,1101.9723 833.74909,1102.3855 C 833.89409,1102.7743 834.17201,1103.1753 834.58285,1103.5885 C 834.99368,1103.9773 835.47701,1104.2446 836.03286,1104.3904 C 836.61285,1104.512 837.31369,1104.5727 838.13537,1104.5727 L 844.47916,1104.5727 L 844.47916,1108.1088 M 874.61218,1108.0358 L 869.71839,1108.0358 L 869.71839,1096.1884 C 869.71837,1095.7266 869.67004,1095.3621 869.5734,1095.0947 C 869.4767,1094.8274 869.28337,1094.548 868.9934,1094.2564 C 868.70337,1093.9404 868.41337,1093.7217 868.12339,1093.6002 C 867.83336,1093.4544 867.49503,1093.3815 867.10839,1093.3815 L 863.51961,1093.3815 L 863.51961,1108.0358 L 858.55333,1108.0358 L 858.55333,1093.2721 L 852.71704,1093.2721 L 852.71704,1107.9994 L 847.64201,1107.9994 L 847.64201,1089.1164 L 867.76089,1089.1164 C 869.01754,1089.1164 870.00837,1089.2379 870.7334,1089.4809 C 871.45838,1089.6997 872.1713,1090.1857 872.87217,1090.9391 C 873.42797,1091.5467 873.8509,1092.1421 874.14093,1092.7253 C 874.45507,1093.3086 874.61215,1093.9404 874.61218,1094.6208 L 874.61218,1108.0358"
         style="font-size:36.35176468px;font-style:normal;font-variant:normal;font-weight:200;font-stretch:normal;text-indent:0;text-align:start;text-decoration:none;line-height:125%;letter-spacing:normal;word-spacing:normal;text-transform:none;direction:ltr;block-progression:tb;writing-mode:lr-tb;text-anchor:start;fill:#000000;fill-opacity:1;fill-rule:nonzero;stroke:none;stroke-width:1px;stroke-linecap:butt;stroke-linejoin:miter;marker:none;marker-start:none;marker-mid:none;marker-end:none;stroke-miterlimit:4;stroke-dashoffset:0;stroke-opacity:1;visibility:visible;display:inline;overflow:visible;enable-background:accumulate;font-family:Denmark;-inkscape-font-specification:Denmark Ultra-Light" />
    </g>
  </g>
</svg>
