<?xml version="1.0" encoding="UTF-8" standalone="no"?>
<!-- Created with Inkscape (http://www.inkscape.org/) -->
<svg
   xmlns:dc="http://purl.org/dc/elements/1.1/"
   xmlns:cc="http://creativecommons.org/ns#"
   xmlns:rdf="http://www.w3.org/1999/02/22-rdf-syntax-ns#"
   xmlns:svg="http://www.w3.org/2000/svg"
   xmlns="http://www.w3.org/2000/svg"
   xmlns:sodipodi="http://sodipodi.sourceforge.net/DTD/sodipodi-0.dtd"
   xmlns:inkscape="http://www.inkscape.org/namespaces/inkscape"
   width="48"
   height="48"
   id="svg2"
   sodipodi:version="0.32"
   inkscape:version="0.46"
   sodipodi:docname="icon-admonition-doc-redirect.svg"
   inkscape:output_extension="org.inkscape.output.svg.inkscape"
   version="1.0">
  <defs
     id="defs4" />
  <sodipodi:namedview
     id="base"
     pagecolor="#ffffff"
     bordercolor="#666666"
     borderopacity="1.0"
     gridtolerance="10000"
     guidetolerance="10"
     objecttolerance="10"
     inkscape:pageopacity="0.0"
     inkscape:pageshadow="2"
     inkscape:zoom="10.416667"
     inkscape:cx="7.2026605"
     inkscape:cy="23.171141"
     inkscape:document-units="px"
     inkscape:current-layer="layer1"
     showgrid="false"
     inkscape:window-width="1360"
     inkscape:window-height="693"
     inkscape:window-x="0"
     inkscape:window-y="25"
     showborder="true"
     inkscape:showpageshadow="false"
     showguides="true"
     inkscape:guide-bbox="true" />
  <metadata
     id="metadata3399">
    <rdf:RDF>
      <cc:Work
         rdf:about="">
        <dc:format>image/svg+xml</dc:format>
        <dc:type
           rdf:resource="http://purl.org/dc/dcmitype/StillImage" />
        <cc:license
           rdf:resource="http://creativecommons.org/licenses/by-sa/3.0/" />
        <dc:title>icon-admonition-doc-redirect.svg</dc:title>
        <dc:date>2010-12-04</dc:date>
        <dc:creator>
          <cc:Agent>
            <dc:title>Alain Reguera Delgado</dc:title>
          </cc:Agent>
        </dc:creator>
        <dc:rights>
          <cc:Agent>
            <dc:title>Alain Reguera Delgado</dc:title>
          </cc:Agent>
        </dc:rights>
        <dc:publisher>
          <cc:Agent>
            <dc:title>The CentOS Project</dc:title>
          </cc:Agent>
        </dc:publisher>
        <dc:identifier>https://projects.centos.org/svn/artwork/trunk/Identity/Widgets/Tpl/icon-admonition-doc-redirect.svg</dc:identifier>
        <dc:source>https://projects.centos.org/svn/artwork/trunk/Identity/Widgets/Tpl/icon-admonition-doc-redirect.svg</dc:source>
        <dc:relation>https://projects.centos.org/svn/artwork/trunk/Identity/Widgets/Tpl/icon-admonition-doc-redirect.svg</dc:relation>
        <dc:language>en</dc:language>
        <dc:subject>
          <rdf:Bag>
            <rdf:li>Identity</rdf:li>
            <rdf:li>Widgets</rdf:li>
            <rdf:li>Tpl</rdf:li>
          </rdf:Bag>
        </dc:subject>
        <dc:coverage>The CentOS Project</dc:coverage>
        <dc:description></dc:description>
        <dc:contributor>
          <cc:Agent>
            <dc:title></dc:title>
          </cc:Agent>
        </dc:contributor>
      </cc:Work>
      <cc:License
         rdf:about="http://creativecommons.org/licenses/by-sa/3.0/">
        <cc:permits
           rdf:resource="http://creativecommons.org/ns#Reproduction" />
        <cc:permits
           rdf:resource="http://creativecommons.org/ns#Distribution" />
        <cc:requires
           rdf:resource="http://creativecommons.org/ns#Notice" />
        <cc:requires
           rdf:resource="http://creativecommons.org/ns#Attribution" />
        <cc:permits
           rdf:resource="http://creativecommons.org/ns#DerivativeWorks" />
        <cc:requires
           rdf:resource="http://creativecommons.org/ns#ShareAlike" />
      </cc:License>
    </rdf:RDF>
  </metadata>
  <g
     inkscape:label="Layer 1"
     inkscape:groupmode="layer"
     id="layer1">
    <g
       id="g3876"
       transform="matrix(1.9853465,0,0,1.9853465,98.070308,-2.9304898)" />
    <rect
       style="opacity:0.3;fill:none;fill-opacity:1;stroke:none;stroke-width:7;stroke-linecap:round;stroke-miterlimit:4;stroke-dasharray:none;stroke-opacity:1"
       id="CENTOSARTWORK"
       width="48"
       height="48"
       x="0"
       y="0"
       inkscape:label="#rect2755" />
    <g
       id="g2758"
       transform="matrix(1.2083333,0,0,1.2083333,-15.396269,-7.344557)"
       style="stroke:#565248">
      <path
         sodipodi:nodetypes="cccccc"
         id="path2760"
         d="M 16.052085,9.0123906 L 34.898196,9.0123906 L 39.395869,13.505875 L 39.395869,37.526531 L 16.052085,37.526531 L 16.052085,9.0123906 z"
         style="fill:#eeeeee;fill-opacity:1;stroke:#333333;stroke-width:1.65517247;stroke-miterlimit:4;stroke-dasharray:none;stroke-opacity:1" />
      <path
         id="path2762"
         d="M 20.453585,13.434077 L 24.198578,13.434077"
         style="fill:#ffffff;fill-rule:evenodd;stroke:#333333;stroke-width:1.79876912;stroke-linecap:round;stroke-linejoin:miter;stroke-miterlimit:4;stroke-dasharray:none;stroke-opacity:1"
         sodipodi:nodetypes="cc" />
      <path
         style="fill:none;fill-rule:evenodd;stroke:#333333;stroke-width:1.65517247;stroke-linecap:butt;stroke-linejoin:miter;stroke-miterlimit:4;stroke-dasharray:none;stroke-opacity:1"
         d="M 34.653987,9.1101129 L 34.653987,13.505875 L 39.293958,13.505875"
         id="path2766" />
      <path
         sodipodi:nodetypes="cc"
         style="fill:#ffffff;fill-rule:evenodd;stroke:#333333;stroke-width:1.79876912;stroke-linecap:round;stroke-linejoin:miter;stroke-miterlimit:4;stroke-dasharray:none;stroke-opacity:1"
         d="M 20.453585,19.75257 L 35.434261,19.75257"
         id="path2768" />
      <path
         id="path2770"
         d="M 20.453585,23.890501 L 35.434261,23.890501"
         style="fill:#ffffff;fill-rule:evenodd;stroke:#333333;stroke-width:1.79876912;stroke-linecap:round;stroke-linejoin:miter;stroke-miterlimit:4;stroke-dasharray:none;stroke-opacity:1"
         sodipodi:nodetypes="cc" />
      <path
         id="path2774"
         d="M 20.453585,28.028433 L 35.434261,28.028433"
         style="fill:#ffffff;fill-rule:evenodd;stroke:#333333;stroke-width:1.79876912;stroke-linecap:round;stroke-linejoin:miter;stroke-miterlimit:4;stroke-dasharray:none;stroke-opacity:1"
         sodipodi:nodetypes="cc" />
      <path
         style="fill:none;fill-opacity:1;stroke:#333333;stroke-width:2.48275869;stroke-miterlimit:4;stroke-dasharray:none;stroke-opacity:1"
         d="M 16.052085,9.0123906 L 34.898196,9.0123906 L 39.395869,13.505875 L 39.395869,37.526531 L 16.052085,37.526531 L 16.052085,9.0123906 z"
         id="path2764"
         sodipodi:nodetypes="cccccc" />
      <path
         sodipodi:nodetypes="cc"
         style="fill:#ffffff;fill-rule:evenodd;stroke:#333333;stroke-width:1.79876912;stroke-linecap:round;stroke-linejoin:miter;stroke-miterlimit:4;stroke-dasharray:none;stroke-opacity:1"
         d="M 20.453585,33.510364 L 22.56364,33.510364"
         id="path3778" />
    </g>
    <g
       transform="matrix(0.50315,0,0,-0.50315,4.5337575,33.576905)"
       id="g3700">
      <path
         style="fill:#6699cc;fill-opacity:1;fill-rule:evenodd;stroke:none;stroke-width:1.87164831;stroke-linecap:butt;stroke-linejoin:miter;stroke-miterlimit:4;stroke-dasharray:none;stroke-opacity:1"
         d="M 75.018627,31.058115 C 75.018627,31.058115 64.278089,31.058116 64.278089,31.058116 C 64.278089,31.058116 64.278089,22.26348 64.278089,22.26348 C 64.278089,22.26348 50.845847,35.720352 50.845847,35.720352 C 50.845847,35.720352 64.278089,49.179454 64.278089,49.179454 C 64.278089,49.179454 64.278089,40.550988 64.278089,40.550988 C 64.278089,40.550988 75.018627,40.550988 75.018627,40.550988 C 75.018627,40.550988 75.018627,31.058115 75.018627,31.058115 z"
         id="path3702"
         sodipodi:nodetypes="cczczcss"
         inkscape:label="CENTOSARTWORK" />
      <g
         transform="matrix(0.7555979,0.7555979,0.7555979,-0.7555979,-15.973972,38.785124)"
         id="g3704"
         style="fill:#ffffff;fill-opacity:0.39215686">
        <path
           inkscape:label="CENTOSARTWORK"
           sodipodi:nodetypes="czczcsc"
           id="path3706"
           d="M 55.099141,65.325491 C 55.099141,65.325491 59.763895,56.538601 50.557589,55.652421 C 41.407907,54.77169 42.188476,46.244564 42.188476,46.244564 C 42.188476,46.244564 59.983221,46.22679 59.983221,46.22679 C 59.983221,46.22679 54.273526,51.936484 54.273526,51.936484 C 54.273526,51.936484 61.380837,59.043795 61.380837,59.043795 C 61.380837,59.043795 55.099141,65.325491 55.099141,65.325491 z"
           style="fill:#ffffff;fill-opacity:0.39215686;fill-rule:evenodd;stroke:none;stroke-width:1.87164831;stroke-linecap:butt;stroke-linejoin:miter;stroke-miterlimit:4;stroke-dasharray:none;stroke-opacity:1" />
      </g>
      <path
         inkscape:label="CENTOSARTWORK"
         sodipodi:nodetypes="cczczcss"
         id="path3708"
         d="M 75.018627,31.058115 C 75.018627,31.058115 64.278089,31.058117 64.278089,31.058117 C 64.278089,31.058117 64.278089,22.26348 64.278089,22.26348 C 64.278089,22.26348 50.845847,35.804552 50.845847,35.804552 C 50.845847,35.804552 64.278089,49.179454 64.278089,49.179454 C 64.278089,49.179454 64.278089,40.550988 64.278089,40.550988 C 64.278089,40.550988 75.018627,40.550988 75.018627,40.550988 C 75.018627,40.550988 75.018627,31.058115 75.018627,31.058115 z"
         style="fill:none;fill-opacity:1;fill-rule:evenodd;stroke:#336699;stroke-width:3.3160677;stroke-linecap:butt;stroke-linejoin:miter;stroke-miterlimit:4;stroke-dasharray:none;stroke-opacity:1" />
      <path
         style="fill:#ffffff;fill-opacity:0.78431373;fill-rule:evenodd;stroke:none;stroke-width:1px;stroke-linecap:butt;stroke-linejoin:miter;stroke-opacity:1"
         d="M 54.949693,36.222508 L 61.805151,42.801627 L 61.666981,38.903322 L 54.949693,36.222508 z"
         id="path3710"
         sodipodi:nodetypes="cccc" />
    </g>
    <g
       id="g3760"
       transform="matrix(-0.7454519,-0.7454519,0.7454519,-0.7454519,53.105126,110.68397)">
      <path
         inkscape:label="CENTOSARTWORK"
         sodipodi:nodetypes="cczczcss"
         id="path3762"
         d="M 75.018627,31.058115 C 75.018627,31.058115 64.278089,31.058116 64.278089,31.058116 C 64.278089,31.058116 64.278089,22.26348 64.278089,22.26348 C 64.278089,22.26348 50.845847,35.720352 50.845847,35.720352 C 50.845847,35.720352 64.278089,49.179454 64.278089,49.179454 C 64.278089,49.179454 64.278089,40.550988 64.278089,40.550988 C 64.278089,40.550988 75.018627,40.550988 75.018627,40.550988 C 75.018627,40.550988 75.018627,31.058115 75.018627,31.058115 z"
         style="fill:#339900;fill-opacity:1;fill-rule:evenodd;stroke:none;stroke-width:1.87164831000000009;stroke-linecap:butt;stroke-linejoin:miter;stroke-miterlimit:4;stroke-dasharray:none;stroke-opacity:1" />
      <g
         style="fill:#ffffff;fill-opacity:0.39215686"
         id="g3764"
         transform="matrix(0.7555979,0.7555979,0.7555979,-0.7555979,-15.973972,38.785124)">
        <path
           style="fill:#ffffff;fill-opacity:0.39215686;fill-rule:evenodd;stroke:none;stroke-width:1.87164831;stroke-linecap:butt;stroke-linejoin:miter;stroke-miterlimit:4;stroke-dasharray:none;stroke-opacity:1"
           d="M 55.099141,65.325491 C 55.099141,65.325491 59.763895,56.538601 50.557589,55.652421 C 41.407907,54.77169 42.188476,46.244564 42.188476,46.244564 C 42.188476,46.244564 59.983221,46.22679 59.983221,46.22679 C 59.983221,46.22679 54.273526,51.936484 54.273526,51.936484 C 54.273526,51.936484 61.380837,59.043795 61.380837,59.043795 C 61.380837,59.043795 55.099141,65.325491 55.099141,65.325491 z"
           id="path3766"
           sodipodi:nodetypes="czczcsc"
           inkscape:label="CENTOSARTWORK" />
      </g>
      <path
         style="fill:none;fill-opacity:1;fill-rule:evenodd;stroke:#015a01;stroke-width:2.31649469999999980;stroke-linecap:butt;stroke-linejoin:miter;stroke-miterlimit:4;stroke-dasharray:none;stroke-opacity:1"
         d="M 75.018627,31.058115 C 75.018627,31.058115 64.278089,31.058117 64.278089,31.058117 C 64.278089,31.058117 64.278089,22.26348 64.278089,22.26348 C 64.278089,22.26348 50.845847,35.804552 50.845847,35.804552 C 50.845847,35.804552 64.278089,49.179454 64.278089,49.179454 C 64.278089,49.179454 64.278089,40.550988 64.278089,40.550988 C 64.278089,40.550988 75.018627,40.550988 75.018627,40.550988 C 75.018627,40.550988 75.018627,31.058115 75.018627,31.058115 z"
         id="path3768"
         sodipodi:nodetypes="cczczcss"
         inkscape:label="CENTOSARTWORK" />
      <path
         id="path3770"
         d="M 53.567998,35.808 L 62.495998,44.736 L 62.495998,39.456 L 53.567998,35.808 z"
         style="fill:#ffffff;fill-opacity:0.78431373;fill-rule:evenodd;stroke:none;stroke-width:1px;stroke-linecap:butt;stroke-linejoin:miter;stroke-opacity:1" />
    </g>
  </g>
</svg>
