<?xml version="1.0" encoding="UTF-8" standalone="no"?>
<!-- Created with Inkscape (http://www.inkscape.org/) -->
<svg
   xmlns:dc="http://purl.org/dc/elements/1.1/"
   xmlns:cc="http://creativecommons.org/ns#"
   xmlns:rdf="http://www.w3.org/1999/02/22-rdf-syntax-ns#"
   xmlns:svg="http://www.w3.org/2000/svg"
   xmlns="http://www.w3.org/2000/svg"
   xmlns:xlink="http://www.w3.org/1999/xlink"
   xmlns:sodipodi="http://sodipodi.sourceforge.net/DTD/sodipodi-0.dtd"
   xmlns:inkscape="http://www.inkscape.org/namespaces/inkscape"
   width="48"
   height="48"
   id="svg2360"
   sodipodi:version="0.32"
   inkscape:version="0.46"
   version="1.0"
   sodipodi:docbase="/home/al/Desktop/CentOS_TreeFlower_Theme/artwork/trunk/Main/svg/templates"
   sodipodi:docname="icon-admonition-idea.svg"
   inkscape:output_extension="org.inkscape.output.svg.inkscape">
  <defs
     id="defs2362">
    <linearGradient
       id="linearGradient3210">
      <stop
         style="stop-color:#666666;stop-opacity:1"
         offset="0"
         id="stop3212" />
      <stop
         style="stop-color:#986601;stop-opacity:0;"
         offset="1"
         id="stop3214" />
    </linearGradient>
    <inkscape:perspective
       sodipodi:type="inkscape:persp3d"
       inkscape:vp_x="0 : 15 : 1"
       inkscape:vp_y="0 : 1000 : 0"
       inkscape:vp_z="22 : 15 : 1"
       inkscape:persp3d-origin="11 : 10 : 1"
       id="perspective9422" />
    <linearGradient
       id="linearGradient4660">
      <stop
         style="stop-color:#ffbd00;stop-opacity:1;"
         offset="0"
         id="stop4662" />
      <stop
         style="stop-color:#ffbd00;stop-opacity:0;"
         offset="1"
         id="stop4664" />
    </linearGradient>
    <linearGradient
       inkscape:collect="always"
       xlink:href="#linearGradient4660"
       id="linearGradient4666"
       x1="536.13159"
       y1="523.36218"
       x2="651.5"
       y2="523.36218"
       gradientUnits="userSpaceOnUse" />
    <linearGradient
       id="linearGradient4668">
      <stop
         style="stop-color:#ffffff;stop-opacity:1;"
         offset="0"
         id="stop4670" />
      <stop
         style="stop-color:#ffeaac;stop-opacity:0.42268041;"
         offset="1"
         id="stop4672" />
    </linearGradient>
    <linearGradient
       inkscape:collect="always"
       xlink:href="#linearGradient4668"
       id="linearGradient4674"
       x1="649"
       y1="557.61749"
       x2="506.10779"
       y2="557.61749"
       gradientUnits="userSpaceOnUse" />
    <radialGradient
       inkscape:collect="always"
       xlink:href="#linearGradient2985"
       id="radialGradient3009"
       gradientUnits="userSpaceOnUse"
       gradientTransform="matrix(1,0,0,0.944781,0,38.46173)"
       cx="516.95697"
       cy="696.53046"
       fx="516.95697"
       fy="696.53046"
       r="29.237768" />
    <linearGradient
       id="linearGradient2985">
      <stop
         style="stop-color:#ffffff;stop-opacity:1"
         offset="0"
         id="stop2987" />
      <stop
         style="stop-color:#ffffff;stop-opacity:0"
         offset="1"
         id="stop2989" />
    </linearGradient>
    <radialGradient
       inkscape:collect="always"
       xlink:href="#linearGradient2985"
       id="radialGradient3013"
       gradientUnits="userSpaceOnUse"
       gradientTransform="matrix(1,0,0,0.944781,0,38.46173)"
       cx="516.95697"
       cy="696.53046"
       fx="516.95697"
       fy="696.53046"
       r="29.237768" />
    <radialGradient
       inkscape:collect="always"
       xlink:href="#linearGradient2985"
       id="radialGradient1571"
       gradientUnits="userSpaceOnUse"
       gradientTransform="matrix(1,0,0,0.944781,0,38.46173)"
       cx="516.95697"
       cy="696.53046"
       fx="516.95697"
       fy="696.53046"
       r="29.237768" />
    <linearGradient
       inkscape:collect="always"
       xlink:href="#linearGradient3210"
       id="linearGradient3216"
       x1="11.750957"
       y1="22.912251"
       x2="11.750957"
       y2="26.988226"
       gradientUnits="userSpaceOnUse"
       gradientTransform="translate(0,-0.4581423)" />
  </defs>
  <sodipodi:namedview
     id="base"
     pagecolor="#ffffff"
     bordercolor="#666666"
     borderopacity="0.39215686"
     inkscape:pageopacity="0.0"
     inkscape:pageshadow="2"
     inkscape:zoom="10.416667"
     inkscape:cx="11.952"
     inkscape:cy="24"
     inkscape:document-units="px"
     inkscape:current-layer="layer1"
     inkscape:window-width="1360"
     inkscape:window-height="693"
     inkscape:window-x="0"
     inkscape:window-y="25"
     showborder="true"
     showgrid="false"
     inkscape:showpageshadow="false" />
  <metadata
     id="metadata2365">
    <rdf:RDF>
      <cc:Work
         rdf:about="">
        <dc:format>image/svg+xml</dc:format>
        <dc:type
           rdf:resource="http://purl.org/dc/dcmitype/StillImage" />
      </cc:Work>
    </rdf:RDF>
  </metadata>
  <g
     inkscape:label="Layer 1"
     inkscape:groupmode="layer"
     id="layer1"
     transform="translate(0.2396254,33.893665)">
    <g
       id="g2403"
       inkscape:label="#g2403"
       transform="matrix(1.2296327,0,0,1.2296327,9.9267881,-26.794703)">
      <path
         sodipodi:type="arc"
         style="fill:#fedb00;fill-opacity:1;stroke:none;stroke-width:15.97661114;stroke-miterlimit:4;stroke-dasharray:none;stroke-dashoffset:0;stroke-opacity:1"
         id="path4717"
         sodipodi:cx="571"
         sodipodi:cy="523.36218"
         sodipodi:rx="78"
         sodipodi:ry="78"
         d="M 649,523.36218 A 78,78 0 1 1 493,523.36218 A 78,78 0 1 1 649,523.36218 z"
         transform="matrix(0.1520177,0,0,0.1454352,-75.551929,-64.907699)"
         inkscape:export-xdpi="11.69"
         inkscape:export-ydpi="11.69" />
      <path
         inkscape:export-ydpi="11.69"
         inkscape:export-xdpi="11.69"
         transform="matrix(0.1310798,0,0,0.125404,-63.596388,-55.412803)"
         d="M 649,523.36218 A 78,78 0 1 1 493,523.36218 A 78,78 0 1 1 649,523.36218 z"
         sodipodi:ry="78"
         sodipodi:rx="78"
         sodipodi:cy="523.36218"
         sodipodi:cx="571"
         id="path4738"
         style="opacity:0.4;fill:#ffffff;fill-opacity:1;stroke:none;stroke-width:15.97661114;stroke-miterlimit:4;stroke-dasharray:none;stroke-dashoffset:0;stroke-opacity:1"
         sodipodi:type="arc" />
      <path
         inkscape:export-ydpi="11.69"
         inkscape:export-xdpi="11.69"
         transform="matrix(0.2145717,0,0,0.2052813,-99.674158,-136.97938)"
         d="M 545.69474,696.53046 A 28.737768,27.123287 0 1 1 488.2192,696.53046 A 28.737768,27.123287 0 1 1 545.69474,696.53046 z"
         sodipodi:ry="27.123287"
         sodipodi:rx="28.737768"
         sodipodi:cy="696.53046"
         sodipodi:cx="516.95697"
         id="path2975"
         style="fill:url(#radialGradient1571);fill-opacity:1;stroke:none;stroke-width:1;stroke-miterlimit:4;stroke-dasharray:none;stroke-dashoffset:0;stroke-opacity:1"
         sodipodi:type="arc" />
      <g
         id="g4733"
         transform="translate(4.0106208e-4,0.4730319)">
        <path
           style="fill:none;fill-opacity:0.75;fill-rule:evenodd;stroke:#fffde5;stroke-width:0.77327389;stroke-linecap:round;stroke-linejoin:miter;stroke-miterlimit:4;stroke-dasharray:none;stroke-opacity:1"
           d="M 10.13687,21.908986 L 6.9216329,13.920939"
           id="path4676"
           inkscape:export-xdpi="11.69"
           inkscape:export-ydpi="11.69" />
        <path
           id="path4678"
           d="M 12.362688,21.908986 L 15.577921,13.920939"
           style="fill:none;fill-opacity:0.75;fill-rule:evenodd;stroke:#fffde5;stroke-width:0.77327389;stroke-linecap:round;stroke-linejoin:miter;stroke-miterlimit:4;stroke-dasharray:none;stroke-opacity:1"
           inkscape:export-xdpi="11.69"
           inkscape:export-ydpi="11.69" />
        <path
           style="fill:none;fill-opacity:0.75;fill-rule:evenodd;stroke:#fffde5;stroke-width:0.77327389;stroke-linecap:round;stroke-linejoin:round;stroke-miterlimit:4;stroke-dasharray:none;stroke-opacity:1"
           d="M 6.9788882,17.055617 L 8.7667344,14.381129 L 10.147806,16.357939 L 11.279962,13.529649 L 12.560589,16.41082 L 13.764316,14.391804 L 15.520667,17.055617"
           id="path2399"
           sodipodi:nodetypes="ccccccc" />
      </g>
      <path
         inkscape:export-ydpi="11.69"
         inkscape:export-xdpi="11.69"
         transform="matrix(0.1648548,0,0,0.1577166,-82.881913,-71.33531)"
         d="M 649,523.36218 A 78,78 0 1 1 493,523.36218 A 78,78 0 1 1 649,523.36218 z"
         sodipodi:ry="78"
         sodipodi:rx="78"
         sodipodi:cy="523.36218"
         sodipodi:cx="571"
         id="path3783"
         style="fill:none;fill-opacity:1;stroke:#f0a513;stroke-width:11.98902416;stroke-miterlimit:4;stroke-dasharray:none;stroke-dashoffset:0;stroke-opacity:1"
         sodipodi:type="arc" />
      <path
         inkscape:export-ydpi="11.69"
         inkscape:export-xdpi="11.69"
         transform="matrix(0.209675,0,0,0.200596,-121.2581,-108.78173)"
         d="M 640.75226,697.42804 A 8.7824116,8.418643 0 1 1 623.18744,697.42804 A 8.7824116,8.418643 0 1 1 640.75226,697.42804 z"
         sodipodi:ry="8.418643"
         sodipodi:rx="8.7824116"
         sodipodi:cy="697.42804"
         sodipodi:cx="631.96985"
         id="path2107"
         style="fill:#f0a513;fill-opacity:1;stroke:#f0a513;stroke-width:4.43248367;stroke-miterlimit:4;stroke-dasharray:none;stroke-dashoffset:0;stroke-opacity:1"
         sodipodi:type="arc" />
      <path
         sodipodi:nodetypes="cscscsscscscc"
         id="path3218"
         d="M 8.1956697,22.454108 C 8.1956697,22.454108 6.0349177,22.469121 6.0349177,23.843363 C 6.0349177,24.838472 8.1956697,24.904516 8.1956697,24.904516 C 8.1956697,24.904516 6.0349177,24.872333 6.0349177,26.319384 C 6.0349177,27.316664 8.1956697,27.331733 8.1956697,27.331733 C 8.1956697,27.331733 6.0349177,27.381325 6.0349177,28.928048 C 6.0349177,31.071621 16.465162,31.094356 16.465162,28.928048 C 16.465162,27.331884 14.658656,27.331733 14.658656,27.331733 C 14.658656,27.331733 16.465162,27.349448 16.465162,26.05894 C 16.465162,24.901301 14.658656,24.860558 14.658656,24.860558 C 14.658656,24.860558 16.465162,24.877031 16.465162,23.620126 C 16.465162,22.425512 14.658656,22.472709 14.658656,22.472709 L 8.1956697,22.454108 z"
         style="fill:#fedb00;fill-opacity:1;fill-rule:evenodd;stroke:none;stroke-width:1.1599108;stroke-linecap:butt;stroke-linejoin:round;stroke-miterlimit:4;stroke-dasharray:none;stroke-opacity:1"
         inkscape:export-xdpi="11.69"
         inkscape:export-ydpi="11.69" />
      <path
         inkscape:export-ydpi="11.69"
         inkscape:export-xdpi="11.69"
         style="fill:none;fill-opacity:1;fill-rule:evenodd;stroke:#f0a513;stroke-width:1.1599108;stroke-linecap:butt;stroke-linejoin:round;stroke-miterlimit:4;stroke-dasharray:none;stroke-opacity:1"
         d="M 8.1956699,22.454108 C 8.1956699,22.454108 6.0349174,22.469121 6.0349174,23.843363 C 6.0349174,24.838472 8.1956699,24.904516 8.1956699,24.904516 C 8.1956699,24.904516 6.0349174,24.872333 6.0349174,26.319384 C 6.0349174,27.316664 8.1956699,27.331733 8.1956699,27.331733 C 8.1956699,27.331733 6.0349174,27.381325 6.0349174,28.928048 C 6.0349174,31.071621 16.465162,31.094356 16.465162,28.928048 C 16.465162,27.331884 14.658656,27.331733 14.658656,27.331733 C 14.658656,27.331733 16.465162,27.349448 16.465162,26.05894 C 16.465162,24.901301 14.658656,24.860558 14.658656,24.860558 C 14.658656,24.860558 16.465162,24.877031 16.465162,23.620126 C 16.465162,22.425512 14.658656,22.472709 14.658656,22.472709 L 8.1956699,22.454108 z"
         id="path6506"
         sodipodi:nodetypes="cscscsscscscc" />
      <path
         style="fill:#ffffff;fill-opacity:1;fill-rule:evenodd;stroke:none;stroke-width:1px;stroke-linecap:butt;stroke-linejoin:miter;stroke-opacity:1"
         d="M 16.017638,23.086583 C 16.017638,23.086583 8.1814148,26.708049 8.1814148,26.708049 C 6.7313064,27.415389 5.9934264,26.098201 7.3216398,25.622856 C 7.3216398,25.622856 16.017638,23.086583 16.017638,23.086583 z"
         id="path4727"
         sodipodi:nodetypes="cccc"
         inkscape:export-xdpi="11.69"
         inkscape:export-ydpi="11.69" />
      <path
         inkscape:export-ydpi="11.69"
         inkscape:export-xdpi="11.69"
         sodipodi:nodetypes="cccc"
         id="path4729"
         d="M 19.374102,23.836746 C 19.374102,23.836746 8.1814148,29.280136 8.1814148,29.280136 C 6.7313064,29.987476 5.9934264,28.670288 7.3216398,28.194943 C 7.3216398,28.194943 19.374102,23.836746 19.374102,23.836746 z"
         style="fill:#ffffff;fill-opacity:1;fill-rule:evenodd;stroke:none;stroke-width:1px;stroke-linecap:butt;stroke-linejoin:miter;stroke-opacity:1" />
      <path
         style="fill:#ffffff;fill-opacity:1;fill-rule:evenodd;stroke:none;stroke-width:1px;stroke-linecap:butt;stroke-linejoin:miter;stroke-opacity:1"
         d="M 18.426616,26.668107 C 18.426616,26.668107 12.159582,29.88379 12.159582,29.88379 C 12.159582,29.88379 9.7653619,29.843489 9.7653619,29.843489 C 9.7653619,29.843489 18.426616,26.668107 18.426616,26.668107 z"
         id="path4731"
         sodipodi:nodetypes="czcc"
         inkscape:export-xdpi="11.69"
         inkscape:export-ydpi="11.69" />
    </g>
    <rect
       style="opacity:1;fill:#304c75;fill-opacity:0;stroke:none;stroke-width:1;stroke-miterlimit:4;stroke-dasharray:none;stroke-opacity:1"
       id="CENTOSARTWORK"
       width="48"
       height="48"
       x="-0.23962539"
       y="-33.893665"
       inkscape:label="#rect7995" />
  </g>
</svg>
