<?xml version="1.0" encoding="UTF-8" standalone="no"?>
<!-- Created with Inkscape (http://www.inkscape.org/) -->
<svg
   xmlns:dc="http://purl.org/dc/elements/1.1/"
   xmlns:cc="http://creativecommons.org/ns#"
   xmlns:rdf="http://www.w3.org/1999/02/22-rdf-syntax-ns#"
   xmlns:svg="http://www.w3.org/2000/svg"
   xmlns="http://www.w3.org/2000/svg"
   xmlns:xlink="http://www.w3.org/1999/xlink"
   xmlns:sodipodi="http://sodipodi.sourceforge.net/DTD/sodipodi-0.dtd"
   xmlns:inkscape="http://www.inkscape.org/namespaces/inkscape"
   width="48"
   height="48"
   id="svg1465"
   sodipodi:version="0.32"
   inkscape:version="0.46"
   sodipodi:docbase="/home/al/Desktop/CentOS_TreeFlower_Theme/artwork/trunk/Main/svg/templates"
   sodipodi:docname="icon-admonition-star.svg"
   version="1.0"
   inkscape:output_extension="org.inkscape.output.svg.inkscape">
  <defs
     id="defs1467">
    <linearGradient
       id="linearGradient4328">
      <stop
         style="stop-color:#fffde3;stop-opacity:1;"
         offset="0"
         id="stop4330" />
      <stop
         style="stop-color:#fffde3;stop-opacity:0;"
         offset="1"
         id="stop4332" />
    </linearGradient>
    <linearGradient
       inkscape:collect="always"
       xlink:href="#linearGradient4328"
       id="linearGradient2463"
       x1="13.577449"
       y1="0.79626036"
       x2="-8.0683784"
       y2="27.775806"
       gradientUnits="userSpaceOnUse" />
  </defs>
  <sodipodi:namedview
     id="base"
     pagecolor="#ffffff"
     bordercolor="#666666"
     borderopacity="1.0"
     inkscape:pageopacity="0.0"
     inkscape:pageshadow="2"
     inkscape:zoom="10.416667"
     inkscape:cx="24"
     inkscape:cy="24"
     inkscape:document-units="px"
     inkscape:current-layer="layer1"
     inkscape:window-width="1360"
     inkscape:window-height="693"
     inkscape:window-x="0"
     inkscape:window-y="25"
     showborder="true"
     showgrid="false"
     inkscape:snap-global="false"
     showguides="true"
     inkscape:guide-bbox="true"
     inkscape:showpageshadow="false">
    <inkscape:grid
       type="xygrid"
       id="grid3381"
       visible="true"
       enabled="true" />
  </sodipodi:namedview>
  <metadata
     id="metadata1470">
    <rdf:RDF>
      <cc:Work
         rdf:about="">
        <dc:format>image/svg+xml</dc:format>
        <dc:type
           rdf:resource="http://purl.org/dc/dcmitype/StillImage" />
        <cc:license
           rdf:resource="http://creativecommons.org/licenses/by-sa/3.0/" />
        <dc:title>icon-admonition-star.svg</dc:title>
        <dc:date>2010-11-06</dc:date>
        <dc:creator>
          <cc:Agent>
            <dc:title>Alain Reguera Delgado</dc:title>
          </cc:Agent>
        </dc:creator>
        <dc:rights>
          <cc:Agent>
            <dc:title>Alain Reguera Delgado</dc:title>
          </cc:Agent>
        </dc:rights>
        <dc:publisher>
          <cc:Agent>
            <dc:title>The CentOS Project</dc:title>
          </cc:Agent>
        </dc:publisher>
      </cc:Work>
      <cc:License
         rdf:about="http://creativecommons.org/licenses/by-sa/3.0/">
        <cc:permits
           rdf:resource="http://creativecommons.org/ns#Reproduction" />
        <cc:permits
           rdf:resource="http://creativecommons.org/ns#Distribution" />
        <cc:requires
           rdf:resource="http://creativecommons.org/ns#Notice" />
        <cc:requires
           rdf:resource="http://creativecommons.org/ns#Attribution" />
        <cc:permits
           rdf:resource="http://creativecommons.org/ns#DerivativeWorks" />
        <cc:requires
           rdf:resource="http://creativecommons.org/ns#ShareAlike" />
      </cc:License>
    </rdf:RDF>
  </metadata>
  <g
     inkscape:label="Layer 1"
     inkscape:groupmode="layer"
     id="layer1"
     transform="translate(76.650185,33.592705)">
    <rect
       inkscape:label="#rect7995"
       y="-33.592705"
       x="-76.650185"
       height="48"
       width="48"
       id="CENTOSARTWORK"
       style="fill:#304c75;fill-opacity:0;stroke:none;stroke-width:1;stroke-miterlimit:4;stroke-dasharray:none;stroke-opacity:1" />
    <g
       id="g4298"
       inkscape:label="#g3241"
       transform="matrix(1.3120499,0,0,1.3477412,-67.148871,-29.808742)"
       style="fill:#fffde3;fill-opacity:1;stroke:none;stroke-width:1.40958703;stroke-linecap:round;stroke-linejoin:round;stroke-miterlimit:4;stroke-dasharray:none;stroke-opacity:1" />
    <path
       transform="matrix(0.9775833,0,0,0.9995681,-65.92214,-31.007011)"
       d="M 26.407962,40.842896 C 25.529103,41.488666 14.769736,35.956158 13.67915,35.962017 C 12.588564,35.967877 1.8892693,41.615684 1.0035226,40.979394 C 0.11777583,40.343105 2.0546769,28.400698 1.7120944,27.3653 C 1.3695119,26.329902 -7.3081355,17.899537 -6.9766988,16.860517 C -6.6452621,15.821498 5.3111763,13.973194 6.1900346,13.327423 C 7.0688928,12.681652 12.405106,1.8235926 13.495692,1.8177329 C 14.586278,1.8118732 20.038862,12.611965 20.924609,13.248254 C 21.810356,13.884544 33.785965,15.60426 34.128547,16.639658 C 34.47113,17.675056 25.884574,26.198183 25.553137,27.237203 C 25.2217,28.276223 27.28682,40.197125 26.407962,40.842896 z"
       inkscape:randomized="0"
       inkscape:rounded="0.08"
       inkscape:flatsided="false"
       sodipodi:arg2="1.5654234"
       sodipodi:arg1="0.93710482"
       sodipodi:r2="12.534159"
       sodipodi:r1="21.610619"
       sodipodi:cy="23.42804"
       sodipodi:cx="13.611805"
       sodipodi:sides="5"
       id="path4337"
       style="fill:#c4a000;fill-opacity:1;stroke:#c4a000;stroke-width:1.81827425999999992;stroke-linecap:round;stroke-linejoin:round;stroke-miterlimit:4;stroke-dasharray:none;stroke-opacity:1"
       sodipodi:type="star" />
    <path
       transform="matrix(0.7992989,0,0,0.8210422,-63.501703,-26.921384)"
       d="M 26.407962,40.842896 C 25.476229,41.527518 14.824899,34.010877 13.6687,34.01709 C 12.512501,34.023302 1.9425587,41.653965 1.0035226,40.979394 C 0.064486529,40.304823 3.9217947,27.852037 3.5586014,26.754346 C 3.195408,25.656655 -7.3280758,17.962048 -6.9766988,16.860517 C -6.6253219,15.758987 6.4099556,15.579383 7.3416887,14.89476 C 8.2734218,14.210137 12.339493,1.8239451 13.495692,1.8177329 C 14.651891,1.8115207 18.850827,14.153305 19.789864,14.827876 C 20.7289,15.502447 33.765354,15.541967 34.128547,16.639658 C 34.49174,17.737349 24.051548,25.544596 23.700171,26.646126 C 23.348795,27.747656 27.339695,40.158273 26.407962,40.842896 z"
       inkscape:randomized="0"
       inkscape:rounded="0.08"
       inkscape:flatsided="false"
       sodipodi:arg2="1.5654234"
       sodipodi:arg1="0.93710482"
       sodipodi:r2="10.589203"
       sodipodi:r1="21.610619"
       sodipodi:cy="23.42804"
       sodipodi:cx="13.611805"
       sodipodi:sides="5"
       id="path4324"
       style="fill:#edd400;fill-opacity:1;stroke:none;stroke-width:2.07051992000000018;stroke-linecap:round;stroke-linejoin:round;stroke-miterlimit:4;stroke-dasharray:none;stroke-opacity:1"
       sodipodi:type="star" />
    <path
       sodipodi:type="star"
       style="fill:none;fill-opacity:1;stroke:#edd400;stroke-width:1.81827425999999992;stroke-linecap:round;stroke-linejoin:round;stroke-miterlimit:4;stroke-dasharray:none;stroke-opacity:1"
       id="path3409"
       sodipodi:sides="5"
       sodipodi:cx="13.611805"
       sodipodi:cy="23.42804"
       sodipodi:r1="21.610619"
       sodipodi:r2="10.589203"
       sodipodi:arg1="0.93710482"
       sodipodi:arg2="1.5654234"
       inkscape:flatsided="false"
       inkscape:rounded="0.08"
       inkscape:randomized="0"
       d="M 26.407962,40.842896 C 25.476229,41.527518 14.824899,34.010877 13.6687,34.01709 C 12.512501,34.023302 1.9425587,41.653965 1.0035226,40.979394 C 0.064486529,40.304823 3.9217947,27.852037 3.5586014,26.754346 C 3.195408,25.656655 -7.3280758,17.962048 -6.9766988,16.860517 C -6.6253219,15.758987 6.4099556,15.579383 7.3416887,14.89476 C 8.2734218,14.210137 12.339493,1.8239451 13.495692,1.8177329 C 14.651891,1.8115207 18.850827,14.153305 19.789864,14.827876 C 20.7289,15.502447 33.765354,15.541967 34.128547,16.639658 C 34.49174,17.737349 24.051548,25.544596 23.700171,26.646126 C 23.348795,27.747656 27.339695,40.158273 26.407962,40.842896 z"
       transform="matrix(0.8343439,0,0,0.8570403,-63.977482,-28.041297)" />
    <path
       transform="matrix(0.7327097,0,0,0.7526416,-62.597638,-25.4542)"
       style="fill:url(#linearGradient2463);fill-opacity:1;stroke:#ffffff;stroke-width:2.07051992000000018;stroke-linecap:round;stroke-linejoin:round;stroke-miterlimit:4;stroke-opacity:0.11764706000000000;opacity:1"
       d="M 3.5586014,26.754346 C 2.7414163,24.284542 -7.7672969,19.33896 -6.9766988,16.860517 C -6.1861007,14.382074 5.2452891,16.435161 7.3416887,14.89476 C 9.4380881,13.354359 10.894245,1.8317104 13.495692,1.8177329 C 16.09714,1.8037554 17.677032,13.310092 19.789864,14.827876 C 21.902695,16.345661 33.311362,14.169853 34.128547,16.639658 C 34.945732,19.109462 24.490769,24.167683 23.700171,26.646126 C 23.700171,26.646126 13.936261,16.651514 3.5586014,26.754346 z"
       id="path2455"
       sodipodi:nodetypes="cssssscc" />
  </g>
</svg>
