<?xml version="1.0" encoding="UTF-8" standalone="no"?>
<!-- Created with Inkscape (http://www.inkscape.org/) -->
<svg
   xmlns:dc="http://purl.org/dc/elements/1.1/"
   xmlns:cc="http://creativecommons.org/ns#"
   xmlns:rdf="http://www.w3.org/1999/02/22-rdf-syntax-ns#"
   xmlns:svg="http://www.w3.org/2000/svg"
   xmlns="http://www.w3.org/2000/svg"
   xmlns:xlink="http://www.w3.org/1999/xlink"
   xmlns:sodipodi="http://sodipodi.sourceforge.net/DTD/sodipodi-0.dtd"
   xmlns:inkscape="http://www.inkscape.org/namespaces/inkscape"
   width="1052.36"
   height="744.09003"
   id="svg7897"
   sodipodi:version="0.32"
   inkscape:version="0.46"
   sodipodi:docname="trademark-release.svg"
   inkscape:output_extension="org.inkscape.output.svg.inkscape"
   version="1.0">
  <defs
     id="defs7899">
    <pattern
       inkscape:collect="always"
       xlink:href="#Wavy"
       id="pattern15379"
       patternTransform="matrix(1.1467531,0,0,1.1467531,-220.1239,346.7055)" />
    <linearGradient
       inkscape:collect="always"
       id="linearGradient14813">
      <stop
         style="stop-color:#000000;stop-opacity:1;"
         offset="0"
         id="stop14815" />
      <stop
         style="stop-color:#000000;stop-opacity:0;"
         offset="1"
         id="stop14817" />
    </linearGradient>
    <pattern
       inkscape:stockid="Wavy"
       id="Wavy"
       height="5.1805778"
       width="30.066020"
       patternUnits="userSpaceOnUse"
       inkscape:collect="always"
       patternTransform="matrix(0.9810664,0,0,0.9810664,-368.52156,360.21019)">
      <path
         id="path13850"
         d="M 7.597,0.061 C 5.079,-0.187 2.656,0.302 -0.01,1.788 L -0.01,3.061 C 2.773,1.431 5.173,1.052 7.472,1.280 C 9.770,1.508 11.969,2.361 14.253,3.218 C 18.820,4.931 23.804,6.676 30.066,3.061 L 30.062,1.788 C 23.622,5.497 19.246,3.770 14.691,2.061 C 12.413,1.207 10.115,0.311 7.597,0.061 z "
         style="fill:black;stroke:none;" />
    </pattern>
    <clipPath
       clipPathUnits="userSpaceOnUse"
       id="clipPath4429">
      <g
         transform="matrix(0.9947658,0,0,1,1.7860989,0)"
         id="g4431">
        <path
           sodipodi:nodetypes="ccccccccc"
           style="fill:#eea623;fill-opacity:1;fill-rule:evenodd;stroke:none;stroke-width:30;stroke-linecap:round;stroke-linejoin:round;marker:none;marker-start:none;marker-mid:none;marker-end:none;stroke-miterlimit:4;stroke-dasharray:none;stroke-dashoffset:0;stroke-opacity:1;visibility:visible;display:inline;overflow:visible"
           d="M 322.54143,2800.9375 L 318.10638,2806.6673 L 313.67143,2800.9375 L 313.67143,2757.7946 L 294.73171,2757.7946 L 318.10638,2732.2579 L 341.23763,2757.7946 L 322.54143,2757.7946 L 322.54143,2800.9375 z"
           id="path4433" />
      </g>
    </clipPath>
    <linearGradient
       inkscape:collect="always"
       xlink:href="#linearGradient14813"
       id="linearGradient14819"
       x1="302.75867"
       y1="370.20131"
       x2="837.146"
       y2="370.20131"
       gradientUnits="userSpaceOnUse"
       gradientTransform="matrix(0.1501707,0,0,1.0025641,104.46392,-1.8611578)" />
    <filter
       inkscape:collect="always"
       id="filter14874"
       x="-0.59318163"
       width="2.1863633"
       y="-0.066751921"
       height="1.1335038">
      <feGaussianBlur
         inkscape:collect="always"
         stdDeviation="19.834343"
         id="feGaussianBlur14876" />
    </filter>
  </defs>
  <sodipodi:namedview
     id="base"
     pagecolor="#ffffff"
     bordercolor="#c8c8c8"
     borderopacity="1"
     gridtolerance="10000"
     guidetolerance="10"
     objecttolerance="10"
     inkscape:pageopacity="1"
     inkscape:pageshadow="2"
     inkscape:zoom="0.6719617"
     inkscape:cx="526.17999"
     inkscape:cy="372.04501"
     inkscape:document-units="mm"
     inkscape:current-layer="layer1"
     showgrid="false"
     showborder="true"
     inkscape:showpageshadow="false"
     inkscape:window-width="1024"
     inkscape:window-height="693"
     inkscape:window-x="0"
     inkscape:window-y="25"
     units="mm">
    <inkscape:grid
       type="xygrid"
       id="grid7960"
       visible="true"
       enabled="true"
       color="#0197ff"
       opacity="0.1254902"
       empcolor="#0096ff"
       empopacity="0.25098039"
       units="mm"
       spacingx="1mm"
       spacingy="1mm" />
  </sodipodi:namedview>
  <metadata
     id="metadata7902">
    <rdf:RDF>
      <cc:Work
         rdf:about="">
        <dc:format>image/svg+xml</dc:format>
        <dc:type
           rdf:resource="http://purl.org/dc/dcmitype/StillImage" />
        <cc:license
           rdf:resource="http://creativecommons.org/licenses/by-sa/3.0/" />
        <dc:title>The CentOS Trademark</dc:title>
        <dc:date>2010-07-03</dc:date>
        <dc:creator>
          <cc:Agent>
            <dc:title>The CentOS Project</dc:title>
          </cc:Agent>
        </dc:creator>
        <dc:rights>
          <cc:Agent>
            <dc:title>The CentOS Project</dc:title>
          </cc:Agent>
        </dc:rights>
        <dc:publisher>
          <cc:Agent>
            <dc:title>The CentOS Project</dc:title>
          </cc:Agent>
        </dc:publisher>
        <dc:language>en</dc:language>
        <dc:subject>
          <rdf:Bag>
            <rdf:li>Brands</rdf:li>
            <rdf:li>Trademarks</rdf:li>
          </rdf:Bag>
        </dc:subject>
        <dc:coverage>The CentOS Project</dc:coverage>
        <dc:description>This documents describes The CentOS Project's trademark.</dc:description>
        <dc:contributor>
          <cc:Agent>
            <dc:title>Alain Reguera Delgado</dc:title>
          </cc:Agent>
        </dc:contributor>
      </cc:Work>
      <cc:License
         rdf:about="http://creativecommons.org/licenses/by-sa/3.0/">
        <cc:permits
           rdf:resource="http://creativecommons.org/ns#Reproduction" />
        <cc:permits
           rdf:resource="http://creativecommons.org/ns#Distribution" />
        <cc:requires
           rdf:resource="http://creativecommons.org/ns#Notice" />
        <cc:requires
           rdf:resource="http://creativecommons.org/ns#Attribution" />
        <cc:permits
           rdf:resource="http://creativecommons.org/ns#DerivativeWorks" />
        <cc:requires
           rdf:resource="http://creativecommons.org/ns#ShareAlike" />
      </cc:License>
    </rdf:RDF>
  </metadata>
  <g
     inkscape:label="Layer 1"
     inkscape:groupmode="layer"
     id="layer1">
    <rect
       style="opacity:0.05;fill:url(#linearGradient14819);fill-opacity:1;stroke:none;stroke-width:3;stroke-linecap:round;stroke-miterlimit:4;stroke-dasharray:none;stroke-dashoffset:0;stroke-opacity:1;filter:url(#filter14874)"
       id="rect14811"
       width="80.249321"
       height="713.12439"
       x="149.92943"
       y="12.727195" />
    <text
       xml:space="preserve"
       style="font-size:42.34531021px;font-style:normal;font-variant:normal;font-weight:normal;font-stretch:normal;text-align:center;line-height:125%;writing-mode:lr-tb;text-anchor:middle;fill:#000000;fill-opacity:1;stroke:none;stroke-width:1px;stroke-linecap:butt;stroke-linejoin:miter;stroke-opacity:1;font-family:DejaVu LGC Sans Mono;-inkscape-font-specification:DejaVu LGC Sans Mono"
       x="558.02252"
       y="-538.49609"
       id="text3223"
       sodipodi:linespacing="125%"
       transform="scale(1.016364,0.9838995)"><tspan
         sodipodi:role="line"
         id="tspan3225"
         x="558.02252"
         y="-538.49609"
         style="font-size:35.28776169px;font-style:normal;font-variant:normal;font-weight:normal;font-stretch:normal;font-family:DejaVu LGC Sans Mono;-inkscape-font-specification:DejaVu LGC Sans Mono" /></text>
    <g
       transform="matrix(0.3645559,0,0,0.3645559,22.618253,859.48261)"
       id="SYMBOL"
       inkscape:label="#g2638"
       style="display:inline">
      <g
         style="display:inline"
         transform="matrix(0,-1.4853794,1.4853794,0,-2754.3723,24.127639)"
         id="g2640">
        <g
           id="g2642"
           transform="translate(16.279512,-899.16723)">
          <g
             transform="matrix(1.0666663,0,0,1,-26.935596,-4.1328125e-5)"
             id="g2644">
            <path
               sodipodi:nodetypes="ccccccccc"
               style="fill:#922178;fill-opacity:1;fill-rule:evenodd;stroke:none;stroke-width:30;stroke-linecap:round;stroke-linejoin:round;marker:none;marker-start:none;marker-mid:none;marker-end:none;stroke-miterlimit:4;stroke-dasharray:none;stroke-dashoffset:0;stroke-opacity:1;visibility:visible;display:inline;overflow:visible"
               d="M 323.36653,2798.1614 L 317.96037,2803.9619 L 312.55421,2798.1614 L 312.55421,2757.3353 L 294.54088,2757.3353 L 317.96037,2732.4374 L 340.98524,2757.3353 L 323.36654,2757.3353 L 323.36653,2798.1614 z"
               id="path2646" />
          </g>
          <g
             clip-path="url(#clipPath4429)"
             id="g2650"
             transform="matrix(1.0722788,0,0,1,-28.850792,-4.1328125e-5)" />
        </g>
      </g>
      <g
         style="display:inline"
         id="g2652"
         transform="matrix(1.4853794,0,0,1.4853794,-402.70015,-3303.1796)">
        <g
           transform="translate(16.279512,-899.16723)"
           id="g2654">
          <g
             id="g2656"
             transform="matrix(1.0666663,0,0,1,-26.935596,-4.1328125e-5)">
            <path
               id="path2658"
               d="M 323.36653,2798.1614 L 317.96037,2803.9619 L 312.55421,2798.1614 L 312.55421,2757.3353 L 294.54088,2757.3353 L 317.96037,2732.4374 L 340.98524,2757.3353 L 323.36654,2757.3353 L 323.36653,2798.1614 z"
               style="fill:#eea623;fill-opacity:1;fill-rule:evenodd;stroke:none;stroke-width:30;stroke-linecap:round;stroke-linejoin:round;marker:none;marker-start:none;marker-mid:none;marker-end:none;stroke-miterlimit:4;stroke-dasharray:none;stroke-dashoffset:0;stroke-opacity:1;visibility:visible;display:inline;overflow:visible"
               sodipodi:nodetypes="ccccccccc" />
          </g>
          <g
             transform="matrix(1.0722788,0,0,1,-28.850792,-4.1328125e-5)"
             id="g2662"
             clip-path="url(#clipPath4429)" />
        </g>
      </g>
      <g
         style="display:inline"
         transform="matrix(0,1.4853794,-1.4853794,0,4260.2115,-927.32613)"
         id="g2664">
        <g
           id="g2666"
           transform="matrix(1.0666663,0,0,1,-26.935596,-4.1328125e-5)">
          <path
             id="path2668"
             d="M 323.36653,2798.1614 L 317.96037,2803.9619 L 312.55421,2798.1614 L 312.55421,2757.3353 L 294.54088,2757.3353 L 317.96037,2732.4374 L 340.98524,2757.3353 L 323.36654,2757.3353 L 323.36653,2798.1614 z"
             style="fill:#252476;fill-opacity:1;fill-rule:evenodd;stroke:none;stroke-width:30;stroke-linecap:round;stroke-linejoin:round;marker:none;marker-start:none;marker-mid:none;marker-end:none;stroke-miterlimit:4;stroke-dasharray:none;stroke-dashoffset:0;stroke-opacity:1;visibility:visible;display:inline;overflow:visible"
             sodipodi:nodetypes="ccccccccc" />
        </g>
        <g
           transform="matrix(1.0722788,0,0,1,-28.850792,-4.1328125e-5)"
           id="g2672"
           clip-path="url(#clipPath4429)" />
      </g>
      <g
         style="display:inline"
         id="g2674"
         transform="matrix(-1.4853794,0,0,-1.4853794,572.93464,2375.8)">
        <g
           transform="translate(16.279512,-899.16723)"
           id="g2676">
          <g
             id="g2678"
             transform="matrix(1.0666663,0,0,1,-26.935596,-4.1328125e-5)">
            <path
               id="path2680"
               d="M 323.36653,2798.1614 L 317.96037,2803.9619 L 312.55421,2798.1614 L 312.55421,2757.3353 L 294.54088,2757.3353 L 317.96037,2732.4374 L 340.98524,2757.3353 L 323.36654,2757.3353 L 323.36653,2798.1614 z"
               style="fill:#73d216;fill-opacity:1;fill-rule:evenodd;stroke:none;stroke-width:30;stroke-linecap:round;stroke-linejoin:round;marker:none;marker-start:none;marker-mid:none;marker-end:none;stroke-miterlimit:4;stroke-dasharray:none;stroke-dashoffset:0;stroke-opacity:1;visibility:visible;display:inline;overflow:visible"
               sodipodi:nodetypes="ccccccccc" />
          </g>
          <g
             transform="matrix(1.0722788,0,0,1,-28.850792,-4.1328125e-5)"
             id="g2684"
             clip-path="url(#clipPath4429)" />
        </g>
      </g>
      <g
         style="display:inline"
         id="g2686"
         transform="matrix(1.4853794,0,0,1.4853794,-994.6136,-3940.533)">
        <rect
           y="2285.7893"
           x="671.98438"
           height="49.606449"
           width="49.606449"
           id="rect2688"
           style="fill:#73d216;fill-opacity:1;stroke:#ffffff;stroke-width:3.54330707;stroke-linecap:butt;stroke-linejoin:miter;stroke-miterlimit:4;stroke-dasharray:none;stroke-dashoffset:0;stroke-opacity:1" />
        <rect
           style="fill:#922178;fill-opacity:1;stroke:#ffffff;stroke-width:3.54330707;stroke-linecap:butt;stroke-linejoin:miter;stroke-miterlimit:4;stroke-dasharray:none;stroke-dashoffset:0;stroke-opacity:1"
           id="rect2690"
           width="49.606449"
           height="49.606449"
           x="732.22076"
           y="2285.7893" />
        <rect
           y="2346.0256"
           x="732.22076"
           height="49.606449"
           width="49.606449"
           id="rect2692"
           style="fill:#eea623;fill-opacity:1;stroke:#ffffff;stroke-width:3.54330707;stroke-linecap:butt;stroke-linejoin:miter;stroke-miterlimit:4;stroke-dasharray:none;stroke-dashoffset:0;stroke-opacity:1" />
        <rect
           style="fill:#252476;fill-opacity:1;stroke:#ffffff;stroke-width:3.54330707;stroke-linecap:butt;stroke-linejoin:miter;stroke-miterlimit:4;stroke-dasharray:none;stroke-dashoffset:0;stroke-opacity:1"
           id="rect2694"
           width="49.606449"
           height="49.606449"
           x="671.98438"
           y="2346.0256" />
      </g>
      <rect
         transform="matrix(0.7071068,-0.7071068,0.7071068,0.7071068,0,0)"
         style="fill:none;fill-opacity:1;stroke:#ffffff;stroke-width:5.26315546;stroke-linecap:butt;stroke-linejoin:miter;stroke-miterlimit:4;stroke-dasharray:none;stroke-dashoffset:0;stroke-opacity:1;display:inline"
         id="rect2704"
         width="73.684402"
         height="73.684402"
         x="306.48581"
         y="-349.27026" />
      <rect
         transform="matrix(0.7071068,-0.7071068,0.7071068,0.7071068,0,0)"
         y="-349.27026"
         x="395.95984"
         height="73.684402"
         width="73.684402"
         id="rect2706"
         style="fill:none;fill-opacity:1;stroke:#ffffff;stroke-width:5.26315546;stroke-linecap:butt;stroke-linejoin:miter;stroke-miterlimit:4;stroke-dasharray:none;stroke-dashoffset:0;stroke-opacity:1;display:inline" />
      <rect
         transform="matrix(0.7071068,-0.7071068,0.7071068,0.7071068,0,0)"
         style="fill:none;fill-opacity:1;stroke:#ffffff;stroke-width:5.26315546;stroke-linecap:butt;stroke-linejoin:miter;stroke-miterlimit:4;stroke-dasharray:none;stroke-dashoffset:0;stroke-opacity:1;display:inline"
         id="rect2708"
         width="73.684402"
         height="73.684402"
         x="395.95984"
         y="-259.79648" />
      <rect
         transform="matrix(0.7071068,-0.7071068,0.7071068,0.7071068,0,0)"
         y="-259.79648"
         x="306.48581"
         height="73.684402"
         width="73.684402"
         id="rect2710"
         style="fill:none;fill-opacity:1;stroke:#ffffff;stroke-width:5.26315546;stroke-linecap:butt;stroke-linejoin:miter;stroke-miterlimit:4;stroke-dasharray:none;stroke-dashoffset:0;stroke-opacity:1;display:inline" />
    </g>
    <path
       style="fill:none;fill-rule:evenodd;stroke:#747474;stroke-width:5;stroke-linecap:round;stroke-linejoin:miter;stroke-miterlimit:4;stroke-dasharray:none;stroke-opacity:1"
       d="M 190.05407,14.551042 L 190.05407,724.0277"
       id="path14691" />
    <rect
       style="fill:#fcfcfc;fill-opacity:1;stroke:#e6e6e6;stroke-width:1;stroke-linecap:round;stroke-miterlimit:4;stroke-dasharray:none;stroke-dashoffset:0;stroke-opacity:1"
       id="rect15099"
       width="779.71954"
       height="277.19629"
       x="222.51117"
       y="448.51834" />
    <rect
       style="opacity:0.1;fill:url(#pattern15379);fill-opacity:1;stroke:#000000;stroke-width:1.14675295;stroke-linecap:round;stroke-miterlimit:4;stroke-dasharray:none;stroke-dashoffset:0;stroke-opacity:1"
       id="rect12498"
       width="568.86182"
       height="142.21545"
       x="267.47189"
       y="468.59927" />
    <rect
       y="477.33423"
       x="287.78842"
       height="113.164"
       width="528.22876"
       id="rect12500"
       style="fill:#ffffff;fill-opacity:1;stroke:#000000;stroke-width:1.14675295;stroke-linecap:round;stroke-miterlimit:4;stroke-dasharray:none;stroke-dashoffset:0;stroke-opacity:0.08846154" />
    <path
       style="font-size:86.80023193px;font-style:normal;font-variant:normal;font-weight:200;font-stretch:normal;text-align:start;line-height:125%;writing-mode:lr-tb;text-anchor:start;fill:#a0399f;fill-opacity:1;stroke:none;stroke-width:1px;stroke-linecap:butt;stroke-linejoin:miter;stroke-opacity:1;display:inline;font-family:Denmark;-inkscape-font-specification:Denmark Ultra-Light"
       clip-path="none"
       d="M 369.55959,588.81469 L 327.03396,588.81469 C 322.72173,588.81469 318.4554,588.20667 314.23498,586.99069 C 306.0693,584.46518 299.60101,578.66581 294.83008,569.59261 C 290.51786,561.36124 288.36177,551.7736 288.36177,540.82961 C 288.36177,530.25984 290.28849,520.90604 294.14195,512.76816 C 298.3624,503.78857 304.37193,497.66183 312.17062,494.38789 C 318.22603,491.86248 324.41907,490.59972 330.74978,490.5996 L 369.28435,490.5996 L 369.28435,509.40078 L 329.23592,509.40078 C 322.72173,509.40087 317.99666,513.00207 315.06071,520.20444 C 312.76697,525.81678 311.62009,533.15951 311.62013,542.23268 C 311.62009,549.90282 313.08809,556.40375 316.02407,561.73537 C 319.41876,568.00248 324.1897,571.136 330.33691,571.13599 L 369.55959,570.99566 L 369.55959,588.81469 M 440.38407,589.23563 L 406.80395,589.23563 C 398.63826,589.23563 391.52773,585.68117 385.4723,578.57226 C 379.50863,571.36983 376.52678,563.09172 376.52678,553.73789 C 376.52678,543.54225 379.78387,534.74968 386.29804,527.36011 C 392.90394,519.87712 400.24385,516.1356 408.31779,516.13553 L 440.24643,516.13553 L 440.24643,531.1484 L 416.85045,531.1484 C 413.91444,531.14845 411.39135,531.42908 409.28117,531.99023 C 407.26267,532.45801 405.3818,533.44014 403.63859,534.93672 C 400.42736,537.7429 398.82177,541.53119 398.82178,546.3016 L 440.10883,546.3016 L 440.10883,561.45476 L 398.95941,561.45476 C 398.95938,563.69971 399.18875,565.61726 399.64753,567.20736 C 400.19798,568.70402 401.25312,570.24738 402.81286,571.83752 C 404.37258,573.33415 406.20755,574.36306 408.31779,574.92424 C 410.51975,575.39198 413.18046,575.62583 416.29998,575.62583 L 440.38407,575.62583 L 440.38407,589.23563 M 518.86381,588.81469 L 499.73418,588.81469 L 499.73418,540.96991 C 499.73413,539.75396 499.45891,538.67827 498.90844,537.74284 C 498.3579,536.71396 497.57804,535.73184 496.56885,534.7964 C 494.73383,533.20632 492.6236,532.41122 490.23817,532.41115 L 471.5214,532.41115 L 471.5214,588.81469 L 452.39172,588.81469 L 452.39172,516.13553 L 488.99955,516.13553 C 495.51371,516.1356 500.23877,516.50976 503.17478,517.25799 C 507.76215,518.3805 511.4321,520.85929 514.18465,524.69428 C 517.30405,529.18416 518.86375,534.09493 518.86381,539.42652 L 518.86381,588.81469 M 573.53691,531.28869 L 554.95775,531.28869 L 554.95775,564.26092 C 554.9577,567.25417 555.96697,569.73291 557.98548,571.69719 C 560.27916,573.66153 563.30687,574.64367 567.0686,574.64366 L 572.71117,574.64366 L 572.71117,588.81469 L 554.95775,588.81469 C 549.63627,588.81469 545.09473,586.8504 541.33304,582.92178 C 539.13104,580.58334 537.70893,578.01103 537.06668,575.20488 C 536.42445,572.39877 536.10331,569.07815 536.10334,565.24307 L 536.10334,531.28869 L 523.99247,531.28869 L 523.99247,516.13553 L 536.10334,516.13553 L 536.10334,490.5996 L 554.95775,490.5996 L 554.95775,516.13553 L 573.53691,516.13553 L 573.53691,531.28869 M 686.11289,539.56685 C 686.11274,558.64865 680.92893,572.30522 670.56144,580.53657 C 662.12044,587.17778 649.82611,590.49839 633.67834,590.49839 C 615.78725,590.49839 602.57542,586.66331 594.04279,578.99319 C 584.68441,570.57478 580.0052,557.0585 580.0052,538.44437 C 580.0052,523.19773 584.17976,511.31837 592.52893,502.80634 C 601.61207,493.54615 615.19089,488.91603 633.26548,488.91591 C 653.17489,488.91603 667.21252,493.35906 675.37825,502.24512 C 682.53456,510.1024 686.11274,522.54296 686.11289,539.56685 M 661.6159,539.00562 C 661.61583,529.37123 659.36799,521.70112 654.8724,515.99524 C 649.82611,509.63472 642.34855,506.45441 632.43973,506.45433 C 622.7143,506.45441 615.37438,509.86855 610.41998,516.69677 C 606.29125,522.40266 604.22691,529.83891 604.22693,539.00562 C 604.22691,549.57547 605.8784,557.38586 609.18139,562.43691 C 613.76877,569.45231 622.25557,572.95998 634.64172,572.95996 C 645.10104,572.95998 652.44095,569.54584 656.66142,562.71751 C 659.96434,557.38586 661.61583,549.48192 661.6159,539.00562 M 796.27405,558.36802 C 796.27391,566.97356 793.4756,574.22272 787.87898,580.11563 C 782.28222,586.00853 775.17164,588.95501 766.54738,588.95501 L 698.42376,588.81469 L 698.42376,571.13599 L 754.57411,571.13599 C 758.3357,571.136 761.50108,570.24738 764.07014,568.47013 C 767.00605,566.41233 768.474,563.60616 768.47407,560.05171 C 768.474,551.72684 762.69385,547.5644 751.13352,547.56435 L 722.78308,547.56435 C 714.61741,547.5644 707.46097,544.99208 701.3138,539.84745 C 695.16664,534.7029 692.09306,528.15524 692.09306,520.20444 C 692.09306,511.41193 695.07491,504.30307 701.0386,498.87774 C 707.09396,493.35906 715.03029,490.59972 724.84744,490.5996 L 789.94335,490.5996 L 789.94335,507.43649 L 732.55437,507.43649 C 729.98532,507.43657 727.37048,508.55902 724.70984,510.80385 C 722.1408,512.95531 720.85638,515.5276 720.85638,518.52075 C 720.85638,521.88819 722.09493,524.7411 724.57217,527.0795 C 727.14114,529.32449 730.21473,530.44694 733.79298,530.44687 L 765.03349,530.44687 C 774.75884,530.44694 782.37396,533.01923 787.87898,538.16377 C 793.4756,543.21488 796.27391,549.94961 796.27405,558.36802"
       id="text8856" />
    <text
       id="text8860"
       y="435.64508"
       x="923.58124"
       style="font-size:37.02447891px;font-style:normal;font-variant:normal;font-weight:normal;font-stretch:normal;text-align:start;line-height:100%;writing-mode:lr-tb;text-anchor:start;fill:#a0399f;fill-opacity:1;stroke:none;stroke-width:1px;stroke-linecap:butt;stroke-linejoin:miter;stroke-opacity:1;font-family:DejaVu LGC Sans;-inkscape-font-specification:DejaVu LGC Sans"
       xml:space="preserve"
       transform="scale(0.8572094,1.1665761)"
       sodipodi:linespacing="100%"><tspan
         y="435.64508"
         x="923.58124"
         id="tspan8862"
         sodipodi:role="line">™</tspan></text>
    <path
       style="fill:none;fill-rule:evenodd;stroke:#000000;stroke-width:1.14675295px;stroke-linecap:butt;stroke-linejoin:miter;stroke-opacity:1"
       d="M 288.36177,633.24309 L 288.36177,673.87606"
       id="path8999"
       sodipodi:nodetypes="cc" />
    <path
       id="path9001"
       d="M 795.70064,633.23207 L 796.27405,673.86506"
       style="fill:none;fill-rule:evenodd;stroke:#000000;stroke-width:1.14675295px;stroke-linecap:butt;stroke-linejoin:miter;stroke-opacity:1"
       sodipodi:nodetypes="cc" />
    <g
       id="g10326"
       transform="matrix(1.1467529,0,0,1.1467529,247.72879,369.12283)">
      <path
         style="fill:#000000;fill-opacity:1;fill-rule:evenodd;stroke:none;stroke-width:1px;stroke-linecap:butt;stroke-linejoin:miter;stroke-opacity:1"
         d="M 35.4375,247.53125 L 35.4375,248.53125 L 478.34375,248.53125 L 478.34375,247.53125 L 35.4375,247.53125 z"
         id="path9003" />
      <path
         d="M 41.488598,250.44727 L 34.933071,248.03664 L 41.488598,245.62601 C 40.441299,247.04924 40.447334,248.99648 41.488598,250.44727 z"
         style="font-size:12px;fill-rule:evenodd;stroke-width:0.625;stroke-linejoin:round"
         id="path10332" />
      <path
         style="fill-rule:evenodd;stroke:#000000;stroke-width:0.4pt;marker-start:none"
         d="M 473.59646,248.02703 L 471.59646,250.02703 L 478.59646,248.02703 L 471.59646,246.02703 L 473.59646,248.02703 z"
         id="path10334" />
    </g>
    <path
       style="fill:none;fill-rule:evenodd;stroke:#000000;stroke-width:1.14675295px;stroke-linecap:butt;stroke-linejoin:miter;stroke-opacity:1"
       d="M 857.79687,590.49834 L 898.42986,590.49834"
       id="path10308" />
    <path
       id="path10310"
       d="M 857.79687,490.00911 L 898.42986,490.00911"
       style="fill:none;fill-rule:evenodd;stroke:#000000;stroke-width:1.14675295px;stroke-linecap:butt;stroke-linejoin:miter;stroke-opacity:1" />
    <path
       style="fill:none;fill-rule:evenodd;stroke:#000000;stroke-width:1.14675295px;stroke-linecap:butt;stroke-linejoin:miter;stroke-opacity:1"
       d="M 857.79687,477.29941 L 898.42986,477.29941"
       id="path10312" />
    <g
       id="g10316"
       transform="matrix(1.1467529,0,0,1.1467529,247.72879,346.7056)">
      <path
         style="fill:#000000;fill-opacity:1;fill-rule:evenodd;stroke:none;stroke-width:1px;stroke-linecap:butt;stroke-linejoin:miter;stroke-opacity:1"
         d="M 548.71875,124 L 548.71875,212.59375 L 549.71875,212.59375 L 549.71875,124 L 548.71875,124 z"
         id="path10314" />
      <path
         d="M 551.63284,205.53844 L 549.22221,212.09396 L 546.81158,205.53844 C 548.23481,206.58574 550.18205,206.5797 551.63284,205.53844 z"
         style="font-size:12px;fill-rule:evenodd;stroke-width:0.625;stroke-linejoin:round"
         id="path10322" />
      <path
         style="fill-rule:evenodd;stroke:#000000;stroke-width:0.4pt;marker-start:none"
         d="M 549.2126,129.7146 L 551.2126,131.7146 L 549.2126,124.7146 L 547.2126,131.7146 L 549.2126,129.7146 z"
         id="path10324" />
    </g>
    <text
       xml:space="preserve"
       style="font-size:13.76103687px;font-style:normal;font-variant:normal;font-weight:normal;font-stretch:normal;text-align:start;line-height:125%;writing-mode:lr-tb;text-anchor:start;fill:#000000;fill-opacity:1;stroke:none;stroke-width:1px;stroke-linecap:butt;stroke-linejoin:miter;stroke-opacity:1;font-family:DejaVu LGC Sans Mono;-inkscape-font-specification:DejaVu LGC Sans Mono"
       x="513.44525"
       y="691.8858"
       id="text10336"
       sodipodi:linespacing="125%"><tspan
         sodipodi:role="line"
         id="tspan10338"
         x="513.44525"
         y="691.8858">125 mm</tspan></text>
    <text
       xml:space="preserve"
       style="font-size:13.76103687px;font-style:normal;font-variant:normal;font-weight:normal;font-stretch:normal;text-align:start;line-height:125%;writing-mode:lr-tb;text-anchor:start;fill:#000000;fill-opacity:1;stroke:none;stroke-width:1px;stroke-linecap:butt;stroke-linejoin:miter;stroke-opacity:1;font-family:DejaVu LGC Sans Mono;-inkscape-font-specification:DejaVu LGC Sans Mono"
       x="917.10449"
       y="544.70972"
       id="text10340"
       sodipodi:linespacing="125%"><tspan
         sodipodi:role="line"
         id="tspan10342"
         x="917.10449"
         y="544.70972">25 mm</tspan></text>
    <path
       style="fill:none;fill-rule:evenodd;stroke:#000000;stroke-width:1.14675295px;stroke-linecap:butt;stroke-linejoin:miter;marker-start:url(#Arrow2Mstart);marker-end:url(#Arrow1Mend);stroke-opacity:1"
       d="M 877.54003,477.77344 L 877.54003,488.9159"
       id="path10344"
       sodipodi:nodetypes="cc" />
    <text
       sodipodi:linespacing="125%"
       id="text10346"
       y="490.38763"
       x="917.20526"
       style="font-size:13.76103687px;font-style:normal;font-variant:normal;font-weight:normal;font-stretch:normal;text-align:start;line-height:125%;writing-mode:lr-tb;text-anchor:start;fill:#000000;fill-opacity:1;stroke:none;stroke-width:1px;stroke-linecap:butt;stroke-linejoin:miter;stroke-opacity:1;font-family:DejaVu LGC Sans Mono;-inkscape-font-specification:DejaVu LGC Sans Mono"
       xml:space="preserve"><tspan
         y="490.38763"
         x="917.20526"
         id="tspan10348"
         sodipodi:role="line">3 mm</tspan></text>
    <path
       sodipodi:nodetypes="cc"
       style="fill:none;fill-rule:evenodd;stroke:#000000;stroke-width:1.14675295px;stroke-linecap:butt;stroke-linejoin:miter;stroke-opacity:1"
       d="M 814.92025,633.23207 L 815.49359,673.86506"
       id="path10350" />
    <path
       style="fill:none;fill-rule:evenodd;stroke:#000000;stroke-width:1.14675295px;stroke-linecap:butt;stroke-linejoin:miter;marker-start:url(#Arrow2Mstart);marker-end:url(#Arrow1Mend);stroke-opacity:1"
       d="M 797.77503,653.54855 L 813.50455,653.54855"
       id="path10352"
       sodipodi:nodetypes="cc" />
    <text
       xml:space="preserve"
       style="font-size:13.76103687px;font-style:normal;font-variant:normal;font-weight:normal;font-stretch:normal;text-align:start;line-height:125%;writing-mode:lr-tb;text-anchor:start;fill:#000000;fill-opacity:1;stroke:none;stroke-width:1px;stroke-linecap:butt;stroke-linejoin:miter;stroke-opacity:1;font-family:DejaVu LGC Sans Mono;-inkscape-font-specification:DejaVu LGC Sans Mono"
       x="801.52527"
       y="691.8858"
       id="text10354"
       sodipodi:linespacing="125%"><tspan
         sodipodi:role="line"
         id="tspan10356"
         x="801.52527"
         y="691.8858">5</tspan></text>
    <path
       id="path13942"
       d="M 267.4719,633.23207 L 268.04527,673.86506"
       style="fill:none;fill-rule:evenodd;stroke:#000000;stroke-width:1.14675295px;stroke-linecap:butt;stroke-linejoin:miter;stroke-opacity:1"
       sodipodi:nodetypes="cc" />
    <path
       sodipodi:nodetypes="cc"
       id="path13944"
       d="M 270.13738,653.54855 L 285.86684,653.54855"
       style="fill:none;fill-rule:evenodd;stroke:#000000;stroke-width:1.14675295px;stroke-linecap:butt;stroke-linejoin:miter;marker-start:url(#Arrow2Mstart);marker-end:url(#Arrow1Mend);stroke-opacity:1" />
    <text
       sodipodi:linespacing="125%"
       id="text13946"
       y="691.8858"
       x="267.55698"
       style="font-size:13.76103687px;font-style:normal;font-variant:normal;font-weight:normal;font-stretch:normal;text-align:start;line-height:125%;writing-mode:lr-tb;text-anchor:start;fill:#000000;fill-opacity:1;stroke:none;stroke-width:1px;stroke-linecap:butt;stroke-linejoin:miter;stroke-opacity:1;font-family:DejaVu LGC Sans Mono;-inkscape-font-specification:DejaVu LGC Sans Mono"
       xml:space="preserve"><tspan
         y="691.8858"
         x="267.55698"
         id="tspan13948"
         sodipodi:role="line">5 mm</tspan></text>
    <path
       id="path13950"
       d="M 835.76029,633.23207 L 836.33363,673.86506"
       style="fill:none;fill-rule:evenodd;stroke:#000000;stroke-width:1.14675295px;stroke-linecap:butt;stroke-linejoin:miter;stroke-opacity:1"
       sodipodi:nodetypes="cc" />
    <path
       sodipodi:nodetypes="cc"
       id="path13952"
       d="M 817.58573,653.54855 L 833.31517,653.54855"
       style="fill:none;fill-rule:evenodd;stroke:#000000;stroke-width:1.14675295px;stroke-linecap:butt;stroke-linejoin:miter;marker-start:url(#Arrow2Mstart);marker-end:url(#Arrow1Mend);stroke-opacity:1" />
    <path
       id="path13958"
       d="M 857.79687,468.59931 L 898.42986,468.59931"
       style="fill:none;fill-rule:evenodd;stroke:#000000;stroke-width:1.14675295px;stroke-linecap:butt;stroke-linejoin:miter;stroke-opacity:1" />
    <path
       sodipodi:nodetypes="cc"
       id="path13960"
       d="M 877.54003,471.03064 L 877.54003,475.29258"
       style="fill:none;fill-rule:evenodd;stroke:#000000;stroke-width:1.14675295px;stroke-linecap:butt;stroke-linejoin:miter;marker-start:url(#Arrow2Mstart);marker-end:url(#Arrow1Mend);stroke-opacity:1" />
    <text
       xml:space="preserve"
       style="font-size:13.76103687px;font-style:normal;font-variant:normal;font-weight:normal;font-stretch:normal;text-align:start;line-height:125%;writing-mode:lr-tb;text-anchor:start;fill:#000000;fill-opacity:1;stroke:none;stroke-width:1px;stroke-linecap:butt;stroke-linejoin:miter;stroke-opacity:1;font-family:DejaVu LGC Sans Mono;-inkscape-font-specification:DejaVu LGC Sans Mono"
       x="917.10449"
       y="476.72595"
       id="text13962"
       sodipodi:linespacing="125%"><tspan
         sodipodi:role="line"
         id="tspan13964"
         x="917.10449"
         y="476.72595">2 mm</tspan></text>
    <path
       style="fill:none;fill-rule:evenodd;stroke:#000000;stroke-width:1.14675295px;stroke-linecap:butt;stroke-linejoin:miter;stroke-opacity:1"
       d="M 857.79687,610.81471 L 898.42986,610.81471"
       id="path13966" />
    <path
       sodipodi:nodetypes="cc"
       id="path13968"
       d="M 877.54003,592.59046 L 877.54003,610.61342"
       style="fill:none;fill-rule:evenodd;stroke:#000000;stroke-width:1.14675295px;stroke-linecap:butt;stroke-linejoin:miter;marker-start:url(#Arrow2Mstart);marker-end:url(#Arrow1Mend);stroke-opacity:1" />
    <text
       xml:space="preserve"
       style="font-size:13.76103687px;font-style:normal;font-variant:normal;font-weight:normal;font-stretch:normal;text-align:start;line-height:125%;writing-mode:lr-tb;text-anchor:start;fill:#000000;fill-opacity:1;stroke:none;stroke-width:1px;stroke-linecap:butt;stroke-linejoin:miter;stroke-opacity:1;font-family:DejaVu LGC Sans Mono;-inkscape-font-specification:DejaVu LGC Sans Mono"
       x="917.16504"
       y="611.19318"
       id="text13970"
       sodipodi:linespacing="125%"><tspan
         sodipodi:role="line"
         id="tspan13972"
         x="917.16504"
         y="611.19318">5 mm</tspan></text>
    <text
       sodipodi:linespacing="125%"
       id="text15101"
       y="691.8858"
       x="821.33594"
       style="font-size:13.76103687px;font-style:normal;font-variant:normal;font-weight:normal;font-stretch:normal;text-align:start;line-height:125%;writing-mode:lr-tb;text-anchor:start;fill:#000000;fill-opacity:1;stroke:none;stroke-width:1px;stroke-linecap:butt;stroke-linejoin:miter;stroke-opacity:1;font-family:DejaVu LGC Sans Mono;-inkscape-font-specification:DejaVu LGC Sans Mono"
       xml:space="preserve"><tspan
         y="691.8858"
         x="821.33594"
         id="tspan15103"
         sodipodi:role="line">5 mm</tspan></text>
    <text
       xml:space="preserve"
       style="font-size:12.23499012px;font-style:normal;font-variant:normal;font-weight:bold;font-stretch:normal;text-align:start;line-height:125%;writing-mode:lr-tb;text-anchor:start;fill:#646464;fill-opacity:1;stroke:none;stroke-width:1px;stroke-linecap:butt;stroke-linejoin:miter;stroke-opacity:1;font-family:DejaVu LGC Sans Mono;-inkscape-font-specification:DejaVu LGC Sans Mono Bold"
       x="-722.08801"
       y="221.67908"
       id="text14880"
       sodipodi:linespacing="125%"
       transform="matrix(0,-1,1,0,0,0)"><tspan
         sodipodi:role="line"
         id="tspan14882"
         x="-722.08801"
         y="221.67908">CONSTRUCTION</tspan></text>
    <g
       id="g15201"
       transform="translate(0,-20.059202)">
      <rect
         y="36.610256"
         x="222.37094"
         height="189.9321"
         width="780"
         id="rect14884"
         style="fill:#fcfcfc;fill-opacity:1;stroke:#e6e6e6;stroke-width:1;stroke-linecap:round;stroke-miterlimit:4;stroke-dasharray:none;stroke-dashoffset:0;stroke-opacity:1" />
      <g
         transform="translate(-79.568001,27.98187)"
         id="g14886">
        <g
           id="g14528"
           transform="matrix(0.9271469,0,0,0.9271469,93.963508,62.689819)">
          <g
             style="fill:#396ea0;fill-opacity:1"
             transform="matrix(0.5906164,0,0,0.5906164,443.62037,-79.163983)"
             id="g13980">
            <path
               id="path13974"
               d="M 514.22011,256.8739 L 477.13659,256.8739 C 473.3762,256.8739 469.65585,256.34371 465.97553,255.28333 C 458.85483,253.081 453.2143,248.0238 449.05392,240.11171 C 445.29355,232.93376 443.41338,224.57307 443.41338,215.02961 C 443.41338,205.81248 445.09354,197.65571 448.45386,190.55925 C 452.1342,182.7288 457.37469,177.38611 464.17535,174.53116 C 469.45583,172.32893 474.85634,171.22776 480.3769,171.22767 L 513.98009,171.22767 L 513.98009,187.62281 L 479.05677,187.62281 C 473.3762,187.62288 469.25581,190.76323 466.69559,197.04389 C 464.69538,201.93802 463.69528,208.34108 463.69531,216.25312 C 463.69528,222.94169 464.97541,228.61068 467.53567,233.26001 C 470.49593,238.72507 474.65632,241.45761 480.01686,241.45759 L 514.22011,241.33522 L 514.22011,256.8739 M 575.98099,257.24097 L 546.6982,257.24097 C 539.5775,257.24097 533.37692,254.14138 528.09644,247.94222 C 522.89594,241.66151 520.29569,234.44278 520.29569,226.28597 C 520.29569,217.3951 523.13596,209.72774 528.81649,203.28383 C 534.57703,196.75846 540.97763,193.49575 548.01833,193.4957 L 575.86097,193.4957 L 575.86097,206.58733 L 555.45903,206.58733 C 552.89875,206.58738 550.69855,206.83209 548.8584,207.32143 C 547.09822,207.72933 545.45806,208.58578 543.93793,209.89083 C 541.13764,212.3379 539.73752,215.6414 539.73754,219.80133 L 575.74097,219.80133 L 575.74097,233.0153 L 539.85756,233.0153 C 539.85753,234.97296 540.05755,236.64511 540.45761,238.03172 C 540.93762,239.33684 541.85772,240.6827 543.21787,242.06935 C 544.57798,243.37445 546.17813,244.27168 548.01833,244.76106 C 549.93848,245.16893 552.2587,245.37285 554.979,245.37285 L 575.98099,245.37285 L 575.98099,257.24097 M 644.41748,256.8739 L 627.73591,256.8739 L 627.73591,215.15195 C 627.73587,214.09161 627.49586,213.15358 627.01585,212.33786 C 626.53575,211.44065 625.8557,210.58421 624.97566,209.76848 C 623.37546,208.38188 621.53528,207.68853 619.45514,207.68848 L 603.13359,207.68848 L 603.13359,256.8739 L 586.45199,256.8739 L 586.45199,193.4957 L 618.37502,193.4957 C 624.05554,193.49575 628.17592,193.82203 630.7362,194.47451 C 634.73653,195.45337 637.93682,197.61493 640.33712,200.95915 C 643.05732,204.87446 644.41743,209.15677 644.41748,213.80608 L 644.41748,256.8739 M 692.09391,206.70967 L 675.89237,206.70967 L 675.89237,235.46235 C 675.89234,238.07254 676.77244,240.23408 678.53263,241.94698 C 680.53278,243.65993 683.17304,244.51638 686.45337,244.51637 L 691.37383,244.51637 L 691.37383,256.8739 L 675.89237,256.8739 C 671.2519,256.8739 667.29155,255.16099 664.01124,251.73512 C 662.09105,249.69594 660.85092,247.45283 660.29088,245.00577 C 659.73082,242.55877 659.45079,239.6631 659.45081,236.31881 L 659.45081,206.70967 L 648.8898,206.70967 L 648.8898,193.4957 L 659.45081,193.4957 L 659.45081,171.22767 L 675.89237,171.22767 L 675.89237,193.4957 L 692.09391,193.4957 L 692.09391,206.70967 M 790.26325,213.92844 C 790.26314,230.5683 785.74272,242.47719 776.70195,249.65515 C 769.34118,255.44647 758.62016,258.34213 744.53889,258.34213 C 728.93737,258.34213 717.41629,254.99784 709.97561,248.30928 C 701.81483,240.9682 697.73444,229.18164 697.73444,212.94961 C 697.73444,199.65412 701.37477,189.295 708.65548,181.87227 C 716.57622,173.79714 728.41732,169.75953 744.17885,169.75944 C 761.54043,169.75953 773.78159,173.63399 780.90236,181.38287 C 787.14284,188.23463 790.26314,199.08315 790.26325,213.92844 M 768.90121,213.43903 C 768.90113,205.03758 766.94095,198.34902 763.02065,193.37335 C 758.62016,187.8268 752.09955,185.05349 743.45879,185.05341 C 734.97794,185.05349 728.57734,188.03071 724.25697,193.9851 C 720.65659,198.96079 718.85642,205.44542 718.85645,213.43903 C 718.85642,222.65623 720.29656,229.46711 723.17687,233.87176 C 727.1772,239.98938 734.57791,243.04816 745.37897,243.04814 C 754.49977,243.04816 760.90038,240.07094 764.58079,234.11646 C 767.461,229.46711 768.90113,222.57466 768.90121,213.43903 M 886.32677,230.32358 C 886.32668,237.82784 883.88644,244.14931 879.00607,249.28809 C 874.12553,254.42686 867.92494,256.99626 860.40432,256.99626 L 800.99865,256.8739 L 800.99865,241.45759 L 849.96331,241.45759 C 853.24355,241.45761 856.00381,240.6827 858.24409,239.13289 C 860.80428,237.33843 862.08439,234.89138 862.08446,231.7918 C 862.08439,224.53228 857.04391,220.90252 846.96302,220.90249 L 822.24067,220.90249 C 815.11997,220.90252 808.87938,218.6594 803.51889,214.17313 C 798.15837,209.68695 795.47814,203.97721 795.47814,197.04389 C 795.47814,189.37658 798.07837,183.17745 803.27888,178.44643 C 808.55935,173.63399 815.48,171.22776 824.04086,171.22767 L 880.80624,171.22767 L 880.80624,185.90988 L 830.76148,185.90988 C 828.52123,185.90996 826.24102,186.88876 823.92084,188.84632 C 821.68059,190.72245 820.56049,192.96555 820.56052,195.57567 C 820.56049,198.51217 821.64059,200.99998 823.80082,203.03914 C 826.04098,204.99682 828.72126,205.97563 831.8416,205.97557 L 859.08417,205.97557 C 867.5649,205.97563 874.20554,208.21873 879.00607,212.70491 C 883.88644,217.10963 886.32668,222.98249 886.32677,230.32358"
               clip-path="none"
               style="font-size:86.80023192999999537px;font-style:normal;font-variant:normal;font-weight:200;font-stretch:normal;text-align:start;line-height:125%;writing-mode:lr-tb;text-anchor:start;fill:#a0399f;fill-opacity:1;stroke:none;stroke-width:1px;stroke-linecap:butt;stroke-linejoin:miter;stroke-opacity:1;display:inline;font-family:Denmark;-inkscape-font-specification:Denmark Ultra-Light" />
            <text
               sodipodi:linespacing="100%"
               transform="scale(0.8572094,1.1665761)"
               xml:space="preserve"
               style="font-size:32.28636168999999967px;font-style:normal;font-variant:normal;font-weight:normal;font-stretch:normal;text-align:start;line-height:100%;writing-mode:lr-tb;text-anchor:start;fill:#a0399f;fill-opacity:1;stroke:none;stroke-width:1px;stroke-linecap:butt;stroke-linejoin:miter;stroke-opacity:1;font-family:DejaVu LGC Sans;-inkscape-font-specification:DejaVu LGC Sans"
               x="1029.317"
               y="159.94415"
               id="text13976"><tspan
                 sodipodi:role="line"
                 id="tspan13978"
                 x="1029.317"
                 y="159.94415">™</tspan></text>
          </g>
          <g
             id="g14213"
             transform="matrix(0,0.7434462,-0.7434462,0,1294.191,-701.54668)">
            <path
               id="path14215"
               d="M 963.57632,376.24854 L 983.31546,394.0879 L 1003.0083,411.9736 L 1022.7011,394.0879 L 1042.3939,376.24854 L 1029.7905,376.24854 C 1029.8004,375.95058 1029.8368,375.66851 1029.8368,375.36815 C 1029.8368,360.69887 1017.9092,348.7713 1003.2399,348.77128 C 988.57066,348.77128 976.68939,360.6989 976.68941,375.36815 C 976.68941,375.66851 976.72584,375.95058 976.73574,376.24854 L 963.57632,376.24854 z"
               style="opacity:1;fill:#73d216;fill-opacity:1;stroke:none;stroke-width:5;stroke-linecap:round;stroke-miterlimit:4;stroke-dasharray:none;stroke-dashoffset:0;stroke-opacity:1" />
            <text
               transform="matrix(0,-1,1,0,0,0)"
               xml:space="preserve"
               style="font-size:27.97347641px;font-style:normal;font-variant:normal;font-weight:bold;font-stretch:normal;text-align:start;line-height:125%;writing-mode:lr-tb;text-anchor:start;fill:#ffffff;fill-opacity:1;stroke:none;stroke-width:1px;stroke-linecap:butt;stroke-linejoin:miter;stroke-opacity:1;font-family:DejaVu LGC Sans Mono;-inkscape-font-specification:DejaVu LGC Sans Mono Bold"
               x="-391.84973"
               y="1013.1678"
               id="text14219"
               sodipodi:linespacing="125%"><tspan
                 sodipodi:role="line"
                 id="tspan14221"
                 x="-391.84973"
                 y="1013.1678">OK</tspan></text>
          </g>
        </g>
        <g
           id="g14538"
           transform="matrix(0.9271469,0,0,0.9271469,-323.69756,8.5637908)">
          <g
             style="fill:#396ea0;fill-opacity:1"
             id="g14160"
             transform="matrix(0.5906164,0,0,0.5906164,443.62037,18.752924)">
            <path
               style="font-size:86.80023192999999537px;font-style:normal;font-variant:normal;font-weight:200;font-stretch:normal;text-align:start;line-height:125%;writing-mode:lr-tb;text-anchor:start;fill:#a0399f;fill-opacity:1;stroke:none;stroke-width:1px;stroke-linecap:butt;stroke-linejoin:miter;stroke-opacity:1;display:inline;font-family:Denmark;-inkscape-font-specification:Denmark Ultra-Light"
               clip-path="none"
               d="M 514.22011,256.8739 L 477.13659,256.8739 C 473.3762,256.8739 469.65585,256.34371 465.97553,255.28333 C 458.85483,253.081 453.2143,248.0238 449.05392,240.11171 C 445.29355,232.93376 443.41338,224.57307 443.41338,215.02961 C 443.41338,205.81248 445.09354,197.65571 448.45386,190.55925 C 452.1342,182.7288 457.37469,177.38611 464.17535,174.53116 C 469.45583,172.32893 474.85634,171.22776 480.3769,171.22767 L 513.98009,171.22767 L 513.98009,187.62281 L 479.05677,187.62281 C 473.3762,187.62288 469.25581,190.76323 466.69559,197.04389 C 464.69538,201.93802 463.69528,208.34108 463.69531,216.25312 C 463.69528,222.94169 464.97541,228.61068 467.53567,233.26001 C 470.49593,238.72507 474.65632,241.45761 480.01686,241.45759 L 514.22011,241.33522 L 514.22011,256.8739 M 575.98099,257.24097 L 546.6982,257.24097 C 539.5775,257.24097 533.37692,254.14138 528.09644,247.94222 C 522.89594,241.66151 520.29569,234.44278 520.29569,226.28597 C 520.29569,217.3951 523.13596,209.72774 528.81649,203.28383 C 534.57703,196.75846 540.97763,193.49575 548.01833,193.4957 L 575.86097,193.4957 L 575.86097,206.58733 L 555.45903,206.58733 C 552.89875,206.58738 550.69855,206.83209 548.8584,207.32143 C 547.09822,207.72933 545.45806,208.58578 543.93793,209.89083 C 541.13764,212.3379 539.73752,215.6414 539.73754,219.80133 L 575.74097,219.80133 L 575.74097,233.0153 L 539.85756,233.0153 C 539.85753,234.97296 540.05755,236.64511 540.45761,238.03172 C 540.93762,239.33684 541.85772,240.6827 543.21787,242.06935 C 544.57798,243.37445 546.17813,244.27168 548.01833,244.76106 C 549.93848,245.16893 552.2587,245.37285 554.979,245.37285 L 575.98099,245.37285 L 575.98099,257.24097 M 644.41748,256.8739 L 627.73591,256.8739 L 627.73591,215.15195 C 627.73587,214.09161 627.49586,213.15358 627.01585,212.33786 C 626.53575,211.44065 625.8557,210.58421 624.97566,209.76848 C 623.37546,208.38188 621.53528,207.68853 619.45514,207.68848 L 603.13359,207.68848 L 603.13359,256.8739 L 586.45199,256.8739 L 586.45199,193.4957 L 618.37502,193.4957 C 624.05554,193.49575 628.17592,193.82203 630.7362,194.47451 C 634.73653,195.45337 637.93682,197.61493 640.33712,200.95915 C 643.05732,204.87446 644.41743,209.15677 644.41748,213.80608 L 644.41748,256.8739 M 692.09391,206.70967 L 675.89237,206.70967 L 675.89237,235.46235 C 675.89234,238.07254 676.77244,240.23408 678.53263,241.94698 C 680.53278,243.65993 683.17304,244.51638 686.45337,244.51637 L 691.37383,244.51637 L 691.37383,256.8739 L 675.89237,256.8739 C 671.2519,256.8739 667.29155,255.16099 664.01124,251.73512 C 662.09105,249.69594 660.85092,247.45283 660.29088,245.00577 C 659.73082,242.55877 659.45079,239.6631 659.45081,236.31881 L 659.45081,206.70967 L 648.8898,206.70967 L 648.8898,193.4957 L 659.45081,193.4957 L 659.45081,171.22767 L 675.89237,171.22767 L 675.89237,193.4957 L 692.09391,193.4957 L 692.09391,206.70967 M 790.26325,213.92844 C 790.26314,230.5683 785.74272,242.47719 776.70195,249.65515 C 769.34118,255.44647 758.62016,258.34213 744.53889,258.34213 C 728.93737,258.34213 717.41629,254.99784 709.97561,248.30928 C 701.81483,240.9682 697.73444,229.18164 697.73444,212.94961 C 697.73444,199.65412 701.37477,189.295 708.65548,181.87227 C 716.57622,173.79714 728.41732,169.75953 744.17885,169.75944 C 761.54043,169.75953 773.78159,173.63399 780.90236,181.38287 C 787.14284,188.23463 790.26314,199.08315 790.26325,213.92844 M 768.90121,213.43903 C 768.90113,205.03758 766.94095,198.34902 763.02065,193.37335 C 758.62016,187.8268 752.09955,185.05349 743.45879,185.05341 C 734.97794,185.05349 728.57734,188.03071 724.25697,193.9851 C 720.65659,198.96079 718.85642,205.44542 718.85645,213.43903 C 718.85642,222.65623 720.29656,229.46711 723.17687,233.87176 C 727.1772,239.98938 734.57791,243.04816 745.37897,243.04814 C 754.49977,243.04816 760.90038,240.07094 764.58079,234.11646 C 767.461,229.46711 768.90113,222.57466 768.90121,213.43903 M 886.32677,230.32358 C 886.32668,237.82784 883.88644,244.14931 879.00607,249.28809 C 874.12553,254.42686 867.92494,256.99626 860.40432,256.99626 L 800.99865,256.8739 L 800.99865,241.45759 L 849.96331,241.45759 C 853.24355,241.45761 856.00381,240.6827 858.24409,239.13289 C 860.80428,237.33843 862.08439,234.89138 862.08446,231.7918 C 862.08439,224.53228 857.04391,220.90252 846.96302,220.90249 L 822.24067,220.90249 C 815.11997,220.90252 808.87938,218.6594 803.51889,214.17313 C 798.15837,209.68695 795.47814,203.97721 795.47814,197.04389 C 795.47814,189.37658 798.07837,183.17745 803.27888,178.44643 C 808.55935,173.63399 815.48,171.22776 824.04086,171.22767 L 880.80624,171.22767 L 880.80624,185.90988 L 830.76148,185.90988 C 828.52123,185.90996 826.24102,186.88876 823.92084,188.84632 C 821.68059,190.72245 820.56049,192.96555 820.56052,195.57567 C 820.56049,198.51217 821.64059,200.99998 823.80082,203.03914 C 826.04098,204.99682 828.72126,205.97563 831.8416,205.97557 L 859.08417,205.97557 C 867.5649,205.97563 874.20554,208.21873 879.00607,212.70491 C 883.88644,217.10963 886.32668,222.98249 886.32677,230.32358"
               id="path14162" />
            <text
               id="text14164"
               y="202.46719"
               x="1029.317"
               style="font-size:32.28636168999999967px;font-style:normal;font-variant:normal;font-weight:normal;font-stretch:normal;text-align:start;line-height:100%;writing-mode:lr-tb;text-anchor:start;fill:#a0399f;fill-opacity:1;stroke:none;stroke-width:1px;stroke-linecap:butt;stroke-linejoin:miter;stroke-opacity:1;font-family:DejaVu LGC Sans;-inkscape-font-specification:DejaVu LGC Sans"
               xml:space="preserve"
               transform="scale(0.8572094,1.1665761)"
               sodipodi:linespacing="100%"><tspan
                 y="202.46719"
                 x="1029.317"
                 id="tspan14166"
                 sodipodi:role="line">™</tspan></text>
          </g>
          <g
             transform="matrix(0,0.7434462,-0.7434462,0,1294.191,-600.49065)"
             id="g14411">
            <path
               style="opacity:1;fill:#d24e16;fill-opacity:1;stroke:none;stroke-width:5;stroke-linecap:round;stroke-miterlimit:4;stroke-dasharray:none;stroke-dashoffset:0;stroke-opacity:1"
               d="M 963.57632,376.24854 L 983.31546,394.0879 L 1003.0083,411.9736 L 1022.7011,394.0879 L 1042.3939,376.24854 L 1029.7905,376.24854 C 1029.8004,375.95058 1029.8368,375.66851 1029.8368,375.36815 C 1029.8368,360.69887 1017.9092,348.7713 1003.2399,348.77128 C 988.57066,348.77128 976.68939,360.6989 976.68941,375.36815 C 976.68941,375.66851 976.72584,375.95058 976.73574,376.24854 L 963.57632,376.24854 z"
               id="path14413" />
            <text
               sodipodi:linespacing="125%"
               id="text14415"
               y="1013.1678"
               x="-391.84973"
               style="font-size:27.97347641px;font-style:normal;font-variant:normal;font-weight:bold;font-stretch:normal;text-align:start;line-height:125%;writing-mode:lr-tb;text-anchor:start;fill:#ffffff;fill-opacity:1;stroke:none;stroke-width:1px;stroke-linecap:butt;stroke-linejoin:miter;stroke-opacity:1;font-family:DejaVu LGC Sans Mono;-inkscape-font-specification:DejaVu LGC Sans Mono Bold"
               xml:space="preserve"
               transform="matrix(0,-1,1,0,0,0)"><tspan
                 y="1013.1678"
                 x="-391.84973"
                 id="tspan14417"
                 sodipodi:role="line">NO</tspan></text>
          </g>
        </g>
        <g
           id="g14548"
           transform="matrix(0.9271469,0,0,0.9271469,-323.69756,-158.44462)">
          <g
             style="fill:#396ea0;fill-opacity:1"
             transform="matrix(0.5906164,0,0,0.5906164,443.62037,113.53071)"
             id="g14176">
            <path
               id="path14178"
               d="M 514.22011,256.8739 L 477.13659,256.8739 C 473.3762,256.8739 469.65585,256.34371 465.97553,255.28333 C 458.85483,253.081 453.2143,248.0238 449.05392,240.11171 C 445.29355,232.93376 443.41338,224.57307 443.41338,215.02961 C 443.41338,205.81248 445.09354,197.65571 448.45386,190.55925 C 452.1342,182.7288 457.37469,177.38611 464.17535,174.53116 C 469.45583,172.32893 474.85634,171.22776 480.3769,171.22767 L 513.98009,171.22767 L 513.98009,187.62281 L 479.05677,187.62281 C 473.3762,187.62288 469.25581,190.76323 466.69559,197.04389 C 464.69538,201.93802 463.69528,208.34108 463.69531,216.25312 C 463.69528,222.94169 464.97541,228.61068 467.53567,233.26001 C 470.49593,238.72507 474.65632,241.45761 480.01686,241.45759 L 514.22011,241.33522 L 514.22011,256.8739 M 575.98099,257.24097 L 546.6982,257.24097 C 539.5775,257.24097 533.37692,254.14138 528.09644,247.94222 C 522.89594,241.66151 520.29569,234.44278 520.29569,226.28597 C 520.29569,217.3951 523.13596,209.72774 528.81649,203.28383 C 534.57703,196.75846 540.97763,193.49575 548.01833,193.4957 L 575.86097,193.4957 L 575.86097,206.58733 L 555.45903,206.58733 C 552.89875,206.58738 550.69855,206.83209 548.8584,207.32143 C 547.09822,207.72933 545.45806,208.58578 543.93793,209.89083 C 541.13764,212.3379 539.73752,215.6414 539.73754,219.80133 L 575.74097,219.80133 L 575.74097,233.0153 L 539.85756,233.0153 C 539.85753,234.97296 540.05755,236.64511 540.45761,238.03172 C 540.93762,239.33684 541.85772,240.6827 543.21787,242.06935 C 544.57798,243.37445 546.17813,244.27168 548.01833,244.76106 C 549.93848,245.16893 552.2587,245.37285 554.979,245.37285 L 575.98099,245.37285 L 575.98099,257.24097 M 644.41748,256.8739 L 627.73591,256.8739 L 627.73591,215.15195 C 627.73587,214.09161 627.49586,213.15358 627.01585,212.33786 C 626.53575,211.44065 625.8557,210.58421 624.97566,209.76848 C 623.37546,208.38188 621.53528,207.68853 619.45514,207.68848 L 603.13359,207.68848 L 603.13359,256.8739 L 586.45199,256.8739 L 586.45199,193.4957 L 618.37502,193.4957 C 624.05554,193.49575 628.17592,193.82203 630.7362,194.47451 C 634.73653,195.45337 637.93682,197.61493 640.33712,200.95915 C 643.05732,204.87446 644.41743,209.15677 644.41748,213.80608 L 644.41748,256.8739 M 692.09391,206.70967 L 675.89237,206.70967 L 675.89237,235.46235 C 675.89234,238.07254 676.77244,240.23408 678.53263,241.94698 C 680.53278,243.65993 683.17304,244.51638 686.45337,244.51637 L 691.37383,244.51637 L 691.37383,256.8739 L 675.89237,256.8739 C 671.2519,256.8739 667.29155,255.16099 664.01124,251.73512 C 662.09105,249.69594 660.85092,247.45283 660.29088,245.00577 C 659.73082,242.55877 659.45079,239.6631 659.45081,236.31881 L 659.45081,206.70967 L 648.8898,206.70967 L 648.8898,193.4957 L 659.45081,193.4957 L 659.45081,171.22767 L 675.89237,171.22767 L 675.89237,193.4957 L 692.09391,193.4957 L 692.09391,206.70967 M 790.26325,213.92844 C 790.26314,230.5683 785.74272,242.47719 776.70195,249.65515 C 769.34118,255.44647 758.62016,258.34213 744.53889,258.34213 C 728.93737,258.34213 717.41629,254.99784 709.97561,248.30928 C 701.81483,240.9682 697.73444,229.18164 697.73444,212.94961 C 697.73444,199.65412 701.37477,189.295 708.65548,181.87227 C 716.57622,173.79714 728.41732,169.75953 744.17885,169.75944 C 761.54043,169.75953 773.78159,173.63399 780.90236,181.38287 C 787.14284,188.23463 790.26314,199.08315 790.26325,213.92844 M 768.90121,213.43903 C 768.90113,205.03758 766.94095,198.34902 763.02065,193.37335 C 758.62016,187.8268 752.09955,185.05349 743.45879,185.05341 C 734.97794,185.05349 728.57734,188.03071 724.25697,193.9851 C 720.65659,198.96079 718.85642,205.44542 718.85645,213.43903 C 718.85642,222.65623 720.29656,229.46711 723.17687,233.87176 C 727.1772,239.98938 734.57791,243.04816 745.37897,243.04814 C 754.49977,243.04816 760.90038,240.07094 764.58079,234.11646 C 767.461,229.46711 768.90113,222.57466 768.90121,213.43903 M 886.32677,230.32358 C 886.32668,237.82784 883.88644,244.14931 879.00607,249.28809 C 874.12553,254.42686 867.92494,256.99626 860.40432,256.99626 L 800.99865,256.8739 L 800.99865,241.45759 L 849.96331,241.45759 C 853.24355,241.45761 856.00381,240.6827 858.24409,239.13289 C 860.80428,237.33843 862.08439,234.89138 862.08446,231.7918 C 862.08439,224.53228 857.04391,220.90252 846.96302,220.90249 L 822.24067,220.90249 C 815.11997,220.90252 808.87938,218.6594 803.51889,214.17313 C 798.15837,209.68695 795.47814,203.97721 795.47814,197.04389 C 795.47814,189.37658 798.07837,183.17745 803.27888,178.44643 C 808.55935,173.63399 815.48,171.22776 824.04086,171.22767 L 880.80624,171.22767 L 880.80624,185.90988 L 830.76148,185.90988 C 828.52123,185.90996 826.24102,186.88876 823.92084,188.84632 C 821.68059,190.72245 820.56049,192.96555 820.56052,195.57567 C 820.56049,198.51217 821.64059,200.99998 823.80082,203.03914 C 826.04098,204.99682 828.72126,205.97563 831.8416,205.97557 L 859.08417,205.97557 C 867.5649,205.97563 874.20554,208.21873 879.00607,212.70491 C 883.88644,217.10963 886.32668,222.98249 886.32677,230.32358"
               clip-path="none"
               style="font-size:86.80023192999999537px;font-style:normal;font-variant:normal;font-weight:200;font-stretch:normal;text-align:start;line-height:125%;writing-mode:lr-tb;text-anchor:start;fill:#a0399f;fill-opacity:1;stroke:none;stroke-width:1px;stroke-linecap:butt;stroke-linejoin:miter;stroke-opacity:1;display:inline;font-family:Denmark;-inkscape-font-specification:Denmark Ultra-Light" />
            <text
               sodipodi:linespacing="100%"
               transform="scale(0.8572094,1.1665761)"
               xml:space="preserve"
               style="font-size:32.28636168999999967px;font-style:normal;font-variant:normal;font-weight:normal;font-stretch:normal;text-align:start;line-height:100%;writing-mode:lr-tb;text-anchor:start;fill:#a0399f;fill-opacity:1;stroke:none;stroke-width:1px;stroke-linecap:butt;stroke-linejoin:miter;stroke-opacity:1;font-family:DejaVu LGC Sans;-inkscape-font-specification:DejaVu LGC Sans"
               x="1029.317"
               y="235.87811"
               id="text14180"><tspan
                 sodipodi:role="line"
                 id="tspan14182"
                 x="1029.317"
                 y="235.87811">™</tspan></text>
          </g>
          <g
             id="g14419"
             transform="matrix(0,0.7434462,-0.7434462,0,1294.191,-505.71286)">
            <path
               id="path14421"
               d="M 963.57632,376.24854 L 983.31546,394.0879 L 1003.0083,411.9736 L 1022.7011,394.0879 L 1042.3939,376.24854 L 1029.7905,376.24854 C 1029.8004,375.95058 1029.8368,375.66851 1029.8368,375.36815 C 1029.8368,360.69887 1017.9092,348.7713 1003.2399,348.77128 C 988.57066,348.77128 976.68939,360.6989 976.68941,375.36815 C 976.68941,375.66851 976.72584,375.95058 976.73574,376.24854 L 963.57632,376.24854 z"
               style="opacity:1;fill:#d24e16;fill-opacity:1;stroke:none;stroke-width:5;stroke-linecap:round;stroke-miterlimit:4;stroke-dasharray:none;stroke-dashoffset:0;stroke-opacity:1" />
            <text
               transform="matrix(0,-1,1,0,0,0)"
               xml:space="preserve"
               style="font-size:27.97347641px;font-style:normal;font-variant:normal;font-weight:bold;font-stretch:normal;text-align:start;line-height:125%;writing-mode:lr-tb;text-anchor:start;fill:#ffffff;fill-opacity:1;stroke:none;stroke-width:1px;stroke-linecap:butt;stroke-linejoin:miter;stroke-opacity:1;font-family:DejaVu LGC Sans Mono;-inkscape-font-specification:DejaVu LGC Sans Mono Bold"
               x="-391.84973"
               y="1013.1678"
               id="text14423"
               sodipodi:linespacing="125%"><tspan
                 sodipodi:role="line"
                 id="tspan14425"
                 x="-391.84973"
                 y="1013.1678">NO</tspan></text>
          </g>
        </g>
      </g>
      <text
         transform="matrix(0,-1,1,0,0,0)"
         xml:space="preserve"
         style="font-size:12.23499012px;font-style:normal;font-variant:normal;font-weight:bold;font-stretch:normal;text-align:start;line-height:125%;writing-mode:lr-tb;text-anchor:start;fill:#646464;fill-opacity:1;stroke:none;stroke-width:1px;stroke-linecap:butt;stroke-linejoin:miter;stroke-opacity:1;font-family:DejaVu LGC Sans Mono;-inkscape-font-specification:DejaVu LGC Sans Mono Bold"
         x="-227.85553"
         y="221.67908"
         id="text14915"
         sodipodi:linespacing="125%"><tspan
           sodipodi:role="line"
           id="tspan14917"
           x="-227.85553"
           y="221.67908">RESTRICTIONS</tspan></text>
    </g>
    <g
       id="g15165"
       transform="translate(0,-22.36821)">
      <rect
         style="fill:#fcfcfc;fill-opacity:1;stroke:#e6e6e6;stroke-width:1;stroke-linecap:round;stroke-miterlimit:4;stroke-dasharray:none;stroke-dashoffset:0;stroke-opacity:1"
         id="rect14919"
         width="780"
         height="171.69362"
         x="222.37094"
         y="264.02216" />
      <text
         transform="matrix(0,-1,1,0,0,0)"
         sodipodi:linespacing="125%"
         id="text14921"
         y="221.67908"
         x="-437.14246"
         style="font-size:12.23499012px;font-style:normal;font-variant:normal;font-weight:bold;font-stretch:normal;text-align:start;line-height:125%;writing-mode:lr-tb;text-anchor:start;fill:#646464;fill-opacity:1;stroke:none;stroke-width:1px;stroke-linecap:butt;stroke-linejoin:miter;stroke-opacity:1;font-family:DejaVu LGC Sans Mono;-inkscape-font-specification:DejaVu LGC Sans Mono Bold"
         xml:space="preserve"><tspan
           y="221.67908"
           x="-437.14246"
           id="tspan14923"
           sodipodi:role="line">COLORS</tspan></text>
      <g
         transform="matrix(1.1809296,0,0,1.1809296,-1.5667892,-91.062506)"
         id="g14558">
        <g
           id="g14267"
           transform="translate(327.03255,209.17249)">
          <rect
             style="fill:#a0399f;fill-opacity:1;stroke:none;stroke-width:1;stroke-linecap:round;stroke-miterlimit:4;stroke-dasharray:none;stroke-dashoffset:0;stroke-opacity:1"
             id="rect14269"
             width="34.877796"
             height="34.877796"
             x="21.865784"
             y="114.06818"
             rx="6.9755588"
             ry="6.9755588" />
          <text
             xml:space="preserve"
             style="font-size:13.95111752px;font-style:normal;font-variant:normal;font-weight:bold;font-stretch:normal;text-align:end;line-height:125%;writing-mode:lr-tb;text-anchor:end;fill:#000000;fill-opacity:1;stroke:none;stroke-width:1px;stroke-linecap:butt;stroke-linejoin:miter;stroke-opacity:1;font-family:DejaVu LGC Sans Mono;-inkscape-font-specification:DejaVu LGC Sans Mono Bold"
             x="213.24625"
             y="84.489029"
             id="text14271"
             sodipodi:linespacing="125%"
             transform="matrix(0.7071068,0.7071068,-0.7071068,0.7071068,0,0)"><tspan
               sodipodi:role="line"
               id="tspan14273"
               x="213.24625"
               y="84.489029">a0399fff</tspan></text>
          <path
             style="fill:none;fill-rule:evenodd;stroke:#000000;stroke-width:1px;stroke-linecap:butt;stroke-linejoin:miter;stroke-opacity:1"
             d="M 39,153.59003 L 39,166.09003 L 88.75,213.84003"
             id="path14275"
             sodipodi:nodetypes="ccc" />
        </g>
        <g
           transform="translate(380.23254,209.17249)"
           id="g14287">
          <rect
             ry="6.9755588"
             rx="6.9755588"
             y="114.06818"
             x="21.865784"
             height="34.877796"
             width="34.877796"
             id="rect14289"
             style="fill:#396ea0;fill-opacity:1;stroke:none;stroke-width:1;stroke-linecap:round;stroke-miterlimit:4;stroke-dasharray:none;stroke-dashoffset:0;stroke-opacity:1" />
          <text
             transform="matrix(0.7071068,0.7071068,-0.7071068,0.7071068,0,0)"
             sodipodi:linespacing="125%"
             id="text14291"
             y="84.489029"
             x="213.24625"
             style="font-size:13.95111752px;font-style:normal;font-variant:normal;font-weight:bold;font-stretch:normal;text-align:end;line-height:125%;writing-mode:lr-tb;text-anchor:end;fill:#000000;fill-opacity:1;stroke:none;stroke-width:1px;stroke-linecap:butt;stroke-linejoin:miter;stroke-opacity:1;font-family:DejaVu LGC Sans Mono;-inkscape-font-specification:DejaVu LGC Sans Mono Bold"
             xml:space="preserve"><tspan
               y="84.489029"
               x="213.24625"
               id="tspan14293"
               sodipodi:role="line">396ea0ff</tspan></text>
          <path
             sodipodi:nodetypes="ccc"
             id="path14295"
             d="M 39,153.59003 L 39,166.09003 L 88.75,213.84003"
             style="fill:none;fill-rule:evenodd;stroke:#000000;stroke-width:1px;stroke-linecap:butt;stroke-linejoin:miter;stroke-opacity:1" />
        </g>
        <g
           id="g14297"
           transform="translate(433.43255,209.17249)">
          <rect
             style="fill:#a07339;fill-opacity:1;stroke:none;stroke-width:1;stroke-linecap:round;stroke-miterlimit:4;stroke-dasharray:none;stroke-dashoffset:0;stroke-opacity:1"
             id="rect14299"
             width="34.877796"
             height="34.877796"
             x="21.865784"
             y="114.06818"
             rx="6.9755588"
             ry="6.9755588" />
          <text
             xml:space="preserve"
             style="font-size:13.95111752px;font-style:normal;font-variant:normal;font-weight:bold;font-stretch:normal;text-align:end;line-height:125%;writing-mode:lr-tb;text-anchor:end;fill:#000000;fill-opacity:1;stroke:none;stroke-width:1px;stroke-linecap:butt;stroke-linejoin:miter;stroke-opacity:1;font-family:DejaVu LGC Sans Mono;-inkscape-font-specification:DejaVu LGC Sans Mono Bold"
             x="213.24625"
             y="84.489029"
             id="text14301"
             sodipodi:linespacing="125%"
             transform="matrix(0.7071068,0.7071068,-0.7071068,0.7071068,0,0)"><tspan
               sodipodi:role="line"
               id="tspan14303"
               x="213.24625"
               y="84.489029">a07339ff</tspan></text>
          <path
             style="fill:none;fill-rule:evenodd;stroke:#000000;stroke-width:1px;stroke-linecap:butt;stroke-linejoin:miter;stroke-opacity:1"
             d="M 39,153.59003 L 39,166.09003 L 88.75,213.84003"
             id="path14305"
             sodipodi:nodetypes="ccc" />
        </g>
        <g
           transform="translate(486.63254,209.17249)"
           id="g14307">
          <rect
             ry="6.9755588"
             rx="6.9755588"
             y="114.06818"
             x="21.865784"
             height="34.877796"
             width="34.877796"
             id="rect14309"
             style="fill:#39a039;fill-opacity:1;stroke:none;stroke-width:1;stroke-linecap:round;stroke-miterlimit:4;stroke-dasharray:none;stroke-dashoffset:0;stroke-opacity:1" />
          <text
             transform="matrix(0.7071068,0.7071068,-0.7071068,0.7071068,0,0)"
             sodipodi:linespacing="125%"
             id="text14311"
             y="84.489029"
             x="213.24625"
             style="font-size:13.95111752px;font-style:normal;font-variant:normal;font-weight:bold;font-stretch:normal;text-align:end;line-height:125%;writing-mode:lr-tb;text-anchor:end;fill:#000000;fill-opacity:1;stroke:none;stroke-width:1px;stroke-linecap:butt;stroke-linejoin:miter;stroke-opacity:1;font-family:DejaVu LGC Sans Mono;-inkscape-font-specification:DejaVu LGC Sans Mono Bold"
             xml:space="preserve"><tspan
               y="84.489029"
               x="213.24625"
               id="tspan14313"
               sodipodi:role="line">39a039ff</tspan></text>
          <path
             sodipodi:nodetypes="ccc"
             id="path14315"
             d="M 39,153.59003 L 39,166.09003 L 88.75,213.84003"
             style="fill:none;fill-rule:evenodd;stroke:#000000;stroke-width:1px;stroke-linecap:butt;stroke-linejoin:miter;stroke-opacity:1" />
        </g>
        <g
           id="g14317"
           transform="translate(539.83254,209.17249)">
          <rect
             style="fill:#000000;fill-opacity:1;stroke:none;stroke-width:1;stroke-linecap:round;stroke-miterlimit:4;stroke-dasharray:none;stroke-dashoffset:0;stroke-opacity:1"
             id="rect14319"
             width="34.877796"
             height="34.877796"
             x="21.865784"
             y="114.06818"
             rx="6.9755588"
             ry="6.9755588" />
          <text
             xml:space="preserve"
             style="font-size:13.95111752px;font-style:normal;font-variant:normal;font-weight:bold;font-stretch:normal;text-align:end;line-height:125%;writing-mode:lr-tb;text-anchor:end;fill:#000000;fill-opacity:1;stroke:none;stroke-width:1px;stroke-linecap:butt;stroke-linejoin:miter;stroke-opacity:1;font-family:DejaVu LGC Sans Mono;-inkscape-font-specification:DejaVu LGC Sans Mono Bold"
             x="213.24625"
             y="84.489029"
             id="text14321"
             sodipodi:linespacing="125%"
             transform="matrix(0.7071068,0.7071068,-0.7071068,0.7071068,0,0)"><tspan
               sodipodi:role="line"
               id="tspan14323"
               x="213.24625"
               y="84.489029">000000ff</tspan></text>
          <path
             style="fill:none;fill-rule:evenodd;stroke:#000000;stroke-width:1px;stroke-linecap:butt;stroke-linejoin:miter;stroke-opacity:1"
             d="M 39,153.59003 L 39,166.09003 L 88.75,213.84003"
             id="path14325"
             sodipodi:nodetypes="ccc" />
        </g>
        <g
           transform="translate(593.03255,209.17249)"
           id="g14327">
          <rect
             ry="6.9755588"
             rx="6.9755588"
             y="114.06818"
             x="21.865784"
             height="34.877796"
             width="34.877796"
             id="rect14329"
             style="fill:#ffffff;fill-opacity:1;stroke:none;stroke-width:1;stroke-linecap:round;stroke-miterlimit:4;stroke-dasharray:none;stroke-dashoffset:0;stroke-opacity:1" />
          <text
             transform="matrix(0.7071068,0.7071068,-0.7071068,0.7071068,0,0)"
             sodipodi:linespacing="125%"
             id="text14331"
             y="84.489029"
             x="213.24625"
             style="font-size:13.95111752px;font-style:normal;font-variant:normal;font-weight:bold;font-stretch:normal;text-align:end;line-height:125%;writing-mode:lr-tb;text-anchor:end;fill:#000000;fill-opacity:1;stroke:none;stroke-width:1px;stroke-linecap:butt;stroke-linejoin:miter;stroke-opacity:1;font-family:DejaVu LGC Sans Mono;-inkscape-font-specification:DejaVu LGC Sans Mono Bold"
             xml:space="preserve"><tspan
               y="84.489029"
               x="213.24625"
               id="tspan14333"
               sodipodi:role="line"
               style="font-weight:bold">ffffffff</tspan></text>
          <path
             sodipodi:nodetypes="ccc"
             id="path14335"
             d="M 39,153.59003 L 39,166.09003 L 88.75,213.84003"
             style="fill:none;fill-rule:evenodd;stroke:#000000;stroke-width:1px;stroke-linecap:butt;stroke-linejoin:miter;stroke-opacity:1" />
        </g>
      </g>
    </g>
    <text
       xml:space="preserve"
       style="font-size:108.59944153px;font-style:normal;font-weight:normal;opacity:0.02999998;fill:#000000;fill-opacity:1;stroke:none;stroke-width:1px;stroke-linecap:butt;stroke-linejoin:miter;stroke-opacity:1;font-family:Bitstream Vera Sans"
       x="-726.20953"
       y="191.0163"
       id="text15013"
       transform="matrix(0,-1,1,0,0,0)"><tspan
         sodipodi:role="line"
         id="tspan15015"
         x="-726.20953"
         y="191.0163">Release TM</tspan></text>
    <text
       xml:space="preserve"
       style="font-size:10px;font-style:normal;font-variant:normal;font-weight:normal;font-stretch:normal;text-align:start;line-height:125%;writing-mode:lr-tb;text-anchor:start;fill:#646464;fill-opacity:1;stroke:none;stroke-width:1px;stroke-linecap:butt;stroke-linejoin:miter;stroke-opacity:1;font-family:DejaVu LGC Sans Mono;-inkscape-font-specification:DejaVu LGC Sans Mono"
       x="-727.30121"
       y="1028.7578"
       id="text15105"
       sodipodi:linespacing="125%"
       transform="matrix(0,-1,1,0,0,0)"><tspan
         sodipodi:role="line"
         id="tspan15107"
         x="-727.30121"
         y="1028.7578">$Id$</tspan><tspan
         sodipodi:role="line"
         x="-727.30121"
         y="1041.2578"
         id="tspan15109">$URL$</tspan></text>
    <path
       style="font-size:86.80023193px;font-style:normal;font-variant:normal;font-weight:200;font-stretch:normal;text-align:start;line-height:125%;writing-mode:lr-tb;text-anchor:start;fill:#a0399f;fill-opacity:1;stroke:none;stroke-width:1px;stroke-linecap:butt;stroke-linejoin:miter;stroke-opacity:1;display:inline;font-family:Denmark;-inkscape-font-specification:Denmark Ultra-Light"
       clip-path="none"
       d="M 238.75234,-196.53077 L 197.21881,-196.53077 C 193.00717,-196.53077 188.84038,-197.12461 184.71842,-198.31222 C 176.74324,-200.77881 170.42585,-206.44288 165.76623,-215.30441 C 161.55461,-223.34374 159.44882,-232.70771 159.44882,-243.39639 C 159.44882,-253.71957 161.33059,-262.85515 165.09415,-270.80317 C 169.21614,-279.57327 175.08547,-285.55708 182.70222,-288.75464 C 188.61636,-291.22113 194.66492,-292.45443 200.84794,-292.45455 L 238.48353,-292.45455 L 238.48353,-274.09199 L 199.3694,-274.09199 C 193.00717,-274.0919 188.39234,-270.57472 185.52488,-263.54038 C 183.28466,-258.05897 182.16453,-250.88755 182.16457,-242.02605 C 182.16453,-234.53485 183.59828,-228.18557 186.46577,-222.97834 C 189.78126,-216.85744 194.4409,-213.79702 200.44471,-213.79703 L 238.75234,-213.93409 L 238.75234,-196.53077 M 307.92453,-196.11965 L 275.12781,-196.11965 C 267.15262,-196.11965 260.20798,-199.59119 254.29382,-206.53425 C 248.46928,-213.56865 245.55699,-221.65363 245.55699,-230.78924 C 245.55699,-240.74703 248.7381,-249.33447 255.10029,-256.55165 C 261.55208,-263.86006 268.72075,-267.51429 276.60633,-267.51436 L 307.7901,-267.51436 L 307.7901,-252.85174 L 284.93994,-252.85174 C 282.07242,-252.85169 279.6082,-252.5776 277.54725,-252.02955 C 275.57583,-251.57268 273.73884,-250.61346 272.03629,-249.1518 C 268.89998,-246.41108 267.33185,-242.71117 267.33186,-238.05206 L 307.65571,-238.05206 L 307.65571,-223.2524 L 267.46628,-223.2524 C 267.46625,-221.05983 267.69027,-219.18701 268.13834,-217.63401 C 268.67595,-216.17227 269.70648,-214.66491 271.22983,-213.11187 C 272.75316,-211.65015 274.54532,-210.64525 276.60633,-210.09716 C 278.75693,-209.64033 281.35557,-209.41194 284.40231,-209.41194 L 307.92453,-209.41194 L 307.92453,-196.11965 M 384.57338,-196.53077 L 365.89004,-196.53077 L 365.89004,-243.25936 C 365.88999,-244.44694 365.62119,-245.49754 365.08356,-246.41114 C 364.54587,-247.41602 363.7842,-248.37523 362.79856,-249.28884 C 361.00635,-250.84183 358.94535,-251.61838 356.61556,-251.61845 L 338.33544,-251.61845 L 338.33544,-196.53077 L 319.65205,-196.53077 L 319.65205,-267.51436 L 355.40584,-267.51436 C 361.76803,-267.51429 366.38286,-267.14886 369.25037,-266.41809 C 373.73072,-265.32177 377.31505,-262.90081 380.00339,-259.15528 C 383.05001,-254.77015 384.57332,-249.97395 384.57338,-244.76674 L 384.57338,-196.53077 M 437.97099,-252.71472 L 419.82527,-252.71472 L 419.82527,-220.51171 C 419.82523,-217.58829 420.81095,-215.16738 422.78237,-213.24892 C 425.02254,-211.33041 427.97961,-210.37119 431.65358,-210.3712 L 437.16451,-210.3712 L 437.16451,-196.53077 L 419.82527,-196.53077 C 414.62794,-196.53077 410.19236,-198.44923 406.51842,-202.2862 C 404.3678,-204.57009 402.97886,-207.08238 402.3516,-209.82307 C 401.72435,-212.56371 401.4107,-215.80686 401.41073,-219.55247 L 401.41073,-252.71472 L 389.58239,-252.71472 L 389.58239,-267.51436 L 401.41073,-267.51436 L 401.41073,-292.45455 L 419.82527,-292.45455 L 419.82527,-267.51436 L 437.97099,-267.51436 L 437.97099,-252.71472 M 547.92064,-244.62969 C 547.9205,-225.99305 542.85762,-212.65508 532.732,-204.61576 C 524.48793,-198.12949 512.48041,-194.88635 496.70936,-194.88635 C 479.23566,-194.88635 466.33205,-198.63196 457.99849,-206.12314 C 448.85843,-214.34515 444.28839,-227.5461 444.28839,-245.72598 C 444.28839,-260.61692 448.36556,-272.21914 456.51994,-280.53259 C 465.39118,-289.57674 478.65321,-294.09884 496.30613,-294.09896 C 515.75107,-294.09884 529.46121,-289.75947 537.43644,-281.08071 C 544.4258,-273.40674 547.9205,-261.25642 547.92064,-244.62969 M 523.99516,-245.17782 C 523.99509,-254.58745 521.79969,-262.07862 517.40897,-267.65138 C 512.48041,-273.86351 505.1773,-276.96963 495.49965,-276.9697 C 486.00111,-276.96963 478.83242,-273.63514 473.9936,-266.96622 C 469.96119,-261.39344 467.94501,-254.13068 467.94503,-245.17782 C 467.94501,-234.85456 469.55797,-227.22638 472.78391,-222.29317 C 477.26427,-215.44143 485.55308,-212.0156 497.65027,-212.01561 C 507.86558,-212.0156 515.03425,-215.35008 519.15626,-222.01911 C 522.38213,-227.22638 523.99509,-234.94593 523.99516,-245.17782 M 655.51181,-226.26713 C 655.51168,-217.86235 652.77865,-210.78231 647.3126,-205.02688 C 641.8464,-199.27146 634.90171,-196.39372 626.47865,-196.39372 L 559.94431,-196.53077 L 559.94431,-213.79703 L 614.78471,-213.79703 C 618.45854,-213.79702 621.55008,-214.66491 624.0592,-216.4007 C 626.92662,-218.41049 628.36032,-221.15119 628.36039,-224.62272 C 628.36032,-232.75337 622.71502,-236.81872 611.42439,-236.81876 L 583.73534,-236.81876 C 575.76017,-236.81872 568.77069,-239.33102 562.76693,-244.35563 C 556.76317,-249.38016 553.7613,-255.77507 553.7613,-263.54038 C 553.7613,-272.12776 556.67358,-279.07078 562.49815,-284.36953 C 568.41224,-289.75947 576.16342,-292.45443 585.75154,-292.45455 L 649.32881,-292.45455 L 649.32881,-276.01046 L 593.27867,-276.01046 C 590.76956,-276.01038 588.21572,-274.91411 585.61715,-272.72166 C 583.10805,-270.62039 581.85359,-268.10811 581.85359,-265.18479 C 581.85359,-261.89591 583.06325,-259.10956 585.48269,-256.82571 C 587.99173,-254.6331 590.99361,-253.53683 594.48839,-253.5369 L 625.00008,-253.5369 C 634.49854,-253.53683 641.936,-251.02455 647.3126,-246.00003 C 652.77865,-241.06676 655.51168,-234.48915 655.51181,-226.26713"
       id="path15383" />
    <text
       id="text15389"
       y="-194.88635"
       x="721.08521"
       style="font-size:283.46456909px;font-style:normal;font-variant:normal;font-weight:200;font-stretch:normal;text-align:start;line-height:125%;writing-mode:lr-tb;text-anchor:start;fill:#a0399f;fill-opacity:1;stroke:none;stroke-width:1px;stroke-linecap:butt;stroke-linejoin:miter;stroke-opacity:1;font-family:Denmark;-inkscape-font-specification:Denmark Ultra-Light"
       xml:space="preserve"
       sodipodi:linespacing="125%"><tspan
         y="-194.88635"
         x="721.08521"
         id="tspan15391"
         sodipodi:role="line">5</tspan></text>
  </g>
</svg>
