<?xml version="1.0" encoding="UTF-8" standalone="no"?>
<!-- Created with Inkscape (http://www.inkscape.org/) -->
<svg
   xmlns:dc="http://purl.org/dc/elements/1.1/"
   xmlns:cc="http://creativecommons.org/ns#"
   xmlns:rdf="http://www.w3.org/1999/02/22-rdf-syntax-ns#"
   xmlns:svg="http://www.w3.org/2000/svg"
   xmlns="http://www.w3.org/2000/svg"
   xmlns:sodipodi="http://sodipodi.sourceforge.net/DTD/sodipodi-0.dtd"
   xmlns:inkscape="http://www.inkscape.org/namespaces/inkscape"
   width="356.74557"
   height="95.999992"
   id="svg3394"
   sodipodi:version="0.32"
   inkscape:version="0.46"
   sodipodi:docname="centos-5.svg"
   inkscape:output_extension="org.inkscape.output.svg.inkscape"
   version="1.0">
  <defs
     id="defs3396">
    <inkscape:perspective
       sodipodi:type="inkscape:persp3d"
       inkscape:vp_x="0 : 48 : 1"
       inkscape:vp_y="0 : 1000 : 0"
       inkscape:vp_z="344.09 : 48 : 1"
       inkscape:persp3d-origin="172.045 : 32 : 1"
       id="perspective2452" />
  </defs>
  <sodipodi:namedview
     id="base"
     pagecolor="#ffffff"
     bordercolor="#ababab"
     borderopacity="1"
     gridtolerance="10000"
     guidetolerance="10"
     objecttolerance="10"
     inkscape:pageopacity="0.0"
     inkscape:pageshadow="2"
     inkscape:zoom="2.4078785"
     inkscape:cx="178.37279"
     inkscape:cy="47.999996"
     inkscape:document-units="mm"
     inkscape:current-layer="layer1"
     showgrid="false"
     showborder="true"
     inkscape:showpageshadow="false"
     guidecolor="#3c3cff"
     guideopacity="0.60392157"
     inkscape:window-width="1360"
     inkscape:window-height="693"
     inkscape:window-x="0"
     inkscape:window-y="25"
     units="mm"
     showguides="true"
     inkscape:guide-bbox="true">
    <inkscape:grid
       type="xygrid"
       id="grid3564"
       visible="true"
       enabled="true"
       color="#0097ff"
       opacity="0.1254902"
       empcolor="#0096ff"
       empopacity="0.25098039"
       units="mm"
       spacingx="1mm"
       spacingy="1mm" />
  </sodipodi:namedview>
  <metadata
     id="CENTOSMETADATA">
    <rdf:RDF>
      <cc:Work
         rdf:about="">
        <dc:format>image/svg+xml</dc:format>
        <dc:type
           rdf:resource="http://purl.org/dc/dcmitype/StillImage" />
        <cc:license
           rdf:resource="http://creativecommons.org/licenses/by-sa/3.0/" />
        <dc:title>centos-5.svg</dc:title>
        <dc:date>2011-07-29</dc:date>
        <dc:creator>
          <cc:Agent>
            <dc:title>The CentOS Artwork SIG</dc:title>
          </cc:Agent>
        </dc:creator>
        <dc:rights>
          <cc:Agent>
            <dc:title>The CentOS Artwork SIG</dc:title>
          </cc:Agent>
        </dc:rights>
        <dc:publisher>
          <cc:Agent>
            <dc:title>The CentOS Artwork SIG</dc:title>
          </cc:Agent>
        </dc:publisher>
        <dc:identifier>https://projects.centos.org/svn/artwork/trunk/Identity/Models/Brands/Types/Black/centos-5.svg</dc:identifier>
        <dc:source>https://projects.centos.org/svn/artwork/trunk/Identity/Models/Brands/Types/Black/centos-5.svg</dc:source>
        <dc:relation>https://projects.centos.org/svn/artwork/trunk/Identity/Models/Brands/Types/Black/centos-5.svg</dc:relation>
        <dc:language>en_US</dc:language>
        <dc:subject>
          <rdf:Bag>
            <rdf:li>Identity</rdf:li>
            <rdf:li>Models</rdf:li>
            <rdf:li>Brands</rdf:li>
            <rdf:li>Types</rdf:li>
            <rdf:li>Black</rdf:li>
          </rdf:Bag>
        </dc:subject>
        <dc:coverage>The CentOS Artwork SIG</dc:coverage>
        <dc:description />
        <dc:contributor />
      </cc:Work>
      <cc:License
         rdf:about="http://creativecommons.org/licenses/by-sa/3.0/">
        <cc:permits
           rdf:resource="http://creativecommons.org/ns#Reproduction" />
        <cc:permits
           rdf:resource="http://creativecommons.org/ns#Distribution" />
        <cc:requires
           rdf:resource="http://creativecommons.org/ns#Notice" />
        <cc:requires
           rdf:resource="http://creativecommons.org/ns#Attribution" />
        <cc:permits
           rdf:resource="http://creativecommons.org/ns#DerivativeWorks" />
        <cc:requires
           rdf:resource="http://creativecommons.org/ns#ShareAlike" />
      </cc:License>
    </rdf:RDF>
  </metadata>
  <g
     inkscape:label="Layer 1"
     inkscape:groupmode="layer"
     id="layer1"
     transform="translate(-350.15346,-553.66146)">
    <g
       id="CENTOSARTWORK"
       transform="matrix(0.903111,0,0,0.903111,59.329,-271.98581)"
       inkscape:label="#g2729"
       style="fill:#8f6e9e">
      <path
         id="text5083"
         d="M 364.50919,1019.6439 L 342.25908,1019.6439 C 340.00284,1019.6439 337.77063,1019.3258 335.56244,1018.6896 C 331.29002,1017.3682 327.9057,1014.3339 325.40947,1009.5866 C 323.15326,1005.2799 322.02515,1000.2634 322.02515,994.53737 C 322.02515,989.00709 323.03324,984.11303 325.04944,979.85515 C 327.25764,975.15689 330.40194,971.95128 334.48234,970.2383 C 337.65062,968.91695 340.89093,968.25627 344.20326,968.2562 L 364.36518,968.2562 L 364.36518,978.09329 L 343.41119,978.09329 C 340.00284,978.09333 337.53061,979.97755 335.99448,983.74594 C 334.79435,986.68241 334.19429,990.52426 334.19431,995.27148 C 334.19429,999.28463 334.96237,1002.686 336.49853,1005.4756 C 338.27468,1008.7546 340.77091,1010.3942 343.98724,1010.3942 L 364.50919,1010.3207 L 364.50919,1019.6439 M 401.56572,1019.8642 L 383.99605,1019.8642 C 379.72363,1019.8642 376.00328,1018.0044 372.83499,1014.2849 C 369.71469,1010.5165 368.15454,1006.1853 368.15454,1001.2912 C 368.15454,995.95667 369.8587,991.35625 373.26703,987.4899 C 376.72335,983.57469 380.56371,981.61706 384.78812,981.61702 L 401.49371,981.61702 L 401.49371,989.472 L 389.25255,989.472 C 387.71638,989.47203 386.39625,989.61885 385.29217,989.91247 C 384.23605,990.15721 383.25196,990.67108 382.33989,991.4541 C 380.65972,992.92235 379.81964,994.90445 379.81965,997.40039 L 401.4217,997.40039 L 401.4217,1005.3288 L 379.89166,1005.3288 C 379.89164,1006.5034 380.01165,1007.5067 380.25169,1008.3386 C 380.5397,1009.1217 381.09176,1009.9292 381.90785,1010.7612 C 382.72391,1011.5443 383.684,1012.0826 384.78812,1012.3762 C 385.94022,1012.621 387.33235,1012.7433 388.96452,1012.7433 L 401.56572,1012.7433 L 401.56572,1019.8642 M 442.62762,1019.6439 L 432.61868,1019.6439 L 432.61868,994.61078 C 432.61865,993.97457 432.47463,993.41175 432.18664,992.92232 C 431.89858,992.38401 431.49054,991.87013 430.96252,991.38069 C 430.0024,990.54873 428.8983,990.13273 427.65021,990.1327 L 417.85727,990.1327 L 417.85727,1019.6439 L 407.84832,1019.6439 L 407.84832,981.61702 L 427.00214,981.61702 C 430.41044,981.61706 432.88267,981.81283 434.41885,982.20431 C 436.81905,982.79163 438.73922,984.08857 440.17939,986.0951 C 441.81151,988.44428 442.62759,991.01367 442.62762,993.80326 L 442.62762,1019.6439 M 471.37411,989.54542 L 461.65319,989.54542 L 461.65319,1006.797 C 461.65317,1008.3631 462.18123,1009.66 463.23734,1010.6878 C 464.43743,1011.7156 466.02158,1012.2294 467.98979,1012.2294 L 470.94208,1012.2294 L 470.94208,1019.6439 L 461.65319,1019.6439 C 458.86891,1019.6439 456.49268,1018.6162 454.52451,1016.5607 C 453.37239,1015.3372 452.62832,1013.9913 452.2923,1012.5231 C 451.95626,1011.0549 451.78824,1009.3175 451.78825,1007.3109 L 451.78825,989.54542 L 445.45165,989.54542 L 445.45165,981.61702 L 451.78825,981.61702 L 451.78825,968.2562 L 461.65319,968.2562 L 461.65319,981.61702 L 471.37411,981.61702 L 471.37411,989.54542 M 530.13508,993.87667 C 530.13502,1003.8606 527.42277,1011.0059 521.9983,1015.3127 C 517.58184,1018.7875 511.14924,1020.5249 502.70047,1020.5249 C 493.33955,1020.5249 486.42691,1018.5183 481.96249,1014.5052 C 477.06602,1010.1005 474.61779,1003.0286 474.6178,993.28938 C 474.61779,985.31208 476.80199,979.09661 481.17042,974.64297 C 485.92286,969.79789 493.02753,967.37533 502.48445,967.37528 C 512.9014,967.37533 520.24609,969.70001 524.51854,974.34933 C 528.26285,978.46039 530.13502,984.96949 530.13508,993.87667 M 517.31786,993.58302 C 517.31781,988.54217 516.1417,984.52903 513.78953,981.54361 C 511.14924,978.21569 507.23686,976.55171 502.05241,976.55165 C 496.96389,976.55171 493.12354,978.33803 490.53131,981.91067 C 488.37108,984.89609 487.29098,988.78687 487.291,993.58302 C 487.29098,999.11335 488.15507,1003.1999 489.88325,1005.8427 C 492.28346,1009.5132 496.72387,1011.3485 503.20452,1011.3485 C 508.677,1011.3485 512.51736,1009.5622 514.72561,1005.9895 C 516.45374,1003.1999 517.31781,999.06441 517.31786,993.58302 M 587.7732,1003.7137 C 587.77314,1008.2163 586.309,1012.0092 583.38078,1015.0925 C 580.45245,1018.1757 576.7321,1019.7174 572.21971,1019.7174 L 536.57633,1019.6439 L 536.57633,1010.3942 L 565.95512,1010.3942 C 567.92327,1010.3942 569.57943,1009.9292 570.92359,1008.9993 C 572.45969,1007.9227 573.22777,1006.4544 573.22781,1004.5947 C 573.22777,1000.239 570.20349,998.06112 564.15495,998.06109 L 549.32153,998.06109 C 545.04912,998.06112 541.30476,996.71525 538.08847,994.02349 C 534.87216,991.33178 533.26401,987.90593 533.26401,983.74594 C 533.26401,979.14555 534.82416,975.42607 537.94446,972.58746 C 541.11275,969.70001 545.26514,968.25627 550.40164,968.2562 L 584.46088,968.2562 L 584.46088,977.06553 L 554.43403,977.06553 C 553.08988,977.06557 551.72174,977.65287 550.32963,978.82741 C 548.98549,979.95307 548.31343,981.29895 548.31345,982.86501 C 548.31343,984.62691 548.96149,986.1196 550.25763,987.34308 C 551.60174,988.51769 553.20988,989.10498 555.08209,989.10495 L 571.42764,989.10495 C 576.51608,989.10498 580.50045,990.45085 583.38078,993.14256 C 586.309,995.78538 587.77314,999.30911 587.7732,1003.7137"
         clip-path="none"
         style="font-size:72.70556641000000297px;font-style:normal;font-variant:normal;font-weight:200;font-stretch:normal;text-align:start;line-height:125%;writing-mode:lr-tb;text-anchor:start;fill:#8f6e9e;fill-opacity:1;stroke:none;stroke-width:1;stroke-linecap:butt;stroke-linejoin:miter;stroke-miterlimit:4;stroke-opacity:1;display:inline;font-family:Denmark;-inkscape-font-specification:Denmark Ultra-Light" />
      <path
         id="text9278"
         d="M 717.04368,987.11657 C 717.04358,998.15146 712.63976,1006.6554 703.8322,1012.6284 C 696.13808,1017.8927 686.46993,1020.5249 674.8277,1020.5249 L 623.19666,1020.5249 L 623.19666,1000.7836 L 676.19441,1000.7836 C 680.1426,1000.7836 683.53405,999.41693 686.36876,996.6835 C 689.20333,993.95011 690.41818,990.55867 690.01331,986.50914 C 690.01323,983.47206 688.79838,980.89051 686.36876,978.76449 C 683.53405,976.33483 679.68703,975.11999 674.8277,975.11994 L 623.19666,975.11994 L 623.19666,914.22568 L 710.81758,914.22568 L 710.81758,932.75211 L 647.94919,932.75211 L 647.79733,956.44165 L 685.00206,956.44165 C 694.41705,956.44172 702.11108,959.27636 708.08417,964.94559 C 714.05708,970.61493 717.04358,978.00525 717.04368,987.11657"
         style="font-size:151.85601807000000463px;font-style:normal;font-variant:normal;font-weight:200;font-stretch:normal;text-indent:0;text-align:start;text-decoration:none;line-height:125%;letter-spacing:normal;word-spacing:normal;text-transform:none;direction:ltr;block-progression:tb;writing-mode:lr-tb;text-anchor:start;fill:#8f6e9e;fill-opacity:1;fill-rule:nonzero;stroke:none;stroke-width:1px;stroke-linecap:butt;stroke-linejoin:miter;marker:none;marker-start:none;marker-mid:none;marker-end:none;stroke-miterlimit:4;stroke-dashoffset:0;stroke-opacity:1;visibility:visible;display:inline;overflow:visible;enable-background:accumulate;font-family:Denmark;-inkscape-font-specification:Denmark Ultra-Light" />
    </g>
  </g>
</svg>
