<?xml version="1.0" encoding="UTF-8" standalone="no"?>
<!-- Created with Inkscape (http://www.inkscape.org/) -->
<svg
   xmlns:dc="http://purl.org/dc/elements/1.1/"
   xmlns:cc="http://creativecommons.org/ns#"
   xmlns:rdf="http://www.w3.org/1999/02/22-rdf-syntax-ns#"
   xmlns:svg="http://www.w3.org/2000/svg"
   xmlns="http://www.w3.org/2000/svg"
   xmlns:sodipodi="http://sodipodi.sourceforge.net/DTD/sodipodi-0.dtd"
   xmlns:inkscape="http://www.inkscape.org/namespaces/inkscape"
   width="344.09"
   height="96"
   id="svg3394"
   sodipodi:version="0.32"
   inkscape:version="0.46"
   sodipodi:docname="centos-5.svg"
   inkscape:output_extension="org.inkscape.output.svg.inkscape"
   version="1.0">
  <defs
     id="defs3396">
    <inkscape:perspective
       sodipodi:type="inkscape:persp3d"
       inkscape:vp_x="0 : 48 : 1"
       inkscape:vp_y="0 : 1000 : 0"
       inkscape:vp_z="344.09 : 48 : 1"
       inkscape:persp3d-origin="172.045 : 32 : 1"
       id="perspective2452" />
  </defs>
  <sodipodi:namedview
     id="base"
     pagecolor="#ffffff"
     bordercolor="#ababab"
     borderopacity="1"
     gridtolerance="10000"
     guidetolerance="10"
     objecttolerance="10"
     inkscape:pageopacity="0.0"
     inkscape:pageshadow="2"
     inkscape:zoom="2.502269"
     inkscape:cx="172.04385"
     inkscape:cy="46.957602"
     inkscape:document-units="mm"
     inkscape:current-layer="layer1"
     showgrid="false"
     showborder="true"
     inkscape:showpageshadow="false"
     guidecolor="#3c3cff"
     guideopacity="0.60392157"
     inkscape:window-width="1360"
     inkscape:window-height="693"
     inkscape:window-x="0"
     inkscape:window-y="25"
     units="mm"
     showguides="true"
     inkscape:guide-bbox="true">
    <inkscape:grid
       type="xygrid"
       id="grid3564"
       visible="true"
       enabled="true"
       color="#0097ff"
       opacity="0.1254902"
       empcolor="#0096ff"
       empopacity="0.25098039"
       units="mm"
       spacingx="1mm"
       spacingy="1mm" />
  </sodipodi:namedview>
  <metadata
     id="CENTOSMETADATA">
    <rdf:RDF>
      <cc:Work
         rdf:about="">
        <dc:format>image/svg+xml</dc:format>
        <dc:type
           rdf:resource="http://purl.org/dc/dcmitype/StillImage" />
        <cc:license
           rdf:resource="http://creativecommons.org/licenses/by-sa/3.0/" />
        <dc:title>centos-5.svg</dc:title>
        <dc:date>2011-07-29</dc:date>
        <dc:creator>
          <cc:Agent>
            <dc:title>The CentOS Artwork SIG</dc:title>
          </cc:Agent>
        </dc:creator>
        <dc:rights>
          <cc:Agent>
            <dc:title>The CentOS Artwork SIG</dc:title>
          </cc:Agent>
        </dc:rights>
        <dc:publisher>
          <cc:Agent>
            <dc:title>The CentOS Artwork SIG</dc:title>
          </cc:Agent>
        </dc:publisher>
        <dc:identifier>https://projects.centos.org/svn/artwork/trunk/Identity/Models/Brands/Types/Black/centos-5.svg</dc:identifier>
        <dc:source>https://projects.centos.org/svn/artwork/trunk/Identity/Models/Brands/Types/Black/centos-5.svg</dc:source>
        <dc:relation>https://projects.centos.org/svn/artwork/trunk/Identity/Models/Brands/Types/Black/centos-5.svg</dc:relation>
        <dc:language>en_US</dc:language>
        <dc:subject>
          <rdf:Bag>
            <rdf:li>Identity</rdf:li>
            <rdf:li>Models</rdf:li>
            <rdf:li>Brands</rdf:li>
            <rdf:li>Types</rdf:li>
            <rdf:li>Black</rdf:li>
          </rdf:Bag>
        </dc:subject>
        <dc:coverage>The CentOS Artwork SIG</dc:coverage>
        <dc:description />
        <dc:contributor />
      </cc:Work>
      <cc:License
         rdf:about="http://creativecommons.org/licenses/by-sa/3.0/">
        <cc:permits
           rdf:resource="http://creativecommons.org/ns#Reproduction" />
        <cc:permits
           rdf:resource="http://creativecommons.org/ns#Distribution" />
        <cc:requires
           rdf:resource="http://creativecommons.org/ns#Notice" />
        <cc:requires
           rdf:resource="http://creativecommons.org/ns#Attribution" />
        <cc:permits
           rdf:resource="http://creativecommons.org/ns#DerivativeWorks" />
        <cc:requires
           rdf:resource="http://creativecommons.org/ns#ShareAlike" />
      </cc:License>
    </rdf:RDF>
  </metadata>
  <g
     inkscape:label="Layer 1"
     inkscape:groupmode="layer"
     id="layer1"
     transform="translate(-356.4824,-442.96411)">
    <g
       id="CENTOSARTWORK"
       inkscape:label="#g2457">
      <path
         style="font-size:72.70541382000000397px;font-style:normal;font-variant:normal;font-weight:200;font-stretch:normal;text-align:start;line-height:125%;writing-mode:lr-tb;text-anchor:start;fill:#8f6e9e;fill-opacity:1;stroke:none;stroke-width:2.48031496999999979;stroke-linecap:butt;stroke-linejoin:miter;stroke-miterlimit:4;stroke-dasharray:none;stroke-opacity:1;display:inline;font-family:Denmark;-inkscape-font-specification:Denmark Ultra-Light"
         clip-path="none"
         d="M 393.14498,538.16853 L 373.94373,538.16853 C 371.99665,538.16853 370.07032,537.88124 368.16471,537.30666 C 364.47773,536.11328 361.55715,533.37296 359.40297,529.08567 C 357.45592,525.19618 356.48239,520.66579 356.4824,515.4945 C 356.48239,510.50005 357.35235,506.08017 359.09227,502.23483 C 360.99789,497.99178 363.71133,495.09675 367.23261,493.54974 C 369.96675,492.35643 372.76305,491.75974 375.6215,491.7597 L 393.0207,491.7597 L 393.0207,500.64367 L 374.93796,500.64367 C 371.99665,500.64371 369.86319,502.34537 368.53755,505.74864 C 367.50187,508.40061 366.98404,511.87021 366.98405,516.15748 C 366.98404,519.78181 367.64686,522.85363 368.97252,525.37295 C 370.5053,528.33429 372.65949,529.81495 375.43509,529.81494 L 393.14498,529.74864 L 393.14498,538.16853 M 425.12375,538.36742 L 409.9616,538.36742 C 406.27462,538.36742 403.06406,536.68787 400.3299,533.32875 C 397.63718,529.92545 396.29081,526.01384 396.29081,521.59395 C 396.29081,516.77629 397.76145,512.6216 400.70274,509.12986 C 403.68546,505.59398 406.99958,503.82603 410.64514,503.82599 L 425.06162,503.82599 L 425.06162,510.91992 L 414.49782,510.91992 C 413.17215,510.91994 412.03291,511.05253 411.08013,511.3177 C 410.16872,511.53873 409.31947,512.00281 408.53238,512.70997 C 407.08244,514.03596 406.35747,515.82601 406.35749,518.08014 L 424.99948,518.08014 L 424.99948,525.24036 L 406.41962,525.24036 C 406.41961,526.30114 406.52317,527.20722 406.73032,527.95859 C 406.97887,528.66578 407.45527,529.39506 408.15954,530.14643 C 408.86379,530.85362 409.69232,531.33981 410.64514,531.60499 C 411.63937,531.826 412.84074,531.93649 414.24925,531.93649 L 425.12375,531.93649 L 425.12375,538.36742 M 460.55908,538.16853 L 451.92162,538.16853 L 451.92162,515.5608 C 451.92159,514.98623 451.79732,514.47795 451.54877,514.03594 C 451.30019,513.54977 450.94807,513.08568 450.49239,512.64367 C 449.66385,511.89232 448.71104,511.51663 447.63396,511.5166 L 439.18293,511.5166 L 439.18293,538.16853 L 430.54547,538.16853 L 430.54547,503.82599 L 447.07469,503.82599 C 450.01598,503.82603 452.14943,504.00282 453.47511,504.35638 C 455.54642,504.88681 457.20348,506.05807 458.44632,507.87019 C 459.85479,509.99177 460.55904,512.3122 460.55908,514.83152 L 460.55908,538.16853 M 485.36652,510.98622 L 476.97761,510.98622 L 476.97761,526.56632 C 476.9776,527.9807 477.43329,529.15197 478.34469,530.08014 C 479.38034,531.00832 480.74743,531.47241 482.44594,531.4724 L 484.99367,531.4724 L 484.99367,538.16853 L 476.97761,538.16853 C 474.57486,538.16853 472.52425,537.24035 470.82576,535.384 C 469.83151,534.27904 469.1894,533.06357 468.89942,531.7376 C 468.60943,530.41163 468.46444,528.84258 468.46444,527.03041 L 468.46444,510.98622 L 462.99613,510.98622 L 462.99613,503.82599 L 468.46444,503.82599 L 468.46444,491.7597 L 476.97761,491.7597 L 476.97761,503.82599 L 485.36652,503.82599 L 485.36652,510.98622 M 536.07565,514.89782 C 536.07555,523.9144 533.73498,530.36743 529.05382,534.25693 C 525.24254,537.39505 519.69136,538.96411 512.40031,538.96411 C 504.3221,538.96411 498.35667,537.15195 494.504,533.52765 C 490.27847,529.54976 488.16572,523.16302 488.16572,514.36742 C 488.16572,507.16304 490.05063,501.54979 493.82046,497.52765 C 497.92169,493.152 504.05282,490.96416 512.21389,490.96411 C 521.20345,490.96416 527.54171,493.06361 531.22873,497.26246 C 534.45996,500.9752 536.07555,506.85365 536.07565,514.89782 M 525.01472,514.63263 C 525.01469,510.08017 523.99973,506.45586 521.96986,503.7597 C 519.69136,500.7542 516.31509,499.25145 511.84106,499.25141 C 507.44979,499.25145 504.13567,500.86471 501.89866,504.09118 C 500.03444,506.78735 499.10235,510.30116 499.10236,514.63263 C 499.10235,519.62712 499.84802,523.31772 501.33939,525.70445 C 503.41072,529.01937 507.24267,530.67683 512.83529,530.67683 C 517.5579,530.67683 520.87203,529.06357 522.77769,525.83704 C 524.269,523.31772 525.01469,519.58292 525.01472,514.63263 M 585.81573,523.78179 C 585.81567,527.8481 584.55218,531.27351 582.02522,534.05803 C 579.49816,536.84257 576.28754,538.23483 572.39354,538.23483 L 541.63423,538.16853 L 541.63423,529.81494 L 566.98733,529.81494 C 568.68582,529.81495 570.11502,529.39506 571.27501,528.55527 C 572.60059,527.58291 573.26344,526.25694 573.26348,524.57738 C 573.26344,520.64368 570.65357,518.67684 565.43386,518.67682 L 552.63302,518.67682 C 548.94601,518.67684 545.71473,517.46137 542.93917,515.03041 C 540.16357,512.5995 538.77579,509.50557 538.77579,505.74864 C 538.77579,501.59398 540.12212,498.23487 542.8149,495.6713 C 545.54904,493.06361 549.13244,491.75974 553.56511,491.7597 L 582.95729,491.7597 L 582.95729,499.7155 L 557.04495,499.7155 C 555.88497,499.71553 554.70433,500.24592 553.50299,501.30666 C 552.343,502.32326 551.76302,503.53873 551.76305,504.95306 C 551.76302,506.54425 552.32231,507.89232 553.44082,508.99726 C 554.60074,510.05806 555.98859,510.58846 557.60421,510.58842 L 571.70997,510.58842 C 576.10113,510.58846 579.53958,511.80392 582.02522,514.23483 C 584.55218,516.62159 585.81567,519.80391 585.81573,523.78179"
         id="text2460"
         inkscape:label="#text2460" />
      <path
         id="text2461"
         d="M 700.57009,508.79268 C 700.57,518.75842 696.59286,526.43841 688.63866,531.83268 C 681.69002,536.58697 672.9586,538.96411 662.44438,538.96411 L 615.81581,538.96411 L 615.81581,521.13554 L 663.67866,521.13554 C 667.24432,521.13556 670.30717,519.90127 672.86724,517.43268 C 675.42717,514.96414 676.52431,511.90128 676.15866,508.24411 C 676.1586,505.50129 675.06146,503.16986 672.86724,501.24983 C 670.30717,499.05558 666.83289,497.95844 662.44438,497.9584 L 615.81581,497.9584 L 615.81581,442.96411 L 694.94724,442.96411 L 694.94724,459.69554 L 638.17009,459.69554 L 638.03295,481.08983 L 671.63295,481.08983 C 680.13574,481.08989 687.0843,483.64988 692.47866,488.76983 C 697.87286,493.88987 700.57,500.56415 700.57009,508.79268"
         style="font-size:137.14285277999999835px;font-style:normal;font-variant:normal;font-weight:200;font-stretch:normal;text-indent:0;text-align:start;text-decoration:none;line-height:125%;letter-spacing:normal;word-spacing:normal;text-transform:none;direction:ltr;block-progression:tb;writing-mode:lr-tb;text-anchor:start;fill:#8f6e9e;fill-opacity:1;fill-rule:nonzero;stroke:none;stroke-width:1px;stroke-linecap:butt;stroke-linejoin:miter;stroke-miterlimit:4;stroke-dashoffset:0;stroke-opacity:1;marker:none;marker-start:none;marker-mid:none;marker-end:none;visibility:visible;display:inline;overflow:visible;enable-background:accumulate;font-family:Denmark;-inkscape-font-specification:Denmark Ultra-Light" />
    </g>
  </g>
</svg>
