<?xml version="1.0" encoding="UTF-8" standalone="no"?>
<!-- Created with Inkscape (http://www.inkscape.org/) -->
<svg
   xmlns:dc="http://purl.org/dc/elements/1.1/"
   xmlns:cc="http://creativecommons.org/ns#"
   xmlns:rdf="http://www.w3.org/1999/02/22-rdf-syntax-ns#"
   xmlns:svg="http://www.w3.org/2000/svg"
   xmlns="http://www.w3.org/2000/svg"
   xmlns:sodipodi="http://sodipodi.sourceforge.net/DTD/sodipodi-0.dtd"
   xmlns:inkscape="http://www.inkscape.org/namespaces/inkscape"
   width="672.24542"
   height="146.51428"
   id="svg3394"
   sodipodi:version="0.32"
   inkscape:version="0.46"
   sodipodi:docname="centos-5-msg.svg"
   inkscape:output_extension="org.inkscape.output.svg.inkscape"
   version="1.0">
  <defs
     id="defs3396">
    <inkscape:perspective
       sodipodi:type="inkscape:persp3d"
       inkscape:vp_x="0 : 48 : 1"
       inkscape:vp_y="0 : 1000 : 0"
       inkscape:vp_z="344.09 : 48 : 1"
       inkscape:persp3d-origin="172.045 : 32 : 1"
       id="perspective2452" />
  </defs>
  <sodipodi:namedview
     id="base"
     pagecolor="#ffffff"
     bordercolor="#ababab"
     borderopacity="1"
     gridtolerance="10000"
     guidetolerance="10"
     objecttolerance="10"
     inkscape:pageopacity="0.0"
     inkscape:pageshadow="2"
     inkscape:zoom="1.2778071"
     inkscape:cx="336.12271"
     inkscape:cy="73.257141"
     inkscape:document-units="mm"
     inkscape:current-layer="layer1"
     showgrid="false"
     showborder="true"
     inkscape:showpageshadow="false"
     guidecolor="#3c3cff"
     guideopacity="0.60392157"
     inkscape:window-width="1360"
     inkscape:window-height="693"
     inkscape:window-x="0"
     inkscape:window-y="25"
     units="mm"
     showguides="true"
     inkscape:guide-bbox="true">
    <inkscape:grid
       type="xygrid"
       id="grid3564"
       visible="true"
       enabled="true"
       color="#0097ff"
       opacity="0.1254902"
       empcolor="#0096ff"
       empopacity="0.25098039"
       units="mm"
       spacingx="1mm"
       spacingy="1mm" />
  </sodipodi:namedview>
  <metadata
     id="CENTOSMETADATA">
    <rdf:RDF>
      <cc:Work
         rdf:about="">
        <dc:format>image/svg+xml</dc:format>
        <dc:type
           rdf:resource="http://purl.org/dc/dcmitype/StillImage" />
        <cc:license
           rdf:resource="http://creativecommons.org/licenses/by-sa/3.0/" />
        <dc:title>centos-5.svg</dc:title>
        <dc:date>2011-07-29</dc:date>
        <dc:creator>
          <cc:Agent>
            <dc:title>The CentOS Artwork SIG</dc:title>
          </cc:Agent>
        </dc:creator>
        <dc:rights>
          <cc:Agent>
            <dc:title>The CentOS Artwork SIG</dc:title>
          </cc:Agent>
        </dc:rights>
        <dc:publisher>
          <cc:Agent>
            <dc:title>The CentOS Artwork SIG</dc:title>
          </cc:Agent>
        </dc:publisher>
        <dc:identifier>https://projects.centos.org/svn/artwork/trunk/Identity/Models/Brands/Types/Black/centos-5.svg</dc:identifier>
        <dc:source>https://projects.centos.org/svn/artwork/trunk/Identity/Models/Brands/Types/Black/centos-5.svg</dc:source>
        <dc:relation>https://projects.centos.org/svn/artwork/trunk/Identity/Models/Brands/Types/Black/centos-5.svg</dc:relation>
        <dc:language>en_US</dc:language>
        <dc:subject>
          <rdf:Bag>
            <rdf:li>Identity</rdf:li>
            <rdf:li>Models</rdf:li>
            <rdf:li>Brands</rdf:li>
            <rdf:li>Types</rdf:li>
            <rdf:li>Black</rdf:li>
          </rdf:Bag>
        </dc:subject>
        <dc:coverage>The CentOS Artwork SIG</dc:coverage>
        <dc:description />
        <dc:contributor />
      </cc:Work>
      <cc:License
         rdf:about="http://creativecommons.org/licenses/by-sa/3.0/">
        <cc:permits
           rdf:resource="http://creativecommons.org/ns#Reproduction" />
        <cc:permits
           rdf:resource="http://creativecommons.org/ns#Distribution" />
        <cc:requires
           rdf:resource="http://creativecommons.org/ns#Notice" />
        <cc:requires
           rdf:resource="http://creativecommons.org/ns#Attribution" />
        <cc:permits
           rdf:resource="http://creativecommons.org/ns#DerivativeWorks" />
        <cc:requires
           rdf:resource="http://creativecommons.org/ns#ShareAlike" />
      </cc:License>
    </rdf:RDF>
  </metadata>
  <g
     inkscape:label="Layer 1"
     inkscape:groupmode="layer"
     id="layer1"
     transform="translate(-356.4824,-442.96411)">
    <g
       id="CENTOSARTWORK"
       inkscape:label="#g2479"
       style="fill:#8f6e9e">
      <path
         style="font-size:72.70541382000000397px;font-style:normal;font-variant:normal;font-weight:200;font-stretch:normal;text-align:start;line-height:125%;writing-mode:lr-tb;text-anchor:start;fill:#8f6e9e;fill-opacity:1;stroke:none;stroke-width:2.48031496999999979;stroke-linecap:butt;stroke-linejoin:miter;stroke-miterlimit:4;stroke-dasharray:none;stroke-opacity:1;display:inline;font-family:Denmark;-inkscape-font-specification:Denmark Ultra-Light"
         clip-path="none"
         d="M 393.14498,538.16853 L 373.94373,538.16853 C 371.99665,538.16853 370.07032,537.88124 368.16471,537.30666 C 364.47773,536.11328 361.55715,533.37296 359.40297,529.08567 C 357.45592,525.19618 356.48239,520.66579 356.4824,515.4945 C 356.48239,510.50005 357.35235,506.08017 359.09227,502.23483 C 360.99789,497.99178 363.71133,495.09675 367.23261,493.54974 C 369.96675,492.35643 372.76305,491.75974 375.6215,491.7597 L 393.0207,491.7597 L 393.0207,500.64367 L 374.93796,500.64367 C 371.99665,500.64371 369.86319,502.34537 368.53755,505.74864 C 367.50187,508.40061 366.98404,511.87021 366.98405,516.15748 C 366.98404,519.78181 367.64686,522.85363 368.97252,525.37295 C 370.5053,528.33429 372.65949,529.81495 375.43509,529.81494 L 393.14498,529.74864 L 393.14498,538.16853 M 425.12375,538.36742 L 409.9616,538.36742 C 406.27462,538.36742 403.06406,536.68787 400.3299,533.32875 C 397.63718,529.92545 396.29081,526.01384 396.29081,521.59395 C 396.29081,516.77629 397.76145,512.6216 400.70274,509.12986 C 403.68546,505.59398 406.99958,503.82603 410.64514,503.82599 L 425.06162,503.82599 L 425.06162,510.91992 L 414.49782,510.91992 C 413.17215,510.91994 412.03291,511.05253 411.08013,511.3177 C 410.16872,511.53873 409.31947,512.00281 408.53238,512.70997 C 407.08244,514.03596 406.35747,515.82601 406.35749,518.08014 L 424.99948,518.08014 L 424.99948,525.24036 L 406.41962,525.24036 C 406.41961,526.30114 406.52317,527.20722 406.73032,527.95859 C 406.97887,528.66578 407.45527,529.39506 408.15954,530.14643 C 408.86379,530.85362 409.69232,531.33981 410.64514,531.60499 C 411.63937,531.826 412.84074,531.93649 414.24925,531.93649 L 425.12375,531.93649 L 425.12375,538.36742 M 460.55908,538.16853 L 451.92162,538.16853 L 451.92162,515.5608 C 451.92159,514.98623 451.79732,514.47795 451.54877,514.03594 C 451.30019,513.54977 450.94807,513.08568 450.49239,512.64367 C 449.66385,511.89232 448.71104,511.51663 447.63396,511.5166 L 439.18293,511.5166 L 439.18293,538.16853 L 430.54547,538.16853 L 430.54547,503.82599 L 447.07469,503.82599 C 450.01598,503.82603 452.14943,504.00282 453.47511,504.35638 C 455.54642,504.88681 457.20348,506.05807 458.44632,507.87019 C 459.85479,509.99177 460.55904,512.3122 460.55908,514.83152 L 460.55908,538.16853 M 485.36652,510.98622 L 476.97761,510.98622 L 476.97761,526.56632 C 476.9776,527.9807 477.43329,529.15197 478.34469,530.08014 C 479.38034,531.00832 480.74743,531.47241 482.44594,531.4724 L 484.99367,531.4724 L 484.99367,538.16853 L 476.97761,538.16853 C 474.57486,538.16853 472.52425,537.24035 470.82576,535.384 C 469.83151,534.27904 469.1894,533.06357 468.89942,531.7376 C 468.60943,530.41163 468.46444,528.84258 468.46444,527.03041 L 468.46444,510.98622 L 462.99613,510.98622 L 462.99613,503.82599 L 468.46444,503.82599 L 468.46444,491.7597 L 476.97761,491.7597 L 476.97761,503.82599 L 485.36652,503.82599 L 485.36652,510.98622 M 536.07565,514.89782 C 536.07555,523.9144 533.73498,530.36743 529.05382,534.25693 C 525.24254,537.39505 519.69136,538.96411 512.40031,538.96411 C 504.3221,538.96411 498.35667,537.15195 494.504,533.52765 C 490.27847,529.54976 488.16572,523.16302 488.16572,514.36742 C 488.16572,507.16304 490.05063,501.54979 493.82046,497.52765 C 497.92169,493.152 504.05282,490.96416 512.21389,490.96411 C 521.20345,490.96416 527.54171,493.06361 531.22873,497.26246 C 534.45996,500.9752 536.07555,506.85365 536.07565,514.89782 M 525.01472,514.63263 C 525.01469,510.08017 523.99973,506.45586 521.96986,503.7597 C 519.69136,500.7542 516.31509,499.25145 511.84106,499.25141 C 507.44979,499.25145 504.13567,500.86471 501.89866,504.09118 C 500.03444,506.78735 499.10235,510.30116 499.10236,514.63263 C 499.10235,519.62712 499.84802,523.31772 501.33939,525.70445 C 503.41072,529.01937 507.24267,530.67683 512.83529,530.67683 C 517.5579,530.67683 520.87203,529.06357 522.77769,525.83704 C 524.269,523.31772 525.01469,519.58292 525.01472,514.63263 M 585.81573,523.78179 C 585.81567,527.8481 584.55218,531.27351 582.02522,534.05803 C 579.49816,536.84257 576.28754,538.23483 572.39354,538.23483 L 541.63423,538.16853 L 541.63423,529.81494 L 566.98733,529.81494 C 568.68582,529.81495 570.11502,529.39506 571.27501,528.55527 C 572.60059,527.58291 573.26344,526.25694 573.26348,524.57738 C 573.26344,520.64368 570.65357,518.67684 565.43386,518.67682 L 552.63302,518.67682 C 548.94601,518.67684 545.71473,517.46137 542.93917,515.03041 C 540.16357,512.5995 538.77579,509.50557 538.77579,505.74864 C 538.77579,501.59398 540.12212,498.23487 542.8149,495.6713 C 545.54904,493.06361 549.13244,491.75974 553.56511,491.7597 L 582.95729,491.7597 L 582.95729,499.7155 L 557.04495,499.7155 C 555.88497,499.71553 554.70433,500.24592 553.50299,501.30666 C 552.343,502.32326 551.76302,503.53873 551.76305,504.95306 C 551.76302,506.54425 552.32231,507.89232 553.44082,508.99726 C 554.60074,510.05806 555.98859,510.58846 557.60421,510.58842 L 571.70997,510.58842 C 576.10113,510.58846 579.53958,511.80392 582.02522,514.23483 C 584.55218,516.62159 585.81567,519.80391 585.81573,523.78179"
         id="text2460"
         inkscape:label="#text2460" />
      <path
         id="text2461"
         d="M 700.56968,508.79268 C 700.56959,518.75842 696.59245,526.43841 688.63825,531.83268 C 681.68961,536.58697 672.95819,538.96411 662.44397,538.96411 L 615.8154,538.96411 L 615.8154,521.13554 L 663.67825,521.13554 C 667.24391,521.13556 670.30676,519.90127 672.86683,517.43268 C 675.42676,514.96414 676.5239,511.90128 676.15825,508.24411 C 676.15819,505.50129 675.06105,503.16986 672.86683,501.24983 C 670.30676,499.05558 666.83248,497.95844 662.44397,497.9584 L 615.8154,497.9584 L 615.8154,442.96411 L 694.94683,442.96411 L 694.94683,459.69554 L 638.16968,459.69554 L 638.03254,481.08983 L 671.63254,481.08983 C 680.13533,481.08989 687.08389,483.64988 692.47825,488.76983 C 697.87245,493.88987 700.56959,500.56415 700.56968,508.79268"
         style="font-size:137.14285277999999835px;font-style:normal;font-variant:normal;font-weight:200;font-stretch:normal;text-indent:0;text-align:start;text-decoration:none;line-height:125%;letter-spacing:normal;word-spacing:normal;text-transform:none;direction:ltr;block-progression:tb;writing-mode:lr-tb;text-anchor:start;fill:#8f6e9e;fill-opacity:1;fill-rule:nonzero;stroke:none;stroke-width:1px;stroke-linecap:butt;stroke-linejoin:miter;marker:none;marker-start:none;marker-mid:none;marker-end:none;stroke-miterlimit:4;stroke-dashoffset:0;stroke-opacity:1;visibility:visible;display:inline;overflow:visible;enable-background:accumulate;font-family:Denmark;-inkscape-font-specification:Denmark Ultra-Light" />
      <path
         style="font-size:34.28571320000000355px;font-style:normal;font-variant:normal;font-weight:200;font-stretch:normal;text-indent:0;text-align:start;text-decoration:none;line-height:125%;letter-spacing:normal;word-spacing:normal;text-transform:none;direction:ltr;block-progression:tb;writing-mode:lr-tb;text-anchor:start;fill:#8f6e9e;fill-opacity:1;fill-rule:nonzero;stroke:none;stroke-width:1px;stroke-linecap:butt;stroke-linejoin:miter;marker:none;marker-start:none;marker-mid:none;marker-end:none;stroke-miterlimit:4;stroke-dashoffset:0;stroke-opacity:1;visibility:visible;display:inline;overflow:visible;enable-background:accumulate;font-family:Denmark;-inkscape-font-specification:Denmark Ultra-Light"
         d="M 378.69956,582.96411 L 368.10527,582.96411 C 367.03097,582.96411 365.96812,582.81554 364.9167,582.5184 C 362.88241,581.90126 361.27098,580.48411 360.08241,578.26697 C 359.00813,576.25555 358.47098,573.91269 358.47098,571.2384 C 358.47098,568.65555 358.95098,566.36984 359.91098,564.38125 C 360.96241,562.18699 362.45955,560.68985 364.40241,559.88983 C 365.91098,559.27271 367.45383,558.96414 369.03098,558.96411 L 378.63098,558.96411 L 378.63098,563.5584 L 368.65384,563.5584 C 367.03097,563.55842 365.85383,564.43842 365.12241,566.1984 C 364.55098,567.56984 364.26526,569.36413 364.26527,571.58125 C 364.26526,573.45555 364.63098,575.04412 365.36241,576.34697 C 366.20812,577.8784 367.39669,578.64412 368.92813,578.64411 L 378.69956,578.60983 L 378.69956,582.96411 M 400.97241,574.01554 C 400.97239,577.10126 399.98953,579.46697 398.02384,581.11268 C 396.21811,582.62125 393.76097,583.37554 390.65241,583.37554 C 387.54383,583.37554 385.13241,582.68983 383.41813,581.3184 C 381.42955,579.74126 380.43527,577.28412 380.43527,573.94697 C 380.43527,571.15841 381.50955,568.96413 383.65813,567.36411 C 385.57812,565.92413 387.94383,565.20413 390.75527,565.20411 C 393.84097,565.20413 396.30954,565.98127 398.16098,567.53554 C 400.03525,569.06698 400.97239,571.22698 400.97241,574.01554 M 395.65813,573.98125 C 395.65811,572.54126 395.20097,571.34127 394.2867,570.38125 C 393.39526,569.39841 392.1724,568.90698 390.61813,568.90697 C 389.20097,568.90698 388.02383,569.40984 387.0867,570.41554 C 386.17241,571.39841 385.71526,572.64412 385.71527,574.15268 C 385.71526,575.88983 386.18383,577.27269 387.12098,578.30125 C 388.05812,579.32983 389.26955,579.84411 390.75527,579.84411 C 392.44668,579.84411 393.70383,579.30697 394.5267,578.23268 C 395.28097,577.24983 395.65811,575.83269 395.65813,573.98125 M 428.79473,582.9984 L 424.16616,582.9984 L 424.16616,571.85554 C 424.16614,571.42127 424.12042,571.07841 424.02902,570.82697 C 423.93757,570.57555 423.75471,570.3127 423.48045,570.0384 C 423.20614,569.74127 422.93185,569.53555 422.65759,569.42125 C 422.38328,569.28413 422.06328,569.21555 421.69759,569.21554 L 418.3033,569.21554 L 418.3033,582.9984 L 413.60616,582.9984 L 413.60616,569.11268 L 408.08616,569.11268 L 408.08616,582.96411 L 403.28616,582.96411 L 403.28616,565.20411 L 422.31473,565.20411 C 423.50328,565.20413 424.44042,565.31842 425.12616,565.54697 C 425.81185,565.7527 426.48614,566.20984 427.14902,566.9184 C 427.67471,567.48984 428.07471,568.04984 428.34902,568.5984 C 428.64613,569.14698 428.79471,569.74127 428.79473,570.38125 L 428.79473,582.9984 M 457.18759,582.9984 L 452.55902,582.9984 L 452.55902,571.85554 C 452.559,571.42127 452.51329,571.07841 452.42188,570.82697 C 452.33043,570.57555 452.14757,570.3127 451.87331,570.0384 C 451.599,569.74127 451.32471,569.53555 451.05045,569.42125 C 450.77614,569.28413 450.45614,569.21555 450.09045,569.21554 L 446.69616,569.21554 L 446.69616,582.9984 L 441.99902,582.9984 L 441.99902,569.11268 L 436.47902,569.11268 L 436.47902,582.96411 L 431.67902,582.96411 L 431.67902,565.20411 L 450.70759,565.20411 C 451.89614,565.20413 452.83328,565.31842 453.51902,565.54697 C 454.20471,565.7527 454.879,566.20984 455.54188,566.9184 C 456.06757,567.48984 456.46757,568.04984 456.74188,568.5984 C 457.03899,569.14698 457.18757,569.74127 457.18759,570.38125 L 457.18759,582.9984 M 476.63187,582.96411 L 467.51188,582.96411 C 465.8433,582.96411 464.66615,582.88411 463.98045,582.72411 C 462.83759,582.44983 461.9233,581.85554 461.23759,580.94125 C 460.46044,579.88983 460.07187,578.68983 460.07188,577.34125 L 460.07188,565.20411 L 464.83759,565.20411 L 464.83759,576.96411 C 464.83758,577.53555 465.08901,578.02697 465.59188,578.4384 C 466.09472,578.84983 466.63187,579.05554 467.2033,579.05554 L 471.86616,579.05554 L 471.86616,565.20411 L 476.63187,565.20411 L 476.63187,582.96411 M 496.25241,582.96411 L 491.4867,582.96411 L 491.4867,571.27268 C 491.48668,570.97555 491.41811,570.7127 491.28098,570.48411 C 491.14383,570.2327 490.94954,569.9927 490.69813,569.76411 C 490.24097,569.37555 489.71526,569.18127 489.12098,569.18125 L 484.45813,569.18125 L 484.45813,582.96411 L 479.69241,582.96411 L 479.69241,565.20411 L 488.81241,565.20411 C 490.43526,565.20413 491.6124,565.29556 492.34384,565.4784 C 493.48668,565.7527 494.40097,566.35841 495.0867,567.29554 C 495.86382,568.3927 496.25239,569.5927 496.25241,570.89554 L 496.25241,582.96411 M 504.11133,563.18125 L 499.3799,563.18125 L 499.3799,558.96411 L 504.11133,558.96411 L 504.11133,563.18125 M 504.1799,582.96411 L 499.3799,582.96411 L 499.3799,565.20411 L 504.1799,565.20411 L 504.1799,582.96411 M 517.97563,568.90697 L 513.34705,568.90697 L 513.34705,576.96411 C 513.34705,577.69555 513.59847,578.30126 514.10134,578.78125 C 514.67276,579.26126 515.42704,579.50126 516.3642,579.50125 L 517.76991,579.50125 L 517.76991,582.96411 L 513.34705,582.96411 C 512.02133,582.96411 510.88991,582.48411 509.95277,581.52411 C 509.40419,580.95268 509.04991,580.32411 508.88991,579.6384 C 508.72991,578.95269 508.64991,578.14126 508.64991,577.20411 L 508.64991,568.90697 L 505.63277,568.90697 L 505.63277,565.20411 L 508.64991,565.20411 L 508.64991,558.96411 L 513.34705,558.96411 L 513.34705,565.20411 L 517.97563,565.20411 L 517.97563,568.90697 M 537.21152,565.20411 L 537.17723,583.7184 C 537.17721,584.49554 537.01721,585.19268 536.69723,585.80983 C 536.37721,586.44982 535.95436,587.00982 535.42866,587.48983 C 534.62864,588.17553 533.80579,588.64411 532.96009,588.89554 C 532.11436,589.14696 531.09722,589.27268 529.90866,589.27268 L 520.58294,589.27268 L 520.58294,585.56983 L 530.2858,585.56983 C 530.72007,585.56982 531.1315,585.42125 531.52009,585.12411 C 532.04579,584.71268 532.30864,584.23268 532.30866,583.68411 L 532.30866,582.9984 L 526.82294,582.9984 C 525.77151,582.9984 524.88008,582.88411 524.14866,582.65554 C 523.41723,582.40411 522.70865,581.93554 522.02294,581.24983 C 520.81151,580.06126 520.2058,578.58697 520.2058,576.82697 L 520.2058,565.20411 L 525.21152,565.20411 L 525.17723,576.58697 C 525.17722,577.04412 525.20008,577.38697 525.2458,577.61554 C 525.31437,577.84412 525.47437,578.09554 525.7258,578.36983 C 526.00008,578.64412 526.30865,578.8384 526.65152,578.95268 C 526.99436,579.04412 527.41722,579.08983 527.92009,579.08983 L 532.27437,579.08983 L 532.27437,565.20411 L 537.21152,565.20411 M 575.35974,582.96411 L 563.66831,582.96411 C 561.86258,582.96411 560.12544,582.55268 558.45688,581.72983 C 556.65116,580.8384 555.2683,579.42126 554.30831,577.4784 C 553.37116,575.53555 552.90259,573.39841 552.90259,571.06697 C 552.90259,568.75841 553.35974,566.66699 554.27402,564.79268 C 555.27973,562.75842 556.67402,561.27271 558.45688,560.33554 C 559.43973,559.83271 560.37687,559.47842 561.26831,559.27268 C 562.18258,559.06699 563.22258,558.96414 564.38831,558.96411 L 575.22259,558.96411 L 575.22259,563.21554 L 565.21117,563.21554 C 564.31972,563.21556 563.56544,563.34127 562.94831,563.59268 C 562.35401,563.82127 561.75973,564.24413 561.16545,564.86125 C 560.57116,565.47842 560.15973,566.08413 559.93117,566.6784 C 559.70259,567.24984 559.5883,567.96984 559.58831,568.8384 L 575.35974,568.8384 L 575.35974,573.08983 L 559.65688,573.08983 C 559.65687,573.86698 559.75973,574.55269 559.96545,575.14697 C 560.17116,575.7184 560.53687,576.31269 561.06259,576.92983 C 561.61116,577.54697 562.17115,578.01555 562.74259,578.33554 C 563.33687,578.65554 564.03401,578.81554 564.83402,578.81554 L 575.35974,578.81554 L 575.35974,582.96411 M 594.35508,582.96411 L 589.58937,582.96411 L 589.58937,571.27268 C 589.58935,570.97555 589.52078,570.7127 589.38365,570.48411 C 589.2465,570.2327 589.05221,569.9927 588.80079,569.76411 C 588.34364,569.37555 587.81793,569.18127 587.22365,569.18125 L 582.5608,569.18125 L 582.5608,582.96411 L 577.79508,582.96411 L 577.79508,565.20411 L 586.91508,565.20411 C 588.53793,565.20413 589.71507,565.29556 590.44651,565.4784 C 591.58935,565.7527 592.50364,566.35841 593.18937,567.29554 C 593.96649,568.3927 594.35506,569.5927 594.35508,570.89554 L 594.35508,582.96411 M 608.04258,568.90697 L 603.41401,568.90697 L 603.41401,576.96411 C 603.414,577.69555 603.66543,578.30126 604.1683,578.78125 C 604.73971,579.26126 605.494,579.50126 606.43115,579.50125 L 607.83687,579.50125 L 607.83687,582.96411 L 603.41401,582.96411 C 602.08829,582.96411 600.95686,582.48411 600.01972,581.52411 C 599.47115,580.95268 599.11686,580.32411 598.95687,579.6384 C 598.79686,578.95269 598.71686,578.14126 598.71687,577.20411 L 598.71687,568.90697 L 595.69972,568.90697 L 595.69972,565.20411 L 598.71687,565.20411 L 598.71687,558.96411 L 603.41401,558.96411 L 603.41401,565.20411 L 608.04258,565.20411 L 608.04258,568.90697 M 625.49561,583.06697 L 617.1299,583.06697 C 615.09561,583.06697 613.32418,582.1984 611.81561,580.46125 C 610.3299,578.70126 609.58704,576.6784 609.58704,574.39268 C 609.58704,571.90127 610.39847,569.7527 612.02133,567.94697 C 613.66704,566.11841 615.49561,565.20413 617.50704,565.20411 L 625.46133,565.20411 L 625.46133,568.87268 L 619.63276,568.87268 C 618.90132,568.8727 618.27275,568.94127 617.74704,569.0784 C 617.24418,569.1927 616.77561,569.4327 616.34133,569.7984 C 615.54132,570.48412 615.14132,571.40984 615.14133,572.57554 L 625.42704,572.57554 L 625.42704,576.2784 L 615.17561,576.2784 C 615.17561,576.82697 615.23275,577.29555 615.34704,577.68411 C 615.48418,578.04983 615.74704,578.42697 616.13561,578.81554 C 616.52418,579.18126 616.98132,579.43269 617.50704,579.56983 C 618.0556,579.68411 618.71846,579.74126 619.49561,579.74125 L 625.49561,579.74125 L 625.49561,583.06697 M 638.53277,569.04411 L 633.21848,569.04411 L 633.21848,582.96411 L 628.48705,582.96411 L 628.48705,565.20411 L 633.25277,565.20411 L 633.25277,567.67268 C 633.50419,567.05556 633.81276,566.5527 634.17848,566.16411 C 634.54419,565.77556 635.02419,565.47842 635.61848,565.27268 C 635.89276,565.18127 636.17847,565.10127 636.47562,565.03268 C 636.79561,564.96413 637.11561,564.92984 637.43562,564.92983 C 637.82418,564.92984 638.1899,564.97556 638.53277,565.06697 L 638.53277,569.04411 M 658.80849,573.67268 C 658.80847,576.50698 658.06562,578.76983 656.57992,580.46125 C 655.11705,582.12983 653.18562,582.96411 650.78564,582.96411 L 645.60849,582.96411 L 645.60849,589.44411 L 640.80849,589.44411 L 640.80849,565.20411 L 650.33992,565.20411 C 653.03705,565.20413 655.13991,566.00413 656.64849,567.60411 C 658.08847,569.13555 658.80847,571.15841 658.80849,573.67268 M 653.93992,573.94697 C 653.93991,572.46127 653.45991,571.24984 652.49992,570.31268 C 651.56277,569.3527 650.38562,568.8727 648.96849,568.87268 L 645.60849,568.87268 L 645.60849,579.22697 L 649.31135,579.22697 C 650.68277,579.22697 651.79134,578.74697 652.63706,577.78697 C 653.50562,576.80412 653.93991,575.52412 653.93992,573.94697 M 671.21132,569.04411 L 665.89704,569.04411 L 665.89704,582.96411 L 661.16561,582.96411 L 661.16561,565.20411 L 665.93132,565.20411 L 665.93132,567.67268 C 666.18275,567.05556 666.49132,566.5527 666.85704,566.16411 C 667.22275,565.77556 667.70274,565.47842 668.29704,565.27268 C 668.57132,565.18127 668.85703,565.10127 669.15418,565.03268 C 669.47417,564.96413 669.79417,564.92984 670.11418,564.92983 C 670.50274,564.92984 670.86846,564.97556 671.21132,565.06697 L 671.21132,569.04411 M 678.21848,563.18125 L 673.48705,563.18125 L 673.48705,558.96411 L 678.21848,558.96411 L 678.21848,563.18125 M 678.28705,582.96411 L 673.48705,582.96411 L 673.48705,565.20411 L 678.28705,565.20411 L 678.28705,582.96411 M 698.04847,577.54697 C 698.04845,579.05554 697.55702,580.34697 696.57419,581.42125 C 695.61417,582.49554 694.39131,583.03268 692.90561,583.03268 L 681.14561,583.03268 L 681.14561,579.80983 L 690.81419,579.80983 C 691.49989,579.80983 692.07132,579.6384 692.52847,579.29554 C 693.00846,578.95269 693.24846,578.46126 693.24847,577.82125 C 693.24846,576.33555 692.24274,575.59269 690.23133,575.59268 L 685.29419,575.59268 C 684.24275,575.59269 683.22561,575.08983 682.24276,574.08411 C 681.2599,573.07841 680.76847,571.99269 680.76847,570.82697 C 680.76847,569.18127 681.13418,567.85556 681.86561,566.84983 C 682.71133,565.70699 683.95704,565.13556 685.60276,565.13554 L 696.91704,565.13554 L 696.91704,568.49554 L 686.83704,568.49554 C 686.44846,568.49555 686.10561,568.68984 685.80847,569.0784 C 685.53418,569.44413 685.39704,569.86698 685.39704,570.34697 C 685.39704,570.8727 685.57989,571.32984 685.94561,571.7184 C 686.33418,572.08412 686.79132,572.26698 687.31704,572.26697 L 692.63133,572.26697 C 694.29989,572.26698 695.61417,572.76984 696.57419,573.77554 C 697.55702,574.75841 698.04845,576.01555 698.04847,577.54697 M 715.62956,583.06697 L 707.26384,583.06697 C 705.22955,583.06697 703.45812,582.1984 701.94956,580.46125 C 700.46384,578.70126 699.72098,576.6784 699.72098,574.39268 C 699.72098,571.90127 700.53241,569.7527 702.15527,567.94697 C 703.80098,566.11841 705.62955,565.20413 707.64098,565.20411 L 715.59527,565.20411 L 715.59527,568.87268 L 709.7667,568.87268 C 709.03526,568.8727 708.40669,568.94127 707.88098,569.0784 C 707.37812,569.1927 706.90955,569.4327 706.47527,569.7984 C 705.67526,570.48412 705.27526,571.40984 705.27527,572.57554 L 715.56098,572.57554 L 715.56098,576.2784 L 705.30956,576.2784 C 705.30955,576.82697 705.36669,577.29555 705.48098,577.68411 C 705.61812,578.04983 705.88098,578.42697 706.26956,578.81554 C 706.65812,579.18126 707.11526,579.43269 707.64098,579.56983 C 708.18955,579.68411 708.8524,579.74126 709.62956,579.74125 L 715.62956,579.74125 L 715.62956,583.06697 M 757.56152,570.92983 C 757.56149,575.59269 756.27006,578.92983 753.68723,580.94125 C 751.58436,582.56411 748.5215,583.37554 744.49866,583.37554 C 740.04151,583.37554 736.75009,582.4384 734.62438,580.56411 C 732.29295,578.50697 731.12723,575.20412 731.12723,570.65554 C 731.12723,566.92984 732.16723,564.02699 734.24723,561.94697 C 736.51009,559.68414 739.89294,558.55271 744.39581,558.55268 C 749.35579,558.55271 752.85293,559.63842 754.88723,561.80983 C 756.67006,563.72985 757.56149,566.76984 757.56152,570.92983 M 751.45866,570.79268 C 751.45864,568.43841 750.89864,566.56413 749.77866,565.16983 C 748.5215,563.61556 746.65865,562.83842 744.19009,562.8384 C 741.76722,562.83842 739.93865,563.6727 738.70438,565.34125 C 737.6758,566.73556 737.16151,568.5527 737.16152,570.79268 C 737.16151,573.37555 737.57294,575.28412 738.39581,576.5184 C 739.53865,578.23269 741.65294,579.08983 744.73866,579.08983 C 747.34436,579.08983 749.17293,578.25554 750.22438,576.58697 C 751.04721,575.28412 751.45864,573.35269 751.45866,570.79268 M 777.73705,573.67268 C 777.73703,576.50698 776.99418,578.76983 775.50848,580.46125 C 774.04561,582.12983 772.11418,582.96411 769.71419,582.96411 L 764.53705,582.96411 L 764.53705,589.44411 L 759.73705,589.44411 L 759.73705,565.20411 L 769.26848,565.20411 C 771.96561,565.20413 774.06846,566.00413 775.57705,567.60411 C 777.01703,569.13555 777.73703,571.15841 777.73705,573.67268 M 772.86848,573.94697 C 772.86847,572.46127 772.38847,571.24984 771.42848,570.31268 C 770.49132,569.3527 769.31418,568.8727 767.89705,568.87268 L 764.53705,568.87268 L 764.53705,579.22697 L 768.23991,579.22697 C 769.61133,579.22697 770.7199,578.74697 771.56562,577.78697 C 772.43418,576.80412 772.86847,575.52412 772.86848,573.94697 M 795.31706,583.06697 L 786.95134,583.06697 C 784.91705,583.06697 783.14562,582.1984 781.63706,580.46125 C 780.15134,578.70126 779.40848,576.6784 779.40848,574.39268 C 779.40848,571.90127 780.21991,569.7527 781.84277,567.94697 C 783.48848,566.11841 785.31705,565.20413 787.32848,565.20411 L 795.28277,565.20411 L 795.28277,568.87268 L 789.4542,568.87268 C 788.72276,568.8727 788.09419,568.94127 787.56848,569.0784 C 787.06562,569.1927 786.59705,569.4327 786.16277,569.7984 C 785.36276,570.48412 784.96276,571.40984 784.96277,572.57554 L 795.24848,572.57554 L 795.24848,576.2784 L 784.99706,576.2784 C 784.99705,576.82697 785.05419,577.29555 785.16848,577.68411 C 785.30562,578.04983 785.56848,578.42697 785.95706,578.81554 C 786.34562,579.18126 786.80276,579.43269 787.32848,579.56983 C 787.87705,579.68411 788.5399,579.74126 789.31706,579.74125 L 795.31706,579.74125 L 795.31706,583.06697 M 808.35418,569.04411 L 803.03989,569.04411 L 803.03989,582.96411 L 798.30846,582.96411 L 798.30846,565.20411 L 803.07418,565.20411 L 803.07418,567.67268 C 803.3256,567.05556 803.63417,566.5527 803.99989,566.16411 C 804.3656,565.77556 804.8456,565.47842 805.43989,565.27268 C 805.71417,565.18127 805.99988,565.10127 806.29703,565.03268 C 806.61702,564.96413 806.93702,564.92984 807.25703,564.92983 C 807.64559,564.92984 808.01131,564.97556 808.35418,565.06697 L 808.35418,569.04411 M 827.97848,582.9984 L 815.15562,582.9984 C 813.71561,582.9984 812.48133,582.5184 811.45276,581.5584 C 810.44705,580.57554 809.94419,579.34126 809.94419,577.85554 C 809.94419,576.30126 810.40133,575.02126 811.31562,574.01554 C 812.25276,572.98698 813.41847,572.47269 814.81276,572.47268 L 823.1099,572.47268 L 823.1099,571.51268 C 823.10989,571.21555 823.05275,570.96412 822.93848,570.7584 C 822.84703,570.52984 822.68703,570.26698 822.45848,569.96983 C 822.13846,569.60413 821.80703,569.37555 821.46419,569.28411 C 821.12132,569.16984 820.64132,569.1127 820.02419,569.11268 L 811.14419,569.11268 L 811.14419,565.20411 L 818.75562,565.20411 L 820.2299,565.20411 C 821.89846,565.20413 823.14418,565.3527 823.96705,565.64983 C 824.78989,565.92413 825.49846,566.34699 826.09276,566.9184 C 826.84703,567.6727 827.34989,568.49555 827.60133,569.38697 C 827.85274,570.27841 827.97846,571.42127 827.97848,572.81554 L 827.97848,582.9984 M 823.07562,579.36411 L 823.07562,575.86697 L 817.04133,575.86697 C 816.4699,575.86698 815.97847,576.0384 815.56705,576.38125 C 815.17847,576.70126 814.98418,577.13555 814.98419,577.68411 C 814.98418,578.16412 815.17847,578.56412 815.56705,578.88411 C 815.95561,579.20412 816.40133,579.36412 816.90419,579.36411 L 823.07562,579.36411 M 841.54705,568.90697 L 836.91848,568.90697 L 836.91848,576.96411 C 836.91847,577.69555 837.1699,578.30126 837.67277,578.78125 C 838.24419,579.26126 838.99847,579.50126 839.93562,579.50125 L 841.34134,579.50125 L 841.34134,582.96411 L 836.91848,582.96411 C 835.59276,582.96411 834.46133,582.48411 833.52419,581.52411 C 832.97562,580.95268 832.62133,580.32411 832.46134,579.6384 C 832.30133,578.95269 832.22133,578.14126 832.22134,577.20411 L 832.22134,568.90697 L 829.20419,568.90697 L 829.20419,565.20411 L 832.22134,565.20411 L 832.22134,558.96411 L 836.91848,558.96411 L 836.91848,565.20411 L 841.54705,565.20411 L 841.54705,568.90697 M 848.50864,563.18125 L 843.77721,563.18125 L 843.77721,558.96411 L 848.50864,558.96411 L 848.50864,563.18125 M 848.57721,582.96411 L 843.77721,582.96411 L 843.77721,565.20411 L 848.57721,565.20411 L 848.57721,582.96411 M 868.37295,582.96411 L 863.60723,582.96411 L 863.60723,571.27268 C 863.60722,570.97555 863.53865,570.7127 863.40152,570.48411 C 863.26436,570.2327 863.07008,569.9927 862.81866,569.76411 C 862.36151,569.37555 861.83579,569.18127 861.24152,569.18125 L 856.57866,569.18125 L 856.57866,582.96411 L 851.81295,582.96411 L 851.81295,565.20411 L 860.93295,565.20411 C 862.55579,565.20413 863.73293,565.29556 864.46438,565.4784 C 865.60722,565.7527 866.5215,566.35841 867.20723,567.29554 C 867.98436,568.3927 868.37293,569.5927 868.37295,570.89554 L 868.37295,582.96411 M 889.60331,582.38125 C 889.60329,583.59268 889.50043,584.57554 889.29473,585.32983 C 889.089,586.08411 888.64329,586.82696 887.95759,587.5584 C 887.27186,588.31268 886.54043,588.81553 885.76331,589.06697 C 884.98615,589.34125 884.01472,589.47839 882.84902,589.4784 L 872.63188,589.4784 L 872.63188,585.70697 L 881.23759,585.70697 C 881.53472,585.70697 881.75187,585.70697 881.88902,585.70697 C 882.27758,585.70697 882.58615,585.67268 882.81473,585.60411 C 883.04329,585.55839 883.29472,585.43268 883.56902,585.22697 C 883.75186,585.11268 883.95758,584.90697 884.18616,584.60983 C 884.41472,584.31268 884.52901,584.06125 884.52902,583.85554 L 884.52902,583.03268 L 878.32331,583.03268 C 876.15187,583.03268 874.33473,582.09554 872.87188,580.22125 C 871.50045,578.46126 870.81473,576.40412 870.81473,574.04983 C 870.81473,571.64984 871.55759,569.58127 873.04331,567.84411 C 874.55187,566.08413 876.44901,565.20413 878.73473,565.20411 L 889.60331,565.20411 L 889.60331,582.38125 M 884.59759,579.1584 L 884.56331,569.24983 L 880.34616,569.24983 C 879.08901,569.24984 878.11758,569.7527 877.43188,570.7584 C 876.74616,571.74127 876.4033,572.99841 876.40331,574.52983 C 876.4033,575.69555 876.71187,576.70126 877.32902,577.54697 C 878.12901,578.62126 879.29472,579.1584 880.82616,579.1584 L 884.59759,579.1584 M 931.05473,575.52411 C 931.0547,577.62697 930.35756,579.3984 928.9633,580.8384 C 927.56899,582.2784 925.79756,582.9984 923.64901,582.9984 L 906.67758,582.96411 L 906.67758,578.64411 L 920.66615,578.64411 C 921.60328,578.64412 922.39185,578.42697 923.03187,577.99268 C 923.76328,577.48983 924.12899,576.80412 924.12901,575.93554 C 924.12899,573.90126 922.68899,572.88412 919.80901,572.88411 L 912.74615,572.88411 C 910.71186,572.88412 908.92901,572.25555 907.39758,570.9984 C 905.86615,569.74127 905.10044,568.14127 905.10044,566.1984 C 905.10044,564.04985 905.8433,562.3127 907.32901,560.98697 C 908.83758,559.63842 910.81472,558.96414 913.26044,558.96411 L 929.47758,558.96411 L 929.47758,563.0784 L 915.18044,563.0784 C 914.54043,563.07842 913.889,563.3527 913.22615,563.90125 C 912.58615,564.42699 912.26615,565.05556 912.26615,565.78697 C 912.26615,566.60984 912.57472,567.30698 913.19187,567.8784 C 913.83186,568.42698 914.59757,568.70127 915.48901,568.70125 L 923.27187,568.70125 C 925.6947,568.70127 927.59184,569.32984 928.9633,570.58697 C 930.35756,571.82127 931.0547,573.46698 931.05473,575.52411 M 950.18024,565.20411 L 950.14595,583.7184 C 950.14593,584.49554 949.98593,585.19268 949.66595,585.80983 C 949.34593,586.44982 948.92307,587.00982 948.39738,587.48983 C 947.59736,588.17553 946.77451,588.64411 945.92881,588.89554 C 945.08308,589.14696 944.06594,589.27268 942.87738,589.27268 L 933.55166,589.27268 L 933.55166,585.56983 L 943.25452,585.56983 C 943.68879,585.56982 944.10022,585.42125 944.48881,585.12411 C 945.01451,584.71268 945.27736,584.23268 945.27738,583.68411 L 945.27738,582.9984 L 939.79166,582.9984 C 938.74023,582.9984 937.8488,582.88411 937.11738,582.65554 C 936.38594,582.40411 935.67737,581.93554 934.99166,581.24983 C 933.78023,580.06126 933.17452,578.58697 933.17452,576.82697 L 933.17452,565.20411 L 938.18024,565.20411 L 938.14595,576.58697 C 938.14594,577.04412 938.1688,577.38697 938.21452,577.61554 C 938.28309,577.84412 938.44309,578.09554 938.69452,578.36983 C 938.9688,578.64412 939.27737,578.8384 939.62024,578.95268 C 939.96308,579.04412 940.38594,579.08983 940.88881,579.08983 L 945.24309,579.08983 L 945.24309,565.20411 L 950.18024,565.20411 M 969.85649,577.54697 C 969.85647,579.05554 969.36504,580.34697 968.3822,581.42125 C 967.42218,582.49554 966.19933,583.03268 964.71363,583.03268 L 952.95363,583.03268 L 952.95363,579.80983 L 962.6222,579.80983 C 963.3079,579.80983 963.87933,579.6384 964.33649,579.29554 C 964.81647,578.95269 965.05647,578.46126 965.05649,577.82125 C 965.05647,576.33555 964.05076,575.59269 962.03934,575.59268 L 957.1022,575.59268 C 956.05077,575.59269 955.03362,575.08983 954.05077,574.08411 C 953.06791,573.07841 952.57648,571.99269 952.57649,570.82697 C 952.57648,569.18127 952.9422,567.85556 953.67363,566.84983 C 954.51934,565.70699 955.76505,565.13556 957.41077,565.13554 L 968.72506,565.13554 L 968.72506,568.49554 L 958.64506,568.49554 C 958.25648,568.49555 957.91362,568.68984 957.61649,569.0784 C 957.34219,569.44413 957.20505,569.86698 957.20506,570.34697 C 957.20505,570.8727 957.38791,571.32984 957.75363,571.7184 C 958.14219,572.08412 958.59934,572.26698 959.12506,572.26697 L 964.43934,572.26697 C 966.1079,572.26698 967.42218,572.76984 968.3822,573.77554 C 969.36504,574.75841 969.85647,576.01555 969.85649,577.54697 M 982.77474,568.90697 L 978.14617,568.90697 L 978.14617,576.96411 C 978.14616,577.69555 978.39759,578.30126 978.90046,578.78125 C 979.47188,579.26126 980.22616,579.50126 981.16331,579.50125 L 982.56903,579.50125 L 982.56903,582.96411 L 978.14617,582.96411 C 976.82045,582.96411 975.68902,582.48411 974.75189,581.52411 C 974.20331,580.95268 973.84903,580.32411 973.68903,579.6384 C 973.52903,578.95269 973.44903,578.14126 973.44903,577.20411 L 973.44903,568.90697 L 970.43189,568.90697 L 970.43189,565.20411 L 973.44903,565.20411 L 973.44903,558.96411 L 978.14617,558.96411 L 978.14617,565.20411 L 982.77474,565.20411 L 982.77474,568.90697 M 1000.2278,583.06697 L 991.86205,583.06697 C 989.82776,583.06697 988.05633,582.1984 986.54776,580.46125 C 985.06205,578.70126 984.31919,576.6784 984.31919,574.39268 C 984.31919,571.90127 985.13062,569.7527 986.75348,567.94697 C 988.39919,566.11841 990.22775,565.20413 992.23919,565.20411 L 1000.1935,565.20411 L 1000.1935,568.87268 L 994.3649,568.87268 C 993.63347,568.8727 993.00489,568.94127 992.47919,569.0784 C 991.97632,569.1927 991.50775,569.4327 991.07348,569.7984 C 990.27347,570.48412 989.87347,571.40984 989.87348,572.57554 L 1000.1592,572.57554 L 1000.1592,576.2784 L 989.90776,576.2784 C 989.90775,576.82697 989.9649,577.29555 990.07919,577.68411 C 990.21633,578.04983 990.47918,578.42697 990.86776,578.81554 C 991.25632,579.18126 991.71347,579.43269 992.23919,579.56983 C 992.78775,579.68411 993.45061,579.74126 994.22776,579.74125 L 1000.2278,579.74125 L 1000.2278,583.06697 M 1028.7278,582.9984 L 1024.0992,582.9984 L 1024.0992,571.85554 C 1024.0992,571.42127 1024.0535,571.07841 1023.9621,570.82697 C 1023.8706,570.57555 1023.6877,570.3127 1023.4135,570.0384 C 1023.1392,569.74127 1022.8649,569.53555 1022.5906,569.42125 C 1022.3163,569.28413 1021.9963,569.21555 1021.6306,569.21554 L 1018.2363,569.21554 L 1018.2363,582.9984 L 1013.5392,582.9984 L 1013.5392,569.11268 L 1008.0192,569.11268 L 1008.0192,582.96411 L 1003.2192,582.96411 L 1003.2192,565.20411 L 1022.2478,565.20411 C 1023.4363,565.20413 1024.3735,565.31842 1025.0592,565.54697 C 1025.7449,565.7527 1026.4192,566.20984 1027.0821,566.9184 C 1027.6077,567.48984 1028.0077,568.04984 1028.2821,568.5984 C 1028.5792,569.14698 1028.7277,569.74127 1028.7278,570.38125 L 1028.7278,582.9984"
         id="text2394" />
    </g>
  </g>
</svg>
