<?xml version="1.0" encoding="UTF-8" standalone="no"?>
<!-- Created with Inkscape (http://www.inkscape.org/) -->
<svg
   xmlns:dc="http://purl.org/dc/elements/1.1/"
   xmlns:cc="http://creativecommons.org/ns#"
   xmlns:rdf="http://www.w3.org/1999/02/22-rdf-syntax-ns#"
   xmlns:svg="http://www.w3.org/2000/svg"
   xmlns="http://www.w3.org/2000/svg"
   xmlns:xlink="http://www.w3.org/1999/xlink"
   xmlns:sodipodi="http://sodipodi.sourceforge.net/DTD/sodipodi-0.dtd"
   xmlns:inkscape="http://www.inkscape.org/namespaces/inkscape"
   width="92"
   height="32"
   id="svg4582"
   sodipodi:version="0.32"
   inkscape:version="0.46"
   sodipodi:docbase="/home/al/svn/work/artwork/trunk/Main/svg/templates"
   sodipodi:docname="icon-poweredby.svg"
   inkscape:output_extension="org.inkscape.output.svg.inkscape"
   version="1.0">
  <defs
     id="defs4584">
    <linearGradient
       inkscape:collect="always"
       id="linearGradient6544">
      <stop
         style="stop-color:#ffffff;stop-opacity:1;"
         offset="0"
         id="stop6546" />
      <stop
         style="stop-color:#ffffff;stop-opacity:0;"
         offset="1"
         id="stop6548" />
    </linearGradient>
    <linearGradient
       id="linearGradient6133">
      <stop
         style="stop-color:#729fcf;stop-opacity:1"
         offset="0"
         id="stop6135" />
      <stop
         style="stop-color:#ecf4ff;stop-opacity:0;"
         offset="1"
         id="stop6137" />
    </linearGradient>
    <linearGradient
       inkscape:collect="always"
       id="linearGradient4005">
      <stop
         style="stop-color:#d7e3f6;stop-opacity:1;"
         offset="0"
         id="stop4007" />
      <stop
         style="stop-color:#d7e3f6;stop-opacity:0;"
         offset="1"
         id="stop4009" />
    </linearGradient>
    <inkscape:perspective
       sodipodi:type="inkscape:persp3d"
       inkscape:vp_x="0 : 15.999998 : 1"
       inkscape:vp_y="0 : 1000 : 0"
       inkscape:vp_z="90.850853 : 15.999998 : 1"
       inkscape:persp3d-origin="45.425426 : 10.666665 : 1"
       id="perspective3386" />
    <clipPath
       clipPathUnits="userSpaceOnUse"
       id="clipPath4429">
      <g
         transform="matrix(0.9947658,0,0,1,1.7860989,0)"
         id="g4431">
        <path
           sodipodi:nodetypes="ccccccccc"
           style="fill:#eea623;fill-opacity:1;fill-rule:evenodd;stroke:none;stroke-width:30;stroke-linecap:round;stroke-linejoin:round;marker:none;marker-start:none;marker-mid:none;marker-end:none;stroke-miterlimit:4;stroke-dasharray:none;stroke-dashoffset:0;stroke-opacity:1;visibility:visible;display:inline;overflow:visible"
           d="M 322.54143,2800.9375 L 318.10638,2806.6673 L 313.67143,2800.9375 L 313.67143,2757.7946 L 294.73171,2757.7946 L 318.10638,2732.2579 L 341.23763,2757.7946 L 322.54143,2757.7946 L 322.54143,2800.9375 z"
           id="path4433" />
      </g>
    </clipPath>
    <radialGradient
       inkscape:collect="always"
       xlink:href="#linearGradient4005"
       id="radialGradient4011"
       cx="349.53812"
       cy="198.54785"
       fx="349.53812"
       fy="198.54785"
       r="45"
       gradientTransform="matrix(-1,0,0,0.3555556,699.07624,127.95306)"
       gradientUnits="userSpaceOnUse" />
    <linearGradient
       inkscape:collect="always"
       xlink:href="#linearGradient6544"
       id="linearGradient6552"
       x1="346.37576"
       y1="183.54785"
       x2="346.37576"
       y2="215.10429"
       gradientUnits="userSpaceOnUse" />
  </defs>
  <sodipodi:namedview
     id="base"
     pagecolor="#ffffff"
     bordercolor="#666666"
     borderopacity="1.0"
     inkscape:pageopacity="0.0"
     inkscape:pageshadow="2"
     inkscape:zoom="2.8284271"
     inkscape:cx="0.25756796"
     inkscape:cy="-2.14824"
     inkscape:document-units="px"
     inkscape:current-layer="CENTOSARTWORK"
     inkscape:window-width="1360"
     inkscape:window-height="693"
     inkscape:window-x="0"
     inkscape:window-y="25"
     showgrid="false"
     showborder="false"
     inkscape:showpageshadow="false"
     showguides="false"
     inkscape:guide-bbox="true">
    <sodipodi:guide
       orientation="1,0"
       position="92,14.25"
       id="guide4682" />
    <sodipodi:guide
       orientation="0.70710678,0.70710678"
       position="88.432542,3.5797281"
       id="guide6531" />
  </sodipodi:namedview>
  <metadata
     id="metadata3399">
    <rdf:RDF>
      <cc:Work
         rdf:about="">
        <dc:format>image/svg+xml</dc:format>
        <dc:type
           rdf:resource="http://purl.org/dc/dcmitype/StillImage" />
        <cc:license
           rdf:resource="http://creativecommons.org/licenses/by-sa/3.0/" />
        <dc:title>poweredby.svg</dc:title>
        <dc:date>2010-12-04</dc:date>
        <dc:creator>
          <cc:Agent>
            <dc:title>Alain Reguera Delgado</dc:title>
          </cc:Agent>
        </dc:creator>
        <dc:rights>
          <cc:Agent>
            <dc:title>Alain Reguera Delgado</dc:title>
          </cc:Agent>
        </dc:rights>
        <dc:publisher>
          <cc:Agent>
            <dc:title>The CentOS Project</dc:title>
          </cc:Agent>
        </dc:publisher>
        <dc:identifier>https://projects.centos.org/svn/artwork/trunk/Identity/Widgets/Tpl/poweredby.svg</dc:identifier>
        <dc:source>https://projects.centos.org/svn/artwork/trunk/Identity/Widgets/Tpl/poweredby.svg</dc:source>
        <dc:relation>https://projects.centos.org/svn/artwork/trunk/Identity/Widgets/Tpl/poweredby.svg</dc:relation>
        <dc:language>en</dc:language>
        <dc:subject>
          <rdf:Bag>
            <rdf:li>Identity</rdf:li>
            <rdf:li>Widgets</rdf:li>
            <rdf:li>Tpl</rdf:li>
          </rdf:Bag>
        </dc:subject>
        <dc:coverage>The CentOS Project</dc:coverage>
        <dc:description />
        <dc:contributor>
          <cc:Agent>
            <dc:title />
          </cc:Agent>
        </dc:contributor>
      </cc:Work>
      <cc:License
         rdf:about="http://creativecommons.org/licenses/by-sa/3.0/">
        <cc:permits
           rdf:resource="http://creativecommons.org/ns#Reproduction" />
        <cc:permits
           rdf:resource="http://creativecommons.org/ns#Distribution" />
        <cc:requires
           rdf:resource="http://creativecommons.org/ns#Notice" />
        <cc:requires
           rdf:resource="http://creativecommons.org/ns#Attribution" />
        <cc:permits
           rdf:resource="http://creativecommons.org/ns#DerivativeWorks" />
        <cc:requires
           rdf:resource="http://creativecommons.org/ns#ShareAlike" />
      </cc:License>
    </rdf:RDF>
  </metadata>
  <g
     inkscape:label="Layer 1"
     inkscape:groupmode="layer"
     id="layer1"
     transform="translate(-304.47968,-183.54785)">
    <g
       id="CENTOSARTWORK">
      <rect
         y="183.54785"
         x="304.47968"
         height="32"
         width="92"
         id="rect4652"
         style="fill:#204c8d;fill-opacity:1;fill-rule:evenodd;stroke:none;stroke-width:3;stroke-miterlimit:4;stroke-dasharray:2.99999994, 2.99999994;stroke-dashoffset:0;stroke-opacity:1" />
      <path
         sodipodi:nodetypes="ccccc"
         id="path6539"
         d="M 396.47968,185.54785 L 396.47968,183.54785 L 304.47968,183.54785 C 304.47968,183.54785 306.45614,185.54785 306.45614,185.54785 L 396.47968,185.54785 z"
         style="fill:#729fcf;fill-opacity:1;fill-rule:evenodd;stroke:none;stroke-width:2;stroke-linecap:butt;stroke-linejoin:miter;stroke-miterlimit:4;stroke-dasharray:none;stroke-opacity:1" />
      <path
         sodipodi:nodetypes="ccccc"
         id="path6533"
         d="M 306.47968,215.54785 L 304.47968,215.54785 L 304.47968,183.47515 C 304.47968,183.47515 306.47968,185.45161 306.47968,185.45161 L 306.47968,215.54785 z"
         style="fill:#729fcf;fill-opacity:1;fill-rule:evenodd;stroke:none;stroke-width:2;stroke-linecap:butt;stroke-linejoin:miter;stroke-miterlimit:4;stroke-dasharray:none;stroke-opacity:1" />
      <g
         inkscape:label="#g9335"
         inkscape:export-ydpi="28.883154"
         inkscape:export-xdpi="28.883154"
         inkscape:export-filename="/home/al/Desktop/CentOS/Symbol Construction/CentOSSymbol_20.png"
         transform="matrix(3.1044457e-2,0,0,3.1044444e-2,314.45947,165.2803)"
         id="g9335">
        <g
           inkscape:export-ydpi="50.799999"
           inkscape:export-xdpi="50.799999"
           inkscape:export-filename="/home/al/Desktop/CentOSSymbol_Final.png"
           id="g13583"
           transform="matrix(1.1808679,0,0,1.1808679,586.42082,-1141.3723)">
          <g
             transform="translate(-556.83343,-494.55601)"
             id="g13467">
            <g
               transform="matrix(0,-3.7770771,3.7770771,0,-6968.6287,3636.3048)"
               id="g13395">
              <g
                 id="g13397"
                 transform="translate(16.279512,-899.16723)">
                <g
                   transform="matrix(1.0666663,0,0,1,-26.935596,-4.1328125e-5)"
                   id="g13399">
                  <path
                     sodipodi:nodetypes="ccccccccc"
                     style="fill:#932279;fill-opacity:1;fill-rule:evenodd;stroke:none;stroke-width:30;stroke-linecap:round;stroke-linejoin:round;marker:none;marker-start:none;marker-mid:none;marker-end:none;stroke-miterlimit:4;stroke-dasharray:none;stroke-dashoffset:0;stroke-opacity:1;visibility:visible;display:inline;overflow:visible"
                     d="M 323.36653,2798.1614 L 317.96037,2803.9619 L 312.55421,2798.1614 L 312.55421,2757.3353 L 294.54088,2757.3353 L 317.96037,2732.4374 L 340.98524,2757.3353 L 323.36654,2757.3353 L 323.36653,2798.1614 z"
                     id="path13401" />
                </g>
                <g
                   clip-path="url(#clipPath4429)"
                   id="g13405"
                   transform="matrix(1.0722788,0,0,1,-28.850792,-4.1328125e-5)" />
              </g>
            </g>
            <g
               id="g13407"
               transform="matrix(3.7770771,0,0,3.7770771,-988.70982,-4824.4941)">
              <g
                 transform="translate(16.279512,-899.16723)"
                 id="g13409">
                <g
                   id="g13411"
                   transform="matrix(1.0666663,0,0,1,-26.935596,-4.1328125e-5)">
                  <path
                     id="path13413"
                     d="M 323.36653,2798.1614 L 317.96037,2803.9619 L 312.55421,2798.1614 L 312.55421,2757.3353 L 294.54088,2757.3353 L 317.96037,2732.4374 L 340.98524,2757.3353 L 323.36654,2757.3353 L 323.36653,2798.1614 z"
                     style="fill:#efa724;fill-opacity:1;fill-rule:evenodd;stroke:none;stroke-width:30;stroke-linecap:round;stroke-linejoin:round;marker:none;marker-start:none;marker-mid:none;marker-end:none;stroke-miterlimit:4;stroke-dasharray:none;stroke-dashoffset:0;stroke-opacity:1;visibility:visible;display:inline;overflow:visible"
                     sodipodi:nodetypes="ccccccccc" />
                </g>
                <g
                   transform="matrix(1.0722788,0,0,1,-28.850792,-4.1328125e-5)"
                   id="g13417"
                   clip-path="url(#clipPath4429)" />
              </g>
            </g>
            <g
               transform="matrix(0,3.7770771,-3.7770771,0,10868.313,1216.9132)"
               id="g13419">
              <g
                 id="g13421"
                 transform="matrix(1.0666663,0,0,1,-26.935596,-4.1328125e-5)">
                <path
                   id="path13423"
                   d="M 323.36653,2798.1614 L 317.96037,2803.9619 L 312.55421,2798.1614 L 312.55421,2757.3353 L 294.54088,2757.3353 L 317.96037,2732.4374 L 340.98524,2757.3353 L 323.36654,2757.3353 L 323.36653,2798.1614 z"
                   style="fill:#262577;fill-opacity:1;fill-rule:evenodd;stroke:none;stroke-width:30;stroke-linecap:round;stroke-linejoin:round;marker:none;marker-start:none;marker-mid:none;marker-end:none;stroke-miterlimit:4;stroke-dasharray:none;stroke-dashoffset:0;stroke-opacity:1;visibility:visible;display:inline;overflow:visible"
                   sodipodi:nodetypes="ccccccccc" />
              </g>
              <g
                 transform="matrix(1.0722788,0,0,1,-28.850792,-4.1328125e-5)"
                 id="g13427"
                 clip-path="url(#clipPath4429)" />
            </g>
            <g
               id="g13429"
               transform="matrix(-3.7770771,0,0,-3.7770771,1492.1701,9616.2232)">
              <g
                 transform="translate(16.279512,-899.16723)"
                 id="g13431">
                <g
                   id="g13433"
                   transform="matrix(1.0666663,0,0,1,-26.935596,-4.1328125e-5)">
                  <path
                     id="path13435"
                     d="M 323.36653,2798.1614 L 317.96037,2803.9619 L 312.55421,2798.1614 L 312.55421,2757.3353 L 294.54088,2757.3353 L 317.96037,2732.4374 L 340.98524,2757.3353 L 323.36654,2757.3353 L 323.36653,2798.1614 z"
                     style="fill:#9ccd2a;fill-opacity:1;fill-rule:evenodd;stroke:none;stroke-width:30;stroke-linecap:round;stroke-linejoin:round;marker:none;marker-start:none;marker-mid:none;marker-end:none;stroke-miterlimit:4;stroke-dasharray:none;stroke-dashoffset:0;stroke-opacity:1;visibility:visible;display:inline;overflow:visible"
                     sodipodi:nodetypes="ccccccccc" />
                </g>
                <g
                   transform="matrix(1.0722788,0,0,1,-28.850792,-4.1328125e-5)"
                   id="g13439"
                   clip-path="url(#clipPath4429)" />
              </g>
            </g>
            <g
               id="g13441"
               transform="matrix(3.7770771,0,0,3.7770771,-2493.849,-6445.1798)">
              <rect
                 y="2285.7893"
                 x="671.98438"
                 height="49.606449"
                 width="49.606449"
                 id="rect13443"
                 style="fill:#9ccd2a;fill-opacity:1;stroke:#ffffff;stroke-width:3.54330707;stroke-linecap:butt;stroke-linejoin:miter;stroke-miterlimit:4;stroke-dasharray:none;stroke-dashoffset:0;stroke-opacity:1" />
              <rect
                 style="fill:#932279;fill-opacity:1;stroke:#ffffff;stroke-width:3.54330707;stroke-linecap:butt;stroke-linejoin:miter;stroke-miterlimit:4;stroke-dasharray:none;stroke-dashoffset:0;stroke-opacity:1"
                 id="rect13445"
                 width="49.606449"
                 height="49.606449"
                 x="732.22076"
                 y="2285.7893" />
              <rect
                 y="2346.0256"
                 x="732.22076"
                 height="49.606449"
                 width="49.606449"
                 id="rect13447"
                 style="fill:#efa724;fill-opacity:1;stroke:#ffffff;stroke-width:3.54330707;stroke-linecap:butt;stroke-linejoin:miter;stroke-miterlimit:4;stroke-dasharray:none;stroke-dashoffset:0;stroke-opacity:1" />
              <rect
                 style="fill:#262577;fill-opacity:1;stroke:#ffffff;stroke-width:3.54330707;stroke-linecap:butt;stroke-linejoin:miter;stroke-miterlimit:4;stroke-dasharray:none;stroke-dashoffset:0;stroke-opacity:1"
                 id="rect13449"
                 width="49.606449"
                 height="49.606449"
                 x="671.98438"
                 y="2346.0256" />
            </g>
            <rect
               transform="matrix(0.7071068,-0.7071068,0.7071068,0.7071068,0,0)"
               style="fill:none;fill-opacity:1;stroke:#ffffff;stroke-width:13.38334465;stroke-linecap:butt;stroke-linejoin:miter;stroke-miterlimit:4;stroke-dasharray:none;stroke-dashoffset:0;stroke-opacity:1"
               id="rect13459"
               width="187.36739"
               height="187.36739"
               x="-1723.575"
               y="1664.6902" />
            <rect
               transform="matrix(0.7071068,-0.7071068,0.7071068,0.7071068,0,0)"
               y="1664.6902"
               x="-1496.0573"
               height="187.36739"
               width="187.36739"
               id="rect13461"
               style="fill:none;fill-opacity:1;stroke:#ffffff;stroke-width:13.38334465;stroke-linecap:butt;stroke-linejoin:miter;stroke-miterlimit:4;stroke-dasharray:none;stroke-dashoffset:0;stroke-opacity:1" />
            <rect
               transform="matrix(0.7071068,-0.7071068,0.7071068,0.7071068,0,0)"
               style="fill:none;fill-opacity:1;stroke:#ffffff;stroke-width:13.38334465;stroke-linecap:butt;stroke-linejoin:miter;stroke-miterlimit:4;stroke-dasharray:none;stroke-dashoffset:0;stroke-opacity:1"
               id="rect13463"
               width="187.36739"
               height="187.36739"
               x="-1496.0573"
               y="1892.2074" />
            <rect
               transform="matrix(0.7071068,-0.7071068,0.7071068,0.7071068,0,0)"
               y="1892.2074"
               x="-1723.575"
               height="187.36739"
               width="187.36739"
               id="rect13465"
               style="fill:none;fill-opacity:1;stroke:#ffffff;stroke-width:13.38334465;stroke-linecap:butt;stroke-linejoin:miter;stroke-miterlimit:4;stroke-dasharray:none;stroke-dashoffset:0;stroke-opacity:1" />
          </g>
        </g>
      </g>
      <path
         inkscape:label=""
         id="path3841"
         d="M 346.23282,210.36554 L 341.81974,210.36554 C 341.37224,210.36554 340.92951,210.29971 340.49154,210.16803 C 339.64414,209.89455 338.97289,209.26655 338.4778,208.28405 C 338.03029,207.3927 337.80655,206.3545 337.80655,205.16941 C 337.80655,204.02485 338.00649,203.01195 338.40638,202.13073 C 338.84436,201.15836 339.468,200.49492 340.27731,200.1404 C 340.9057,199.86694 341.54839,199.73019 342.20535,199.73018 L 346.20425,199.73018 L 346.20425,201.76609 L 342.04825,201.76609 C 341.37224,201.7661 340.88191,202.15606 340.57722,202.93599 C 340.33919,203.54373 340.22017,204.33885 340.22017,205.32135 C 340.22017,206.15192 340.37251,206.85587 340.6772,207.43321 C 341.02948,208.11187 341.52458,208.45118 342.16251,208.45117 L 346.23282,208.43599 L 346.23282,210.36554 M 353.58259,210.41113 L 350.09783,210.41113 C 349.25044,210.41113 348.51256,210.02623 347.88416,209.25643 C 347.26527,208.4765 346.95585,207.58009 346.95585,206.5672 C 346.95585,205.46315 347.29384,204.51104 347.96984,203.71085 C 348.65538,202.90054 349.41707,202.49538 350.25493,202.49538 L 353.56832,202.49538 L 353.56832,204.12106 L 351.14041,204.12106 C 350.83573,204.12108 350.57389,204.15146 350.35492,204.21223 C 350.14544,204.26288 349.95026,204.36923 349.76936,204.53128 C 349.43611,204.83515 349.26949,205.24538 349.26949,205.76195 L 353.55404,205.76195 L 353.55404,207.40283 L 349.28377,207.40283 C 349.28377,207.64594 349.30758,207.85358 349.35518,208.02577 C 349.41231,208.18783 349.5218,208.35495 349.68366,208.52714 C 349.84553,208.6892 350.03594,208.80063 350.25493,208.8614 C 350.48345,208.91204 350.75955,208.93737 351.08328,208.93737 L 353.58259,208.93737 L 353.58259,210.41113 M 361.72682,210.36554 L 359.74163,210.36554 L 359.74163,205.1846 C 359.74162,205.05294 359.71307,204.93645 359.65593,204.83515 C 359.59881,204.72374 359.51788,204.61738 359.41315,204.51609 C 359.22272,204.3439 359.00374,204.25781 358.75619,204.2578 L 356.81386,204.2578 L 356.81386,210.36554 L 354.82868,210.36554 L 354.82868,202.49538 L 358.62764,202.49538 C 359.30365,202.49538 359.79399,202.5359 360.09868,202.61692 C 360.57473,202.73849 360.95557,203.00689 361.24123,203.42216 C 361.56494,203.90836 361.72681,204.44012 361.72682,205.01748 L 361.72682,210.36554 M 367.42837,204.13625 L 365.50033,204.13625 L 365.50033,207.7067 C 365.50033,208.03083 365.60505,208.29924 365.81453,208.51195 C 366.05255,208.72466 366.36676,208.83102 366.75713,208.83101 L 367.34267,208.83101 L 367.34267,210.36554 L 365.50033,210.36554 C 364.9481,210.36554 364.4768,210.15283 364.08643,209.72742 C 363.85792,209.4742 363.71034,209.19565 363.6437,208.89179 C 363.57705,208.58792 363.54372,208.22834 363.54372,207.81305 L 363.54372,204.13625 L 362.28692,204.13625 L 362.28692,202.49538 L 363.54372,202.49538 L 363.54372,199.73018 L 365.50033,199.73018 L 365.50033,202.49538 L 367.42837,202.49538 L 367.42837,204.13625 M 379.083,205.03266 C 379.08298,207.09896 378.54504,208.57779 377.46916,209.46913 C 376.5932,210.18829 375.31736,210.54786 373.64163,210.54786 C 371.785,210.54786 370.41394,210.13257 369.52848,209.302 C 368.5573,208.39041 368.07172,206.92678 368.07172,204.91112 C 368.07172,203.26012 368.50494,201.97375 369.37138,201.052 C 370.31396,200.04925 371.72311,199.54786 373.59879,199.54786 C 375.66487,199.54786 377.12162,200.029 377.96903,200.99123 C 378.71166,201.84206 379.08298,203.1892 379.083,205.03266 M 376.54085,204.97189 C 376.54083,203.92863 376.30756,203.09804 375.84104,202.48018 C 375.31736,201.79143 374.54138,201.44704 373.5131,201.44703 C 372.50384,201.44704 371.74215,201.81676 371.228,202.55615 C 370.79955,203.17402 370.58531,203.97927 370.58532,204.97189 C 370.58531,206.11647 370.7567,206.96223 371.09947,207.50919 C 371.57553,208.26886 372.45624,208.64868 373.74159,208.64868 C 374.82702,208.64868 375.5887,208.27899 376.0267,207.53957 C 376.36945,206.96223 376.54083,206.10633 376.54085,204.97189 M 390.51492,207.06857 C 390.51491,208.00044 390.22451,208.78543 389.64373,209.42355 C 389.06293,210.06167 388.32502,210.38074 387.43005,210.38074 L 380.36054,210.36554 L 380.36054,208.45117 L 386.18753,208.45117 C 386.5779,208.45118 386.90638,208.35495 387.17297,208.1625 C 387.47765,207.93967 387.62999,207.6358 387.62999,207.2509 C 387.62999,206.34943 387.03016,205.89869 385.83049,205.89869 L 382.88844,205.89869 C 382.04103,205.89869 381.29838,205.62015 380.66047,205.06306 C 380.02254,204.50597 379.7036,203.79695 379.7036,202.93599 C 379.7036,201.98387 380.01301,201.21407 380.63191,200.62659 C 381.2603,200.029 382.08389,199.73019 383.10266,199.73018 L 389.85795,199.73018 L 389.85795,201.55339 L 383.90245,201.55339 C 383.63584,201.5534 383.36449,201.67494 383.08838,201.91803 C 382.82178,202.15101 382.68848,202.42954 382.68849,202.75366 C 382.68848,203.1183 382.81702,203.42725 383.0741,203.68046 C 383.34069,203.92356 383.65965,204.04511 384.03098,204.0451 L 387.27295,204.0451 C 388.28219,204.04511 389.07245,204.32365 389.64373,204.88073 C 390.22451,205.42771 390.51491,206.15698 390.51492,207.06857"
         clip-path="none"
         style="font-size:72.70541382px;font-style:normal;font-variant:normal;font-weight:200;font-stretch:normal;text-align:start;line-height:125%;writing-mode:lr-tb;text-anchor:start;fill:#ffffff;fill-opacity:1;stroke:none;stroke-width:2.48031497;stroke-linecap:butt;stroke-linejoin:miter;stroke-miterlimit:4;stroke-dasharray:none;stroke-opacity:1;display:inline;font-family:Denmark;-inkscape-font-specification:Denmark Ultra-Light" />
      <text
         xml:space="preserve"
         style="font-size:9.26018524px;font-style:normal;font-variant:normal;font-weight:normal;font-stretch:normal;text-indent:0;text-align:start;text-decoration:none;line-height:125%;letter-spacing:normal;word-spacing:normal;text-transform:none;direction:ltr;block-progression:tb;writing-mode:lr-tb;text-anchor:start;opacity:1;fill:#ffffff;fill-opacity:1;fill-rule:nonzero;stroke:none;stroke-width:1px;stroke-linecap:butt;stroke-linejoin:miter;marker:none;marker-start:none;marker-mid:none;marker-end:none;stroke-miterlimit:4;stroke-dasharray:none;stroke-dashoffset:0;stroke-opacity:1;visibility:visible;display:inline;overflow:visible;enable-background:accumulate;font-family:DejaVu LGC Sans;-inkscape-font-specification:DejaVu LGC Sans"
         x="336.89771"
         y="195.58344"
         id="text6457"
         sodipodi:linespacing="125%"><tspan
           sodipodi:role="line"
           id="tspan6459"
           x="336.89771"
           y="195.58344">Powered by</tspan></text>
      <path
         style="fill:#163461;fill-opacity:1;fill-rule:evenodd;stroke:none;stroke-width:2;stroke-linecap:butt;stroke-linejoin:miter;stroke-miterlimit:4;stroke-dasharray:none;stroke-opacity:1"
         d="M 396.47968,213.54785 L 396.47968,215.54785 L 304.47968,215.54785 C 304.47968,215.54785 306.45614,213.54785 306.45614,213.54785 L 396.47968,213.54785 z"
         id="path6525"
         sodipodi:nodetypes="ccccc" />
      <path
         style="fill:#163461;fill-opacity:1;fill-rule:evenodd;stroke:none;stroke-width:2;stroke-linecap:butt;stroke-linejoin:miter;stroke-miterlimit:4;stroke-dasharray:none;stroke-opacity:1"
         d="M 394.47968,215.54785 L 396.47968,215.54785 L 396.47968,183.47515 C 396.47968,183.47515 394.47968,185.45161 394.47968,185.45161 L 394.47968,215.54785 z"
         id="path6535"
         sodipodi:nodetypes="ccccc" />
    </g>
  </g>
</svg>
