<?xml version="1.0" encoding="UTF-8" standalone="no"?>
<!-- Created with Inkscape (http://www.inkscape.org/) -->
<svg
   xmlns:dc="http://purl.org/dc/elements/1.1/"
   xmlns:cc="http://creativecommons.org/ns#"
   xmlns:rdf="http://www.w3.org/1999/02/22-rdf-syntax-ns#"
   xmlns:svg="http://www.w3.org/2000/svg"
   xmlns="http://www.w3.org/2000/svg"
   xmlns:xlink="http://www.w3.org/1999/xlink"
   xmlns:sodipodi="http://sodipodi.sourceforge.net/DTD/sodipodi-0.dtd"
   xmlns:inkscape="http://www.inkscape.org/namespaces/inkscape"
   width="48"
   height="48"
   id="svg2360"
   sodipodi:version="0.32"
   inkscape:version="0.46"
   version="1.0"
   sodipodi:docbase="/home/al/Desktop/CentOS_TreeFlower_Theme/artwork/trunk/Main/svg/templates"
   sodipodi:docname="tip.svg"
   inkscape:output_extension="org.inkscape.output.svg.inkscape">
  <defs
     id="defs2362">
    <linearGradient
       id="linearGradient2985">
      <stop
         style="stop-color:#ffffff;stop-opacity:1"
         offset="0"
         id="stop2987" />
      <stop
         style="stop-color:#ffffff;stop-opacity:0"
         offset="1"
         id="stop2989" />
    </linearGradient>
    <radialGradient
       inkscape:collect="always"
       xlink:href="#linearGradient2985"
       id="radialGradient1571"
       gradientUnits="userSpaceOnUse"
       gradientTransform="matrix(1,0,0,0.944781,0,38.46173)"
       cx="516.95697"
       cy="696.53046"
       fx="516.95697"
       fy="696.53046"
       r="29.237768" />
  </defs>
  <sodipodi:namedview
     id="base"
     pagecolor="#ffffff"
     bordercolor="#666666"
     borderopacity="0.39215686"
     inkscape:pageopacity="0.0"
     inkscape:pageshadow="2"
     inkscape:zoom="10.416667"
     inkscape:cx="18.910465"
     inkscape:cy="37.073303"
     inkscape:document-units="px"
     inkscape:current-layer="g2403"
     inkscape:window-width="1360"
     inkscape:window-height="693"
     inkscape:window-x="0"
     inkscape:window-y="25"
     showborder="true"
     showgrid="false"
     inkscape:showpageshadow="false" />
  <metadata
     id="CENTOSMETADATA">
    <rdf:RDF>
      <cc:Work
         rdf:about="">
        <dc:format>image/svg+xml</dc:format>
        <dc:type
           rdf:resource="http://purl.org/dc/dcmitype/StillImage" />
        <cc:license
           rdf:resource="http://creativecommons.org/licenses/by-sa/3.0/" />
        <dc:title>tip.svg</dc:title>
        <dc:date>2011-06-13</dc:date>
        <dc:creator>
          <cc:Agent>
            <dc:title>The CentOS Artwork SIG</dc:title>
          </cc:Agent>
        </dc:creator>
        <dc:rights>
          <cc:Agent>
            <dc:title>The CentOS Artwork SIG</dc:title>
          </cc:Agent>
        </dc:rights>
        <dc:publisher>
          <cc:Agent>
            <dc:title>The CentOS Artwork SIG</dc:title>
          </cc:Agent>
        </dc:publisher>
        <dc:identifier>https://projects.centos.org/svn/artwork/trunk/Identity/Models/Webenv/tip.svg</dc:identifier>
        <dc:source>https://projects.centos.org/svn/artwork/trunk/Identity/Models/Webenv/tip.svg</dc:source>
        <dc:relation>https://projects.centos.org/svn/artwork/trunk/Identity/Models/Webenv/tip.svg</dc:relation>
        <dc:language>en_US</dc:language>
        <dc:subject>
          <rdf:Bag>
            <rdf:li>Identity</rdf:li>
            <rdf:li>Models</rdf:li>
            <rdf:li>Webenv</rdf:li>
          </rdf:Bag>
        </dc:subject>
        <dc:coverage>The CentOS Artwork SIG</dc:coverage>
        <dc:description />
        <dc:contributor />
      </cc:Work>
      <cc:License
         rdf:about="http://creativecommons.org/licenses/by-sa/3.0/">
        <cc:permits
           rdf:resource="http://creativecommons.org/ns#Reproduction" />
        <cc:permits
           rdf:resource="http://creativecommons.org/ns#Distribution" />
        <cc:requires
           rdf:resource="http://creativecommons.org/ns#Notice" />
        <cc:requires
           rdf:resource="http://creativecommons.org/ns#Attribution" />
        <cc:permits
           rdf:resource="http://creativecommons.org/ns#DerivativeWorks" />
        <cc:requires
           rdf:resource="http://creativecommons.org/ns#ShareAlike" />
      </cc:License>
    </rdf:RDF>
  </metadata>
  <g
     inkscape:label="Layer 1"
     inkscape:groupmode="layer"
     id="layer1"
     transform="translate(0.2396254,33.893665)">
    <g
       id="g2403"
       inkscape:label="#g2403"
       transform="matrix(1.2296327,0,0,1.2296327,9.9267881,-26.794703)">
      <path
         sodipodi:type="arc"
         style="fill:#edd400;fill-opacity:1;stroke:none;stroke-width:15.97661114;stroke-miterlimit:4;stroke-dasharray:none;stroke-dashoffset:0;stroke-opacity:1"
         id="path4717"
         sodipodi:cx="571"
         sodipodi:cy="523.36218"
         sodipodi:rx="78"
         sodipodi:ry="78"
         d="M 649,523.36218 A 78,78 0 1 1 493,523.36218 A 78,78 0 1 1 649,523.36218 z"
         transform="matrix(0.161026,0,0,0.1540535,-80.695679,-71.044667)"
         inkscape:export-xdpi="11.69"
         inkscape:export-ydpi="11.69" />
      <path
         inkscape:export-ydpi="11.69"
         inkscape:export-xdpi="11.69"
         transform="matrix(0.1310798,0,0,0.125404,-63.596388,-57.039305)"
         d="M 649,523.36218 A 78,78 0 1 1 493,523.36218 A 78,78 0 1 1 649,523.36218 z"
         sodipodi:ry="78"
         sodipodi:rx="78"
         sodipodi:cy="523.36218"
         sodipodi:cx="571"
         id="path4738"
         style="opacity:0.3;fill:#ffffff;fill-opacity:1;stroke:none;stroke-width:15.97661114;stroke-miterlimit:4;stroke-dasharray:none;stroke-dashoffset:0;stroke-opacity:1"
         sodipodi:type="arc" />
      <path
         inkscape:export-ydpi="11.69"
         inkscape:export-xdpi="11.69"
         transform="matrix(0.2145717,0,0,0.2052813,-99.674158,-138.60588)"
         d="M 545.69474,696.53046 A 28.737768,27.123287 0 1 1 488.2192,696.53046 A 28.737768,27.123287 0 1 1 545.69474,696.53046 z"
         sodipodi:ry="27.123287"
         sodipodi:rx="28.737768"
         sodipodi:cy="696.53046"
         sodipodi:cx="516.95697"
         id="path2975"
         style="fill:url(#radialGradient1571);fill-opacity:1;stroke:none;stroke-width:1;stroke-miterlimit:4;stroke-dasharray:none;stroke-dashoffset:0;stroke-opacity:1"
         sodipodi:type="arc" />
      <g
         id="g4733"
         transform="translate(4.0106208e-4,-1.1534701)">
        <path
           style="fill:none;fill-opacity:0.75;fill-rule:evenodd;stroke:#fffde5;stroke-width:0.77327389;stroke-linecap:round;stroke-linejoin:miter;stroke-miterlimit:4;stroke-dasharray:none;stroke-opacity:1"
           d="M 10.13687,21.908986 L 6.9216329,13.920939"
           id="path4676"
           inkscape:export-xdpi="11.69"
           inkscape:export-ydpi="11.69" />
        <path
           id="path4678"
           d="M 12.362688,21.908986 L 15.577921,13.920939"
           style="fill:none;fill-opacity:0.75;fill-rule:evenodd;stroke:#fffde5;stroke-width:0.77327389;stroke-linecap:round;stroke-linejoin:miter;stroke-miterlimit:4;stroke-dasharray:none;stroke-opacity:1"
           inkscape:export-xdpi="11.69"
           inkscape:export-ydpi="11.69" />
        <path
           style="fill:none;fill-opacity:0.75;fill-rule:evenodd;stroke:#fffde5;stroke-width:0.77327389;stroke-linecap:round;stroke-linejoin:round;stroke-miterlimit:4;stroke-dasharray:none;stroke-opacity:1"
           d="M 6.9788882,17.055617 L 8.7667344,14.381129 L 10.147806,16.357939 L 11.279962,13.529649 L 12.560589,16.41082 L 13.764316,14.391804 L 15.520667,17.055617"
           id="path2399"
           sodipodi:nodetypes="ccccccc" />
      </g>
      <path
         inkscape:export-ydpi="11.69"
         inkscape:export-xdpi="11.69"
         transform="matrix(0.1648548,0,0,0.1577166,-82.881913,-72.961812)"
         d="M 649,523.36218 A 78,78 0 1 1 493,523.36218 A 78,78 0 1 1 649,523.36218 z"
         sodipodi:ry="78"
         sodipodi:rx="78"
         sodipodi:cy="523.36218"
         sodipodi:cx="571"
         id="path3783"
         style="fill:none;fill-opacity:1;stroke:#c4a000;stroke-width:10.08707142;stroke-miterlimit:4;stroke-dasharray:none;stroke-dashoffset:0;stroke-opacity:1"
         sodipodi:type="arc" />
      <path
         inkscape:export-ydpi="11.69"
         inkscape:export-xdpi="11.69"
         transform="matrix(0.209675,0,0,0.200596,-121.2581,-110.40823)"
         d="M 640.75226,697.42804 A 8.7824116,8.418643 0 1 1 623.18744,697.42804 A 8.7824116,8.418643 0 1 1 640.75226,697.42804 z"
         sodipodi:ry="8.418643"
         sodipodi:rx="8.7824116"
         sodipodi:cy="697.42804"
         sodipodi:cx="631.96985"
         id="path2107"
         style="fill:#fce94f;fill-opacity:1;stroke:#c4a000;stroke-width:5.94814301;stroke-miterlimit:4;stroke-dasharray:none;stroke-dashoffset:0;stroke-opacity:1"
         sodipodi:type="arc" />
      <path
         sodipodi:nodetypes="cscscsscscscc"
         id="path3218"
         d="M 8.1956697,20.827606 C 8.1956697,20.827606 6.0349177,20.842619 6.0349177,22.216861 C 6.0349177,23.21197 8.1956697,23.278014 8.1956697,23.278014 C 8.1956697,23.278014 6.0349177,23.245831 6.0349177,24.692882 C 6.0349177,25.690162 8.1956697,25.705231 8.1956697,25.705231 C 8.1956697,25.705231 6.0349177,25.754823 6.0349177,27.301546 C 6.0349177,29.445119 16.465162,29.467854 16.465162,27.301546 C 16.465162,25.705382 14.658656,25.705231 14.658656,25.705231 C 14.658656,25.705231 16.465162,25.722946 16.465162,24.432438 C 16.465162,23.274799 14.658656,23.234056 14.658656,23.234056 C 14.658656,23.234056 16.465162,23.250529 16.465162,21.993624 C 16.465162,20.79901 14.658656,20.846207 14.658656,20.846207 L 8.1956697,20.827606 z"
         style="fill:#fedb00;fill-opacity:1;fill-rule:evenodd;stroke:none;stroke-width:1.1599108;stroke-linecap:butt;stroke-linejoin:round;stroke-miterlimit:4;stroke-dasharray:none;stroke-opacity:1"
         inkscape:export-xdpi="11.69"
         inkscape:export-ydpi="11.69" />
      <path
         inkscape:export-ydpi="11.69"
         inkscape:export-xdpi="11.69"
         style="fill:#edd400;fill-opacity:1;fill-rule:evenodd;stroke:#c4a000;stroke-width:1.21987653;stroke-linecap:butt;stroke-linejoin:round;stroke-miterlimit:4;stroke-dasharray:none;stroke-opacity:1"
         d="M 8.1956699,20.827606 C 8.1956699,20.827606 6.0349174,20.842619 6.0349174,22.216861 C 6.0349174,23.21197 8.1956699,23.278014 8.1956699,23.278014 C 8.1956699,23.278014 6.0349174,23.245831 6.0349174,24.692882 C 6.0349174,25.690162 8.1956699,25.705231 8.1956699,25.705231 C 8.1956699,25.705231 6.0349174,25.754823 6.0349174,27.301546 C 6.0349174,29.445119 16.465162,29.467854 16.465162,27.301546 C 16.465162,25.705382 14.658656,25.705231 14.658656,25.705231 C 14.658656,25.705231 16.465162,25.722946 16.465162,24.432438 C 16.465162,23.274799 14.658656,23.234056 14.658656,23.234056 C 14.658656,23.234056 16.465162,23.250529 16.465162,21.993624 C 16.465162,20.79901 14.658656,20.846207 14.658656,20.846207 L 8.1956699,20.827606 z"
         id="path6506"
         sodipodi:nodetypes="cscscsscscscc" />
      <path
         style="fill:#ffffff;fill-opacity:1;fill-rule:evenodd;stroke:none;stroke-width:1px;stroke-linecap:butt;stroke-linejoin:miter;stroke-opacity:1"
         d="M 16.017638,21.460081 C 16.017638,21.460081 8.1814148,25.081547 8.1814148,25.081547 C 6.7313064,25.788887 5.9934264,24.471699 7.3216398,23.996354 C 7.3216398,23.996354 16.017638,21.460081 16.017638,21.460081 z"
         id="path4727"
         sodipodi:nodetypes="cccc"
         inkscape:export-xdpi="11.69"
         inkscape:export-ydpi="11.69" />
      <path
         inkscape:export-ydpi="11.69"
         inkscape:export-xdpi="11.69"
         sodipodi:nodetypes="cccc"
         id="path4729"
         d="M 19.374102,22.210244 C 19.374102,22.210244 8.1814148,27.653634 8.1814148,27.653634 C 6.7313064,28.360974 5.9934264,27.043786 7.3216398,26.568441 C 7.3216398,26.568441 19.374102,22.210244 19.374102,22.210244 z"
         style="fill:#ffffff;fill-opacity:1;fill-rule:evenodd;stroke:none;stroke-width:1px;stroke-linecap:butt;stroke-linejoin:miter;stroke-opacity:1" />
      <path
         style="fill:#ffffff;fill-opacity:1;fill-rule:evenodd;stroke:none;stroke-width:1px;stroke-linecap:butt;stroke-linejoin:miter;stroke-opacity:1"
         d="M 18.426616,25.041605 C 18.426616,25.041605 12.159582,28.257288 12.159582,28.257288 C 12.159582,28.257288 9.7653619,28.216987 9.7653619,28.216987 C 9.7653619,28.216987 18.426616,25.041605 18.426616,25.041605 z"
         id="path4731"
         sodipodi:nodetypes="czcc"
         inkscape:export-xdpi="11.69"
         inkscape:export-ydpi="11.69" />
    </g>
    <rect
       style="opacity:1;fill:#304c75;fill-opacity:0;stroke:none;stroke-width:1;stroke-miterlimit:4;stroke-dasharray:none;stroke-opacity:1"
       id="CENTOSARTWORK"
       width="48"
       height="48"
       x="-0.23962539"
       y="-33.893665"
       inkscape:label="#rect7995" />
  </g>
</svg>
