<?xml version="1.0" encoding="UTF-8" standalone="no"?>
<!-- Created with Inkscape (http://www.inkscape.org/) -->
<svg
   xmlns:dc="http://purl.org/dc/elements/1.1/"
   xmlns:cc="http://creativecommons.org/ns#"
   xmlns:rdf="http://www.w3.org/1999/02/22-rdf-syntax-ns#"
   xmlns:svg="http://www.w3.org/2000/svg"
   xmlns="http://www.w3.org/2000/svg"
   xmlns:sodipodi="http://sodipodi.sourceforge.net/DTD/sodipodi-0.dtd"
   xmlns:inkscape="http://www.inkscape.org/namespaces/inkscape"
   width="59.999996"
   height="33.464382"
   id="svg2472"
   sodipodi:version="0.32"
   inkscape:version="0.46"
   version="1.0"
   sodipodi:docname="rpmlogo.svg"
   inkscape:output_extension="org.inkscape.output.svg.inkscape">
  <defs
     id="defs2474">
    <inkscape:perspective
       sodipodi:type="inkscape:persp3d"
       inkscape:vp_x="0 : 526.18109 : 1"
       inkscape:vp_y="0 : 1000 : 0"
       inkscape:vp_z="744.09448 : 526.18109 : 1"
       inkscape:persp3d-origin="372.04724 : 350.78739 : 1"
       id="perspective2480" />
  </defs>
  <sodipodi:namedview
     id="base"
     pagecolor="#ffffff"
     bordercolor="#666666"
     borderopacity="1.0"
     gridtolerance="10000"
     guidetolerance="10"
     objecttolerance="10"
     inkscape:pageopacity="0.0"
     inkscape:pageshadow="2"
     inkscape:zoom="11.14"
     inkscape:cx="28.123653"
     inkscape:cy="13.286184"
     inkscape:document-units="px"
     inkscape:current-layer="CENTOSARTWORK"
     showgrid="false"
     showborder="false"
     inkscape:showpageshadow="false"
     inkscape:window-width="1024"
     inkscape:window-height="700"
     inkscape:window-x="0"
     inkscape:window-y="0" />
  <metadata
     id="metadata2477">
    <rdf:RDF>
      <cc:Work
         rdf:about="">
        <dc:format>image/svg+xml</dc:format>
        <dc:type
           rdf:resource="http://purl.org/dc/dcmitype/StillImage" />
      </cc:Work>
    </rdf:RDF>
  </metadata>
  <g
     inkscape:label="Layer 1"
     inkscape:groupmode="layer"
     id="layer1"
     transform="translate(-274.80964,-494.26722)">
    <g
       id="CENTOSARTWORK"
       transform="matrix(0.6243821,0,0,0.6243821,264.35936,473.15187)"
       inkscape:label="#g61">
      <path
         d="M 64.095,53.889 C 64.095,54.764 63.386,55.472 62.511,55.472 C 61.635,55.472 60.926,54.764 60.926,53.889 C 60.926,53.014 61.635,52.304 62.511,52.304 C 63.386,52.304 64.095,53.014 64.095,53.889 z"
         id="path63"
         style="fill:#000000;fill-opacity:1" />
      <path
         d="M 81.736,36.602 L 79.735,39.493 C 88.375,43.849 94.148,51.396 94.336,60.013 L 109.076,63.059 C 107.417,51.212 96.648,41.238 81.736,36.602 z"
         id="path65"
         style="fill:#ff0000" />
      <path
         d="M 62.92,33.818 C 39.699,33.818 20.465,45.752 17.069,61.327 L 30.888,58.884 C 31.913,45.863 45.708,35.546 62.584,35.546 C 68.904,35.546 74.787,36.999 79.734,39.492 L 81.735,36.601 C 75.984,34.814 69.618,33.818 62.92,33.818 z"
         id="path67"
         style="fill:#000000;fill-opacity:1" />
      <path
         d="M 112.332,63.747 C 112.332,63.603 94.34,60.155 94.336,60.012 L 62.159,53.36"
         id="path69"
         style="fill:#000000;stroke:#000000;fill-opacity:1" />
      <path
         d="M 25.364,82.231 L 16.737,82.231 L 16.737,64.451 L 25.364,64.451 L 25.364,65.86 L 26.772,64.451 L 32.933,64.451 L 34.87,64.451 L 31.349,67.972 L 25.38,67.949 L 25.364,82.231 z"
         id="path71"
         style="fill:#000000;fill-opacity:1" />
      <path
         d="M 63.059,73.666 C 62.884,66.135 50.01,64.82 50.01,64.82 L 39.151,64.82 L 39.151,87.414 L 47.12,86.801 L 47.033,82.773 C 47.033,82.772 63.257,82.18 63.059,73.666 z M 47.383,81.634 L 47.383,66.835 L 47.558,66.571 C 65.511,74.278 47.383,81.634 47.383,81.634 z"
         id="path73"
         style="fill:#000000;fill-opacity:1" />
      <path
         d="M 76.573,82.422 L 68.516,82.422 L 68.516,64.441 L 102.611,64.441 C 102.611,64.441 104.479,64.675 105.763,65.492 C 107.047,66.309 107.982,67.242 107.982,67.242 L 107.982,82.458 L 99.342,82.458 L 99.342,67.242 L 92.336,67.242 L 92.336,82.539 L 83.812,82.539 L 83.812,66.893 L 76.69,66.893 L 76.573,82.422 z"
         id="path75"
         style="fill:#000000;fill-opacity:1" />
    </g>
  </g>
</svg>
