<?xml version="1.0" encoding="UTF-8" standalone="no"?>
<!-- Created with Inkscape (http://www.inkscape.org/) -->
<svg
   xmlns:dc="http://purl.org/dc/elements/1.1/"
   xmlns:cc="http://creativecommons.org/ns#"
   xmlns:rdf="http://www.w3.org/1999/02/22-rdf-syntax-ns#"
   xmlns:svg="http://www.w3.org/2000/svg"
   xmlns="http://www.w3.org/2000/svg"
   xmlns:sodipodi="http://sodipodi.sourceforge.net/DTD/sodipodi-0.dtd"
   xmlns:inkscape="http://www.inkscape.org/namespaces/inkscape"
   width="169.00238"
   height="48"
   id="svg2897"
   sodipodi:version="0.32"
   inkscape:version="0.46"
   sodipodi:docname="centos-black.svg"
   inkscape:output_extension="org.inkscape.output.svg.inkscape"
   version="1.0">
  <defs
     id="defs2899">
    <clipPath
       clipPathUnits="userSpaceOnUse"
       id="clipPath4429">
      <g
         transform="matrix(0.9947658,0,0,1,1.7860989,0)"
         id="g4431">
        <path
           sodipodi:nodetypes="ccccccccc"
           style="fill:#efa724;fill-opacity:1;fill-rule:evenodd;stroke:none;stroke-width:30;stroke-linecap:round;stroke-linejoin:round;marker:none;marker-start:none;marker-mid:none;marker-end:none;stroke-miterlimit:4;stroke-dasharray:none;stroke-dashoffset:0;stroke-opacity:1;visibility:visible;display:inline;overflow:visible"
           d="M 322.54143,2800.9375 L 318.10638,2806.6673 L 313.67143,2800.9375 L 313.67143,2757.7946 L 294.73171,2757.7946 L 318.10638,2732.2579 L 341.23763,2757.7946 L 322.54143,2757.7946 L 322.54143,2800.9375 z"
           id="path4433" />
      </g>
    </clipPath>
    <clipPath
       clipPathUnits="userSpaceOnUse"
       id="clipPath5267">
      <path
         style="font-size:72.70541382px;font-style:normal;font-variant:normal;font-weight:200;font-stretch:normal;text-align:start;line-height:125%;writing-mode:lr-tb;text-anchor:start;fill:#75507b;fill-opacity:1;stroke:none;stroke-width:2.48031497;stroke-linecap:butt;stroke-linejoin:miter;stroke-miterlimit:4;stroke-dasharray:none;stroke-opacity:1;display:inline;font-family:Denmark;-inkscape-font-specification:Denmark Ultra-Light"
         clip-path="none"
         d="M -845.05948,523.74338 L -850.84773,523.74338 C -851.43468,523.74338 -852.01538,523.65704 -852.58982,523.48432 C -853.70128,523.12562 -854.58169,522.30193 -855.23106,521.01327 C -855.81802,519.84417 -856.11149,518.48245 -856.11149,516.92807 C -856.11149,515.42686 -855.84924,514.09832 -855.32474,512.9425 C -854.75028,511.66713 -853.93231,510.79695 -852.87081,510.33195 C -852.0466,509.97328 -851.20364,509.79393 -850.34196,509.79391 L -845.09695,509.79391 L -845.09695,512.46424 L -850.54802,512.46424 C -851.43468,512.46425 -852.07781,512.97573 -852.47744,513.99868 C -852.78964,514.7958 -852.94575,515.83869 -852.94575,517.12735 C -852.94575,518.21674 -852.74594,519.14005 -852.34631,519.8973 C -851.88425,520.78744 -851.23487,521.23248 -850.39815,521.23248 L -845.05948,521.21255 L -845.05948,523.74338 M -835.41943,523.80318 L -839.99008,523.80318 C -841.10153,523.80318 -842.06935,523.29834 -842.89357,522.28866 C -843.7053,521.2657 -844.11116,520.08996 -844.11116,518.76144 C -844.11116,517.31335 -843.66784,516.06454 -842.78118,515.015 C -841.88203,513.95219 -840.88298,513.42078 -839.78403,513.42077 L -835.43815,513.42077 L -835.43815,515.55304 L -838.62263,515.55304 C -839.02224,515.55306 -839.36567,515.59292 -839.65289,515.67263 C -839.92764,515.73906 -840.18364,515.87854 -840.42091,516.09109 C -840.85801,516.48965 -841.07655,517.02771 -841.07655,517.70526 L -835.45688,517.70526 L -835.45688,519.85746 L -841.05782,519.85746 C -841.05782,520.17631 -841.02659,520.44866 -840.96416,520.67451 C -840.88922,520.88706 -840.74562,521.10626 -840.53332,521.33212 C -840.32101,521.54468 -840.07126,521.69083 -839.78403,521.77054 C -839.48431,521.83696 -839.12216,521.87017 -838.69756,521.87017 L -835.41943,521.87017 L -835.41943,523.80318 M -824.73736,523.74338 L -827.34115,523.74338 L -827.34115,516.94799 C -827.34116,516.7753 -827.37862,516.62252 -827.45355,516.48965 C -827.52848,516.34352 -827.63463,516.20402 -827.77199,516.07117 C -828.02176,515.84532 -828.30897,515.7324 -828.63367,515.73239 L -831.18125,515.73239 L -831.18125,523.74338 L -833.78504,523.74338 L -833.78504,513.42077 L -828.80227,513.42077 C -827.91561,513.42078 -827.27248,513.47393 -826.87284,513.58019 C -826.24845,513.73964 -825.74893,514.09168 -825.37426,514.63636 C -824.94967,515.27407 -824.73737,515.97153 -824.73736,516.7288 L -824.73736,523.74338 M -817.25913,515.57297 L -819.78797,515.57297 L -819.78797,520.25602 C -819.78797,520.68115 -819.65061,521.03321 -819.37585,521.31219 C -819.06367,521.59118 -818.65155,521.73069 -818.13954,521.73068 L -817.37153,521.73068 L -817.37153,523.74338 L -819.78797,523.74338 C -820.51228,523.74338 -821.13044,523.4644 -821.64246,522.90642 C -821.94218,522.57429 -822.13574,522.20895 -822.22315,521.81039 C -822.31057,521.41183 -822.35428,520.9402 -822.35428,520.39551 L -822.35428,515.57297 L -824.00272,515.57297 L -824.00272,513.42077 L -822.35428,513.42077 L -822.35428,509.79391 L -819.78797,509.79391 L -819.78797,513.42077 L -817.25913,513.42077 L -817.25913,515.57297 M -801.97276,516.74871 C -801.97279,519.4589 -802.67836,521.39854 -804.0895,522.56764 C -805.23842,523.51089 -806.91183,523.98251 -809.10973,523.98251 C -811.54492,523.98251 -813.34321,523.43782 -814.5046,522.34843 C -815.77841,521.15277 -816.4153,519.23306 -816.4153,516.58929 C -816.4153,514.42382 -815.84709,512.7366 -814.71066,511.52763 C -813.47435,510.2124 -811.62609,509.55478 -809.16593,509.55477 C -806.45602,509.55478 -804.54533,510.18584 -803.43386,511.44792 C -802.45982,512.56388 -801.97279,514.33081 -801.97276,516.74871 M -805.30708,516.669 C -805.3071,515.30064 -805.61306,514.21124 -806.22496,513.40085 C -806.91183,512.49747 -807.92961,512.04576 -809.27832,512.04575 C -810.60207,512.04576 -811.60112,512.53069 -812.27548,513.50048 C -812.83744,514.31089 -813.11844,515.36707 -813.11843,516.669 C -813.11844,518.17025 -812.89364,519.27955 -812.44407,519.99695 C -811.81966,520.99336 -810.66451,521.49153 -808.97862,521.49153 C -807.55497,521.49153 -806.55593,521.00663 -805.98145,520.0368 C -805.53189,519.27955 -805.3071,518.15695 -805.30708,516.669 M -786.97852,519.41904 C -786.97853,520.64129 -787.35942,521.67089 -788.12118,522.50785 C -788.88296,523.34483 -789.85081,523.76332 -791.02467,523.76332 L -800.29712,523.74338 L -800.29712,521.23248 L -792.65437,521.23248 C -792.14236,521.23248 -791.71152,521.10626 -791.36185,520.85385 C -790.96224,520.56159 -790.76243,520.16303 -790.76243,519.65819 C -790.76243,518.4758 -791.54918,517.88461 -793.12267,517.8846 L -796.9815,517.8846 C -798.09297,517.88461 -799.06704,517.51926 -799.90374,516.78858 C -800.74045,516.0579 -801.15878,515.12794 -801.15878,513.99868 C -801.15878,512.74988 -800.75295,511.7402 -799.9412,510.96965 C -799.11699,510.18584 -798.03676,509.79393 -796.70053,509.79391 L -787.8402,509.79391 L -787.8402,512.18526 L -795.65152,512.18526 C -796.00119,512.18527 -796.35711,512.34468 -796.71926,512.66352 C -797.06894,512.96909 -797.24377,513.33442 -797.24376,513.75955 C -797.24377,514.23781 -797.07517,514.64303 -796.73799,514.97514 C -796.38833,515.29399 -795.96997,515.45342 -795.48293,515.45341 L -791.23072,515.45341 C -789.907,515.45342 -788.87048,515.81877 -788.12118,516.54944 C -787.35942,517.26686 -786.97853,518.22338 -786.97852,519.41904"
         id="path5269"
         inkscape:label="" />
    </clipPath>
    <filter
       inkscape:collect="always"
       id="filter5271">
      <feGaussianBlur
         inkscape:collect="always"
         stdDeviation="0.41780355"
         id="feGaussianBlur5273" />
    </filter>
  </defs>
  <sodipodi:namedview
     id="base"
     pagecolor="#ffffff"
     bordercolor="#666666"
     borderopacity="1.0"
     gridtolerance="10000"
     guidetolerance="10"
     objecttolerance="10"
     inkscape:pageopacity="0.0"
     inkscape:pageshadow="2"
     inkscape:zoom="5.0709345"
     inkscape:cx="84.50119"
     inkscape:cy="24"
     inkscape:document-units="px"
     inkscape:current-layer="g2529"
     showgrid="false"
     inkscape:window-width="1360"
     inkscape:window-height="693"
     inkscape:window-x="0"
     inkscape:window-y="25"
     showborder="true"
     inkscape:showpageshadow="false"
     showguides="true"
     inkscape:guide-bbox="true">
    <inkscape:grid
       type="xygrid"
       id="grid3843"
       visible="true"
       enabled="true" />
  </sodipodi:namedview>
  <metadata
     id="CENTOSMETADATA">
    <rdf:RDF>
      <cc:Work
         rdf:about="">
        <dc:format>image/svg+xml</dc:format>
        <dc:type
           rdf:resource="http://purl.org/dc/dcmitype/StillImage" />
        <cc:license
           rdf:resource="http://creativecommons.org/licenses/by-sa/3.0/" />
        <dc:title>centos-violet.svg</dc:title>
        <dc:date>2011-07-12</dc:date>
        <dc:creator>
          <cc:Agent>
            <dc:title>The CentOS Artwork SIG</dc:title>
          </cc:Agent>
        </dc:creator>
        <dc:rights>
          <cc:Agent>
            <dc:title>The CentOS Artwork SIG</dc:title>
          </cc:Agent>
        </dc:rights>
        <dc:publisher>
          <cc:Agent>
            <dc:title>The CentOS Artwork SIG</dc:title>
          </cc:Agent>
        </dc:publisher>
        <dc:identifier>https://projects.centos.org/svn/artwork/trunk/Identity/Models/Brands/Logos/centos-violet.svg</dc:identifier>
        <dc:source>https://projects.centos.org/svn/artwork/trunk/Identity/Models/Brands/Logos/centos-violet.svg</dc:source>
        <dc:relation>https://projects.centos.org/svn/artwork/trunk/Identity/Models/Brands/Logos/centos-violet.svg</dc:relation>
        <dc:language>en_US</dc:language>
        <dc:subject>
          <rdf:Bag>
            <rdf:li>Identity</rdf:li>
            <rdf:li>Models</rdf:li>
            <rdf:li>Brands</rdf:li>
            <rdf:li>Logos</rdf:li>
          </rdf:Bag>
        </dc:subject>
        <dc:coverage>The CentOS Artwork SIG</dc:coverage>
        <dc:description />
        <dc:contributor />
      </cc:Work>
      <cc:License
         rdf:about="http://creativecommons.org/licenses/by-sa/3.0/">
        <cc:permits
           rdf:resource="http://creativecommons.org/ns#Reproduction" />
        <cc:permits
           rdf:resource="http://creativecommons.org/ns#Distribution" />
        <cc:requires
           rdf:resource="http://creativecommons.org/ns#Notice" />
        <cc:requires
           rdf:resource="http://creativecommons.org/ns#Attribution" />
        <cc:permits
           rdf:resource="http://creativecommons.org/ns#DerivativeWorks" />
        <cc:requires
           rdf:resource="http://creativecommons.org/ns#ShareAlike" />
      </cc:License>
    </rdf:RDF>
  </metadata>
  <g
     inkscape:label="Layer 1"
     inkscape:groupmode="layer"
     id="layer1"
     transform="translate(919.75397,-561.04114)">
    <rect
       style="opacity:0;fill:#ffffff;fill-opacity:1;fill-rule:nonzero;stroke:none;stroke-width:1;stroke-linecap:round;stroke-linejoin:round;marker:none;marker-start:none;marker-mid:none;marker-end:none;stroke-miterlimit:4;stroke-dasharray:none;stroke-dashoffset:0;stroke-opacity:1;visibility:visible;display:inline;overflow:visible;enable-background:accumulate"
       id="CENTOSARTWORK"
       width="169.00238"
       height="48"
       x="-919.75397"
       y="561.04114"
       inkscape:label="#rect3427" />
    <g
       id="g2529"
       transform="matrix(1.3862185,0,0,1.3862185,319.67696,-131.35061)">
      <g
         inkscape:label="#g9335"
         inkscape:export-ydpi="28.883154"
         inkscape:export-xdpi="28.883154"
         inkscape:export-filename="/home/al/Desktop/CentOS/Symbol Construction/CentOSSymbol_20.png"
         transform="matrix(4.7716762e-2,0,0,4.7716744e-2,-887.55939,464.09782)"
         id="g9335">
        <g
           inkscape:export-ydpi="50.799999"
           inkscape:export-xdpi="50.799999"
           inkscape:export-filename="/home/al/Desktop/CentOSSymbol_Final.png"
           id="g13583"
           transform="matrix(1.1808679,0,0,1.1808679,586.42082,-1141.3723)">
          <g
             transform="translate(-556.83343,-494.55601)"
             id="g13467">
            <g
               transform="matrix(0,-3.7770771,3.7770771,0,-6968.6287,3636.3048)"
               id="g13395">
              <g
                 id="g13397"
                 transform="translate(16.279512,-899.16723)">
                <g
                   transform="matrix(1.0666663,0,0,1,-26.935596,-4.1328125e-5)"
                   id="g13399">
                  <path
                     sodipodi:nodetypes="ccccccccc"
                     style="fill:#932279;fill-opacity:1;fill-rule:evenodd;stroke:none;stroke-width:30;stroke-linecap:round;stroke-linejoin:round;marker:none;marker-start:none;marker-mid:none;marker-end:none;stroke-miterlimit:4;stroke-dasharray:none;stroke-dashoffset:0;stroke-opacity:1;visibility:visible;display:inline;overflow:visible"
                     d="M 323.36653,2798.1614 L 317.96037,2803.9619 L 312.55421,2798.1614 L 312.55421,2757.3353 L 294.54088,2757.3353 L 317.96037,2732.4374 L 340.98524,2757.3353 L 323.36654,2757.3353 L 323.36653,2798.1614 z"
                     id="path13401" />
                </g>
                <g
                   clip-path="url(#clipPath4429)"
                   id="g13405"
                   transform="matrix(1.0722788,0,0,1,-28.850792,-4.1328125e-5)" />
              </g>
            </g>
            <g
               id="g13407"
               transform="matrix(3.7770771,0,0,3.7770771,-988.70982,-4824.4941)">
              <g
                 transform="translate(16.279512,-899.16723)"
                 id="g13409">
                <g
                   id="g13411"
                   transform="matrix(1.0666663,0,0,1,-26.935596,-4.1328125e-5)">
                  <path
                     id="path13413"
                     d="M 323.36653,2798.1614 L 317.96037,2803.9619 L 312.55421,2798.1614 L 312.55421,2757.3353 L 294.54088,2757.3353 L 317.96037,2732.4374 L 340.98524,2757.3353 L 323.36654,2757.3353 L 323.36653,2798.1614 z"
                     style="fill:#efa724;fill-opacity:1;fill-rule:evenodd;stroke:none;stroke-width:30;stroke-linecap:round;stroke-linejoin:round;marker:none;marker-start:none;marker-mid:none;marker-end:none;stroke-miterlimit:4;stroke-dasharray:none;stroke-dashoffset:0;stroke-opacity:1;visibility:visible;display:inline;overflow:visible"
                     sodipodi:nodetypes="ccccccccc" />
                </g>
                <g
                   transform="matrix(1.0722788,0,0,1,-28.850792,-4.1328125e-5)"
                   id="g13417"
                   clip-path="url(#clipPath4429)" />
              </g>
            </g>
            <g
               transform="matrix(0,3.7770771,-3.7770771,0,10868.313,1216.9132)"
               id="g13419">
              <g
                 id="g13421"
                 transform="matrix(1.0666663,0,0,1,-26.935596,-4.1328125e-5)">
                <path
                   id="path13423"
                   d="M 323.36653,2798.1614 L 317.96037,2803.9619 L 312.55421,2798.1614 L 312.55421,2757.3353 L 294.54088,2757.3353 L 317.96037,2732.4374 L 340.98524,2757.3353 L 323.36654,2757.3353 L 323.36653,2798.1614 z"
                   style="fill:#262577;fill-opacity:1;fill-rule:evenodd;stroke:none;stroke-width:30;stroke-linecap:round;stroke-linejoin:round;marker:none;marker-start:none;marker-mid:none;marker-end:none;stroke-miterlimit:4;stroke-dasharray:none;stroke-dashoffset:0;stroke-opacity:1;visibility:visible;display:inline;overflow:visible"
                   sodipodi:nodetypes="ccccccccc" />
              </g>
              <g
                 transform="matrix(1.0722788,0,0,1,-28.850792,-4.1328125e-5)"
                 id="g13427"
                 clip-path="url(#clipPath4429)" />
            </g>
            <g
               id="g13429"
               transform="matrix(-3.7770771,0,0,-3.7770771,1492.1701,9616.2232)">
              <g
                 transform="translate(16.279512,-899.16723)"
                 id="g13431">
                <g
                   id="g13433"
                   transform="matrix(1.0666663,0,0,1,-26.935596,-4.1328125e-5)">
                  <path
                     id="path13435"
                     d="M 323.36653,2798.1614 L 317.96037,2803.9619 L 312.55421,2798.1614 L 312.55421,2757.3353 L 294.54088,2757.3353 L 317.96037,2732.4374 L 340.98524,2757.3353 L 323.36654,2757.3353 L 323.36653,2798.1614 z"
                     style="fill:#9ccd2a;fill-opacity:1;fill-rule:evenodd;stroke:none;stroke-width:30;stroke-linecap:round;stroke-linejoin:round;marker:none;marker-start:none;marker-mid:none;marker-end:none;stroke-miterlimit:4;stroke-dasharray:none;stroke-dashoffset:0;stroke-opacity:1;visibility:visible;display:inline;overflow:visible"
                     sodipodi:nodetypes="ccccccccc" />
                </g>
                <g
                   transform="matrix(1.0722788,0,0,1,-28.850792,-4.1328125e-5)"
                   id="g13439"
                   clip-path="url(#clipPath4429)" />
              </g>
            </g>
            <g
               id="g13441"
               transform="matrix(3.7770771,0,0,3.7770771,-2493.849,-6445.1798)">
              <rect
                 y="2285.7893"
                 x="671.98438"
                 height="49.606449"
                 width="49.606449"
                 id="rect13443"
                 style="fill:#9ccd2a;fill-opacity:1;stroke:#ffffff;stroke-width:3.54330707;stroke-linecap:butt;stroke-linejoin:miter;stroke-miterlimit:4;stroke-dasharray:none;stroke-dashoffset:0;stroke-opacity:1" />
              <rect
                 style="fill:#932279;fill-opacity:1;stroke:#ffffff;stroke-width:3.54330707;stroke-linecap:butt;stroke-linejoin:miter;stroke-miterlimit:4;stroke-dasharray:none;stroke-dashoffset:0;stroke-opacity:1"
                 id="rect13445"
                 width="49.606449"
                 height="49.606449"
                 x="732.22076"
                 y="2285.7893" />
              <rect
                 y="2346.0256"
                 x="732.22076"
                 height="49.606449"
                 width="49.606449"
                 id="rect13447"
                 style="fill:#efa724;fill-opacity:1;stroke:#ffffff;stroke-width:3.54330707;stroke-linecap:butt;stroke-linejoin:miter;stroke-miterlimit:4;stroke-dasharray:none;stroke-dashoffset:0;stroke-opacity:1" />
              <rect
                 style="fill:#262577;fill-opacity:1;stroke:#ffffff;stroke-width:3.54330707;stroke-linecap:butt;stroke-linejoin:miter;stroke-miterlimit:4;stroke-dasharray:none;stroke-dashoffset:0;stroke-opacity:1"
                 id="rect13449"
                 width="49.606449"
                 height="49.606449"
                 x="671.98438"
                 y="2346.0256" />
            </g>
            <rect
               transform="matrix(0.7071068,-0.7071068,0.7071068,0.7071068,0,0)"
               style="fill:none;fill-opacity:1;stroke:#ffffff;stroke-width:13.38334465;stroke-linecap:butt;stroke-linejoin:miter;stroke-miterlimit:4;stroke-dasharray:none;stroke-dashoffset:0;stroke-opacity:1"
               id="rect13459"
               width="187.36739"
               height="187.36739"
               x="-1723.575"
               y="1664.6902" />
            <rect
               transform="matrix(0.7071068,-0.7071068,0.7071068,0.7071068,0,0)"
               y="1664.6902"
               x="-1496.0573"
               height="187.36739"
               width="187.36739"
               id="rect13461"
               style="fill:none;fill-opacity:1;stroke:#ffffff;stroke-width:13.38334465;stroke-linecap:butt;stroke-linejoin:miter;stroke-miterlimit:4;stroke-dasharray:none;stroke-dashoffset:0;stroke-opacity:1" />
            <rect
               transform="matrix(0.7071068,-0.7071068,0.7071068,0.7071068,0,0)"
               style="fill:none;fill-opacity:1;stroke:#ffffff;stroke-width:13.38334465;stroke-linecap:butt;stroke-linejoin:miter;stroke-miterlimit:4;stroke-dasharray:none;stroke-dashoffset:0;stroke-opacity:1"
               id="rect13463"
               width="187.36739"
               height="187.36739"
               x="-1496.0573"
               y="1892.2074" />
            <rect
               transform="matrix(0.7071068,-0.7071068,0.7071068,0.7071068,0,0)"
               y="1892.2074"
               x="-1723.575"
               height="187.36739"
               width="187.36739"
               id="rect13465"
               style="fill:none;fill-opacity:1;stroke:#ffffff;stroke-width:13.38334465;stroke-linecap:butt;stroke-linejoin:miter;stroke-miterlimit:4;stroke-dasharray:none;stroke-dashoffset:0;stroke-opacity:1" />
          </g>
        </g>
      </g>
      <path
         inkscape:label=""
         id="path3841"
         d="M -843.15992,524.94217 L -849.94302,524.94217 C -850.63085,524.94217 -851.31136,524.84098 -851.98453,524.63858 C -853.28703,524.21823 -854.31876,523.25297 -855.07974,521.74282 C -855.76758,520.37278 -856.11149,518.77701 -856.11149,516.95547 C -856.11149,515.19624 -855.80417,513.63936 -855.18952,512.28489 C -854.51632,510.79031 -853.55776,509.77057 -852.31382,509.22565 C -851.34795,508.80533 -850.36011,508.59515 -849.35033,508.59513 L -843.20383,508.59513 L -843.20383,511.72442 L -849.5918,511.72442 C -850.63085,511.72443 -851.38452,512.32382 -851.85284,513.5226 C -852.2187,514.45672 -852.40164,515.67886 -852.40164,517.18901 C -852.40164,518.46564 -852.16749,519.54764 -851.69917,520.43504 C -851.1577,521.47817 -850.3967,521.99971 -849.41617,521.9997 L -843.15992,521.97635 L -843.15992,524.94217 M -831.86298,525.01224 L -837.21922,525.01224 C -838.52169,525.01224 -839.65586,524.42063 -840.62174,523.23741 C -841.57299,522.03863 -842.0486,520.66081 -842.0486,519.10395 C -842.0486,517.40697 -841.52909,515.94353 -840.49003,514.7136 C -839.43634,513.46812 -838.26558,512.84537 -836.97775,512.84536 L -831.88492,512.84536 L -831.88492,515.34411 L -835.61673,515.34411 C -836.08503,515.34414 -836.48749,515.39084 -836.82407,515.48425 C -837.14604,515.5621 -837.44604,515.72556 -837.72409,515.97464 C -838.23632,516.4417 -838.49242,517.07224 -838.49242,517.86624 L -831.90687,517.86624 L -831.90687,520.38835 L -838.47047,520.38835 C -838.47047,520.76201 -838.43388,521.08116 -838.36071,521.34583 C -838.27289,521.59492 -838.10461,521.85179 -837.85582,522.11647 C -837.60702,522.36556 -837.31435,522.53683 -836.97775,522.63024 C -836.62651,522.70808 -836.20212,522.747 -835.70454,522.747 L -831.86298,522.747 L -831.86298,525.01224 M -819.34493,524.94217 L -822.39625,524.94217 L -822.39625,516.97882 C -822.39626,516.77645 -822.44016,516.59741 -822.52797,516.4417 C -822.61578,516.27046 -822.74017,516.10698 -822.90114,515.9513 C -823.19384,515.68663 -823.53042,515.5543 -823.91092,515.55429 L -826.89637,515.55429 L -826.89637,524.94217 L -829.94768,524.94217 L -829.94768,512.84536 L -824.1085,512.84536 C -823.06945,512.84537 -822.31578,512.90765 -821.84745,513.03218 C -821.11574,513.21903 -820.53037,513.63158 -820.0913,514.26988 C -819.59374,515.01719 -819.34495,515.83453 -819.34493,516.72195 L -819.34493,524.94217 M -810.58138,515.36747 L -813.54487,515.36747 L -813.54487,520.85541 C -813.54487,521.35361 -813.3839,521.76618 -813.06192,522.09311 C -812.69608,522.42006 -812.21313,522.58354 -811.61311,522.58353 L -810.7131,522.58353 L -810.7131,524.94217 L -813.54487,524.94217 C -814.39367,524.94217 -815.11808,524.61523 -815.7181,523.96135 C -816.06933,523.57214 -816.29616,523.144 -816.39859,522.67694 C -816.50104,522.20988 -816.55226,521.65719 -816.55226,521.01888 L -816.55226,515.36747 L -818.48403,515.36747 L -818.48403,512.84536 L -816.55226,512.84536 L -816.55226,508.59513 L -813.54487,508.59513 L -813.54487,512.84536 L -810.58138,512.84536 L -810.58138,515.36747 M -792.66767,516.74529 C -792.6677,519.92129 -793.49454,522.19431 -795.14822,523.56435 C -796.49461,524.66972 -798.45564,525.2224 -801.03131,525.2224 C -803.88504,525.2224 -805.99241,524.58409 -807.35342,523.30746 C -808.84617,521.9063 -809.59252,519.65664 -809.59252,516.55847 C -809.59252,514.02081 -808.92665,512.0436 -807.59489,510.62683 C -806.14609,509.08555 -803.98016,508.3149 -801.09716,508.31489 C -797.92149,508.3149 -795.6824,509.05442 -794.3799,510.53342 C -793.23844,511.84119 -792.6677,513.91181 -792.66767,516.74529 M -796.57508,516.65188 C -796.5751,515.04833 -796.93365,513.77169 -797.65072,512.82201 C -798.45564,511.76336 -799.64835,511.23402 -801.22887,511.23401 C -802.78014,511.23402 -803.9509,511.80229 -804.74117,512.93877 C -805.39972,513.88847 -805.72901,515.12618 -805.729,516.65188 C -805.72901,518.41115 -805.46558,519.71112 -804.93873,520.55182 C -804.207,521.71948 -802.85331,522.30328 -800.87766,522.30328 C -799.20932,522.30328 -798.03857,521.73504 -797.36535,520.59852 C -796.83852,519.71112 -796.5751,518.39557 -796.57508,516.65188 M -775.09629,519.87458 C -775.0963,521.3069 -775.54266,522.51347 -776.43535,523.49428 C -777.32806,524.47511 -778.46226,524.96553 -779.83787,524.96553 L -790.70403,524.94217 L -790.70403,521.9997 L -781.74768,521.9997 C -781.14767,521.99971 -780.64278,521.85179 -780.23301,521.556 C -779.76471,521.2135 -779.53056,520.74644 -779.53056,520.15483 C -779.53056,518.76922 -780.45253,518.07642 -782.29647,518.07641 L -786.81854,518.07641 C -788.12104,518.07642 -789.26253,517.64828 -790.24303,516.79201 C -791.22355,515.93574 -791.71379,514.84595 -791.71379,513.5226 C -791.71379,512.05916 -791.2382,510.87594 -790.28693,509.97295 C -789.32106,509.05442 -788.05517,508.59515 -786.48927,508.59513 L -776.10608,508.59513 L -776.10608,511.39749 L -785.25996,511.39749 C -785.66974,511.3975 -786.08683,511.58431 -786.51122,511.95795 C -786.921,512.31605 -787.12588,512.74417 -787.12587,513.24236 C -787.12588,513.80283 -786.92831,514.27769 -786.53317,514.66689 C -786.12341,515.04054 -785.63315,515.22737 -785.0624,515.22736 L -780.07934,515.22736 C -778.5281,515.22737 -777.31343,515.65551 -776.43535,516.51177 C -775.54266,517.35249 -775.0963,518.47342 -775.09629,519.87458"
         clip-path="none"
         style="font-size:72.70541382000000397px;font-style:normal;font-variant:normal;font-weight:200;font-stretch:normal;text-align:start;line-height:125%;writing-mode:lr-tb;text-anchor:start;fill:#000000;fill-opacity:1;stroke:none;stroke-width:2.48031496999999979;stroke-linecap:butt;stroke-linejoin:miter;stroke-miterlimit:4;stroke-dasharray:none;stroke-opacity:1;display:inline;font-family:Denmark;-inkscape-font-specification:Denmark Ultra-Light" />
    </g>
  </g>
</svg>
