<?xml version="1.0" encoding="UTF-8" standalone="no"?>
<!-- Created with Inkscape (http://www.inkscape.org/) -->
<svg
   xmlns:dc="http://purl.org/dc/elements/1.1/"
   xmlns:cc="http://creativecommons.org/ns#"
   xmlns:rdf="http://www.w3.org/1999/02/22-rdf-syntax-ns#"
   xmlns:svg="http://www.w3.org/2000/svg"
   xmlns="http://www.w3.org/2000/svg"
   xmlns:sodipodi="http://sodipodi.sourceforge.net/DTD/sodipodi-0.dtd"
   xmlns:inkscape="http://www.inkscape.org/namespaces/inkscape"
   width="185"
   height="58"
   id="svg2897"
   sodipodi:version="0.32"
   inkscape:version="0.46"
   sodipodi:docname="centos-logo-black.svg"
   inkscape:output_extension="org.inkscape.output.svg.inkscape"
   version="1.0">
  <defs
     id="defs2899">
    <clipPath
       clipPathUnits="userSpaceOnUse"
       id="clipPath4429">
      <g
         transform="matrix(0.9947658,0,0,1,1.7860989,0)"
         id="g4431">
        <path
           sodipodi:nodetypes="ccccccccc"
           style="fill:#efa724;fill-opacity:1;fill-rule:evenodd;stroke:none;stroke-width:30;stroke-linecap:round;stroke-linejoin:round;marker:none;marker-start:none;marker-mid:none;marker-end:none;stroke-miterlimit:4;stroke-dasharray:none;stroke-dashoffset:0;stroke-opacity:1;visibility:visible;display:inline;overflow:visible"
           d="M 322.54143,2800.9375 L 318.10638,2806.6673 L 313.67143,2800.9375 L 313.67143,2757.7946 L 294.73171,2757.7946 L 318.10638,2732.2579 L 341.23763,2757.7946 L 322.54143,2757.7946 L 322.54143,2800.9375 z"
           id="path4433" />
      </g>
    </clipPath>
    <inkscape:perspective
       sodipodi:type="inkscape:persp3d"
       inkscape:vp_x="0 : 526.18109 : 1"
       inkscape:vp_y="0 : 1000 : 0"
       inkscape:vp_z="744.09448 : 526.18109 : 1"
       inkscape:persp3d-origin="372.04724 : 350.78739 : 1"
       id="perspective2905" />
  </defs>
  <sodipodi:namedview
     id="base"
     pagecolor="#ffffff"
     bordercolor="#666666"
     borderopacity="1.0"
     gridtolerance="10000"
     guidetolerance="10"
     objecttolerance="10"
     inkscape:pageopacity="0.0"
     inkscape:pageshadow="2"
     inkscape:zoom="2.7351351"
     inkscape:cx="69.769031"
     inkscape:cy="17.307523"
     inkscape:document-units="px"
     inkscape:current-layer="layer1"
     showgrid="true"
     inkscape:window-width="1360"
     inkscape:window-height="693"
     inkscape:window-x="0"
     inkscape:window-y="25"
     showborder="true"
     inkscape:showpageshadow="false"
     showguides="true"
     inkscape:guide-bbox="true">
    <inkscape:grid
       type="xygrid"
       id="grid3843"
       visible="true"
       enabled="true" />
    <sodipodi:guide
       orientation="0,1"
       position="89.218851,0"
       id="guide3853" />
    <sodipodi:guide
       orientation="0,1"
       position="68.45518,58"
       id="guide3855" />
    <sodipodi:guide
       orientation="1,0"
       position="0,27.188589"
       id="guide3857" />
    <sodipodi:guide
       orientation="1,0"
       position="185,28.195574"
       id="guide3859" />
    <sodipodi:guide
       orientation="1,0"
       position="190,32.597705"
       id="guide2437" />
    <sodipodi:guide
       orientation="0,1"
       position="0,53"
       id="guide2439" />
    <sodipodi:guide
       orientation="0,1"
       position="0,5"
       id="guide2441" />
    <sodipodi:guide
       orientation="1,0"
       position="5,0"
       id="guide2443" />
    <sodipodi:guide
       orientation="1,0"
       position="180,23.050058"
       id="guide2445" />
  </sodipodi:namedview>
  <metadata
     id="metadata2902">
    <rdf:RDF>
      <cc:Work
         rdf:about="">
        <dc:format>image/svg+xml</dc:format>
        <dc:type
           rdf:resource="http://purl.org/dc/dcmitype/StillImage" />
      </cc:Work>
    </rdf:RDF>
  </metadata>
  <g
     inkscape:label="Layer 1"
     inkscape:groupmode="layer"
     id="layer1"
     transform="translate(919.75396,-549.04114)">
    <rect
       style="opacity:0;fill:#ffffff;fill-opacity:1;fill-rule:nonzero;stroke:none;stroke-width:1;stroke-linecap:round;stroke-linejoin:round;marker:none;marker-start:none;marker-mid:none;marker-end:none;stroke-miterlimit:4;stroke-dasharray:none;stroke-dashoffset:0;stroke-opacity:1;visibility:visible;display:inline;overflow:visible;enable-background:accumulate"
       id="CENTOSARTWORK"
       width="190"
       height="58"
       x="-919.75397"
       y="549.04114"
       inkscape:label="#rect3427" />
    <g
       id="g9335"
       transform="matrix(6.7733333e-2,0,0,6.7733333e-2,-904.07077,503.27555)"
       inkscape:export-filename="/home/al/Desktop/CentOS/Symbol Construction/CentOSSymbol_20.png"
       inkscape:export-xdpi="28.883154"
       inkscape:export-ydpi="28.883154"
       inkscape:label="#g9335">
      <g
         transform="matrix(1.1808679,0,0,1.1808679,586.42082,-1141.3723)"
         id="g13583"
         inkscape:export-filename="/home/al/Desktop/CentOSSymbol_Final.png"
         inkscape:export-xdpi="50.799999"
         inkscape:export-ydpi="50.799999">
        <g
           id="g13467"
           transform="translate(-556.83343,-494.55601)">
          <g
             id="g13395"
             transform="matrix(0,-3.7770771,3.7770771,0,-6968.6287,3636.3048)">
            <g
               transform="translate(16.279512,-899.16723)"
               id="g13397">
              <g
                 id="g13399"
                 transform="matrix(1.0666663,0,0,1,-26.935596,-4.1328125e-5)">
                <path
                   id="path13401"
                   d="M 323.36653,2798.1614 L 317.96037,2803.9619 L 312.55421,2798.1614 L 312.55421,2757.3353 L 294.54088,2757.3353 L 317.96037,2732.4374 L 340.98524,2757.3353 L 323.36654,2757.3353 L 323.36653,2798.1614 z"
                   style="fill:#932279;fill-opacity:1;fill-rule:evenodd;stroke:none;stroke-width:30;stroke-linecap:round;stroke-linejoin:round;marker:none;marker-start:none;marker-mid:none;marker-end:none;stroke-miterlimit:4;stroke-dasharray:none;stroke-dashoffset:0;stroke-opacity:1;visibility:visible;display:inline;overflow:visible"
                   sodipodi:nodetypes="ccccccccc" />
              </g>
              <g
                 transform="matrix(1.0722788,0,0,1,-28.850792,-4.1328125e-5)"
                 id="g13405"
                 clip-path="url(#clipPath4429)" />
            </g>
          </g>
          <g
             transform="matrix(3.7770771,0,0,3.7770771,-988.70982,-4824.4941)"
             id="g13407">
            <g
               id="g13409"
               transform="translate(16.279512,-899.16723)">
              <g
                 transform="matrix(1.0666663,0,0,1,-26.935596,-4.1328125e-5)"
                 id="g13411">
                <path
                   sodipodi:nodetypes="ccccccccc"
                   style="fill:#efa724;fill-opacity:1;fill-rule:evenodd;stroke:none;stroke-width:30;stroke-linecap:round;stroke-linejoin:round;marker:none;marker-start:none;marker-mid:none;marker-end:none;stroke-miterlimit:4;stroke-dasharray:none;stroke-dashoffset:0;stroke-opacity:1;visibility:visible;display:inline;overflow:visible"
                   d="M 323.36653,2798.1614 L 317.96037,2803.9619 L 312.55421,2798.1614 L 312.55421,2757.3353 L 294.54088,2757.3353 L 317.96037,2732.4374 L 340.98524,2757.3353 L 323.36654,2757.3353 L 323.36653,2798.1614 z"
                   id="path13413" />
              </g>
              <g
                 clip-path="url(#clipPath4429)"
                 id="g13417"
                 transform="matrix(1.0722788,0,0,1,-28.850792,-4.1328125e-5)" />
            </g>
          </g>
          <g
             id="g13419"
             transform="matrix(0,3.7770771,-3.7770771,0,10868.313,1216.9132)">
            <g
               transform="matrix(1.0666663,0,0,1,-26.935596,-4.1328125e-5)"
               id="g13421">
              <path
                 sodipodi:nodetypes="ccccccccc"
                 style="fill:#262577;fill-opacity:1;fill-rule:evenodd;stroke:none;stroke-width:30;stroke-linecap:round;stroke-linejoin:round;marker:none;marker-start:none;marker-mid:none;marker-end:none;stroke-miterlimit:4;stroke-dasharray:none;stroke-dashoffset:0;stroke-opacity:1;visibility:visible;display:inline;overflow:visible"
                 d="M 323.36653,2798.1614 L 317.96037,2803.9619 L 312.55421,2798.1614 L 312.55421,2757.3353 L 294.54088,2757.3353 L 317.96037,2732.4374 L 340.98524,2757.3353 L 323.36654,2757.3353 L 323.36653,2798.1614 z"
                 id="path13423" />
            </g>
            <g
               clip-path="url(#clipPath4429)"
               id="g13427"
               transform="matrix(1.0722788,0,0,1,-28.850792,-4.1328125e-5)" />
          </g>
          <g
             transform="matrix(-3.7770771,0,0,-3.7770771,1492.1701,9616.2232)"
             id="g13429">
            <g
               id="g13431"
               transform="translate(16.279512,-899.16723)">
              <g
                 transform="matrix(1.0666663,0,0,1,-26.935596,-4.1328125e-5)"
                 id="g13433">
                <path
                   sodipodi:nodetypes="ccccccccc"
                   style="fill:#9ccd2a;fill-opacity:1;fill-rule:evenodd;stroke:none;stroke-width:30;stroke-linecap:round;stroke-linejoin:round;marker:none;marker-start:none;marker-mid:none;marker-end:none;stroke-miterlimit:4;stroke-dasharray:none;stroke-dashoffset:0;stroke-opacity:1;visibility:visible;display:inline;overflow:visible"
                   d="M 323.36653,2798.1614 L 317.96037,2803.9619 L 312.55421,2798.1614 L 312.55421,2757.3353 L 294.54088,2757.3353 L 317.96037,2732.4374 L 340.98524,2757.3353 L 323.36654,2757.3353 L 323.36653,2798.1614 z"
                   id="path13435" />
              </g>
              <g
                 clip-path="url(#clipPath4429)"
                 id="g13439"
                 transform="matrix(1.0722788,0,0,1,-28.850792,-4.1328125e-5)" />
            </g>
          </g>
          <g
             transform="matrix(3.7770771,0,0,3.7770771,-2493.849,-6445.1798)"
             id="g13441">
            <rect
               style="fill:#9ccd2a;fill-opacity:1;stroke:#ffffff;stroke-width:3.54330707;stroke-linecap:butt;stroke-linejoin:miter;stroke-miterlimit:4;stroke-dasharray:none;stroke-dashoffset:0;stroke-opacity:1"
               id="rect13443"
               width="49.606449"
               height="49.606449"
               x="671.98438"
               y="2285.7893" />
            <rect
               y="2285.7893"
               x="732.22076"
               height="49.606449"
               width="49.606449"
               id="rect13445"
               style="fill:#932279;fill-opacity:1;stroke:#ffffff;stroke-width:3.54330707;stroke-linecap:butt;stroke-linejoin:miter;stroke-miterlimit:4;stroke-dasharray:none;stroke-dashoffset:0;stroke-opacity:1" />
            <rect
               style="fill:#efa724;fill-opacity:1;stroke:#ffffff;stroke-width:3.54330707;stroke-linecap:butt;stroke-linejoin:miter;stroke-miterlimit:4;stroke-dasharray:none;stroke-dashoffset:0;stroke-opacity:1"
               id="rect13447"
               width="49.606449"
               height="49.606449"
               x="732.22076"
               y="2346.0256" />
            <rect
               y="2346.0256"
               x="671.98438"
               height="49.606449"
               width="49.606449"
               id="rect13449"
               style="fill:#262577;fill-opacity:1;stroke:#ffffff;stroke-width:3.54330707;stroke-linecap:butt;stroke-linejoin:miter;stroke-miterlimit:4;stroke-dasharray:none;stroke-dashoffset:0;stroke-opacity:1" />
          </g>
          <rect
             y="1664.6902"
             x="-1723.575"
             height="187.36739"
             width="187.36739"
             id="rect13459"
             style="fill:none;fill-opacity:1;stroke:#ffffff;stroke-width:13.38334465;stroke-linecap:butt;stroke-linejoin:miter;stroke-miterlimit:4;stroke-dasharray:none;stroke-dashoffset:0;stroke-opacity:1"
             transform="matrix(0.7071068,-0.7071068,0.7071068,0.7071068,0,0)" />
          <rect
             style="fill:none;fill-opacity:1;stroke:#ffffff;stroke-width:13.38334465;stroke-linecap:butt;stroke-linejoin:miter;stroke-miterlimit:4;stroke-dasharray:none;stroke-dashoffset:0;stroke-opacity:1"
             id="rect13461"
             width="187.36739"
             height="187.36739"
             x="-1496.0573"
             y="1664.6902"
             transform="matrix(0.7071068,-0.7071068,0.7071068,0.7071068,0,0)" />
          <rect
             y="1892.2074"
             x="-1496.0573"
             height="187.36739"
             width="187.36739"
             id="rect13463"
             style="fill:none;fill-opacity:1;stroke:#ffffff;stroke-width:13.38334465;stroke-linecap:butt;stroke-linejoin:miter;stroke-miterlimit:4;stroke-dasharray:none;stroke-dashoffset:0;stroke-opacity:1"
             transform="matrix(0.7071068,-0.7071068,0.7071068,0.7071068,0,0)" />
          <rect
             style="fill:none;fill-opacity:1;stroke:#ffffff;stroke-width:13.38334465;stroke-linecap:butt;stroke-linejoin:miter;stroke-miterlimit:4;stroke-dasharray:none;stroke-dashoffset:0;stroke-opacity:1"
             id="rect13465"
             width="187.36739"
             height="187.36739"
             x="-1723.575"
             y="1892.2074"
             transform="matrix(0.7071068,-0.7071068,0.7071068,0.7071068,0,0)" />
        </g>
      </g>
    </g>
    <path
       style="font-size:72.70541382000000397px;font-style:normal;font-variant:normal;font-weight:200;font-stretch:normal;text-align:start;line-height:125%;writing-mode:lr-tb;text-anchor:start;fill:#000000;fill-opacity:1;stroke:none;stroke-width:2.48031496999999979;stroke-linecap:butt;stroke-linejoin:miter;stroke-miterlimit:4;stroke-dasharray:none;stroke-opacity:1;display:inline;font-family:Denmark;-inkscape-font-specification:Denmark Ultra-Light"
       clip-path="none"
       d="M -836.36938,589.64335 L -845.99791,589.64335 C -846.97428,589.64335 -847.94025,589.4997 -848.89582,589.21241 C -850.74468,588.61573 -852.2092,587.24556 -853.28942,585.10192 C -854.26578,583.15717 -854.75396,580.89198 -854.75396,578.30634 C -854.75396,575.80911 -854.31772,573.59917 -853.44523,571.6765 C -852.48965,569.55497 -851.12898,568.10746 -849.36322,567.33396 C -847.99218,566.7373 -846.58997,566.43895 -845.15659,566.43893 L -836.43171,566.43893 L -836.43171,570.88092 L -845.49935,570.88092 C -846.97428,570.88094 -848.04411,571.73177 -848.70886,573.4334 C -849.22821,574.75939 -849.48788,576.49419 -849.48788,578.63783 C -849.48788,580.44999 -849.1555,581.9859 -848.49075,583.24555 C -847.72212,584.72623 -846.6419,585.46656 -845.25006,585.46655 L -836.36938,585.4334 L -836.36938,589.64335 M -820.33352,589.7428 L -827.93663,589.7428 C -829.78548,589.7428 -831.39542,588.90302 -832.76648,587.22346 C -834.11675,585.5218 -834.7919,583.56601 -834.7919,581.35606 C -834.7919,578.94723 -834.05443,576.86989 -832.57952,575.12402 C -831.08382,573.35608 -829.42194,572.4721 -827.59386,572.47208 L -820.36467,572.47208 L -820.36467,576.01904 L -825.66192,576.01904 C -826.32668,576.01906 -826.89796,576.08535 -827.37573,576.21794 C -827.83277,576.32845 -828.25862,576.56049 -828.65331,576.91407 C -829.38039,577.57706 -829.74393,578.47209 -829.74393,579.59915 L -820.39583,579.59915 L -820.39583,583.17926 L -829.71277,583.17926 C -829.71277,583.70966 -829.66084,584.16269 -829.55696,584.53837 C -829.43232,584.89198 -829.19343,585.25661 -828.84028,585.6323 C -828.48712,585.98589 -828.07166,586.22899 -827.59386,586.36158 C -827.0953,586.47209 -826.49287,586.52733 -825.78657,586.52733 L -820.33352,586.52733 L -820.33352,589.7428 M -802.56434,589.64335 L -806.89563,589.64335 L -806.89563,578.33948 C -806.89564,578.0522 -806.95796,577.79806 -807.0826,577.57705 C -807.20725,577.33397 -807.38382,577.10192 -807.61232,576.88092 C -808.0278,576.50524 -808.50558,576.3174 -809.04569,576.31738 L -813.28349,576.31738 L -813.28349,589.64335 L -817.61478,589.64335 L -817.61478,572.47208 L -809.32614,572.47208 C -807.85122,572.4721 -806.7814,572.56049 -806.11662,572.73727 C -805.07796,573.00249 -804.24702,573.58812 -803.62379,574.49418 C -802.91751,575.55496 -802.56436,576.71518 -802.56434,577.97484 L -802.56434,589.64335 M -790.12458,576.05219 L -794.33122,576.05219 L -794.33122,583.84225 C -794.33122,584.54943 -794.10271,585.13507 -793.64568,585.59915 C -793.12636,586.06324 -792.44083,586.29529 -791.5891,586.29528 L -790.31154,586.29528 L -790.31154,589.64335 L -794.33122,589.64335 C -795.53608,589.64335 -796.56436,589.17926 -797.41608,588.25109 C -797.91465,587.6986 -798.23664,587.09087 -798.38205,586.42788 C -798.52746,585.7649 -798.60017,584.98037 -798.60017,584.07429 L -798.60017,576.05219 L -801.34228,576.05219 L -801.34228,572.47208 L -798.60017,572.47208 L -798.60017,566.43893 L -794.33122,566.43893 L -794.33122,572.47208 L -790.12458,572.47208 L -790.12458,576.05219 M -764.6963,578.00799 C -764.69635,582.51628 -765.87004,585.7428 -768.21742,587.68755 C -770.1286,589.25661 -772.91225,590.04114 -776.56838,590.04114 C -780.61922,590.04114 -783.6106,589.13506 -785.54254,587.32291 C -787.66146,585.33396 -788.7209,582.14059 -788.7209,577.7428 C -788.7209,574.14061 -787.7757,571.33398 -785.88531,569.32291 C -783.82874,567.13508 -780.75425,566.04116 -776.66186,566.04114 C -772.15402,566.04116 -768.97567,567.09088 -767.1268,569.19031 C -765.5065,571.04668 -764.69635,573.9859 -764.6963,578.00799 M -770.24284,577.8754 C -770.24286,575.59917 -770.75181,573.78701 -771.76969,572.43893 C -772.91225,570.93619 -774.60529,570.18481 -776.84881,570.18479 C -779.05083,570.18481 -780.71271,570.99144 -781.83447,572.60467 C -782.76929,573.95276 -783.23669,575.70967 -783.23668,577.8754 C -783.23669,580.37264 -782.86277,582.21794 -782.11491,583.4113 C -781.07624,585.06877 -779.15469,585.89749 -776.35026,585.89749 C -773.98208,585.89749 -772.32021,585.09087 -771.36461,583.4776 C -770.61678,582.21794 -770.24286,580.35054 -770.24284,577.8754 M -739.75396,582.44998 C -739.75399,584.48313 -740.38757,586.19584 -741.65473,587.5881 C -742.92192,588.98037 -744.5319,589.6765 -746.48457,589.6765 L -761.90893,589.64335 L -761.90893,585.46655 L -749.19553,585.46655 C -748.34382,585.46656 -747.62714,585.25661 -747.04546,584.83672 C -746.38074,584.35054 -746.04835,583.68755 -746.04834,582.84777 C -746.04835,580.88092 -747.35708,579.8975 -749.97452,579.89749 L -756.39355,579.89749 C -758.24241,579.8975 -759.86275,579.28977 -761.25456,578.07429 C -762.6464,576.85883 -763.3423,575.31188 -763.3423,573.4334 C -763.3423,571.35607 -762.66718,569.67652 -761.31688,568.39474 C -759.94584,567.09088 -758.14892,566.43895 -755.92615,566.43893 L -741.18734,566.43893 L -741.18734,570.41684 L -754.18116,570.41684 C -754.76285,570.41685 -755.35488,570.68204 -755.9573,571.21241 C -756.53897,571.72072 -756.82981,572.32845 -756.8298,573.03562 C -756.82981,573.83121 -756.54935,574.50524 -755.98847,575.05771 C -755.40682,575.58812 -754.71089,575.85331 -753.90072,575.85329 L -746.82734,575.85329 C -744.62538,575.85331 -742.90116,576.46105 -741.65473,577.6765 C -740.38757,578.86988 -739.75399,580.46104 -739.75396,582.44998"
       id="path3841"
       inkscape:label="" />
  </g>
</svg>
