<?xml version="1.0" encoding="UTF-8" standalone="no"?>
<!-- Created with Inkscape (http://www.inkscape.org/) -->
<svg
   xmlns:dc="http://purl.org/dc/elements/1.1/"
   xmlns:cc="http://creativecommons.org/ns#"
   xmlns:rdf="http://www.w3.org/1999/02/22-rdf-syntax-ns#"
   xmlns:svg="http://www.w3.org/2000/svg"
   xmlns="http://www.w3.org/2000/svg"
   xmlns:sodipodi="http://sodipodi.sourceforge.net/DTD/sodipodi-0.dtd"
   xmlns:inkscape="http://www.inkscape.org/namespaces/inkscape"
   width="150"
   height="48"
   id="svg2897"
   sodipodi:version="0.32"
   inkscape:version="0.46"
   sodipodi:docname="centos-violet.svg"
   inkscape:output_extension="org.inkscape.output.svg.inkscape"
   version="1.0">
  <defs
     id="defs2899">
    <clipPath
       clipPathUnits="userSpaceOnUse"
       id="clipPath4429">
      <g
         transform="matrix(0.9947658,0,0,1,1.7860989,0)"
         id="g4431">
        <path
           sodipodi:nodetypes="ccccccccc"
           style="fill:#efa724;fill-opacity:1;fill-rule:evenodd;stroke:none;stroke-width:30;stroke-linecap:round;stroke-linejoin:round;marker:none;marker-start:none;marker-mid:none;marker-end:none;stroke-miterlimit:4;stroke-dasharray:none;stroke-dashoffset:0;stroke-opacity:1;visibility:visible;display:inline;overflow:visible"
           d="M 322.54143,2800.9375 L 318.10638,2806.6673 L 313.67143,2800.9375 L 313.67143,2757.7946 L 294.73171,2757.7946 L 318.10638,2732.2579 L 341.23763,2757.7946 L 322.54143,2757.7946 L 322.54143,2800.9375 z"
           id="path4433" />
      </g>
    </clipPath>
  </defs>
  <sodipodi:namedview
     id="base"
     pagecolor="#ffffff"
     bordercolor="#666666"
     borderopacity="1.0"
     gridtolerance="10000"
     guidetolerance="10"
     objecttolerance="10"
     inkscape:pageopacity="0.0"
     inkscape:pageshadow="2"
     inkscape:zoom="8.42"
     inkscape:cx="75"
     inkscape:cy="24"
     inkscape:document-units="px"
     inkscape:current-layer="layer1"
     showgrid="false"
     inkscape:window-width="1360"
     inkscape:window-height="693"
     inkscape:window-x="0"
     inkscape:window-y="25"
     showborder="true"
     inkscape:showpageshadow="false"
     showguides="true"
     inkscape:guide-bbox="true">
    <inkscape:grid
       type="xygrid"
       id="grid3843"
       visible="true"
       enabled="true" />
  </sodipodi:namedview>
  <metadata
     id="CENTOSMETADATA">
    <rdf:RDF>
      <cc:Work
         rdf:about="">
        <dc:format>image/svg+xml</dc:format>
        <dc:type
           rdf:resource="http://purl.org/dc/dcmitype/StillImage" />
        <cc:license
           rdf:resource="http://creativecommons.org/licenses/by-sa/3.0/" />
        <dc:title>centos-violet.svg</dc:title>
        <dc:date>2011-07-12</dc:date>
        <dc:creator>
          <cc:Agent>
            <dc:title>The CentOS Artwork SIG</dc:title>
          </cc:Agent>
        </dc:creator>
        <dc:rights>
          <cc:Agent>
            <dc:title>The CentOS Artwork SIG</dc:title>
          </cc:Agent>
        </dc:rights>
        <dc:publisher>
          <cc:Agent>
            <dc:title>The CentOS Artwork SIG</dc:title>
          </cc:Agent>
        </dc:publisher>
        <dc:identifier>https://projects.centos.org/svn/artwork/trunk/Identity/Models/Brands/Logos/centos-violet.svg</dc:identifier>
        <dc:source>https://projects.centos.org/svn/artwork/trunk/Identity/Models/Brands/Logos/centos-violet.svg</dc:source>
        <dc:relation>https://projects.centos.org/svn/artwork/trunk/Identity/Models/Brands/Logos/centos-violet.svg</dc:relation>
        <dc:language>en_US</dc:language>
        <dc:subject>
          <rdf:Bag>
            <rdf:li>Identity</rdf:li>
            <rdf:li>Models</rdf:li>
            <rdf:li>Brands</rdf:li>
            <rdf:li>Logos</rdf:li>
          </rdf:Bag>
        </dc:subject>
        <dc:coverage>The CentOS Artwork SIG</dc:coverage>
        <dc:description />
        <dc:contributor />
      </cc:Work>
      <cc:License
         rdf:about="http://creativecommons.org/licenses/by-sa/3.0/">
        <cc:permits
           rdf:resource="http://creativecommons.org/ns#Reproduction" />
        <cc:permits
           rdf:resource="http://creativecommons.org/ns#Distribution" />
        <cc:requires
           rdf:resource="http://creativecommons.org/ns#Notice" />
        <cc:requires
           rdf:resource="http://creativecommons.org/ns#Attribution" />
        <cc:permits
           rdf:resource="http://creativecommons.org/ns#DerivativeWorks" />
        <cc:requires
           rdf:resource="http://creativecommons.org/ns#ShareAlike" />
      </cc:License>
    </rdf:RDF>
  </metadata>
  <g
     inkscape:label="Layer 1"
     inkscape:groupmode="layer"
     id="layer1"
     transform="translate(919.75397,-561.04114)">
    <rect
       style="opacity:0;fill:#ffffff;fill-opacity:1;fill-rule:nonzero;stroke:none;stroke-width:1;stroke-linecap:round;stroke-linejoin:round;marker:none;marker-start:none;marker-mid:none;marker-end:none;stroke-miterlimit:4;stroke-dasharray:none;stroke-dashoffset:0;stroke-opacity:1;visibility:visible;display:inline;overflow:visible;enable-background:accumulate"
       id="CENTOSARTWORK"
       width="150"
       height="48"
       x="-919.75397"
       y="561.04114"
       inkscape:label="#rect3427" />
    <g
       id="g2529"
       transform="matrix(1.3862185,0,0,1.3862185,319.67696,-131.35061)">
      <g
         inkscape:label="#g9335"
         inkscape:export-ydpi="28.883154"
         inkscape:export-xdpi="28.883154"
         inkscape:export-filename="/home/al/Desktop/CentOS/Symbol Construction/CentOSSymbol_20.png"
         transform="matrix(4.7716762e-2,0,0,4.7716744e-2,-887.55939,464.09782)"
         id="g9335">
        <g
           inkscape:export-ydpi="50.799999"
           inkscape:export-xdpi="50.799999"
           inkscape:export-filename="/home/al/Desktop/CentOSSymbol_Final.png"
           id="g13583"
           transform="matrix(1.1808679,0,0,1.1808679,586.42082,-1141.3723)">
          <g
             transform="translate(-556.83343,-494.55601)"
             id="g13467">
            <g
               transform="matrix(0,-3.7770771,3.7770771,0,-6968.6287,3636.3048)"
               id="g13395">
              <g
                 id="g13397"
                 transform="translate(16.279512,-899.16723)">
                <g
                   transform="matrix(1.0666663,0,0,1,-26.935596,-4.1328125e-5)"
                   id="g13399">
                  <path
                     sodipodi:nodetypes="ccccccccc"
                     style="fill:#932279;fill-opacity:1;fill-rule:evenodd;stroke:none;stroke-width:30;stroke-linecap:round;stroke-linejoin:round;marker:none;marker-start:none;marker-mid:none;marker-end:none;stroke-miterlimit:4;stroke-dasharray:none;stroke-dashoffset:0;stroke-opacity:1;visibility:visible;display:inline;overflow:visible"
                     d="M 323.36653,2798.1614 L 317.96037,2803.9619 L 312.55421,2798.1614 L 312.55421,2757.3353 L 294.54088,2757.3353 L 317.96037,2732.4374 L 340.98524,2757.3353 L 323.36654,2757.3353 L 323.36653,2798.1614 z"
                     id="path13401" />
                </g>
                <g
                   clip-path="url(#clipPath4429)"
                   id="g13405"
                   transform="matrix(1.0722788,0,0,1,-28.850792,-4.1328125e-5)" />
              </g>
            </g>
            <g
               id="g13407"
               transform="matrix(3.7770771,0,0,3.7770771,-988.70982,-4824.4941)">
              <g
                 transform="translate(16.279512,-899.16723)"
                 id="g13409">
                <g
                   id="g13411"
                   transform="matrix(1.0666663,0,0,1,-26.935596,-4.1328125e-5)">
                  <path
                     id="path13413"
                     d="M 323.36653,2798.1614 L 317.96037,2803.9619 L 312.55421,2798.1614 L 312.55421,2757.3353 L 294.54088,2757.3353 L 317.96037,2732.4374 L 340.98524,2757.3353 L 323.36654,2757.3353 L 323.36653,2798.1614 z"
                     style="fill:#efa724;fill-opacity:1;fill-rule:evenodd;stroke:none;stroke-width:30;stroke-linecap:round;stroke-linejoin:round;marker:none;marker-start:none;marker-mid:none;marker-end:none;stroke-miterlimit:4;stroke-dasharray:none;stroke-dashoffset:0;stroke-opacity:1;visibility:visible;display:inline;overflow:visible"
                     sodipodi:nodetypes="ccccccccc" />
                </g>
                <g
                   transform="matrix(1.0722788,0,0,1,-28.850792,-4.1328125e-5)"
                   id="g13417"
                   clip-path="url(#clipPath4429)" />
              </g>
            </g>
            <g
               transform="matrix(0,3.7770771,-3.7770771,0,10868.313,1216.9132)"
               id="g13419">
              <g
                 id="g13421"
                 transform="matrix(1.0666663,0,0,1,-26.935596,-4.1328125e-5)">
                <path
                   id="path13423"
                   d="M 323.36653,2798.1614 L 317.96037,2803.9619 L 312.55421,2798.1614 L 312.55421,2757.3353 L 294.54088,2757.3353 L 317.96037,2732.4374 L 340.98524,2757.3353 L 323.36654,2757.3353 L 323.36653,2798.1614 z"
                   style="fill:#262577;fill-opacity:1;fill-rule:evenodd;stroke:none;stroke-width:30;stroke-linecap:round;stroke-linejoin:round;marker:none;marker-start:none;marker-mid:none;marker-end:none;stroke-miterlimit:4;stroke-dasharray:none;stroke-dashoffset:0;stroke-opacity:1;visibility:visible;display:inline;overflow:visible"
                   sodipodi:nodetypes="ccccccccc" />
              </g>
              <g
                 transform="matrix(1.0722788,0,0,1,-28.850792,-4.1328125e-5)"
                 id="g13427"
                 clip-path="url(#clipPath4429)" />
            </g>
            <g
               id="g13429"
               transform="matrix(-3.7770771,0,0,-3.7770771,1492.1701,9616.2232)">
              <g
                 transform="translate(16.279512,-899.16723)"
                 id="g13431">
                <g
                   id="g13433"
                   transform="matrix(1.0666663,0,0,1,-26.935596,-4.1328125e-5)">
                  <path
                     id="path13435"
                     d="M 323.36653,2798.1614 L 317.96037,2803.9619 L 312.55421,2798.1614 L 312.55421,2757.3353 L 294.54088,2757.3353 L 317.96037,2732.4374 L 340.98524,2757.3353 L 323.36654,2757.3353 L 323.36653,2798.1614 z"
                     style="fill:#9ccd2a;fill-opacity:1;fill-rule:evenodd;stroke:none;stroke-width:30;stroke-linecap:round;stroke-linejoin:round;marker:none;marker-start:none;marker-mid:none;marker-end:none;stroke-miterlimit:4;stroke-dasharray:none;stroke-dashoffset:0;stroke-opacity:1;visibility:visible;display:inline;overflow:visible"
                     sodipodi:nodetypes="ccccccccc" />
                </g>
                <g
                   transform="matrix(1.0722788,0,0,1,-28.850792,-4.1328125e-5)"
                   id="g13439"
                   clip-path="url(#clipPath4429)" />
              </g>
            </g>
            <g
               id="g13441"
               transform="matrix(3.7770771,0,0,3.7770771,-2493.849,-6445.1798)">
              <rect
                 y="2285.7893"
                 x="671.98438"
                 height="49.606449"
                 width="49.606449"
                 id="rect13443"
                 style="fill:#9ccd2a;fill-opacity:1;stroke:#ffffff;stroke-width:3.54330707;stroke-linecap:butt;stroke-linejoin:miter;stroke-miterlimit:4;stroke-dasharray:none;stroke-dashoffset:0;stroke-opacity:1" />
              <rect
                 style="fill:#932279;fill-opacity:1;stroke:#ffffff;stroke-width:3.54330707;stroke-linecap:butt;stroke-linejoin:miter;stroke-miterlimit:4;stroke-dasharray:none;stroke-dashoffset:0;stroke-opacity:1"
                 id="rect13445"
                 width="49.606449"
                 height="49.606449"
                 x="732.22076"
                 y="2285.7893" />
              <rect
                 y="2346.0256"
                 x="732.22076"
                 height="49.606449"
                 width="49.606449"
                 id="rect13447"
                 style="fill:#efa724;fill-opacity:1;stroke:#ffffff;stroke-width:3.54330707;stroke-linecap:butt;stroke-linejoin:miter;stroke-miterlimit:4;stroke-dasharray:none;stroke-dashoffset:0;stroke-opacity:1" />
              <rect
                 style="fill:#262577;fill-opacity:1;stroke:#ffffff;stroke-width:3.54330707;stroke-linecap:butt;stroke-linejoin:miter;stroke-miterlimit:4;stroke-dasharray:none;stroke-dashoffset:0;stroke-opacity:1"
                 id="rect13449"
                 width="49.606449"
                 height="49.606449"
                 x="671.98438"
                 y="2346.0256" />
            </g>
            <rect
               transform="matrix(0.7071068,-0.7071068,0.7071068,0.7071068,0,0)"
               style="fill:none;fill-opacity:1;stroke:#ffffff;stroke-width:13.38334465;stroke-linecap:butt;stroke-linejoin:miter;stroke-miterlimit:4;stroke-dasharray:none;stroke-dashoffset:0;stroke-opacity:1"
               id="rect13459"
               width="187.36739"
               height="187.36739"
               x="-1723.575"
               y="1664.6902" />
            <rect
               transform="matrix(0.7071068,-0.7071068,0.7071068,0.7071068,0,0)"
               y="1664.6902"
               x="-1496.0573"
               height="187.36739"
               width="187.36739"
               id="rect13461"
               style="fill:none;fill-opacity:1;stroke:#ffffff;stroke-width:13.38334465;stroke-linecap:butt;stroke-linejoin:miter;stroke-miterlimit:4;stroke-dasharray:none;stroke-dashoffset:0;stroke-opacity:1" />
            <rect
               transform="matrix(0.7071068,-0.7071068,0.7071068,0.7071068,0,0)"
               style="fill:none;fill-opacity:1;stroke:#ffffff;stroke-width:13.38334465;stroke-linecap:butt;stroke-linejoin:miter;stroke-miterlimit:4;stroke-dasharray:none;stroke-dashoffset:0;stroke-opacity:1"
               id="rect13463"
               width="187.36739"
               height="187.36739"
               x="-1496.0573"
               y="1892.2074" />
            <rect
               transform="matrix(0.7071068,-0.7071068,0.7071068,0.7071068,0,0)"
               y="1892.2074"
               x="-1723.575"
               height="187.36739"
               width="187.36739"
               id="rect13465"
               style="fill:none;fill-opacity:1;stroke:#ffffff;stroke-width:13.38334465;stroke-linecap:butt;stroke-linejoin:miter;stroke-miterlimit:4;stroke-dasharray:none;stroke-dashoffset:0;stroke-opacity:1" />
          </g>
        </g>
      </g>
      <path
         inkscape:label=""
         id="path3841"
         d="M -845.05948,523.74338 L -850.84773,523.74338 C -851.43468,523.74338 -852.01538,523.65703 -852.58982,523.48432 C -853.70128,523.12562 -854.58169,522.30193 -855.23106,521.01327 C -855.81802,519.84417 -856.11149,518.48244 -856.11149,516.92806 C -856.11149,515.42685 -855.84924,514.09832 -855.32474,512.9425 C -854.75028,511.66713 -853.93231,510.79695 -852.87081,510.33195 C -852.0466,509.97328 -851.20365,509.79392 -850.34197,509.79391 L -845.09695,509.79391 L -845.09695,512.46423 L -850.54802,512.46423 C -851.43468,512.46424 -852.07781,512.97572 -852.47744,513.99868 C -852.78964,514.7958 -852.94575,515.83869 -852.94575,517.12735 C -852.94575,518.21674 -852.74594,519.14005 -852.34631,519.8973 C -851.88426,520.78743 -851.23487,521.23248 -850.39815,521.23247 L -845.05948,521.21255 L -845.05948,523.74338 M -835.41943,523.80317 L -839.99009,523.80317 C -841.10153,523.80317 -842.06935,523.29833 -842.89357,522.28865 C -843.7053,521.26569 -844.11116,520.08995 -844.11116,518.76143 C -844.11116,517.31334 -843.66784,516.06454 -842.78118,515.015 C -841.88203,513.95219 -840.88298,513.42078 -839.78403,513.42077 L -835.43815,513.42077 L -835.43815,515.55304 L -838.62263,515.55304 C -839.02224,515.55306 -839.36568,515.59291 -839.65289,515.67262 C -839.92764,515.73905 -840.18364,515.87854 -840.42091,516.09109 C -840.85801,516.48965 -841.07655,517.02771 -841.07655,517.70525 L -835.45688,517.70525 L -835.45688,519.85745 L -841.05782,519.85745 C -841.05782,520.17631 -841.0266,520.44865 -840.96416,520.6745 C -840.88922,520.88706 -840.74562,521.10626 -840.53332,521.33212 C -840.32101,521.54467 -840.07126,521.69082 -839.78403,521.77053 C -839.48431,521.83696 -839.12216,521.87017 -838.69756,521.87017 L -835.41943,521.87017 L -835.41943,523.80317 M -824.73736,523.74338 L -827.34115,523.74338 L -827.34115,516.94799 C -827.34116,516.7753 -827.37862,516.62252 -827.45355,516.48965 C -827.52848,516.34352 -827.63463,516.20402 -827.77199,516.07117 C -828.02176,515.84532 -828.30898,515.7324 -828.63367,515.73239 L -831.18125,515.73239 L -831.18125,523.74338 L -833.78504,523.74338 L -833.78504,513.42077 L -828.80227,513.42077 C -827.91562,513.42078 -827.27248,513.47392 -826.87284,513.58019 C -826.24845,513.73963 -825.74893,514.09168 -825.37426,514.63636 C -824.94968,515.27406 -824.73738,515.97153 -824.73736,516.72879 L -824.73736,523.74338 M -817.25913,515.57297 L -819.78797,515.57297 L -819.78797,520.25601 C -819.78797,520.68114 -819.65061,521.0332 -819.37586,521.31218 C -819.06367,521.59118 -818.65156,521.73068 -818.13954,521.73067 L -817.37153,521.73067 L -817.37153,523.74338 L -819.78797,523.74338 C -820.51228,523.74338 -821.13045,523.46439 -821.64246,522.90641 C -821.94218,522.57429 -822.13574,522.20894 -822.22315,521.81038 C -822.31057,521.41183 -822.35428,520.9402 -822.35428,520.39551 L -822.35428,515.57297 L -824.00272,515.57297 L -824.00272,513.42077 L -822.35428,513.42077 L -822.35428,509.79391 L -819.78797,509.79391 L -819.78797,513.42077 L -817.25913,513.42077 L -817.25913,515.57297 M -801.97276,516.74871 C -801.97279,519.4589 -802.67836,521.39854 -804.0895,522.56764 C -805.23842,523.51089 -806.91183,523.98251 -809.10974,523.98251 C -811.54492,523.98251 -813.34321,523.43782 -814.5046,522.34843 C -815.77842,521.15277 -816.4153,519.23306 -816.4153,516.58929 C -816.4153,514.42382 -815.84709,512.7366 -814.71066,511.52762 C -813.47435,510.2124 -811.62609,509.55478 -809.16593,509.55477 C -806.45602,509.55478 -804.54533,510.18583 -803.43387,511.44791 C -802.45982,512.56388 -801.97279,514.33081 -801.97276,516.74871 M -805.30709,516.669 C -805.3071,515.30064 -805.61307,514.21124 -806.22497,513.40084 C -806.91183,512.49746 -807.92961,512.04576 -809.27832,512.04575 C -810.60207,512.04576 -811.60112,512.53068 -812.27548,513.50048 C -812.83745,514.31089 -813.11844,515.36707 -813.11843,516.669 C -813.11844,518.17024 -812.89365,519.27955 -812.44407,519.99695 C -811.81966,520.99335 -810.66451,521.49153 -808.97862,521.49153 C -807.55497,521.49153 -806.55593,521.00663 -805.98145,520.0368 C -805.53189,519.27955 -805.3071,518.15695 -805.30709,516.669 M -786.97852,519.41904 C -786.97853,520.64128 -787.35942,521.67089 -788.12118,522.50785 C -788.88296,523.34482 -789.85081,523.76331 -791.02467,523.76331 L -800.29712,523.74338 L -800.29712,521.23247 L -792.65437,521.23247 C -792.14236,521.23248 -791.71152,521.10626 -791.36185,520.85385 C -790.96224,520.56158 -790.76243,520.16302 -790.76243,519.65818 C -790.76243,518.4758 -791.54918,517.88461 -793.12267,517.8846 L -796.98151,517.8846 C -798.09297,517.88461 -799.06704,517.51926 -799.90374,516.78858 C -800.74045,516.05789 -801.15879,515.12794 -801.15879,513.99868 C -801.15879,512.74988 -800.75295,511.7402 -799.9412,510.96965 C -799.11699,510.18583 -798.03676,509.79392 -796.70053,509.79391 L -787.84021,509.79391 L -787.84021,512.18525 L -795.65152,512.18525 C -796.0012,512.18526 -796.35711,512.34467 -796.71926,512.66351 C -797.06894,512.96909 -797.24377,513.33442 -797.24376,513.75954 C -797.24377,514.23781 -797.07518,514.64302 -796.73799,514.97514 C -796.38833,515.29399 -795.96997,515.45342 -795.48293,515.45341 L -791.23072,515.45341 C -789.907,515.45342 -788.87048,515.81876 -788.12118,516.54944 C -787.35942,517.26685 -786.97853,518.22338 -786.97852,519.41904"
         clip-path="none"
         style="font-size:72.70541382000000397px;font-style:normal;font-variant:normal;font-weight:200;font-stretch:normal;text-align:start;line-height:125%;writing-mode:lr-tb;text-anchor:start;fill:#8f6e9e;fill-opacity:1;stroke:none;stroke-width:2.48031496999999979;stroke-linecap:butt;stroke-linejoin:miter;stroke-miterlimit:4;stroke-dasharray:none;stroke-opacity:1;display:inline;font-family:Denmark;-inkscape-font-specification:Denmark Ultra-Light" />
    </g>
  </g>
</svg>
