<?xml version="1.0" encoding="UTF-8" standalone="no"?>
<!-- Created with Inkscape (http://www.inkscape.org/) -->
<svg
   xmlns:dc="http://purl.org/dc/elements/1.1/"
   xmlns:cc="http://creativecommons.org/ns#"
   xmlns:rdf="http://www.w3.org/1999/02/22-rdf-syntax-ns#"
   xmlns:svg="http://www.w3.org/2000/svg"
   xmlns="http://www.w3.org/2000/svg"
   xmlns:sodipodi="http://sodipodi.sourceforge.net/DTD/sodipodi-0.dtd"
   xmlns:inkscape="http://www.inkscape.org/namespaces/inkscape"
   width="1340"
   height="512"
   id="svg2897"
   sodipodi:version="0.32"
   inkscape:version="0.46"
   sodipodi:docname="centos-black.svg"
   inkscape:output_extension="org.inkscape.output.svg.inkscape"
   version="1.0">
  <defs
     id="defs2899">
    <clipPath
       clipPathUnits="userSpaceOnUse"
       id="clipPath4429">
      <g
         transform="matrix(0.9947658,0,0,1,1.7860989,0)"
         id="g4431">
        <path
           sodipodi:nodetypes="ccccccccc"
           style="fill:#efa724;fill-opacity:1;fill-rule:evenodd;stroke:none;stroke-width:30;stroke-linecap:round;stroke-linejoin:round;marker:none;marker-start:none;marker-mid:none;marker-end:none;stroke-miterlimit:4;stroke-dasharray:none;stroke-dashoffset:0;stroke-opacity:1;visibility:visible;display:inline;overflow:visible"
           d="M 322.54143,2800.9375 L 318.10638,2806.6673 L 313.67143,2800.9375 L 313.67143,2757.7946 L 294.73171,2757.7946 L 318.10638,2732.2579 L 341.23763,2757.7946 L 322.54143,2757.7946 L 322.54143,2800.9375 z"
           id="path4433" />
      </g>
    </clipPath>
    <inkscape:perspective
       sodipodi:type="inkscape:persp3d"
       inkscape:vp_x="0 : 526.18109 : 1"
       inkscape:vp_y="0 : 1000 : 0"
       inkscape:vp_z="744.09448 : 526.18109 : 1"
       inkscape:persp3d-origin="372.04724 : 350.78739 : 1"
       id="perspective2905" />
  </defs>
  <sodipodi:namedview
     id="base"
     pagecolor="#ffffff"
     bordercolor="#666666"
     borderopacity="1.0"
     gridtolerance="10000"
     guidetolerance="10"
     objecttolerance="10"
     inkscape:pageopacity="0.0"
     inkscape:pageshadow="2"
     inkscape:zoom="0.51334294"
     inkscape:cx="631.12203"
     inkscape:cy="238.46786"
     inkscape:document-units="px"
     inkscape:current-layer="layer1"
     showgrid="false"
     inkscape:window-width="1360"
     inkscape:window-height="693"
     inkscape:window-x="0"
     inkscape:window-y="25"
     showborder="true"
     inkscape:showpageshadow="false"
     showguides="true"
     inkscape:guide-bbox="true">
    <inkscape:grid
       type="xygrid"
       id="grid3843"
       visible="true"
       enabled="true" />
  </sodipodi:namedview>
  <metadata
     id="metadata2902">
    <rdf:RDF>
      <cc:Work
         rdf:about="">
        <dc:format>image/svg+xml</dc:format>
        <dc:type
           rdf:resource="http://purl.org/dc/dcmitype/StillImage" />
      </cc:Work>
    </rdf:RDF>
  </metadata>
  <g
     inkscape:label="Layer 1"
     inkscape:groupmode="layer"
     id="layer1"
     transform="translate(919.75397,-95.041138)">
    <rect
       style="opacity:0;fill:#ffffff;fill-opacity:1;fill-rule:nonzero;stroke:none;stroke-width:1;stroke-linecap:round;stroke-linejoin:round;marker:none;marker-start:none;marker-mid:none;marker-end:none;stroke-miterlimit:4;stroke-dasharray:none;stroke-dashoffset:0;stroke-opacity:1;visibility:visible;display:inline;overflow:visible;enable-background:accumulate"
       id="CENTOSARTWORK"
       width="1340"
       height="512"
       x="-919.75397"
       y="95.041138"
       inkscape:label="#rect3427" />
    <g
       id="g2529"
       transform="translate(10.622243,0)">
      <g
         inkscape:label="#g9335"
         inkscape:export-ydpi="28.883154"
         inkscape:export-xdpi="28.883154"
         inkscape:export-filename="/home/al/Desktop/CentOS/Symbol Construction/CentOSSymbol_20.png"
         transform="matrix(0.5089788,0,0,0.5089786,-824.5046,-213.83096)"
         id="g9335">
        <g
           inkscape:export-ydpi="50.799999"
           inkscape:export-xdpi="50.799999"
           inkscape:export-filename="/home/al/Desktop/CentOSSymbol_Final.png"
           id="g13583"
           transform="matrix(1.1808679,0,0,1.1808679,586.42082,-1141.3723)">
          <g
             transform="translate(-556.83343,-494.55601)"
             id="g13467">
            <g
               transform="matrix(0,-3.7770771,3.7770771,0,-6968.6287,3636.3048)"
               id="g13395">
              <g
                 id="g13397"
                 transform="translate(16.279512,-899.16723)">
                <g
                   transform="matrix(1.0666663,0,0,1,-26.935596,-4.1328125e-5)"
                   id="g13399">
                  <path
                     sodipodi:nodetypes="ccccccccc"
                     style="fill:#932279;fill-opacity:1;fill-rule:evenodd;stroke:none;stroke-width:30;stroke-linecap:round;stroke-linejoin:round;marker:none;marker-start:none;marker-mid:none;marker-end:none;stroke-miterlimit:4;stroke-dasharray:none;stroke-dashoffset:0;stroke-opacity:1;visibility:visible;display:inline;overflow:visible"
                     d="M 323.36653,2798.1614 L 317.96037,2803.9619 L 312.55421,2798.1614 L 312.55421,2757.3353 L 294.54088,2757.3353 L 317.96037,2732.4374 L 340.98524,2757.3353 L 323.36654,2757.3353 L 323.36653,2798.1614 z"
                     id="path13401" />
                </g>
                <g
                   clip-path="url(#clipPath4429)"
                   id="g13405"
                   transform="matrix(1.0722788,0,0,1,-28.850792,-4.1328125e-5)" />
              </g>
            </g>
            <g
               id="g13407"
               transform="matrix(3.7770771,0,0,3.7770771,-988.70982,-4824.4941)">
              <g
                 transform="translate(16.279512,-899.16723)"
                 id="g13409">
                <g
                   id="g13411"
                   transform="matrix(1.0666663,0,0,1,-26.935596,-4.1328125e-5)">
                  <path
                     id="path13413"
                     d="M 323.36653,2798.1614 L 317.96037,2803.9619 L 312.55421,2798.1614 L 312.55421,2757.3353 L 294.54088,2757.3353 L 317.96037,2732.4374 L 340.98524,2757.3353 L 323.36654,2757.3353 L 323.36653,2798.1614 z"
                     style="fill:#efa724;fill-opacity:1;fill-rule:evenodd;stroke:none;stroke-width:30;stroke-linecap:round;stroke-linejoin:round;marker:none;marker-start:none;marker-mid:none;marker-end:none;stroke-miterlimit:4;stroke-dasharray:none;stroke-dashoffset:0;stroke-opacity:1;visibility:visible;display:inline;overflow:visible"
                     sodipodi:nodetypes="ccccccccc" />
                </g>
                <g
                   transform="matrix(1.0722788,0,0,1,-28.850792,-4.1328125e-5)"
                   id="g13417"
                   clip-path="url(#clipPath4429)" />
              </g>
            </g>
            <g
               transform="matrix(0,3.7770771,-3.7770771,0,10868.313,1216.9132)"
               id="g13419">
              <g
                 id="g13421"
                 transform="matrix(1.0666663,0,0,1,-26.935596,-4.1328125e-5)">
                <path
                   id="path13423"
                   d="M 323.36653,2798.1614 L 317.96037,2803.9619 L 312.55421,2798.1614 L 312.55421,2757.3353 L 294.54088,2757.3353 L 317.96037,2732.4374 L 340.98524,2757.3353 L 323.36654,2757.3353 L 323.36653,2798.1614 z"
                   style="fill:#262577;fill-opacity:1;fill-rule:evenodd;stroke:none;stroke-width:30;stroke-linecap:round;stroke-linejoin:round;marker:none;marker-start:none;marker-mid:none;marker-end:none;stroke-miterlimit:4;stroke-dasharray:none;stroke-dashoffset:0;stroke-opacity:1;visibility:visible;display:inline;overflow:visible"
                   sodipodi:nodetypes="ccccccccc" />
              </g>
              <g
                 transform="matrix(1.0722788,0,0,1,-28.850792,-4.1328125e-5)"
                 id="g13427"
                 clip-path="url(#clipPath4429)" />
            </g>
            <g
               id="g13429"
               transform="matrix(-3.7770771,0,0,-3.7770771,1492.1701,9616.2232)">
              <g
                 transform="translate(16.279512,-899.16723)"
                 id="g13431">
                <g
                   id="g13433"
                   transform="matrix(1.0666663,0,0,1,-26.935596,-4.1328125e-5)">
                  <path
                     id="path13435"
                     d="M 323.36653,2798.1614 L 317.96037,2803.9619 L 312.55421,2798.1614 L 312.55421,2757.3353 L 294.54088,2757.3353 L 317.96037,2732.4374 L 340.98524,2757.3353 L 323.36654,2757.3353 L 323.36653,2798.1614 z"
                     style="fill:#9ccd2a;fill-opacity:1;fill-rule:evenodd;stroke:none;stroke-width:30;stroke-linecap:round;stroke-linejoin:round;marker:none;marker-start:none;marker-mid:none;marker-end:none;stroke-miterlimit:4;stroke-dasharray:none;stroke-dashoffset:0;stroke-opacity:1;visibility:visible;display:inline;overflow:visible"
                     sodipodi:nodetypes="ccccccccc" />
                </g>
                <g
                   transform="matrix(1.0722788,0,0,1,-28.850792,-4.1328125e-5)"
                   id="g13439"
                   clip-path="url(#clipPath4429)" />
              </g>
            </g>
            <g
               id="g13441"
               transform="matrix(3.7770771,0,0,3.7770771,-2493.849,-6445.1798)">
              <rect
                 y="2285.7893"
                 x="671.98438"
                 height="49.606449"
                 width="49.606449"
                 id="rect13443"
                 style="fill:#9ccd2a;fill-opacity:1;stroke:#ffffff;stroke-width:3.54330707;stroke-linecap:butt;stroke-linejoin:miter;stroke-miterlimit:4;stroke-dasharray:none;stroke-dashoffset:0;stroke-opacity:1" />
              <rect
                 style="fill:#932279;fill-opacity:1;stroke:#ffffff;stroke-width:3.54330707;stroke-linecap:butt;stroke-linejoin:miter;stroke-miterlimit:4;stroke-dasharray:none;stroke-dashoffset:0;stroke-opacity:1"
                 id="rect13445"
                 width="49.606449"
                 height="49.606449"
                 x="732.22076"
                 y="2285.7893" />
              <rect
                 y="2346.0256"
                 x="732.22076"
                 height="49.606449"
                 width="49.606449"
                 id="rect13447"
                 style="fill:#efa724;fill-opacity:1;stroke:#ffffff;stroke-width:3.54330707;stroke-linecap:butt;stroke-linejoin:miter;stroke-miterlimit:4;stroke-dasharray:none;stroke-dashoffset:0;stroke-opacity:1" />
              <rect
                 style="fill:#262577;fill-opacity:1;stroke:#ffffff;stroke-width:3.54330707;stroke-linecap:butt;stroke-linejoin:miter;stroke-miterlimit:4;stroke-dasharray:none;stroke-dashoffset:0;stroke-opacity:1"
                 id="rect13449"
                 width="49.606449"
                 height="49.606449"
                 x="671.98438"
                 y="2346.0256" />
            </g>
            <rect
               transform="matrix(0.7071068,-0.7071068,0.7071068,0.7071068,0,0)"
               style="fill:none;fill-opacity:1;stroke:#ffffff;stroke-width:13.38334465;stroke-linecap:butt;stroke-linejoin:miter;stroke-miterlimit:4;stroke-dasharray:none;stroke-dashoffset:0;stroke-opacity:1"
               id="rect13459"
               width="187.36739"
               height="187.36739"
               x="-1723.575"
               y="1664.6902" />
            <rect
               transform="matrix(0.7071068,-0.7071068,0.7071068,0.7071068,0,0)"
               y="1664.6902"
               x="-1496.0573"
               height="187.36739"
               width="187.36739"
               id="rect13461"
               style="fill:none;fill-opacity:1;stroke:#ffffff;stroke-width:13.38334465;stroke-linecap:butt;stroke-linejoin:miter;stroke-miterlimit:4;stroke-dasharray:none;stroke-dashoffset:0;stroke-opacity:1" />
            <rect
               transform="matrix(0.7071068,-0.7071068,0.7071068,0.7071068,0,0)"
               style="fill:none;fill-opacity:1;stroke:#ffffff;stroke-width:13.38334465;stroke-linecap:butt;stroke-linejoin:miter;stroke-miterlimit:4;stroke-dasharray:none;stroke-dashoffset:0;stroke-opacity:1"
               id="rect13463"
               width="187.36739"
               height="187.36739"
               x="-1496.0573"
               y="1892.2074" />
            <rect
               transform="matrix(0.7071068,-0.7071068,0.7071068,0.7071068,0,0)"
               y="1892.2074"
               x="-1723.575"
               height="187.36739"
               width="187.36739"
               id="rect13465"
               style="fill:none;fill-opacity:1;stroke:#ffffff;stroke-width:13.38334465;stroke-linecap:butt;stroke-linejoin:miter;stroke-miterlimit:4;stroke-dasharray:none;stroke-dashoffset:0;stroke-opacity:1" />
          </g>
        </g>
      </g>
      <path
         inkscape:label=""
         id="path3841"
         d="M -350.91031,435.17536 L -423.26342,435.17536 C -430.60031,435.17536 -437.85905,434.0959 -445.03963,431.93708 C -458.9328,427.45335 -469.93787,417.15728 -478.05513,401.04901 C -485.39194,386.43528 -489.06034,369.41362 -489.06034,349.98396 C -489.06034,331.21865 -485.78223,314.61218 -479.22595,300.16437 C -472.04529,284.22224 -461.82061,273.345 -448.55189,267.53258 C -438.24927,263.04901 -427.71243,260.80707 -416.94138,260.80692 L -351.37869,260.80692 L -351.37869,294.18603 L -419.51703,294.18603 C -430.60031,294.18617 -438.6395,300.57969 -443.63473,313.36651 C -447.53736,323.33059 -449.48863,336.36665 -449.48863,352.47492 C -449.48863,366.09232 -446.99099,377.63384 -441.99575,387.09941 C -436.21992,398.22591 -428.10266,403.78908 -417.64375,403.789 L -350.91031,403.5399 L -350.91031,435.17536 M -230.40963,435.92266 L -287.54283,435.92266 C -301.43592,435.92266 -313.53373,429.61218 -323.83649,416.99121 C -333.98303,404.20418 -339.05641,389.50748 -339.05641,372.90093 C -339.05641,354.79991 -333.51473,339.18984 -322.43159,326.07059 C -311.19223,312.7855 -298.70412,306.14288 -284.96711,306.14272 L -230.6437,306.14272 L -230.6437,332.79617 L -270.44963,332.79617 C -275.44494,332.79632 -279.73779,333.29445 -283.32797,334.29079 C -286.76237,335.12122 -289.9624,336.86486 -292.92828,339.52182 C -298.39189,344.50383 -301.12369,351.22949 -301.12369,359.69872 L -230.87785,359.69872 L -230.87785,386.60127 L -300.88954,386.60127 C -300.88954,390.58694 -300.49932,393.99121 -299.71872,396.81424 C -298.78212,399.47143 -296.98699,402.21142 -294.33327,405.03453 C -291.67946,407.69155 -288.5575,409.51832 -284.96711,410.51467 C -281.22069,411.34509 -276.69376,411.76018 -271.38631,411.76018 L -230.40963,411.76018 L -230.40963,435.92266 M -96.88399,435.17536 L -129.43126,435.17536 L -129.43126,350.23299 C -129.43134,348.07425 -129.89964,346.16453 -130.83624,344.50375 C -131.77291,342.67715 -133.09974,340.93342 -134.81679,339.27273 C -137.9389,336.4497 -141.52915,335.03818 -145.58778,335.03803 L -177.43252,335.03803 L -177.43252,435.17536 L -209.97979,435.17536 L -209.97979,306.14272 L -147.69521,306.14272 C -136.612,306.14288 -128.57289,306.80707 -123.57743,308.13548 C -115.77247,310.12846 -109.52841,314.52915 -104.84518,321.33768 C -99.53787,329.30886 -96.88415,338.02728 -96.88399,347.49294 L -96.88399,435.17536 M -3.406027,333.04527 L -35.016611,333.04527 L -35.016611,391.58328 C -35.016611,396.89735 -33.299486,401.29811 -29.865157,404.78542 C -25.962754,408.27281 -20.811369,410.01653 -14.411085,410.01646 L -4.810924,410.01646 L -4.810924,435.17536 L -35.016611,435.17536 C -44.070477,435.17536 -51.797436,431.68797 -58.197643,424.71329 C -61.94412,420.56163 -64.36371,415.99487 -65.45637,411.01287 C -66.54905,406.03095 -67.09543,400.13563 -67.09543,393.32693 L -67.09543,333.04527 L -87.70088,333.04527 L -87.70088,306.14272 L -67.09543,306.14272 L -67.09543,260.80692 L -35.016611,260.80692 L -35.016611,306.14272 L -3.406027,306.14272 L -3.406027,333.04527 M 187.67355,347.74203 C 187.67317,381.61934 178.85353,405.86488 161.21426,420.47858 C 146.85279,432.26922 125.93519,438.16452 98.461372,438.16452 C 68.021537,438.16452 45.542956,431.35583 31.025494,417.73851 C 15.102973,402.79267 7.141861,378.79625 7.141861,345.74928 C 7.141861,318.68079 14.244516,297.59052 28.449767,282.47844 C 43.903754,266.0381 67.006858,257.81789 97.758932,257.81774 C 131.63286,257.81789 155.51642,265.70596 169.40967,281.48202 C 181.58533,295.43162 187.67317,317.51824 187.67355,347.74203 M 145.99434,346.74569 C 145.99419,329.64107 142.1697,316.0237 134.5209,305.89362 C 125.93519,294.60135 113.21291,288.95514 96.354102,288.95498 C 79.807132,288.95514 67.319013,295.01652 58.8896,307.13906 C 51.864943,317.26921 48.352693,330.47143 48.352761,346.74569 C 48.352693,365.51108 51.162497,379.37749 56.782252,388.34493 C 64.587287,400.7999 79.026682,407.02728 100.10042,407.02728 C 117.896,407.02728 130.38404,400.96597 137.56485,388.84313 C 143.18438,379.37749 145.99419,365.34501 145.99434,346.74569 M 375.10153,381.12114 C 375.10131,396.39914 370.34031,409.26922 360.81828,419.73128 C 351.29605,430.19342 339.19794,435.42445 324.52469,435.42445 L 208.6191,435.17536 L 208.6191,403.789 L 304.15332,403.789 C 310.55345,403.78908 315.93891,402.21142 320.30992,399.05618 C 325.30491,395.4028 327.80264,390.4208 327.80272,384.11031 C 327.80264,369.33052 317.96827,361.94066 298.29964,361.94058 L 250.06415,361.94058 C 236.17099,361.94066 223.99502,357.37391 213.53633,348.24024 C 203.07742,339.10672 197.84811,327.48225 197.84811,313.36651 C 197.84811,297.75652 202.92126,285.13561 213.06803,275.50376 C 223.37063,265.70596 236.87351,260.80707 253.5764,260.80692 L 364.33047,260.80692 L 364.33047,290.69872 L 266.68904,290.69872 C 262.31796,290.69879 257.86919,292.69155 253.34233,296.67699 C 248.9714,300.49667 246.78589,305.06341 246.78596,310.37741 C 246.78589,316.35583 248.8934,321.4208 253.1081,325.5723 C 257.47888,329.55804 262.70842,331.55079 268.7964,331.55065 L 321.94896,331.55065 C 338.49548,331.55079 351.45205,336.11764 360.81828,345.25108 C 370.34031,354.21865 375.10131,366.17534 375.10153,381.12114"
         clip-path="none"
         style="font-size:72.70541382px;font-style:normal;font-variant:normal;font-weight:200;font-stretch:normal;text-align:start;line-height:125%;writing-mode:lr-tb;text-anchor:start;fill:#000000;fill-opacity:1;stroke:none;stroke-width:2.48031497;stroke-linecap:butt;stroke-linejoin:miter;stroke-miterlimit:4;stroke-dasharray:none;stroke-opacity:1;display:inline;font-family:Denmark;-inkscape-font-specification:Denmark Ultra-Light" />
    </g>
  </g>
</svg>
