<?xml version="1.0" encoding="UTF-8" standalone="no"?>
<!-- Created with Inkscape (http://www.inkscape.org/) -->
<svg
   xmlns:dc="http://purl.org/dc/elements/1.1/"
   xmlns:cc="http://creativecommons.org/ns#"
   xmlns:rdf="http://www.w3.org/1999/02/22-rdf-syntax-ns#"
   xmlns:svg="http://www.w3.org/2000/svg"
   xmlns="http://www.w3.org/2000/svg"
   xmlns:sodipodi="http://sodipodi.sourceforge.net/DTD/sodipodi-0.dtd"
   xmlns:inkscape="http://www.inkscape.org/namespaces/inkscape"
   width="181.13492"
   height="48"
   id="svg2897"
   sodipodi:version="0.32"
   inkscape:version="0.46"
   sodipodi:docname="centos.svg"
   inkscape:output_extension="org.inkscape.output.svg.inkscape"
   version="1.0">
  <defs
     id="defs2899">
    <inkscape:perspective
       sodipodi:type="inkscape:persp3d"
       inkscape:vp_x="0 : 24 : 1"
       inkscape:vp_y="0 : 1000 : 0"
       inkscape:vp_z="169.00238 : 24 : 1"
       inkscape:persp3d-origin="84.50119 : 16 : 1"
       id="perspective2511" />
    <clipPath
       clipPathUnits="userSpaceOnUse"
       id="clipPath4429">
      <g
         transform="matrix(0.9947658,0,0,1,1.7860989,0)"
         id="g4431">
        <path
           sodipodi:nodetypes="ccccccccc"
           style="fill:#efa724;fill-opacity:1;fill-rule:evenodd;stroke:none;stroke-width:30;stroke-linecap:round;stroke-linejoin:round;marker:none;marker-start:none;marker-mid:none;marker-end:none;stroke-miterlimit:4;stroke-dasharray:none;stroke-dashoffset:0;stroke-opacity:1;visibility:visible;display:inline;overflow:visible"
           d="M 322.54143,2800.9375 L 318.10638,2806.6673 L 313.67143,2800.9375 L 313.67143,2757.7946 L 294.73171,2757.7946 L 318.10638,2732.2579 L 341.23763,2757.7946 L 322.54143,2757.7946 L 322.54143,2800.9375 z"
           id="path4433" />
      </g>
    </clipPath>
  </defs>
  <sodipodi:namedview
     id="base"
     pagecolor="#ffffff"
     bordercolor="#666666"
     borderopacity="1.0"
     gridtolerance="10000"
     guidetolerance="10"
     objecttolerance="10"
     inkscape:pageopacity="0.0"
     inkscape:pageshadow="2"
     inkscape:zoom="4.7533629"
     inkscape:cx="90.567459"
     inkscape:cy="24"
     inkscape:document-units="px"
     inkscape:current-layer="layer1"
     showgrid="false"
     inkscape:window-width="1360"
     inkscape:window-height="693"
     inkscape:window-x="0"
     inkscape:window-y="25"
     showborder="true"
     inkscape:showpageshadow="false"
     showguides="true"
     inkscape:guide-bbox="true">
    <inkscape:grid
       type="xygrid"
       id="grid3843"
       visible="true"
       enabled="true" />
  </sodipodi:namedview>
  <metadata
     id="CENTOSMETADATA">
    <rdf:RDF>
      <cc:Work
         rdf:about="">
        <dc:format>image/svg+xml</dc:format>
        <dc:type
           rdf:resource="http://purl.org/dc/dcmitype/StillImage" />
        <cc:license
           rdf:resource="http://creativecommons.org/licenses/by-sa/3.0/" />
        <dc:title>centos.svg</dc:title>
        <dc:date>2011-07-29</dc:date>
        <dc:creator>
          <cc:Agent>
            <dc:title>The CentOS Artwork SIG</dc:title>
          </cc:Agent>
        </dc:creator>
        <dc:rights>
          <cc:Agent>
            <dc:title>The CentOS Artwork SIG</dc:title>
          </cc:Agent>
        </dc:rights>
        <dc:publisher>
          <cc:Agent>
            <dc:title>The CentOS Artwork SIG</dc:title>
          </cc:Agent>
        </dc:publisher>
        <dc:identifier>https://projects.centos.org/svn/artwork/trunk/Identity/Models/Brands/Logos/Black/centos.svg</dc:identifier>
        <dc:source>https://projects.centos.org/svn/artwork/trunk/Identity/Models/Brands/Logos/Black/centos.svg</dc:source>
        <dc:relation>https://projects.centos.org/svn/artwork/trunk/Identity/Models/Brands/Logos/Black/centos.svg</dc:relation>
        <dc:language>en_US</dc:language>
        <dc:subject>
          <rdf:Bag>
            <rdf:li>Identity</rdf:li>
            <rdf:li>Models</rdf:li>
            <rdf:li>Brands</rdf:li>
            <rdf:li>Logos</rdf:li>
            <rdf:li>Black</rdf:li>
          </rdf:Bag>
        </dc:subject>
        <dc:coverage>The CentOS Artwork SIG</dc:coverage>
        <dc:description />
        <dc:contributor />
      </cc:Work>
      <cc:License
         rdf:about="http://creativecommons.org/licenses/by-sa/3.0/">
        <cc:permits
           rdf:resource="http://creativecommons.org/ns#Reproduction" />
        <cc:permits
           rdf:resource="http://creativecommons.org/ns#Distribution" />
        <cc:requires
           rdf:resource="http://creativecommons.org/ns#Notice" />
        <cc:requires
           rdf:resource="http://creativecommons.org/ns#Attribution" />
        <cc:permits
           rdf:resource="http://creativecommons.org/ns#DerivativeWorks" />
        <cc:requires
           rdf:resource="http://creativecommons.org/ns#ShareAlike" />
      </cc:License>
    </rdf:RDF>
  </metadata>
  <g
     inkscape:label="Layer 1"
     inkscape:groupmode="layer"
     id="layer1"
     transform="translate(919.75397,-561.04114)">
    <rect
       style="opacity:0;fill:#ffffff;fill-opacity:1;fill-rule:nonzero;stroke:none;stroke-width:1;stroke-linecap:round;stroke-linejoin:round;marker:none;marker-start:none;marker-mid:none;marker-end:none;stroke-miterlimit:4;stroke-dasharray:none;stroke-dashoffset:0;stroke-opacity:1;visibility:visible;display:inline;overflow:visible;enable-background:accumulate"
       id="CENTOSARTWORK"
       width="181.13492"
       height="48"
       x="-919.75397"
       y="561.04114"
       inkscape:label="#rect3427" />
    <g
       id="g2867">
      <path
         id="text5083"
         d="M -838.02049,596.4336 L -847.83209,596.4336 C -848.82699,596.4336 -849.81139,596.29332 -850.78509,596.01277 C -852.66909,595.4301 -854.16149,594.09208 -855.26219,591.99873 C -856.25719,590.09962 -856.75459,587.88759 -856.75459,585.36261 C -856.75459,582.924 -856.31009,580.76591 -855.42099,578.88836 C -854.44719,576.81662 -853.06069,575.40307 -851.26139,574.64772 C -849.86429,574.06506 -848.43539,573.77372 -846.97479,573.7737 L -838.08399,573.7737 L -838.08399,578.11145 L -847.32409,578.11145 C -848.82699,578.11146 -849.91709,578.94233 -850.59459,580.60404 C -851.12369,581.89891 -851.38839,583.593 -851.38839,585.68633 C -851.38839,587.45597 -851.04969,588.95584 -850.37229,590.18595 C -849.58909,591.63187 -848.48829,592.35482 -847.07009,592.35482 L -838.02049,592.32245 L -838.02049,596.4336 M -821.67979,596.53072 L -829.42739,596.53072 C -831.31139,596.53072 -832.95199,595.71065 -834.34909,594.0705 C -835.72499,592.40877 -836.41309,590.49887 -836.41309,588.34077 C -836.41309,585.98847 -835.66159,583.95987 -834.15859,582.25497 C -832.63449,580.52851 -830.94099,579.66529 -829.07819,579.66528 L -821.71147,579.66528 L -821.71147,583.12899 L -827.10949,583.12899 C -827.78689,583.12902 -828.36909,583.19375 -828.85579,583.32323 C -829.32159,583.43114 -829.75549,583.65775 -830.15769,584.00303 C -830.89859,584.65046 -831.26909,585.52448 -831.26899,586.6251 L -821.74327,586.6251 L -821.74327,590.1212 L -831.23729,590.1212 C -831.23729,590.63914 -831.18449,591.08155 -831.07859,591.44842 C -830.95149,591.79373 -830.70819,592.1498 -830.34829,592.51667 C -829.98829,592.86198 -829.56509,593.09936 -829.07819,593.22884 C -828.57009,593.33674 -827.95629,593.3907 -827.23649,593.3907 L -821.67979,593.3907 L -821.67979,596.53072 M -803.57276,596.4336 L -807.98639,596.4336 L -807.98639,585.39499 C -807.9864,585.11445 -808.04991,584.86627 -808.1769,584.65045 C -808.30392,584.41308 -808.48386,584.18648 -808.7167,583.97066 C -809.14008,583.60379 -809.62696,583.42035 -810.17733,583.42034 L -814.49573,583.42034 L -814.49573,596.4336 L -818.90934,596.4336 L -818.90934,579.66528 L -810.4631,579.66528 C -808.96015,579.66529 -807.86997,579.75161 -807.19258,579.92424 C -806.13416,580.18322 -805.28743,580.75512 -804.65235,581.63992 C -803.93264,582.67581 -803.57278,583.80881 -803.57276,585.03891 L -803.57276,596.4336 M -790.89647,583.16137 L -795.1831,583.16137 L -795.1831,590.76862 C -795.1831,591.45922 -794.95025,592.03111 -794.48454,592.4843 C -793.95533,592.9375 -793.25678,593.1641 -792.38886,593.1641 L -791.087,593.1641 L -791.087,596.4336 L -795.1831,596.4336 C -796.41087,596.4336 -797.45871,595.9804 -798.32662,595.07401 C -798.83466,594.53448 -799.16277,593.94101 -799.31095,593.29359 C -799.45914,592.64616 -799.53322,591.88005 -799.53322,590.99523 L -799.53322,583.16137 L -802.32746,583.16137 L -802.32746,579.66528 L -799.53322,579.66528 L -799.53322,573.7737 L -795.1831,573.7737 L -795.1831,579.66528 L -790.89647,579.66528 L -790.89647,583.16137 M -764.98478,585.07127 C -764.9848,589.47377 -766.18081,592.62458 -768.57283,594.52369 C -770.52036,596.05594 -773.35693,596.82205 -777.08257,596.82205 C -781.21042,596.82205 -784.25868,595.93725 -786.22735,594.16761 C -788.38653,592.22534 -789.46613,589.10691 -789.46612,584.81231 C -789.46613,581.29464 -788.50295,578.55387 -786.57662,576.59 C -784.48096,574.45352 -781.34802,573.38526 -777.17782,573.38524 C -772.58428,573.38526 -769.34551,574.41035 -767.46149,576.46052 C -765.81037,578.27332 -764.9848,581.14358 -764.98478,585.07127 M -770.63677,584.9418 C -770.63678,582.71898 -771.15541,580.94935 -772.19264,579.6329 C -773.35693,578.16542 -775.08215,577.43167 -777.36834,577.43165 C -779.61221,577.43167 -781.30568,578.21937 -782.44876,579.79475 C -783.40136,581.11121 -783.87764,582.82688 -783.87764,584.9418 C -783.87764,587.38044 -783.49662,589.18244 -782.73455,590.34779 C -781.67613,591.96637 -779.71805,592.77565 -776.86029,592.77564 C -774.4471,592.77565 -772.75363,591.98795 -771.77985,590.41253 C -771.01781,589.18244 -770.63678,587.35886 -770.63677,584.9418 M -739.56822,589.40903 C -739.56824,591.39447 -740.21388,593.06699 -741.50513,594.42658 C -742.79642,595.78617 -744.43698,596.46598 -746.4268,596.46598 L -762.1444,596.4336 L -762.1444,592.35482 L -749.18929,592.35482 C -748.32139,592.35482 -747.59108,592.1498 -746.99835,591.73976 C -746.32098,591.26498 -745.98228,590.61756 -745.98226,589.79749 C -745.98228,587.8768 -747.31589,586.91645 -749.9831,586.91644 L -756.52417,586.91644 C -758.40817,586.91645 -760.0593,586.32298 -761.47759,585.13602 C -762.89588,583.94908 -763.60503,582.43843 -763.60503,580.60404 C -763.60503,578.57546 -762.91705,576.93531 -761.5411,575.6836 C -760.14398,574.41035 -758.31291,573.77372 -756.04788,573.7737 L -741.02884,573.7737 L -741.02884,577.65826 L -754.26973,577.65826 C -754.86245,577.65827 -755.46575,577.91725 -756.07963,578.43516 C -756.67236,578.93154 -756.96871,579.52501 -756.9687,580.21558 C -756.96871,580.99251 -756.68293,581.65073 -756.11138,582.19023 C -755.51867,582.70819 -754.80952,582.96716 -753.98395,582.96715 L -746.77608,582.96715 C -744.53225,582.96716 -742.77526,583.56063 -741.50513,584.74756 C -740.21388,585.91294 -739.56824,587.46676 -739.56822,589.40903"
         clip-path="none"
         style="font-size:72.67242432000000463px;font-style:normal;font-variant:normal;font-weight:200;font-stretch:normal;text-align:start;line-height:125%;writing-mode:lr-tb;text-anchor:start;fill:#ffffff;fill-opacity:1;stroke:none;stroke-width:1;stroke-linecap:butt;stroke-linejoin:miter;stroke-miterlimit:4;stroke-dasharray:none;stroke-opacity:1;display:inline;font-family:Denmark;-inkscape-font-specification:Denmark Ultra-Light" />
      <g
         transform="matrix(0.2950199,0,0,0.2950256,-889.06269,287.40278)"
         id="g3664">
        <g
           transform="matrix(0,-1,1,0,-1934.5199,1337.4805)"
           id="g12802">
          <g
             id="g12804"
             transform="translate(16.279512,-899.16723)">
            <g
               transform="matrix(1.0666663,0,0,1,-26.935596,-4.1328125e-5)"
               id="g12806">
              <path
                 sodipodi:nodetypes="ccccccccc"
                 style="fill:#932279;fill-opacity:1;fill-rule:evenodd;stroke:none;stroke-width:30;stroke-linecap:round;stroke-linejoin:round;marker:none;marker-start:none;marker-mid:none;marker-end:none;stroke-miterlimit:4;stroke-dasharray:none;stroke-dashoffset:0;stroke-opacity:1;visibility:visible;display:inline;overflow:visible"
                 d="M 323.36653,2798.1614 L 317.96037,2803.9619 L 312.55421,2798.1614 L 312.55421,2757.3353 L 294.54088,2757.3353 L 317.96037,2732.4374 L 340.98524,2757.3353 L 323.36654,2757.3353 L 323.36653,2798.1614 z"
                 id="path12808" />
            </g>
            <g
               clip-path="url(#clipPath4429)"
               id="g12812"
               transform="matrix(1.0722788,0,0,1,-28.850792,-4.1328125e-5)" />
          </g>
        </g>
        <g
           id="g12768"
           transform="translate(-351.30671,-902.55818)">
          <g
             transform="translate(16.279512,-899.16723)"
             id="g12770">
            <g
               id="g12772"
               transform="matrix(1.0666663,0,0,1,-26.935596,-4.1328125e-5)">
              <path
                 id="path12774"
                 d="M 323.36653,2798.1614 L 317.96037,2803.9619 L 312.55421,2798.1614 L 312.55421,2757.3353 L 294.54088,2757.3353 L 317.96037,2732.4374 L 340.98524,2757.3353 L 323.36654,2757.3353 L 323.36653,2798.1614 z"
                 style="fill:#efa724;fill-opacity:1;fill-rule:evenodd;stroke:none;stroke-width:30;stroke-linecap:round;stroke-linejoin:round;marker:none;marker-start:none;marker-mid:none;marker-end:none;stroke-miterlimit:4;stroke-dasharray:none;stroke-dashoffset:0;stroke-opacity:1;visibility:visible;display:inline;overflow:visible"
                 sodipodi:nodetypes="ccccccccc" />
            </g>
            <g
               transform="matrix(1.0722788,0,0,1,-28.850792,-4.1328125e-5)"
               id="g12778"
               clip-path="url(#clipPath4429)" />
          </g>
        </g>
        <g
           transform="matrix(0,1,-1,0,2787.8992,696.93451)"
           id="g12780">
          <g
             id="g12782"
             transform="matrix(1.0666663,0,0,1,-26.935596,-4.1328125e-5)">
            <path
               id="path12784"
               d="M 323.36653,2798.1614 L 317.96037,2803.9619 L 312.55421,2798.1614 L 312.55421,2757.3353 L 294.54088,2757.3353 L 317.96037,2732.4374 L 340.98524,2757.3353 L 323.36654,2757.3353 L 323.36653,2798.1614 z"
               style="fill:#262577;fill-opacity:1;fill-rule:evenodd;stroke:none;stroke-width:30;stroke-linecap:round;stroke-linejoin:round;marker:none;marker-start:none;marker-mid:none;marker-end:none;stroke-miterlimit:4;stroke-dasharray:none;stroke-dashoffset:0;stroke-opacity:1;visibility:visible;display:inline;overflow:visible"
               sodipodi:nodetypes="ccccccccc" />
          </g>
          <g
             transform="matrix(1.0722788,0,0,1,-28.850792,-4.1328125e-5)"
             id="g12788"
             clip-path="url(#clipPath4429)" />
        </g>
        <g
           id="g12790"
           transform="matrix(-1,0,0,-1,305.51863,2920.6937)">
          <g
             transform="translate(16.279512,-899.16723)"
             id="g12792">
            <g
               id="g12794"
               transform="matrix(1.0666663,0,0,1,-26.935596,-4.1328125e-5)">
              <path
                 id="path12796"
                 d="M 323.36653,2798.1614 L 317.96037,2803.9619 L 312.55421,2798.1614 L 312.55421,2757.3353 L 294.54088,2757.3353 L 317.96037,2732.4374 L 340.98524,2757.3353 L 323.36654,2757.3353 L 323.36653,2798.1614 z"
                 style="fill:#9ccd2a;fill-opacity:1;fill-rule:evenodd;stroke:none;stroke-width:30;stroke-linecap:round;stroke-linejoin:round;marker:none;marker-start:none;marker-mid:none;marker-end:none;stroke-miterlimit:4;stroke-dasharray:none;stroke-dashoffset:0;stroke-opacity:1;visibility:visible;display:inline;overflow:visible"
                 sodipodi:nodetypes="ccccccccc" />
            </g>
            <g
               transform="matrix(1.0722788,0,0,1,-28.850792,-4.1328125e-5)"
               id="g12800"
               clip-path="url(#clipPath4429)" />
          </g>
        </g>
        <g
           id="g12742"
           transform="translate(-749.79982,-1331.6428)">
          <rect
             y="2285.7893"
             x="671.98438"
             height="49.606449"
             width="49.606449"
             id="rect12744"
             style="fill:#9ccd2a;fill-opacity:1;stroke:#ffffff;stroke-width:3.54330707;stroke-linecap:butt;stroke-linejoin:miter;stroke-miterlimit:4;stroke-dasharray:none;stroke-dashoffset:0;stroke-opacity:1" />
          <rect
             style="fill:#932279;fill-opacity:1;stroke:#ffffff;stroke-width:3.54330707;stroke-linecap:butt;stroke-linejoin:miter;stroke-miterlimit:4;stroke-dasharray:none;stroke-dashoffset:0;stroke-opacity:1"
             id="rect12746"
             width="49.606449"
             height="49.606449"
             x="732.22076"
             y="2285.7893" />
          <rect
             y="2346.0256"
             x="732.22076"
             height="49.606449"
             width="49.606449"
             id="rect12748"
             style="fill:#efa724;fill-opacity:1;stroke:#ffffff;stroke-width:3.54330707;stroke-linecap:butt;stroke-linejoin:miter;stroke-miterlimit:4;stroke-dasharray:none;stroke-dashoffset:0;stroke-opacity:1" />
          <rect
             style="fill:#262577;fill-opacity:1;stroke:#ffffff;stroke-width:3.54330707;stroke-linecap:butt;stroke-linejoin:miter;stroke-miterlimit:4;stroke-dasharray:none;stroke-dashoffset:0;stroke-opacity:1"
             id="rect12750"
             width="49.606449"
             height="49.606449"
             x="671.98438"
             y="2346.0256" />
        </g>
        <rect
           transform="matrix(0.7071068,-0.7071068,0.7071068,0.7071068,0,0)"
           style="fill:none;fill-opacity:1;stroke:#ffffff;stroke-width:3.54330707;stroke-linecap:butt;stroke-linejoin:miter;stroke-miterlimit:4;stroke-dasharray:none;stroke-dashoffset:0;stroke-opacity:1"
           id="rect12760"
           width="49.606449"
           height="49.606449"
           x="-784.62878"
           y="642.40875" />
        <rect
           transform="matrix(0.7071068,-0.7071068,0.7071068,0.7071068,0,0)"
           y="642.40875"
           x="-724.39233"
           height="49.606449"
           width="49.606449"
           id="rect12762"
           style="fill:none;fill-opacity:1;stroke:#ffffff;stroke-width:3.54330707;stroke-linecap:butt;stroke-linejoin:miter;stroke-miterlimit:4;stroke-dasharray:none;stroke-dashoffset:0;stroke-opacity:1" />
        <rect
           transform="matrix(0.7071068,-0.7071068,0.7071068,0.7071068,0,0)"
           style="fill:none;fill-opacity:1;stroke:#ffffff;stroke-width:3.54330707;stroke-linecap:butt;stroke-linejoin:miter;stroke-miterlimit:4;stroke-dasharray:none;stroke-dashoffset:0;stroke-opacity:1"
           id="rect12764"
           width="49.606449"
           height="49.606449"
           x="-724.39233"
           y="702.64508" />
        <rect
           transform="matrix(0.7071068,-0.7071068,0.7071068,0.7071068,0,0)"
           y="702.64508"
           x="-784.62878"
           height="49.606449"
           width="49.606449"
           id="rect12766"
           style="fill:none;fill-opacity:1;stroke:#ffffff;stroke-width:3.54330707;stroke-linecap:butt;stroke-linejoin:miter;stroke-miterlimit:4;stroke-dasharray:none;stroke-dashoffset:0;stroke-opacity:1" />
      </g>
    </g>
  </g>
</svg>
