<?xml version="1.0" encoding="UTF-8" standalone="no"?>
<!-- Created with Inkscape (http://www.inkscape.org/) -->
<svg
   xmlns:dc="http://purl.org/dc/elements/1.1/"
   xmlns:cc="http://creativecommons.org/ns#"
   xmlns:rdf="http://www.w3.org/1999/02/22-rdf-syntax-ns#"
   xmlns:svg="http://www.w3.org/2000/svg"
   xmlns="http://www.w3.org/2000/svg"
   xmlns:sodipodi="http://sodipodi.sourceforge.net/DTD/sodipodi-0.dtd"
   xmlns:inkscape="http://www.inkscape.org/namespaces/inkscape"
   width="185"
   height="58"
   id="svg2897"
   sodipodi:version="0.32"
   inkscape:version="0.46"
   sodipodi:docname="centos-logo-white.svg"
   inkscape:output_extension="org.inkscape.output.svg.inkscape"
   version="1.0">
  <defs
     id="defs2899">
    <clipPath
       clipPathUnits="userSpaceOnUse"
       id="clipPath4429">
      <g
         transform="matrix(0.9947658,0,0,1,1.7860989,0)"
         id="g4431">
        <path
           sodipodi:nodetypes="ccccccccc"
           style="fill:#efa724;fill-opacity:1;fill-rule:evenodd;stroke:none;stroke-width:30;stroke-linecap:round;stroke-linejoin:round;marker:none;marker-start:none;marker-mid:none;marker-end:none;stroke-miterlimit:4;stroke-dasharray:none;stroke-dashoffset:0;stroke-opacity:1;visibility:visible;display:inline;overflow:visible"
           d="M 322.54143,2800.9375 L 318.10638,2806.6673 L 313.67143,2800.9375 L 313.67143,2757.7946 L 294.73171,2757.7946 L 318.10638,2732.2579 L 341.23763,2757.7946 L 322.54143,2757.7946 L 322.54143,2800.9375 z"
           id="path4433" />
      </g>
    </clipPath>
    <inkscape:perspective
       sodipodi:type="inkscape:persp3d"
       inkscape:vp_x="0 : 526.18109 : 1"
       inkscape:vp_y="0 : 1000 : 0"
       inkscape:vp_z="744.09448 : 526.18109 : 1"
       inkscape:persp3d-origin="372.04724 : 350.78739 : 1"
       id="perspective2905" />
  </defs>
  <sodipodi:namedview
     id="base"
     pagecolor="#ffffff"
     bordercolor="#666666"
     borderopacity="1.0"
     gridtolerance="10000"
     guidetolerance="10"
     objecttolerance="10"
     inkscape:pageopacity="0.0"
     inkscape:pageshadow="2"
     inkscape:zoom="3.3744707"
     inkscape:cx="84.466195"
     inkscape:cy="39.84331"
     inkscape:document-units="px"
     inkscape:current-layer="layer1"
     showgrid="true"
     inkscape:window-width="1360"
     inkscape:window-height="693"
     inkscape:window-x="0"
     inkscape:window-y="25"
     showborder="true"
     inkscape:showpageshadow="false"
     showguides="true"
     inkscape:guide-bbox="true">
    <inkscape:grid
       type="xygrid"
       id="grid3843"
       visible="true"
       enabled="true" />
    <sodipodi:guide
       orientation="0,1"
       position="89.218851,0"
       id="guide3853" />
    <sodipodi:guide
       orientation="0,1"
       position="68.45518,58"
       id="guide3855" />
    <sodipodi:guide
       orientation="1,0"
       position="0,27.188589"
       id="guide3857" />
    <sodipodi:guide
       orientation="1,0"
       position="180,28.195574"
       id="guide3859" />
    <sodipodi:guide
       orientation="1,0"
       position="185,32.597705"
       id="guide2437" />
    <sodipodi:guide
       orientation="0,1"
       position="0,53"
       id="guide2439" />
    <sodipodi:guide
       orientation="0,1"
       position="0,5"
       id="guide2441" />
    <sodipodi:guide
       orientation="1,0"
       position="5,0"
       id="guide2443" />
    <sodipodi:guide
       orientation="1,0"
       position="175,23.050058"
       id="guide2445" />
  </sodipodi:namedview>
  <metadata
     id="metadata2902">
    <rdf:RDF>
      <cc:Work
         rdf:about="">
        <dc:format>image/svg+xml</dc:format>
        <dc:type
           rdf:resource="http://purl.org/dc/dcmitype/StillImage" />
      </cc:Work>
    </rdf:RDF>
  </metadata>
  <g
     inkscape:label="Layer 1"
     inkscape:groupmode="layer"
     id="layer1"
     transform="translate(919.75396,-549.04114)">
    <g
       id="g9335"
       transform="matrix(6.7733333e-2,0,0,6.7733333e-2,-904.07077,503.27555)"
       inkscape:export-filename="/home/al/Desktop/CentOS/Symbol Construction/CentOSSymbol_20.png"
       inkscape:export-xdpi="28.883154"
       inkscape:export-ydpi="28.883154"
       inkscape:label="#g9335">
      <g
         transform="matrix(1.1808679,0,0,1.1808679,586.42082,-1141.3723)"
         id="g13583"
         inkscape:export-filename="/home/al/Desktop/CentOSSymbol_Final.png"
         inkscape:export-xdpi="50.799999"
         inkscape:export-ydpi="50.799999">
        <g
           id="g13467"
           transform="translate(-556.83343,-494.55601)">
          <g
             id="g13395"
             transform="matrix(0,-3.7770771,3.7770771,0,-6968.6287,3636.3048)">
            <g
               transform="translate(16.279512,-899.16723)"
               id="g13397">
              <g
                 id="g13399"
                 transform="matrix(1.0666663,0,0,1,-26.935596,-4.1328125e-5)">
                <path
                   id="path13401"
                   d="M 323.36653,2798.1614 L 317.96037,2803.9619 L 312.55421,2798.1614 L 312.55421,2757.3353 L 294.54088,2757.3353 L 317.96037,2732.4374 L 340.98524,2757.3353 L 323.36654,2757.3353 L 323.36653,2798.1614 z"
                   style="fill:#932279;fill-opacity:1;fill-rule:evenodd;stroke:none;stroke-width:30;stroke-linecap:round;stroke-linejoin:round;marker:none;marker-start:none;marker-mid:none;marker-end:none;stroke-miterlimit:4;stroke-dasharray:none;stroke-dashoffset:0;stroke-opacity:1;visibility:visible;display:inline;overflow:visible"
                   sodipodi:nodetypes="ccccccccc" />
              </g>
              <g
                 transform="matrix(1.0722788,0,0,1,-28.850792,-4.1328125e-5)"
                 id="g13405"
                 clip-path="url(#clipPath4429)" />
            </g>
          </g>
          <g
             transform="matrix(3.7770771,0,0,3.7770771,-988.70982,-4824.4941)"
             id="g13407">
            <g
               id="g13409"
               transform="translate(16.279512,-899.16723)">
              <g
                 transform="matrix(1.0666663,0,0,1,-26.935596,-4.1328125e-5)"
                 id="g13411">
                <path
                   sodipodi:nodetypes="ccccccccc"
                   style="fill:#efa724;fill-opacity:1;fill-rule:evenodd;stroke:none;stroke-width:30;stroke-linecap:round;stroke-linejoin:round;marker:none;marker-start:none;marker-mid:none;marker-end:none;stroke-miterlimit:4;stroke-dasharray:none;stroke-dashoffset:0;stroke-opacity:1;visibility:visible;display:inline;overflow:visible"
                   d="M 323.36653,2798.1614 L 317.96037,2803.9619 L 312.55421,2798.1614 L 312.55421,2757.3353 L 294.54088,2757.3353 L 317.96037,2732.4374 L 340.98524,2757.3353 L 323.36654,2757.3353 L 323.36653,2798.1614 z"
                   id="path13413" />
              </g>
              <g
                 clip-path="url(#clipPath4429)"
                 id="g13417"
                 transform="matrix(1.0722788,0,0,1,-28.850792,-4.1328125e-5)" />
            </g>
          </g>
          <g
             id="g13419"
             transform="matrix(0,3.7770771,-3.7770771,0,10868.313,1216.9132)">
            <g
               transform="matrix(1.0666663,0,0,1,-26.935596,-4.1328125e-5)"
               id="g13421">
              <path
                 sodipodi:nodetypes="ccccccccc"
                 style="fill:#262577;fill-opacity:1;fill-rule:evenodd;stroke:none;stroke-width:30;stroke-linecap:round;stroke-linejoin:round;marker:none;marker-start:none;marker-mid:none;marker-end:none;stroke-miterlimit:4;stroke-dasharray:none;stroke-dashoffset:0;stroke-opacity:1;visibility:visible;display:inline;overflow:visible"
                 d="M 323.36653,2798.1614 L 317.96037,2803.9619 L 312.55421,2798.1614 L 312.55421,2757.3353 L 294.54088,2757.3353 L 317.96037,2732.4374 L 340.98524,2757.3353 L 323.36654,2757.3353 L 323.36653,2798.1614 z"
                 id="path13423" />
            </g>
            <g
               clip-path="url(#clipPath4429)"
               id="g13427"
               transform="matrix(1.0722788,0,0,1,-28.850792,-4.1328125e-5)" />
          </g>
          <g
             transform="matrix(-3.7770771,0,0,-3.7770771,1492.1701,9616.2232)"
             id="g13429">
            <g
               id="g13431"
               transform="translate(16.279512,-899.16723)">
              <g
                 transform="matrix(1.0666663,0,0,1,-26.935596,-4.1328125e-5)"
                 id="g13433">
                <path
                   sodipodi:nodetypes="ccccccccc"
                   style="fill:#9ccd2a;fill-opacity:1;fill-rule:evenodd;stroke:none;stroke-width:30;stroke-linecap:round;stroke-linejoin:round;marker:none;marker-start:none;marker-mid:none;marker-end:none;stroke-miterlimit:4;stroke-dasharray:none;stroke-dashoffset:0;stroke-opacity:1;visibility:visible;display:inline;overflow:visible"
                   d="M 323.36653,2798.1614 L 317.96037,2803.9619 L 312.55421,2798.1614 L 312.55421,2757.3353 L 294.54088,2757.3353 L 317.96037,2732.4374 L 340.98524,2757.3353 L 323.36654,2757.3353 L 323.36653,2798.1614 z"
                   id="path13435" />
              </g>
              <g
                 clip-path="url(#clipPath4429)"
                 id="g13439"
                 transform="matrix(1.0722788,0,0,1,-28.850792,-4.1328125e-5)" />
            </g>
          </g>
          <g
             transform="matrix(3.7770771,0,0,3.7770771,-2493.849,-6445.1798)"
             id="g13441">
            <rect
               style="fill:#9ccd2a;fill-opacity:1;stroke:#ffffff;stroke-width:3.54330707;stroke-linecap:butt;stroke-linejoin:miter;stroke-miterlimit:4;stroke-dasharray:none;stroke-dashoffset:0;stroke-opacity:1"
               id="rect13443"
               width="49.606449"
               height="49.606449"
               x="671.98438"
               y="2285.7893" />
            <rect
               y="2285.7893"
               x="732.22076"
               height="49.606449"
               width="49.606449"
               id="rect13445"
               style="fill:#932279;fill-opacity:1;stroke:#ffffff;stroke-width:3.54330707;stroke-linecap:butt;stroke-linejoin:miter;stroke-miterlimit:4;stroke-dasharray:none;stroke-dashoffset:0;stroke-opacity:1" />
            <rect
               style="fill:#efa724;fill-opacity:1;stroke:#ffffff;stroke-width:3.54330707;stroke-linecap:butt;stroke-linejoin:miter;stroke-miterlimit:4;stroke-dasharray:none;stroke-dashoffset:0;stroke-opacity:1"
               id="rect13447"
               width="49.606449"
               height="49.606449"
               x="732.22076"
               y="2346.0256" />
            <rect
               y="2346.0256"
               x="671.98438"
               height="49.606449"
               width="49.606449"
               id="rect13449"
               style="fill:#262577;fill-opacity:1;stroke:#ffffff;stroke-width:3.54330707;stroke-linecap:butt;stroke-linejoin:miter;stroke-miterlimit:4;stroke-dasharray:none;stroke-dashoffset:0;stroke-opacity:1" />
          </g>
          <rect
             y="1664.6902"
             x="-1723.575"
             height="187.36739"
             width="187.36739"
             id="rect13459"
             style="fill:none;fill-opacity:1;stroke:#ffffff;stroke-width:13.38334465;stroke-linecap:butt;stroke-linejoin:miter;stroke-miterlimit:4;stroke-dasharray:none;stroke-dashoffset:0;stroke-opacity:1"
             transform="matrix(0.7071068,-0.7071068,0.7071068,0.7071068,0,0)" />
          <rect
             style="fill:none;fill-opacity:1;stroke:#ffffff;stroke-width:13.38334465;stroke-linecap:butt;stroke-linejoin:miter;stroke-miterlimit:4;stroke-dasharray:none;stroke-dashoffset:0;stroke-opacity:1"
             id="rect13461"
             width="187.36739"
             height="187.36739"
             x="-1496.0573"
             y="1664.6902"
             transform="matrix(0.7071068,-0.7071068,0.7071068,0.7071068,0,0)" />
          <rect
             y="1892.2074"
             x="-1496.0573"
             height="187.36739"
             width="187.36739"
             id="rect13463"
             style="fill:none;fill-opacity:1;stroke:#ffffff;stroke-width:13.38334465;stroke-linecap:butt;stroke-linejoin:miter;stroke-miterlimit:4;stroke-dasharray:none;stroke-dashoffset:0;stroke-opacity:1"
             transform="matrix(0.7071068,-0.7071068,0.7071068,0.7071068,0,0)" />
          <rect
             style="fill:none;fill-opacity:1;stroke:#ffffff;stroke-width:13.38334465;stroke-linecap:butt;stroke-linejoin:miter;stroke-miterlimit:4;stroke-dasharray:none;stroke-dashoffset:0;stroke-opacity:1"
             id="rect13465"
             width="187.36739"
             height="187.36739"
             x="-1723.575"
             y="1892.2074"
             transform="matrix(0.7071068,-0.7071068,0.7071068,0.7071068,0,0)" />
        </g>
      </g>
    </g>
    <path
       style="font-size:72.70541382000000397px;font-style:normal;font-variant:normal;font-weight:200;font-stretch:normal;text-align:start;line-height:125%;writing-mode:lr-tb;text-anchor:start;fill:#ffffff;fill-opacity:1;stroke:none;stroke-width:2.48031496999999979;stroke-linecap:butt;stroke-linejoin:miter;stroke-miterlimit:4;stroke-dasharray:none;stroke-opacity:1;display:inline;font-family:Denmark;-inkscape-font-specification:Denmark Ultra-Light"
       clip-path="none"
       d="M -841.36938,589.64335 L -850.99791,589.64335 C -851.97428,589.64335 -852.94025,589.4997 -853.89582,589.21241 C -855.74468,588.61573 -857.2092,587.24556 -858.28942,585.10192 C -859.26578,583.15717 -859.75396,580.89198 -859.75396,578.30634 C -859.75396,575.80911 -859.31772,573.59917 -858.44523,571.6765 C -857.48965,569.55497 -856.12898,568.10746 -854.36322,567.33396 C -852.99218,566.7373 -851.58997,566.43895 -850.15659,566.43893 L -841.43171,566.43893 L -841.43171,570.88092 L -850.49935,570.88092 C -851.97428,570.88094 -853.04411,571.73177 -853.70886,573.4334 C -854.22821,574.75939 -854.48788,576.49419 -854.48788,578.63783 C -854.48788,580.44999 -854.1555,581.9859 -853.49075,583.24555 C -852.72212,584.72623 -851.6419,585.46656 -850.25006,585.46655 L -841.36938,585.4334 L -841.36938,589.64335 M -825.33352,589.7428 L -832.93663,589.7428 C -834.78548,589.7428 -836.39542,588.90302 -837.76648,587.22346 C -839.11675,585.5218 -839.7919,583.56601 -839.7919,581.35606 C -839.7919,578.94723 -839.05443,576.86989 -837.57952,575.12402 C -836.08382,573.35608 -834.42194,572.4721 -832.59386,572.47208 L -825.36467,572.47208 L -825.36467,576.01904 L -830.66192,576.01904 C -831.32668,576.01906 -831.89796,576.08535 -832.37573,576.21794 C -832.83277,576.32845 -833.25862,576.56049 -833.65331,576.91407 C -834.38039,577.57706 -834.74393,578.47209 -834.74393,579.59915 L -825.39583,579.59915 L -825.39583,583.17926 L -834.71277,583.17926 C -834.71277,583.70966 -834.66084,584.16269 -834.55696,584.53837 C -834.43232,584.89198 -834.19343,585.25661 -833.84028,585.6323 C -833.48712,585.98589 -833.07166,586.22899 -832.59386,586.36158 C -832.0953,586.47209 -831.49287,586.52733 -830.78657,586.52733 L -825.33352,586.52733 L -825.33352,589.7428 M -807.56434,589.64335 L -811.89563,589.64335 L -811.89563,578.33948 C -811.89564,578.0522 -811.95796,577.79806 -812.0826,577.57705 C -812.20725,577.33397 -812.38382,577.10192 -812.61232,576.88092 C -813.0278,576.50524 -813.50558,576.3174 -814.04569,576.31738 L -818.28349,576.31738 L -818.28349,589.64335 L -822.61478,589.64335 L -822.61478,572.47208 L -814.32614,572.47208 C -812.85122,572.4721 -811.7814,572.56049 -811.11662,572.73727 C -810.07796,573.00249 -809.24702,573.58812 -808.62379,574.49418 C -807.91751,575.55496 -807.56436,576.71518 -807.56434,577.97484 L -807.56434,589.64335 M -795.12458,576.05219 L -799.33122,576.05219 L -799.33122,583.84225 C -799.33122,584.54943 -799.10271,585.13507 -798.64568,585.59915 C -798.12636,586.06324 -797.44083,586.29529 -796.5891,586.29528 L -795.31154,586.29528 L -795.31154,589.64335 L -799.33122,589.64335 C -800.53608,589.64335 -801.56436,589.17926 -802.41608,588.25109 C -802.91465,587.6986 -803.23664,587.09087 -803.38205,586.42788 C -803.52746,585.7649 -803.60017,584.98037 -803.60017,584.07429 L -803.60017,576.05219 L -806.34228,576.05219 L -806.34228,572.47208 L -803.60017,572.47208 L -803.60017,566.43893 L -799.33122,566.43893 L -799.33122,572.47208 L -795.12458,572.47208 L -795.12458,576.05219 M -769.6963,578.00799 C -769.69635,582.51628 -770.87004,585.7428 -773.21742,587.68755 C -775.1286,589.25661 -777.91225,590.04114 -781.56838,590.04114 C -785.61922,590.04114 -788.6106,589.13506 -790.54254,587.32291 C -792.66146,585.33396 -793.7209,582.14059 -793.7209,577.7428 C -793.7209,574.14061 -792.7757,571.33398 -790.88531,569.32291 C -788.82874,567.13508 -785.75425,566.04116 -781.66186,566.04114 C -777.15402,566.04116 -773.97567,567.09088 -772.1268,569.19031 C -770.5065,571.04668 -769.69635,573.9859 -769.6963,578.00799 M -775.24284,577.8754 C -775.24286,575.59917 -775.75181,573.78701 -776.76969,572.43893 C -777.91225,570.93619 -779.60529,570.18481 -781.84881,570.18479 C -784.05083,570.18481 -785.71271,570.99144 -786.83447,572.60467 C -787.76929,573.95276 -788.23669,575.70967 -788.23668,577.8754 C -788.23669,580.37264 -787.86277,582.21794 -787.11491,583.4113 C -786.07624,585.06877 -784.15469,585.89749 -781.35026,585.89749 C -778.98208,585.89749 -777.32021,585.09087 -776.36461,583.4776 C -775.61678,582.21794 -775.24286,580.35054 -775.24284,577.8754 M -744.75396,582.44998 C -744.75399,584.48313 -745.38757,586.19584 -746.65473,587.5881 C -747.92192,588.98037 -749.5319,589.6765 -751.48457,589.6765 L -766.90893,589.64335 L -766.90893,585.46655 L -754.19553,585.46655 C -753.34382,585.46656 -752.62714,585.25661 -752.04546,584.83672 C -751.38074,584.35054 -751.04835,583.68755 -751.04834,582.84777 C -751.04835,580.88092 -752.35708,579.8975 -754.97452,579.89749 L -761.39355,579.89749 C -763.24241,579.8975 -764.86275,579.28977 -766.25456,578.07429 C -767.6464,576.85883 -768.3423,575.31188 -768.3423,573.4334 C -768.3423,571.35607 -767.66718,569.67652 -766.31688,568.39474 C -764.94584,567.09088 -763.14892,566.43895 -760.92615,566.43893 L -746.18734,566.43893 L -746.18734,570.41684 L -759.18116,570.41684 C -759.76285,570.41685 -760.35488,570.68204 -760.9573,571.21241 C -761.53897,571.72072 -761.82981,572.32845 -761.8298,573.03562 C -761.82981,573.83121 -761.54935,574.50524 -760.98847,575.05771 C -760.40682,575.58812 -759.71089,575.85331 -758.90072,575.85329 L -751.82734,575.85329 C -749.62538,575.85331 -747.90116,576.46105 -746.65473,577.6765 C -745.38757,578.86988 -744.75399,580.46104 -744.75396,582.44998"
       id="path3841"
       inkscape:label="" />
    <text
       xml:space="preserve"
       style="font-size:12px;font-style:normal;font-variant:normal;font-weight:normal;font-stretch:normal;text-indent:0;text-align:start;text-decoration:none;line-height:125%;letter-spacing:normal;word-spacing:normal;text-transform:none;direction:ltr;block-progression:tb;writing-mode:lr-tb;text-anchor:start;opacity:1;fill:#ffffff;fill-opacity:1;fill-rule:nonzero;stroke:none;stroke-width:1px;stroke-linecap:butt;stroke-linejoin:miter;marker:none;marker-start:none;marker-mid:none;marker-end:none;stroke-miterlimit:4;stroke-dasharray:none;stroke-dashoffset:0;stroke-opacity:1;visibility:visible;display:inline;overflow:visible;enable-background:accumulate;font-family:DejaVu LGC Sans;-inkscape-font-specification:DejaVu LGC Sans"
       x="-746.48248"
       y="562.78918"
       id="text2429"
       sodipodi:linespacing="125%"><tspan
         sodipodi:role="line"
         x="-746.48248"
         y="562.78918"
         id="tspan2433">™</tspan></text>
  </g>
</svg>
