<?xml version="1.0" encoding="UTF-8" standalone="no"?>
<!-- Created with Inkscape (http://www.inkscape.org/) -->
<svg
   xmlns:dc="http://purl.org/dc/elements/1.1/"
   xmlns:cc="http://creativecommons.org/ns#"
   xmlns:rdf="http://www.w3.org/1999/02/22-rdf-syntax-ns#"
   xmlns:svg="http://www.w3.org/2000/svg"
   xmlns="http://www.w3.org/2000/svg"
   xmlns:xlink="http://www.w3.org/1999/xlink"
   xmlns:sodipodi="http://sodipodi.sourceforge.net/DTD/sodipodi-0.dtd"
   xmlns:inkscape="http://www.inkscape.org/namespaces/inkscape"
   id="svg2457"
   sodipodi:version="0.32"
   inkscape:version="0.46"
   width="1024"
   height="250"
   version="1.0"
   sodipodi:docname="1024x250.svg"
   inkscape:output_extension="org.inkscape.output.svg.inkscape">
  <metadata
     id="metadata2462">
    <rdf:RDF>
      <cc:Work
         rdf:about="">
        <dc:format>image/svg+xml</dc:format>
        <dc:type
           rdf:resource="http://purl.org/dc/dcmitype/StillImage" />
      </cc:Work>
    </rdf:RDF>
  </metadata>
  <defs
     id="defs2460">
    <clipPath
       clipPathUnits="userSpaceOnUse"
       id="clipPath11108">
      <rect
         y="249.50511"
         x="53.650307"
         height="300"
         width="640"
         id="rect11110"
         style="opacity:1;fill:#ffffff;fill-opacity:1;stroke:none;stroke-width:10;stroke-linecap:round;stroke-linejoin:round;stroke-miterlimit:4;stroke-dasharray:none;stroke-dashoffset:0;stroke-opacity:1" />
    </clipPath>
    <linearGradient
       id="linearGradient5333">
      <stop
         style="stop-color:#2c67bd;stop-opacity:1;"
         offset="0"
         id="stop5335" />
      <stop
         style="stop-color:#95b7e9;stop-opacity:0;"
         offset="1"
         id="stop5337" />
    </linearGradient>
    <linearGradient
       id="linearGradient5341">
      <stop
         style="stop-color:#114696;stop-opacity:1;"
         offset="0"
         id="stop5343" />
      <stop
         style="stop-color:#114696;stop-opacity:0;"
         offset="1"
         id="stop5345" />
    </linearGradient>
    <inkscape:perspective
       sodipodi:type="inkscape:persp3d"
       inkscape:vp_x="0 : 526.18109 : 1"
       inkscape:vp_y="0 : 1000 : 0"
       inkscape:vp_z="744.09448 : 526.18109 : 1"
       inkscape:persp3d-origin="372.04724 : 350.78739 : 1"
       id="perspective2464" />
    <linearGradient
       inkscape:collect="always"
       xlink:href="#linearGradient5333"
       id="linearGradient3558"
       gradientUnits="userSpaceOnUse"
       gradientTransform="matrix(1.6897058,0,0,1.6897058,-364.77566,-565.36486)"
       x1="392.72235"
       y1="344.90247"
       x2="392.72235"
       y2="796.95911" />
    <linearGradient
       inkscape:collect="always"
       xlink:href="#linearGradient5341"
       id="linearGradient3561"
       gradientUnits="userSpaceOnUse"
       gradientTransform="matrix(1.9913592,0,0,1.7760364,-365.74286,-475.35171)"
       x1="599.84979"
       y1="266.45712"
       x2="599.84979"
       y2="668.80261" />
    <clipPath
       clipPathUnits="userSpaceOnUse"
       id="clipPath3576">
      <rect
         style="opacity:1;fill:#000000;fill-opacity:1;stroke:none;stroke-width:3;stroke-linecap:square;stroke-linejoin:round;stroke-miterlimit:4;stroke-dasharray:none;stroke-dashoffset:0;stroke-opacity:1"
         id="rect3578"
         width="1024"
         height="250"
         x="0"
         y="0" />
    </clipPath>
  </defs>
  <sodipodi:namedview
     inkscape:window-height="693"
     inkscape:window-width="1360"
     inkscape:pageshadow="2"
     inkscape:pageopacity="0.0"
     guidetolerance="10.0"
     gridtolerance="10.0"
     objecttolerance="10.0"
     borderopacity="1.0"
     bordercolor="#666666"
     pagecolor="#ffffff"
     id="base"
     showgrid="false"
     inkscape:showpageshadow="false"
     showborder="false"
     inkscape:zoom="0.83886719"
     inkscape:cx="512"
     inkscape:cy="125"
     inkscape:window-x="0"
     inkscape:window-y="25"
     inkscape:current-layer="g3565"
     showguides="true"
     inkscape:guide-bbox="true">
    <sodipodi:guide
       orientation="1,0"
       position="800.44488,272.94322"
       id="guide2746" />
  </sodipodi:namedview>
  <image
     xlink:href="/home/centos/artwork/trunk/Identity/Themes/Motifs/TreeFlower/Backgrounds/Img/1024x250-bg.png"
     sodipodi:absref="/home/centos/artwork/trunk/Identity/Themes/Motifs/TreeFlower/Backgrounds/Img/1024x250-bg.png"
     width="1024"
     height="250"
     id="CENTOSARTWORK"
     x="0"
     y="0"
     inkscape:label="#image2466" />
  <g
     id="g3565"
     clip-path="url(#clipPath3576)">
    <path
       id="path2856"
       d="M 197.31413,6.555219 C 458.106,6.555219 669.86412,232.71839 669.86412,511.55414 C 669.86412,790.38989 458.106,1016.7991 197.31413,1016.7993 C -63.477747,1016.7993 -275.23579,790.38989 -275.23585,511.55414 C -275.23585,232.71839 -63.477747,6.5553035 197.31413,6.555219 z M 67.392975,486.84352 C 71.551898,868.93523 567.88236,918.74448 567.88236,506.81631 C 567.88236,99.623809 63.181636,99.934597 67.392975,486.84352 z"
       style="fill:url(#linearGradient3561);fill-opacity:1;stroke:none;stroke-width:1;stroke-linejoin:round;stroke-miterlimit:4;stroke-dasharray:none;stroke-dashoffset:0;stroke-opacity:1"
       sodipodi:nodetypes="cssscczz" />
    <path
       sodipodi:nodetypes="cssscczc"
       style="fill:url(#linearGradient3558);fill-opacity:1;stroke:none;stroke-width:1;stroke-linejoin:round;stroke-miterlimit:4;stroke-dasharray:none;stroke-dashoffset:0;stroke-opacity:1"
       d="M 737.18176,18.646196 C 495.25201,18.646196 298.80959,214.87497 298.80959,456.80474 C 298.80959,698.73448 495.25201,895.17682 737.18176,895.17689 C 979.1115,895.17689 1114.2163,653.51092 1114.2163,411.58117 C 1114.2163,226.05682 979.1115,18.646264 737.18176,18.646196 z M 763.23986,814.30037 C 586.83275,814.30037 222.68468,827.55755 379.68611,426.0088 C 537.61138,22.097167 1167.1887,273.47914 763.23986,814.30037 z"
       id="path2858" />
    <path
       transform="matrix(2.499169,0,0,2.499169,-195.38125,-208.22124)"
       d="M 524.3371,249.52905 A 159.82468,159.82468 0 1 1 204.68774,249.52905 A 159.82468,159.82468 0 1 1 524.3371,249.52905 z"
       sodipodi:ry="159.82468"
       sodipodi:rx="159.82468"
       sodipodi:cy="249.52905"
       sodipodi:cx="364.51242"
       id="path2860"
       style="fill:none;fill-opacity:1;stroke:#002974;stroke-width:6.9840126;stroke-linecap:round;stroke-linejoin:round;stroke-miterlimit:4;stroke-dasharray:none;stroke-dashoffset:0;stroke-opacity:1"
       sodipodi:type="arc" />
    <g
       style="fill:#002974;fill-opacity:1"
       id="g2862"
       transform="matrix(3.1037288,3.0422039,3.0422039,-3.1037288,-1127.2362,-376.41857)">
      <path
         sodipodi:nodetypes="csssssssssssccsssssssssssc"
         d="M 225.7785,132.74383 C 225.78369,132.74295 225.7787,132.74312 225.7785,132.74383 C 225.75982,132.81026 225.8177,132.72445 225.7785,132.74383 C 225.25769,133.00106 225.30159,132.50817 225.49164,132.30399 C 225.97779,131.78167 226.82161,132.1681 227.18917,132.64765 C 228.11964,133.86162 227.29786,135.54178 226.15828,136.26839 C 223.74709,137.8058 220.69873,136.21715 219.44201,133.95043 C 217.08683,129.7025 219.8561,124.62599 223.86584,122.63601 C 230.74947,119.21975 238.6715,123.69208 241.63061,130.21916 C 246.38465,140.70548 239.57189,152.45582 229.58627,156.65337 C 214.35455,163.05624 197.62035,153.14527 191.88064,138.58522 C 183.48298,117.28264 197.37525,94.22949 217.80745,86.608856 C 246.69554,75.834423 277.58864,94.721249 287.46481,122.51158 M 225.7785,132.74383 C 225.78169,132.748 225.7792,132.74367 225.7785,132.74383 C 225.71109,132.75865 225.77416,132.78737 225.7785,132.74383 C 225.80514,132.47564 226.06883,132.30304 226.26965,132.36479 C 226.95168,132.57454 227.01621,133.47384 226.76642,134.024 C 226.13412,135.41671 224.26497,135.48361 223.08709,134.82086 C 220.59489,133.41857 220.55968,129.98129 221.9668,127.80472 C 224.60379,123.72574 230.38628,123.77617 234.03092,126.37514 C 240.28776,130.83689 240.076,139.93169 235.71336,145.6173 C 228.70438,154.75173 215.1301,154.27962 206.72241,147.45003 C 193.89763,137.03243 194.75397,117.60238 204.89162,105.67897 C 219.72386,88.234058 246.82276,89.379683 262.95284,104.05512 C 285.38801,124.46704 270.99714,134.32774 287.46481,122.51158"
         style="fill:#002974;fill-opacity:1;fill-rule:evenodd;stroke:none;stroke-width:1px;stroke-linecap:butt;stroke-linejoin:miter;stroke-opacity:1"
         id="path2864" />
      <path
         sodipodi:nodetypes="csssssssssssccsssssssssssc"
         d="M 289.46772,101.63923 C 289.46673,101.64012 289.46754,101.63916 289.46772,101.63923 C 289.48392,101.646 289.45767,101.64399 289.46772,101.63923 C 289.60123,101.5759 289.49594,101.50687 289.42521,101.51257 C 289.24425,101.52718 289.18821,101.75656 289.2259,101.90559 C 289.32134,102.28284 289.78633,102.38399 290.11117,102.27124 C 290.7985,102.03265 290.96253,101.17359 290.70847,100.56509 C 290.2324,99.424698 288.78227,99.176238 287.75235,99.662419 C 285.98427,100.49706 285.62663,102.78382 286.46226,104.4044 C 287.80476,107.008 291.22488,107.50271 293.6384,106.17232 C 297.31994,104.14297 297.98284,99.239302 295.98288,95.796117 C 293.05679,90.758445 286.26378,89.8929 281.51853,92.767914 C 274.80948,96.832766 273.70345,105.97858 277.69098,112.33513 M 289.46772,101.63923 C 289.46805,101.64054 289.46758,101.63935 289.46772,101.63923 C 289.48131,101.62812 289.47709,101.64523 289.46772,101.63923 C 289.40999,101.60223 289.33393,101.62762 289.31456,101.67744 C 289.24879,101.84665 289.41808,102.00145 289.56728,102.03842 C 289.94502,102.13201 290.25334,101.76955 290.30696,101.42988 C 290.4204,100.71123 289.73997,100.16178 289.08355,100.0991 C 287.85336,99.981655 286.9509,101.14362 286.89442,102.28111 C 286.79745,104.23389 288.6459,105.62688 290.46904,105.65348 C 293.39807,105.6962 295.446,102.91271 295.40985,100.15702 C 295.35469,95.95359 291.34193,93.058249 287.36258,93.19977 C 281.54044,93.406838 277.49261,98.995722 277.87588,104.53071 C 278.40897,112.22926 282.64788,110.91342 277.69098,112.33513"
         style="fill:#002974;fill-opacity:1;fill-rule:evenodd;stroke:none;stroke-width:1px;stroke-linecap:butt;stroke-linejoin:miter;stroke-opacity:1"
         id="path2866" />
    </g>
    <path
       id="path2868"
       style="fill:#002974;fill-opacity:1;fill-rule:evenodd;stroke:none;stroke-width:1px;stroke-linecap:butt;stroke-linejoin:miter;stroke-opacity:1"
       d="M 488.31824,-1217.6291 C 543.01836,-1017.9509 665.44427,-860.74599 330.11221,-575.37102 C -5.2196447,-289.99597 73.008965,197.00799 257.67022,396.05154 C 442.33149,595.09508 486.25453,563.72633 303.03762,361.26107 C 119.82054,158.79589 33.224948,-285.86236 351.25321,-560.79225 C 669.28138,-835.72214 547.15927,-1018.4791 488.59949,-1216.1792"
       sodipodi:nodetypes="csccsc" />
    <path
       id="path2870"
       style="fill:#002974;fill-opacity:1;fill-rule:evenodd;stroke:none;stroke-width:1px;stroke-linecap:butt;stroke-linejoin:miter;stroke-opacity:1"
       d="M 743.40549,-55.16066 C 743.39945,-55.160119 743.40508,-55.16137 743.40549,-55.16066 C 743.44514,-55.092345 743.3565,-55.1709 743.40549,-55.16066 C 744.05621,-55.02447 743.86661,-55.558147 743.59759,-55.730074 C 742.90951,-56.169904 742.08486,-55.500426 741.81466,-54.863897 C 741.13055,-53.252543 742.52169,-51.625491 743.9923,-51.146088 C 747.10398,-50.131724 750.02797,-52.763846 750.7726,-55.63513 C 752.16808,-61.016082 747.64776,-65.850178 742.63515,-66.909032 C 734.0299,-68.726886 726.52935,-61.50559 725.11618,-53.426177 C 722.84587,-40.445908 733.75541,-29.371914 746.02171,-27.575148 C 764.73226,-24.834395 780.44358,-40.602307 782.64152,-58.378958 C 785.85723,-84.387653 763.87051,-105.96341 739.04856,-108.56684 C 703.95395,-112.24773 676.4071,-83.270437 673.40782,-49.649228 M 743.40549,-55.16066 C 743.40312,-55.155101 743.40466,-55.160609 743.40549,-55.16066 C 743.48443,-55.163482 743.42274,-55.113619 743.40549,-55.16066 C 743.29924,-55.450242 742.95771,-55.566088 742.75279,-55.440256 C 742.05695,-55.012828 742.24256,-53.997771 742.67665,-53.459481 C 743.77558,-52.096835 745.86612,-52.557111 746.98195,-53.628367 C 749.34291,-55.894956 748.39914,-59.714214 746.21746,-61.724001 C 742.12891,-65.490423 735.73513,-63.781235 732.43916,-59.859022 C 726.78098,-53.125562 729.61593,-43.107161 736.07624,-38.053656 C 746.45529,-29.934721 761.36346,-34.338956 768.72828,-44.311465 C 779.96234,-59.523092 773.45804,-80.810766 758.81432,-91.125947 C 737.38942,-106.21786 707.68571,-97.200355 694.00611,-76.325138 C 674.97923,-47.289977 691.69341,-43.509953 673.40782,-49.649228"
       sodipodi:nodetypes="csssssssssssccsssssssssssc" />
    <path
       style="fill:#002974;fill-opacity:1;stroke:none;stroke-width:10;stroke-linecap:round;stroke-linejoin:round;stroke-miterlimit:4;stroke-dasharray:none;stroke-dashoffset:0;stroke-opacity:1"
       d="M 633.72888,-191.77278 C 631.5813,-190.44635 634.40108,-193.33963 634.05925,-190.8387 C 633.71742,-188.33773 633.89984,-187.50905 635.61277,-185.65497 C 683.65975,-132.3949 683.39263,-49.995382 647.15692,11.908765 C 645.62745,14.516336 645.6076,17.742356 647.10488,20.368547 C 648.60213,22.994739 651.38837,24.620911 654.4114,24.632976 C 657.4344,24.645023 660.23352,23.041121 661.75169,20.426943 C 694.85404,-42.390776 695.98379,-131.75489 643.27499,-190.18257 C 640.55034,-193.25761 637.2249,-193.93089 633.72888,-191.77278 z"
       id="path2872"
       sodipodi:nodetypes="csccssccc" />
  </g>
</svg>
