<?xml version="1.0" encoding="UTF-8" standalone="no"?>
<!-- Created with Inkscape (http://www.inkscape.org/) -->
<svg
   xmlns:dc="http://purl.org/dc/elements/1.1/"
   xmlns:cc="http://creativecommons.org/ns#"
   xmlns:rdf="http://www.w3.org/1999/02/22-rdf-syntax-ns#"
   xmlns:svg="http://www.w3.org/2000/svg"
   xmlns="http://www.w3.org/2000/svg"
   xmlns:xlink="http://www.w3.org/1999/xlink"
   xmlns:sodipodi="http://sodipodi.sourceforge.net/DTD/sodipodi-0.dtd"
   xmlns:inkscape="http://www.inkscape.org/namespaces/inkscape"
   width="2559.8301"
   height="1240.193"
   id="svg57249"
   sodipodi:version="0.32"
   inkscape:version="0.46"
   version="1.0"
   sodipodi:docname="2560x1240.svg"
   inkscape:output_extension="org.inkscape.output.svg.inkscape"
   inkscape:export-xdpi="45"
   inkscape:export-ydpi="45">
  <defs
     id="defs57251">
    <inkscape:perspective
       sodipodi:type="inkscape:persp3d"
       inkscape:vp_x="0 : 620.0965 : 1"
       inkscape:vp_y="0 : 1000 : 0"
       inkscape:vp_z="2559.8301 : 620.0965 : 1"
       inkscape:persp3d-origin="1279.915 : 413.39766 : 1"
       id="perspective5899" />
    <linearGradient
       id="linearGradient5333">
      <stop
         style="stop-color:#2c67bd;stop-opacity:1;"
         offset="0"
         id="stop5335" />
      <stop
         style="stop-color:#95b7e9;stop-opacity:0;"
         offset="1"
         id="stop5337" />
    </linearGradient>
    <linearGradient
       inkscape:collect="always"
       xlink:href="#linearGradient5333"
       id="linearGradient2876"
       gradientUnits="userSpaceOnUse"
       x1="696.16772"
       y1="345.62885"
       x2="392.72235"
       y2="549.03717" />
    <linearGradient
       id="linearGradient5341">
      <stop
         style="stop-color:#114696;stop-opacity:1;"
         offset="0"
         id="stop5343" />
      <stop
         style="stop-color:#114696;stop-opacity:0;"
         offset="1"
         id="stop5345" />
    </linearGradient>
    <linearGradient
       inkscape:collect="always"
       xlink:href="#linearGradient5341"
       id="linearGradient2874"
       gradientUnits="userSpaceOnUse"
       x1="431.80792"
       y1="274.41803"
       x2="555.14716"
       y2="479.91165"
       gradientTransform="matrix(1.2540273,0,0,1.2540273,-13.989247,-22.422414)" />
    <clipPath
       clipPathUnits="userSpaceOnUse"
       id="clipPath12781">
      <rect
         style="opacity:1;fill:#ffffff;fill-opacity:1;stroke:none;stroke-width:10;stroke-linecap:round;stroke-linejoin:round;stroke-miterlimit:4;stroke-dasharray:none;stroke-dashoffset:0;stroke-opacity:1"
         id="rect12783"
         width="619.35486"
         height="300"
         x="74.295464"
         y="249.50513" />
    </clipPath>
  </defs>
  <sodipodi:namedview
     id="base"
     pagecolor="#ffffff"
     bordercolor="#666666"
     borderopacity="1.0"
     gridtolerance="10000"
     guidetolerance="10"
     objecttolerance="10"
     inkscape:pageopacity="0.0"
     inkscape:pageshadow="2"
     inkscape:zoom="0.40316306"
     inkscape:cx="1279.915"
     inkscape:cy="620.0965"
     inkscape:document-units="px"
     inkscape:current-layer="layer1"
     showgrid="false"
     showborder="false"
     inkscape:showpageshadow="false"
     inkscape:window-width="1360"
     inkscape:window-height="693"
     inkscape:window-x="0"
     inkscape:window-y="25"
     showguides="false"
     inkscape:guide-bbox="true">
    <sodipodi:guide
       orientation="0,1"
       position="1477.515,-1422.1082"
       id="guide4274" />
    <sodipodi:guide
       orientation="1,0"
       position="1578.1565,955.31073"
       id="guide4276" />
    <sodipodi:guide
       orientation="1,0"
       position="2027.864,-54.709425"
       id="guide8042" />
  </sodipodi:namedview>
  <metadata
     id="metadata57254">
    <rdf:RDF>
      <cc:Work
         rdf:about="">
        <dc:format>image/svg+xml</dc:format>
        <dc:type
           rdf:resource="http://purl.org/dc/dcmitype/StillImage" />
        <cc:license
           rdf:resource="http://creativecommons.org/licenses/by-sa/3.0/" />
        <dc:title>TreeFlower's Background</dc:title>
        <dc:date>2010-04-23</dc:date>
        <dc:creator>
          <cc:Agent>
            <dc:title>Alain Reguera Delgado</dc:title>
          </cc:Agent>
        </dc:creator>
        <dc:rights>
          <cc:Agent>
            <dc:title>The CentOS Project</dc:title>
          </cc:Agent>
        </dc:rights>
        <dc:publisher>
          <cc:Agent>
            <dc:title>The CentOS Project</dc:title>
          </cc:Agent>
        </dc:publisher>
        <dc:coverage>The CentOS Project</dc:coverage>
        <dc:description>Background image for 2560x1240 and related resolutions.</dc:description>
      </cc:Work>
      <cc:License
         rdf:about="http://creativecommons.org/licenses/by-sa/3.0/">
        <cc:permits
           rdf:resource="http://creativecommons.org/ns#Reproduction" />
        <cc:permits
           rdf:resource="http://creativecommons.org/ns#Distribution" />
        <cc:requires
           rdf:resource="http://creativecommons.org/ns#Notice" />
        <cc:requires
           rdf:resource="http://creativecommons.org/ns#Attribution" />
        <cc:permits
           rdf:resource="http://creativecommons.org/ns#DerivativeWorks" />
        <cc:requires
           rdf:resource="http://creativecommons.org/ns#ShareAlike" />
      </cc:License>
    </rdf:RDF>
  </metadata>
  <g
     inkscape:label="Layer 1"
     inkscape:groupmode="layer"
     id="layer1"
     transform="translate(-53.735268,510.59125)">
    <image
       y="-510.39825"
       x="53.735268"
       id="CENTOSARTWORK"
       height="1240"
       width="2560"
       sodipodi:absref="/home/centos/artwork/trunk/Identity/Themes/Motifs/TreeFlower/Backgrounds/Img/2560x1240-bg.png"
       xlink:href="/home/centos/artwork/trunk/Identity/Themes/Motifs/TreeFlower/Backgrounds/Img/2560x1240-bg.png"
       inkscape:label="#image12222" />
    <g
       style="display:inline"
       transform="matrix(4.1333333,0,0,4.1333333,-253.35264,-1541.6861)"
       id="g2854"
       clip-path="url(#clipPath12781)">
      <path
         sodipodi:nodetypes="cssscczz"
         style="opacity:1;fill:url(#linearGradient2874);fill-opacity:1;stroke:none;stroke-width:1;stroke-linejoin:round;stroke-miterlimit:4;stroke-dasharray:none;stroke-dashoffset:0;stroke-opacity:1"
         d="M 403.16971,311.76925 C 596.71825,311.76925 753.87607,479.61787 753.87607,686.5578 C 753.87607,893.49775 596.71825,1061.529 403.16971,1061.5291 C 209.62115,1061.5291 52.463397,893.49775 52.463359,686.5578 C 52.463359,479.61787 209.62115,311.76931 403.16971,311.76925 z M 306.74781,668.21864 C 309.83438,951.79075 678.18957,988.75703 678.18957,683.0416 C 678.18957,380.84077 303.62233,381.07143 306.74781,668.21864 z"
         id="path2856" />
      <path
         id="path2858"
         d="M 652.15934,345.62884 C 508.98072,345.62884 392.72236,461.76076 392.72236,604.93939 C 392.72236,748.11801 508.98072,864.37632 652.15934,864.37636 C 795.33796,864.37636 960.66526,696.24509 960.6653,553.06647 C 960.6653,409.88784 795.33796,345.62888 652.15934,345.62884 z M 667.58102,816.5121 C 563.17994,816.5121 347.67019,824.35795 440.58662,586.71377 C 534.0498,347.67119 906.64559,496.44382 667.58102,816.5121 z"
         style="opacity:1;fill:url(#linearGradient2876);fill-opacity:1;stroke:none;stroke-width:1;stroke-linejoin:round;stroke-miterlimit:4;stroke-dasharray:none;stroke-dashoffset:0;stroke-opacity:1"
         sodipodi:nodetypes="cssscczc" />
      <path
         sodipodi:type="arc"
         style="opacity:1;fill:none;fill-opacity:1;stroke:#002974;stroke-width:6.9840126;stroke-linecap:round;stroke-linejoin:round;stroke-miterlimit:4;stroke-dasharray:none;stroke-dashoffset:0;stroke-opacity:1"
         id="path2860"
         sodipodi:cx="364.51242"
         sodipodi:cy="249.52905"
         sodipodi:rx="159.82468"
         sodipodi:ry="159.82468"
         d="M 524.3371,249.52905 A 159.82468,159.82468 0 1 1 204.68774,249.52905 A 159.82468,159.82468 0 1 1 524.3371,249.52905 z"
         transform="matrix(1.4790557,0,0,1.4790557,100.25083,211.36438)" />
      <g
         transform="matrix(1.8368457,1.8004341,1.8004341,-1.8368457,-590.23218,180.4023)"
         id="g2862"
         style="opacity:1;fill:#002974;fill-opacity:1">
        <path
           id="path2864"
           style="fill:#002974;fill-opacity:1;fill-rule:evenodd;stroke:none;stroke-width:1px;stroke-linecap:butt;stroke-linejoin:miter;stroke-opacity:1"
           d="M 225.7785,132.74383 C 225.78369,132.74295 225.7787,132.74312 225.7785,132.74383 C 225.75982,132.81026 225.8177,132.72445 225.7785,132.74383 C 225.25769,133.00106 225.30159,132.50817 225.49164,132.30399 C 225.97779,131.78167 226.82161,132.1681 227.18917,132.64765 C 228.11964,133.86162 227.29786,135.54178 226.15828,136.26839 C 223.74709,137.8058 220.69873,136.21715 219.44201,133.95043 C 217.08683,129.7025 219.8561,124.62599 223.86584,122.63601 C 230.74947,119.21975 238.6715,123.69208 241.63061,130.21916 C 246.38465,140.70548 239.57189,152.45582 229.58627,156.65337 C 214.35455,163.05624 197.62035,153.14527 191.88064,138.58522 C 183.48298,117.28264 197.37525,94.22949 217.80745,86.608856 C 246.69554,75.834423 277.58864,94.721249 287.46481,122.51158 M 225.7785,132.74383 C 225.78169,132.748 225.7792,132.74367 225.7785,132.74383 C 225.71109,132.75865 225.77416,132.78737 225.7785,132.74383 C 225.80514,132.47564 226.06883,132.30304 226.26965,132.36479 C 226.95168,132.57454 227.01621,133.47384 226.76642,134.024 C 226.13412,135.41671 224.26497,135.48361 223.08709,134.82086 C 220.59489,133.41857 220.55968,129.98129 221.9668,127.80472 C 224.60379,123.72574 230.38628,123.77617 234.03092,126.37514 C 240.28776,130.83689 240.076,139.93169 235.71336,145.6173 C 228.70438,154.75173 215.1301,154.27962 206.72241,147.45003 C 193.89763,137.03243 194.75397,117.60238 204.89162,105.67897 C 219.72386,88.234058 246.82276,89.379683 262.95284,104.05512 C 285.38801,124.46704 270.99714,134.32774 287.46481,122.51158"
           sodipodi:nodetypes="csssssssssssccsssssssssssc" />
        <path
           id="path2866"
           style="fill:#002974;fill-opacity:1;fill-rule:evenodd;stroke:none;stroke-width:1px;stroke-linecap:butt;stroke-linejoin:miter;stroke-opacity:1"
           d="M 289.46772,101.63923 C 289.46673,101.64012 289.46754,101.63916 289.46772,101.63923 C 289.48392,101.646 289.45767,101.64399 289.46772,101.63923 C 289.60123,101.5759 289.49594,101.50687 289.42521,101.51257 C 289.24425,101.52718 289.18821,101.75656 289.2259,101.90559 C 289.32134,102.28284 289.78633,102.38399 290.11117,102.27124 C 290.7985,102.03265 290.96253,101.17359 290.70847,100.56509 C 290.2324,99.424698 288.78227,99.176238 287.75235,99.662419 C 285.98427,100.49706 285.62663,102.78382 286.46226,104.4044 C 287.80476,107.008 291.22488,107.50271 293.6384,106.17232 C 297.31994,104.14297 297.98284,99.239302 295.98288,95.796117 C 293.05679,90.758445 286.26378,89.8929 281.51853,92.767914 C 274.80948,96.832766 273.70345,105.97858 277.69098,112.33513 M 289.46772,101.63923 C 289.46805,101.64054 289.46758,101.63935 289.46772,101.63923 C 289.48131,101.62812 289.47709,101.64523 289.46772,101.63923 C 289.40999,101.60223 289.33393,101.62762 289.31456,101.67744 C 289.24879,101.84665 289.41808,102.00145 289.56728,102.03842 C 289.94502,102.13201 290.25334,101.76955 290.30696,101.42988 C 290.4204,100.71123 289.73997,100.16178 289.08355,100.0991 C 287.85336,99.981655 286.9509,101.14362 286.89442,102.28111 C 286.79745,104.23389 288.6459,105.62688 290.46904,105.65348 C 293.39807,105.6962 295.446,102.91271 295.40985,100.15702 C 295.35469,95.95359 291.34193,93.058249 287.36258,93.19977 C 281.54044,93.406838 277.49261,98.995722 277.87588,104.53071 C 278.40897,112.22926 282.64788,110.91342 277.69098,112.33513"
           sodipodi:nodetypes="csssssssssssccsssssssssssc" />
      </g>
      <path
         sodipodi:nodetypes="csccsc"
         d="M 365.88368,-317.44203 C 398.25625,-199.26867 470.71023,-106.23187 272.25435,62.658457 C 73.798561,231.54884 120.09576,519.76704 229.3818,637.56479 C 338.66785,755.36254 364.66234,736.79792 256.23109,616.97513 C 147.79974,497.15239 96.550809,233.99519 284.76599,71.28645 C 472.98111,-91.422286 400.70692,-199.58127 366.05013,-316.58393"
         style="opacity:1;fill:#002974;fill-opacity:1;fill-rule:evenodd;stroke:none;stroke-width:1px;stroke-linecap:butt;stroke-linejoin:miter;stroke-opacity:1"
         id="path2868" />
      <path
         sodipodi:nodetypes="csssssssssssccsssssssssssc"
         d="M 655.84266,301.94854 C 655.83909,301.94886 655.84242,301.94812 655.84266,301.94854 C 655.86613,301.98897 655.81367,301.94248 655.84266,301.94854 C 656.22777,302.02914 656.11556,301.7133 655.95635,301.61155 C 655.54913,301.35125 655.06109,301.74746 654.90118,302.12417 C 654.49631,303.0778 655.31961,304.04072 656.18995,304.32444 C 658.0315,304.92476 659.76197,303.36702 660.20266,301.66774 C 661.02853,298.48319 658.35332,295.62228 655.38676,294.99563 C 650.29401,293.91979 645.85504,298.19349 645.0187,302.97504 C 643.67509,310.65701 650.13156,317.21081 657.39099,318.27417 C 668.46425,319.8962 677.76251,310.56445 679.06329,300.04389 C 680.96641,284.65145 667.95425,271.88251 653.26415,270.34175 C 632.49449,268.16333 616.19174,285.31264 614.41671,305.21031 M 655.84266,301.94854 C 655.84126,301.95183 655.84217,301.94857 655.84266,301.94854 C 655.88938,301.94687 655.85287,301.97638 655.84266,301.94854 C 655.77978,301.77716 655.57766,301.7086 655.45638,301.78307 C 655.04457,302.03603 655.15442,302.63676 655.41132,302.95533 C 656.06169,303.76177 657.29891,303.48937 657.95928,302.85538 C 659.35654,301.51397 658.798,299.25366 657.50684,298.06423 C 655.08716,295.83519 651.3032,296.84672 649.35258,299.16796 C 646.00396,303.15295 647.68174,309.08203 651.50507,312.07279 C 657.64759,316.87773 666.47053,314.27122 670.82917,308.3693 C 677.4777,299.36677 673.62833,286.76832 664.9619,280.6636 C 652.28224,271.73192 634.70302,277.06865 626.60717,289.423 C 615.3467,306.60656 625.23847,308.84365 614.41671,305.21031"
         style="fill:#002974;fill-opacity:1;fill-rule:evenodd;stroke:none;stroke-width:1px;stroke-linecap:butt;stroke-linejoin:miter;stroke-opacity:1"
         id="path2870" />
      <path
         sodipodi:nodetypes="csccssccc"
         id="path2872"
         d="M 590.93396,221.09889 C 589.66298,221.8839 591.33178,220.1716 591.12948,221.6517 C 590.92718,223.13182 591.03514,223.62225 592.04888,224.71953 C 620.484,256.23985 620.32591,305.00545 598.88093,341.6415 C 597.97576,343.18471 597.96401,345.09393 598.85013,346.64816 C 599.73623,348.20239 601.38518,349.16479 603.17427,349.17193 C 604.96334,349.17906 606.61991,348.22984 607.51839,346.68272 C 627.10899,309.506 627.7776,256.61862 596.58353,222.04001 C 594.97103,220.22014 593.00297,219.82168 590.93396,221.09889 z"
         style="opacity:1;fill:#002974;fill-opacity:1;stroke:none;stroke-width:10;stroke-linecap:round;stroke-linejoin:round;stroke-miterlimit:4;stroke-dasharray:none;stroke-dashoffset:0;stroke-opacity:1" />
    </g>
  </g>
</svg>
