<?xml version="1.0" encoding="UTF-8" standalone="no"?>
<!-- Created with Inkscape (http://www.inkscape.org/) -->
<svg
   xmlns:dc="http://purl.org/dc/elements/1.1/"
   xmlns:cc="http://creativecommons.org/ns#"
   xmlns:rdf="http://www.w3.org/1999/02/22-rdf-syntax-ns#"
   xmlns:svg="http://www.w3.org/2000/svg"
   xmlns="http://www.w3.org/2000/svg"
   xmlns:xlink="http://www.w3.org/1999/xlink"
   xmlns:sodipodi="http://sodipodi.sourceforge.net/DTD/sodipodi-0.dtd"
   xmlns:inkscape="http://www.inkscape.org/namespaces/inkscape"
   width="2048"
   height="1536"
   id="svg57249"
   sodipodi:version="0.32"
   inkscape:version="0.46"
   version="1.0"
   sodipodi:docname="2048x1536.svg"
   inkscape:output_extension="org.inkscape.output.svg.inkscape"
   inkscape:export-xdpi="45"
   inkscape:export-ydpi="45">
  <defs
     id="defs57251">
    <inkscape:perspective
       sodipodi:type="inkscape:persp3d"
       inkscape:vp_x="0 : 768 : 1"
       inkscape:vp_y="0 : 1000 : 0"
       inkscape:vp_z="2048 : 768 : 1"
       inkscape:persp3d-origin="1024 : 512 : 1"
       id="perspective5294" />
    <linearGradient
       id="linearGradient5333">
      <stop
         style="stop-color:#2c67bd;stop-opacity:1;"
         offset="0"
         id="stop5335" />
      <stop
         style="stop-color:#95b7e9;stop-opacity:0;"
         offset="1"
         id="stop5337" />
    </linearGradient>
    <linearGradient
       inkscape:collect="always"
       xlink:href="#linearGradient5333"
       id="linearGradient2876"
       gradientUnits="userSpaceOnUse"
       x1="696.16772"
       y1="345.62885"
       x2="392.72235"
       y2="549.03717" />
    <linearGradient
       id="linearGradient5341">
      <stop
         style="stop-color:#114696;stop-opacity:1;"
         offset="0"
         id="stop5343" />
      <stop
         style="stop-color:#114696;stop-opacity:0;"
         offset="1"
         id="stop5345" />
    </linearGradient>
    <linearGradient
       inkscape:collect="always"
       xlink:href="#linearGradient5341"
       id="linearGradient2874"
       gradientUnits="userSpaceOnUse"
       x1="506.48218"
       y1="394.94901"
       x2="626.01465"
       y2="550.56775" />
    <linearGradient
       inkscape:collect="always"
       xlink:href="#linearGradient5333"
       id="linearGradient2520"
       gradientUnits="userSpaceOnUse"
       x1="696.16772"
       y1="345.62885"
       x2="392.72235"
       y2="549.03717"
       gradientTransform="matrix(5.12,0,0,5.12,-1449.8393,-2083.9611)" />
    <linearGradient
       inkscape:collect="always"
       xlink:href="#linearGradient5341"
       id="linearGradient2523"
       gradientUnits="userSpaceOnUse"
       x1="506.48218"
       y1="394.94901"
       x2="626.01465"
       y2="550.56775"
       gradientTransform="matrix(5.12,0,0,5.12,-1449.8393,-2083.9611)" />
    <clipPath
       clipPathUnits="userSpaceOnUse"
       id="clipPath2525">
      <rect
         clip-path="none"
         y="-806.49493"
         x="53.65023"
         height="1536"
         width="2048"
         id="rect2527"
         style="opacity:1;fill:#ffffff;fill-opacity:1;stroke:none;stroke-width:10;stroke-linecap:round;stroke-linejoin:round;stroke-miterlimit:4;stroke-dasharray:none;stroke-dashoffset:0;stroke-opacity:1" />
    </clipPath>
    <clipPath
       clipPathUnits="userSpaceOnUse"
       id="clipPath2529">
      <rect
         clip-path="none"
         y="-806.49493"
         x="53.65023"
         height="1536"
         width="2048"
         id="rect2531"
         style="opacity:1;fill:#ffffff;fill-opacity:1;stroke:none;stroke-width:10;stroke-linecap:round;stroke-linejoin:round;stroke-miterlimit:4;stroke-dasharray:none;stroke-dashoffset:0;stroke-opacity:1" />
    </clipPath>
    <clipPath
       clipPathUnits="userSpaceOnUse"
       id="clipPath2533">
      <rect
         clip-path="none"
         y="-806.49493"
         x="53.65023"
         height="1536"
         width="2048"
         id="rect2535"
         style="opacity:1;fill:#ffffff;fill-opacity:1;stroke:none;stroke-width:10;stroke-linecap:round;stroke-linejoin:round;stroke-miterlimit:4;stroke-dasharray:none;stroke-dashoffset:0;stroke-opacity:1" />
    </clipPath>
    <clipPath
       clipPathUnits="userSpaceOnUse"
       id="clipPath2537">
      <rect
         clip-path="none"
         y="27.772112"
         x="268.95926"
         height="116.63739"
         width="155.51651"
         id="rect2539"
         style="opacity:1;fill:#ffffff;fill-opacity:1;stroke:none;stroke-width:10;stroke-linecap:round;stroke-linejoin:round;stroke-miterlimit:4;stroke-dasharray:none;stroke-dashoffset:0;stroke-opacity:1"
         transform="matrix(0.7141496,0.6999931,0.6999931,-0.7141496,0,0)" />
    </clipPath>
    <clipPath
       clipPathUnits="userSpaceOnUse"
       id="clipPath2541">
      <rect
         clip-path="none"
         y="25.78722"
         x="130.75874"
         height="202.83212"
         width="270.44281"
         id="rect2543"
         style="opacity:1;fill:#ffffff;fill-opacity:1;stroke:none;stroke-width:10;stroke-linecap:round;stroke-linejoin:round;stroke-miterlimit:4;stroke-dasharray:none;stroke-dashoffset:0;stroke-opacity:1" />
    </clipPath>
    <clipPath
       clipPathUnits="userSpaceOnUse"
       id="clipPath2545">
      <rect
         clip-path="none"
         y="-806.49493"
         x="53.65023"
         height="1536"
         width="2048"
         id="rect2547"
         style="opacity:1;fill:#ffffff;fill-opacity:1;stroke:none;stroke-width:10;stroke-linecap:round;stroke-linejoin:round;stroke-miterlimit:4;stroke-dasharray:none;stroke-dashoffset:0;stroke-opacity:1" />
    </clipPath>
    <clipPath
       clipPathUnits="userSpaceOnUse"
       id="clipPath2549">
      <rect
         clip-path="none"
         y="-806.49493"
         x="53.65023"
         height="1536"
         width="2048"
         id="rect2551"
         style="opacity:1;fill:#ffffff;fill-opacity:1;stroke:none;stroke-width:10;stroke-linecap:round;stroke-linejoin:round;stroke-miterlimit:4;stroke-dasharray:none;stroke-dashoffset:0;stroke-opacity:1" />
    </clipPath>
    <linearGradient
       inkscape:collect="always"
       xlink:href="#linearGradient5341"
       id="linearGradient2564"
       gradientUnits="userSpaceOnUse"
       gradientTransform="matrix(5.12,0,0,5.12,-1449.8393,-2083.9611)"
       x1="506.48218"
       y1="394.94901"
       x2="626.01465"
       y2="550.56775" />
    <linearGradient
       inkscape:collect="always"
       xlink:href="#linearGradient5333"
       id="linearGradient2566"
       gradientUnits="userSpaceOnUse"
       gradientTransform="matrix(5.12,0,0,5.12,-1449.8393,-2083.9611)"
       x1="696.16772"
       y1="345.62885"
       x2="392.72235"
       y2="549.03717" />
  </defs>
  <sodipodi:namedview
     id="base"
     pagecolor="#ffffff"
     bordercolor="#666666"
     borderopacity="1.0"
     gridtolerance="10000"
     guidetolerance="10"
     objecttolerance="10"
     inkscape:pageopacity="0.0"
     inkscape:pageshadow="2"
     inkscape:zoom="0.32552083"
     inkscape:cx="1024"
     inkscape:cy="768"
     inkscape:document-units="px"
     inkscape:current-layer="layer1"
     showgrid="false"
     showborder="false"
     inkscape:showpageshadow="false"
     inkscape:window-width="1360"
     inkscape:window-height="693"
     inkscape:window-x="0"
     inkscape:window-y="25"
     showguides="true"
     inkscape:guide-bbox="true" />
  <metadata
     id="metadata57254">
    <rdf:RDF>
      <cc:Work
         rdf:about="">
        <dc:format>image/svg+xml</dc:format>
        <dc:type
           rdf:resource="http://purl.org/dc/dcmitype/StillImage" />
        <cc:license
           rdf:resource="http://creativecommons.org/licenses/by-sa/3.0/" />
        <dc:title>TreeFlower's Background</dc:title>
        <dc:date>2010-04-23</dc:date>
        <dc:creator>
          <cc:Agent>
            <dc:title>Alain Reguera Delgado</dc:title>
          </cc:Agent>
        </dc:creator>
        <dc:rights>
          <cc:Agent>
            <dc:title>The CentOS Project</dc:title>
          </cc:Agent>
        </dc:rights>
        <dc:publisher>
          <cc:Agent>
            <dc:title>The CentOS Project</dc:title>
          </cc:Agent>
        </dc:publisher>
        <dc:description>Background image for 2048x1536 and related resolutions.</dc:description>
        <dc:coverage>The CentOS Project</dc:coverage>
      </cc:Work>
      <cc:License
         rdf:about="http://creativecommons.org/licenses/by-sa/3.0/">
        <cc:permits
           rdf:resource="http://creativecommons.org/ns#Reproduction" />
        <cc:permits
           rdf:resource="http://creativecommons.org/ns#Distribution" />
        <cc:requires
           rdf:resource="http://creativecommons.org/ns#Notice" />
        <cc:requires
           rdf:resource="http://creativecommons.org/ns#Attribution" />
        <cc:permits
           rdf:resource="http://creativecommons.org/ns#DerivativeWorks" />
        <cc:requires
           rdf:resource="http://creativecommons.org/ns#ShareAlike" />
      </cc:License>
    </rdf:RDF>
  </metadata>
  <g
     inkscape:label="Layer 1"
     inkscape:groupmode="layer"
     id="layer1"
     transform="translate(-53.650211,806.49493)">
    <g
       id="CENTOSARTWORK"
       inkscape:label="#g2553">
      <path
         clip-path="url(#clipPath2549)"
         sodipodi:nodetypes="cssscczz"
         style="fill:url(#linearGradient2564);fill-opacity:1;stroke:none;stroke-width:1;stroke-linejoin:round;stroke-miterlimit:4;stroke-dasharray:none;stroke-dashoffset:0;stroke-opacity:1"
         d="M 253.35645,-719.50803 C 1043.5853,-719.50803 1685.2364,-34.208012 1685.2364,810.69592 C 1685.2364,1655.5998 1043.5853,2341.6456 253.35645,2341.6459 C -536.87249,2341.6459 -1178.5234,1655.5998 -1178.5235,810.69592 C -1178.5235,-34.208012 -536.87249,-719.50778 253.35645,-719.50803 z M -140.31938,735.81992 C -127.71737,1893.6011 1376.2202,2044.5288 1376.2202,796.33975 C 1376.2202,-437.49966 -153.08021,-436.55794 -140.31938,735.81992 z"
         id="path2856" />
      <path
         clip-path="url(#clipPath2545)"
         id="path2858"
         d="M 1889.2165,-314.34144 C 1156.142,-314.34144 560.89918,280.25399 560.89918,1013.3286 C 560.89918,1746.4031 1156.142,2341.6457 1889.2165,2341.6459 C 2622.2911,2341.6459 3468.7668,1480.8138 3468.767,747.73923 C 3468.767,14.664641 2622.2911,-314.34123 1889.2165,-314.34144 z M 1968.1755,2096.5809 C 1433.642,2096.5809 330.23207,2136.7516 805.96419,920.0134 C 1284.4957,-303.88461 3192.1861,457.83126 1968.1755,2096.5809 z"
         style="fill:url(#linearGradient2566);fill-opacity:1;stroke:none;stroke-width:1;stroke-linejoin:round;stroke-miterlimit:4;stroke-dasharray:none;stroke-dashoffset:0;stroke-opacity:1"
         sodipodi:nodetypes="cssscczc" />
      <path
         clip-path="url(#clipPath2541)"
         sodipodi:type="arc"
         style="fill:none;fill-opacity:1;stroke:#002974;stroke-width:6.9840126;stroke-linecap:round;stroke-linejoin:round;stroke-miterlimit:4;stroke-dasharray:none;stroke-dashoffset:0;stroke-opacity:1"
         id="path2860"
         sodipodi:cx="364.51242"
         sodipodi:cy="249.52905"
         sodipodi:rx="159.82468"
         sodipodi:ry="159.82468"
         d="M 524.3371,249.52905 A 159.82468,159.82468 0 1 1 204.68774,249.52905 A 159.82468,159.82468 0 1 1 524.3371,249.52905 z"
         transform="matrix(7.5727652,0,0,7.5727652,-936.55505,-1001.7755)" />
      <g
         clip-path="url(#clipPath2537)"
         transform="matrix(9.40465,9.2182226,9.2182226,-9.40465,-3488.2794,-1172.2264)"
         id="g2862"
         style="fill:#002974;fill-opacity:1">
        <path
           id="path2864"
           style="fill:#002974;fill-opacity:1;fill-rule:evenodd;stroke:none;stroke-width:1px;stroke-linecap:butt;stroke-linejoin:miter;stroke-opacity:1"
           d="M 225.7785,132.74383 C 225.78369,132.74295 225.7787,132.74312 225.7785,132.74383 C 225.75982,132.81026 225.8177,132.72445 225.7785,132.74383 C 225.25769,133.00106 225.30159,132.50817 225.49164,132.30399 C 225.97779,131.78167 226.82161,132.1681 227.18917,132.64765 C 228.11964,133.86162 227.29786,135.54178 226.15828,136.26839 C 223.74709,137.8058 220.69873,136.21715 219.44201,133.95043 C 217.08683,129.7025 219.8561,124.62599 223.86584,122.63601 C 230.74947,119.21975 238.6715,123.69208 241.63061,130.21916 C 246.38465,140.70548 239.57189,152.45582 229.58627,156.65337 C 214.35455,163.05624 197.62035,153.14527 191.88064,138.58522 C 183.48298,117.28264 197.37525,94.22949 217.80745,86.608856 C 246.69554,75.834423 277.58864,94.721249 287.46481,122.51158 M 225.7785,132.74383 C 225.78169,132.748 225.7792,132.74367 225.7785,132.74383 C 225.71109,132.75865 225.77416,132.78737 225.7785,132.74383 C 225.80514,132.47564 226.06883,132.30304 226.26965,132.36479 C 226.95168,132.57454 227.01621,133.47384 226.76642,134.024 C 226.13412,135.41671 224.26497,135.48361 223.08709,134.82086 C 220.59489,133.41857 220.55968,129.98129 221.9668,127.80472 C 224.60379,123.72574 230.38628,123.77617 234.03092,126.37514 C 240.28776,130.83689 240.076,139.93169 235.71336,145.6173 C 228.70438,154.75173 215.1301,154.27962 206.72241,147.45003 C 193.89763,137.03243 194.75397,117.60238 204.89162,105.67897 C 219.72386,88.234058 246.82276,89.379683 262.95284,104.05512 C 285.38801,124.46704 270.99714,134.32774 287.46481,122.51158"
           sodipodi:nodetypes="csssssssssssccsssssssssssc" />
        <path
           id="path2866"
           style="fill:#002974;fill-opacity:1;fill-rule:evenodd;stroke:none;stroke-width:1px;stroke-linecap:butt;stroke-linejoin:miter;stroke-opacity:1"
           d="M 289.46772,101.63923 C 289.46673,101.64012 289.46754,101.63916 289.46772,101.63923 C 289.48392,101.646 289.45767,101.64399 289.46772,101.63923 C 289.60123,101.5759 289.49594,101.50687 289.42521,101.51257 C 289.24425,101.52718 289.18821,101.75656 289.2259,101.90559 C 289.32134,102.28284 289.78633,102.38399 290.11117,102.27124 C 290.7985,102.03265 290.96253,101.17359 290.70847,100.56509 C 290.2324,99.424698 288.78227,99.176238 287.75235,99.662419 C 285.98427,100.49706 285.62663,102.78382 286.46226,104.4044 C 287.80476,107.008 291.22488,107.50271 293.6384,106.17232 C 297.31994,104.14297 297.98284,99.239302 295.98288,95.796117 C 293.05679,90.758445 286.26378,89.8929 281.51853,92.767914 C 274.80948,96.832766 273.70345,105.97858 277.69098,112.33513 M 289.46772,101.63923 C 289.46805,101.64054 289.46758,101.63935 289.46772,101.63923 C 289.48131,101.62812 289.47709,101.64523 289.46772,101.63923 C 289.40999,101.60223 289.33393,101.62762 289.31456,101.67744 C 289.24879,101.84665 289.41808,102.00145 289.56728,102.03842 C 289.94502,102.13201 290.25334,101.76955 290.30696,101.42988 C 290.4204,100.71123 289.73997,100.16178 289.08355,100.0991 C 287.85336,99.981655 286.9509,101.14362 286.89442,102.28111 C 286.79745,104.23389 288.6459,105.62688 290.46904,105.65348 C 293.39807,105.6962 295.446,102.91271 295.40985,100.15702 C 295.35469,95.95359 291.34193,93.058249 287.36258,93.19977 C 281.54044,93.406838 277.49261,98.995722 277.87588,104.53071 C 278.40897,112.22926 282.64788,110.91342 277.69098,112.33513"
           sodipodi:nodetypes="csssssssssssccsssssssssssc" />
      </g>
      <path
         clip-path="url(#clipPath2533)"
         sodipodi:nodetypes="csccsc"
         d="M 1407.0338,-3721.1894 C 1572.7813,-3116.1418 1943.7457,-2639.7934 927.65159,-1775.0749 C -88.44195,-910.35613 148.59961,565.32105 708.14414,1168.4455 C 1267.6887,1771.57 1400.7805,1676.5192 845.6125,1063.0265 C 290.44399,449.53404 28.049519,-897.83082 991.71119,-1730.8995 C 1955.3726,-2563.9683 1585.3288,-3117.7423 1407.886,-3716.7959"
         style="fill:#002974;fill-opacity:1;fill-rule:evenodd;stroke:none;stroke-width:1px;stroke-linecap:butt;stroke-linejoin:miter;stroke-opacity:1"
         id="path2868" />
      <path
         clip-path="url(#clipPath2529)"
         sodipodi:nodetypes="csssssssssssccsssssssssssc"
         d="M 1908.0751,-537.98458 C 1908.0568,-537.98294 1908.0739,-537.98673 1908.0751,-537.98458 C 1908.1953,-537.77757 1907.9267,-538.0156 1908.0751,-537.98458 C 1910.0469,-537.5719 1909.4724,-539.189 1908.6572,-539.70996 C 1906.5722,-541.0427 1904.0735,-539.0141 1903.2547,-537.08535 C 1901.1818,-532.20276 1905.3971,-527.27261 1909.8532,-525.81997 C 1919.282,-522.74633 1928.142,-530.72196 1930.3983,-539.42227 C 1934.6268,-555.72717 1920.9297,-570.37503 1905.7409,-573.58347 C 1879.666,-579.09178 1856.9385,-557.21043 1852.6564,-532.7289 C 1845.7772,-493.39721 1878.8343,-459.84175 1916.0026,-454.39735 C 1972.6977,-446.09256 2020.3048,-493.87112 2026.9647,-547.73638 C 2036.7087,-626.54568 1970.0865,-691.92265 1894.8731,-699.81134 C 1788.5325,-710.96485 1705.0624,-623.16038 1695.9743,-521.28431 M 1908.0751,-537.98458 C 1908.068,-537.96773 1908.0726,-537.98442 1908.0751,-537.98458 C 1908.3143,-537.99313 1908.1274,-537.84203 1908.0751,-537.98458 C 1907.7532,-538.86204 1906.7183,-539.21307 1906.0974,-538.83178 C 1903.9889,-537.53663 1904.5513,-534.46089 1905.8667,-532.82981 C 1909.1966,-528.70084 1915.5311,-530.09553 1918.9122,-533.34155 C 1926.0662,-540.20957 1923.2065,-551.78236 1916.5957,-557.87224 C 1904.207,-569.28493 1884.8331,-564.10589 1874.8459,-552.22114 C 1857.701,-531.818 1866.2912,-501.46111 1885.8667,-486.14842 C 1917.3164,-461.54712 1962.4898,-474.89245 1984.8061,-505.11028 C 2018.8465,-551.20324 1999.1377,-615.7073 1954.7656,-646.96347 C 1889.8458,-692.69367 1799.8402,-665.36961 1758.3894,-602.11534 C 1700.7358,-514.13551 1751.3817,-502.68161 1695.9743,-521.28431"
         style="fill:#002974;fill-opacity:1;fill-rule:evenodd;stroke:none;stroke-width:1px;stroke-linecap:butt;stroke-linejoin:miter;stroke-opacity:1"
         id="path2870" />
      <path
         clip-path="url(#clipPath2525)"
         sodipodi:nodetypes="csccssccc"
         id="path2872"
         d="M 1575.7426,-951.93478 C 1569.2352,-947.91553 1577.7794,-956.68251 1576.7436,-949.1044 C 1575.7079,-941.52618 1576.2606,-939.01518 1581.451,-933.39711 C 1727.0388,-772.01307 1726.2294,-522.3332 1616.4311,-334.75662 C 1611.7966,-326.85538 1611.7364,-317.08018 1616.2734,-309.12252 C 1620.8102,-301.16486 1629.2528,-296.23738 1638.413,-296.20082 C 1647.573,-296.16431 1656.0546,-301.02432 1660.6549,-308.94557 C 1760.9587,-499.29038 1764.382,-770.07377 1604.6684,-947.11625 C 1596.4124,-956.43398 1586.3359,-958.4741 1575.7426,-951.93478 z"
         style="fill:#002974;fill-opacity:1;stroke:none;stroke-width:10;stroke-linecap:round;stroke-linejoin:round;stroke-miterlimit:4;stroke-dasharray:none;stroke-dashoffset:0;stroke-opacity:1" />
    </g>
  </g>
</svg>
