<?xml version="1.0" encoding="UTF-8" standalone="no"?>
<!-- Created with Inkscape (http://www.inkscape.org/) -->
<svg
   xmlns:dc="http://purl.org/dc/elements/1.1/"
   xmlns:cc="http://creativecommons.org/ns#"
   xmlns:rdf="http://www.w3.org/1999/02/22-rdf-syntax-ns#"
   xmlns:svg="http://www.w3.org/2000/svg"
   xmlns="http://www.w3.org/2000/svg"
   xmlns:xlink="http://www.w3.org/1999/xlink"
   xmlns:sodipodi="http://sodipodi.sourceforge.net/DTD/sodipodi-0.dtd"
   xmlns:inkscape="http://www.inkscape.org/namespaces/inkscape"
   width="510"
   height="300"
   id="svg57249"
   sodipodi:version="0.32"
   inkscape:version="0.46"
   version="1.0"
   sodipodi:docname="500x300.svg"
   inkscape:output_extension="org.inkscape.output.svg.inkscape"
   inkscape:export-xdpi="45"
   inkscape:export-ydpi="45">
  <defs
     id="defs57251">
    <inkscape:perspective
       sodipodi:type="inkscape:persp3d"
       inkscape:vp_x="0 : 239.99998 : 1"
       inkscape:vp_y="0 : 1000 : 0"
       inkscape:vp_z="640.00006 : 239.99998 : 1"
       inkscape:persp3d-origin="320.00003 : 159.99999 : 1"
       id="perspective2561" />
    <linearGradient
       id="linearGradient5333">
      <stop
         style="stop-color:#2c67bd;stop-opacity:1;"
         offset="0"
         id="stop5335" />
      <stop
         style="stop-color:#95b7e9;stop-opacity:0;"
         offset="1"
         id="stop5337" />
    </linearGradient>
    <linearGradient
       inkscape:collect="always"
       xlink:href="#linearGradient5333"
       id="linearGradient2876"
       gradientUnits="userSpaceOnUse"
       x1="696.16772"
       y1="345.62885"
       x2="392.72235"
       y2="549.03717" />
    <linearGradient
       id="linearGradient5341">
      <stop
         style="stop-color:#114696;stop-opacity:1;"
         offset="0"
         id="stop5343" />
      <stop
         style="stop-color:#114696;stop-opacity:0;"
         offset="1"
         id="stop5345" />
    </linearGradient>
    <linearGradient
       inkscape:collect="always"
       xlink:href="#linearGradient5341"
       id="linearGradient2874"
       gradientUnits="userSpaceOnUse"
       x1="506.48218"
       y1="394.94901"
       x2="626.01465"
       y2="550.56775" />
    <clipPath
       clipPathUnits="userSpaceOnUse"
       id="clipPath51507">
      <rect
         style="opacity:1;fill:#020202;fill-opacity:1;stroke:none;stroke-width:3;stroke-linecap:round;stroke-linejoin:round;stroke-miterlimit:4;stroke-dasharray:none;stroke-dashoffset:0;stroke-opacity:1"
         id="rect51509"
         width="1091.3774"
         height="818.53308"
         x="663.66113"
         y="-520.2395"
         inkscape:export-xdpi="45"
         inkscape:export-ydpi="45"
         inkscape:label="#rect2941" />
    </clipPath>
    <linearGradient
       inkscape:collect="always"
       xlink:href="#linearGradient5333"
       id="linearGradient3325"
       gradientUnits="userSpaceOnUse"
       x1="696.16772"
       y1="345.62885"
       x2="392.72235"
       y2="549.03717"
       gradientTransform="matrix(1.25,0,0,1.25,-313.41258,42.623689)" />
    <linearGradient
       inkscape:collect="always"
       xlink:href="#linearGradient5341"
       id="linearGradient3328"
       gradientUnits="userSpaceOnUse"
       x1="506.48218"
       y1="394.94901"
       x2="626.01465"
       y2="550.56775"
       gradientTransform="matrix(1.25,0,0,1.25,-313.41258,42.623689)" />
    <clipPath
       clipPathUnits="userSpaceOnUse"
       id="clipPath2419">
      <rect
         style="opacity:1;fill:#ffffff;fill-opacity:1;stroke:none;stroke-width:10;stroke-linecap:round;stroke-linejoin:round;stroke-miterlimit:4;stroke-dasharray:none;stroke-dashoffset:0;stroke-opacity:1"
         id="rect2421"
         width="510"
         height="300"
         x="43.650608"
         y="368.41104" />
    </clipPath>
  </defs>
  <sodipodi:namedview
     id="base"
     pagecolor="#ffffff"
     bordercolor="#666666"
     borderopacity="1.0"
     gridtolerance="10000"
     guidetolerance="10"
     objecttolerance="10"
     inkscape:pageopacity="0.0"
     inkscape:pageshadow="2"
     inkscape:zoom="1.6666667"
     inkscape:cx="255"
     inkscape:cy="150"
     inkscape:document-units="px"
     inkscape:current-layer="layer1"
     showgrid="false"
     showborder="false"
     inkscape:showpageshadow="false"
     inkscape:window-width="1360"
     inkscape:window-height="693"
     inkscape:window-x="0"
     inkscape:window-y="25"
     showguides="true"
     inkscape:guide-bbox="true">
    <sodipodi:guide
       orientation="0,1"
       position="1477.515,-1422.1082"
       id="guide4274" />
  </sodipodi:namedview>
  <metadata
     id="metadata57254">
    <rdf:RDF>
      <cc:Work
         rdf:about="">
        <dc:format>image/svg+xml</dc:format>
        <dc:type
           rdf:resource="http://purl.org/dc/dcmitype/StillImage" />
        <cc:license
           rdf:resource="http://creativecommons.org/licenses/by-sa/3.0/" />
        <dc:title>TreeFlower's Background</dc:title>
        <dc:date>2010-04-23</dc:date>
        <dc:creator>
          <cc:Agent>
            <dc:title>Alain Reguera Delgado</dc:title>
          </cc:Agent>
        </dc:creator>
        <dc:rights>
          <cc:Agent>
            <dc:title>The CentOS Project</dc:title>
          </cc:Agent>
        </dc:rights>
        <dc:publisher>
          <cc:Agent>
            <dc:title>The CentOS Project</dc:title>
          </cc:Agent>
        </dc:publisher>
        <dc:coverage>The CentOS Project</dc:coverage>
        <dc:description>Background image for 640x480 and related resolutions.</dc:description>
      </cc:Work>
      <cc:License
         rdf:about="http://creativecommons.org/licenses/by-sa/3.0/">
        <cc:permits
           rdf:resource="http://creativecommons.org/ns#Reproduction" />
        <cc:permits
           rdf:resource="http://creativecommons.org/ns#Distribution" />
        <cc:requires
           rdf:resource="http://creativecommons.org/ns#Notice" />
        <cc:requires
           rdf:resource="http://creativecommons.org/ns#Attribution" />
        <cc:permits
           rdf:resource="http://creativecommons.org/ns#DerivativeWorks" />
        <cc:requires
           rdf:resource="http://creativecommons.org/ns#ShareAlike" />
      </cc:License>
    </rdf:RDF>
  </metadata>
  <g
     inkscape:label="Layer 1"
     inkscape:groupmode="layer"
     id="layer1"
     transform="translate(-53.650295,-368.41104)">
    <g
       id="CENTOSARTWORK"
       clip-path="url(#clipPath2419)"
       inkscape:label="#g3409"
       transform="translate(9.999687,0)">
      <g
         clip-path="url(#clipPath51507)"
         transform="matrix(0.5864148,0,0,0.5864148,-335.53041,554.58131)"
         inkscape:tile-y0="-76.624296"
         inkscape:tile-x0="1645.2618"
         id="use45668">
        <rect
           style="opacity:1;fill:#ffffff;fill-opacity:0.07272728;stroke:#ffffff;stroke-width:0.15748949;stroke-linecap:round;stroke-linejoin:round;stroke-miterlimit:4;stroke-dasharray:none;stroke-dashoffset:0;stroke-opacity:1"
           id="rect49883"
           width="48.650917"
           height="41.700768"
           x="1557.3521"
           y="-844.91278"
           inkscape:tile-cx="1528.0272"
           inkscape:tile-cy="-17.567467"
           inkscape:tile-w="48.650917"
           inkscape:tile-h="41.700768"
           inkscape:tile-x0="1503.7017"
           inkscape:tile-y0="-38.417851" />
      </g>
      <g
         id="g64231"
         transform="matrix(0.2227285,0,0,0.2227285,267.36258,554.47638)">
        <g
           transform="matrix(0.8999236,0,0,0.8999236,1474.2224,281.1279)"
           id="g64233" />
      </g>
      <path
         sodipodi:nodetypes="cssscczz"
         style="fill:url(#linearGradient3328);fill-opacity:1;stroke:none;stroke-width:1;stroke-linejoin:round;stroke-miterlimit:4;stroke-dasharray:none;stroke-dashoffset:0;stroke-opacity:1"
         d="M 102.40669,375.74211 C 295.33367,375.74211 451.98677,543.05169 451.98677,749.32706 C 451.98677,955.60243 295.33367,1123.0941 102.40669,1123.0941 C -90.520292,1123.0941 -247.17334,955.60243 -247.17338,749.32706 C -247.17338,543.05169 -90.520292,375.74218 102.40669,375.74211 z M 6.2944325,731.04679 C 9.371095,1013.7082 376.54335,1050.5558 376.54335,745.82214 C 376.54335,444.59181 3.178995,444.82173 6.2944325,731.04679 z"
         id="path2856" />
      <path
         id="path2858"
         d="M 501.7866,474.65974 C 322.81332,474.65974 177.49037,619.82464 177.49037,798.79793 C 177.49037,977.7712 322.81332,1123.0941 501.7866,1123.0941 C 680.75987,1123.0941 887.41899,912.93005 887.41904,733.95678 C 887.41904,554.98349 680.75987,474.65979 501.7866,474.65974 z M 521.06369,1063.2638 C 390.56234,1063.2638 121.17516,1073.0711 237.3207,776.0159 C 354.14967,477.21268 819.89441,663.17846 521.06369,1063.2638 z"
         style="fill:url(#linearGradient3325);fill-opacity:1;stroke:none;stroke-width:1;stroke-linejoin:round;stroke-miterlimit:4;stroke-dasharray:none;stroke-dashoffset:0;stroke-opacity:1"
         sodipodi:nodetypes="cssscczc" />
      <path
         sodipodi:type="arc"
         style="fill:none;fill-opacity:1;stroke:#002974;stroke-width:6.9840126;stroke-linecap:round;stroke-linejoin:round;stroke-miterlimit:4;stroke-dasharray:none;stroke-dashoffset:0;stroke-opacity:1"
         id="path2860"
         sodipodi:cx="364.51242"
         sodipodi:cy="249.52905"
         sodipodi:rx="159.82468"
         sodipodi:ry="159.82468"
         d="M 524.3371,249.52905 A 159.82468,159.82468 0 1 1 204.68774,249.52905 A 159.82468,159.82468 0 1 1 524.3371,249.52905 z"
         transform="matrix(1.8488196,0,0,1.8488196,-188.09904,306.82916)" />
      <g
         transform="matrix(2.2960571,2.2505426,2.2505426,-2.2960571,-810.49269,265.21516)"
         id="g2862"
         style="fill:#002974;fill-opacity:1">
        <path
           id="path2864"
           style="fill:#002974;fill-opacity:1;fill-rule:evenodd;stroke:none;stroke-width:1px;stroke-linecap:butt;stroke-linejoin:miter;stroke-opacity:1"
           d="M 225.7785,132.74383 C 225.78369,132.74295 225.7787,132.74312 225.7785,132.74383 C 225.75982,132.81026 225.8177,132.72445 225.7785,132.74383 C 225.25769,133.00106 225.30159,132.50817 225.49164,132.30399 C 225.97779,131.78167 226.82161,132.1681 227.18917,132.64765 C 228.11964,133.86162 227.29786,135.54178 226.15828,136.26839 C 223.74709,137.8058 220.69873,136.21715 219.44201,133.95043 C 217.08683,129.7025 219.8561,124.62599 223.86584,122.63601 C 230.74947,119.21975 238.6715,123.69208 241.63061,130.21916 C 246.38465,140.70548 239.57189,152.45582 229.58627,156.65337 C 214.35455,163.05624 197.62035,153.14527 191.88064,138.58522 C 183.48298,117.28264 197.37525,94.22949 217.80745,86.608856 C 246.69554,75.834423 277.58864,94.721249 287.46481,122.51158 M 225.7785,132.74383 C 225.78169,132.748 225.7792,132.74367 225.7785,132.74383 C 225.71109,132.75865 225.77416,132.78737 225.7785,132.74383 C 225.80514,132.47564 226.06883,132.30304 226.26965,132.36479 C 226.95168,132.57454 227.01621,133.47384 226.76642,134.024 C 226.13412,135.41671 224.26497,135.48361 223.08709,134.82086 C 220.59489,133.41857 220.55968,129.98129 221.9668,127.80472 C 224.60379,123.72574 230.38628,123.77617 234.03092,126.37514 C 240.28776,130.83689 240.076,139.93169 235.71336,145.6173 C 228.70438,154.75173 215.1301,154.27962 206.72241,147.45003 C 193.89763,137.03243 194.75397,117.60238 204.89162,105.67897 C 219.72386,88.234058 246.82276,89.379683 262.95284,104.05512 C 285.38801,124.46704 270.99714,134.32774 287.46481,122.51158"
           sodipodi:nodetypes="csssssssssssccsssssssssssc" />
        <path
           id="path2866"
           style="fill:#002974;fill-opacity:1;fill-rule:evenodd;stroke:none;stroke-width:1px;stroke-linecap:butt;stroke-linejoin:miter;stroke-opacity:1"
           d="M 289.46772,101.63923 C 289.46673,101.64012 289.46754,101.63916 289.46772,101.63923 C 289.48392,101.646 289.45767,101.64399 289.46772,101.63923 C 289.60123,101.5759 289.49594,101.50687 289.42521,101.51257 C 289.24425,101.52718 289.18821,101.75656 289.2259,101.90559 C 289.32134,102.28284 289.78633,102.38399 290.11117,102.27124 C 290.7985,102.03265 290.96253,101.17359 290.70847,100.56509 C 290.2324,99.424698 288.78227,99.176238 287.75235,99.662419 C 285.98427,100.49706 285.62663,102.78382 286.46226,104.4044 C 287.80476,107.008 291.22488,107.50271 293.6384,106.17232 C 297.31994,104.14297 297.98284,99.239302 295.98288,95.796117 C 293.05679,90.758445 286.26378,89.8929 281.51853,92.767914 C 274.80948,96.832766 273.70345,105.97858 277.69098,112.33513 M 289.46772,101.63923 C 289.46805,101.64054 289.46758,101.63935 289.46772,101.63923 C 289.48131,101.62812 289.47709,101.64523 289.46772,101.63923 C 289.40999,101.60223 289.33393,101.62762 289.31456,101.67744 C 289.24879,101.84665 289.41808,102.00145 289.56728,102.03842 C 289.94502,102.13201 290.25334,101.76955 290.30696,101.42988 C 290.4204,100.71123 289.73997,100.16178 289.08355,100.0991 C 287.85336,99.981655 286.9509,101.14362 286.89442,102.28111 C 286.79745,104.23389 288.6459,105.62688 290.46904,105.65348 C 293.39807,105.6962 295.446,102.91271 295.40985,100.15702 C 295.35469,95.95359 291.34193,93.058249 287.36258,93.19977 C 281.54044,93.406838 277.49261,98.995722 277.87588,104.53071 C 278.40897,112.22926 282.64788,110.91342 277.69098,112.33513"
           sodipodi:nodetypes="csssssssssssccsssssssssssc" />
      </g>
      <path
         sodipodi:nodetypes="csccsc"
         d="M 384.65213,-357.09025 C 425.11784,-209.37355 515.68532,-93.077549 267.61547,118.03537 C 19.545758,329.14834 77.417233,689.42109 214.02478,836.66828 C 350.63235,983.91546 383.12546,960.70969 247.58639,810.9312 C 112.04721,661.15278 47.986058,332.20628 283.25502,128.82036 C 518.52392,-74.565561 428.18118,-209.7643 384.86019,-356.01762"
         style="fill:#002974;fill-opacity:1;fill-rule:evenodd;stroke:none;stroke-width:1px;stroke-linecap:butt;stroke-linejoin:miter;stroke-opacity:1"
         id="path2868" />
      <path
         sodipodi:nodetypes="csssssssssssccsssssssssssc"
         d="M 506.39075,420.05936 C 506.38628,420.05976 506.39044,420.05884 506.39075,420.05936 C 506.42008,420.1099 506.35451,420.05179 506.39075,420.05936 C 506.87213,420.16011 506.73187,419.76531 506.53286,419.63813 C 506.02383,419.31275 505.41378,419.80801 505.21389,420.2789 C 504.70781,421.47094 505.73693,422.67459 506.82486,423.02924 C 509.1268,423.77964 511.28988,421.83246 511.84075,419.70836 C 512.87308,415.72768 509.52907,412.15154 505.82087,411.36823 C 499.45493,410.02343 493.90622,415.36555 492.86079,421.34249 C 491.18128,430.94495 499.25187,439.1372 508.32616,440.4664 C 522.16773,442.49394 533.79056,430.82925 535.41653,417.67855 C 537.79543,398.438 521.53023,382.47683 503.16761,380.55088 C 477.20553,377.82785 456.82709,399.26449 454.60831,424.13658 M 506.39075,420.05936 C 506.389,420.06348 506.39013,420.0594 506.39075,420.05936 C 506.44914,420.05728 506.40351,420.09416 506.39075,420.05936 C 506.31214,419.84514 506.0595,419.75944 505.90789,419.85253 C 505.39313,420.16873 505.53044,420.91964 505.85157,421.31785 C 506.66453,422.3259 508.21106,421.9854 509.03652,421.19291 C 510.7831,419.51615 510.08492,416.69076 508.47097,415.20398 C 505.44637,412.41768 500.71642,413.68209 498.27814,416.58364 C 494.09237,421.56488 496.18959,428.97623 500.96876,432.71468 C 508.64691,438.72085 519.67558,435.46271 525.12388,428.08531 C 533.43455,416.83215 528.62283,401.08409 517.7898,393.45319 C 501.94022,382.28859 479.9662,388.9595 469.84638,404.40244 C 455.7708,425.88189 468.13551,428.67825 454.60831,424.13658"
         style="fill:#002974;fill-opacity:1;fill-rule:evenodd;stroke:none;stroke-width:1px;stroke-linecap:butt;stroke-linejoin:miter;stroke-opacity:1"
         id="path2870" />
      <path
         sodipodi:nodetypes="csccssccc"
         id="path2872"
         d="M 425.25487,318.9973 C 423.66614,319.97856 425.75214,317.83819 425.49927,319.68831 C 425.2464,321.53846 425.38134,322.1515 426.64852,323.5231 C 462.19242,362.9235 461.99481,423.8805 435.18858,469.67556 C 434.05712,471.60458 434.04243,473.9911 435.15008,475.93389 C 436.25771,477.87668 438.31889,479.07968 440.55526,479.0886 C 442.7916,479.09751 444.86231,477.91099 445.98541,475.97709 C 470.47366,429.50619 471.30942,363.39696 432.31683,320.1737 C 430.30121,317.89886 427.84113,317.40079 425.25487,318.9973 z"
         style="fill:#002974;fill-opacity:1;stroke:none;stroke-width:10;stroke-linecap:round;stroke-linejoin:round;stroke-miterlimit:4;stroke-dasharray:none;stroke-dashoffset:0;stroke-opacity:1" />
    </g>
  </g>
</svg>
