<?xml version="1.0" encoding="UTF-8" standalone="no"?>
<!-- Created with Inkscape (http://www.inkscape.org/) -->
<svg
   xmlns:dc="http://purl.org/dc/elements/1.1/"
   xmlns:cc="http://creativecommons.org/ns#"
   xmlns:rdf="http://www.w3.org/1999/02/22-rdf-syntax-ns#"
   xmlns:svg="http://www.w3.org/2000/svg"
   xmlns="http://www.w3.org/2000/svg"
   xmlns:xlink="http://www.w3.org/1999/xlink"
   xmlns:sodipodi="http://sodipodi.sourceforge.net/DTD/sodipodi-0.dtd"
   xmlns:inkscape="http://www.inkscape.org/namespaces/inkscape"
   width="566.92914"
   height="212.59842"
   id="svg3106"
   sodipodi:version="0.32"
   inkscape:version="0.46"
   sodipodi:docname="a.svg"
   inkscape:output_extension="org.inkscape.output.svg.inkscape"
   version="1.0">
  <defs
     id="defs3108">
    <inkscape:perspective
       sodipodi:type="inkscape:persp3d"
       inkscape:vp_x="0 : 97.440948 : 1"
       inkscape:vp_y="0 : 1000 : 0"
       inkscape:vp_z="549.21252 : 97.440948 : 1"
       inkscape:persp3d-origin="274.60626 : 64.960632 : 1"
       id="perspective121" />
    <clipPath
       clipPathUnits="userSpaceOnUse"
       id="clipPath4429">
      <g
         transform="matrix(0.9947658,0,0,1,1.7860989,0)"
         id="g4431">
        <path
           sodipodi:nodetypes="ccccccccc"
           style="fill:#efa724;fill-opacity:1;fill-rule:evenodd;stroke:none;stroke-width:30;stroke-linecap:round;stroke-linejoin:round;marker:none;marker-start:none;marker-mid:none;marker-end:none;stroke-miterlimit:4;stroke-dasharray:none;stroke-dashoffset:0;stroke-opacity:1;visibility:visible;display:inline;overflow:visible"
           d="M 322.54143,2800.9375 L 318.10638,2806.6673 L 313.67143,2800.9375 L 313.67143,2757.7946 L 294.73171,2757.7946 L 318.10638,2732.2579 L 341.23763,2757.7946 L 322.54143,2757.7946 L 322.54143,2800.9375 z"
           id="path4433" />
      </g>
    </clipPath>
  </defs>
  <sodipodi:namedview
     id="base"
     pagecolor="#ffffff"
     bordercolor="#666666"
     borderopacity="1.0"
     gridtolerance="10000"
     guidetolerance="10"
     objecttolerance="10"
     inkscape:pageopacity="0.0"
     inkscape:pageshadow="2"
     inkscape:zoom="1"
     inkscape:cx="255.46457"
     inkscape:cy="106.29922"
     inkscape:document-units="mm"
     inkscape:current-layer="layer1"
     showgrid="false"
     inkscape:window-width="1360"
     inkscape:window-height="693"
     inkscape:window-x="0"
     inkscape:window-y="25"
     units="mm"
     showborder="false"
     inkscape:showpageshadow="false"
     showguides="false"
     inkscape:guide-bbox="true">
    <inkscape:grid
       type="xygrid"
       id="grid4233"
       visible="true"
       enabled="true"
       units="mm"
       spacingx="5mm"
       spacingy="5mm"
       color="#3886c7"
       opacity="0.1254902"
       empcolor="#3886c7"
       empopacity="0.24313725" />
    <sodipodi:guide
       orientation="1,0"
       position="293.43969,126.06585"
       id="guide13880" />
    <sodipodi:guide
       orientation="0,1"
       position="293.66918,130.80862"
       id="guide13882" />
  </sodipodi:namedview>
  <metadata
     id="CENTOSMETADATA">
    <rdf:RDF>
      <cc:Work
         rdf:about="">
        <dc:format>image/svg+xml</dc:format>
        <dc:type
           rdf:resource="http://purl.org/dc/dcmitype/StillImage" />
        <cc:license
           rdf:resource="http://creativecommons.org/licenses/by-sa/3.0/" />
        <dc:title>a.svg</dc:title>
        <dc:date>2011-04-18</dc:date>
        <dc:creator>
          <cc:Agent>
            <dc:title>The CentOS Project</dc:title>
          </cc:Agent>
        </dc:creator>
        <dc:rights>
          <cc:Agent>
            <dc:title>The CentOS Project</dc:title>
          </cc:Agent>
        </dc:rights>
        <dc:publisher>
          <cc:Agent>
            <dc:title>The CentOS Project</dc:title>
          </cc:Agent>
        </dc:publisher>
        <dc:identifier>http://www.centos.org/</dc:identifier>
        <dc:source>http://www.centos.org/</dc:source>
        <dc:relation>http://www.centos.org/</dc:relation>
        <dc:language>en_US</dc:language>
        <dc:subject>
          <rdf:Bag>
            <rdf:li>Identity</rdf:li>
            <rdf:li>Models</rdf:li>
            <rdf:li>Manual</rdf:li>
            <rdf:li>Brands</rdf:li>
            <rdf:li>Logos</rdf:li>
          </rdf:Bag>
        </dc:subject>
        <dc:coverage>The CentOS Project</dc:coverage>
        <dc:description />
        <dc:contributor />
      </cc:Work>
      <cc:License
         rdf:about="http://creativecommons.org/licenses/by-sa/3.0/">
        <cc:permits
           rdf:resource="http://creativecommons.org/ns#Reproduction" />
        <cc:permits
           rdf:resource="http://creativecommons.org/ns#Distribution" />
        <cc:requires
           rdf:resource="http://creativecommons.org/ns#Notice" />
        <cc:requires
           rdf:resource="http://creativecommons.org/ns#Attribution" />
        <cc:permits
           rdf:resource="http://creativecommons.org/ns#DerivativeWorks" />
        <cc:requires
           rdf:resource="http://creativecommons.org/ns#ShareAlike" />
      </cc:License>
    </rdf:RDF>
  </metadata>
  <g
     inkscape:label="Layer 1"
     inkscape:groupmode="layer"
     id="layer1"
     transform="translate(106.76199,-892.66229)">
    <rect
       style="fill:#888888;fill-opacity:1;stroke:none;stroke-width:1;stroke-linecap:round;stroke-linejoin:miter;stroke-miterlimit:4;stroke-dasharray:none;stroke-dashoffset:0;stroke-opacity:0.08910893;display:inline"
       id="rect12678"
       width="566.92914"
       height="212.59842"
       x="-106.76377"
       y="892.66144"
       clip-path="none"
       inkscape:label="#rect12678" />
    <g
       id="g3874"
       transform="matrix(0.9980644,0,0,0.998805,-0.7082206,19.06649)">
      <path
         sodipodi:nodetypes="cc"
         id="path3685"
         d="M -88.050085,874.89418 L -88.050085,1087.2457"
         style="fill:none;fill-rule:evenodd;stroke:#ffffff;stroke-width:0.5;stroke-linecap:butt;stroke-linejoin:miter;stroke-miterlimit:4;stroke-dasharray:none;stroke-opacity:0.11764706;display:inline" />
      <path
         id="path2481"
         d="M -106.01662,1069.8349 L 461.26712,1069.8349"
         style="fill:none;fill-rule:evenodd;stroke:#ffffff;stroke-width:0.48901582;stroke-linecap:square;stroke-linejoin:miter;stroke-miterlimit:4;stroke-dasharray:none;stroke-opacity:0.11764706;display:inline"
         sodipodi:nodetypes="cc" />
      <use
         x="0"
         y="0"
         xlink:href="#path2481"
         id="use4470"
         transform="translate(0,-17.71734)"
         width="426.01144"
         height="177.16536" />
      <use
         x="0"
         y="0"
         xlink:href="#use4470"
         id="use4472"
         transform="translate(0,-17.716535)"
         width="426.01144"
         height="177.16536" />
      <use
         x="0"
         y="0"
         xlink:href="#use4472"
         id="use4474"
         transform="translate(0,-17.716535)"
         width="426.01144"
         height="177.16536" />
      <use
         x="0"
         y="0"
         xlink:href="#use4474"
         id="use4476"
         transform="translate(0,-17.716536)"
         width="426.01144"
         height="177.16536" />
      <use
         x="0"
         y="0"
         xlink:href="#use4476"
         id="use4478"
         transform="translate(0,-17.716535)"
         width="426.01144"
         height="177.16536" />
      <use
         x="0"
         y="0"
         xlink:href="#use4478"
         id="use4480"
         transform="translate(0,-17.716536)"
         width="426.01144"
         height="177.16536" />
      <use
         x="0"
         y="0"
         xlink:href="#use4480"
         id="use4482"
         transform="translate(0,-17.716535)"
         width="426.01144"
         height="177.16536" />
      <use
         x="0"
         y="0"
         xlink:href="#use4482"
         id="use4484"
         transform="translate(0,-17.716536)"
         width="426.01144"
         height="177.16536" />
      <use
         x="0"
         y="0"
         xlink:href="#path3685"
         id="use4486"
         transform="translate(17.722311,-1.741442e-3)"
         width="426.01144"
         height="177.16536" />
      <use
         x="0"
         y="0"
         xlink:href="#use4486"
         id="use4488"
         transform="translate(17.719393,0)"
         width="426.01144"
         height="177.16536" />
      <use
         x="0"
         y="0"
         xlink:href="#use4488"
         id="use4490"
         transform="translate(17.719394,0)"
         width="426.01144"
         height="177.16536" />
      <use
         x="0"
         y="0"
         xlink:href="#use4490"
         id="use4492"
         transform="translate(17.719394,0)"
         width="426.01144"
         height="177.16536" />
      <use
         x="0"
         y="0"
         xlink:href="#use4492"
         id="use4494"
         transform="translate(17.719393,0)"
         width="426.01144"
         height="177.16536" />
      <use
         x="0"
         y="0"
         xlink:href="#use4494"
         id="use4496"
         transform="translate(17.719394,0)"
         width="426.01144"
         height="177.16536" />
      <use
         x="0"
         y="0"
         xlink:href="#use4496"
         id="use4498"
         transform="translate(17.719393,0)"
         width="426.01144"
         height="177.16536" />
      <use
         x="0"
         y="0"
         xlink:href="#use4498"
         id="use4500"
         transform="translate(17.719394,0)"
         width="426.01144"
         height="177.16536" />
      <use
         x="0"
         y="0"
         xlink:href="#use4500"
         id="use4502"
         transform="translate(17.719393,0)"
         width="426.01144"
         height="177.16536" />
      <use
         x="0"
         y="0"
         xlink:href="#use4502"
         id="use4504"
         transform="translate(17.719394,0)"
         width="426.01144"
         height="177.16536" />
      <use
         x="0"
         y="0"
         xlink:href="#use4504"
         id="use4506"
         transform="translate(17.719394,0)"
         width="426.01144"
         height="177.16536" />
      <use
         x="0"
         y="0"
         xlink:href="#use4506"
         id="use4508"
         transform="translate(17.719393,0)"
         width="426.01144"
         height="177.16536" />
      <use
         x="0"
         y="0"
         xlink:href="#use4508"
         id="use4510"
         transform="translate(17.719394,0)"
         width="426.01144"
         height="177.16536" />
      <use
         x="0"
         y="0"
         xlink:href="#use4510"
         id="use4512"
         transform="translate(17.719393,0)"
         width="426.01144"
         height="177.16536" />
      <use
         x="0"
         y="0"
         xlink:href="#use4512"
         id="use4514"
         transform="translate(17.719394,0)"
         width="426.01144"
         height="177.16536" />
      <use
         x="0"
         y="0"
         xlink:href="#use4514"
         id="use4516"
         transform="translate(17.719393,0)"
         width="426.01144"
         height="177.16536" />
      <use
         x="0"
         y="0"
         xlink:href="#use4516"
         id="use4518"
         transform="translate(17.719394,0)"
         width="426.01144"
         height="177.16536" />
      <use
         x="0"
         y="0"
         xlink:href="#use4518"
         id="use4520"
         transform="translate(17.719394,0)"
         width="426.01144"
         height="177.16536" />
      <use
         x="0"
         y="0"
         xlink:href="#use4520"
         id="use4522"
         transform="translate(17.719393,0)"
         width="426.01144"
         height="177.16536" />
      <use
         x="0"
         y="0"
         xlink:href="#use4522"
         id="use4524"
         transform="translate(17.719394,0)"
         width="426.01144"
         height="177.16536" />
      <use
         x="0"
         y="0"
         xlink:href="#use4524"
         id="use4526"
         transform="translate(17.719393,0)"
         width="426.01144"
         height="177.16536" />
      <use
         x="0"
         y="0"
         xlink:href="#use4526"
         id="use4528"
         transform="translate(35.438787,0)"
         width="426.01144"
         height="177.16536" />
      <use
         x="0"
         y="0"
         xlink:href="#use4528"
         id="use4530"
         transform="translate(-17.719393,0)"
         width="426.01144"
         height="177.16536" />
      <use
         x="0"
         y="0"
         xlink:href="#use4528"
         id="use4560"
         transform="translate(17.719397,0)"
         width="442.91339"
         height="177.16536" />
      <use
         x="0"
         y="0"
         xlink:href="#use4560"
         id="use4562"
         transform="translate(17.719394,0)"
         width="442.91339"
         height="177.16536" />
      <use
         x="0"
         y="0"
         xlink:href="#use4562"
         id="use4564"
         transform="translate(17.719393,0)"
         width="442.91339"
         height="177.16536" />
      <use
         x="0"
         y="0"
         xlink:href="#use4564"
         id="use4566"
         transform="translate(17.719394,0)"
         width="442.91339"
         height="177.16536" />
      <use
         x="0"
         y="0"
         xlink:href="#use4566"
         id="use4568"
         transform="translate(17.719393,0)"
         width="442.91339"
         height="177.16536" />
      <use
         x="0"
         y="0"
         xlink:href="#use4484"
         id="use4580"
         transform="translate(0,-17.764268)"
         width="531.49603"
         height="177.16536" />
      <use
         x="0"
         y="0"
         xlink:href="#use4568"
         id="use3263"
         transform="translate(17.719391,0)"
         width="531.49603"
         height="194.8819" />
      <use
         x="0"
         y="0"
         xlink:href="#use4580"
         id="use4034"
         transform="translate(0,-17.970733)"
         width="549.21252"
         height="194.8819" />
      <use
         height="194.8819"
         width="531.49603"
         transform="translate(35.68605,0)"
         id="use2610"
         xlink:href="#use4568"
         y="0"
         x="0" />
      <use
         x="0"
         y="0"
         xlink:href="#use4568"
         id="use2612"
         transform="translate(53.42139,0)"
         width="531.49603"
         height="194.8819" />
    </g>
    <path
       style="fill:#000000;fill-opacity:1;fill-rule:nonzero;stroke:none;stroke-width:1.00000095;stroke-linecap:round;stroke-linejoin:round;marker:none;marker-start:none;marker-mid:none;marker-end:none;stroke-miterlimit:4;stroke-dashoffset:0;stroke-opacity:1;visibility:visible;display:inline;overflow:visible;enable-background:accumulate"
       d="M -106.76376,1087.546 C -106.76376,1087.546 460.16537,1087.546 460.16537,1087.546 C 460.16537,1087.546 460.16537,1105.2625 460.16537,1105.2625 C 460.16537,1105.2625 -106.76376,1105.2625 -106.76376,1105.2625 C -106.76376,1105.2625 -106.76376,1087.546 -106.76376,1087.546 z"
       id="rect4586"
       sodipodi:nodetypes="ccccc" />
    <rect
       y="909.87885"
       x="-88.545464"
       height="124.01575"
       width="442.91339"
       id="rect5058"
       style="fill:#efa724;fill-opacity:0.1372549;stroke:#efa724;stroke-width:1;stroke-linecap:round;stroke-linejoin:miter;stroke-miterlimit:4;stroke-dasharray:none;stroke-opacity:1" />
    <rect
       style="fill:#cc0000;fill-opacity:0.1372549;stroke:#cc0000;stroke-width:1;stroke-linecap:round;stroke-linejoin:miter;stroke-miterlimit:4;stroke-dasharray:none;stroke-opacity:1"
       id="rect5037"
       width="265.37427"
       height="52.511665"
       x="70.89772"
       y="945.95551" />
    <path
       style="fill:none;fill-rule:evenodd;stroke:#ffffff;stroke-width:1.20612359px;stroke-linecap:butt;stroke-linejoin:miter;stroke-opacity:1"
       d="M 407.33779,1024.9655 L 441.28423,1024.9655"
       id="path4532" />
    <path
       id="path4534"
       d="M 407.33779,919.87579 L 441.28423,919.87579"
       style="fill:none;fill-rule:evenodd;stroke:#ffffff;stroke-width:1.20612359px;stroke-linecap:butt;stroke-linejoin:miter;stroke-opacity:1" />
    <path
       style="fill:none;fill-rule:evenodd;stroke:#ffffff;stroke-width:0.99953687px;stroke-linecap:butt;stroke-linejoin:miter;stroke-opacity:1"
       d="M 389.15898,946.82714 L 389.15898,998.44447"
       id="path4536"
       sodipodi:nodetypes="cc" />
    <path
       style="fill:none;fill-rule:evenodd;stroke:#ffffff;stroke-width:1.20612359px;stroke-linecap:butt;stroke-linejoin:miter;stroke-opacity:1"
       d="M 372.18575,946.44928 L 406.13219,946.44928"
       id="path4538" />
    <path
       id="path4540"
       d="M 372.18575,998.39117 L 406.13219,998.39117"
       style="fill:none;fill-rule:evenodd;stroke:#ffffff;stroke-width:1.20612359px;stroke-linecap:butt;stroke-linejoin:miter;stroke-opacity:1" />
    <text
       xml:space="preserve"
       style="font-size:11.99443913px;font-style:normal;font-variant:normal;font-weight:normal;font-stretch:normal;text-indent:0;text-align:start;text-decoration:none;line-height:125%;letter-spacing:normal;word-spacing:normal;text-transform:none;direction:ltr;block-progression:tb;writing-mode:lr-tb;text-anchor:start;fill:#ffffff;fill-opacity:1;fill-rule:nonzero;stroke:none;stroke-width:1px;stroke-linecap:butt;stroke-linejoin:miter;marker:none;marker-start:none;marker-mid:none;marker-end:none;stroke-miterlimit:4;stroke-dasharray:none;stroke-dashoffset:0;stroke-opacity:1;visibility:visible;display:inline;overflow:visible;enable-background:accumulate;font-family:DejaVu LGC Sans;-inkscape-font-specification:DejaVu LGC Sans"
       x="398.80682"
       y="976.14508"
       id="text4542"
       sodipodi:linespacing="125%"
       transform="scale(0.9995638,1.0004363)"><tspan
         sodipodi:role="line"
         id="tspan4544"
         x="398.80682"
         y="976.14508">B</tspan></text>
    <path
       sodipodi:nodetypes="cc"
       id="path4546"
       d="M 424.31101,919.95781 L 424.31101,1025.3139"
       style="fill:none;fill-rule:evenodd;stroke:#ffffff;stroke-width:0.99953687px;stroke-linecap:butt;stroke-linejoin:miter;stroke-opacity:1" />
    <text
       sodipodi:linespacing="125%"
       id="text4548"
       y="976.14508"
       x="433.97418"
       style="font-size:11.99443913px;font-style:normal;font-variant:normal;font-weight:normal;font-stretch:normal;text-indent:0;text-align:start;text-decoration:none;line-height:125%;letter-spacing:normal;word-spacing:normal;text-transform:none;direction:ltr;block-progression:tb;writing-mode:lr-tb;text-anchor:start;fill:#ffffff;fill-opacity:1;fill-rule:nonzero;stroke:none;stroke-width:1px;stroke-linecap:butt;stroke-linejoin:miter;marker:none;marker-start:none;marker-mid:none;marker-end:none;stroke-miterlimit:4;stroke-dasharray:none;stroke-dashoffset:0;stroke-opacity:1;visibility:visible;display:inline;overflow:visible;enable-background:accumulate;font-family:DejaVu LGC Sans;-inkscape-font-specification:DejaVu LGC Sans"
       xml:space="preserve"
       transform="scale(0.9995638,1.0004363)"><tspan
         y="976.14508"
         x="433.97418"
         id="tspan4550"
         sodipodi:role="line">C</tspan></text>
    <g
       id="g3418"
       transform="matrix(0.9553266,0,0,0.9553266,29.368483,51.480649)"
       style="fill:#eeeeee">
      <text
         transform="scale(0.9995648,1.0004353)"
         sodipodi:linespacing="125%"
         id="text4552"
         y="1097.5979"
         x="305.09778"
         style="font-size:11.99445248px;font-style:normal;font-variant:normal;font-weight:normal;font-stretch:normal;text-indent:0;text-align:start;text-decoration:none;line-height:125%;letter-spacing:normal;word-spacing:normal;text-transform:none;direction:ltr;block-progression:tb;writing-mode:lr-tb;text-anchor:start;fill:#eeeeee;fill-opacity:1;fill-rule:nonzero;stroke:none;stroke-width:1px;stroke-linecap:butt;stroke-linejoin:miter;marker:none;marker-start:none;marker-mid:none;marker-end:none;stroke-miterlimit:4;stroke-dasharray:none;stroke-dashoffset:0;stroke-opacity:1;visibility:visible;display:inline;overflow:visible;enable-background:accumulate;font-family:DejaVu LGC Sans;-inkscape-font-specification:DejaVu LGC Sans"
         xml:space="preserve"><tspan
           y="1097.5979"
           x="305.09778"
           id="tspan4554"
           sodipodi:role="line">B = 15mm</tspan></text>
      <text
         transform="scale(0.9995648,1.0004353)"
         sodipodi:linespacing="125%"
         id="text4556"
         y="1097.677"
         x="386.01337"
         style="font-size:11.99445248px;font-style:normal;font-variant:normal;font-weight:normal;font-stretch:normal;text-indent:0;text-align:start;text-decoration:none;line-height:125%;letter-spacing:normal;word-spacing:normal;text-transform:none;direction:ltr;block-progression:tb;writing-mode:lr-tb;text-anchor:start;fill:#eeeeee;fill-opacity:1;fill-rule:nonzero;stroke:none;stroke-width:1px;stroke-linecap:butt;stroke-linejoin:miter;marker:none;marker-start:none;marker-mid:none;marker-end:none;stroke-miterlimit:4;stroke-dasharray:none;stroke-dashoffset:0;stroke-opacity:1;visibility:visible;display:inline;overflow:visible;enable-background:accumulate;font-family:DejaVu LGC Sans;-inkscape-font-specification:DejaVu LGC Sans"
         xml:space="preserve"><tspan
           y="1097.677"
           x="386.01337"
           id="tspan4558"
           sodipodi:role="line">C = B * 2</tspan></text>
      <text
         transform="scale(0.9995648,1.0004353)"
         xml:space="preserve"
         style="font-size:11.99445248px;font-style:normal;font-variant:normal;font-weight:normal;font-stretch:normal;text-indent:0;text-align:start;text-decoration:none;line-height:125%;letter-spacing:normal;word-spacing:normal;text-transform:none;direction:ltr;block-progression:tb;writing-mode:lr-tb;text-anchor:start;fill:#eeeeee;fill-opacity:1;fill-rule:nonzero;stroke:none;stroke-width:1px;stroke-linecap:butt;stroke-linejoin:miter;marker:none;marker-start:none;marker-mid:none;marker-end:none;stroke-miterlimit:4;stroke-dasharray:none;stroke-dashoffset:0;stroke-opacity:1;visibility:visible;display:inline;overflow:visible;enable-background:accumulate;font-family:DejaVu LGC Sans;-inkscape-font-specification:DejaVu LGC Sans"
         x="232.34633"
         y="1097.5979"
         id="text4582"
         sodipodi:linespacing="125%"><tspan
           sodipodi:role="line"
           id="tspan4584"
           x="232.34633"
           y="1097.5979">A = 5mm</tspan></text>
    </g>
    <path
       style="font-size:72.67242432px;font-style:normal;font-variant:normal;font-weight:200;font-stretch:normal;text-align:start;line-height:125%;writing-mode:lr-tb;text-anchor:start;fill:#ffffff;fill-opacity:1;stroke:none;stroke-width:1;stroke-linecap:butt;stroke-linejoin:miter;stroke-miterlimit:4;stroke-dasharray:none;stroke-opacity:1;display:inline;font-family:Denmark;-inkscape-font-specification:Denmark Ultra-Light"
       clip-path="none"
       d="M 112.88562,998.08237 L 90.635514,998.08237 C 88.37928,998.08237 86.14707,997.76426 83.938877,997.12805 C 79.666459,995.80668 76.28214,992.77242 73.785911,988.02525 C 71.529693,983.71858 70.401587,978.70225 70.401589,972.97628 C 70.401587,967.44613 71.409682,962.55215 73.425877,958.29436 C 75.634079,953.59619 78.778376,950.39064 82.858774,948.6777 C 86.027058,947.35638 89.267363,946.6957 92.5797,946.69565 L 112.74161,946.69565 L 112.74161,956.53253 L 91.787624,956.53253 C 88.37928,956.53257 85.907046,958.41675 84.370918,962.18507 C 83.170789,965.12149 82.570732,968.96325 82.570747,973.71038 C 82.570732,977.72346 83.338805,981.12477 84.874966,983.91432 C 86.651117,987.19329 89.147352,988.83277 92.363678,988.83276 L 112.88562,988.75936 L 112.88562,998.08237 M 149.94215,998.3026 L 132.37248,998.3026 C 128.10006,998.3026 124.37971,996.4429 121.21142,992.72347 C 118.09112,988.95512 116.53097,984.62396 116.53097,979.72997 C 116.53097,974.39556 118.23513,969.79523 121.64346,965.92896 C 125.09977,962.01381 128.94014,960.05623 133.16455,960.0562 L 149.87015,960.0562 L 149.87015,967.91102 L 137.62898,967.91102 C 136.09281,967.91105 134.77269,968.05787 133.6686,968.35148 C 132.61248,968.5962 131.62839,969.11008 130.71632,969.89308 C 129.03615,971.3613 128.19606,973.34336 128.19608,975.83926 L 149.79813,975.83926 L 149.79813,983.7675 L 128.26809,983.7675 C 128.26808,984.94206 128.38809,985.94533 128.62812,986.77729 C 128.91614,987.56034 129.46819,988.36784 130.28428,989.19981 C 131.10034,989.98285 132.06044,990.52119 133.16455,990.81482 C 134.31664,991.05952 135.70877,991.18187 137.34096,991.18187 L 149.94215,991.18187 L 149.94215,998.3026 M 191.00406,998.08237 L 180.9951,998.08237 L 180.9951,973.0497 C 180.99507,972.4135 180.85106,971.8507 180.56307,971.36127 C 180.27501,970.82297 179.86697,970.3091 179.33894,969.81967 C 178.37883,968.98773 177.27472,968.57174 176.02663,968.57171 L 166.2337,968.57171 L 166.2337,998.08237 L 156.22475,998.08237 L 156.22475,960.0562 L 175.37857,960.0562 C 178.78686,960.05623 181.2591,960.25199 182.79527,960.64347 C 185.19547,961.23078 187.11565,962.52768 188.55583,964.53418 C 190.18794,966.88331 191.00402,969.45266 191.00406,972.24219 L 191.00406,998.08237 M 219.75055,967.98443 L 210.02962,967.98443 L 210.02962,985.23569 C 210.0296,986.80178 210.55765,988.09867 211.61377,989.1264 C 212.81387,990.15414 214.39801,990.66801 216.36622,990.668 L 219.3185,990.668 L 219.3185,998.08237 L 210.02962,998.08237 C 207.24535,998.08237 204.86912,997.05464 202.90094,994.99917 C 201.74882,993.77568 201.00476,992.42984 200.66873,990.96164 C 200.33269,989.49346 200.16468,987.7561 200.16469,985.74956 L 200.16469,967.98443 L 193.82808,967.98443 L 193.82808,960.0562 L 200.16469,960.0562 L 200.16469,946.69565 L 210.02962,946.69565 L 210.02962,960.0562 L 219.75055,960.0562 L 219.75055,967.98443 M 278.51151,972.3156 C 278.51145,982.29932 275.79919,989.44452 270.37473,993.7512 C 265.95826,997.22593 259.52566,998.96329 251.07689,998.96329 C 241.71599,998.96329 234.80333,996.95676 230.33892,992.9437 C 225.44245,988.53913 222.99422,981.46735 222.99423,971.72832 C 222.99422,963.75118 225.17843,957.53584 229.54685,953.08228 C 234.29928,948.2373 241.40395,945.81478 250.86087,945.81473 C 261.27783,945.81478 268.62252,948.13942 272.89498,952.78864 C 276.63928,956.89962 278.51145,963.4086 278.51151,972.3156 M 265.69428,972.02196 C 265.69424,966.9812 264.51813,962.96814 262.16595,959.98278 C 259.52566,956.65492 255.61329,954.99097 250.42883,954.99093 C 245.34033,954.99097 241.49997,956.77727 238.90774,960.34983 C 236.74751,963.33519 235.66742,967.22589 235.66743,972.02196 C 235.66742,977.55217 236.5315,981.63864 238.25968,984.28137 C 240.65988,987.95186 245.10031,989.7871 251.58095,989.78709 C 257.05343,989.7871 260.89379,988.0008 263.10204,984.42818 C 264.83016,981.63864 265.69424,977.50323 265.69428,972.02196 M 336.14961,982.15249 C 336.14955,986.65495 334.68541,990.44778 331.75719,993.53097 C 328.82887,996.61419 325.10852,998.15579 320.59613,998.15579 L 284.95274,998.08237 L 284.95274,988.83276 L 314.33154,988.83276 C 316.29969,988.83277 317.95584,988.36784 319.30001,987.43798 C 320.83612,986.36131 321.60419,984.89312 321.60423,983.03341 C 321.60419,978.67779 318.5799,976.49997 312.53136,976.49995 L 297.69795,976.49995 C 293.42553,976.49997 289.68118,975.15413 286.46489,972.46242 C 283.24858,969.77076 281.64042,966.34498 281.64042,962.18507 C 281.64042,957.58478 283.20057,953.86536 286.32087,951.02681 C 289.48916,948.13942 293.64155,946.6957 298.77805,946.69565 L 332.8373,946.69565 L 332.8373,955.5048 L 302.81044,955.5048 C 301.46629,955.50484 300.09816,956.09212 298.70605,957.26663 C 297.3619,958.39228 296.68984,959.73812 296.68986,961.30416 C 296.68984,963.06602 297.3379,964.55868 298.63404,965.78215 C 299.97815,966.95673 301.5863,967.544 303.4585,967.54397 L 319.80406,967.54397 C 324.89249,967.544 328.87686,968.88984 331.75719,971.5815 C 334.68541,974.22427 336.14955,977.74793 336.14961,982.15249"
       id="text5083" />
    <rect
       style="fill:#cc0000;fill-opacity:0.1372549;stroke:#cc0000;stroke-width:1;stroke-linecap:round;stroke-linejoin:miter;stroke-miterlimit:4;stroke-dasharray:none;stroke-opacity:1"
       id="rect2491"
       width="105.31837"
       height="105.41029"
       x="-70.830933"
       y="919.71344" />
    <g
       id="g3273"
       transform="matrix(0.9991009,0,0,0.999973,-123.12673,-17.198274)">
      <path
         id="use3265"
         d="M 34.713495,1086.4538 L 34.713495,1052.4777"
         style="fill:none;fill-rule:evenodd;stroke:#ffffff;stroke-width:1.20528269;stroke-linecap:square;stroke-linejoin:miter;stroke-miterlimit:4;stroke-dasharray:none;stroke-opacity:1" />
      <path
         style="fill:none;fill-rule:evenodd;stroke:#ffffff;stroke-width:1.20528269;stroke-linecap:square;stroke-linejoin:miter;stroke-miterlimit:4;stroke-dasharray:none;stroke-opacity:1"
         d="M 52.273861,1086.4538 L 52.273861,1052.4777"
         id="use3267" />
      <path
         id="use3269"
         d="M 52.158255,1069.4658 L 34.713495,1069.4658"
         style="fill:none;fill-rule:evenodd;stroke:#ffffff;stroke-width:1.20612359px;stroke-linecap:butt;stroke-linejoin:miter;stroke-opacity:1"
         sodipodi:nodetypes="cc" />
      <text
         xml:space="preserve"
         style="font-size:11.99444103px;font-style:normal;font-variant:normal;font-weight:normal;font-stretch:normal;text-indent:0;text-align:start;text-decoration:none;line-height:125%;letter-spacing:normal;word-spacing:normal;text-transform:none;direction:ltr;block-progression:tb;writing-mode:lr-tb;text-anchor:start;fill:#ffffff;fill-opacity:1;fill-rule:nonzero;stroke:none;stroke-width:1px;stroke-linecap:butt;stroke-linejoin:miter;marker:none;marker-start:none;marker-mid:none;marker-end:none;stroke-miterlimit:4;stroke-dasharray:none;stroke-dashoffset:0;stroke-opacity:1;visibility:visible;display:inline;overflow:visible;enable-background:accumulate;font-family:DejaVu LGC Sans;-inkscape-font-specification:DejaVu LGC Sans"
         x="39.860928"
         y="1086.583"
         id="use3271"
         sodipodi:linespacing="125%"
         transform="scale(0.9995638,1.0004363)"><tspan
           sodipodi:role="line"
           id="tspan2514"
           x="39.860928"
           y="1086.583">A</tspan></text>
    </g>
    <g
       id="g3664"
       transform="matrix(0.6690278,0,0,0.6690408,-2.8647776,297.28141)">
      <g
         id="g12802"
         transform="matrix(0,-1,1,0,-1934.5199,1337.4805)">
        <g
           transform="translate(16.279512,-899.16723)"
           id="g12804">
          <g
             id="g12806"
             transform="matrix(1.0666663,0,0,1,-26.935596,-4.1328125e-5)">
            <path
               id="path12808"
               d="M 323.36653,2798.1614 L 317.96037,2803.9619 L 312.55421,2798.1614 L 312.55421,2757.3353 L 294.54088,2757.3353 L 317.96037,2732.4374 L 340.98524,2757.3353 L 323.36654,2757.3353 L 323.36653,2798.1614 z"
               style="fill:#932279;fill-opacity:1;fill-rule:evenodd;stroke:none;stroke-width:30;stroke-linecap:round;stroke-linejoin:round;marker:none;marker-start:none;marker-mid:none;marker-end:none;stroke-miterlimit:4;stroke-dasharray:none;stroke-dashoffset:0;stroke-opacity:1;visibility:visible;display:inline;overflow:visible"
               sodipodi:nodetypes="ccccccccc" />
          </g>
          <g
             transform="matrix(1.0722788,0,0,1,-28.850792,-4.1328125e-5)"
             id="g12812"
             clip-path="url(#clipPath4429)" />
        </g>
      </g>
      <g
         transform="translate(-351.30671,-902.55818)"
         id="g12768">
        <g
           id="g12770"
           transform="translate(16.279512,-899.16723)">
          <g
             transform="matrix(1.0666663,0,0,1,-26.935596,-4.1328125e-5)"
             id="g12772">
            <path
               sodipodi:nodetypes="ccccccccc"
               style="fill:#efa724;fill-opacity:1;fill-rule:evenodd;stroke:none;stroke-width:30;stroke-linecap:round;stroke-linejoin:round;marker:none;marker-start:none;marker-mid:none;marker-end:none;stroke-miterlimit:4;stroke-dasharray:none;stroke-dashoffset:0;stroke-opacity:1;visibility:visible;display:inline;overflow:visible"
               d="M 323.36653,2798.1614 L 317.96037,2803.9619 L 312.55421,2798.1614 L 312.55421,2757.3353 L 294.54088,2757.3353 L 317.96037,2732.4374 L 340.98524,2757.3353 L 323.36654,2757.3353 L 323.36653,2798.1614 z"
               id="path12774" />
          </g>
          <g
             clip-path="url(#clipPath4429)"
             id="g12778"
             transform="matrix(1.0722788,0,0,1,-28.850792,-4.1328125e-5)" />
        </g>
      </g>
      <g
         id="g12780"
         transform="matrix(0,1,-1,0,2787.8992,696.93451)">
        <g
           transform="matrix(1.0666663,0,0,1,-26.935596,-4.1328125e-5)"
           id="g12782">
          <path
             sodipodi:nodetypes="ccccccccc"
             style="fill:#262577;fill-opacity:1;fill-rule:evenodd;stroke:none;stroke-width:30;stroke-linecap:round;stroke-linejoin:round;marker:none;marker-start:none;marker-mid:none;marker-end:none;stroke-miterlimit:4;stroke-dasharray:none;stroke-dashoffset:0;stroke-opacity:1;visibility:visible;display:inline;overflow:visible"
             d="M 323.36653,2798.1614 L 317.96037,2803.9619 L 312.55421,2798.1614 L 312.55421,2757.3353 L 294.54088,2757.3353 L 317.96037,2732.4374 L 340.98524,2757.3353 L 323.36654,2757.3353 L 323.36653,2798.1614 z"
             id="path12784" />
        </g>
        <g
           clip-path="url(#clipPath4429)"
           id="g12788"
           transform="matrix(1.0722788,0,0,1,-28.850792,-4.1328125e-5)" />
      </g>
      <g
         transform="matrix(-1,0,0,-1,305.51863,2920.6937)"
         id="g12790">
        <g
           id="g12792"
           transform="translate(16.279512,-899.16723)">
          <g
             transform="matrix(1.0666663,0,0,1,-26.935596,-4.1328125e-5)"
             id="g12794">
            <path
               sodipodi:nodetypes="ccccccccc"
               style="fill:#9ccd2a;fill-opacity:1;fill-rule:evenodd;stroke:none;stroke-width:30;stroke-linecap:round;stroke-linejoin:round;marker:none;marker-start:none;marker-mid:none;marker-end:none;stroke-miterlimit:4;stroke-dasharray:none;stroke-dashoffset:0;stroke-opacity:1;visibility:visible;display:inline;overflow:visible"
               d="M 323.36653,2798.1614 L 317.96037,2803.9619 L 312.55421,2798.1614 L 312.55421,2757.3353 L 294.54088,2757.3353 L 317.96037,2732.4374 L 340.98524,2757.3353 L 323.36654,2757.3353 L 323.36653,2798.1614 z"
               id="path12796" />
          </g>
          <g
             clip-path="url(#clipPath4429)"
             id="g12800"
             transform="matrix(1.0722788,0,0,1,-28.850792,-4.1328125e-5)" />
        </g>
      </g>
      <g
         transform="translate(-749.79982,-1331.6428)"
         id="g12742">
        <rect
           style="fill:#9ccd2a;fill-opacity:1;stroke:#ffffff;stroke-width:3.54330707;stroke-linecap:butt;stroke-linejoin:miter;stroke-miterlimit:4;stroke-dasharray:none;stroke-dashoffset:0;stroke-opacity:1"
           id="rect12744"
           width="49.606449"
           height="49.606449"
           x="671.98438"
           y="2285.7893" />
        <rect
           y="2285.7893"
           x="732.22076"
           height="49.606449"
           width="49.606449"
           id="rect12746"
           style="fill:#932279;fill-opacity:1;stroke:#ffffff;stroke-width:3.54330707;stroke-linecap:butt;stroke-linejoin:miter;stroke-miterlimit:4;stroke-dasharray:none;stroke-dashoffset:0;stroke-opacity:1" />
        <rect
           style="fill:#efa724;fill-opacity:1;stroke:#ffffff;stroke-width:3.54330707;stroke-linecap:butt;stroke-linejoin:miter;stroke-miterlimit:4;stroke-dasharray:none;stroke-dashoffset:0;stroke-opacity:1"
           id="rect12748"
           width="49.606449"
           height="49.606449"
           x="732.22076"
           y="2346.0256" />
        <rect
           y="2346.0256"
           x="671.98438"
           height="49.606449"
           width="49.606449"
           id="rect12750"
           style="fill:#262577;fill-opacity:1;stroke:#ffffff;stroke-width:3.54330707;stroke-linecap:butt;stroke-linejoin:miter;stroke-miterlimit:4;stroke-dasharray:none;stroke-dashoffset:0;stroke-opacity:1" />
      </g>
      <rect
         y="642.40875"
         x="-784.62878"
         height="49.606449"
         width="49.606449"
         id="rect12760"
         style="fill:none;fill-opacity:1;stroke:#ffffff;stroke-width:3.54330707;stroke-linecap:butt;stroke-linejoin:miter;stroke-miterlimit:4;stroke-dasharray:none;stroke-dashoffset:0;stroke-opacity:1"
         transform="matrix(0.7071068,-0.7071068,0.7071068,0.7071068,0,0)" />
      <rect
         style="fill:none;fill-opacity:1;stroke:#ffffff;stroke-width:3.54330707;stroke-linecap:butt;stroke-linejoin:miter;stroke-miterlimit:4;stroke-dasharray:none;stroke-dashoffset:0;stroke-opacity:1"
         id="rect12762"
         width="49.606449"
         height="49.606449"
         x="-724.39233"
         y="642.40875"
         transform="matrix(0.7071068,-0.7071068,0.7071068,0.7071068,0,0)" />
      <rect
         y="702.64508"
         x="-724.39233"
         height="49.606449"
         width="49.606449"
         id="rect12764"
         style="fill:none;fill-opacity:1;stroke:#ffffff;stroke-width:3.54330707;stroke-linecap:butt;stroke-linejoin:miter;stroke-miterlimit:4;stroke-dasharray:none;stroke-dashoffset:0;stroke-opacity:1"
         transform="matrix(0.7071068,-0.7071068,0.7071068,0.7071068,0,0)" />
      <rect
         style="fill:none;fill-opacity:1;stroke:#ffffff;stroke-width:3.54330707;stroke-linecap:butt;stroke-linejoin:miter;stroke-miterlimit:4;stroke-dasharray:none;stroke-dashoffset:0;stroke-opacity:1"
         id="rect12766"
         width="49.606449"
         height="49.606449"
         x="-784.62878"
         y="702.64508"
         transform="matrix(0.7071068,-0.7071068,0.7071068,0.7071068,0,0)" />
    </g>
    <rect
       style="fill:none;fill-opacity:1;stroke:#000000;stroke-width:1;stroke-linecap:round;stroke-linejoin:miter;stroke-miterlimit:4;stroke-dasharray:none;stroke-dashoffset:0;stroke-opacity:1;display:inline"
       id="CENTOSARTWORK"
       width="565.92914"
       height="211.59842"
       x="-106.26199"
       y="893.16229"
       clip-path="none"
       inkscape:label="#rect12678" />
    <g
       transform="translate(300.09533,-17.228033)"
       id="use4036">
      <path
         id="path2498"
         d="M 35.762008,1086.4538 L 35.762008,1052.4777"
         style="fill:none;fill-rule:evenodd;stroke:#ffffff;stroke-width:1.20472443;stroke-linecap:square;stroke-linejoin:miter;stroke-miterlimit:4;stroke-dasharray:none;stroke-opacity:1" />
      <path
         style="fill:none;fill-rule:evenodd;stroke:#ffffff;stroke-width:1.20472443;stroke-linecap:square;stroke-linejoin:miter;stroke-miterlimit:4;stroke-dasharray:none;stroke-opacity:1"
         d="M 53.597583,1086.4538 L 53.597583,1052.4777"
         id="path2500" />
      <path
         id="path2502"
         d="M 53.907709,1069.4658 L 35.45187,1069.4658"
         style="fill:none;fill-rule:evenodd;stroke:#ffffff;stroke-width:1.20612359px;stroke-linecap:butt;stroke-linejoin:miter;stroke-opacity:1"
         sodipodi:nodetypes="cc" />
      <text
         xml:space="preserve"
         style="font-size:11.99444103px;font-style:normal;font-variant:normal;font-weight:normal;font-stretch:normal;text-indent:0;text-align:start;text-decoration:none;line-height:125%;letter-spacing:normal;word-spacing:normal;text-transform:none;direction:ltr;block-progression:tb;writing-mode:lr-tb;text-anchor:start;fill:#ffffff;fill-opacity:1;fill-rule:nonzero;stroke:none;stroke-width:1px;stroke-linecap:butt;stroke-linejoin:miter;marker:none;marker-start:none;marker-mid:none;marker-end:none;stroke-miterlimit:4;stroke-dasharray:none;stroke-dashoffset:0;stroke-opacity:1;visibility:visible;display:inline;overflow:visible;enable-background:accumulate;font-family:DejaVu LGC Sans;-inkscape-font-specification:DejaVu LGC Sans"
         x="40.599625"
         y="1086.583"
         id="text2504"
         sodipodi:linespacing="125%"
         transform="scale(0.9995638,1.0004363)"><tspan
           sodipodi:role="line"
           id="tspan2506"
           x="40.599625"
           y="1086.583">A</tspan></text>
    </g>
    <path
       id="path2518"
       d="M 35.337761,1069.2262 L 35.337761,1035.251"
       style="fill:none;fill-rule:evenodd;stroke:#ffffff;stroke-width:1.20472443;stroke-linecap:square;stroke-linejoin:miter;stroke-miterlimit:4;stroke-dasharray:none;stroke-opacity:1" />
    <path
       style="fill:none;fill-rule:evenodd;stroke:#ffffff;stroke-width:1.20472443;stroke-linecap:square;stroke-linejoin:miter;stroke-miterlimit:4;stroke-dasharray:none;stroke-opacity:1"
       d="M 53.038363,1069.2262 L 53.038363,1035.251"
       id="path2520" />
    <path
       id="path2522"
       d="M 70.420868,1052.2387 L 35.975811,1052.2387"
       style="fill:none;fill-rule:evenodd;stroke:#ffffff;stroke-width:1.20556498px;stroke-linecap:butt;stroke-linejoin:miter;stroke-opacity:1"
       sodipodi:nodetypes="cc" />
    <text
       xml:space="preserve"
       style="font-size:11.98888588px;font-style:normal;font-variant:normal;font-weight:normal;font-stretch:normal;text-indent:0;text-align:start;text-decoration:none;line-height:125%;letter-spacing:normal;word-spacing:normal;text-transform:none;direction:ltr;block-progression:tb;writing-mode:lr-tb;text-anchor:start;fill:#ffffff;fill-opacity:1;fill-rule:nonzero;stroke:none;stroke-width:1px;stroke-linecap:butt;stroke-linejoin:miter;marker:none;marker-start:none;marker-mid:none;marker-end:none;stroke-miterlimit:4;stroke-dasharray:none;stroke-dashoffset:0;stroke-opacity:1;visibility:visible;display:inline;overflow:visible;enable-background:accumulate;font-family:DejaVu LGC Sans;-inkscape-font-specification:DejaVu LGC Sans"
       x="40.128872"
       y="1068.896"
       id="text2524"
       sodipodi:linespacing="125%"
       transform="scale(0.9991279,1.0008729)"><tspan
         sodipodi:role="line"
         id="tspan2526"
         x="40.128872"
         y="1068.896">A</tspan></text>
    <path
       id="path2532"
       d="M 70.73897,1069.2262 L 70.73897,1035.251"
       style="fill:none;fill-rule:evenodd;stroke:#ffffff;stroke-width:1.20472443;stroke-linecap:square;stroke-linejoin:miter;stroke-miterlimit:4;stroke-dasharray:none;stroke-opacity:1" />
    <text
       transform="scale(0.9991279,1.0008729)"
       sodipodi:linespacing="125%"
       id="text2536"
       y="1068.896"
       x="57.844933"
       style="font-size:11.98888588px;font-style:normal;font-variant:normal;font-weight:normal;font-stretch:normal;text-indent:0;text-align:start;text-decoration:none;line-height:125%;letter-spacing:normal;word-spacing:normal;text-transform:none;direction:ltr;block-progression:tb;writing-mode:lr-tb;text-anchor:start;fill:#ffffff;fill-opacity:1;fill-rule:nonzero;stroke:none;stroke-width:1px;stroke-linecap:butt;stroke-linejoin:miter;marker:none;marker-start:none;marker-mid:none;marker-end:none;stroke-miterlimit:4;stroke-dasharray:none;stroke-dashoffset:0;stroke-opacity:1;visibility:visible;display:inline;overflow:visible;enable-background:accumulate;font-family:DejaVu LGC Sans;-inkscape-font-specification:DejaVu LGC Sans"
       xml:space="preserve"><tspan
         y="1068.896"
         x="57.844933"
         id="tspan2538"
         sodipodi:role="line">A</tspan></text>
    <g
       id="g3396"
       transform="translate(0,2.6174973)">
      <rect
         y="1090.0043"
         x="-98.080559"
         height="7.5649605"
         width="7.5649605"
         id="rect2614"
         style="opacity:1;fill:#ffdca7;fill-opacity:1;fill-rule:nonzero;stroke:#efa724;stroke-width:1.10551178;stroke-linecap:round;stroke-linejoin:round;marker:none;marker-start:none;marker-mid:none;marker-end:none;stroke-miterlimit:4;stroke-dasharray:none;stroke-dashoffset:0;stroke-opacity:1;visibility:visible;display:inline;overflow:visible;enable-background:accumulate" />
      <text
         sodipodi:linespacing="125%"
         id="text3386"
         y="1097.4269"
         x="-85.49704"
         style="font-size:10px;font-style:normal;font-variant:normal;font-weight:normal;font-stretch:normal;text-indent:0;text-align:start;text-decoration:none;line-height:125%;letter-spacing:normal;word-spacing:normal;text-transform:none;direction:ltr;block-progression:tb;writing-mode:lr-tb;text-anchor:start;opacity:1;fill:#fcaf3e;fill-opacity:1;fill-rule:nonzero;stroke:none;stroke-width:1px;stroke-linecap:butt;stroke-linejoin:miter;marker:none;marker-start:none;marker-mid:none;marker-end:none;stroke-miterlimit:4;stroke-dasharray:none;stroke-dashoffset:0;stroke-opacity:1;visibility:visible;display:inline;overflow:visible;enable-background:accumulate;font-family:DejaVu LGC Sans;-inkscape-font-specification:DejaVu LGC Sans"
         xml:space="preserve"><tspan
           y="1097.4269"
           x="-85.49704"
           id="tspan3388"
           sodipodi:role="line">PROTECTION AREA</tspan></text>
    </g>
    <g
       id="g3426"
       transform="translate(127.9019,2.6174973)">
      <rect
         style="opacity:1;fill:#ffb6b6;fill-opacity:1;fill-rule:nonzero;stroke:#cc0000;stroke-width:1.10551178;stroke-linecap:round;stroke-linejoin:round;marker:none;marker-start:none;marker-mid:none;marker-end:none;stroke-miterlimit:4;stroke-dasharray:none;stroke-dashoffset:0;stroke-opacity:1;visibility:visible;display:inline;overflow:visible;enable-background:accumulate"
         id="rect3428"
         width="7.5649605"
         height="7.5649605"
         x="-98.080559"
         y="1090.0043" />
      <text
         xml:space="preserve"
         style="font-size:10px;font-style:normal;font-variant:normal;font-weight:normal;font-stretch:normal;text-indent:0;text-align:start;text-decoration:none;line-height:125%;letter-spacing:normal;word-spacing:normal;text-transform:none;direction:ltr;block-progression:tb;writing-mode:lr-tb;text-anchor:start;opacity:1;fill:#cc0000;fill-opacity:1;fill-rule:nonzero;stroke:none;stroke-width:1px;stroke-linecap:butt;stroke-linejoin:miter;marker:none;marker-start:none;marker-mid:none;marker-end:none;stroke-miterlimit:4;stroke-dasharray:none;stroke-dashoffset:0;stroke-opacity:1;visibility:visible;display:inline;overflow:visible;enable-background:accumulate;font-family:DejaVu LGC Sans;-inkscape-font-specification:DejaVu LGC Sans"
         x="-85.49704"
         y="1097.4269"
         id="text3430"
         sodipodi:linespacing="125%"><tspan
           sodipodi:role="line"
           id="tspan3432"
           x="-85.49704"
           y="1097.4269">CONTENT AREA</tspan></text>
    </g>
  </g>
</svg>
