<?xml version="1.0" encoding="UTF-8" standalone="no"?>
<!-- Created with Inkscape (http://www.inkscape.org/) -->
<svg
   xmlns:dc="http://purl.org/dc/elements/1.1/"
   xmlns:cc="http://creativecommons.org/ns#"
   xmlns:rdf="http://www.w3.org/1999/02/22-rdf-syntax-ns#"
   xmlns:svg="http://www.w3.org/2000/svg"
   xmlns="http://www.w3.org/2000/svg"
   xmlns:sodipodi="http://sodipodi.sourceforge.net/DTD/sodipodi-0.dtd"
   xmlns:inkscape="http://www.inkscape.org/namespaces/inkscape"
   width="407.48032"
   height="177.16536"
   id="svg2897"
   sodipodi:version="0.32"
   inkscape:version="0.46"
   sodipodi:docname="centos.svg"
   inkscape:output_extension="org.inkscape.output.svg.inkscape"
   version="1.0">
  <defs
     id="defs2899">
    <inkscape:perspective
       sodipodi:type="inkscape:persp3d"
       inkscape:vp_x="0 : 24 : 1"
       inkscape:vp_y="0 : 1000 : 0"
       inkscape:vp_z="169.00238 : 24 : 1"
       inkscape:persp3d-origin="84.50119 : 16 : 1"
       id="perspective2511" />
    <clipPath
       clipPathUnits="userSpaceOnUse"
       id="clipPath4429">
      <g
         transform="matrix(0.9947658,0,0,1,1.7860989,0)"
         id="g4431">
        <path
           sodipodi:nodetypes="ccccccccc"
           style="fill:#efa724;fill-opacity:1;fill-rule:evenodd;stroke:none;stroke-width:30;stroke-linecap:round;stroke-linejoin:round;marker:none;marker-start:none;marker-mid:none;marker-end:none;stroke-miterlimit:4;stroke-dasharray:none;stroke-dashoffset:0;stroke-opacity:1;visibility:visible;display:inline;overflow:visible"
           d="M 322.54143,2800.9375 L 318.10638,2806.6673 L 313.67143,2800.9375 L 313.67143,2757.7946 L 294.73171,2757.7946 L 318.10638,2732.2579 L 341.23763,2757.7946 L 322.54143,2757.7946 L 322.54143,2800.9375 z"
           id="path4433" />
      </g>
    </clipPath>
  </defs>
  <sodipodi:namedview
     id="base"
     pagecolor="#ffffff"
     bordercolor="#666666"
     borderopacity="1.0"
     gridtolerance="10000"
     guidetolerance="10"
     objecttolerance="10"
     inkscape:pageopacity="0.0"
     inkscape:pageshadow="2"
     inkscape:zoom="8"
     inkscape:cx="70.442361"
     inkscape:cy="159.09907"
     inkscape:document-units="px"
     inkscape:current-layer="layer1"
     showgrid="false"
     inkscape:window-width="1360"
     inkscape:window-height="693"
     inkscape:window-x="0"
     inkscape:window-y="25"
     showborder="true"
     inkscape:showpageshadow="false"
     showguides="true"
     inkscape:guide-bbox="true"
     units="mm">
    <inkscape:grid
       type="xygrid"
       id="grid3843"
       visible="true"
       enabled="true" />
  </sodipodi:namedview>
  <metadata
     id="CENTOSMETADATA">
    <rdf:RDF>
      <cc:Work
         rdf:about="">
        <dc:format>image/svg+xml</dc:format>
        <dc:type
           rdf:resource="http://purl.org/dc/dcmitype/StillImage" />
        <cc:license
           rdf:resource="http://creativecommons.org/licenses/by-sa/3.0/" />
        <dc:title>centos.svg</dc:title>
        <dc:date>2011-07-29</dc:date>
        <dc:creator>
          <cc:Agent>
            <dc:title>The CentOS Artwork SIG</dc:title>
          </cc:Agent>
        </dc:creator>
        <dc:rights>
          <cc:Agent>
            <dc:title>The CentOS Artwork SIG</dc:title>
          </cc:Agent>
        </dc:rights>
        <dc:publisher>
          <cc:Agent>
            <dc:title>The CentOS Artwork SIG</dc:title>
          </cc:Agent>
        </dc:publisher>
        <dc:identifier>https://projects.centos.org/svn/artwork/trunk/Identity/Models/Brands/Logos/Black/centos.svg</dc:identifier>
        <dc:source>https://projects.centos.org/svn/artwork/trunk/Identity/Models/Brands/Logos/Black/centos.svg</dc:source>
        <dc:relation>https://projects.centos.org/svn/artwork/trunk/Identity/Models/Brands/Logos/Black/centos.svg</dc:relation>
        <dc:language>en_US</dc:language>
        <dc:subject>
          <rdf:Bag>
            <rdf:li>Identity</rdf:li>
            <rdf:li>Models</rdf:li>
            <rdf:li>Brands</rdf:li>
            <rdf:li>Logos</rdf:li>
            <rdf:li>Black</rdf:li>
          </rdf:Bag>
        </dc:subject>
        <dc:coverage>The CentOS Artwork SIG</dc:coverage>
        <dc:description />
        <dc:contributor />
      </cc:Work>
      <cc:License
         rdf:about="http://creativecommons.org/licenses/by-sa/3.0/">
        <cc:permits
           rdf:resource="http://creativecommons.org/ns#Reproduction" />
        <cc:permits
           rdf:resource="http://creativecommons.org/ns#Distribution" />
        <cc:requires
           rdf:resource="http://creativecommons.org/ns#Notice" />
        <cc:requires
           rdf:resource="http://creativecommons.org/ns#Attribution" />
        <cc:permits
           rdf:resource="http://creativecommons.org/ns#DerivativeWorks" />
        <cc:requires
           rdf:resource="http://creativecommons.org/ns#ShareAlike" />
      </cc:License>
    </rdf:RDF>
  </metadata>
  <g
     inkscape:label="Layer 1"
     inkscape:groupmode="layer"
     id="layer1"
     transform="translate(1088.4899,-636.74579)">
    <rect
       y="636.74579"
       x="-1088.4899"
       height="177.16536"
       width="407.48032"
       id="CENTOSARTWORK"
       style="fill:none;fill-opacity:0.1372549;stroke:none;stroke-width:1.00181544;stroke-linecap:round;stroke-linejoin:miter;stroke-miterlimit:4;stroke-dasharray:none;stroke-opacity:1"
       inkscape:label="#rect5058" />
    <path
       style="font-size:72.67242432px;font-style:normal;font-variant:normal;font-weight:200;font-stretch:normal;text-align:start;line-height:125%;writing-mode:lr-tb;text-anchor:start;fill:#000000;fill-opacity:1;stroke:none;stroke-width:1;stroke-linecap:butt;stroke-linejoin:miter;stroke-miterlimit:4;stroke-dasharray:none;stroke-opacity:1;display:inline;font-family:Denmark;-inkscape-font-specification:Denmark Ultra-Light"
       clip-path="none"
       d="M -913.62285,751.09871 L -935.87424,751.09871 C -938.1306,751.09871 -940.36294,750.78152 -942.57126,750.14706 C -946.84392,748.82956 -950.22844,745.804 -952.72481,741.07048 C -954.98116,736.77621 -956.10933,731.77432 -956.10932,726.06484 C -956.10933,720.55062 -955.10117,715.67073 -953.08486,711.4252 C -950.87653,706.74056 -947.73206,703.54424 -943.65142,701.83624 C -940.48296,700.51873 -937.24247,699.85995 -933.92994,699.8599 L -913.76687,699.8599 L -913.76687,709.66844 L -934.72206,709.66844 C -938.1306,709.66848 -940.60298,711.54724 -942.13919,715.30471 C -943.33939,718.23267 -943.93948,722.06337 -943.93947,726.79683 C -943.93948,730.79835 -943.17137,734.18987 -941.63512,736.97139 C -939.85886,740.24091 -937.36249,741.87567 -934.14597,741.87566 L -913.62285,741.80247 L -913.62285,751.09871 M -876.56421,751.31827 L -894.13489,751.31827 C -898.40754,751.31827 -902.1281,749.46393 -905.29657,745.75524 C -908.41705,741.99767 -909.97729,737.67898 -909.97729,732.79909 C -909.97729,727.48004 -908.27304,722.89295 -904.86451,719.03782 C -901.408,715.13394 -897.56743,713.182 -893.34277,713.18197 L -876.6362,713.18197 L -876.6362,721.01417 L -888.87808,721.01417 C -890.41433,721.0142 -891.73453,721.1606 -892.83869,721.45336 C -893.89488,721.69738 -894.879,722.20978 -895.79114,722.99052 C -897.47141,724.45451 -898.31153,726.43087 -898.31151,728.91958 L -876.70822,728.91958 L -876.70822,736.82499 L -898.23949,736.82499 C -898.2395,737.99617 -898.11949,738.99655 -897.87947,739.82611 C -897.59142,740.60691 -897.03934,741.41208 -896.2232,742.24166 C -895.40709,743.02244 -894.44695,743.55924 -893.34277,743.852 C -892.1906,744.09603 -890.79839,744.21808 -889.16611,744.21808 L -876.56421,744.21808 L -876.56421,751.31827 M -835.49994,751.09871 L -845.50948,751.09871 L -845.50948,726.13805 C -845.50951,725.50368 -845.65351,724.9425 -845.94152,724.45448 C -846.2296,723.91773 -846.63766,723.40534 -847.16573,722.91732 C -848.12589,722.08778 -849.23005,721.67299 -850.47822,721.67296 L -860.27172,721.67296 L -860.27172,751.09871 L -870.28124,751.09871 L -870.28124,713.18197 L -851.12633,713.18197 C -847.71783,713.182 -845.24545,713.37719 -843.7092,713.76755 C -841.30887,714.35317 -839.38856,715.64633 -837.94831,717.64705 C -836.3161,719.98942 -835.49997,722.55137 -835.49994,725.33287 L -835.49994,751.09871 M -806.75179,721.08737 L -816.47328,721.08737 L -816.47328,738.28895 C -816.4733,739.85053 -815.94523,741.14369 -814.88904,742.16846 C -813.68887,743.19324 -812.10464,743.70562 -810.13631,743.70562 L -807.18387,743.70562 L -807.18387,751.09871 L -816.47328,751.09871 C -819.25772,751.09871 -821.63408,750.07387 -823.60237,748.02439 C -824.75456,746.80441 -825.49866,745.46238 -825.83472,743.99841 C -826.17077,742.53446 -826.33879,740.8021 -826.33878,738.80134 L -826.33878,721.08737 L -832.67575,721.08737 L -832.67575,713.18197 L -826.33878,713.18197 L -826.33878,699.8599 L -816.47328,699.8599 L -816.47328,713.18197 L -806.75179,713.18197 L -806.75179,721.08737 M -747.98745,725.40607 C -747.98751,735.36104 -750.69993,742.48566 -756.1247,746.77998 C -760.54143,750.24467 -766.97439,751.97707 -775.42366,751.97707 C -784.7851,751.97707 -791.69815,749.97635 -796.16282,745.9748 C -801.05957,741.58288 -803.50793,734.53146 -803.50792,724.82048 C -803.50793,716.86631 -801.3236,710.66887 -796.95492,706.22813 C -792.20223,701.39711 -785.09715,698.98157 -775.63969,698.98152 C -765.22212,698.98157 -757.87702,701.29951 -753.60432,705.93534 C -749.85979,710.03448 -747.98751,716.52471 -747.98745,725.40607 M -760.80543,725.11327 C -760.80547,720.08703 -761.98165,716.08552 -764.33396,713.10876 C -766.97439,709.79048 -770.88699,708.13132 -776.07176,708.13128 C -781.16055,708.13132 -785.00113,709.91248 -787.5935,713.47475 C -789.75386,716.45152 -790.83401,720.33101 -790.834,725.11327 C -790.83401,730.62756 -789.96987,734.70226 -788.2416,737.33738 C -785.84127,740.9973 -781.40057,742.82725 -774.91956,742.82724 C -769.44678,742.82725 -765.6062,741.0461 -763.39782,737.48377 C -761.66959,734.70226 -760.80547,730.57876 -760.80543,725.11327 M -690.34605,735.21463 C -690.34611,739.70412 -691.81033,743.48603 -694.73871,746.56041 C -697.66722,749.63473 -701.38777,751.1719 -705.90042,751.1719 L -741.54585,751.09871 L -741.54585,741.87566 L -712.16537,741.87566 C -710.19711,741.87567 -708.54086,741.41208 -707.19662,740.4849 C -705.66042,739.41133 -704.89231,737.94737 -704.89227,736.09301 C -704.89231,731.74993 -707.91676,729.57839 -713.96566,729.57837 L -728.79992,729.57837 C -733.07259,729.57839 -736.81715,728.23642 -740.03363,725.55246 C -743.25012,722.86855 -744.85837,719.45264 -744.85837,715.30471 C -744.85837,710.71766 -743.29813,707.00895 -740.17765,704.17858 C -737.00918,701.29951 -732.85655,699.85995 -727.71976,699.8599 L -693.65855,699.8599 L -693.65855,708.64367 L -723.68714,708.64367 C -725.03136,708.64371 -726.39957,709.2293 -727.79176,710.40043 C -729.13599,711.52284 -729.8081,712.8648 -729.80808,714.42633 C -729.8081,716.18312 -729.15999,717.67148 -727.86377,718.89143 C -726.51959,720.06263 -724.91133,720.64821 -723.03904,720.64818 L -706.69255,720.64818 C -701.60381,720.64821 -697.61922,721.99017 -694.73871,724.67408 C -691.81033,727.30924 -690.34611,730.82275 -690.34605,735.21463"
       id="text5083" />
    <g
       id="g3664"
       transform="matrix(0.6690662,0,0,0.6671141,-1018.2501,52.315865)">
      <g
         id="g12802"
         transform="matrix(0,-1,1,0,-1934.5199,1337.4805)">
        <g
           transform="translate(16.279512,-899.16723)"
           id="g12804">
          <g
             id="g12806"
             transform="matrix(1.0666663,0,0,1,-26.935596,-4.1328125e-5)">
            <path
               id="path12808"
               d="M 323.36653,2798.1614 L 317.96037,2803.9619 L 312.55421,2798.1614 L 312.55421,2757.3353 L 294.54088,2757.3353 L 317.96037,2732.4374 L 340.98524,2757.3353 L 323.36654,2757.3353 L 323.36653,2798.1614 z"
               style="fill:#932279;fill-opacity:1;fill-rule:evenodd;stroke:none;stroke-width:30;stroke-linecap:round;stroke-linejoin:round;marker:none;marker-start:none;marker-mid:none;marker-end:none;stroke-miterlimit:4;stroke-dasharray:none;stroke-dashoffset:0;stroke-opacity:1;visibility:visible;display:inline;overflow:visible"
               sodipodi:nodetypes="ccccccccc" />
          </g>
          <g
             transform="matrix(1.0722788,0,0,1,-28.850792,-4.1328125e-5)"
             id="g12812"
             clip-path="url(#clipPath4429)" />
        </g>
      </g>
      <g
         transform="translate(-351.30671,-902.55818)"
         id="g12768">
        <g
           id="g12770"
           transform="translate(16.279512,-899.16723)">
          <g
             transform="matrix(1.0666663,0,0,1,-26.935596,-4.1328125e-5)"
             id="g12772">
            <path
               sodipodi:nodetypes="ccccccccc"
               style="fill:#efa724;fill-opacity:1;fill-rule:evenodd;stroke:none;stroke-width:30;stroke-linecap:round;stroke-linejoin:round;marker:none;marker-start:none;marker-mid:none;marker-end:none;stroke-miterlimit:4;stroke-dasharray:none;stroke-dashoffset:0;stroke-opacity:1;visibility:visible;display:inline;overflow:visible"
               d="M 323.36653,2798.1614 L 317.96037,2803.9619 L 312.55421,2798.1614 L 312.55421,2757.3353 L 294.54088,2757.3353 L 317.96037,2732.4374 L 340.98524,2757.3353 L 323.36654,2757.3353 L 323.36653,2798.1614 z"
               id="path12774" />
          </g>
          <g
             clip-path="url(#clipPath4429)"
             id="g12778"
             transform="matrix(1.0722788,0,0,1,-28.850792,-4.1328125e-5)" />
        </g>
      </g>
      <g
         id="g12780"
         transform="matrix(0,1,-1,0,2787.8992,696.93451)">
        <g
           transform="matrix(1.0666663,0,0,1,-26.935596,-4.1328125e-5)"
           id="g12782">
          <path
             sodipodi:nodetypes="ccccccccc"
             style="fill:#262577;fill-opacity:1;fill-rule:evenodd;stroke:none;stroke-width:30;stroke-linecap:round;stroke-linejoin:round;marker:none;marker-start:none;marker-mid:none;marker-end:none;stroke-miterlimit:4;stroke-dasharray:none;stroke-dashoffset:0;stroke-opacity:1;visibility:visible;display:inline;overflow:visible"
             d="M 323.36653,2798.1614 L 317.96037,2803.9619 L 312.55421,2798.1614 L 312.55421,2757.3353 L 294.54088,2757.3353 L 317.96037,2732.4374 L 340.98524,2757.3353 L 323.36654,2757.3353 L 323.36653,2798.1614 z"
             id="path12784" />
        </g>
        <g
           clip-path="url(#clipPath4429)"
           id="g12788"
           transform="matrix(1.0722788,0,0,1,-28.850792,-4.1328125e-5)" />
      </g>
      <g
         transform="matrix(-1,0,0,-1,305.51863,2920.6937)"
         id="g12790">
        <g
           id="g12792"
           transform="translate(16.279512,-899.16723)">
          <g
             transform="matrix(1.0666663,0,0,1,-26.935596,-4.1328125e-5)"
             id="g12794">
            <path
               sodipodi:nodetypes="ccccccccc"
               style="fill:#9ccd2a;fill-opacity:1;fill-rule:evenodd;stroke:none;stroke-width:30;stroke-linecap:round;stroke-linejoin:round;marker:none;marker-start:none;marker-mid:none;marker-end:none;stroke-miterlimit:4;stroke-dasharray:none;stroke-dashoffset:0;stroke-opacity:1;visibility:visible;display:inline;overflow:visible"
               d="M 323.36653,2798.1614 L 317.96037,2803.9619 L 312.55421,2798.1614 L 312.55421,2757.3353 L 294.54088,2757.3353 L 317.96037,2732.4374 L 340.98524,2757.3353 L 323.36654,2757.3353 L 323.36653,2798.1614 z"
               id="path12796" />
          </g>
          <g
             clip-path="url(#clipPath4429)"
             id="g12800"
             transform="matrix(1.0722788,0,0,1,-28.850792,-4.1328125e-5)" />
        </g>
      </g>
      <g
         transform="translate(-749.79982,-1331.6428)"
         id="g12742">
        <rect
           style="fill:#9ccd2a;fill-opacity:1;stroke:#ffffff;stroke-width:3.54330707;stroke-linecap:butt;stroke-linejoin:miter;stroke-miterlimit:4;stroke-dasharray:none;stroke-dashoffset:0;stroke-opacity:1"
           id="rect12744"
           width="49.606449"
           height="49.606449"
           x="671.98438"
           y="2285.7893" />
        <rect
           y="2285.7893"
           x="732.22076"
           height="49.606449"
           width="49.606449"
           id="rect12746"
           style="fill:#932279;fill-opacity:1;stroke:#ffffff;stroke-width:3.54330707;stroke-linecap:butt;stroke-linejoin:miter;stroke-miterlimit:4;stroke-dasharray:none;stroke-dashoffset:0;stroke-opacity:1" />
        <rect
           style="fill:#efa724;fill-opacity:1;stroke:#ffffff;stroke-width:3.54330707;stroke-linecap:butt;stroke-linejoin:miter;stroke-miterlimit:4;stroke-dasharray:none;stroke-dashoffset:0;stroke-opacity:1"
           id="rect12748"
           width="49.606449"
           height="49.606449"
           x="732.22076"
           y="2346.0256" />
        <rect
           y="2346.0256"
           x="671.98438"
           height="49.606449"
           width="49.606449"
           id="rect12750"
           style="fill:#262577;fill-opacity:1;stroke:#ffffff;stroke-width:3.54330707;stroke-linecap:butt;stroke-linejoin:miter;stroke-miterlimit:4;stroke-dasharray:none;stroke-dashoffset:0;stroke-opacity:1" />
      </g>
      <rect
         y="642.40875"
         x="-784.62878"
         height="49.606449"
         width="49.606449"
         id="rect12760"
         style="fill:none;fill-opacity:1;stroke:#ffffff;stroke-width:3.54330707;stroke-linecap:butt;stroke-linejoin:miter;stroke-miterlimit:4;stroke-dasharray:none;stroke-dashoffset:0;stroke-opacity:1"
         transform="matrix(0.7071068,-0.7071068,0.7071068,0.7071068,0,0)" />
      <rect
         style="fill:none;fill-opacity:1;stroke:#ffffff;stroke-width:3.54330707;stroke-linecap:butt;stroke-linejoin:miter;stroke-miterlimit:4;stroke-dasharray:none;stroke-dashoffset:0;stroke-opacity:1"
         id="rect12762"
         width="49.606449"
         height="49.606449"
         x="-724.39233"
         y="642.40875"
         transform="matrix(0.7071068,-0.7071068,0.7071068,0.7071068,0,0)" />
      <rect
         y="702.64508"
         x="-724.39233"
         height="49.606449"
         width="49.606449"
         id="rect12764"
         style="fill:none;fill-opacity:1;stroke:#ffffff;stroke-width:3.54330707;stroke-linecap:butt;stroke-linejoin:miter;stroke-miterlimit:4;stroke-dasharray:none;stroke-dashoffset:0;stroke-opacity:1"
         transform="matrix(0.7071068,-0.7071068,0.7071068,0.7071068,0,0)" />
      <rect
         style="fill:none;fill-opacity:1;stroke:#ffffff;stroke-width:3.54330707;stroke-linecap:butt;stroke-linejoin:miter;stroke-miterlimit:4;stroke-dasharray:none;stroke-dashoffset:0;stroke-opacity:1"
         id="rect12766"
         width="49.606449"
         height="49.606449"
         x="-784.62878"
         y="702.64508"
         transform="matrix(0.7071068,-0.7071068,0.7071068,0.7071068,0,0)" />
    </g>
  </g>
</svg>
