<?xml version="1.0" encoding="UTF-8" standalone="no"?>
<!-- Created with Inkscape (http://www.inkscape.org/) -->
<svg
   xmlns:dc="http://purl.org/dc/elements/1.1/"
   xmlns:cc="http://creativecommons.org/ns#"
   xmlns:rdf="http://www.w3.org/1999/02/22-rdf-syntax-ns#"
   xmlns:svg="http://www.w3.org/2000/svg"
   xmlns="http://www.w3.org/2000/svg"
   xmlns:xlink="http://www.w3.org/1999/xlink"
   xmlns:sodipodi="http://sodipodi.sourceforge.net/DTD/sodipodi-0.dtd"
   xmlns:inkscape="http://www.inkscape.org/namespaces/inkscape"
   width="1024"
   height="768"
   id="svg57249"
   sodipodi:version="0.32"
   inkscape:version="0.46"
   version="1.0"
   sodipodi:docname="1024x768.svg"
   inkscape:output_extension="org.inkscape.output.svg.inkscape"
   inkscape:export-xdpi="45"
   inkscape:export-ydpi="45">
  <defs
     id="defs57251">
    <linearGradient
       id="linearGradient5333">
      <stop
         style="stop-color:#2c67bd;stop-opacity:1;"
         offset="0"
         id="stop5335" />
      <stop
         style="stop-color:#95b7e9;stop-opacity:0;"
         offset="1"
         id="stop5337" />
    </linearGradient>
    <linearGradient
       inkscape:collect="always"
       xlink:href="#linearGradient5333"
       id="linearGradient2876"
       gradientUnits="userSpaceOnUse"
       x1="696.16772"
       y1="345.62885"
       x2="392.72235"
       y2="549.03717" />
    <linearGradient
       id="linearGradient5341">
      <stop
         style="stop-color:#114696;stop-opacity:1;"
         offset="0"
         id="stop5343" />
      <stop
         style="stop-color:#114696;stop-opacity:0;"
         offset="1"
         id="stop5345" />
    </linearGradient>
    <linearGradient
       inkscape:collect="always"
       xlink:href="#linearGradient5341"
       id="linearGradient2874"
       gradientUnits="userSpaceOnUse"
       x1="506.48218"
       y1="394.94901"
       x2="626.01465"
       y2="550.56775" />
    <linearGradient
       inkscape:collect="always"
       xlink:href="#linearGradient5333"
       id="linearGradient3631"
       gradientUnits="userSpaceOnUse"
       x1="696.16772"
       y1="345.62885"
       x2="392.72235"
       y2="549.03717"
       gradientTransform="matrix(2.56,0,0,2.56,-698.09448,-677.228)" />
    <linearGradient
       inkscape:collect="always"
       xlink:href="#linearGradient5341"
       id="linearGradient3634"
       gradientUnits="userSpaceOnUse"
       x1="506.48218"
       y1="394.94901"
       x2="626.01465"
       y2="550.56775"
       gradientTransform="matrix(2.56,0,0,2.56,-698.09448,-677.228)" />
    <clipPath
       clipPathUnits="userSpaceOnUse"
       id="clipPath3664">
      <rect
         y="-38.494915"
         x="53.650284"
         height="768"
         width="1024"
         id="rect3666"
         style="opacity:1;fill:#000000;fill-opacity:1;stroke:none;stroke-width:2;stroke-linecap:round;stroke-linejoin:round;stroke-miterlimit:4;stroke-dasharray:none;stroke-dashoffset:0;stroke-opacity:1" />
    </clipPath>
    <clipPath
       clipPathUnits="userSpaceOnUse"
       id="clipPath3668">
      <rect
         y="-38.494915"
         x="53.650284"
         height="768"
         width="1024"
         id="rect3670"
         style="opacity:1;fill:#000000;fill-opacity:1;stroke:none;stroke-width:2;stroke-linecap:round;stroke-linejoin:round;stroke-miterlimit:4;stroke-dasharray:none;stroke-dashoffset:0;stroke-opacity:1" />
    </clipPath>
    <clipPath
       clipPathUnits="userSpaceOnUse"
       id="clipPath3672">
      <rect
         y="-38.494915"
         x="53.650284"
         height="768"
         width="1024"
         id="rect3674"
         style="opacity:1;fill:#000000;fill-opacity:1;stroke:none;stroke-width:2;stroke-linecap:round;stroke-linejoin:round;stroke-miterlimit:4;stroke-dasharray:none;stroke-dashoffset:0;stroke-opacity:1" />
    </clipPath>
    <clipPath
       clipPathUnits="userSpaceOnUse"
       id="clipPath3676">
      <rect
         y="27.772112"
         x="268.58261"
         height="116.63739"
         width="155.51651"
         id="rect3678"
         style="opacity:1;fill:#000000;fill-opacity:1;stroke:none;stroke-width:2;stroke-linecap:round;stroke-linejoin:round;stroke-miterlimit:4;stroke-dasharray:none;stroke-dashoffset:0;stroke-opacity:1"
         transform="matrix(0.7141496,0.6999931,0.6999931,-0.7141496,0,0)" />
    </clipPath>
    <clipPath
       clipPathUnits="userSpaceOnUse"
       id="clipPath3680">
      <rect
         y="25.787218"
         x="130.75874"
         height="202.83212"
         width="270.44281"
         id="rect3682"
         style="opacity:1;fill:#000000;fill-opacity:1;stroke:none;stroke-width:2;stroke-linecap:round;stroke-linejoin:round;stroke-miterlimit:4;stroke-dasharray:none;stroke-dashoffset:0;stroke-opacity:1" />
    </clipPath>
    <clipPath
       clipPathUnits="userSpaceOnUse"
       id="clipPath3684">
      <rect
         y="-38.494915"
         x="53.650284"
         height="768"
         width="1024"
         id="rect3686"
         style="opacity:1;fill:#000000;fill-opacity:1;stroke:none;stroke-width:2;stroke-linecap:round;stroke-linejoin:round;stroke-miterlimit:4;stroke-dasharray:none;stroke-dashoffset:0;stroke-opacity:1" />
    </clipPath>
    <clipPath
       clipPathUnits="userSpaceOnUse"
       id="clipPath3688">
      <rect
         y="-38.494915"
         x="53.650284"
         height="768"
         width="1024"
         id="rect3690"
         style="opacity:1;fill:#000000;fill-opacity:1;stroke:none;stroke-width:2;stroke-linecap:round;stroke-linejoin:round;stroke-miterlimit:4;stroke-dasharray:none;stroke-dashoffset:0;stroke-opacity:1" />
    </clipPath>
  </defs>
  <sodipodi:namedview
     id="base"
     pagecolor="#ffffff"
     bordercolor="#666666"
     borderopacity="1.0"
     gridtolerance="10000"
     guidetolerance="10"
     objecttolerance="10"
     inkscape:pageopacity="0.0"
     inkscape:pageshadow="2"
     inkscape:zoom="0.32552083"
     inkscape:cx="509.41821"
     inkscape:cy="386.20752"
     inkscape:document-units="px"
     inkscape:current-layer="layer1"
     showgrid="false"
     showborder="true"
     inkscape:showpageshadow="true"
     inkscape:window-width="1360"
     inkscape:window-height="693"
     inkscape:window-x="0"
     inkscape:window-y="25"
     showguides="false"
     inkscape:guide-bbox="true">
    <sodipodi:guide
       orientation="0,1"
       position="1477.515,-1422.1082"
       id="guide4274" />
    <sodipodi:guide
       orientation="1,0"
       position="492.96994,706.8319"
       id="guide4276" />
  </sodipodi:namedview>
  <metadata
     id="metadata57254">
    <rdf:RDF>
      <cc:Work
         rdf:about="">
        <dc:format>image/svg+xml</dc:format>
        <dc:type
           rdf:resource="http://purl.org/dc/dcmitype/StillImage" />
        <cc:license
           rdf:resource="http://creativecommons.org/licenses/by-sa/3.0/" />
        <dc:title>TreeFlower's Background</dc:title>
        <dc:date>2010-04-23</dc:date>
        <dc:creator>
          <cc:Agent>
            <dc:title>Alain Reguera Delgado</dc:title>
          </cc:Agent>
        </dc:creator>
        <dc:rights>
          <cc:Agent>
            <dc:title>The CentOS Project</dc:title>
          </cc:Agent>
        </dc:rights>
        <dc:publisher>
          <cc:Agent>
            <dc:title>The CentOS Project</dc:title>
          </cc:Agent>
        </dc:publisher>
        <dc:coverage>The CentOS Project</dc:coverage>
        <dc:description>Background image for 800x600 and related resolutions.</dc:description>
      </cc:Work>
      <cc:License
         rdf:about="http://creativecommons.org/licenses/by-sa/3.0/">
        <cc:permits
           rdf:resource="http://creativecommons.org/ns#Reproduction" />
        <cc:permits
           rdf:resource="http://creativecommons.org/ns#Distribution" />
        <cc:requires
           rdf:resource="http://creativecommons.org/ns#Notice" />
        <cc:requires
           rdf:resource="http://creativecommons.org/ns#Attribution" />
        <cc:permits
           rdf:resource="http://creativecommons.org/ns#DerivativeWorks" />
        <cc:requires
           rdf:resource="http://creativecommons.org/ns#ShareAlike" />
      </cc:License>
    </rdf:RDF>
  </metadata>
  <g
     inkscape:label="Layer 1"
     inkscape:groupmode="layer"
     id="layer1"
     transform="translate(-53.650286,38.494914)">
    <g
       id="CENTOSARTWORK"
       inkscape:label="#g3692">
      <path
         clip-path="url(#clipPath3688)"
         sodipodi:nodetypes="cssscczz"
         style="fill:url(#linearGradient3634);fill-opacity:1;stroke:none;stroke-width:1;stroke-linejoin:round;stroke-miterlimit:4;stroke-dasharray:none;stroke-dashoffset:0;stroke-opacity:1"
         d="M 153.5034,4.9985344 C 548.61784,4.9985344 869.44339,347.64854 869.44339,770.10051 C 869.44339,1192.5525 548.61784,1535.5754 153.5034,1535.5755 C -241.61108,1535.5755 -562.43651,1192.5525 -562.4366,770.10051 C -562.4366,347.64854 -241.61108,4.9986624 153.5034,4.9985344 z M -43.334518,732.66251 C -37.033514,1311.5531 714.93525,1387.0169 714.93525,762.92243 C 714.93525,146.00272 -49.714934,146.47358 -43.334518,732.66251 z"
         id="path2856" />
      <path
         clip-path="url(#clipPath3684)"
         id="path2858"
         d="M 971.43343,207.58183 C 604.89616,207.58183 307.27476,504.87955 307.27476,871.41684 C 307.27476,1237.9541 604.89616,1535.5754 971.43343,1535.5755 C 1337.9707,1535.5755 1761.2086,1105.1594 1761.2087,738.62216 C 1761.2087,372.08487 1337.9707,207.58193 971.43343,207.58183 z M 1010.9129,1413.043 C 743.64617,1413.043 191.94121,1433.1284 429.80727,824.75925 C 669.07301,212.81025 1622.9182,593.66818 1010.9129,1413.043 z"
         style="fill:url(#linearGradient3631);fill-opacity:1;stroke:none;stroke-width:1;stroke-linejoin:round;stroke-miterlimit:4;stroke-dasharray:none;stroke-dashoffset:0;stroke-opacity:1"
         sodipodi:nodetypes="cssscczc" />
      <path
         clip-path="url(#clipPath3680)"
         sodipodi:type="arc"
         style="fill:none;fill-opacity:1;stroke:#002974;stroke-width:6.9840126;stroke-linecap:round;stroke-linejoin:round;stroke-miterlimit:4;stroke-dasharray:none;stroke-dashoffset:0;stroke-opacity:1"
         id="path2860"
         sodipodi:cx="364.51242"
         sodipodi:cy="249.52905"
         sodipodi:rx="159.82468"
         sodipodi:ry="159.82468"
         d="M 524.3371,249.52905 A 159.82468,159.82468 0 1 1 204.68774,249.52905 A 159.82468,159.82468 0 1 1 524.3371,249.52905 z"
         transform="matrix(3.7863826,0,0,3.7863826,-441.45236,-136.13519)" />
      <g
         clip-path="url(#clipPath3676)"
         transform="matrix(4.702325,4.6091113,4.6091113,-4.702325,-1714.8346,-221.36066)"
         id="g2862"
         style="fill:#002974;fill-opacity:1">
        <path
           id="path2864"
           style="fill:#002974;fill-opacity:1;fill-rule:evenodd;stroke:none;stroke-width:1px;stroke-linecap:butt;stroke-linejoin:miter;stroke-opacity:1"
           d="M 225.7785,132.74383 C 225.78369,132.74295 225.7787,132.74312 225.7785,132.74383 C 225.75982,132.81026 225.8177,132.72445 225.7785,132.74383 C 225.25769,133.00106 225.30159,132.50817 225.49164,132.30399 C 225.97779,131.78167 226.82161,132.1681 227.18917,132.64765 C 228.11964,133.86162 227.29786,135.54178 226.15828,136.26839 C 223.74709,137.8058 220.69873,136.21715 219.44201,133.95043 C 217.08683,129.7025 219.8561,124.62599 223.86584,122.63601 C 230.74947,119.21975 238.6715,123.69208 241.63061,130.21916 C 246.38465,140.70548 239.57189,152.45582 229.58627,156.65337 C 214.35455,163.05624 197.62035,153.14527 191.88064,138.58522 C 183.48298,117.28264 197.37525,94.22949 217.80745,86.608856 C 246.69554,75.834423 277.58864,94.721249 287.46481,122.51158 M 225.7785,132.74383 C 225.78169,132.748 225.7792,132.74367 225.7785,132.74383 C 225.71109,132.75865 225.77416,132.78737 225.7785,132.74383 C 225.80514,132.47564 226.06883,132.30304 226.26965,132.36479 C 226.95168,132.57454 227.01621,133.47384 226.76642,134.024 C 226.13412,135.41671 224.26497,135.48361 223.08709,134.82086 C 220.59489,133.41857 220.55968,129.98129 221.9668,127.80472 C 224.60379,123.72574 230.38628,123.77617 234.03092,126.37514 C 240.28776,130.83689 240.076,139.93169 235.71336,145.6173 C 228.70438,154.75173 215.1301,154.27962 206.72241,147.45003 C 193.89763,137.03243 194.75397,117.60238 204.89162,105.67897 C 219.72386,88.234058 246.82276,89.379683 262.95284,104.05512 C 285.38801,124.46704 270.99714,134.32774 287.46481,122.51158"
           sodipodi:nodetypes="csssssssssssccsssssssssssc" />
        <path
           id="path2866"
           style="fill:#002974;fill-opacity:1;fill-rule:evenodd;stroke:none;stroke-width:1px;stroke-linecap:butt;stroke-linejoin:miter;stroke-opacity:1"
           d="M 289.46772,101.63923 C 289.46673,101.64012 289.46754,101.63916 289.46772,101.63923 C 289.48392,101.646 289.45767,101.64399 289.46772,101.63923 C 289.60123,101.5759 289.49594,101.50687 289.42521,101.51257 C 289.24425,101.52718 289.18821,101.75656 289.2259,101.90559 C 289.32134,102.28284 289.78633,102.38399 290.11117,102.27124 C 290.7985,102.03265 290.96253,101.17359 290.70847,100.56509 C 290.2324,99.424698 288.78227,99.176238 287.75235,99.662419 C 285.98427,100.49706 285.62663,102.78382 286.46226,104.4044 C 287.80476,107.008 291.22488,107.50271 293.6384,106.17232 C 297.31994,104.14297 297.98284,99.239302 295.98288,95.796117 C 293.05679,90.758445 286.26378,89.8929 281.51853,92.767914 C 274.80948,96.832766 273.70345,105.97858 277.69098,112.33513 M 289.46772,101.63923 C 289.46805,101.64054 289.46758,101.63935 289.46772,101.63923 C 289.48131,101.62812 289.47709,101.64523 289.46772,101.63923 C 289.40999,101.60223 289.33393,101.62762 289.31456,101.67744 C 289.24879,101.84665 289.41808,102.00145 289.56728,102.03842 C 289.94502,102.13201 290.25334,101.76955 290.30696,101.42988 C 290.4204,100.71123 289.73997,100.16178 289.08355,100.0991 C 287.85336,99.981655 286.9509,101.14362 286.89442,102.28111 C 286.79745,104.23389 288.6459,105.62688 290.46904,105.65348 C 293.39807,105.6962 295.446,102.91271 295.40985,100.15702 C 295.35469,95.95359 291.34193,93.058249 287.36258,93.19977 C 281.54044,93.406838 277.49261,98.995722 277.87588,104.53071 C 278.40897,112.22926 282.64788,110.91342 277.69098,112.33513"
           sodipodi:nodetypes="csssssssssssccsssssssssssc" />
      </g>
      <path
         clip-path="url(#clipPath3672)"
         sodipodi:nodetypes="csccsc"
         d="M 732.82205,-1495.8421 C 815.69583,-1193.3183 1001.178,-955.14413 493.13097,-522.78488 C -14.915805,-90.425517 103.60498,647.41308 383.37724,948.97532 C 663.14953,1250.5376 729.69542,1203.0121 452.11142,896.26579 C 174.52716,589.51957 43.32993,-84.162861 525.16076,-500.69722 C 1006.9915,-917.23158 821.96955,-1194.1186 733.24816,-1493.6454"
         style="fill:#002974;fill-opacity:1;fill-rule:evenodd;stroke:none;stroke-width:1px;stroke-linecap:butt;stroke-linejoin:miter;stroke-opacity:1"
         id="path2868" />
      <path
         clip-path="url(#clipPath3668)"
         sodipodi:nodetypes="csssssssssssccsssssssssssc"
         d="M 980.86273,95.760262 C 980.85359,95.761082 980.86212,95.759187 980.86273,95.760262 C 980.92281,95.863763 980.78852,95.744749 980.86273,95.760262 C 981.84861,95.966598 981.56135,95.158048 981.15378,94.897568 C 980.11129,94.2312 978.86191,95.245498 978.45254,96.209875 C 977.41607,98.651168 979.52372,101.11624 981.75179,101.84257 C 986.46616,103.37939 990.89616,99.391571 992.02433,95.041414 C 994.13856,86.888966 987.29002,79.565037 979.69563,77.960813 C 966.65819,75.206662 955.29442,86.147334 953.15339,98.388102 C 949.71375,118.05395 966.24231,134.83167 984.82645,137.55388 C 1013.174,141.70627 1036.9775,117.81699 1040.3075,90.884358 C 1045.1795,51.479712 1011.8684,18.791226 974.26174,14.84688 C 921.09141,9.2701248 879.35637,53.172358 874.8123,104.11039 M 980.86273,95.760262 C 980.85915,95.768685 980.86148,95.760339 980.86273,95.760262 C 980.98233,95.755987 980.88887,95.831533 980.86273,95.760262 C 980.70176,95.32153 980.18433,95.146016 979.87385,95.336659 C 978.81962,95.984237 979.10084,97.522106 979.7585,98.337645 C 981.42345,100.40213 984.59073,99.704787 986.28128,98.081773 C 989.85826,94.647763 988.4284,88.86137 985.12303,85.816429 C 978.92865,80.110086 969.24171,82.699603 964.24812,88.641978 C 955.67566,98.843552 959.97077,114.022 969.7585,121.67834 C 985.48335,133.97899 1008.0701,127.30632 1019.2282,112.19741 C 1036.2484,89.150931 1026.394,56.898899 1004.208,41.270816 C 971.74805,18.405715 926.74525,32.067744 906.01988,63.69488 C 877.19307,107.68479 902.516,113.41174 874.8123,104.11039"
         style="fill:#002974;fill-opacity:1;fill-rule:evenodd;stroke:none;stroke-width:1px;stroke-linecap:butt;stroke-linejoin:miter;stroke-opacity:1"
         id="path2870" />
      <path
         clip-path="url(#clipPath3664)"
         sodipodi:nodetypes="csccssccc"
         id="path2872"
         d="M 814.69646,-111.21484 C 811.44275,-109.20522 815.71488,-113.5887 815.19699,-109.79965 C 814.6791,-106.01054 814.95548,-104.75504 817.55065,-101.946 C 890.34456,-21.253984 889.93985,103.58595 835.0407,197.37424 C 832.72347,201.32486 832.69339,206.21246 834.96185,210.19129 C 837.23027,214.17012 841.45158,216.63386 846.03165,216.65214 C 850.61167,216.67039 854.85249,214.24039 857.1526,210.27976 C 907.30453,115.10736 909.01618,-20.284333 829.15936,-108.80557 C 825.03136,-113.46444 819.99312,-114.4845 814.69646,-111.21484 z"
         style="fill:#002974;fill-opacity:1;stroke:none;stroke-width:10;stroke-linecap:round;stroke-linejoin:round;stroke-miterlimit:4;stroke-dasharray:none;stroke-dashoffset:0;stroke-opacity:1" />
    </g>
  </g>
</svg>
