<?xml version="1.0" encoding="UTF-8" standalone="no"?>
<!-- Created with Inkscape (http://www.inkscape.org/) -->
<svg
   xmlns:dc="http://purl.org/dc/elements/1.1/"
   xmlns:cc="http://creativecommons.org/ns#"
   xmlns:rdf="http://www.w3.org/1999/02/22-rdf-syntax-ns#"
   xmlns:svg="http://www.w3.org/2000/svg"
   xmlns="http://www.w3.org/2000/svg"
   xmlns:xlink="http://www.w3.org/1999/xlink"
   xmlns:sodipodi="http://sodipodi.sourceforge.net/DTD/sodipodi-0.dtd"
   xmlns:inkscape="http://www.inkscape.org/namespaces/inkscape"
   width="1052"
   height="744"
   id="svg57249"
   sodipodi:version="0.32"
   inkscape:version="0.46"
   version="1.0"
   sodipodi:docname="1052x744.svg"
   inkscape:output_extension="org.inkscape.output.svg.inkscape"
   inkscape:export-xdpi="45"
   inkscape:export-ydpi="45">
  <defs
     id="defs57251">
    <inkscape:perspective
       sodipodi:type="inkscape:persp3d"
       inkscape:vp_x="0 : 768 : 1"
       inkscape:vp_y="0 : 1000 : 0"
       inkscape:vp_z="2048 : 768 : 1"
       inkscape:persp3d-origin="1024 : 512 : 1"
       id="perspective5294" />
    <linearGradient
       id="linearGradient5333">
      <stop
         style="stop-color:#2c67bd;stop-opacity:1;"
         offset="0"
         id="stop5335" />
      <stop
         style="stop-color:#95b7e9;stop-opacity:0;"
         offset="1"
         id="stop5337" />
    </linearGradient>
    <linearGradient
       inkscape:collect="always"
       xlink:href="#linearGradient5333"
       id="linearGradient2876"
       gradientUnits="userSpaceOnUse"
       x1="696.16772"
       y1="345.62885"
       x2="392.72235"
       y2="549.03717" />
    <linearGradient
       id="linearGradient5341">
      <stop
         style="stop-color:#114696;stop-opacity:1;"
         offset="0"
         id="stop5343" />
      <stop
         style="stop-color:#114696;stop-opacity:0;"
         offset="1"
         id="stop5345" />
    </linearGradient>
    <linearGradient
       inkscape:collect="always"
       xlink:href="#linearGradient5341"
       id="linearGradient2874"
       gradientUnits="userSpaceOnUse"
       x1="506.48218"
       y1="394.94901"
       x2="626.01465"
       y2="550.56775" />
    <linearGradient
       inkscape:collect="always"
       xlink:href="#linearGradient5333"
       id="linearGradient2520"
       gradientUnits="userSpaceOnUse"
       x1="696.16772"
       y1="345.62885"
       x2="392.72235"
       y2="549.03717"
       gradientTransform="matrix(5.12,0,0,5.12,-1449.8393,-2083.9611)" />
    <linearGradient
       inkscape:collect="always"
       xlink:href="#linearGradient5341"
       id="linearGradient2523"
       gradientUnits="userSpaceOnUse"
       x1="506.48218"
       y1="394.94901"
       x2="626.01465"
       y2="550.56775"
       gradientTransform="matrix(5.12,0,0,5.12,-1449.8393,-2083.9611)" />
    <linearGradient
       inkscape:collect="always"
       xlink:href="#linearGradient5341"
       id="linearGradient2564"
       gradientUnits="userSpaceOnUse"
       gradientTransform="matrix(5.12,0,0,5.12,-1449.8393,-2083.9611)"
       x1="506.48218"
       y1="394.94901"
       x2="626.01465"
       y2="550.56775" />
    <linearGradient
       inkscape:collect="always"
       xlink:href="#linearGradient5333"
       id="linearGradient2566"
       gradientUnits="userSpaceOnUse"
       gradientTransform="matrix(5.12,0,0,5.12,-1449.8393,-2083.9611)"
       x1="696.16772"
       y1="345.62885"
       x2="392.72235"
       y2="549.03717" />
    <linearGradient
       inkscape:collect="always"
       xlink:href="#linearGradient5341"
       id="linearGradient2446"
       gradientUnits="userSpaceOnUse"
       gradientTransform="matrix(5.12,0,0,5.12,-1449.8393,-2083.9611)"
       x1="506.48218"
       y1="394.94901"
       x2="626.01465"
       y2="550.56775" />
    <linearGradient
       inkscape:collect="always"
       xlink:href="#linearGradient5333"
       id="linearGradient2448"
       gradientUnits="userSpaceOnUse"
       gradientTransform="matrix(5.12,0,0,5.12,-1449.8393,-2083.9611)"
       x1="696.16772"
       y1="345.62885"
       x2="392.72235"
       y2="549.03717" />
    <linearGradient
       inkscape:collect="always"
       xlink:href="#linearGradient5341"
       id="linearGradient2790"
       gradientUnits="userSpaceOnUse"
       gradientTransform="matrix(5.12,0,0,5.12,-1449.8393,-2083.9611)"
       x1="506.48218"
       y1="394.94901"
       x2="626.01465"
       y2="550.56775" />
    <linearGradient
       inkscape:collect="always"
       xlink:href="#linearGradient5333"
       id="linearGradient2792"
       gradientUnits="userSpaceOnUse"
       gradientTransform="matrix(5.12,0,0,5.12,-1449.8393,-2083.9611)"
       x1="696.16772"
       y1="345.62885"
       x2="392.72235"
       y2="549.03717" />
    <linearGradient
       inkscape:collect="always"
       xlink:href="#linearGradient5333"
       id="linearGradient2807"
       gradientUnits="userSpaceOnUse"
       gradientTransform="matrix(2.6300001,0,0,2.6300001,-718.6501,-715.69341)"
       x1="696.16772"
       y1="345.62885"
       x2="392.72235"
       y2="549.03717" />
    <linearGradient
       inkscape:collect="always"
       xlink:href="#linearGradient5341"
       id="linearGradient2811"
       gradientUnits="userSpaceOnUse"
       gradientTransform="matrix(2.6300001,0,0,2.6300001,-718.6501,-715.69341)"
       x1="506.48218"
       y1="394.94901"
       x2="626.01465"
       y2="550.56775" />
    <linearGradient
       inkscape:collect="always"
       xlink:href="#linearGradient5341"
       id="linearGradient2825"
       gradientUnits="userSpaceOnUse"
       gradientTransform="matrix(2.6300001,0,0,2.6300001,-718.6501,-715.69341)"
       x1="506.48218"
       y1="394.94901"
       x2="626.01465"
       y2="550.56775" />
    <linearGradient
       inkscape:collect="always"
       xlink:href="#linearGradient5333"
       id="linearGradient2827"
       gradientUnits="userSpaceOnUse"
       gradientTransform="matrix(2.6300001,0,0,2.6300001,-718.6501,-715.69341)"
       x1="696.16772"
       y1="345.62885"
       x2="392.72235"
       y2="549.03717" />
    <linearGradient
       inkscape:collect="always"
       xlink:href="#linearGradient5333"
       id="linearGradient2837"
       gradientUnits="userSpaceOnUse"
       gradientTransform="matrix(2.6300001,0,0,2.6300001,-718.6501,-715.69341)"
       x1="696.16772"
       y1="345.62885"
       x2="392.72235"
       y2="549.03717" />
    <linearGradient
       inkscape:collect="always"
       xlink:href="#linearGradient5341"
       id="linearGradient2841"
       gradientUnits="userSpaceOnUse"
       gradientTransform="matrix(2.6300001,0,0,2.6300001,-718.6501,-715.69341)"
       x1="506.48218"
       y1="394.94901"
       x2="626.01465"
       y2="550.56775" />
    <linearGradient
       inkscape:collect="always"
       xlink:href="#linearGradient5341"
       id="linearGradient2858"
       gradientUnits="userSpaceOnUse"
       gradientTransform="matrix(2.6300001,0,0,2.6300001,-718.6501,-715.69341)"
       x1="506.48218"
       y1="394.94901"
       x2="626.01465"
       y2="550.56775" />
    <linearGradient
       inkscape:collect="always"
       xlink:href="#linearGradient5333"
       id="linearGradient2860"
       gradientUnits="userSpaceOnUse"
       gradientTransform="matrix(2.6300001,0,0,2.6300001,-718.6501,-715.69341)"
       x1="696.16772"
       y1="345.62885"
       x2="392.72235"
       y2="549.03717" />
    <linearGradient
       inkscape:collect="always"
       xlink:href="#linearGradient5341"
       id="linearGradient2893"
       gradientUnits="userSpaceOnUse"
       gradientTransform="matrix(2.6300001,0,0,2.6300001,-718.6501,-715.69341)"
       x1="506.48218"
       y1="394.94901"
       x2="626.01465"
       y2="550.56775" />
    <linearGradient
       inkscape:collect="always"
       xlink:href="#linearGradient5333"
       id="linearGradient2895"
       gradientUnits="userSpaceOnUse"
       gradientTransform="matrix(2.6300001,0,0,2.6300001,-718.6501,-715.69341)"
       x1="696.16772"
       y1="345.62885"
       x2="392.72235"
       y2="549.03717" />
    <linearGradient
       inkscape:collect="always"
       xlink:href="#linearGradient5333"
       id="linearGradient2905"
       gradientUnits="userSpaceOnUse"
       gradientTransform="matrix(2.6300001,0,0,2.6300001,-718.6501,-715.69341)"
       x1="696.16772"
       y1="345.62885"
       x2="392.72235"
       y2="549.03717" />
    <linearGradient
       inkscape:collect="always"
       xlink:href="#linearGradient5341"
       id="linearGradient2908"
       gradientUnits="userSpaceOnUse"
       gradientTransform="matrix(2.6300001,0,0,2.6300001,-718.6501,-715.69341)"
       x1="506.48218"
       y1="394.94901"
       x2="626.01465"
       y2="550.56775" />
    <clipPath
       clipPathUnits="userSpaceOnUse"
       id="clipPath2910">
      <rect
         clip-path="none"
         y="-14.49493"
         x="53.650211"
         height="744"
         width="1052"
         id="rect2912"
         style="opacity:1;fill:#ffffff;fill-opacity:1;stroke:none;stroke-width:10;stroke-linecap:round;stroke-linejoin:round;stroke-miterlimit:4;stroke-dasharray:none;stroke-dashoffset:0;stroke-opacity:1" />
    </clipPath>
    <clipPath
       clipPathUnits="userSpaceOnUse"
       id="clipPath2914">
      <rect
         clip-path="none"
         y="-14.49493"
         x="53.650211"
         height="744"
         width="1052"
         id="rect2916"
         style="opacity:1;fill:#ffffff;fill-opacity:1;stroke:none;stroke-width:10;stroke-linecap:round;stroke-linejoin:round;stroke-miterlimit:4;stroke-dasharray:none;stroke-dashoffset:0;stroke-opacity:1" />
    </clipPath>
    <clipPath
       clipPathUnits="userSpaceOnUse"
       id="clipPath2918">
      <rect
         clip-path="none"
         y="-14.49493"
         x="53.650211"
         height="744"
         width="1052"
         id="rect2920"
         style="opacity:1;fill:#ffffff;fill-opacity:1;stroke:none;stroke-width:10;stroke-linecap:round;stroke-linejoin:round;stroke-miterlimit:4;stroke-dasharray:none;stroke-dashoffset:0;stroke-opacity:1" />
    </clipPath>
    <clipPath
       clipPathUnits="userSpaceOnUse"
       id="clipPath2922">
      <rect
         clip-path="none"
         y="34.424435"
         x="268.95926"
         height="109.98506"
         width="155.51651"
         id="rect2924"
         style="opacity:1;fill:#ffffff;fill-opacity:1;stroke:none;stroke-width:10;stroke-linecap:round;stroke-linejoin:round;stroke-miterlimit:4;stroke-dasharray:none;stroke-dashoffset:0;stroke-opacity:1"
         transform="matrix(0.7141496,0.6999931,0.6999931,-0.7141496,0,0)" />
    </clipPath>
    <clipPath
       clipPathUnits="userSpaceOnUse"
       id="clipPath2926">
      <rect
         clip-path="none"
         y="37.355591"
         x="130.75874"
         height="191.26373"
         width="270.44281"
         id="rect2928"
         style="opacity:1;fill:#ffffff;fill-opacity:1;stroke:none;stroke-width:10;stroke-linecap:round;stroke-linejoin:round;stroke-miterlimit:4;stroke-dasharray:none;stroke-dashoffset:0;stroke-opacity:1" />
    </clipPath>
    <clipPath
       clipPathUnits="userSpaceOnUse"
       id="clipPath2930">
      <rect
         clip-path="none"
         y="-14.49493"
         x="53.650211"
         height="744"
         width="1052"
         id="rect2932"
         style="opacity:1;fill:#ffffff;fill-opacity:1;stroke:none;stroke-width:10;stroke-linecap:round;stroke-linejoin:round;stroke-miterlimit:4;stroke-dasharray:none;stroke-dashoffset:0;stroke-opacity:1" />
    </clipPath>
    <clipPath
       clipPathUnits="userSpaceOnUse"
       id="clipPath2934">
      <rect
         clip-path="none"
         y="-14.49493"
         x="53.650211"
         height="744"
         width="1052"
         id="rect2936"
         style="opacity:1;fill:#ffffff;fill-opacity:1;stroke:none;stroke-width:10;stroke-linecap:round;stroke-linejoin:round;stroke-miterlimit:4;stroke-dasharray:none;stroke-dashoffset:0;stroke-opacity:1" />
    </clipPath>
  </defs>
  <sodipodi:namedview
     id="base"
     pagecolor="#ffffff"
     bordercolor="#666666"
     borderopacity="1.0"
     gridtolerance="10000"
     guidetolerance="10"
     objecttolerance="10"
     inkscape:pageopacity="0.0"
     inkscape:pageshadow="2"
     inkscape:zoom="0.67204301"
     inkscape:cx="526"
     inkscape:cy="372"
     inkscape:document-units="px"
     inkscape:current-layer="layer1"
     showgrid="false"
     showborder="false"
     inkscape:showpageshadow="false"
     inkscape:window-width="1360"
     inkscape:window-height="693"
     inkscape:window-x="0"
     inkscape:window-y="25"
     showguides="true"
     inkscape:guide-bbox="true" />
  <metadata
     id="metadata57254">
    <rdf:RDF>
      <cc:Work
         rdf:about="">
        <dc:format>image/svg+xml</dc:format>
        <dc:type
           rdf:resource="http://purl.org/dc/dcmitype/StillImage" />
        <cc:license
           rdf:resource="http://creativecommons.org/licenses/by-sa/3.0/" />
        <dc:title>TreeFlower's Background</dc:title>
        <dc:date>2010-04-23</dc:date>
        <dc:creator>
          <cc:Agent>
            <dc:title>Alain Reguera Delgado</dc:title>
          </cc:Agent>
        </dc:creator>
        <dc:rights>
          <cc:Agent>
            <dc:title>The CentOS Project</dc:title>
          </cc:Agent>
        </dc:rights>
        <dc:publisher>
          <cc:Agent>
            <dc:title>The CentOS Project</dc:title>
          </cc:Agent>
        </dc:publisher>
        <dc:description>Background image for 2048x1536 and related resolutions.</dc:description>
        <dc:coverage>The CentOS Project</dc:coverage>
      </cc:Work>
      <cc:License
         rdf:about="http://creativecommons.org/licenses/by-sa/3.0/">
        <cc:permits
           rdf:resource="http://creativecommons.org/ns#Reproduction" />
        <cc:permits
           rdf:resource="http://creativecommons.org/ns#Distribution" />
        <cc:requires
           rdf:resource="http://creativecommons.org/ns#Notice" />
        <cc:requires
           rdf:resource="http://creativecommons.org/ns#Attribution" />
        <cc:permits
           rdf:resource="http://creativecommons.org/ns#DerivativeWorks" />
        <cc:requires
           rdf:resource="http://creativecommons.org/ns#ShareAlike" />
      </cc:License>
    </rdf:RDF>
  </metadata>
  <g
     inkscape:label="Layer 1"
     inkscape:groupmode="layer"
     id="layer1"
     transform="translate(-53.650211,14.49493)">
    <g
       id="CENTOSARTWORK"
       inkscape:label="#g2938">
      <path
         clip-path="url(#clipPath2934)"
         sodipodi:nodetypes="cssscczz"
         style="fill:url(#linearGradient2908);fill-opacity:1;stroke:none;stroke-width:1;stroke-linejoin:round;stroke-miterlimit:4;stroke-dasharray:none;stroke-dashoffset:0;stroke-opacity:1"
         d="M 156.2337,-14.812207 C 562.15205,-14.812207 891.75019,337.20716 891.75019,771.21056 C 891.75019,1205.2139 562.15205,1557.6164 156.2337,1557.6165 C -249.6847,1557.6165 -579.28275,1205.2139 -579.2828,771.21056 C -579.2828,337.20716 -249.6847,-14.812078 156.2337,-14.812207 z M -45.986516,732.74887 C -39.513217,1327.4685 733.01725,1404.9958 733.01725,763.8362 C 733.01725,130.04757 -52.541395,130.5313 -45.986516,732.74887 z"
         id="path2856" />
      <path
         clip-path="url(#clipPath2930)"
         id="path2858"
         d="M 996.52904,193.31049 C 619.96926,193.31049 314.20975,498.73745 314.20975,875.29728 C 314.20975,1251.857 619.96926,1557.6164 996.52904,1557.6165 C 1373.0889,1557.6165 1807.8996,1115.4313 1807.8997,738.87148 C 1807.8997,362.31166 1373.0889,193.31059 996.52904,193.31049 z M 1037.0881,1431.7335 C 762.51322,1431.7335 195.72254,1452.3681 440.09276,827.36388 C 685.90095,198.68187 1665.8279,589.9539 1037.0881,1431.7335 z"
         style="fill:url(#linearGradient2905);fill-opacity:1;stroke:none;stroke-width:1;stroke-linejoin:round;stroke-miterlimit:4;stroke-dasharray:none;stroke-dashoffset:0;stroke-opacity:1"
         sodipodi:nodetypes="cssscczc" />
      <path
         clip-path="url(#clipPath2926)"
         sodipodi:type="arc"
         style="fill:none;fill-opacity:1;stroke:#002974;stroke-width:6.9840126;stroke-linecap:round;stroke-linejoin:round;stroke-miterlimit:4;stroke-dasharray:none;stroke-dashoffset:0;stroke-opacity:1"
         id="path2860"
         sodipodi:cx="364.51242"
         sodipodi:cy="249.52905"
         sodipodi:rx="159.82468"
         sodipodi:ry="159.82468"
         d="M 524.3371,249.52905 A 159.82468,159.82468 0 1 1 204.68774,249.52905 A 159.82468,159.82468 0 1 1 524.3371,249.52905 z"
         transform="matrix(3.8899167,0,0,3.8899167,-454.9904,-159.80507)" />
      <g
         clip-path="url(#clipPath2922)"
         transform="matrix(4.8309044,4.7351419,4.7351419,-4.8309044,-1765.7395,-247.36091)"
         id="g2862"
         style="fill:#002974;fill-opacity:1">
        <path
           id="path2864"
           style="fill:#002974;fill-opacity:1;fill-rule:evenodd;stroke:none;stroke-width:1px;stroke-linecap:butt;stroke-linejoin:miter;stroke-opacity:1"
           d="M 225.7785,132.74383 C 225.78369,132.74295 225.7787,132.74312 225.7785,132.74383 C 225.75982,132.81026 225.8177,132.72445 225.7785,132.74383 C 225.25769,133.00106 225.30159,132.50817 225.49164,132.30399 C 225.97779,131.78167 226.82161,132.1681 227.18917,132.64765 C 228.11964,133.86162 227.29786,135.54178 226.15828,136.26839 C 223.74709,137.8058 220.69873,136.21715 219.44201,133.95043 C 217.08683,129.7025 219.8561,124.62599 223.86584,122.63601 C 230.74947,119.21975 238.6715,123.69208 241.63061,130.21916 C 246.38465,140.70548 239.57189,152.45582 229.58627,156.65337 C 214.35455,163.05624 197.62035,153.14527 191.88064,138.58522 C 183.48298,117.28264 197.37525,94.22949 217.80745,86.608856 C 246.69554,75.834423 277.58864,94.721249 287.46481,122.51158 M 225.7785,132.74383 C 225.78169,132.748 225.7792,132.74367 225.7785,132.74383 C 225.71109,132.75865 225.77416,132.78737 225.7785,132.74383 C 225.80514,132.47564 226.06883,132.30304 226.26965,132.36479 C 226.95168,132.57454 227.01621,133.47384 226.76642,134.024 C 226.13412,135.41671 224.26497,135.48361 223.08709,134.82086 C 220.59489,133.41857 220.55968,129.98129 221.9668,127.80472 C 224.60379,123.72574 230.38628,123.77617 234.03092,126.37514 C 240.28776,130.83689 240.076,139.93169 235.71336,145.6173 C 228.70438,154.75173 215.1301,154.27962 206.72241,147.45003 C 193.89763,137.03243 194.75397,117.60238 204.89162,105.67897 C 219.72386,88.234058 246.82276,89.379683 262.95284,104.05512 C 285.38801,124.46704 270.99714,134.32774 287.46481,122.51158"
           sodipodi:nodetypes="csssssssssssccsssssssssssc" />
        <path
           id="path2866"
           style="fill:#002974;fill-opacity:1;fill-rule:evenodd;stroke:none;stroke-width:1px;stroke-linecap:butt;stroke-linejoin:miter;stroke-opacity:1"
           d="M 289.46772,101.63923 C 289.46673,101.64012 289.46754,101.63916 289.46772,101.63923 C 289.48392,101.646 289.45767,101.64399 289.46772,101.63923 C 289.60123,101.5759 289.49594,101.50687 289.42521,101.51257 C 289.24425,101.52718 289.18821,101.75656 289.2259,101.90559 C 289.32134,102.28284 289.78633,102.38399 290.11117,102.27124 C 290.7985,102.03265 290.96253,101.17359 290.70847,100.56509 C 290.2324,99.424698 288.78227,99.176238 287.75235,99.662419 C 285.98427,100.49706 285.62663,102.78382 286.46226,104.4044 C 287.80476,107.008 291.22488,107.50271 293.6384,106.17232 C 297.31994,104.14297 297.98284,99.239302 295.98288,95.796117 C 293.05679,90.758445 286.26378,89.8929 281.51853,92.767914 C 274.80948,96.832766 273.70345,105.97858 277.69098,112.33513 M 289.46772,101.63923 C 289.46805,101.64054 289.46758,101.63935 289.46772,101.63923 C 289.48131,101.62812 289.47709,101.64523 289.46772,101.63923 C 289.40999,101.60223 289.33393,101.62762 289.31456,101.67744 C 289.24879,101.84665 289.41808,102.00145 289.56728,102.03842 C 289.94502,102.13201 290.25334,101.76955 290.30696,101.42988 C 290.4204,100.71123 289.73997,100.16178 289.08355,100.0991 C 287.85336,99.981655 286.9509,101.14362 286.89442,102.28111 C 286.79745,104.23389 288.6459,105.62688 290.46904,105.65348 C 293.39807,105.6962 295.446,102.91271 295.40985,100.15702 C 295.35469,95.95359 291.34193,93.058249 287.36258,93.19977 C 281.54044,93.406838 277.49261,98.995722 277.87588,104.53071 C 278.40897,112.22926 282.64788,110.91342 277.69098,112.33513"
           sodipodi:nodetypes="csssssssssssccsssssssssssc" />
      </g>
      <path
         clip-path="url(#clipPath2918)"
         sodipodi:nodetypes="csccsc"
         d="M 748.84533,-1556.6916 C 833.98517,-1245.8956 1024.5392,-1001.2088 502.60016,-557.02725 C -19.338537,-112.84551 102.42305,645.16839 389.84535,954.97647 C 677.26767,1264.7846 745.63319,1215.9597 460.45899,900.82569 C 175.28452,585.69185 40.499857,-106.41161 535.50578,-534.33558 C 1030.5116,-962.25962 840.43046,-1246.7178 749.28308,-1554.4348"
         style="fill:#002974;fill-opacity:1;fill-rule:evenodd;stroke:none;stroke-width:1px;stroke-linecap:butt;stroke-linejoin:miter;stroke-opacity:1"
         id="path2868" />
      <path
         clip-path="url(#clipPath2914)"
         sodipodi:nodetypes="csssssssssssccsssssssssssc"
         d="M 1006.2162,78.431289 C 1006.2068,78.432131 1006.2156,78.430184 1006.2162,78.431289 C 1006.2779,78.537624 1006.1399,78.415355 1006.2162,78.431289 C 1007.229,78.643271 1006.9339,77.812612 1006.5152,77.545009 C 1005.4442,76.860418 1004.1607,77.902453 1003.7401,78.893198 C 1002.6753,81.401247 1004.8406,83.933727 1007.1295,84.679907 C 1011.9728,86.258749 1016.524,82.161892 1017.683,77.692788 C 1019.855,69.317419 1012.8192,61.793225 1005.0172,60.145139 C 991.62321,57.315675 979.94873,68.55551 977.74914,81.130984 C 974.21549,101.33457 991.19599,118.57106 1010.2883,121.3677 C 1039.411,125.63364 1063.8654,101.09113 1067.2864,73.422063 C 1072.2916,32.93994 1038.0697,-0.64237228 999.43467,-4.6945707 C 944.81049,-10.423815 901.93425,34.678874 897.26595,87.009748 M 1006.2162,78.431289 C 1006.2125,78.439944 1006.2149,78.431371 1006.2162,78.431289 C 1006.339,78.426897 1006.243,78.504513 1006.2162,78.431289 C 1006.0508,77.980562 1005.5192,77.800248 1005.2003,77.996106 C 1004.1172,78.661388 1004.4061,80.241309 1005.0818,81.079149 C 1006.7923,83.200085 1010.0461,82.483672 1011.7829,80.816283 C 1015.4577,77.288374 1013.9887,71.343757 1010.593,68.215557 C 1004.2292,62.353178 994.27741,65.013506 989.14726,71.118368 C 980.34041,81.598887 984.75295,97.192369 994.80834,105.05807 C 1010.9632,117.69506 1034.1675,110.83994 1045.6307,95.317893 C 1063.1163,71.641234 1052.9925,38.507311 1030.1998,22.451895 C 996.85229,-1.0384236 950.61894,12.997178 929.32683,45.489119 C 899.7118,90.681886 925.72717,96.565432 897.26595,87.009748"
         style="fill:#002974;fill-opacity:1;fill-rule:evenodd;stroke:none;stroke-width:1px;stroke-linecap:butt;stroke-linejoin:miter;stroke-opacity:1"
         id="path2870" />
      <path
         clip-path="url(#clipPath2910)"
         sodipodi:nodetypes="csccssccc"
         id="path2872"
         d="M 835.5063,-134.2033 C 832.16363,-132.13872 836.55255,-136.64207 836.02049,-132.74941 C 835.48848,-128.85669 835.77238,-127.56686 838.43855,-124.68102 C 913.22291,-41.78257 912.80714,86.470963 856.40684,182.82378 C 854.02623,186.88243 853.99531,191.90367 856.32584,195.9913 C 858.65626,200.07892 862.99299,202.61003 867.69833,202.62881 C 872.40356,202.64757 876.76032,200.15112 879.12336,196.08219 C 930.64661,98.307412 932.40506,-40.786407 850.36467,-131.72815 C 846.1238,-136.51441 840.94778,-137.56236 835.5063,-134.2033 z"
         style="fill:#002974;fill-opacity:1;stroke:none;stroke-width:10;stroke-linecap:round;stroke-linejoin:round;stroke-miterlimit:4;stroke-dasharray:none;stroke-dashoffset:0;stroke-opacity:1" />
    </g>
  </g>
</svg>
