<?xml version="1.0" encoding="UTF-8" standalone="no"?>
<!-- Created with Inkscape (http://www.inkscape.org/) -->
<svg
   xmlns:dc="http://purl.org/dc/elements/1.1/"
   xmlns:cc="http://creativecommons.org/ns#"
   xmlns:rdf="http://www.w3.org/1999/02/22-rdf-syntax-ns#"
   xmlns:svg="http://www.w3.org/2000/svg"
   xmlns="http://www.w3.org/2000/svg"
   xmlns:xlink="http://www.w3.org/1999/xlink"
   xmlns:sodipodi="http://sodipodi.sourceforge.net/DTD/sodipodi-0.dtd"
   xmlns:inkscape="http://www.inkscape.org/namespaces/inkscape"
   width="260"
   height="130"
   id="svg2"
   sodipodi:version="0.32"
   inkscape:version="0.46"
   version="1.0"
   sodipodi:docname="260x130.svg"
   inkscape:output_extension="org.inkscape.output.svg.inkscape">
  <defs
     id="defs4">
    <linearGradient
       id="linearGradient5333">
      <stop
         style="stop-color:#2c67bd;stop-opacity:1;"
         offset="0"
         id="stop5335" />
      <stop
         style="stop-color:#95b7e9;stop-opacity:0;"
         offset="1"
         id="stop5337" />
    </linearGradient>
    <linearGradient
       inkscape:collect="always"
       xlink:href="#linearGradient5333"
       id="linearGradient2876"
       gradientUnits="userSpaceOnUse"
       x1="696.16772"
       y1="345.62885"
       x2="455.38019"
       y2="508.77591"
       gradientTransform="matrix(1.211854,0,0,1.2719438,-172.3602,-105.65219)" />
    <linearGradient
       id="linearGradient5341">
      <stop
         style="stop-color:#114696;stop-opacity:1;"
         offset="0"
         id="stop5343" />
      <stop
         style="stop-color:#114696;stop-opacity:0;"
         offset="1"
         id="stop5345" />
    </linearGradient>
    <linearGradient
       inkscape:collect="always"
       xlink:href="#linearGradient5341"
       id="linearGradient2874"
       gradientUnits="userSpaceOnUse"
       x1="506.48218"
       y1="394.94901"
       x2="626.01465"
       y2="550.56775"
       gradientTransform="matrix(1.2262554,0,0,1.2950581,83.25179,-34.90079)" />
    <inkscape:perspective
       sodipodi:type="inkscape:persp3d"
       inkscape:vp_x="0 : 526.18109 : 1"
       inkscape:vp_y="0 : 1000 : 0"
       inkscape:vp_z="744.09448 : 526.18109 : 1"
       inkscape:persp3d-origin="372.04724 : 350.78739 : 1"
       id="perspective10" />
    <inkscape:perspective
       id="perspective2467"
       inkscape:persp3d-origin="372.04724 : 350.78739 : 1"
       inkscape:vp_z="744.09448 : 526.18109 : 1"
       inkscape:vp_y="0 : 1000 : 0"
       inkscape:vp_x="0 : 526.18109 : 1"
       sodipodi:type="inkscape:persp3d" />
    <clipPath
       clipPathUnits="userSpaceOnUse"
       id="clipPath2570">
      <rect
         style="opacity:1;fill:#ffffff;fill-opacity:1;stroke:none;stroke-width:10;stroke-linecap:round;stroke-linejoin:round;stroke-miterlimit:4;stroke-dasharray:none;stroke-dashoffset:0;stroke-opacity:1"
         id="rect2572"
         width="600.00006"
         height="300"
         x="93.650261"
         y="249.50511" />
    </clipPath>
    <linearGradient
       inkscape:collect="always"
       xlink:href="#linearGradient5341"
       id="linearGradient2575"
       gradientUnits="userSpaceOnUse"
       gradientTransform="matrix(1.1826714,0.2878448,-0.3275987,1.2834946,36.420558,-173.00973)"
       x1="343.56549"
       y1="257.48511"
       x2="540.56641"
       y2="444.12045" />
  </defs>
  <sodipodi:namedview
     id="base"
     pagecolor="#ffffff"
     bordercolor="#666666"
     borderopacity="1.0"
     gridtolerance="10000"
     guidetolerance="10"
     objecttolerance="10"
     inkscape:pageopacity="0.0"
     inkscape:pageshadow="2"
     inkscape:zoom="0.96153846"
     inkscape:cx="66.250885"
     inkscape:cy="16.852501"
     inkscape:document-units="px"
     inkscape:current-layer="g2854"
     showgrid="false"
     inkscape:showpageshadow="false"
     inkscape:window-width="1360"
     inkscape:window-height="693"
     inkscape:window-x="0"
     inkscape:window-y="25" />
  <metadata
     id="metadata7">
    <rdf:RDF>
      <cc:Work
         rdf:about="">
        <dc:format>image/svg+xml</dc:format>
        <dc:type
           rdf:resource="http://purl.org/dc/dcmitype/StillImage" />
        <cc:license
           rdf:resource="http://creativecommons.org/licenses/by-sa/3.0/" />
        <dc:creator>
          <cc:Agent>
            <dc:title>Alain Reguera Delgado</dc:title>
          </cc:Agent>
        </dc:creator>
        <dc:rights>
          <cc:Agent>
            <dc:title>Alain Reguera Delgado</dc:title>
          </cc:Agent>
        </dc:rights>
        <dc:publisher>
          <cc:Agent>
            <dc:title>The CentOS Project</dc:title>
          </cc:Agent>
        </dc:publisher>
        <dc:description>Background image used to promote distribution releases in the countdown.</dc:description>
        <dc:title />
        <dc:date>2010-09-30</dc:date>
      </cc:Work>
      <cc:License
         rdf:about="http://creativecommons.org/licenses/by-sa/3.0/">
        <cc:permits
           rdf:resource="http://creativecommons.org/ns#Reproduction" />
        <cc:permits
           rdf:resource="http://creativecommons.org/ns#Distribution" />
        <cc:requires
           rdf:resource="http://creativecommons.org/ns#Notice" />
        <cc:requires
           rdf:resource="http://creativecommons.org/ns#Attribution" />
        <cc:permits
           rdf:resource="http://creativecommons.org/ns#DerivativeWorks" />
        <cc:requires
           rdf:resource="http://creativecommons.org/ns#ShareAlike" />
      </cc:License>
    </rdf:RDF>
  </metadata>
  <g
     inkscape:label="Layer 1"
     inkscape:groupmode="layer"
     id="layer1">
    <image
       y="0"
       x="0"
       id="CENTOSARTWORK"
       height="130"
       width="260"
       sodipodi:absref="/home/centos/artwork/trunk/Identity/Themes/Motifs/TreeFlower/Backgrounds/Img/260x130-bg.png"
       xlink:href="/home/centos/artwork/trunk/Identity/Themes/Motifs/TreeFlower/Backgrounds/Img/260x130-bg.png"
       inkscape:label="#image2469" />
    <g
       style="display:inline"
       transform="matrix(0.4333333,0,0,0.4333333,-40.581776,-108.11887)"
       id="g2854"
       clip-path="url(#clipPath2570)">
      <path
         sodipodi:nodetypes="cssscczz"
         style="opacity:1;fill:url(#linearGradient2575);fill-opacity:1;stroke:none;stroke-width:1;stroke-linejoin:round;stroke-miterlimit:4;stroke-dasharray:none;stroke-dashoffset:0;stroke-opacity:1"
         d="M 342.53929,264.78799 C 525.07468,309.21443 629.44169,517.08062 575.38124,728.88329 C 521.32081,940.68594 329.20944,1076.5922 146.67402,1032.1658 C -35.861363,987.73941 -140.1806,779.6862 -86.120212,567.88354 C -32.059771,356.08087 160.00388,220.36163 342.53929,264.78799 z M 158.486,607.48098 C 121.73849,902.06288 425.0557,1020.8108 504.91997,707.91166 C 583.8661,398.60963 194.99082,314.84453 158.486,607.48098 z"
         id="path2856" />
      <path
         id="path2858"
         d="M 617.96174,333.96824 C 444.45015,333.96824 303.562,481.68154 303.562,663.79671 C 303.562,845.91186 444.45015,993.78594 617.96174,993.78594 C 791.47335,993.78594 986.68666,789.18315 986.68675,607.06801 C 986.68675,424.95283 746.2475,333.96831 617.96174,333.96824 z M 703.75339,924.07597 C 577.23454,924.07597 286.48078,934.52372 385.74219,638.84887 C 484.25786,345.39534 881.00321,515.57762 703.75339,924.07597 z"
         style="opacity:1;fill:url(#linearGradient2876);fill-opacity:1;stroke:none;stroke-width:1;stroke-linejoin:round;stroke-miterlimit:4;stroke-dasharray:none;stroke-dashoffset:0;stroke-opacity:1"
         sodipodi:nodetypes="cssscczc" />
      <path
         sodipodi:type="arc"
         style="opacity:1;fill:none;fill-opacity:1;stroke:#002974;stroke-width:6.9840126;stroke-linecap:round;stroke-linejoin:round;stroke-miterlimit:4;stroke-dasharray:none;stroke-dashoffset:0;stroke-opacity:1"
         id="path2860"
         sodipodi:cx="364.51242"
         sodipodi:cy="249.52905"
         sodipodi:rx="159.82468"
         sodipodi:ry="159.82468"
         d="M 524.3371,249.52905 A 159.82468,159.82468 0 1 1 204.68774,249.52905 A 159.82468,159.82468 0 1 1 524.3371,249.52905 z"
         transform="matrix(1.8673497,0,0,1.8673497,-65.586978,165.79253)" />
      <g
         transform="matrix(2.590959,2.5395987,2.5395987,-2.590959,-870.32343,82.276338)"
         id="g2862"
         style="opacity:1;fill:#002974;fill-opacity:1">
        <path
           id="path2864"
           style="fill:#002974;fill-opacity:1;fill-rule:evenodd;stroke:none;stroke-width:1px;stroke-linecap:butt;stroke-linejoin:miter;stroke-opacity:1"
           d="M 225.7785,132.74383 C 225.78369,132.74295 225.7787,132.74312 225.7785,132.74383 C 225.75982,132.81026 225.8177,132.72445 225.7785,132.74383 C 225.25769,133.00106 225.30159,132.50817 225.49164,132.30399 C 225.97779,131.78167 226.82161,132.1681 227.18917,132.64765 C 228.11964,133.86162 227.29786,135.54178 226.15828,136.26839 C 223.74709,137.8058 220.69873,136.21715 219.44201,133.95043 C 217.08683,129.7025 219.8561,124.62599 223.86584,122.63601 C 230.74947,119.21975 238.6715,123.69208 241.63061,130.21916 C 246.38465,140.70548 239.57189,152.45582 229.58627,156.65337 C 214.35455,163.05624 197.62035,153.14527 191.88064,138.58522 C 183.48298,117.28264 197.37525,94.22949 217.80745,86.608856 C 246.69554,75.834423 277.58864,94.721249 287.46481,122.51158 M 225.7785,132.74383 C 225.78169,132.748 225.7792,132.74367 225.7785,132.74383 C 225.71109,132.75865 225.77416,132.78737 225.7785,132.74383 C 225.80514,132.47564 226.06883,132.30304 226.26965,132.36479 C 226.95168,132.57454 227.01621,133.47384 226.76642,134.024 C 226.13412,135.41671 224.26497,135.48361 223.08709,134.82086 C 220.59489,133.41857 220.55968,129.98129 221.9668,127.80472 C 224.60379,123.72574 230.38628,123.77617 234.03092,126.37514 C 240.28776,130.83689 240.076,139.93169 235.71336,145.6173 C 228.70438,154.75173 215.1301,154.27962 206.72241,147.45003 C 193.89763,137.03243 194.75397,117.60238 204.89162,105.67897 C 219.72386,88.234058 246.82276,89.379683 262.95284,104.05512 C 285.38801,124.46704 270.99714,134.32774 287.46481,122.51158"
           sodipodi:nodetypes="csssssssssssccsssssssssssc" />
        <path
           id="path2866"
           style="fill:#002974;fill-opacity:1;fill-rule:evenodd;stroke:none;stroke-width:1px;stroke-linecap:butt;stroke-linejoin:miter;stroke-opacity:1"
           d="M 289.46772,101.63923 C 289.46673,101.64012 289.46754,101.63916 289.46772,101.63923 C 289.48392,101.646 289.45767,101.64399 289.46772,101.63923 C 289.60123,101.5759 289.49594,101.50687 289.42521,101.51257 C 289.24425,101.52718 289.18821,101.75656 289.2259,101.90559 C 289.32134,102.28284 289.78633,102.38399 290.11117,102.27124 C 290.7985,102.03265 290.96253,101.17359 290.70847,100.56509 C 290.2324,99.424698 288.78227,99.176238 287.75235,99.662419 C 285.98427,100.49706 285.62663,102.78382 286.46226,104.4044 C 287.80476,107.008 291.22488,107.50271 293.6384,106.17232 C 297.31994,104.14297 297.98284,99.239302 295.98288,95.796117 C 293.05679,90.758445 286.26378,89.8929 281.51853,92.767914 C 274.80948,96.832766 273.70345,105.97858 277.69098,112.33513 M 289.46772,101.63923 C 289.46805,101.64054 289.46758,101.63935 289.46772,101.63923 C 289.48131,101.62812 289.47709,101.64523 289.46772,101.63923 C 289.40999,101.60223 289.33393,101.62762 289.31456,101.67744 C 289.24879,101.84665 289.41808,102.00145 289.56728,102.03842 C 289.94502,102.13201 290.25334,101.76955 290.30696,101.42988 C 290.4204,100.71123 289.73997,100.16178 289.08355,100.0991 C 287.85336,99.981655 286.9509,101.14362 286.89442,102.28111 C 286.79745,104.23389 288.6459,105.62688 290.46904,105.65348 C 293.39807,105.6962 295.446,102.91271 295.40985,100.15702 C 295.35469,95.95359 291.34193,93.058249 287.36258,93.19977 C 281.54044,93.406838 277.49261,98.995722 277.87588,104.53071 C 278.40897,112.22926 282.64788,110.91342 277.69098,112.33513"
           sodipodi:nodetypes="csssssssssssccsssssssssssc" />
      </g>
      <path
         sodipodi:nodetypes="csccsc"
         d="M 478.32385,-619.95697 C 523.98692,-453.26777 626.18673,-322.0349 346.25519,-83.806993 C 66.32381,154.42099 131.6282,560.96658 285.78141,727.12596 C 439.93462,893.28534 476.6011,867.09905 323.65362,698.08326 C 170.706,529.06754 98.416938,157.87168 363.90346,-71.636793 C 629.38992,-301.14527 527.4437,-453.70871 478.55864,-618.74658"
         style="opacity:1;fill:#002974;fill-opacity:1;fill-rule:evenodd;stroke:none;stroke-width:1px;stroke-linecap:butt;stroke-linejoin:miter;stroke-opacity:1"
         id="path2868" />
      <path
         sodipodi:nodetypes="csssssssssssccsssssssssssc"
         d="M 651.59484,285.53422 C 651.58995,285.53466 651.59449,285.53365 651.59484,285.53422 C 651.627,285.58964 651.55511,285.52593 651.59484,285.53422 C 652.12268,285.6447 651.96889,285.21179 651.75067,285.07233 C 651.1925,284.71555 650.52356,285.25862 650.30438,285.77495 C 649.74945,287.08205 650.87791,288.40189 652.07085,288.79077 C 654.59498,289.61361 656.96686,287.47848 657.57089,285.14935 C 658.70288,280.78442 655.03608,276.86311 650.96996,276.00419 C 643.98954,274.52959 637.90526,280.38736 636.75892,286.94119 C 634.9173,297.47053 643.76689,306.45354 653.71707,307.91104 C 668.89469,310.13428 681.63941,297.34366 683.42231,282.9236 C 686.03083,261.82587 668.19564,244.32407 648.06059,242.21221 C 619.59255,239.22636 597.2471,262.73214 594.81413,290.00499 M 651.59484,285.53422 C 651.59292,285.53873 651.59417,285.53428 651.59484,285.53422 C 651.65887,285.53194 651.60883,285.57239 651.59484,285.53422 C 651.50865,285.29932 651.2316,285.20536 651.06539,285.30743 C 650.50094,285.65415 650.65149,286.47754 651.00361,286.91418 C 651.89504,288.01954 653.59085,287.64617 654.496,286.77719 C 656.41116,284.93858 655.64558,281.84048 653.87585,280.21017 C 650.55931,277.15493 645.3728,278.54138 642.69918,281.72302 C 638.10936,287.18507 640.40903,295.31178 645.64949,299.41108 C 654.06877,305.997 666.16198,302.42439 672.13618,294.33487 C 681.24902,281.99551 675.97285,264.72737 664.09417,256.35992 C 646.71473,244.11767 622.61968,251.43247 611.52307,268.36604 C 596.08884,291.91878 609.64705,294.98504 594.81413,290.00499"
         style="fill:#002974;fill-opacity:1;fill-rule:evenodd;stroke:none;stroke-width:1px;stroke-linecap:butt;stroke-linejoin:miter;stroke-opacity:1"
         id="path2870" />
      <path
         sodipodi:nodetypes="csccssccc"
         id="path2872"
         d="M 565.94657,164.75971 C 564.20449,165.83569 566.49183,163.48872 566.21455,165.51742 C 565.93728,167.54616 566.08524,168.21836 567.47473,169.72236 C 606.44949,212.92585 606.23279,279.76667 576.83912,329.98207 C 575.59844,332.09728 575.58235,334.71416 576.79691,336.84446 C 578.01144,338.97478 580.27158,340.2939 582.72381,340.30368 C 585.176,340.31347 587.44659,339.01239 588.6781,336.89185 C 615.53006,285.93537 616.44649,213.44502 573.69017,166.04966 C 571.48,163.55524 568.78247,163.0091 565.94657,164.75971 z"
         style="opacity:1;fill:#002974;fill-opacity:1;stroke:none;stroke-width:10;stroke-linecap:round;stroke-linejoin:round;stroke-miterlimit:4;stroke-dasharray:none;stroke-dashoffset:0;stroke-opacity:1" />
    </g>
  </g>
</svg>
