<?xml version="1.0" encoding="UTF-8" standalone="no"?>
<!-- Created with Inkscape (http://www.inkscape.org/) -->
<svg
   xmlns:dc="http://purl.org/dc/elements/1.1/"
   xmlns:cc="http://creativecommons.org/ns#"
   xmlns:rdf="http://www.w3.org/1999/02/22-rdf-syntax-ns#"
   xmlns:svg="http://www.w3.org/2000/svg"
   xmlns="http://www.w3.org/2000/svg"
   xmlns:xlink="http://www.w3.org/1999/xlink"
   xmlns:sodipodi="http://sodipodi.sourceforge.net/DTD/sodipodi-0.dtd"
   xmlns:inkscape="http://www.inkscape.org/namespaces/inkscape"
   width="744"
   height="1052"
   id="svg57249"
   sodipodi:version="0.32"
   inkscape:version="0.46"
   version="1.0"
   sodipodi:docname="744x1052.svg"
   inkscape:output_extension="org.inkscape.output.svg.inkscape"
   inkscape:export-xdpi="45"
   inkscape:export-ydpi="45">
  <defs
     id="defs57251">
    <inkscape:perspective
       sodipodi:type="inkscape:persp3d"
       inkscape:vp_x="0 : 768 : 1"
       inkscape:vp_y="0 : 1000 : 0"
       inkscape:vp_z="2048 : 768 : 1"
       inkscape:persp3d-origin="1024 : 512 : 1"
       id="perspective5294" />
    <linearGradient
       id="linearGradient5333">
      <stop
         style="stop-color:#2c67bd;stop-opacity:1;"
         offset="0"
         id="stop5335" />
      <stop
         style="stop-color:#95b7e9;stop-opacity:0;"
         offset="1"
         id="stop5337" />
    </linearGradient>
    <linearGradient
       inkscape:collect="always"
       xlink:href="#linearGradient5333"
       id="linearGradient2876"
       gradientUnits="userSpaceOnUse"
       x1="696.16772"
       y1="345.62885"
       x2="392.72235"
       y2="549.03717" />
    <linearGradient
       id="linearGradient5341">
      <stop
         style="stop-color:#114696;stop-opacity:1;"
         offset="0"
         id="stop5343" />
      <stop
         style="stop-color:#114696;stop-opacity:0;"
         offset="1"
         id="stop5345" />
    </linearGradient>
    <linearGradient
       inkscape:collect="always"
       xlink:href="#linearGradient5341"
       id="linearGradient2874"
       gradientUnits="userSpaceOnUse"
       x1="506.48218"
       y1="394.94901"
       x2="626.01465"
       y2="550.56775" />
    <linearGradient
       inkscape:collect="always"
       xlink:href="#linearGradient5333"
       id="linearGradient2520"
       gradientUnits="userSpaceOnUse"
       x1="696.16772"
       y1="345.62885"
       x2="392.72235"
       y2="549.03717"
       gradientTransform="matrix(5.12,0,0,5.12,-1449.8393,-2083.9611)" />
    <linearGradient
       inkscape:collect="always"
       xlink:href="#linearGradient5341"
       id="linearGradient2523"
       gradientUnits="userSpaceOnUse"
       x1="506.48218"
       y1="394.94901"
       x2="626.01465"
       y2="550.56775"
       gradientTransform="matrix(5.12,0,0,5.12,-1449.8393,-2083.9611)" />
    <linearGradient
       inkscape:collect="always"
       xlink:href="#linearGradient5341"
       id="linearGradient2564"
       gradientUnits="userSpaceOnUse"
       gradientTransform="matrix(5.12,0,0,5.12,-1449.8393,-2083.9611)"
       x1="506.48218"
       y1="394.94901"
       x2="626.01465"
       y2="550.56775" />
    <linearGradient
       inkscape:collect="always"
       xlink:href="#linearGradient5333"
       id="linearGradient2566"
       gradientUnits="userSpaceOnUse"
       gradientTransform="matrix(5.12,0,0,5.12,-1449.8393,-2083.9611)"
       x1="696.16772"
       y1="345.62885"
       x2="392.72235"
       y2="549.03717" />
    <linearGradient
       inkscape:collect="always"
       xlink:href="#linearGradient5341"
       id="linearGradient2446"
       gradientUnits="userSpaceOnUse"
       gradientTransform="matrix(5.12,0,0,5.12,-1449.8393,-2083.9611)"
       x1="506.48218"
       y1="394.94901"
       x2="626.01465"
       y2="550.56775" />
    <linearGradient
       inkscape:collect="always"
       xlink:href="#linearGradient5333"
       id="linearGradient2448"
       gradientUnits="userSpaceOnUse"
       gradientTransform="matrix(5.12,0,0,5.12,-1449.8393,-2083.9611)"
       x1="696.16772"
       y1="345.62885"
       x2="392.72235"
       y2="549.03717" />
    <linearGradient
       inkscape:collect="always"
       xlink:href="#linearGradient5341"
       id="linearGradient2790"
       gradientUnits="userSpaceOnUse"
       gradientTransform="matrix(5.12,0,0,5.12,-1449.8393,-2083.9611)"
       x1="506.48218"
       y1="394.94901"
       x2="626.01465"
       y2="550.56775" />
    <linearGradient
       inkscape:collect="always"
       xlink:href="#linearGradient5333"
       id="linearGradient2792"
       gradientUnits="userSpaceOnUse"
       gradientTransform="matrix(5.12,0,0,5.12,-1449.8393,-2083.9611)"
       x1="696.16772"
       y1="345.62885"
       x2="392.72235"
       y2="549.03717" />
    <linearGradient
       inkscape:collect="always"
       xlink:href="#linearGradient5333"
       id="linearGradient2807"
       gradientUnits="userSpaceOnUse"
       gradientTransform="matrix(2.6300001,0,0,2.6300001,-718.6501,-715.69341)"
       x1="696.16772"
       y1="345.62885"
       x2="392.72235"
       y2="549.03717" />
    <linearGradient
       inkscape:collect="always"
       xlink:href="#linearGradient5341"
       id="linearGradient2811"
       gradientUnits="userSpaceOnUse"
       gradientTransform="matrix(2.6300001,0,0,2.6300001,-718.6501,-715.69341)"
       x1="506.48218"
       y1="394.94901"
       x2="626.01465"
       y2="550.56775" />
    <linearGradient
       inkscape:collect="always"
       xlink:href="#linearGradient5341"
       id="linearGradient2825"
       gradientUnits="userSpaceOnUse"
       gradientTransform="matrix(2.6300001,0,0,2.6300001,-718.6501,-715.69341)"
       x1="506.48218"
       y1="394.94901"
       x2="626.01465"
       y2="550.56775" />
    <linearGradient
       inkscape:collect="always"
       xlink:href="#linearGradient5333"
       id="linearGradient2827"
       gradientUnits="userSpaceOnUse"
       gradientTransform="matrix(2.6300001,0,0,2.6300001,-718.6501,-715.69341)"
       x1="696.16772"
       y1="345.62885"
       x2="392.72235"
       y2="549.03717" />
    <linearGradient
       inkscape:collect="always"
       xlink:href="#linearGradient5333"
       id="linearGradient2837"
       gradientUnits="userSpaceOnUse"
       gradientTransform="matrix(2.6300001,0,0,2.6300001,-718.6501,-715.69341)"
       x1="696.16772"
       y1="345.62885"
       x2="392.72235"
       y2="549.03717" />
    <linearGradient
       inkscape:collect="always"
       xlink:href="#linearGradient5341"
       id="linearGradient2841"
       gradientUnits="userSpaceOnUse"
       gradientTransform="matrix(2.6300001,0,0,2.6300001,-718.6501,-715.69341)"
       x1="506.48218"
       y1="394.94901"
       x2="626.01465"
       y2="550.56775" />
    <linearGradient
       inkscape:collect="always"
       xlink:href="#linearGradient5341"
       id="linearGradient2858"
       gradientUnits="userSpaceOnUse"
       gradientTransform="matrix(2.6300001,0,0,2.6300001,-718.6501,-715.69341)"
       x1="506.48218"
       y1="394.94901"
       x2="626.01465"
       y2="550.56775" />
    <linearGradient
       inkscape:collect="always"
       xlink:href="#linearGradient5333"
       id="linearGradient2860"
       gradientUnits="userSpaceOnUse"
       gradientTransform="matrix(2.6300001,0,0,2.6300001,-718.6501,-715.69341)"
       x1="696.16772"
       y1="345.62885"
       x2="392.72235"
       y2="549.03717" />
    <linearGradient
       inkscape:collect="always"
       xlink:href="#linearGradient5341"
       id="linearGradient2893"
       gradientUnits="userSpaceOnUse"
       gradientTransform="matrix(2.6300001,0,0,2.6300001,-718.6501,-715.69341)"
       x1="506.48218"
       y1="394.94901"
       x2="626.01465"
       y2="550.56775" />
    <linearGradient
       inkscape:collect="always"
       xlink:href="#linearGradient5333"
       id="linearGradient2895"
       gradientUnits="userSpaceOnUse"
       gradientTransform="matrix(2.6300001,0,0,2.6300001,-718.6501,-715.69341)"
       x1="696.16772"
       y1="345.62885"
       x2="392.72235"
       y2="549.03717" />
    <linearGradient
       inkscape:collect="always"
       xlink:href="#linearGradient5333"
       id="linearGradient2905"
       gradientUnits="userSpaceOnUse"
       gradientTransform="matrix(2.6300001,0,0,2.6300001,-718.6501,-715.69341)"
       x1="696.16772"
       y1="345.62885"
       x2="392.72235"
       y2="549.03717" />
    <linearGradient
       inkscape:collect="always"
       xlink:href="#linearGradient5341"
       id="linearGradient2908"
       gradientUnits="userSpaceOnUse"
       gradientTransform="matrix(2.6300001,0,0,2.6300001,-718.6501,-715.69341)"
       x1="506.48218"
       y1="394.94901"
       x2="626.01465"
       y2="550.56775" />
    <linearGradient
       inkscape:collect="always"
       xlink:href="#linearGradient5333"
       id="linearGradient2485"
       gradientUnits="userSpaceOnUse"
       gradientTransform="matrix(2.3414736,0,0,2.3414736,-572.41669,-242.51587)"
       x1="696.16772"
       y1="345.62885"
       x2="392.72235"
       y2="549.03717" />
    <linearGradient
       inkscape:collect="always"
       xlink:href="#linearGradient5341"
       id="linearGradient2487"
       gradientUnits="userSpaceOnUse"
       gradientTransform="matrix(2.3414736,0,0,2.3414736,-572.41669,-242.51587)"
       x1="506.48218"
       y1="394.94901"
       x2="626.01465"
       y2="550.56775" />
    <clipPath
       clipPathUnits="userSpaceOnUse"
       id="clipPath2489">
      <rect
         style="opacity:1;fill:#ffffff;fill-opacity:1;stroke:none;stroke-width:10;stroke-linecap:round;stroke-linejoin:round;stroke-miterlimit:4;stroke-dasharray:none;stroke-dashoffset:0;stroke-opacity:1"
         id="rect2491"
         width="744"
         height="1052"
         x="53.650211"
         y="-14.49493"
         clip-path="none" />
    </clipPath>
    <clipPath
       clipPathUnits="userSpaceOnUse"
       id="clipPath2493">
      <rect
         style="opacity:1;fill:#ffffff;fill-opacity:1;stroke:none;stroke-width:10;stroke-linecap:round;stroke-linejoin:round;stroke-miterlimit:4;stroke-dasharray:none;stroke-dashoffset:0;stroke-opacity:1"
         id="rect2495"
         width="744"
         height="1052"
         x="53.650211"
         y="-14.49493"
         clip-path="none" />
    </clipPath>
    <clipPath
       clipPathUnits="userSpaceOnUse"
       id="clipPath2497">
      <rect
         style="opacity:1;fill:#ffffff;fill-opacity:1;stroke:none;stroke-width:10;stroke-linecap:round;stroke-linejoin:round;stroke-miterlimit:4;stroke-dasharray:none;stroke-dashoffset:0;stroke-opacity:1"
         id="rect2499"
         width="744"
         height="1052"
         x="53.650211"
         y="-14.49493"
         clip-path="none" />
    </clipPath>
    <clipPath
       clipPathUnits="userSpaceOnUse"
       id="clipPath2501">
      <rect
         style="opacity:1;fill:#ffffff;fill-opacity:1;stroke:none;stroke-width:10;stroke-linecap:round;stroke-linejoin:round;stroke-miterlimit:4;stroke-dasharray:none;stroke-dashoffset:0;stroke-opacity:1"
         id="rect2503"
         width="123.5379"
         height="174.67993"
         x="258.74622"
         y="-31.371439"
         clip-path="none"
         transform="matrix(0.7141496,0.6999931,0.6999931,-0.7141496,0,0)" />
    </clipPath>
    <clipPath
       clipPathUnits="userSpaceOnUse"
       id="clipPath2505">
      <rect
         style="opacity:1;fill:#ffffff;fill-opacity:1;stroke:none;stroke-width:10;stroke-linecap:round;stroke-linejoin:round;stroke-miterlimit:4;stroke-dasharray:none;stroke-dashoffset:0;stroke-opacity:1"
         id="rect2507"
         width="214.83208"
         height="303.76794"
         x="112.99828"
         y="-77.063263"
         clip-path="none" />
    </clipPath>
    <clipPath
       clipPathUnits="userSpaceOnUse"
       id="clipPath2509">
      <rect
         style="opacity:1;fill:#ffffff;fill-opacity:1;stroke:none;stroke-width:10;stroke-linecap:round;stroke-linejoin:round;stroke-miterlimit:4;stroke-dasharray:none;stroke-dashoffset:0;stroke-opacity:1"
         id="rect2511"
         width="744"
         height="1052"
         x="53.650211"
         y="-14.49493"
         clip-path="none" />
    </clipPath>
    <clipPath
       clipPathUnits="userSpaceOnUse"
       id="clipPath2513">
      <rect
         style="opacity:1;fill:#ffffff;fill-opacity:1;stroke:none;stroke-width:10;stroke-linecap:round;stroke-linejoin:round;stroke-miterlimit:4;stroke-dasharray:none;stroke-dashoffset:0;stroke-opacity:1"
         id="rect2515"
         width="744"
         height="1052"
         x="53.650211"
         y="-14.49493"
         clip-path="none" />
    </clipPath>
  </defs>
  <sodipodi:namedview
     id="base"
     pagecolor="#ffffff"
     bordercolor="#666666"
     borderopacity="1.0"
     gridtolerance="10000"
     guidetolerance="10"
     objecttolerance="10"
     inkscape:pageopacity="0.0"
     inkscape:pageshadow="2"
     inkscape:zoom="0.47528517"
     inkscape:cx="372"
     inkscape:cy="526"
     inkscape:document-units="px"
     inkscape:current-layer="layer1"
     showgrid="false"
     showborder="true"
     inkscape:showpageshadow="false"
     inkscape:window-width="1360"
     inkscape:window-height="693"
     inkscape:window-x="0"
     inkscape:window-y="25"
     showguides="true"
     inkscape:guide-bbox="true" />
  <metadata
     id="metadata57254">
    <rdf:RDF>
      <cc:Work
         rdf:about="">
        <dc:format>image/svg+xml</dc:format>
        <dc:type
           rdf:resource="http://purl.org/dc/dcmitype/StillImage" />
        <cc:license
           rdf:resource="http://creativecommons.org/licenses/by-sa/3.0/" />
        <dc:title>TreeFlower's Background</dc:title>
        <dc:date>2010-04-23</dc:date>
        <dc:creator>
          <cc:Agent>
            <dc:title>Alain Reguera Delgado</dc:title>
          </cc:Agent>
        </dc:creator>
        <dc:rights>
          <cc:Agent>
            <dc:title>The CentOS Project</dc:title>
          </cc:Agent>
        </dc:rights>
        <dc:publisher>
          <cc:Agent>
            <dc:title>The CentOS Project</dc:title>
          </cc:Agent>
        </dc:publisher>
        <dc:description>Background image for 2048x1536 and related resolutions.</dc:description>
        <dc:coverage>The CentOS Project</dc:coverage>
      </cc:Work>
      <cc:License
         rdf:about="http://creativecommons.org/licenses/by-sa/3.0/">
        <cc:permits
           rdf:resource="http://creativecommons.org/ns#Reproduction" />
        <cc:permits
           rdf:resource="http://creativecommons.org/ns#Distribution" />
        <cc:requires
           rdf:resource="http://creativecommons.org/ns#Notice" />
        <cc:requires
           rdf:resource="http://creativecommons.org/ns#Attribution" />
        <cc:permits
           rdf:resource="http://creativecommons.org/ns#DerivativeWorks" />
        <cc:requires
           rdf:resource="http://creativecommons.org/ns#ShareAlike" />
      </cc:License>
    </rdf:RDF>
  </metadata>
  <g
     inkscape:label="Layer 1"
     inkscape:groupmode="layer"
     id="layer1"
     transform="translate(-53.650211,14.49493)">
    <g
       id="CENTOSARTWORK"
       inkscape:label="#g2517">
      <path
         clip-path="url(#clipPath2513)"
         sodipodi:nodetypes="cssscczz"
         style="fill:url(#linearGradient2487);fill-opacity:1;stroke:none;stroke-width:1;stroke-linejoin:round;stroke-miterlimit:4;stroke-dasharray:none;stroke-dashoffset:0;stroke-opacity:1"
         d="M 206.4872,381.47453 C 567.87391,381.47453 861.31319,694.8753 861.31319,1081.266 C 861.31319,1467.6566 567.87391,1781.3984 206.4872,1781.3985 C -154.89956,1781.3985 -448.33876,1467.6566 -448.3388,1081.266 C -448.3388,694.8753 -154.89956,381.47464 206.4872,381.47453 z M 26.45174,1047.0238 C 32.214876,1576.4991 719.99419,1645.5212 719.99419,1074.7006 C 719.99419,510.44233 20.61597,510.873 26.45174,1047.0238 z"
         id="path2856" />
      <path
         clip-path="url(#clipPath2509)"
         id="path2858"
         d="M 954.59719,566.76494 C 619.34824,566.76494 347.13235,838.68476 347.13235,1173.9338 C 347.13235,1509.1826 619.34824,1781.3984 954.59719,1781.3985 C 1289.8462,1781.3985 1676.9556,1387.7237 1676.9557,1052.4747 C 1676.9557,717.22568 1289.8462,566.76503 954.59719,566.76494 z M 990.7067,1669.3256 C 746.25428,1669.3256 241.64388,1687.6965 459.20525,1131.2589 C 678.04683,571.54705 1550.47,919.89423 990.7067,1669.3256 z"
         style="fill:url(#linearGradient2485);fill-opacity:1;stroke:none;stroke-width:1;stroke-linejoin:round;stroke-miterlimit:4;stroke-dasharray:none;stroke-dashoffset:0;stroke-opacity:1"
         sodipodi:nodetypes="cssscczc" />
      <path
         clip-path="url(#clipPath2505)"
         sodipodi:type="arc"
         style="fill:none;fill-opacity:1;stroke:#002974;stroke-width:6.9840126;stroke-linecap:round;stroke-linejoin:round;stroke-miterlimit:4;stroke-dasharray:none;stroke-dashoffset:0;stroke-opacity:1"
         id="path2860"
         sodipodi:cx="364.51242"
         sodipodi:cy="249.52905"
         sodipodi:rx="159.82468"
         sodipodi:ry="159.82468"
         d="M 524.3371,249.52905 A 159.82468,159.82468 0 1 1 204.68774,249.52905 A 159.82468,159.82468 0 1 1 524.3371,249.52905 z"
         transform="matrix(3.4631699,0,0,3.4631699,-337.68201,252.38824)" />
      <g
         clip-path="url(#clipPath2501)"
         transform="matrix(4.3009257,4.2156689,4.2156689,-4.3009257,-1504.6342,174.43779)"
         id="g2862"
         style="fill:#002974;fill-opacity:1">
        <path
           id="path2864"
           style="fill:#002974;fill-opacity:1;fill-rule:evenodd;stroke:none;stroke-width:1px;stroke-linecap:butt;stroke-linejoin:miter;stroke-opacity:1"
           d="M 225.7785,132.74383 C 225.78369,132.74295 225.7787,132.74312 225.7785,132.74383 C 225.75982,132.81026 225.8177,132.72445 225.7785,132.74383 C 225.25769,133.00106 225.30159,132.50817 225.49164,132.30399 C 225.97779,131.78167 226.82161,132.1681 227.18917,132.64765 C 228.11964,133.86162 227.29786,135.54178 226.15828,136.26839 C 223.74709,137.8058 220.69873,136.21715 219.44201,133.95043 C 217.08683,129.7025 219.8561,124.62599 223.86584,122.63601 C 230.74947,119.21975 238.6715,123.69208 241.63061,130.21916 C 246.38465,140.70548 239.57189,152.45582 229.58627,156.65337 C 214.35455,163.05624 197.62035,153.14527 191.88064,138.58522 C 183.48298,117.28264 197.37525,94.22949 217.80745,86.608856 C 246.69554,75.834423 277.58864,94.721249 287.46481,122.51158 M 225.7785,132.74383 C 225.78169,132.748 225.7792,132.74367 225.7785,132.74383 C 225.71109,132.75865 225.77416,132.78737 225.7785,132.74383 C 225.80514,132.47564 226.06883,132.30304 226.26965,132.36479 C 226.95168,132.57454 227.01621,133.47384 226.76642,134.024 C 226.13412,135.41671 224.26497,135.48361 223.08709,134.82086 C 220.59489,133.41857 220.55968,129.98129 221.9668,127.80472 C 224.60379,123.72574 230.38628,123.77617 234.03092,126.37514 C 240.28776,130.83689 240.076,139.93169 235.71336,145.6173 C 228.70438,154.75173 215.1301,154.27962 206.72241,147.45003 C 193.89763,137.03243 194.75397,117.60238 204.89162,105.67897 C 219.72386,88.234058 246.82276,89.379683 262.95284,104.05512 C 285.38801,124.46704 270.99714,134.32774 287.46481,122.51158"
           sodipodi:nodetypes="csssssssssssccsssssssssssc" />
        <path
           id="path2866"
           style="fill:#002974;fill-opacity:1;fill-rule:evenodd;stroke:none;stroke-width:1px;stroke-linecap:butt;stroke-linejoin:miter;stroke-opacity:1"
           d="M 289.46772,101.63923 C 289.46673,101.64012 289.46754,101.63916 289.46772,101.63923 C 289.48392,101.646 289.45767,101.64399 289.46772,101.63923 C 289.60123,101.5759 289.49594,101.50687 289.42521,101.51257 C 289.24425,101.52718 289.18821,101.75656 289.2259,101.90559 C 289.32134,102.28284 289.78633,102.38399 290.11117,102.27124 C 290.7985,102.03265 290.96253,101.17359 290.70847,100.56509 C 290.2324,99.424698 288.78227,99.176238 287.75235,99.662419 C 285.98427,100.49706 285.62663,102.78382 286.46226,104.4044 C 287.80476,107.008 291.22488,107.50271 293.6384,106.17232 C 297.31994,104.14297 297.98284,99.239302 295.98288,95.796117 C 293.05679,90.758445 286.26378,89.8929 281.51853,92.767914 C 274.80948,96.832766 273.70345,105.97858 277.69098,112.33513 M 289.46772,101.63923 C 289.46805,101.64054 289.46758,101.63935 289.46772,101.63923 C 289.48131,101.62812 289.47709,101.64523 289.46772,101.63923 C 289.40999,101.60223 289.33393,101.62762 289.31456,101.67744 C 289.24879,101.84665 289.41808,102.00145 289.56728,102.03842 C 289.94502,102.13201 290.25334,101.76955 290.30696,101.42988 C 290.4204,100.71123 289.73997,100.16178 289.08355,100.0991 C 287.85336,99.981655 286.9509,101.14362 286.89442,102.28111 C 286.79745,104.23389 288.6459,105.62688 290.46904,105.65348 C 293.39807,105.6962 295.446,102.91271 295.40985,100.15702 C 295.35469,95.95359 291.34193,93.058249 287.36258,93.19977 C 281.54044,93.406838 277.49261,98.995722 277.87588,104.53071 C 278.40897,112.22926 282.64788,110.91342 277.69098,112.33513"
           sodipodi:nodetypes="csssssssssssccsssssssssssc" />
      </g>
      <path
         clip-path="url(#clipPath2497)"
         sodipodi:nodetypes="csccsc"
         d="M 734.08584,-991.2516 C 809.88534,-714.5518 979.53447,-496.7085 514.85522,-101.25633 C 50.176275,294.19606 158.5799,969.05136 414.47028,1244.8717 C 670.36067,1520.692 731.22609,1477.2235 477.33718,1196.6616 C 223.44803,916.09975 103.45004,299.92412 544.1509,-81.05407 C 984.85166,-462.0323 815.62354,-715.2838 734.47557,-989.2424"
         style="fill:#002974;fill-opacity:1;fill-rule:evenodd;stroke:none;stroke-width:1px;stroke-linecap:butt;stroke-linejoin:miter;stroke-opacity:1"
         id="path2868" />
      <path
         clip-path="url(#clipPath2493)"
         sodipodi:nodetypes="csssssssssssccsssssssssssc"
         d="M 963.22161,464.48866 C 963.21324,464.48941 963.22107,464.48768 963.22161,464.48866 C 963.27654,464.58333 963.15368,464.47448 963.22161,464.48866 C 964.1233,464.67739 963.86057,463.93786 963.48781,463.69961 C 962.5343,463.09013 961.39161,464.01784 961.01715,464.8999 C 960.06917,467.1328 961.99692,469.38745 964.03471,470.05177 C 968.34668,471.45741 972.39858,467.81 973.43043,463.83118 C 975.36415,456.37464 969.10022,449.67589 962.15415,448.20861 C 950.22956,445.68956 939.83583,455.69632 937.87755,466.89219 C 934.73157,484.87932 949.8492,500.22486 966.84698,502.7147 C 992.7747,506.51264 1014.5463,484.66259 1017.592,460.02898 C 1022.0481,423.98798 991.5806,394.08985 957.18405,390.4822 C 908.55247,385.38149 870.38,425.53615 866.22384,472.12602 M 963.22161,464.48866 C 963.21831,464.49637 963.22045,464.48874 963.22161,464.48866 C 963.33094,464.48475 963.24547,464.55385 963.22161,464.48866 C 963.07435,464.08738 962.60107,463.92685 962.31716,464.10122 C 961.35288,464.69352 961.61009,466.10011 962.21166,466.84604 C 963.73451,468.73429 966.63135,468.09648 968.17761,466.61201 C 971.44926,463.47113 970.14142,458.17868 967.11825,455.39366 C 961.45259,450.17442 952.59257,452.54289 948.02523,457.97801 C 940.18455,467.30876 944.113,481.19154 953.06526,488.19433 C 967.44783,499.44497 988.1065,493.34189 998.3121,479.52271 C 1013.8794,458.44352 1004.8663,428.94458 984.57407,414.65054 C 954.88497,393.73725 913.7237,406.23306 894.76746,435.16044 C 868.40137,475.3953 891.5627,480.63338 866.22384,472.12602"
         style="fill:#002974;fill-opacity:1;fill-rule:evenodd;stroke:none;stroke-width:1px;stroke-linecap:butt;stroke-linejoin:miter;stroke-opacity:1"
         id="path2870" />
      <path
         clip-path="url(#clipPath2489)"
         sodipodi:nodetypes="csccssccc"
         id="path2872"
         d="M 811.23959,275.18134 C 808.26363,277.01943 812.17106,273.01012 811.69737,276.47573 C 811.22373,279.9414 811.47648,281.08973 813.85016,283.65897 C 880.43023,357.46297 880.06007,471.64634 829.84722,557.42868 C 827.72778,561.04208 827.70025,565.51246 829.7751,569.15165 C 831.84986,572.79083 835.71083,575.04426 839.89997,575.06098 C 844.089,575.07769 847.9678,572.85511 850.0716,569.23257 C 895.94245,482.18426 897.50799,358.34985 824.46791,277.38496 C 820.69229,273.12378 816.08411,272.19079 811.23959,275.18134 z"
         style="fill:#002974;fill-opacity:1;stroke:none;stroke-width:10;stroke-linecap:round;stroke-linejoin:round;stroke-miterlimit:4;stroke-dasharray:none;stroke-dashoffset:0;stroke-opacity:1" />
    </g>
  </g>
</svg>
