<?xml version="1.0" encoding="UTF-8" standalone="no"?>
<!-- Created with Inkscape (http://www.inkscape.org/) -->
<svg
   xmlns:dc="http://purl.org/dc/elements/1.1/"
   xmlns:cc="http://creativecommons.org/ns#"
   xmlns:rdf="http://www.w3.org/1999/02/22-rdf-syntax-ns#"
   xmlns:svg="http://www.w3.org/2000/svg"
   xmlns="http://www.w3.org/2000/svg"
   xmlns:sodipodi="http://sodipodi.sourceforge.net/DTD/sodipodi-0.dtd"
   xmlns:inkscape="http://www.inkscape.org/namespaces/inkscape"
   width="171"
   height="48"
   id="svg2897"
   sodipodi:version="0.32"
   inkscape:version="0.46"
   sodipodi:docname="centos.svg"
   inkscape:output_extension="org.inkscape.output.svg.inkscape"
   version="1.0">
  <defs
     id="defs2899">
    <inkscape:perspective
       sodipodi:type="inkscape:persp3d"
       inkscape:vp_x="0 : 24 : 1"
       inkscape:vp_y="0 : 1000 : 0"
       inkscape:vp_z="169.00238 : 24 : 1"
       inkscape:persp3d-origin="84.50119 : 16 : 1"
       id="perspective2511" />
    <clipPath
       clipPathUnits="userSpaceOnUse"
       id="clipPath4429">
      <g
         transform="matrix(0.9947658,0,0,1,1.7860989,0)"
         id="g4431">
        <path
           sodipodi:nodetypes="ccccccccc"
           style="fill:#efa724;fill-opacity:1;fill-rule:evenodd;stroke:none;stroke-width:30;stroke-linecap:round;stroke-linejoin:round;marker:none;marker-start:none;marker-mid:none;marker-end:none;stroke-miterlimit:4;stroke-dasharray:none;stroke-dashoffset:0;stroke-opacity:1;visibility:visible;display:inline;overflow:visible"
           d="M 322.54143,2800.9375 L 318.10638,2806.6673 L 313.67143,2800.9375 L 313.67143,2757.7946 L 294.73171,2757.7946 L 318.10638,2732.2579 L 341.23763,2757.7946 L 322.54143,2757.7946 L 322.54143,2800.9375 z"
           id="path4433" />
      </g>
    </clipPath>
  </defs>
  <sodipodi:namedview
     id="base"
     pagecolor="#ffffff"
     bordercolor="#666666"
     borderopacity="1.0"
     gridtolerance="10000"
     guidetolerance="10"
     objecttolerance="10"
     inkscape:pageopacity="0.0"
     inkscape:pageshadow="2"
     inkscape:zoom="5.0233918"
     inkscape:cx="85.5"
     inkscape:cy="24"
     inkscape:document-units="px"
     inkscape:current-layer="layer1"
     showgrid="false"
     inkscape:window-width="1360"
     inkscape:window-height="693"
     inkscape:window-x="0"
     inkscape:window-y="25"
     showborder="true"
     inkscape:showpageshadow="false"
     showguides="true"
     inkscape:guide-bbox="true">
    <inkscape:grid
       type="xygrid"
       id="grid3843"
       visible="true"
       enabled="true" />
  </sodipodi:namedview>
  <metadata
     id="CENTOSMETADATA">
    <rdf:RDF>
      <cc:Work
         rdf:about="">
        <dc:format>image/svg+xml</dc:format>
        <dc:type
           rdf:resource="http://purl.org/dc/dcmitype/StillImage" />
        <cc:license
           rdf:resource="http://creativecommons.org/licenses/by-sa/3.0/" />
        <dc:title>centos.svg</dc:title>
        <dc:date>2011-07-29</dc:date>
        <dc:creator>
          <cc:Agent>
            <dc:title>The CentOS Artwork SIG</dc:title>
          </cc:Agent>
        </dc:creator>
        <dc:rights>
          <cc:Agent>
            <dc:title>The CentOS Artwork SIG</dc:title>
          </cc:Agent>
        </dc:rights>
        <dc:publisher>
          <cc:Agent>
            <dc:title>The CentOS Artwork SIG</dc:title>
          </cc:Agent>
        </dc:publisher>
        <dc:identifier>https://projects.centos.org/svn/artwork/trunk/Identity/Models/Brands/Logos/Black/centos.svg</dc:identifier>
        <dc:source>https://projects.centos.org/svn/artwork/trunk/Identity/Models/Brands/Logos/Black/centos.svg</dc:source>
        <dc:relation>https://projects.centos.org/svn/artwork/trunk/Identity/Models/Brands/Logos/Black/centos.svg</dc:relation>
        <dc:language>en_US</dc:language>
        <dc:subject>
          <rdf:Bag>
            <rdf:li>Identity</rdf:li>
            <rdf:li>Models</rdf:li>
            <rdf:li>Brands</rdf:li>
            <rdf:li>Logos</rdf:li>
            <rdf:li>Black</rdf:li>
          </rdf:Bag>
        </dc:subject>
        <dc:coverage>The CentOS Artwork SIG</dc:coverage>
        <dc:description />
        <dc:contributor />
      </cc:Work>
      <cc:License
         rdf:about="http://creativecommons.org/licenses/by-sa/3.0/">
        <cc:permits
           rdf:resource="http://creativecommons.org/ns#Reproduction" />
        <cc:permits
           rdf:resource="http://creativecommons.org/ns#Distribution" />
        <cc:requires
           rdf:resource="http://creativecommons.org/ns#Notice" />
        <cc:requires
           rdf:resource="http://creativecommons.org/ns#Attribution" />
        <cc:permits
           rdf:resource="http://creativecommons.org/ns#DerivativeWorks" />
        <cc:requires
           rdf:resource="http://creativecommons.org/ns#ShareAlike" />
      </cc:License>
    </rdf:RDF>
  </metadata>
  <g
     inkscape:label="Layer 1"
     inkscape:groupmode="layer"
     id="layer1"
     transform="translate(919.75397,-561.04114)">
    <rect
       style="opacity:0;fill:#ffffff;fill-opacity:1;fill-rule:nonzero;stroke:none;stroke-width:1;stroke-linecap:round;stroke-linejoin:round;marker:none;marker-start:none;marker-mid:none;marker-end:none;stroke-miterlimit:4;stroke-dasharray:none;stroke-dashoffset:0;stroke-opacity:1;visibility:visible;display:inline;overflow:visible;enable-background:accumulate"
       id="CENTOSARTWORK"
       width="171"
       height="48"
       x="-919.75397"
       y="561.04114"
       inkscape:label="#rect3427" />
    <g
       id="g2529"
       transform="matrix(1.3862185,0,0,1.3862185,319.88807,-131.31311)">
      <g
         inkscape:label="#g9335"
         inkscape:export-ydpi="28.883154"
         inkscape:export-xdpi="28.883154"
         inkscape:export-filename="/home/al/Desktop/CentOS/Symbol Construction/CentOSSymbol_20.png"
         transform="matrix(4.7716762e-2,0,0,4.7716744e-2,-887.55939,464.09782)"
         id="g9335">
        <g
           inkscape:export-ydpi="50.799999"
           inkscape:export-xdpi="50.799999"
           inkscape:export-filename="/home/al/Desktop/CentOSSymbol_Final.png"
           id="g13583"
           transform="matrix(1.1808679,0,0,1.1808679,586.42082,-1141.3723)">
          <g
             transform="translate(-556.83343,-494.55601)"
             id="g13467">
            <g
               transform="matrix(0,-3.7770771,3.7770771,0,-6968.6287,3636.3048)"
               id="g13395">
              <g
                 id="g13397"
                 transform="translate(16.279512,-899.16723)">
                <g
                   transform="matrix(1.0666663,0,0,1,-26.935596,-4.1328125e-5)"
                   id="g13399">
                  <path
                     sodipodi:nodetypes="ccccccccc"
                     style="fill:#932279;fill-opacity:1;fill-rule:evenodd;stroke:none;stroke-width:30;stroke-linecap:round;stroke-linejoin:round;marker:none;marker-start:none;marker-mid:none;marker-end:none;stroke-miterlimit:4;stroke-dasharray:none;stroke-dashoffset:0;stroke-opacity:1;visibility:visible;display:inline;overflow:visible"
                     d="M 323.36653,2798.1614 L 317.96037,2803.9619 L 312.55421,2798.1614 L 312.55421,2757.3353 L 294.54088,2757.3353 L 317.96037,2732.4374 L 340.98524,2757.3353 L 323.36654,2757.3353 L 323.36653,2798.1614 z"
                     id="path13401" />
                </g>
                <g
                   clip-path="url(#clipPath4429)"
                   id="g13405"
                   transform="matrix(1.0722788,0,0,1,-28.850792,-4.1328125e-5)" />
              </g>
            </g>
            <g
               id="g13407"
               transform="matrix(3.7770771,0,0,3.7770771,-988.70982,-4824.4941)">
              <g
                 transform="translate(16.279512,-899.16723)"
                 id="g13409">
                <g
                   id="g13411"
                   transform="matrix(1.0666663,0,0,1,-26.935596,-4.1328125e-5)">
                  <path
                     id="path13413"
                     d="M 323.36653,2798.1614 L 317.96037,2803.9619 L 312.55421,2798.1614 L 312.55421,2757.3353 L 294.54088,2757.3353 L 317.96037,2732.4374 L 340.98524,2757.3353 L 323.36654,2757.3353 L 323.36653,2798.1614 z"
                     style="fill:#efa724;fill-opacity:1;fill-rule:evenodd;stroke:none;stroke-width:30;stroke-linecap:round;stroke-linejoin:round;marker:none;marker-start:none;marker-mid:none;marker-end:none;stroke-miterlimit:4;stroke-dasharray:none;stroke-dashoffset:0;stroke-opacity:1;visibility:visible;display:inline;overflow:visible"
                     sodipodi:nodetypes="ccccccccc" />
                </g>
                <g
                   transform="matrix(1.0722788,0,0,1,-28.850792,-4.1328125e-5)"
                   id="g13417"
                   clip-path="url(#clipPath4429)" />
              </g>
            </g>
            <g
               transform="matrix(0,3.7770771,-3.7770771,0,10868.313,1216.9132)"
               id="g13419">
              <g
                 id="g13421"
                 transform="matrix(1.0666663,0,0,1,-26.935596,-4.1328125e-5)">
                <path
                   id="path13423"
                   d="M 323.36653,2798.1614 L 317.96037,2803.9619 L 312.55421,2798.1614 L 312.55421,2757.3353 L 294.54088,2757.3353 L 317.96037,2732.4374 L 340.98524,2757.3353 L 323.36654,2757.3353 L 323.36653,2798.1614 z"
                   style="fill:#262577;fill-opacity:1;fill-rule:evenodd;stroke:none;stroke-width:30;stroke-linecap:round;stroke-linejoin:round;marker:none;marker-start:none;marker-mid:none;marker-end:none;stroke-miterlimit:4;stroke-dasharray:none;stroke-dashoffset:0;stroke-opacity:1;visibility:visible;display:inline;overflow:visible"
                   sodipodi:nodetypes="ccccccccc" />
              </g>
              <g
                 transform="matrix(1.0722788,0,0,1,-28.850792,-4.1328125e-5)"
                 id="g13427"
                 clip-path="url(#clipPath4429)" />
            </g>
            <g
               id="g13429"
               transform="matrix(-3.7770771,0,0,-3.7770771,1492.1701,9616.2232)">
              <g
                 transform="translate(16.279512,-899.16723)"
                 id="g13431">
                <g
                   id="g13433"
                   transform="matrix(1.0666663,0,0,1,-26.935596,-4.1328125e-5)">
                  <path
                     id="path13435"
                     d="M 323.36653,2798.1614 L 317.96037,2803.9619 L 312.55421,2798.1614 L 312.55421,2757.3353 L 294.54088,2757.3353 L 317.96037,2732.4374 L 340.98524,2757.3353 L 323.36654,2757.3353 L 323.36653,2798.1614 z"
                     style="fill:#9ccd2a;fill-opacity:1;fill-rule:evenodd;stroke:none;stroke-width:30;stroke-linecap:round;stroke-linejoin:round;marker:none;marker-start:none;marker-mid:none;marker-end:none;stroke-miterlimit:4;stroke-dasharray:none;stroke-dashoffset:0;stroke-opacity:1;visibility:visible;display:inline;overflow:visible"
                     sodipodi:nodetypes="ccccccccc" />
                </g>
                <g
                   transform="matrix(1.0722788,0,0,1,-28.850792,-4.1328125e-5)"
                   id="g13439"
                   clip-path="url(#clipPath4429)" />
              </g>
            </g>
            <g
               id="g13441"
               transform="matrix(3.7770771,0,0,3.7770771,-2493.849,-6445.1798)">
              <rect
                 y="2285.7893"
                 x="671.98438"
                 height="49.606449"
                 width="49.606449"
                 id="rect13443"
                 style="fill:#9ccd2a;fill-opacity:1;stroke:#ffffff;stroke-width:3.54330707;stroke-linecap:butt;stroke-linejoin:miter;stroke-miterlimit:4;stroke-dasharray:none;stroke-dashoffset:0;stroke-opacity:1" />
              <rect
                 style="fill:#932279;fill-opacity:1;stroke:#ffffff;stroke-width:3.54330707;stroke-linecap:butt;stroke-linejoin:miter;stroke-miterlimit:4;stroke-dasharray:none;stroke-dashoffset:0;stroke-opacity:1"
                 id="rect13445"
                 width="49.606449"
                 height="49.606449"
                 x="732.22076"
                 y="2285.7893" />
              <rect
                 y="2346.0256"
                 x="732.22076"
                 height="49.606449"
                 width="49.606449"
                 id="rect13447"
                 style="fill:#efa724;fill-opacity:1;stroke:#ffffff;stroke-width:3.54330707;stroke-linecap:butt;stroke-linejoin:miter;stroke-miterlimit:4;stroke-dasharray:none;stroke-dashoffset:0;stroke-opacity:1" />
              <rect
                 style="fill:#262577;fill-opacity:1;stroke:#ffffff;stroke-width:3.54330707;stroke-linecap:butt;stroke-linejoin:miter;stroke-miterlimit:4;stroke-dasharray:none;stroke-dashoffset:0;stroke-opacity:1"
                 id="rect13449"
                 width="49.606449"
                 height="49.606449"
                 x="671.98438"
                 y="2346.0256" />
            </g>
            <rect
               transform="matrix(0.7071068,-0.7071068,0.7071068,0.7071068,0,0)"
               style="fill:none;fill-opacity:1;stroke:#ffffff;stroke-width:13.38334465;stroke-linecap:butt;stroke-linejoin:miter;stroke-miterlimit:4;stroke-dasharray:none;stroke-dashoffset:0;stroke-opacity:1"
               id="rect13459"
               width="187.36739"
               height="187.36739"
               x="-1723.575"
               y="1664.6902" />
            <rect
               transform="matrix(0.7071068,-0.7071068,0.7071068,0.7071068,0,0)"
               y="1664.6902"
               x="-1496.0573"
               height="187.36739"
               width="187.36739"
               id="rect13461"
               style="fill:none;fill-opacity:1;stroke:#ffffff;stroke-width:13.38334465;stroke-linecap:butt;stroke-linejoin:miter;stroke-miterlimit:4;stroke-dasharray:none;stroke-dashoffset:0;stroke-opacity:1" />
            <rect
               transform="matrix(0.7071068,-0.7071068,0.7071068,0.7071068,0,0)"
               style="fill:none;fill-opacity:1;stroke:#ffffff;stroke-width:13.38334465;stroke-linecap:butt;stroke-linejoin:miter;stroke-miterlimit:4;stroke-dasharray:none;stroke-dashoffset:0;stroke-opacity:1"
               id="rect13463"
               width="187.36739"
               height="187.36739"
               x="-1496.0573"
               y="1892.2074" />
            <rect
               transform="matrix(0.7071068,-0.7071068,0.7071068,0.7071068,0,0)"
               y="1892.2074"
               x="-1723.575"
               height="187.36739"
               width="187.36739"
               id="rect13465"
               style="fill:none;fill-opacity:1;stroke:#ffffff;stroke-width:13.38334465;stroke-linecap:butt;stroke-linejoin:miter;stroke-miterlimit:4;stroke-dasharray:none;stroke-dashoffset:0;stroke-opacity:1" />
          </g>
        </g>
      </g>
      <path
         inkscape:label=""
         id="path3841"
         d="M -839.55323,524.94217 L -846.33633,524.94217 C -847.02416,524.94217 -847.70467,524.84098 -848.37784,524.63858 C -849.68034,524.21823 -850.71207,523.25297 -851.47305,521.74282 C -852.16089,520.37278 -852.5048,518.77701 -852.5048,516.95547 C -852.5048,515.19624 -852.19748,513.63936 -851.58283,512.28489 C -850.90963,510.79031 -849.95107,509.77057 -848.70713,509.22565 C -847.74126,508.80533 -846.75342,508.59515 -845.74364,508.59513 L -839.59714,508.59513 L -839.59714,511.72442 L -845.98511,511.72442 C -847.02416,511.72443 -847.77783,512.32382 -848.24615,513.5226 C -848.61201,514.45672 -848.79495,515.67886 -848.79495,517.18901 C -848.79495,518.46564 -848.5608,519.54764 -848.09248,520.43504 C -847.55101,521.47817 -846.79001,521.99971 -845.80948,521.9997 L -839.55323,521.97635 L -839.55323,524.94217 M -828.25629,525.01224 L -833.61253,525.01224 C -834.915,525.01224 -836.04917,524.42063 -837.01505,523.23741 C -837.9663,522.03863 -838.44191,520.66081 -838.44191,519.10395 C -838.44191,517.40697 -837.9224,515.94353 -836.88334,514.7136 C -835.82965,513.46812 -834.65889,512.84537 -833.37106,512.84536 L -828.27823,512.84536 L -828.27823,515.34411 L -832.01004,515.34411 C -832.47834,515.34414 -832.8808,515.39084 -833.21738,515.48425 C -833.53935,515.5621 -833.83935,515.72556 -834.1174,515.97464 C -834.62963,516.4417 -834.88573,517.07224 -834.88573,517.86624 L -828.30018,517.86624 L -828.30018,520.38835 L -834.86378,520.38835 C -834.86378,520.76201 -834.82719,521.08116 -834.75402,521.34583 C -834.6662,521.59492 -834.49792,521.85179 -834.24913,522.11647 C -834.00033,522.36556 -833.70766,522.53683 -833.37106,522.63024 C -833.01982,522.70808 -832.59543,522.747 -832.09785,522.747 L -828.25629,522.747 L -828.25629,525.01224 M -815.73824,524.94217 L -818.78956,524.94217 L -818.78956,516.97882 C -818.78957,516.77645 -818.83347,516.59741 -818.92128,516.4417 C -819.00909,516.27046 -819.13348,516.10698 -819.29445,515.9513 C -819.58715,515.68663 -819.92373,515.5543 -820.30423,515.55429 L -823.28968,515.55429 L -823.28968,524.94217 L -826.34099,524.94217 L -826.34099,512.84536 L -820.50181,512.84536 C -819.46276,512.84537 -818.70909,512.90765 -818.24076,513.03218 C -817.50905,513.21903 -816.92368,513.63158 -816.48461,514.26988 C -815.98705,515.01719 -815.73826,515.83453 -815.73824,516.72195 L -815.73824,524.94217 M -806.97469,515.36747 L -809.93818,515.36747 L -809.93818,520.85541 C -809.93818,521.35361 -809.77721,521.76618 -809.45523,522.09311 C -809.08939,522.42006 -808.60644,522.58354 -808.00642,522.58353 L -807.10641,522.58353 L -807.10641,524.94217 L -809.93818,524.94217 C -810.78698,524.94217 -811.51139,524.61523 -812.11141,523.96135 C -812.46264,523.57214 -812.68947,523.144 -812.7919,522.67694 C -812.89435,522.20988 -812.94557,521.65719 -812.94557,521.01888 L -812.94557,515.36747 L -814.87734,515.36747 L -814.87734,512.84536 L -812.94557,512.84536 L -812.94557,508.59513 L -809.93818,508.59513 L -809.93818,512.84536 L -806.97469,512.84536 L -806.97469,515.36747 M -789.06098,516.74529 C -789.06101,519.92129 -789.88785,522.19431 -791.54153,523.56435 C -792.88792,524.66972 -794.84895,525.2224 -797.42462,525.2224 C -800.27835,525.2224 -802.38572,524.58409 -803.74673,523.30746 C -805.23948,521.9063 -805.98583,519.65664 -805.98583,516.55847 C -805.98583,514.02081 -805.31996,512.0436 -803.9882,510.62683 C -802.5394,509.08555 -800.37347,508.3149 -797.49047,508.31489 C -794.3148,508.3149 -792.07571,509.05442 -790.77321,510.53342 C -789.63175,511.84119 -789.06101,513.91181 -789.06098,516.74529 M -792.96839,516.65188 C -792.96841,515.04833 -793.32696,513.77169 -794.04403,512.82201 C -794.84895,511.76336 -796.04166,511.23402 -797.62218,511.23401 C -799.17345,511.23402 -800.34421,511.80229 -801.13448,512.93877 C -801.79303,513.88847 -802.12232,515.12618 -802.12231,516.65188 C -802.12232,518.41115 -801.85889,519.71112 -801.33204,520.55182 C -800.60031,521.71948 -799.24662,522.30328 -797.27097,522.30328 C -795.60263,522.30328 -794.43188,521.73504 -793.75866,520.59852 C -793.23183,519.71112 -792.96841,518.39557 -792.96839,516.65188 M -771.4896,519.87458 C -771.48961,521.3069 -771.93597,522.51347 -772.82866,523.49428 C -773.72137,524.47511 -774.85557,524.96553 -776.23118,524.96553 L -787.09734,524.94217 L -787.09734,521.9997 L -778.14099,521.9997 C -777.54098,521.99971 -777.03609,521.85179 -776.62632,521.556 C -776.15802,521.2135 -775.92387,520.74644 -775.92387,520.15483 C -775.92387,518.76922 -776.84584,518.07642 -778.68978,518.07641 L -783.21185,518.07641 C -784.51435,518.07642 -785.65584,517.64828 -786.63634,516.79201 C -787.61686,515.93574 -788.1071,514.84595 -788.1071,513.5226 C -788.1071,512.05916 -787.63151,510.87594 -786.68024,509.97295 C -785.71437,509.05442 -784.44848,508.59515 -782.88258,508.59513 L -772.49939,508.59513 L -772.49939,511.39749 L -781.65327,511.39749 C -782.06305,511.3975 -782.48014,511.58431 -782.90453,511.95795 C -783.31431,512.31605 -783.51919,512.74417 -783.51918,513.24236 C -783.51919,513.80283 -783.32162,514.27769 -782.92648,514.66689 C -782.51672,515.04054 -782.02646,515.22737 -781.45571,515.22736 L -776.47265,515.22736 C -774.92141,515.22737 -773.70674,515.65551 -772.82866,516.51177 C -771.93597,517.35249 -771.48961,518.47342 -771.4896,519.87458"
         clip-path="none"
         style="font-size:72.70541382000000397px;font-style:normal;font-variant:normal;font-weight:200;font-stretch:normal;text-align:start;line-height:125%;writing-mode:lr-tb;text-anchor:start;fill:#8f6e9e;fill-opacity:1;stroke:none;stroke-width:2.48031496999999979;stroke-linecap:butt;stroke-linejoin:miter;stroke-miterlimit:4;stroke-dasharray:none;stroke-opacity:1;display:inline;font-family:Denmark;-inkscape-font-specification:Denmark Ultra-Light" />
    </g>
  </g>
</svg>
