<?xml version="1.0" encoding="UTF-8" standalone="no"?>
<!-- Created with Inkscape (http://www.inkscape.org/) -->
<svg
   xmlns:dc="http://purl.org/dc/elements/1.1/"
   xmlns:cc="http://creativecommons.org/ns#"
   xmlns:rdf="http://www.w3.org/1999/02/22-rdf-syntax-ns#"
   xmlns:svg="http://www.w3.org/2000/svg"
   xmlns="http://www.w3.org/2000/svg"
   xmlns:xlink="http://www.w3.org/1999/xlink"
   xmlns:sodipodi="http://sodipodi.sourceforge.net/DTD/sodipodi-0.dtd"
   xmlns:inkscape="http://www.inkscape.org/namespaces/inkscape"
   width="340"
   height="482"
   id="svg2"
   sodipodi:version="0.32"
   inkscape:version="0.46"
   sodipodi:docname="motif-D6-portrait.svg"
   inkscape:output_extension="org.inkscape.output.svg.inkscape"
   version="1.0"
   style="display:inline">
  <defs
     id="defs4">
    <inkscape:perspective
       sodipodi:type="inkscape:persp3d"
       inkscape:vp_x="0 : 241 : 1"
       inkscape:vp_y="0 : 1000 : 0"
       inkscape:vp_z="340 : 241 : 1"
       inkscape:persp3d-origin="170 : 160.66667 : 1"
       id="perspective2899" />
    <filter
       inkscape:collect="always"
       id="filter3670">
      <feGaussianBlur
         inkscape:collect="always"
         stdDeviation="1.4864866"
         id="feGaussianBlur3672" />
    </filter>
  </defs>
  <sodipodi:namedview
     id="base"
     pagecolor="#ffffff"
     bordercolor="#000000"
     borderopacity="1"
     gridtolerance="10000"
     guidetolerance="10"
     objecttolerance="10"
     inkscape:pageopacity="1"
     inkscape:pageshadow="2"
     inkscape:zoom="1"
     inkscape:cx="170"
     inkscape:cy="258.74808"
     inkscape:document-units="mm"
     inkscape:current-layer="layer1"
     showgrid="false"
     showborder="true"
     inkscape:showpageshadow="false"
     showguides="false"
     inkscape:guide-bbox="true"
     inkscape:window-width="1360"
     inkscape:window-height="693"
     inkscape:window-x="0"
     inkscape:window-y="25"
     units="mm"
     inkscape:snap-intersection-line-segments="false">
    <sodipodi:guide
       orientation="1,0"
       position="0,0"
       id="guide3932" />
    <inkscape:grid
       type="xygrid"
       id="grid5369"
       visible="true"
       enabled="true"
       units="mm"
       spacingx="1mm"
       spacingy="1mm"
       color="#008aff"
       opacity="0.1254902"
       empcolor="#008aff"
       empopacity="0.25098039" />
    <sodipodi:guide
       orientation="0,1"
       position="233.23463,481.88976"
       id="guide2652" />
    <sodipodi:guide
       orientation="0,1"
       position="215.8866,0"
       id="guide2654" />
    <sodipodi:guide
       orientation="1,0"
       position="340.15748,377.80156"
       id="guide2656" />
    <sodipodi:guide
       orientation="0,1"
       position="92.52283,17.716535"
       id="guide2658" />
    <sodipodi:guide
       orientation="1,0"
       position="17.716535,17.716535"
       id="guide2660" />
    <sodipodi:guide
       orientation="0,1"
       position="150.3496,464.17323"
       id="guide2662" />
    <sodipodi:guide
       orientation="1,0"
       position="318.89764,290.09762"
       id="guide2664" />
    <sodipodi:guide
       orientation="0,1"
       position="134.92913,240.94488"
       id="guide2666" />
    <sodipodi:guide
       orientation="0,1"
       position="169.62519,120.47244"
       id="guide2668" />
    <sodipodi:guide
       orientation="0,1"
       position="137.82047,361.41732"
       id="guide2670" />
    <sodipodi:guide
       orientation="1,0"
       position="170.07874,323.82991"
       id="guide2672" />
    <sodipodi:guide
       orientation="0,1"
       position="233,446.45669"
       id="guide3063" />
    <sodipodi:guide
       orientation="1,0"
       position="35.433071,352"
       id="guide2920" />
    <sodipodi:guide
       orientation="1,0"
       position="301.1811,297"
       id="guide2922" />
    <sodipodi:guide
       orientation="0,1"
       position="253.532,293.056"
       id="guide2926" />
  </sodipodi:namedview>
  <metadata
     id="metadata3399">
    <rdf:RDF>
      <cc:Work
         rdf:about="">
        <dc:format>image/svg+xml</dc:format>
        <dc:type
           rdf:resource="http://purl.org/dc/dcmitype/StillImage" />
        <cc:license
           rdf:resource="http://creativecommons.org/licenses/by-sa/3.0/" />
        <dc:title>motif-D6-portrait.svg</dc:title>
        <dc:date>2010-11-11</dc:date>
        <dc:creator>
          <cc:Agent>
            <dc:title>Alain Reguera Delgado</dc:title>
          </cc:Agent>
        </dc:creator>
        <dc:rights>
          <cc:Agent>
            <dc:title>Alain Reguera Delgado</dc:title>
          </cc:Agent>
        </dc:rights>
        <dc:publisher>
          <cc:Agent>
            <dc:title>The CentOS Project</dc:title>
          </cc:Agent>
        </dc:publisher>
        <dc:identifier>https://projects.centos.org/svn/artwork/trunk/Identity/Themes/Motifs/TreeFlower/Concept/Tpl/motif-D6-portrait.svg</dc:identifier>
        <dc:source>https://projects.centos.org/svn/artwork/trunk/Identity/Themes/Motifs/TreeFlower/Concept/Tpl/motif-D6-portrait.svg</dc:source>
        <dc:relation>https://projects.centos.org/svn/artwork/trunk/Identity/Themes/Motifs/TreeFlower/Concept/Tpl/motif-D6-portrait.svg</dc:relation>
        <dc:language>en</dc:language>
        <dc:subject>
          <rdf:Bag>
            <rdf:li>Identity</rdf:li>
            <rdf:li>Themes</rdf:li>
            <rdf:li>Motifs</rdf:li>
            <rdf:li>TreeFlower</rdf:li>
            <rdf:li>Concept</rdf:li>
            <rdf:li>Tpl</rdf:li>
          </rdf:Bag>
        </dc:subject>
        <dc:coverage>The CentOS Project</dc:coverage>
        <dc:description />
        <dc:contributor>
          <cc:Agent>
            <dc:title />
          </cc:Agent>
        </dc:contributor>
      </cc:Work>
      <cc:License
         rdf:about="http://creativecommons.org/licenses/by-sa/3.0/">
        <cc:permits
           rdf:resource="http://creativecommons.org/ns#Reproduction" />
        <cc:permits
           rdf:resource="http://creativecommons.org/ns#Distribution" />
        <cc:requires
           rdf:resource="http://creativecommons.org/ns#Notice" />
        <cc:requires
           rdf:resource="http://creativecommons.org/ns#Attribution" />
        <cc:permits
           rdf:resource="http://creativecommons.org/ns#DerivativeWorks" />
        <cc:requires
           rdf:resource="http://creativecommons.org/ns#ShareAlike" />
      </cc:License>
    </rdf:RDF>
  </metadata>
  <g
     inkscape:groupmode="layer"
     id="layer2"
     inkscape:label="Background"
     style="display:inline"
     transform="translate(0,0.11026)">
    <image
       y="-0.11026"
       x="0"
       id="CENTOSARTWORK"
       height="482"
       width="340"
       sodipodi:absref="/home/centos/artwork/trunk/Identity/Themes/Motifs/TreeFlower/Backgrounds/Img/Stationery/Png/D6-portrait-final.png"
       xlink:href="/home/centos/artwork/trunk/Identity/Themes/Motifs/TreeFlower/Backgrounds/Img/Stationery/Png/D6-portrait-final.png"
       inkscape:label="#image2835" />
  </g>
  <g
     inkscape:label="Brands"
     inkscape:groupmode="layer"
     id="layer1"
     style="display:inline"
     transform="translate(-67.999994,-823.04631)">
    <g
       transform="matrix(1.1571082,0.9854835,0.9854835,-1.1571082,208.53328,1168.0122)"
       id="g17290"
       style="opacity:0.1;filter:url(#filter3670)" />
    <g
       style="opacity:0.1"
       id="g22175"
       transform="matrix(0.381003,0.1771145,0.1771145,-0.381003,658.50485,887.48913)" />
    <g
       style="opacity:0.1"
       transform="matrix(0.8187318,0,0,0.8187318,495.17619,696.7082)"
       id="g22181">
      <g
         id="g22183"
         transform="matrix(0.4010554,0,0,0.4010554,297.65753,82.48033)" />
    </g>
    <g
       style="opacity:0.1"
       inkscape:transform-center-y="44.005377"
       inkscape:transform-center-x="-10.433289"
       transform="matrix(-0.4683679,-0.5724281,0.5724281,-0.4683679,879.65712,1136.3958)"
       id="g22197" />
    <g
       style="opacity:0.1"
       id="g22243"
       transform="matrix(0.1747465,0,0,-0.1747465,706.59619,1212.9507)" />
    <text
       xml:space="preserve"
       style="font-size:5.91338491px;font-style:normal;font-variant:normal;font-weight:normal;font-stretch:normal;text-align:center;line-height:125%;writing-mode:lr-tb;text-anchor:middle;fill:#000000;fill-opacity:1;stroke:none;stroke-width:1px;stroke-linecap:butt;stroke-linejoin:miter;stroke-opacity:1;font-family:DejaVu LGC Sans Mono;-inkscape-font-specification:DejaVu LGC Sans Mono"
       x="195.21674"
       y="1311.8235"
       id="text3223"
       sodipodi:linespacing="125%"
       transform="scale(1.0163639,0.9838995)"><tspan
         sodipodi:role="line"
         id="tspan3225"
         x="195.21674"
         y="1311.8235"
         style="font-size:4.92782116px;font-style:normal;font-variant:normal;font-weight:normal;font-stretch:normal;font-family:DejaVu LGC Sans Mono;-inkscape-font-specification:DejaVu LGC Sans Mono" /></text>
    <text
       xml:space="preserve"
       style="font-size:8.68682098px;font-style:normal;font-variant:normal;font-weight:normal;font-stretch:normal;text-align:center;line-height:125%;writing-mode:lr-tb;text-anchor:middle;fill:#000000;fill-opacity:1;stroke:none;stroke-width:1px;stroke-linecap:butt;stroke-linejoin:miter;stroke-opacity:1;font-family:DejaVu LGC Sans Mono;-inkscape-font-specification:DejaVu LGC Sans Mono"
       x="632.74908"
       y="1316.6162"
       id="text6901"
       sodipodi:linespacing="125%"
       transform="scale(1.0163641,0.9838994)"><tspan
         sodipodi:role="line"
         id="tspan6903"
         x="632.74908"
         y="1316.6162"
         style="font-size:7.23901796px;font-style:normal;font-variant:normal;font-weight:normal;font-stretch:normal;font-family:DejaVu LGC Sans Mono;-inkscape-font-specification:DejaVu LGC Sans Mono" /></text>
    <text
       xml:space="preserve"
       style="font-size:17.00097656px;font-style:normal;font-variant:normal;font-weight:normal;font-stretch:normal;text-align:center;line-height:125%;writing-mode:lr-tb;text-anchor:middle;fill:#000000;fill-opacity:1;stroke:none;stroke-width:1px;stroke-linecap:butt;stroke-linejoin:miter;stroke-opacity:1;font-family:DejaVu LGC Sans Mono;-inkscape-font-specification:DejaVu LGC Sans Mono"
       x="781.71478"
       y="1189.7498"
       id="text7298"
       sodipodi:linespacing="125%"
       transform="scale(1.016364,0.9838995)"><tspan
         sodipodi:role="line"
         id="tspan7300"
         x="781.71478"
         y="1189.7498"
         style="font-size:14.16748047px;font-style:normal;font-variant:normal;font-weight:normal;font-stretch:normal;font-family:DejaVu LGC Sans Mono;-inkscape-font-specification:DejaVu LGC Sans Mono" /></text>
    <text
       xml:space="preserve"
       style="font-size:24px;font-style:normal;font-variant:normal;font-weight:normal;font-stretch:normal;text-align:center;line-height:125%;writing-mode:lr-tb;text-anchor:middle;fill:#000000;fill-opacity:1;stroke:none;stroke-width:1px;stroke-linecap:butt;stroke-linejoin:miter;stroke-opacity:1;font-family:DejaVu LGC Sans Mono;-inkscape-font-specification:DejaVu LGC Sans Mono"
       x="522.9538"
       y="1156.1893"
       id="text2673"
       sodipodi:linespacing="125%"><tspan
         sodipodi:role="line"
         id="tspan2675"
         x="522.9538"
         y="1156.1893"
         style="font-size:20px;font-style:normal;font-variant:normal;font-weight:normal;font-stretch:normal;font-family:DejaVu LGC Sans Mono;-inkscape-font-specification:DejaVu LGC Sans Mono" /></text>
    <text
       xml:space="preserve"
       style="font-size:29.59854317px;font-style:normal;font-variant:normal;font-weight:normal;font-stretch:normal;text-align:center;line-height:125%;writing-mode:lr-tb;text-anchor:middle;fill:#000000;fill-opacity:1;stroke:none;stroke-width:1px;stroke-linecap:butt;stroke-linejoin:miter;stroke-opacity:1;font-family:DejaVu LGC Sans Mono;-inkscape-font-specification:DejaVu LGC Sans Mono"
       x="678.30817"
       y="1627.1879"
       id="text3800"
       sodipodi:linespacing="125%"
       transform="scale(1.016364,0.9838995)"><tspan
         sodipodi:role="line"
         id="tspan3802"
         x="678.30817"
         y="1627.1879"
         style="font-size:24.66545296px;font-style:normal;font-variant:normal;font-weight:normal;font-stretch:normal;font-family:DejaVu LGC Sans Mono;-inkscape-font-specification:DejaVu LGC Sans Mono" /></text>
    <text
       xml:space="preserve"
       style="font-size:16.64535141px;font-style:normal;font-variant:normal;font-weight:normal;font-stretch:normal;text-align:center;line-height:125%;writing-mode:lr-tb;text-anchor:middle;fill:#000000;fill-opacity:1;stroke:none;stroke-width:1px;stroke-linecap:butt;stroke-linejoin:miter;stroke-opacity:1;font-family:DejaVu LGC Sans Mono;-inkscape-font-specification:DejaVu LGC Sans Mono"
       x="572.51532"
       y="1830.0952"
       id="text4607"
       sodipodi:linespacing="125%"
       transform="scale(1.016364,0.9838995)"><tspan
         sodipodi:role="line"
         id="tspan4609"
         x="572.51532"
         y="1830.0952"
         style="font-size:13.87112617px;font-style:normal;font-variant:normal;font-weight:normal;font-stretch:normal;font-family:DejaVu LGC Sans Mono;-inkscape-font-specification:DejaVu LGC Sans Mono" /></text>
    <text
       xml:space="preserve"
       style="font-size:33.08072662px;font-style:normal;font-variant:normal;font-weight:normal;font-stretch:normal;text-align:center;line-height:125%;writing-mode:lr-tb;text-anchor:middle;fill:#000000;fill-opacity:1;stroke:none;stroke-width:1px;stroke-linecap:butt;stroke-linejoin:miter;stroke-opacity:1;font-family:DejaVu LGC Sans Mono;-inkscape-font-specification:DejaVu LGC Sans Mono"
       x="-327.22101"
       y="1678.1958"
       id="text5267"
       sodipodi:linespacing="125%"
       transform="scale(1.016364,0.9838995)"><tspan
         sodipodi:role="line"
         id="tspan5269"
         x="-327.22101"
         y="1678.1958"
         style="font-size:27.56727219px;font-style:normal;font-variant:normal;font-weight:normal;font-stretch:normal;font-family:DejaVu LGC Sans Mono;-inkscape-font-specification:DejaVu LGC Sans Mono" /></text>
    <flowRoot
       xml:space="preserve"
       id="flowRoot4325"
       style="font-size:15.01739979px;font-style:normal;font-variant:normal;font-weight:normal;font-stretch:normal;text-indent:0;text-align:center;text-decoration:none;line-height:150%;letter-spacing:normal;word-spacing:normal;text-transform:none;direction:ltr;block-progression:tb;writing-mode:lr-tb;text-anchor:middle;fill:#ffffff;fill-opacity:1;fill-rule:nonzero;stroke:none;stroke-width:1px;stroke-linecap:butt;stroke-linejoin:miter;marker:none;marker-start:none;marker-mid:none;marker-end:none;stroke-miterlimit:4;stroke-dasharray:none;stroke-dashoffset:0;stroke-opacity:1;visibility:visible;display:inline;overflow:visible;enable-background:accumulate;font-family:DejaVu LGC Sans;-inkscape-font-specification:DejaVu LGC Sans"
       transform="matrix(0.7990731,0,0,0.7990731,36.410014,631.05442)"><flowRegion
         id="flowRegion4327"><rect
           id="rect4329"
           width="331.02908"
           height="218.8343"
           x="86.549889"
           y="299.62109"
           style="font-size:15.01739979px;font-style:normal;font-variant:normal;font-weight:normal;font-stretch:normal;text-align:center;line-height:150%;writing-mode:lr-tb;text-anchor:middle;fill:#ffffff;font-family:DejaVu LGC Sans;-inkscape-font-specification:DejaVu LGC Sans" /></flowRegion><flowPara
         id="flowPara4331">CentOS like trees, has roots, trunk, branches, leaves and flowers. Day by day they work together in freedom, ruled by the laws of nature and open standards, to show the beauty of its existence.</flowPara><flowPara
         id="flowPara4893" /></flowRoot>    <g
       style="display:inline"
       id="g2575"
       transform="matrix(0.3696601,0,0,0.3696601,-14.332598,606.92742)">
      <text
         sodipodi:linespacing="130%"
         id="text2577"
         y="1819.5896"
         x="683.49768"
         style="font-size:16px;font-style:normal;font-variant:normal;font-weight:normal;font-stretch:normal;text-indent:0;text-align:center;text-decoration:none;line-height:129.99999523%;letter-spacing:normal;word-spacing:normal;text-transform:none;direction:ltr;block-progression:tb;writing-mode:lr-tb;text-anchor:middle;fill:#ffffff;fill-opacity:1;fill-rule:nonzero;stroke:none;stroke-width:1px;stroke-linecap:butt;stroke-linejoin:miter;marker:none;marker-start:none;marker-mid:none;marker-end:none;stroke-miterlimit:4;stroke-dasharray:none;stroke-dashoffset:0;stroke-opacity:1;visibility:visible;display:inline;overflow:visible;enable-background:accumulate;font-family:DejaVu LGC Sans;-inkscape-font-specification:DejaVu LGC Sans"
         xml:space="preserve"><tspan
           id="tspan2579"
           y="1819.5896"
           x="683.49768"
           sodipodi:role="line">Copyright © 2009, 2010 Alain Reguera Delgado. All rights reserved.</tspan><tspan
           y="1840.3896"
           x="683.49768"
           sodipodi:role="line"
           id="tspan2720">This artwork is released under Creative Common Attribution-ShareAlike 3.0 License.</tspan></text>
      <g
         style="display:inline"
         id="g2585"
         transform="matrix(0.4557675,0,0,0.4557675,469.85059,1259.0488)">
        <g
           transform="matrix(2.5307075,0,0,2.5307075,-67.883865,-2089.8296)"
           id="g2587"
           style="fill:#ffffff">
          <g
             id="g2589"
             transform="matrix(2.042901,0,0,2.042901,-91.286491,-1055.472)"
             style="fill:#ffffff">
            <g
               style="fill:#ffffff;display:inline"
               id="g2591"
               transform="matrix(0.753824,0,0,0.753824,43.591171,320.09806)">
              <g
                 id="g2593"
                 transform="matrix(0.4179296,0,0,0.4190481,-0.2144611,1050.3541)"
                 style="fill:#ffffff;fill-opacity:1;display:inline">
                <text
                   id="text2595"
                   y="104.39967"
                   x="333.58936"
                   style="font-size:69.71334076px;font-style:normal;font-weight:normal;text-align:center;text-anchor:middle;fill:#ffffff;fill-opacity:1;stroke:none;stroke-width:1px;stroke-linecap:butt;stroke-linejoin:miter;stroke-opacity:1;display:inline;font-family:Bitstream Vera Sans"
                   xml:space="preserve"><tspan
                     style="font-style:normal;font-variant:normal;font-weight:200;font-stretch:normal;text-align:center;text-anchor:middle;fill:#ffffff;fill-opacity:1;font-family:Denmark;-inkscape-font-specification:Denmark Ultra-Light"
                     y="104.39967"
                     x="333.58936"
                     id="tspan2597"
                     sodipodi:role="line">TreeFl  wer</tspan></text>
              </g>
              <path
                 transform="matrix(0.1877957,-6.5668885e-2,-6.5649806e-2,-0.1877411,140.84415,1133.7555)"
                 d="M 185.65564,215.85391 C 230.04118,234.53637 228.68309,169.06242 185.43211,190.23938 C 105.57307,229.34073 166.01559,140.53997 158.53359,229.14246 C 154.48141,277.12882 216.33116,255.60463 182.82538,221.01455 C 120.95999,157.14707 224.0923,187.19038 137.51425,207.45425 C 90.624323,218.42899 130.20767,270.60026 152.75094,228.04545 C 194.37506,149.47183 197.67181,256.84038 151.64563,180.76165 C 126.71825,139.55805 89.332353,193.32586 136.77063,201.61562 C 224.36115,216.92193 123.26635,253.23603 181.39865,185.95292 C 212.88261,149.51296 150.19351,130.57202 156.96871,178.25019 C 169.4785,266.28363 103.70173,181.35843 185.65564,215.85391 z"
                 inkscape:randomized="0"
                 inkscape:rounded="1.88"
                 inkscape:flatsided="false"
                 sodipodi:arg2="-0.54381798"
                 sodipodi:arg1="0.48689923"
                 sodipodi:r2="26.272663"
                 sodipodi:r1="25.691782"
                 sodipodi:cy="203.83304"
                 sodipodi:cx="162.94955"
                 sodipodi:sides="5"
                 id="path2599"
                 style="opacity:1;fill:#ffffff;fill-opacity:1;stroke:none;stroke-width:1;stroke-linejoin:round;stroke-miterlimit:4;stroke-dasharray:none;stroke-dashoffset:0;stroke-opacity:1;display:inline"
                 sodipodi:type="star" />
            </g>
          </g>
          <path
             id="path2601"
             style="opacity:1;fill:#ffffff;fill-opacity:1;fill-rule:evenodd;stroke:none;stroke-width:1px;stroke-linecap:butt;stroke-linejoin:miter;stroke-opacity:1"
             d="M 95.707267,1260.5138 C 95.707509,1260.5134 95.70738,1260.5138 95.707267,1260.5138 C 95.701106,1260.5138 95.709904,1260.5109 95.707267,1260.5138 C 95.671809,1260.5527 95.715801,1260.5613 95.738418,1260.5499 C 95.796112,1260.5207 95.783712,1260.4375 95.751146,1260.3933 C 95.668892,1260.2817 95.501873,1260.311 95.409989,1260.392 C 95.215321,1260.5632 95.276892,1260.8687 95.442589,1261.0352 C 95.753191,1261.3473 96.265084,1261.2341 96.539397,1260.935 C 97.01025,1260.4216 96.820339,1259.619 96.326448,1259.197 C 95.533044,1258.5188 94.338116,1258.816 93.721115,1259.5799 C 92.779828,1260.7452 93.221346,1262.452 94.344677,1263.3186 C 95.98829,1264.5865 98.345767,1263.9574 99.524138,1262.3701 C 101.1901,1260.1258 100.3235,1256.9597 98.152325,1255.3997 M 95.707267,1260.5138 C 95.707063,1260.5134 95.70733,1260.5137 95.707267,1260.5138 C 95.704349,1260.5193 95.703357,1260.5131 95.707267,1260.5138 C 95.73132,1260.5183 95.753035,1260.4997 95.752591,1260.4805 C 95.751597,1260.4159 95.674848,1260.3876 95.620751,1260.3956 C 95.483506,1260.4156 95.430603,1260.5766 95.458638,1260.6959 C 95.517938,1260.9482 95.816456,1261.0379 96.041352,1260.9701 C 96.463004,1260.8433 96.604347,1260.3385 96.469794,1259.9556 C 96.238821,1259.2983 95.441477,1259.0876 94.836441,1259.3243 C 93.864471,1259.7047 93.563641,1260.8986 93.94654,1261.8028 C 94.53076,1263.1822 96.244405,1263.597 97.538093,1263.0145 C 99.430874,1262.1623 100.01375,1259.7736 99.142003,1257.9991 C 97.929555,1255.5311 96.708442,1256.5361 98.152325,1255.3997"
             sodipodi:nodetypes="csssssssssssccsssssssssssc" />
          <g
             id="g2603"
             transform="matrix(0.6023818,-0.8498805,0.8498805,0.6023818,-1001.8974,609.50651)"
             style="fill:#ffffff">
            <path
               id="path2605"
               style="opacity:1;fill:#ffffff;fill-opacity:1;fill-rule:evenodd;stroke:none;stroke-width:1px;stroke-linecap:butt;stroke-linejoin:miter;stroke-opacity:1"
               d="M 94.755812,1245.7201 C 94.756563,1245.7205 94.755904,1245.7199 94.755812,1245.7201 C 94.749327,1245.7275 94.762071,1245.7201 94.755812,1245.7201 C 94.672542,1245.7209 94.708833,1245.66 94.746055,1245.6454 C 94.841402,1245.6082 94.926448,1245.7106 94.944169,1245.7954 C 94.989051,1246.0103 94.778436,1246.1761 94.586019,1246.199 C 94.178858,1246.248 93.883545,1245.8536 93.861896,1245.4827 C 93.82127,1244.7872 94.494572,1244.303 95.136406,1244.2947 C 96.238324,1244.2809 96.984544,1245.351 96.96154,1246.3783 C 96.924802,1248.029 95.314445,1249.1246 93.763049,1249.0469 C 91.39655,1248.9286 89.849204,1246.6081 90.011666,1244.37 C 90.24932,1241.0949 93.476703,1238.978 96.590953,1239.2621 C 100.99406,1239.6636 103.81406,1244.0236 103.36449,1248.2287 M 94.755812,1245.7201 C 94.756036,1245.7208 94.755962,1245.7201 94.755812,1245.7201 C 94.746234,1245.7179 94.752549,1245.7256 94.755812,1245.7201 C 94.775918,1245.6871 94.820733,1245.6811 94.842858,1245.7018 C 94.917992,1245.7711 94.870487,1245.8915 94.804022,1245.9469 C 94.635763,1246.0876 94.390072,1245.9801 94.27897,1245.8214 C 94.043908,1245.4854 94.252913,1245.0389 94.569926,1244.8451 C 95.164055,1244.4816 95.908396,1244.847 96.218046,1245.4095 C 96.74968,1246.3749 96.157407,1247.5371 95.240396,1248.0011 C 93.767111,1248.7464 92.041988,1247.8424 91.379419,1246.4375 C 90.368728,1244.2944 91.686262,1241.8361 93.737134,1240.9247 C 96.737619,1239.5909 100.16913,1241.4222 101.34262,1244.321 C 102.9747,1248.3527 100.5021,1248.7333 103.36449,1248.2287"
               sodipodi:nodetypes="csssssssssssccsssssssssssc" />
            <path
               sodipodi:nodetypes="csssssssssssccsssssssssssc"
               d="M 115.39129,1244.7928 C 115.39005,1244.7932 115.39114,1244.7924 115.39129,1244.7928 C 115.40195,1244.8049 115.38099,1244.7928 115.39129,1244.7928 C 115.5282,1244.7941 115.46853,1244.694 115.40733,1244.6699 C 115.25055,1244.6087 115.11071,1244.777 115.08157,1244.9165 C 115.00778,1245.2696 115.35408,1245.5426 115.67047,1245.5803 C 116.33996,1245.6609 116.82554,1245.0122 116.86114,1244.4022 C 116.92794,1243.2588 115.82084,1242.4626 114.76548,1242.4489 C 112.95361,1242.4263 111.72661,1244.1858 111.76444,1245.8749 C 111.82485,1248.5892 114.47273,1250.3909 117.02367,1250.2629 C 120.91487,1250.0683 123.45915,1246.2529 123.19202,1242.5726 C 122.80124,1237.1875 117.4945,1233.7067 112.37379,1234.1737 C 105.13382,1234.834 100.49693,1242.0031 101.23615,1248.9175 M 115.39129,1244.7928 C 115.39092,1244.7939 115.39104,1244.7928 115.39129,1244.7928 C 115.40703,1244.7889 115.39665,1244.8017 115.39129,1244.7928 C 115.35822,1244.7384 115.28453,1244.7285 115.24816,1244.7625 C 115.12462,1244.8766 115.20272,1245.0744 115.31202,1245.1656 C 115.58868,1245.397 115.99267,1245.2203 116.17535,1244.9593 C 116.56185,1244.4068 116.21819,1243.6725 115.69693,1243.3539 C 114.72001,1242.7561 113.4961,1243.3571 112.98696,1244.282 C 112.1128,1245.8694 113.08666,1247.7804 114.59449,1248.5433 C 117.01699,1249.7688 119.85359,1248.2823 120.94304,1245.9723 C 122.6049,1242.4483 120.4385,1238.4062 117.06629,1236.9077 C 112.13263,1234.7145 106.49026,1237.7257 104.56071,1242.4922 C 101.87709,1249.1215 105.94274,1249.7472 101.23615,1248.9175"
               style="opacity:1;fill:#ffffff;fill-opacity:1;fill-rule:evenodd;stroke:none;stroke-width:1px;stroke-linecap:butt;stroke-linejoin:miter;stroke-opacity:1"
               id="path2607" />
            <path
               id="path2609"
               style="opacity:1;fill:#ffffff;fill-opacity:1;fill-rule:evenodd;stroke:none;stroke-width:1px;stroke-linecap:butt;stroke-linejoin:miter;stroke-opacity:1"
               d="M 108.58635,1230.0116 C 108.58598,1230.0124 108.58608,1230.0115 108.58635,1230.0116 C 108.59729,1230.0119 108.58159,1230.0167 108.58635,1230.0116 C 108.65026,1229.9441 108.57292,1229.9276 108.53266,1229.9468 C 108.42985,1229.9964 108.44886,1230.1437 108.50477,1230.2227 C 108.64617,1230.4225 108.94185,1230.3764 109.10676,1230.2366 C 109.45612,1229.941 109.35799,1229.4 109.07127,1229.1005 C 108.53377,1228.5391 107.62659,1228.7216 107.13219,1229.2398 C 106.28389,1230.1299 106.59163,1231.5527 107.44866,1232.3142 C 108.82569,1233.5382 110.9445,1233.0543 112.05939,1231.7274 C 113.76035,1229.7033 113.03933,1226.676 111.08666,1225.1086 C 108.22948,1222.8149 104.04771,1223.8445 101.91411,1226.6055 C 98.89751,1230.5092 100.31874,1236.126 104.09705,1238.9529 M 108.58635,1230.0116 C 108.58674,1230.0122 108.58624,1230.0117 108.58635,1230.0116 C 108.59169,1230.0019 108.59327,1230.013 108.58635,1230.0116 C 108.54402,1230.0028 108.50507,1230.035 108.50516,1230.0687 C 108.5048,1230.1828 108.6392,1230.2354 108.73503,1230.2232 C 108.97785,1230.1926 109.07669,1229.9101 109.03132,1229.6988 C 108.9353,1229.2514 108.41155,1229.083 108.01234,1229.1949 C 107.26391,1229.4043 106.99721,1230.2903 107.22167,1230.9706 C 107.60685,1232.1385 109.00664,1232.5373 110.08241,1232.1403 C 111.81073,1231.5024 112.38234,1229.4057 111.73746,1227.797 C 110.75365,1225.343 107.74365,1224.5523 105.4409,1225.5362 C 102.07151,1226.9752 100.96149,1231.1709 102.43924,1234.3321 C 104.49453,1238.7286 106.68384,1236.9968 104.09705,1238.9529"
               sodipodi:nodetypes="csssssssssssccsssssssssssc" />
          </g>
        </g>
        <text
           transform="scale(0.8572094,1.1665761)"
           id="text2611"
           y="942.5423"
           x="891.48566"
           style="font-size:25px;font-style:normal;font-variant:normal;font-weight:normal;font-stretch:normal;fill:#ffffff;fill-opacity:1;stroke:none;stroke-width:1;stroke-linecap:butt;stroke-linejoin:miter;stroke-miterlimit:4;stroke-dasharray:none;stroke-opacity:1;font-family:DejaVu LGC Sans;-inkscape-font-specification:DejaVu LGC Sans"
           xml:space="preserve"><tspan
             y="942.5423"
             x="891.48566"
             id="tspan2613"
             sodipodi:role="line">™</tspan></text>
      </g>
    </g>
  </g>
</svg>
