<?xml version="1.0" encoding="UTF-8" standalone="no"?>
<!-- Created with Inkscape (http://www.inkscape.org/) -->
<svg
   xmlns:dc="http://purl.org/dc/elements/1.1/"
   xmlns:cc="http://creativecommons.org/ns#"
   xmlns:rdf="http://www.w3.org/1999/02/22-rdf-syntax-ns#"
   xmlns:svg="http://www.w3.org/2000/svg"
   xmlns="http://www.w3.org/2000/svg"
   xmlns:sodipodi="http://sodipodi.sourceforge.net/DTD/sodipodi-0.dtd"
   xmlns:inkscape="http://www.inkscape.org/namespaces/inkscape"
   width="1360"
   height="768"
   id="svg2"
   sodipodi:version="0.32"
   inkscape:version="0.46"
   sodipodi:docname="1360x768.svg"
   inkscape:output_extension="org.inkscape.output.svg.inkscape"
   version="1.0"
   style="display:inline">
  <defs
     id="defs4">
    <inkscape:perspective
       sodipodi:type="inkscape:persp3d"
       inkscape:vp_x="0 : 384 : 1"
       inkscape:vp_y="0 : 1000 : 0"
       inkscape:vp_z="1360 : 384 : 1"
       inkscape:persp3d-origin="680 : 256 : 1"
       id="perspective109" />
    <filter
       inkscape:collect="always"
       id="filter3670">
      <feGaussianBlur
         inkscape:collect="always"
         stdDeviation="1.4864866"
         id="feGaussianBlur3672" />
    </filter>
    <filter
       inkscape:collect="always"
       id="filter3474">
      <feGaussianBlur
         inkscape:collect="always"
         stdDeviation="1.6061345"
         id="feGaussianBlur3476" />
    </filter>
    <filter
       inkscape:collect="always"
       id="filter3387">
      <feGaussianBlur
         inkscape:collect="always"
         stdDeviation="1.7344037"
         id="feGaussianBlur3389" />
    </filter>
    <filter
       inkscape:collect="always"
       id="filter3466">
      <feGaussianBlur
         inkscape:collect="always"
         stdDeviation="3.2352817"
         id="feGaussianBlur3468" />
    </filter>
  </defs>
  <sodipodi:namedview
     id="base"
     pagecolor="#ffffff"
     bordercolor="#666666"
     borderopacity="1.0"
     gridtolerance="10000"
     guidetolerance="10"
     objecttolerance="10"
     inkscape:pageopacity="0.0"
     inkscape:pageshadow="2"
     inkscape:zoom="0.63161765"
     inkscape:cx="680"
     inkscape:cy="390.09155"
     inkscape:document-units="px"
     inkscape:current-layer="layer1"
     showgrid="false"
     showborder="true"
     inkscape:showpageshadow="false"
     showguides="false"
     inkscape:guide-bbox="true"
     inkscape:window-width="1360"
     inkscape:window-height="693"
     inkscape:window-x="0"
     inkscape:window-y="25">
    <sodipodi:guide
       orientation="0,1"
       position="2214.8215,759.57019"
       id="guide3161" />
    <sodipodi:guide
       orientation="1,0"
       position="1689.5113,1249.3865"
       id="guide3163" />
    <sodipodi:guide
       orientation="1,0"
       position="800,1611.4246"
       id="guide3274" />
    <sodipodi:guide
       orientation="0,1"
       position="2647.8475,1540.4367"
       id="guide3286" />
    <sodipodi:guide
       orientation="0,1"
       position="2477.4766,0"
       id="guide3288" />
    <sodipodi:guide
       orientation="1,0"
       position="2045.4132,466.74651"
       id="guide3290" />
    <sodipodi:guide
       orientation="1,0"
       position="0,0"
       id="guide3932" />
    <sodipodi:guide
       orientation="0,1"
       position="1610.5709,1241.9002"
       id="guide8458" />
    <sodipodi:guide
       orientation="1,0"
       position="578,1274.2196"
       id="guide8464" />
    <sodipodi:guide
       orientation="1,0"
       position="1988.7352,934.82463"
       id="guide8466" />
    <sodipodi:guide
       orientation="0,1"
       position="71.957677,300"
       id="guide5363" />
    <inkscape:grid
       type="xygrid"
       id="grid5369"
       visible="true"
       enabled="true"
       units="mm"
       spacingx="1mm"
       spacingy="1mm"
       color="#008aff"
       opacity="0.1254902"
       empcolor="#008aff"
       empopacity="0.25098039" />
  </sodipodi:namedview>
  <metadata
     id="metadata7">
    <rdf:RDF>
      <cc:Work
         rdf:about="">
        <dc:format>image/svg+xml</dc:format>
        <dc:type
           rdf:resource="http://purl.org/dc/dcmitype/StillImage" />
        <dc:creator>
          <cc:Agent>
            <dc:title>Alain Reguera Delgado</dc:title>
          </cc:Agent>
        </dc:creator>
        <dc:rights>
          <cc:Agent>
            <dc:title>The CentOS Project</dc:title>
          </cc:Agent>
        </dc:rights>
        <dc:publisher>
          <cc:Agent>
            <dc:title>The CentOS Project</dc:title>
          </cc:Agent>
        </dc:publisher>
        <dc:title>TreeFlower</dc:title>
        <dc:date>2010-04-22</dc:date>
        <dc:language>en</dc:language>
        <dc:description>Artistic Motif for CentOS Project.</dc:description>
        <dc:identifier />
        <cc:license
           rdf:resource="http://creativecommons.org/licenses/by-sa/3.0/" />
        <dc:contributor>
          <cc:Agent>
            <dc:title />
          </cc:Agent>
        </dc:contributor>
      </cc:Work>
      <cc:License
         rdf:about="http://creativecommons.org/licenses/by-sa/3.0/">
        <cc:permits
           rdf:resource="http://creativecommons.org/ns#Reproduction" />
        <cc:permits
           rdf:resource="http://creativecommons.org/ns#Distribution" />
        <cc:requires
           rdf:resource="http://creativecommons.org/ns#Notice" />
        <cc:requires
           rdf:resource="http://creativecommons.org/ns#Attribution" />
        <cc:permits
           rdf:resource="http://creativecommons.org/ns#DerivativeWorks" />
        <cc:requires
           rdf:resource="http://creativecommons.org/ns#ShareAlike" />
      </cc:License>
    </rdf:RDF>
  </metadata>
  <g
     inkscape:label="Background"
     inkscape:groupmode="layer"
     id="layer1"
     style="display:inline"
     transform="translate(-67.999994,-823.15657)">
    <g
       transform="matrix(1.1078871,0.943563,0.943563,-1.1078871,240.4368,1150.3595)"
       id="g17290"
       style="opacity:0.1;filter:url(#filter3670)" />
    <g
       style="opacity:0.1"
       id="g22175"
       transform="matrix(0.3647959,0.1695804,0.1695804,-0.3647959,671.26749,881.76926)" />
    <g
       style="opacity:0.1"
       transform="matrix(0.7839046,0,0,0.7839046,514.8865,699.10376)"
       id="g22181">
      <g
         id="g22183"
         transform="matrix(0.4010554,0,0,0.4010554,297.65753,82.48033)" />
    </g>
    <g
       style="opacity:0.1"
       inkscape:transform-center-y="44.005377"
       inkscape:transform-center-x="-10.433289"
       transform="matrix(-0.4484445,-0.5480781,0.5480781,-0.4484445,883.01238,1120.088)"
       id="g22197" />
    <g
       style="opacity:0.1"
       id="g22243"
       transform="matrix(0.1673132,0,0,-0.1673132,717.31312,1193.3863)" />
    <g
       id="g10023"
       transform="matrix(1.5141043,0,0,1.5141043,-64.269164,-1140.9464)"
       style="fill:#060e1a">
      <g
         transform="matrix(2.042901,0,0,2.042901,-91.286491,-1055.472)"
         id="g8979"
         style="fill:#060e1a">
        <g
           transform="matrix(0.753824,0,0,0.753824,43.591171,320.09806)"
           id="g11750"
           style="fill:#060e1a;display:inline">
          <g
             style="fill:#060e1a;fill-opacity:1;display:inline"
             transform="matrix(0.4179296,0,0,0.4190481,-0.2144611,1050.3541)"
             id="g3054">
            <text
               xml:space="preserve"
               style="font-size:69.71334076px;font-style:normal;font-weight:normal;text-align:center;text-anchor:middle;fill:#060e1a;fill-opacity:1;stroke:none;stroke-width:1px;stroke-linecap:butt;stroke-linejoin:miter;stroke-opacity:1;display:inline;font-family:Bitstream Vera Sans"
               x="333.58936"
               y="104.39967"
               id="text3056"><tspan
                 sodipodi:role="line"
                 id="tspan3058"
                 x="333.58936"
                 y="104.39967"
                 style="font-style:normal;font-variant:normal;font-weight:200;font-stretch:normal;text-align:center;text-anchor:middle;fill:#060e1a;fill-opacity:1;font-family:Denmark;-inkscape-font-specification:Denmark Ultra-Light">TreeFl  wer</tspan></text>
          </g>
          <path
             sodipodi:type="star"
             style="opacity:1;fill:#060e1a;fill-opacity:1;stroke:none;stroke-width:1;stroke-linejoin:round;stroke-miterlimit:4;stroke-dasharray:none;stroke-dashoffset:0;stroke-opacity:1;display:inline"
             id="path4446"
             sodipodi:sides="5"
             sodipodi:cx="162.94955"
             sodipodi:cy="203.83304"
             sodipodi:r1="25.691782"
             sodipodi:r2="26.272663"
             sodipodi:arg1="0.48689923"
             sodipodi:arg2="-0.54381798"
             inkscape:flatsided="false"
             inkscape:rounded="1.88"
             inkscape:randomized="0"
             d="M 185.65564,215.85391 C 230.04118,234.53637 228.68309,169.06242 185.43211,190.23938 C 105.57307,229.34073 166.01559,140.53997 158.53359,229.14246 C 154.48141,277.12882 216.33116,255.60463 182.82538,221.01455 C 120.95999,157.14707 224.0923,187.19038 137.51425,207.45425 C 90.624323,218.42899 130.20767,270.60026 152.75094,228.04545 C 194.37506,149.47183 197.67181,256.84038 151.64563,180.76165 C 126.71825,139.55805 89.332353,193.32586 136.77063,201.61562 C 224.36115,216.92193 123.26635,253.23603 181.39865,185.95292 C 212.88261,149.51296 150.19351,130.57202 156.96871,178.25019 C 169.4785,266.28363 103.70173,181.35843 185.65564,215.85391 z"
             transform="matrix(0.1877957,-6.5668885e-2,-6.5649806e-2,-0.1877411,140.84415,1133.7555)" />
        </g>
      </g>
      <path
         sodipodi:nodetypes="csssssssssssccsssssssssssc"
         d="M 95.707267,1260.5138 C 95.707509,1260.5134 95.70738,1260.5138 95.707267,1260.5138 C 95.701106,1260.5138 95.709904,1260.5109 95.707267,1260.5138 C 95.671809,1260.5527 95.715801,1260.5613 95.738418,1260.5499 C 95.796112,1260.5207 95.783712,1260.4375 95.751146,1260.3933 C 95.668892,1260.2817 95.501873,1260.311 95.409989,1260.392 C 95.215321,1260.5632 95.276892,1260.8687 95.442589,1261.0352 C 95.753191,1261.3473 96.265084,1261.2341 96.539397,1260.935 C 97.01025,1260.4216 96.820339,1259.619 96.326448,1259.197 C 95.533044,1258.5188 94.338116,1258.816 93.721115,1259.5799 C 92.779828,1260.7452 93.221346,1262.452 94.344677,1263.3186 C 95.98829,1264.5865 98.345767,1263.9574 99.524138,1262.3701 C 101.1901,1260.1258 100.3235,1256.9597 98.152325,1255.3997 M 95.707267,1260.5138 C 95.707063,1260.5134 95.70733,1260.5137 95.707267,1260.5138 C 95.704349,1260.5193 95.703357,1260.5131 95.707267,1260.5138 C 95.73132,1260.5183 95.753035,1260.4997 95.752591,1260.4805 C 95.751597,1260.4159 95.674848,1260.3876 95.620751,1260.3956 C 95.483506,1260.4156 95.430603,1260.5766 95.458638,1260.6959 C 95.517938,1260.9482 95.816456,1261.0379 96.041352,1260.9701 C 96.463004,1260.8433 96.604347,1260.3385 96.469794,1259.9556 C 96.238821,1259.2983 95.441477,1259.0876 94.836441,1259.3243 C 93.864471,1259.7047 93.563641,1260.8986 93.94654,1261.8028 C 94.53076,1263.1822 96.244405,1263.597 97.538093,1263.0145 C 99.430874,1262.1623 100.01375,1259.7736 99.142003,1257.9991 C 97.929555,1255.5311 96.708442,1256.5361 98.152325,1255.3997"
         style="opacity:1;fill:#060e1a;fill-opacity:1;fill-rule:evenodd;stroke:none;stroke-width:1px;stroke-linecap:butt;stroke-linejoin:miter;stroke-opacity:1"
         id="path9995" />
      <g
         transform="matrix(0.6023818,-0.8498805,0.8498805,0.6023818,-1001.8974,609.50651)"
         id="g10011"
         style="fill:#060e1a">
        <path
           sodipodi:nodetypes="csssssssssssccsssssssssssc"
           d="M 94.755812,1245.7201 C 94.756563,1245.7205 94.755904,1245.7199 94.755812,1245.7201 C 94.749327,1245.7275 94.762071,1245.7201 94.755812,1245.7201 C 94.672542,1245.7209 94.708833,1245.66 94.746055,1245.6454 C 94.841402,1245.6082 94.926448,1245.7106 94.944169,1245.7954 C 94.989051,1246.0103 94.778436,1246.1761 94.586019,1246.199 C 94.178858,1246.248 93.883545,1245.8536 93.861896,1245.4827 C 93.82127,1244.7872 94.494572,1244.303 95.136406,1244.2947 C 96.238324,1244.2809 96.984544,1245.351 96.96154,1246.3783 C 96.924802,1248.029 95.314445,1249.1246 93.763049,1249.0469 C 91.39655,1248.9286 89.849204,1246.6081 90.011666,1244.37 C 90.24932,1241.0949 93.476703,1238.978 96.590953,1239.2621 C 100.99406,1239.6636 103.81406,1244.0236 103.36449,1248.2287 M 94.755812,1245.7201 C 94.756036,1245.7208 94.755962,1245.7201 94.755812,1245.7201 C 94.746234,1245.7179 94.752549,1245.7256 94.755812,1245.7201 C 94.775918,1245.6871 94.820733,1245.6811 94.842858,1245.7018 C 94.917992,1245.7711 94.870487,1245.8915 94.804022,1245.9469 C 94.635763,1246.0876 94.390072,1245.9801 94.27897,1245.8214 C 94.043908,1245.4854 94.252913,1245.0389 94.569926,1244.8451 C 95.164055,1244.4816 95.908396,1244.847 96.218046,1245.4095 C 96.74968,1246.3749 96.157407,1247.5371 95.240396,1248.0011 C 93.767111,1248.7464 92.041988,1247.8424 91.379419,1246.4375 C 90.368728,1244.2944 91.686262,1241.8361 93.737134,1240.9247 C 96.737619,1239.5909 100.16913,1241.4222 101.34262,1244.321 C 102.9747,1248.3527 100.5021,1248.7333 103.36449,1248.2287"
           style="opacity:1;fill:#060e1a;fill-opacity:1;fill-rule:evenodd;stroke:none;stroke-width:1px;stroke-linecap:butt;stroke-linejoin:miter;stroke-opacity:1"
           id="path10003" />
        <path
           id="path10005"
           style="opacity:1;fill:#060e1a;fill-opacity:1;fill-rule:evenodd;stroke:none;stroke-width:1px;stroke-linecap:butt;stroke-linejoin:miter;stroke-opacity:1"
           d="M 115.39129,1244.7928 C 115.39005,1244.7932 115.39114,1244.7924 115.39129,1244.7928 C 115.40195,1244.8049 115.38099,1244.7928 115.39129,1244.7928 C 115.5282,1244.7941 115.46853,1244.694 115.40733,1244.6699 C 115.25055,1244.6087 115.11071,1244.777 115.08157,1244.9165 C 115.00778,1245.2696 115.35408,1245.5426 115.67047,1245.5803 C 116.33996,1245.6609 116.82554,1245.0122 116.86114,1244.4022 C 116.92794,1243.2588 115.82084,1242.4626 114.76548,1242.4489 C 112.95361,1242.4263 111.72661,1244.1858 111.76444,1245.8749 C 111.82485,1248.5892 114.47273,1250.3909 117.02367,1250.2629 C 120.91487,1250.0683 123.45915,1246.2529 123.19202,1242.5726 C 122.80124,1237.1875 117.4945,1233.7067 112.37379,1234.1737 C 105.13382,1234.834 100.49693,1242.0031 101.23615,1248.9175 M 115.39129,1244.7928 C 115.39092,1244.7939 115.39104,1244.7928 115.39129,1244.7928 C 115.40703,1244.7889 115.39665,1244.8017 115.39129,1244.7928 C 115.35822,1244.7384 115.28453,1244.7285 115.24816,1244.7625 C 115.12462,1244.8766 115.20272,1245.0744 115.31202,1245.1656 C 115.58868,1245.397 115.99267,1245.2203 116.17535,1244.9593 C 116.56185,1244.4068 116.21819,1243.6725 115.69693,1243.3539 C 114.72001,1242.7561 113.4961,1243.3571 112.98696,1244.282 C 112.1128,1245.8694 113.08666,1247.7804 114.59449,1248.5433 C 117.01699,1249.7688 119.85359,1248.2823 120.94304,1245.9723 C 122.6049,1242.4483 120.4385,1238.4062 117.06629,1236.9077 C 112.13263,1234.7145 106.49026,1237.7257 104.56071,1242.4922 C 101.87709,1249.1215 105.94274,1249.7472 101.23615,1248.9175"
           sodipodi:nodetypes="csssssssssssccsssssssssssc" />
        <path
           sodipodi:nodetypes="csssssssssssccsssssssssssc"
           d="M 108.58635,1230.0116 C 108.58598,1230.0124 108.58608,1230.0115 108.58635,1230.0116 C 108.59729,1230.0119 108.58159,1230.0167 108.58635,1230.0116 C 108.65026,1229.9441 108.57292,1229.9276 108.53266,1229.9468 C 108.42985,1229.9964 108.44886,1230.1437 108.50477,1230.2227 C 108.64617,1230.4225 108.94185,1230.3764 109.10676,1230.2366 C 109.45612,1229.941 109.35799,1229.4 109.07127,1229.1005 C 108.53377,1228.5391 107.62659,1228.7216 107.13219,1229.2398 C 106.28389,1230.1299 106.59163,1231.5527 107.44866,1232.3142 C 108.82569,1233.5382 110.9445,1233.0543 112.05939,1231.7274 C 113.76035,1229.7033 113.03933,1226.676 111.08666,1225.1086 C 108.22948,1222.8149 104.04771,1223.8445 101.91411,1226.6055 C 98.89751,1230.5092 100.31874,1236.126 104.09705,1238.9529 M 108.58635,1230.0116 C 108.58674,1230.0122 108.58624,1230.0117 108.58635,1230.0116 C 108.59169,1230.0019 108.59327,1230.013 108.58635,1230.0116 C 108.54402,1230.0028 108.50507,1230.035 108.50516,1230.0687 C 108.5048,1230.1828 108.6392,1230.2354 108.73503,1230.2232 C 108.97785,1230.1926 109.07669,1229.9101 109.03132,1229.6988 C 108.9353,1229.2514 108.41155,1229.083 108.01234,1229.1949 C 107.26391,1229.4043 106.99721,1230.2903 107.22167,1230.9706 C 107.60685,1232.1385 109.00664,1232.5373 110.08241,1232.1403 C 111.81073,1231.5024 112.38234,1229.4057 111.73746,1227.797 C 110.75365,1225.343 107.74365,1224.5523 105.4409,1225.5362 C 102.07151,1226.9752 100.96149,1231.1709 102.43924,1234.3321 C 104.49453,1238.7286 106.68384,1236.9968 104.09705,1238.9529"
           style="opacity:1;fill:#060e1a;fill-opacity:1;fill-rule:evenodd;stroke:none;stroke-width:1px;stroke-linecap:butt;stroke-linejoin:miter;stroke-opacity:1"
           id="path10007" />
      </g>
    </g>
    <path
       sodipodi:type="star"
       style="opacity:1;fill:#e7f1ff;fill-opacity:1;stroke:none;stroke-width:1;stroke-linejoin:round;stroke-miterlimit:4;stroke-dasharray:none;stroke-dashoffset:0;stroke-opacity:1"
       id="path3674"
       sodipodi:sides="5"
       sodipodi:cx="162.94955"
       sodipodi:cy="203.83304"
       sodipodi:r1="25.691782"
       sodipodi:r2="26.272663"
       sodipodi:arg1="0.48689923"
       sodipodi:arg2="-0.54381798"
       inkscape:flatsided="false"
       inkscape:rounded="1.88"
       inkscape:randomized="0"
       d="M 185.65564,215.85391 C 230.04118,234.53637 228.68309,169.06242 185.43211,190.23938 C 105.57307,229.34073 166.01559,140.53997 158.53359,229.14246 C 154.48141,277.12882 216.33116,255.60463 182.82538,221.01455 C 120.95999,157.14707 224.0923,187.19038 137.51425,207.45425 C 90.624323,218.42899 130.20767,270.60026 152.75094,228.04545 C 194.37506,149.47183 197.67181,256.84038 151.64563,180.76165 C 126.71825,139.55805 89.332353,193.32586 136.77063,201.61562 C 224.36115,216.92193 123.26635,253.23603 181.39865,185.95292 C 212.88261,149.51296 150.19351,130.57202 156.96871,178.25019 C 169.4785,266.28363 103.70173,181.35843 185.65564,215.85391 z"
       transform="matrix(0.6861914,0,0,0.6861914,862.02031,1142.3149)" />
    <path
       sodipodi:nodetypes="csccsc"
       d="M 355.18161,-47.68625 C 365.85766,-8.7142536 389.752,21.968041 324.30392,77.665812 C 258.85586,133.36359 274.12404,228.4141 310.16512,267.26223 C 346.20619,306.11035 354.77883,299.98799 319.01965,260.47203 C 283.26044,220.9561 266.35924,134.17038 328.43009,80.511203 C 390.50092,26.852037 366.66586,-8.8173476 355.23651,-47.403257"
       style="opacity:0.17000002;fill:#e7f1ff;fill-opacity:1;fill-rule:evenodd;stroke:none;stroke-width:1px;stroke-linecap:butt;stroke-linejoin:miter;stroke-opacity:1;filter:url(#filter3466)"
       id="path3443"
       transform="matrix(2.1654099,0,0,2.1654099,506.16381,934.5043)" />
    <path
       sodipodi:nodetypes="csccsc"
       d="M 348.37198,7.7413837 C 356.95697,39.080156 376.17126,63.752885 323.54212,108.54145 C 270.913,153.33002 283.19069,229.76353 312.17261,261.0027 C 341.15452,292.24186 348.04809,287.31865 319.29285,255.54246 C 290.5376,223.76629 276.94674,153.97879 326.86012,110.82953 C 376.77349,67.68028 357.60687,38.997255 348.41612,7.9689477"
       style="opacity:0.85;fill:#e7f1ff;fill-opacity:1;fill-rule:evenodd;stroke:none;stroke-width:1px;stroke-linecap:butt;stroke-linejoin:miter;stroke-opacity:1;filter:url(#filter3387)"
       id="path3385"
       transform="matrix(2.1654099,0,0,2.1654099,506.16381,934.5043)" />
    <path
       id="path2454"
       style="opacity:1;fill:#e7f1ff;fill-opacity:1;fill-rule:evenodd;stroke:none;stroke-width:1px;stroke-linecap:butt;stroke-linejoin:miter;stroke-opacity:1"
       d="M 1079.1497,1339.5851 C 1079.1562,1339.5928 1079.1492,1339.5865 1079.1497,1339.5851 C 1079.2048,1339.4656 1079.1827,1339.6617 1079.1497,1339.5851 C 1078.7116,1338.5676 1078.1657,1339.3376 1078.1892,1339.8691 C 1078.2491,1341.2288 1079.9524,1341.7112 1081.0793,1341.4696 C 1083.9318,1340.8574 1084.8165,1337.4012 1084.0603,1334.9366 C 1082.4602,1329.7221 1076.0689,1328.2589 1071.4404,1329.9963 C 1062.7668,1333.2519 1060.5098,1344.0489 1063.8713,1351.8977 C 1069.6422,1365.372 1086.6774,1368.6751 1099.0469,1362.8566 C 1118.9196,1353.5086 1123.5589,1328.0196 1114.2497,1309.5743 C 1100.0498,1281.4383 1063.4916,1275.1342 1037.1494,1289.1789 C 998.60867,1309.7276 990.27101,1360.3856 1010.5166,1396.7216 C 1039.141,1448.0953 1107.3609,1458.8763 1156.0725,1430.7351 M 1079.1497,1339.5851 C 1079.1596,1339.583 1079.1505,1339.5863 1079.1497,1339.5851 C 1079.0703,1339.4803 1079.1973,1339.5166 1079.1497,1339.5851 C 1078.8567,1340.0076 1079.0263,1340.5842 1079.3942,1340.743 C 1080.6441,1341.2821 1081.8499,1340.0558 1082.1676,1338.9479 C 1082.9719,1336.1436 1080.3403,1333.7348 1077.8102,1333.2404 C 1072.457,1332.1945 1068.1547,1337.1423 1067.5061,1342.0434 C 1066.2907,1351.2279 1074.7501,1358.3063 1083.2569,1359.0396 C 1097.8609,1360.299 1108.8015,1346.8299 1109.4982,1333.178 C 1110.6171,1311.2451 1090.3213,1295.1422 1069.6656,1294.6616 C 1038.1581,1293.9284 1015.3712,1323.2028 1015.3462,1353.0552 C 1015.3095,1396.7318 1056.078,1428.5831 1097.6512,1427.2211 C 1155.4751,1425.327 1146.7728,1393.2098 1156.0725,1430.7351"
       sodipodi:nodetypes="csssssssssssccsssssssssssc" />
    <path
       sodipodi:nodetypes="csssssssssssccsssssssssssc"
       d="M 963.50733,1380.8016 C 963.51204,1380.8016 963.50756,1380.8011 963.50733,1380.8016 C 963.48009,1380.8581 963.54547,1380.7906 963.50733,1380.8016 C 963.00003,1380.9499 963.1171,1380.5152 963.31958,1380.3623 C 963.83761,1379.9708 964.53287,1380.4504 964.78652,1380.9379 C 965.42885,1382.1726 964.42745,1383.5484 963.2916,1384.0198 C 960.88842,1385.0172 958.40748,1383.1126 957.63895,1380.8832 C 956.19859,1376.7053 959.48088,1372.5931 963.38791,1371.4424 C 970.09504,1369.467 976.48846,1374.7244 978.11039,1381.04 C 980.71621,1391.1864 972.75784,1400.6412 963.14774,1402.8271 C 948.48879,1406.1619 935.05691,1394.641 932.2105,1380.6888 C 928.04592,1360.2751 944.1311,1341.809 963.64222,1338.2032 C 991.22803,1333.1057 1015.9315,1354.903 1020.3975,1381.3636 M 963.50733,1380.8016 C 963.50946,1380.8059 963.50799,1380.8016 963.50733,1380.8016 C 963.44453,1380.8043 963.49651,1380.8399 963.50733,1380.8016 C 963.57346,1380.5654 963.83696,1380.4524 964.00718,1380.5395 C 964.58523,1380.8348 964.50123,1381.651 964.19066,1382.1046 C 963.40433,1383.2528 961.71885,1383.0179 960.76788,1382.2383 C 958.75587,1380.5887 959.26663,1377.503 960.87082,1375.7746 C 963.87724,1372.5354 969.05086,1373.4927 971.90679,1376.3965 C 976.80961,1381.3817 975.18519,1389.4978 970.37903,1393.9046 C 962.65745,1400.9841 950.56824,1398.4197 944.11157,1390.9737 C 934.26277,1379.6154 938.09521,1362.3396 949.06028,1353.2543 C 965.10313,1339.962 989.20526,1345.2633 1001.3442,1360.9583 C 1018.2281,1382.7882 1003.7771,1389.3541 1020.3975,1381.3636"
       style="opacity:1;fill:#e7f1ff;fill-opacity:1;fill-rule:evenodd;stroke:none;stroke-width:1px;stroke-linecap:butt;stroke-linejoin:miter;stroke-opacity:1"
       id="path3257" />
    <path
       id="path3373"
       style="opacity:1;fill:#e7f1ff;fill-opacity:1;fill-rule:evenodd;stroke:none;stroke-width:1px;stroke-linecap:butt;stroke-linejoin:miter;stroke-opacity:1"
       d="M 1121.7119,1467.7747 C 1121.7123,1467.7718 1121.7117,1467.7745 1121.7119,1467.7747 C 1121.744,1467.7953 1121.7081,1467.7509 1121.7119,1467.7747 C 1121.7626,1468.0905 1121.5103,1467.9875 1121.4337,1467.854 C 1121.238,1467.5133 1121.5788,1467.132 1121.8909,1467.0165 C 1122.6812,1466.7241 1123.432,1467.4303 1123.629,1468.1482 C 1124.0458,1469.6676 1122.7136,1471.0136 1121.3161,1471.3062 C 1118.697,1471.8548 1116.4754,1469.5711 1116.0806,1467.1369 C 1115.4023,1462.9578 1119.0453,1459.5154 1122.9624,1459.0199 C 1129.2554,1458.2239 1134.3318,1463.7217 1134.9165,1469.6605 C 1135.8084,1478.7197 1127.869,1485.9155 1119.2713,1486.5673 C 1106.6921,1487.5217 1096.8184,1476.4584 1096.1314,1464.4637 C 1095.1607,1447.5053 1110.1284,1434.3175 1126.3629,1433.6409 M 1121.7119,1467.7747 C 1121.7147,1467.7737 1121.712,1467.7743 1121.7119,1467.7747 C 1121.7089,1467.8125 1121.7343,1467.7841 1121.7119,1467.7747 C 1121.5752,1467.7169 1121.5272,1467.5503 1121.5925,1467.4545 C 1121.8137,1467.1296 1122.2976,1467.2421 1122.5466,1467.4629 C 1123.1768,1468.0224 1122.9078,1469.017 1122.3674,1469.5291 C 1121.2237,1470.6129 1119.4089,1470.0722 1118.4922,1468.9773 C 1116.7741,1466.9257 1117.7415,1463.8901 1119.7025,1462.3947 C 1123.0691,1459.8273 1127.8217,1461.4186 1130.1046,1464.64 C 1133.772,1469.8154 1131.315,1476.8835 1126.3522,1480.1977 C 1118.7822,1485.2532 1108.6942,1481.641 1104.0678,1474.3649 C 1097.2987,1463.7195 1102.3109,1449.6422 1112.66,1443.5397 C 1127.0543,1435.0519 1129.903,1444.2312 1126.3629,1433.6409"
       sodipodi:nodetypes="csssssssssssccsssssssssssc" />
    <path
       style="opacity:1;fill:#e7f1ff;fill-opacity:1;stroke:none;stroke-width:1;stroke-linejoin:round;stroke-miterlimit:4;stroke-dasharray:none;stroke-dashoffset:0;stroke-opacity:1"
       d="M 1206.8192,1264.5356 C 1197.6356,1264.5356 1190.1785,1271.9845 1190.1785,1281.168 C 1190.1785,1290.3518 1197.6356,1297.8088 1206.8192,1297.8088 C 1216.0029,1297.8088 1223.4598,1290.3518 1223.4598,1281.168 C 1223.4598,1271.9845 1216.0029,1264.5356 1206.8192,1264.5356 z M 1206.8192,1269.0362 C 1213.5157,1269.0362 1218.951,1274.4716 1218.951,1281.168 C 1218.951,1287.8646 1213.5157,1293.2998 1206.8192,1293.2998 C 1200.1227,1293.2998 1194.6875,1287.8646 1194.6875,1281.168 C 1194.6875,1274.4716 1200.1227,1269.0362 1206.8192,1269.0362 z"
       id="path3294" />
    <path
       id="path3296"
       d="M 1206.8192,1273.374 C 1202.5145,1273.374 1199.019,1276.8654 1199.019,1281.1701 C 1199.019,1285.4751 1202.5145,1288.9701 1206.8192,1288.9701 C 1211.1238,1288.9701 1214.6193,1285.4751 1214.6193,1281.1701 C 1214.6193,1276.8654 1211.1238,1273.374 1206.8192,1273.374 z M 1206.8192,1275.4836 C 1209.958,1275.4836 1212.5058,1278.0315 1212.5058,1281.1701 C 1212.5058,1284.309 1209.958,1286.8567 1206.8192,1286.8567 C 1203.6803,1286.8567 1201.1325,1284.309 1201.1325,1281.1701 C 1201.1325,1278.0315 1203.6803,1275.4836 1206.8192,1275.4836 z"
       style="opacity:1;fill:#e7f1ff;fill-opacity:1;stroke:none;stroke-width:1;stroke-linejoin:round;stroke-miterlimit:4;stroke-dasharray:none;stroke-dashoffset:0;stroke-opacity:1" />
    <path
       style="opacity:1;fill:#e7f1ff;fill-opacity:1;stroke:none;stroke-width:1;stroke-linejoin:round;stroke-miterlimit:4;stroke-dasharray:none;stroke-dashoffset:0;stroke-opacity:1"
       d="M 1259.3817,1230.7721 C 1251.7946,1230.7721 1245.6339,1236.926 1245.6339,1244.5131 C 1245.6339,1252.1001 1251.7946,1258.2607 1259.3817,1258.2607 C 1266.9688,1258.2607 1273.1294,1252.1001 1273.1294,1244.5131 C 1273.1294,1236.926 1266.9688,1230.7721 1259.3817,1230.7721 z M 1259.3817,1234.4903 C 1264.9139,1234.4903 1269.4043,1238.9808 1269.4043,1244.5131 C 1269.4043,1250.0453 1264.9139,1254.5357 1259.3817,1254.5357 C 1253.8495,1254.5357 1249.3591,1250.0453 1249.3591,1244.5131 C 1249.3591,1238.9808 1253.8495,1234.4903 1259.3817,1234.4903 z"
       id="path3300" />
    <path
       id="path3302"
       d="M 1259.3817,1238.0739 C 1255.8254,1238.0739 1252.9376,1240.9584 1252.9376,1244.5148 C 1252.9376,1248.0712 1255.8254,1250.9589 1259.3817,1250.9589 C 1262.9382,1250.9589 1265.8257,1248.0712 1265.8257,1244.5148 C 1265.8257,1240.9584 1262.9382,1238.0739 1259.3817,1238.0739 z M 1259.3817,1239.8169 C 1261.9749,1239.8169 1264.0796,1241.9216 1264.0796,1244.5148 C 1264.0796,1247.1081 1261.9749,1249.2128 1259.3817,1249.2128 C 1256.7886,1249.2128 1254.6836,1247.1081 1254.6836,1244.5148 C 1254.6836,1241.9216 1256.7886,1239.8169 1259.3817,1239.8169 z"
       style="opacity:1;fill:#e7f1ff;fill-opacity:1;stroke:none;stroke-width:1;stroke-linejoin:round;stroke-miterlimit:4;stroke-dasharray:none;stroke-dashoffset:0;stroke-opacity:1" />
    <g
       id="g3280"
       transform="matrix(0.8684493,0,0,0.8684493,1177.2142,1138.1617)"
       style="opacity:1;fill:#e7f1ff">
      <path
         id="path3282"
         d="M 126.21875,144.40625 C 90.82931,144.40625 62.09375,173.11056 62.09375,208.5 C 62.09375,243.88944 90.82931,272.62499 126.21875,272.625 C 161.60819,272.625 190.34374,243.88944 190.34375,208.5 C 190.34375,173.11056 161.60819,144.40626 126.21875,144.40625 z M 126.21875,161.75 C 152.02355,161.75 172.96875,182.6952 172.96875,208.5 C 172.96875,234.30481 152.02355,255.25 126.21875,255.25 C 100.41395,255.25 79.46875,234.3048 79.46875,208.5 C 79.46875,182.6952 100.41395,161.75 126.21875,161.75 z"
         style="opacity:1;fill:#e7f1ff;fill-opacity:1;stroke:none;stroke-width:1;stroke-linejoin:round;stroke-miterlimit:4;stroke-dasharray:none;stroke-dashoffset:0;stroke-opacity:1" />
      <path
         style="opacity:1;fill:#e7f1ff;fill-opacity:1;stroke:none;stroke-width:1;stroke-linejoin:round;stroke-miterlimit:4;stroke-dasharray:none;stroke-dashoffset:0;stroke-opacity:1"
         d="M 126.21875,178.46538 C 109.63052,178.46538 96.161181,191.92007 96.161181,208.5083 C 96.161181,225.09654 109.63052,238.56587 126.21875,238.56587 C 142.80698,238.56587 156.27631,225.09654 156.27632,208.5083 C 156.27632,191.92007 142.80698,178.46538 126.21875,178.46538 z M 126.21875,186.59499 C 138.31434,186.59499 148.13207,196.41271 148.13207,208.5083 C 148.13207,220.60389 138.31434,230.42162 126.21875,230.42162 C 114.12316,230.42162 104.30543,220.60389 104.30543,208.5083 C 104.30543,196.41271 114.12316,186.59499 126.21875,186.59499 z"
         id="path3284" />
    </g>
    <path
       sodipodi:type="arc"
       style="opacity:1;fill:#e7f1ff;fill-opacity:1;stroke:none;stroke-width:1;stroke-linejoin:round;stroke-miterlimit:4;stroke-dasharray:none;stroke-dashoffset:0;stroke-opacity:1"
       id="path3308"
       sodipodi:cx="171.6313"
       sodipodi:cy="207.84"
       sodipodi:rx="40.069565"
       sodipodi:ry="40.069565"
       d="M 211.70087,207.84 A 40.069565,40.069565 0 1 1 131.56174,207.84 A 40.069565,40.069565 0 1 1 211.70087,207.84 z"
       transform="matrix(0.6496229,0,0,0.6496229,1175.3333,1184.2293)" />
    <g
       transform="matrix(0.1618248,0,0,0.1618248,1287.5916,1210.7506)"
       id="g3318"
       style="opacity:1;fill:#e7f1ff">
      <path
         style="opacity:1;fill:#e7f1ff;fill-opacity:1;stroke:none;stroke-width:1;stroke-linejoin:round;stroke-miterlimit:4;stroke-dasharray:none;stroke-dashoffset:0;stroke-opacity:1"
         d="M 126.21875,144.40625 C 90.82931,144.40625 62.09375,173.11056 62.09375,208.5 C 62.09375,243.88944 90.82931,272.62499 126.21875,272.625 C 161.60819,272.625 190.34374,243.88944 190.34375,208.5 C 190.34375,173.11056 161.60819,144.40626 126.21875,144.40625 z M 126.21875,161.75 C 152.02355,161.75 172.96875,182.6952 172.96875,208.5 C 172.96875,234.30481 152.02355,255.25 126.21875,255.25 C 100.41395,255.25 79.46875,234.3048 79.46875,208.5 C 79.46875,182.6952 100.41395,161.75 126.21875,161.75 z"
         id="path3320" />
      <path
         id="path3322"
         d="M 126.21875,178.46538 C 109.63052,178.46538 96.161181,191.92007 96.161181,208.5083 C 96.161181,225.09654 109.63052,238.56587 126.21875,238.56587 C 142.80698,238.56587 156.27631,225.09654 156.27632,208.5083 C 156.27632,191.92007 142.80698,178.46538 126.21875,178.46538 z M 126.21875,186.59499 C 138.31434,186.59499 148.13207,196.41271 148.13207,208.5083 C 148.13207,220.60389 138.31434,230.42162 126.21875,230.42162 C 114.12316,230.42162 104.30543,220.60389 104.30543,208.5083 C 104.30543,196.41271 114.12316,186.59499 126.21875,186.59499 z"
         style="opacity:1;fill:#e7f1ff;fill-opacity:1;stroke:none;stroke-width:1;stroke-linejoin:round;stroke-miterlimit:4;stroke-dasharray:none;stroke-dashoffset:0;stroke-opacity:1" />
    </g>
    <path
       transform="matrix(0.1210493,0,0,0.1210493,1287.2411,1219.3348)"
       d="M 211.70087,207.84 A 40.069565,40.069565 0 1 1 131.56174,207.84 A 40.069565,40.069565 0 1 1 211.70087,207.84 z"
       sodipodi:ry="40.069565"
       sodipodi:rx="40.069565"
       sodipodi:cy="207.84"
       sodipodi:cx="171.6313"
       id="path3324"
       style="opacity:1;fill:#e7f1ff;fill-opacity:1;stroke:none;stroke-width:1;stroke-linejoin:round;stroke-miterlimit:4;stroke-dasharray:none;stroke-dashoffset:0;stroke-opacity:1"
       sodipodi:type="arc" />
    <path
       sodipodi:type="star"
       style="opacity:1;fill:#e7f1ff;fill-opacity:1;stroke:none;stroke-width:1;stroke-linejoin:round;stroke-miterlimit:4;stroke-dasharray:none;stroke-dashoffset:0;stroke-opacity:1"
       id="path11209"
       sodipodi:sides="5"
       sodipodi:cx="162.94955"
       sodipodi:cy="203.83304"
       sodipodi:r1="25.691782"
       sodipodi:r2="26.272663"
       sodipodi:arg1="0.48689923"
       sodipodi:arg2="-0.54381798"
       inkscape:flatsided="false"
       inkscape:rounded="1.88"
       inkscape:randomized="0"
       d="M 185.65564,215.85391 C 230.04118,234.53637 228.68309,169.06242 185.43211,190.23938 C 105.57307,229.34073 166.01559,140.53997 158.53359,229.14246 C 154.48141,277.12882 216.33116,255.60463 182.82538,221.01455 C 120.95999,157.14707 224.0923,187.19038 137.51425,207.45425 C 90.624323,218.42899 130.20767,270.60026 152.75094,228.04545 C 194.37506,149.47183 197.67181,256.84038 151.64563,180.76165 C 126.71825,139.55805 89.332353,193.32586 136.77063,201.61562 C 224.36115,216.92193 123.26635,253.23603 181.39865,185.95292 C 212.88261,149.51296 150.19351,130.57202 156.96871,178.25019 C 169.4785,266.28363 103.70173,181.35843 185.65564,215.85391 z"
       transform="matrix(0.7940336,0,0,0.7940336,1051.9415,918.88518)" />
    <path
       transform="matrix(0.4119924,0,0,0.4119924,1150.921,1132.5119)"
       d="M 185.65564,215.85391 C 230.04118,234.53637 228.68309,169.06242 185.43211,190.23938 C 105.57307,229.34073 166.01559,140.53997 158.53359,229.14246 C 154.48141,277.12882 216.33116,255.60463 182.82538,221.01455 C 120.95999,157.14707 224.0923,187.19038 137.51425,207.45425 C 90.624323,218.42899 130.20767,270.60026 152.75094,228.04545 C 194.37506,149.47183 197.67181,256.84038 151.64563,180.76165 C 126.71825,139.55805 89.332353,193.32586 136.77063,201.61562 C 224.36115,216.92193 123.26635,253.23603 181.39865,185.95292 C 212.88261,149.51296 150.19351,130.57202 156.96871,178.25019 C 169.4785,266.28363 103.70173,181.35843 185.65564,215.85391 z"
       inkscape:randomized="0"
       inkscape:rounded="1.88"
       inkscape:flatsided="false"
       sodipodi:arg2="-0.54381798"
       sodipodi:arg1="0.48689923"
       sodipodi:r2="26.272663"
       sodipodi:r1="25.691782"
       sodipodi:cy="203.83304"
       sodipodi:cx="162.94955"
       sodipodi:sides="5"
       id="path11211"
       style="opacity:1;fill:#e7f1ff;fill-opacity:1;stroke:none;stroke-width:1;stroke-linejoin:round;stroke-miterlimit:4;stroke-dasharray:none;stroke-dashoffset:0;stroke-opacity:1"
       sodipodi:type="star" />
    <path
       style="opacity:1;fill:#e7f1ff;fill-opacity:1;fill-rule:evenodd;stroke:none;stroke-width:1px;stroke-linecap:butt;stroke-linejoin:miter;stroke-opacity:1"
       d="M 1260.5266,951.26699 L 1260.6244,951.75565 C 1260.8323,952.45782 1261.0542,953.16274 1261.2667,953.86383 C 1261.0213,952.99893 1260.7649,952.13653 1260.5266,951.26699 z M 1261.2667,953.86383 C 1280.1718,1020.4999 1319.2651,1073.7954 1206.7617,1169.5382 C 1197.0345,1177.8162 1188.3423,1186.5986 1180.5981,1195.7715 C 1172.9726,1176.3114 1152.55,1162.4424 1131.1751,1167.6672 C 1125.0303,1169.1693 1119.3851,1172.3851 1114.9241,1176.7143 C 1107.9553,1177.4358 1100.6972,1172.7372 1099.9575,1165.4057 C 1099.4419,1160.2949 1102.8301,1154.8831 1108.2366,1154.4601 C 1111.7811,1154.1824 1115.5435,1156.5914 1115.7338,1160.3657 C 1115.8523,1162.7146 1114.207,1165.2134 1111.6851,1165.2521 C 1110.2159,1165.2747 1108.6491,1164.2069 1108.6975,1162.6134 C 1108.7231,1161.7631 1109.3681,1160.8383 1110.3028,1160.9241 C 1110.7447,1160.9646 1111.2435,1161.3375 1111.1546,1161.8315 C 1111.1196,1162.0268 1110.9311,1162.2511 1110.7078,1162.1806 C 1110.642,1162.16 1110.6091,1162.0624 1110.6519,1161.9851 C 1110.5592,1161.8184 1110.4711,1161.9643 1110.4844,1162.0549 C 1110.5184,1162.2865 1110.8262,1162.3394 1111.0149,1162.2783 C 1111.4927,1162.124 1111.5781,1161.5142 1111.4059,1161.1056 C 1111.0411,1160.2407 1109.92,1160.0991 1109.1581,1160.4773 C 1107.73,1161.1857 1107.5384,1163.0734 1108.2506,1164.3586 C 1109.4732,1166.5647 1112.4473,1166.8405 1114.4634,1165.629 C 1117.7025,1163.6827 1118.0536,1159.2425 1116.1387,1156.247 C 1113.2179,1151.6779 1106.8473,1151.2338 1102.5823,1154.0969 C 1096.3422,1158.2859 1095.7891,1167.091 1099.8878,1172.9587 C 1102.8226,1177.1604 1107.3232,1179.4016 1112.062,1179.8556 C 1106.2352,1187.0746 1103.4288,1196.5061 1105.975,1206.1448 C 1109.1398,1218.1267 1121.3816,1227.4719 1133.9534,1223.8476 C 1142.1951,1221.4718 1148.6296,1212.8634 1145.8624,1204.1761 C 1144.1399,1198.769 1138.329,1194.5044 1132.5991,1196.5533 C 1129.2614,1197.7468 1126.617,1201.483 1128.0757,1205.0418 C 1128.8538,1206.9409 1131.105,1208.4847 1133.1436,1207.499 C 1134.1072,1207.0331 1134.9076,1205.7756 1134.2884,1204.7348 C 1134.0438,1204.3235 1133.4207,1203.9502 1132.9901,1204.3157 C 1132.8216,1204.4588 1132.7381,1204.8469 1133.1715,1204.6927 C 1133.2172,1204.4843 1133.4382,1204.3605 1133.5903,1204.4275 C 1134.1073,1204.6557 1134.0751,1205.3723 1133.8277,1205.7818 C 1133.2015,1206.8184 1131.7189,1206.7053 1130.8539,1206.075 C 1129.0239,1204.7413 1129.3223,1202.03 1130.6305,1200.4485 C 1133.0823,1197.4852 1137.6245,1198.0671 1140.2499,1200.4485 C 1144.757,1204.537 1143.7467,1211.6692 1139.7893,1215.7362 C 1133.4311,1222.2703 1122.802,1220.6294 1116.8228,1214.4797 C 1107.7022,1205.0991 1110.175,1189.8989 1119.252,1181.4612 C 1132.5324,1169.1162 1153.7338,1172.5305 1165.0591,1185.5658 C 1172.7254,1194.3894 1173.7622,1200.417 1174.4272,1203.4083 C 1158.6327,1223.926 1147.3443,1246.2031 1139.873,1269.1522 C 1017.4084,1241.8336 1070.249,1146.8272 1019.0796,1088.6742 L 1018.9539,1088.758 C 1070.4545,1147.2872 1012.1939,1249.562 1137.695,1276.2445 C 1123.7654,1324.2694 1126.0887,1374.7275 1138.5467,1417.8822 C 1131.0636,1421.7781 1118.8348,1426.5285 1097.6539,1427.2222 C 1056.0806,1428.5842 1015.3153,1396.7363 1015.352,1353.0598 C 1015.3769,1323.2073 1038.154,1293.9262 1069.6615,1294.6595 C 1090.3173,1295.1402 1110.6121,1311.2459 1109.4932,1333.1788 C 1108.7965,1346.8307 1097.8638,1360.2944 1083.2598,1359.0351 C 1074.753,1358.3018 1066.2959,1351.2287 1067.5115,1342.0443 C 1068.1599,1337.1432 1072.4615,1332.1888 1077.8149,1333.2347 C 1080.3451,1333.7291 1082.9751,1336.1404 1082.1708,1338.9448 C 1081.8531,1340.0528 1080.6423,1341.2848 1079.3926,1340.7459 C 1079.0245,1340.5871 1078.8622,1340.0095 1079.1552,1339.5871 C 1079.1908,1339.5355 1079.1271,1339.5004 1079.1272,1339.5312 C 1078.6946,1338.6132 1078.1689,1339.3465 1078.1919,1339.8662 C 1078.2518,1341.226 1079.955,1341.7136 1081.0818,1341.4718 C 1083.9344,1340.8597 1084.8119,1337.4026 1084.0555,1334.9378 C 1082.4556,1329.7233 1076.0629,1328.2583 1071.4346,1329.9957 C 1062.7608,1333.2514 1060.506,1344.0522 1063.8675,1351.901 C 1069.6384,1365.3753 1086.6805,1368.679 1099.05,1362.8605 C 1118.9226,1353.5124 1123.5632,1328.0156 1114.254,1309.5703 C 1100.054,1281.4343 1063.4877,1275.128 1037.1455,1289.1728 C 1014.51,1301.2413 1002.3032,1323.7059 1000.176,1347.545 C 990.06966,1339.6923 977.20087,1335.6987 963.6392,1338.2049 C 944.12808,1341.8105 928.04768,1360.2755 932.21232,1380.6892 C 935.05875,1394.6414 948.49159,1406.1667 963.15061,1402.8318 C 972.76065,1400.6458 980.72291,1391.1846 978.11709,1381.0382 C 976.49516,1374.7225 970.09512,1369.4713 963.38791,1371.4468 C 959.48095,1372.5975 956.19549,1376.7066 957.63587,1380.8847 C 958.40437,1383.1141 960.887,1385.0233 963.2902,1384.0259 C 964.42598,1383.5546 965.42634,1382.1751 964.78402,1380.9404 C 964.53037,1380.4528 963.83622,1379.9767 963.3181,1380.3681 C 963.11564,1380.5211 963.0063,1380.9492 963.51359,1380.8009 C 963.5797,1380.5649 963.83203,1380.4486 964.00227,1380.5357 C 964.58029,1380.831 964.4943,1381.6457 964.18375,1382.0992 C 963.3974,1383.2475 961.71414,1383.0185 960.76318,1382.2388 C 958.75124,1380.5892 959.27067,1377.5034 960.87486,1375.7749 C 963.88127,1372.5356 969.04843,1373.4992 971.90436,1376.4031 C 976.80712,1381.3882 975.1888,1389.5038 970.38256,1393.9106 C 962.66099,1400.99 950.56398,1398.4246 944.10731,1390.9787 C 934.25857,1379.6203 938.0986,1362.3405 949.06359,1353.2551 C 964.50917,1340.4577 987.42077,1344.904 999.93868,1359.2585 C 1000.5598,1372.2413 1004.1029,1385.1973 1010.5213,1396.7168 C 1036.9766,1444.1973 1097.2504,1457.0125 1144.6896,1436.4646 C 1154.1386,1461.6337 1167.1047,1483.4667 1182.1479,1499.6815 C 1244.9056,1567.3271 1259.8279,1556.6648 1197.5611,1487.8562 C 1135.2942,1419.0478 1105.8689,1267.9303 1213.9517,1174.4944 C 1221.557,1167.9199 1228.417,1161.5049 1234.6005,1155.2279 C 1244.7881,1174.6637 1268.4574,1186.2461 1289.5661,1177.0074 C 1295.3618,1174.4709 1300.3661,1170.3265 1304.0162,1165.2939 C 1310.7562,1163.3876 1318.7109,1166.7725 1320.7001,1173.8663 C 1322.0867,1178.8123 1319.6847,1184.7217 1314.4313,1186.0685 C 1310.9875,1186.9514 1306.8771,1185.2302 1306.0406,1181.545 C 1305.5199,1179.2513 1306.7041,1176.5022 1309.182,1176.0301 C 1310.6252,1175.7554 1312.3479,1176.5464 1312.5745,1178.1244 C 1312.6954,1178.9664 1312.2115,1179.9749 1311.2761,1180.0511 C 1310.834,1180.087 1310.2963,1179.8131 1310.2988,1179.3112 C 1310.2998,1179.1129 1310.4296,1178.8613 1310.6618,1178.8923 C 1310.7301,1178.9014 1310.7883,1178.9902 1310.7595,1179.0738 C 1310.8795,1179.2218 1310.9417,1179.0629 1310.9131,1178.9761 C 1310.8398,1178.7536 1310.5299,1178.7578 1310.3546,1178.8505 C 1309.9106,1179.0847 1309.919,1179.6921 1310.1592,1180.065 C 1310.6672,1180.8543 1311.805,1180.8059 1312.4908,1180.3024 C 1313.7756,1179.3591 1313.6366,1177.4528 1312.7142,1176.3094 C 1311.1304,1174.3463 1308.1535,1174.6017 1306.3755,1176.1419 C 1303.5195,1178.6162 1303.9463,1183.0559 1306.3478,1185.6775 C 1310.011,1189.6764 1316.3627,1189.0079 1320.0718,1185.4541 C 1325.4983,1180.2546 1324.518,1171.4864 1319.4714,1166.4109 C 1315.8571,1162.776 1311.0389,1161.3375 1306.2919,1161.7059 C 1310.7922,1153.5916 1311.9379,1143.8331 1307.7717,1134.7744 C 1302.5934,1123.5154 1288.9296,1116.4073 1277.1685,1122.1395 C 1269.4582,1125.8971 1264.5858,1135.4885 1268.8057,1143.5702 C 1271.4323,1148.6005 1277.8938,1151.7954 1283.1859,1148.7917 C 1286.2687,1147.042 1288.2364,1142.9019 1286.1876,1139.647 C 1285.0943,1137.9102 1282.6234,1136.7898 1280.7846,1138.1112 C 1279.9154,1138.7358 1279.3394,1140.0963 1280.1284,1141.0152 C 1280.4401,1141.3783 1281.1212,1141.645 1281.4827,1141.2108 C 1281.6239,1141.041 1281.6319,1140.6494 1281.2314,1140.8756 C 1281.2219,1141.0888 1281.0299,1141.2365 1280.8683,1141.1967 C 1280.3199,1141.0608 1280.2204,1140.3583 1280.3936,1139.9123 C 1280.8323,1138.7835 1282.3094,1138.6441 1283.2696,1139.1164 C 1285.3018,1140.1154 1285.4871,1142.8344 1284.4704,1144.6172 C 1282.5648,1147.9581 1277.9866,1148.1731 1274.9906,1146.2787 C 1269.8474,1143.0263 1269.6134,1135.8317 1272.8126,1131.1445 C 1277.9524,1123.6142 1288.7056,1123.3781 1295.6533,1128.4081 C 1306.2512,1136.0806 1306.4251,1151.484 1298.9342,1161.3569 C 1287.9746,1175.8015 1266.4977,1176.0897 1253.0992,1165.1962 C 1243.651,1157.5143 1241.8254,1151.5669 1240.6737,1148.8755 C 1263.6656,1124.0608 1276.0102,1101.4678 1281.5663,1080.2836 C 1323.5271,1069.7985 1304.0434,1029.6671 1321.2724,1006.6934 L 1321.2305,1006.6655 C 1304.3267,1029.2053 1321.3445,1065.8362 1282.3482,1077.0864 C 1292.6902,1032.4912 1273.4379,994.01892 1261.2667,953.86383 z M 1079.1552,1339.5871 C 1079.1882,1339.6638 1079.2103,1339.4674 1079.1552,1339.5871 z"
       id="path11213" />
    <path
       sodipodi:type="star"
       style="opacity:1;fill:#e7f1ff;fill-opacity:1;stroke:none;stroke-width:1;stroke-linejoin:round;stroke-miterlimit:4;stroke-dasharray:none;stroke-dashoffset:0;stroke-opacity:1"
       id="path3375"
       sodipodi:sides="5"
       sodipodi:cx="162.94955"
       sodipodi:cy="203.83304"
       sodipodi:r1="25.691782"
       sodipodi:r2="26.272663"
       sodipodi:arg1="0.48689923"
       sodipodi:arg2="-0.54381798"
       inkscape:flatsided="false"
       inkscape:rounded="1.88"
       inkscape:randomized="0"
       d="M 185.65564,215.85391 C 230.04118,234.53637 228.68309,169.06242 185.43211,190.23938 C 105.57307,229.34073 166.01559,140.53997 158.53359,229.14246 C 154.48141,277.12882 216.33116,255.60463 182.82538,221.01455 C 120.95999,157.14707 224.0923,187.19038 137.51425,207.45425 C 90.624323,218.42899 130.20767,270.60026 152.75094,228.04545 C 194.37506,149.47183 197.67181,256.84038 151.64563,180.76165 C 126.71825,139.55805 89.332353,193.32586 136.77063,201.61562 C 224.36115,216.92193 123.26635,253.23603 181.39865,185.95292 C 212.88261,149.51296 150.19351,130.57202 156.96871,178.25019 C 169.4785,266.28363 103.70173,181.35843 185.65564,215.85391 z"
       transform="matrix(0.1720925,0,0,0.1720925,1063.0278,1152.9119)" />
    <path
       id="path3447"
       style="opacity:0.17000002;fill:#e7f1ff;fill-opacity:1;fill-rule:evenodd;stroke:none;stroke-width:1px;stroke-linecap:butt;stroke-linejoin:miter;stroke-opacity:1;filter:url(#filter3474)"
       d="M 373.82647,9.1947481 C 321.49122,-12.306164 230.30772,63.25072 334.00723,218.82243 C 348.43662,241.37427 321.1875,232.13552 328.69961,231.38685 C 223.11475,58.84704 320.96767,-14.683318 373.56705,9.1947481"
       sodipodi:nodetypes="cccc"
       transform="matrix(2.1654099,0,0,2.1654099,506.16381,934.5043)" />
    <g
       id="g3270"
       transform="matrix(2.3233095,0,0,2.3233095,1051.6634,995.57747)"
       style="opacity:1;fill:#e7f1ff">
      <path
         id="path3263"
         d="M 126.21875,144.40625 C 90.82931,144.40625 62.09375,173.11056 62.09375,208.5 C 62.09375,243.88944 90.82931,272.62499 126.21875,272.625 C 161.60819,272.625 190.34374,243.88944 190.34375,208.5 C 190.34375,173.11056 161.60819,144.40626 126.21875,144.40625 z M 126.21875,161.75 C 152.02355,161.75 172.96875,182.6952 172.96875,208.5 C 172.96875,234.30481 152.02355,255.25 126.21875,255.25 C 100.41395,255.25 79.46875,234.3048 79.46875,208.5 C 79.46875,182.6952 100.41395,161.75 126.21875,161.75 z"
         style="opacity:1;fill:#e7f1ff;fill-opacity:1;stroke:none;stroke-width:1;stroke-linejoin:round;stroke-miterlimit:4;stroke-dasharray:none;stroke-dashoffset:0;stroke-opacity:1" />
      <path
         style="opacity:1;fill:#e7f1ff;fill-opacity:1;stroke:none;stroke-width:1;stroke-linejoin:round;stroke-miterlimit:4;stroke-dasharray:none;stroke-dashoffset:0;stroke-opacity:1"
         d="M 126.21875,178.46538 C 109.63052,178.46538 96.161181,191.92007 96.161181,208.5083 C 96.161181,225.09654 109.63052,238.56587 126.21875,238.56587 C 142.80698,238.56587 156.27631,225.09654 156.27632,208.5083 C 156.27632,191.92007 142.80698,178.46538 126.21875,178.46538 z M 126.21875,186.59499 C 138.31434,186.59499 148.13207,196.41271 148.13207,208.5083 C 148.13207,220.60389 138.31434,230.42162 126.21875,230.42162 C 114.12316,230.42162 104.30543,220.60389 104.30543,208.5083 C 104.30543,196.41271 114.12316,186.59499 126.21875,186.59499 z"
         id="path3268" />
    </g>
    <g
       transform="matrix(0.4061238,0,0,0.4061238,1143.8658,1274.359)"
       id="g3286"
       style="opacity:1;fill:#e7f1ff">
      <path
         style="opacity:1;fill:#e7f1ff;fill-opacity:1;stroke:none;stroke-width:1;stroke-linejoin:round;stroke-miterlimit:4;stroke-dasharray:none;stroke-dashoffset:0;stroke-opacity:1"
         d="M 126.21875,144.40625 C 90.82931,144.40625 62.09375,173.11056 62.09375,208.5 C 62.09375,243.88944 90.82931,272.62499 126.21875,272.625 C 161.60819,272.625 190.34374,243.88944 190.34375,208.5 C 190.34375,173.11056 161.60819,144.40626 126.21875,144.40625 z M 126.21875,161.75 C 152.02355,161.75 172.96875,182.6952 172.96875,208.5 C 172.96875,234.30481 152.02355,255.25 126.21875,255.25 C 100.41395,255.25 79.46875,234.3048 79.46875,208.5 C 79.46875,182.6952 100.41395,161.75 126.21875,161.75 z"
         id="path3288" />
      <path
         id="path3290"
         d="M 126.21875,178.46538 C 109.63052,178.46538 96.161181,191.92007 96.161181,208.5083 C 96.161181,225.09654 109.63052,238.56587 126.21875,238.56587 C 142.80698,238.56587 156.27631,225.09654 156.27632,208.5083 C 156.27632,191.92007 142.80698,178.46538 126.21875,178.46538 z M 126.21875,186.59499 C 138.31434,186.59499 148.13207,196.41271 148.13207,208.5083 C 148.13207,220.60389 138.31434,230.42162 126.21875,230.42162 C 114.12316,230.42162 104.30543,220.60389 104.30543,208.5083 C 104.30543,196.41271 114.12316,186.59499 126.21875,186.59499 z"
         style="opacity:1;fill:#e7f1ff;fill-opacity:1;stroke:none;stroke-width:1;stroke-linejoin:round;stroke-miterlimit:4;stroke-dasharray:none;stroke-dashoffset:0;stroke-opacity:1" />
    </g>
    <path
       sodipodi:nodetypes="csssssssssssccsssssssssssc"
       d="M 1339.1216,1466.8463 C 1339.1262,1466.8518 1339.1213,1466.8472 1339.1216,1466.8463 C 1339.1609,1466.7609 1339.1453,1466.901 1339.1216,1466.8463 C 1338.8088,1466.1194 1338.419,1466.6694 1338.4358,1467.049 C 1338.4784,1468.02 1339.6949,1468.3646 1340.4997,1468.192 C 1342.5368,1467.7548 1343.1686,1465.2867 1342.6285,1463.5264 C 1341.4859,1459.8025 1336.9216,1458.7575 1333.616,1459.9983 C 1327.4217,1462.3235 1325.8099,1470.034 1328.2105,1475.6393 C 1332.3319,1485.2621 1344.4977,1487.6209 1353.3313,1483.4656 C 1367.5233,1476.7898 1370.8366,1458.5867 1364.1882,1445.4139 C 1354.0474,1425.3206 1327.9395,1420.8185 1309.1271,1430.8486 C 1281.6031,1445.5234 1275.6487,1481.701 1290.1073,1507.6503 C 1310.5494,1544.3392 1354.904,1545.1793 1389.6915,1525.0825 M 1339.1216,1466.8463 C 1339.1287,1466.8447 1339.1223,1466.8471 1339.1216,1466.8463 C 1339.0649,1466.7714 1339.1556,1466.7974 1339.1216,1466.8463 C 1338.9125,1467.148 1339.0336,1467.5598 1339.2963,1467.6731 C 1340.1889,1468.0581 1341.05,1467.1824 1341.277,1466.3912 C 1341.8512,1464.3884 1339.9719,1462.6681 1338.1651,1462.315 C 1334.3419,1461.5682 1331.2695,1465.1018 1330.8064,1468.6017 C 1329.9384,1475.1609 1335.9796,1480.2158 1342.0549,1480.7398 C 1352.4842,1481.639 1360.2976,1472.0202 1360.795,1462.2706 C 1361.5942,1446.6069 1347.0998,1435.1075 1332.3485,1434.7642 C 1309.8473,1434.2404 1293.5741,1455.1467 1293.5561,1476.4659 C 1293.5301,1507.6576 1322.645,1530.4043 1352.3347,1529.4317 C 1393.6296,1528.0791 1383.05,1498.2835 1389.6915,1525.0825"
       style="opacity:1;fill:#e7f1ff;fill-opacity:1;fill-rule:evenodd;stroke:none;stroke-width:1px;stroke-linecap:butt;stroke-linejoin:miter;stroke-opacity:1"
       id="path3484" />
    <g
       transform="matrix(1.300962,0,0,-1.300962,1251.1058,1561.6296)"
       id="g3516"
       style="opacity:1;fill:#e7f1ff">
      <path
         style="opacity:1;fill:#e7f1ff;fill-opacity:1;stroke:none;stroke-width:1;stroke-linejoin:round;stroke-miterlimit:4;stroke-dasharray:none;stroke-dashoffset:0;stroke-opacity:1"
         d="M 126.21875,144.40625 C 90.82931,144.40625 62.09375,173.11056 62.09375,208.5 C 62.09375,243.88944 90.82931,272.62499 126.21875,272.625 C 161.60819,272.625 190.34374,243.88944 190.34375,208.5 C 190.34375,173.11056 161.60819,144.40626 126.21875,144.40625 z M 126.21875,161.75 C 152.02355,161.75 172.96875,182.6952 172.96875,208.5 C 172.96875,234.30481 152.02355,255.25 126.21875,255.25 C 100.41395,255.25 79.46875,234.3048 79.46875,208.5 C 79.46875,182.6952 100.41395,161.75 126.21875,161.75 z"
         id="path3518" />
      <path
         id="path3520"
         d="M 126.21875,178.46538 C 109.63052,178.46538 96.161181,191.92007 96.161181,208.5083 C 96.161181,225.09654 109.63052,238.56587 126.21875,238.56587 C 142.80698,238.56587 156.27631,225.09654 156.27632,208.5083 C 156.27632,191.92007 142.80698,178.46538 126.21875,178.46538 z M 126.21875,186.59499 C 138.31434,186.59499 148.13207,196.41271 148.13207,208.5083 C 148.13207,220.60389 138.31434,230.42162 126.21875,230.42162 C 114.12316,230.42162 104.30543,220.60389 104.30543,208.5083 C 104.30543,196.41271 114.12316,186.59499 126.21875,186.59499 z"
         style="opacity:1;fill:#e7f1ff;fill-opacity:1;stroke:none;stroke-width:1;stroke-linejoin:round;stroke-miterlimit:4;stroke-dasharray:none;stroke-dashoffset:0;stroke-opacity:1" />
    </g>
    <g
       id="g3528"
       transform="matrix(1.300962,0,0,-1.300962,1251.1058,1561.6296)"
       style="opacity:1;fill:#e7f1ff">
      <path
         id="path3530"
         d="M 126.21875,144.40625 C 90.82931,144.40625 62.09375,173.11056 62.09375,208.5 C 62.09375,243.88944 90.82931,272.62499 126.21875,272.625 C 161.60819,272.625 190.34374,243.88944 190.34375,208.5 C 190.34375,173.11056 161.60819,144.40626 126.21875,144.40625 z M 126.21875,161.75 C 152.02355,161.75 172.96875,182.6952 172.96875,208.5 C 172.96875,234.30481 152.02355,255.25 126.21875,255.25 C 100.41395,255.25 79.46875,234.3048 79.46875,208.5 C 79.46875,182.6952 100.41395,161.75 126.21875,161.75 z"
         style="opacity:1;fill:#e7f1ff;fill-opacity:1;stroke:none;stroke-width:1;stroke-linejoin:round;stroke-miterlimit:4;stroke-dasharray:none;stroke-dashoffset:0;stroke-opacity:1" />
      <path
         style="opacity:1;fill:#e7f1ff;fill-opacity:1;stroke:none;stroke-width:1;stroke-linejoin:round;stroke-miterlimit:4;stroke-dasharray:none;stroke-dashoffset:0;stroke-opacity:1"
         d="M 126.21875,178.46538 C 109.63052,178.46538 96.161181,191.92007 96.161181,208.5083 C 96.161181,225.09654 109.63052,238.56587 126.21875,238.56587 C 142.80698,238.56587 156.27631,225.09654 156.27632,208.5083 C 156.27632,191.92007 142.80698,178.46538 126.21875,178.46538 z M 126.21875,186.59499 C 138.31434,186.59499 148.13207,196.41271 148.13207,208.5083 C 148.13207,220.60389 138.31434,230.42162 126.21875,230.42162 C 114.12316,230.42162 104.30543,220.60389 104.30543,208.5083 C 104.30543,196.41271 114.12316,186.59499 126.21875,186.59499 z"
         id="path3532" />
    </g>
    <path
       id="path3552"
       style="opacity:1;fill:#e7f1ff;fill-opacity:1;fill-rule:evenodd;stroke:none;stroke-width:1px;stroke-linecap:butt;stroke-linejoin:miter;stroke-opacity:1"
       d="M 1412.0712,1297.7376 C 1412.0737,1297.7343 1412.0709,1297.7369 1412.0712,1297.7376 C 1412.093,1297.7852 1412.0844,1297.7068 1412.0712,1297.7376 C 1411.8959,1298.1444 1411.6777,1297.8364 1411.6871,1297.6239 C 1411.711,1297.0799 1412.3923,1296.8872 1412.8428,1296.984 C 1413.9835,1297.2288 1414.3373,1298.6109 1414.0349,1299.5964 C 1413.395,1301.6816 1410.839,1302.2669 1408.9882,1301.5719 C 1405.5196,1300.2701 1404.6171,1295.9525 1405.9614,1292.8137 C 1408.2692,1287.4253 1415.0815,1286.1044 1420.0279,1288.4313 C 1427.9751,1292.1695 1429.8303,1302.3626 1426.1074,1309.7387 C 1420.429,1320.9903 1405.8096,1323.5111 1395.2754,1317.8948 C 1379.863,1309.6774 1376.5289,1289.4195 1384.6249,1274.8887 C 1396.0717,1254.3446 1423.3527,1250.0332 1442.8324,1261.2869 M 1412.0712,1297.7376 C 1412.075,1297.7384 1412.0715,1297.7371 1412.0712,1297.7376 C 1412.0393,1297.7795 1412.0901,1297.7648 1412.0712,1297.7376 C 1411.954,1297.5685 1412.0218,1297.3379 1412.1689,1297.2745 C 1412.6687,1297.059 1413.1509,1297.5491 1413.2781,1297.9923 C 1413.5996,1299.1137 1412.5473,1300.077 1411.5355,1300.2748 C 1409.3947,1300.6929 1407.6742,1298.7143 1407.4149,1296.7544 C 1406.9288,1293.0817 1410.3117,1290.251 1413.7137,1289.9577 C 1419.5537,1289.454 1423.9289,1294.8402 1424.2075,1300.2997 C 1424.6549,1309.0704 1416.5386,1315.51 1408.2785,1315.7021 C 1395.6787,1315.9955 1386.5664,1304.2887 1386.5563,1292.3508 C 1386.5417,1274.8848 1402.8447,1262.1475 1419.4698,1262.692 C 1442.5934,1263.4496 1439.1135,1276.2932 1442.8324,1261.2869"
       sodipodi:nodetypes="csssssssssssccsssssssssssc" />
    <g
       id="g3570"
       transform="matrix(1.0763349,0,0,1.0763349,1040.4587,1359.9244)"
       style="opacity:1;fill:#e7f1ff">
      <path
         id="path3572"
         d="M 126.21875,144.40625 C 90.82931,144.40625 62.09375,173.11056 62.09375,208.5 C 62.09375,243.88944 90.82931,272.62499 126.21875,272.625 C 161.60819,272.625 190.34374,243.88944 190.34375,208.5 C 190.34375,173.11056 161.60819,144.40626 126.21875,144.40625 z M 126.21875,161.75 C 152.02355,161.75 172.96875,182.6952 172.96875,208.5 C 172.96875,234.30481 152.02355,255.25 126.21875,255.25 C 100.41395,255.25 79.46875,234.3048 79.46875,208.5 C 79.46875,182.6952 100.41395,161.75 126.21875,161.75 z"
         style="opacity:1;fill:#e7f1ff;fill-opacity:1;stroke:none;stroke-width:1;stroke-linejoin:round;stroke-miterlimit:4;stroke-dasharray:none;stroke-dashoffset:0;stroke-opacity:1" />
      <path
         style="opacity:1;fill:#e7f1ff;fill-opacity:1;stroke:none;stroke-width:1;stroke-linejoin:round;stroke-miterlimit:4;stroke-dasharray:none;stroke-dashoffset:0;stroke-opacity:1"
         d="M 126.21875,178.46538 C 109.63052,178.46538 96.161181,191.92007 96.161181,208.5083 C 96.161181,225.09654 109.63052,238.56587 126.21875,238.56587 C 142.80698,238.56587 156.27631,225.09654 156.27632,208.5083 C 156.27632,191.92007 142.80698,178.46538 126.21875,178.46538 z M 126.21875,186.59499 C 138.31434,186.59499 148.13207,196.41271 148.13207,208.5083 C 148.13207,220.60389 138.31434,230.42162 126.21875,230.42162 C 114.12316,230.42162 104.30543,220.60389 104.30543,208.5083 C 104.30543,196.41271 114.12316,186.59499 126.21875,186.59499 z"
         id="path3574" />
    </g>
    <g
       transform="matrix(0.1881477,0,0,0.1881477,1083.174,1489.0775)"
       id="g3576"
       style="opacity:1;fill:#e7f1ff">
      <path
         style="opacity:1;fill:#e7f1ff;fill-opacity:1;stroke:none;stroke-width:1;stroke-linejoin:round;stroke-miterlimit:4;stroke-dasharray:none;stroke-dashoffset:0;stroke-opacity:1"
         d="M 126.21875,144.40625 C 90.82931,144.40625 62.09375,173.11056 62.09375,208.5 C 62.09375,243.88944 90.82931,272.62499 126.21875,272.625 C 161.60819,272.625 190.34374,243.88944 190.34375,208.5 C 190.34375,173.11056 161.60819,144.40626 126.21875,144.40625 z M 126.21875,161.75 C 152.02355,161.75 172.96875,182.6952 172.96875,208.5 C 172.96875,234.30481 152.02355,255.25 126.21875,255.25 C 100.41395,255.25 79.46875,234.3048 79.46875,208.5 C 79.46875,182.6952 100.41395,161.75 126.21875,161.75 z"
         id="path3578" />
      <path
         id="path3580"
         d="M 126.21875,178.46538 C 109.63052,178.46538 96.161181,191.92007 96.161181,208.5083 C 96.161181,225.09654 109.63052,238.56587 126.21875,238.56587 C 142.80698,238.56587 156.27631,225.09654 156.27632,208.5083 C 156.27632,191.92007 142.80698,178.46538 126.21875,178.46538 z M 126.21875,186.59499 C 138.31434,186.59499 148.13207,196.41271 148.13207,208.5083 C 148.13207,220.60389 138.31434,230.42162 126.21875,230.42162 C 114.12316,230.42162 104.30543,220.60389 104.30543,208.5083 C 104.30543,196.41271 114.12316,186.59499 126.21875,186.59499 z"
         style="opacity:1;fill:#e7f1ff;fill-opacity:1;stroke:none;stroke-width:1;stroke-linejoin:round;stroke-miterlimit:4;stroke-dasharray:none;stroke-dashoffset:0;stroke-opacity:1" />
    </g>
    <g
       transform="matrix(1.0763349,0,0,1.0763349,1040.4587,1359.9244)"
       id="g3582"
       style="opacity:1;fill:#e7f1ff">
      <path
         style="opacity:1;fill:#e7f1ff;fill-opacity:1;stroke:none;stroke-width:1;stroke-linejoin:round;stroke-miterlimit:4;stroke-dasharray:none;stroke-dashoffset:0;stroke-opacity:1"
         d="M 126.21875,144.40625 C 90.82931,144.40625 62.09375,173.11056 62.09375,208.5 C 62.09375,243.88944 90.82931,272.62499 126.21875,272.625 C 161.60819,272.625 190.34374,243.88944 190.34375,208.5 C 190.34375,173.11056 161.60819,144.40626 126.21875,144.40625 z M 126.21875,161.75 C 152.02355,161.75 172.96875,182.6952 172.96875,208.5 C 172.96875,234.30481 152.02355,255.25 126.21875,255.25 C 100.41395,255.25 79.46875,234.3048 79.46875,208.5 C 79.46875,182.6952 100.41395,161.75 126.21875,161.75 z"
         id="path3584" />
      <path
         id="path3586"
         d="M 126.21875,178.46538 C 109.63052,178.46538 96.161181,191.92007 96.161181,208.5083 C 96.161181,225.09654 109.63052,238.56587 126.21875,238.56587 C 142.80698,238.56587 156.27631,225.09654 156.27632,208.5083 C 156.27632,191.92007 142.80698,178.46538 126.21875,178.46538 z M 126.21875,186.59499 C 138.31434,186.59499 148.13207,196.41271 148.13207,208.5083 C 148.13207,220.60389 138.31434,230.42162 126.21875,230.42162 C 114.12316,230.42162 104.30543,220.60389 104.30543,208.5083 C 104.30543,196.41271 114.12316,186.59499 126.21875,186.59499 z"
         style="opacity:1;fill:#e7f1ff;fill-opacity:1;stroke:none;stroke-width:1;stroke-linejoin:round;stroke-miterlimit:4;stroke-dasharray:none;stroke-dashoffset:0;stroke-opacity:1" />
    </g>
    <path
       sodipodi:nodetypes="csssssssssssccsssssssssssc"
       d="M 1173.6315,1578.2523 C 1173.6334,1578.2549 1173.6313,1578.2528 1173.6315,1578.2523 C 1173.6497,1578.2129 1173.6425,1578.2777 1173.6315,1578.2523 C 1173.4865,1577.9155 1173.3059,1578.1704 1173.3136,1578.3463 C 1173.3334,1578.796 1173.8971,1578.9557 1174.2698,1578.8756 C 1175.2136,1578.6731 1175.5063,1577.5297 1175.2562,1576.7144 C 1174.7267,1574.989 1172.6122,1574.5051 1171.0807,1575.0799 C 1168.2112,1576.1571 1167.4644,1579.729 1168.5766,1582.3259 C 1170.4858,1586.7838 1176.1221,1587.8767 1180.2144,1585.9517 C 1186.7894,1582.859 1188.3242,1574.426 1185.2442,1568.3232 C 1180.5462,1559.0145 1168.451,1556.9287 1159.7357,1561.5754 C 1146.9844,1568.3741 1144.2259,1585.1342 1150.9242,1597.156 C 1160.3945,1614.1529 1182.9651,1617.7197 1199.0813,1608.4093 M 1173.6315,1578.2523 C 1173.6346,1578.2516 1173.6318,1578.2525 1173.6315,1578.2523 C 1173.605,1578.2176 1173.6472,1578.2295 1173.6315,1578.2523 C 1173.5346,1578.392 1173.5906,1578.5828 1173.7123,1578.6354 C 1174.1259,1578.8138 1174.5248,1578.4081 1174.63,1578.0415 C 1174.896,1577.1134 1174.0254,1576.3166 1173.1882,1576.1531 C 1171.4171,1575.8071 1169.9937,1577.4442 1169.7792,1579.0655 C 1169.377,1582.1043 1172.1756,1584.4461 1174.9903,1584.6888 C 1179.8221,1585.1055 1183.4418,1580.6493 1183.6722,1576.1324 C 1184.0425,1568.8759 1177.3276,1563.5485 1170.4937,1563.3893 C 1160.0693,1563.1467 1152.5302,1572.8321 1152.522,1582.7088 C 1152.51,1597.1592 1165.9981,1607.6972 1179.7527,1607.2467 C 1198.8837,1606.6199 1196.0046,1595.994 1199.0813,1608.4093"
       style="opacity:1;fill:#e7f1ff;fill-opacity:1;fill-rule:evenodd;stroke:none;stroke-width:1px;stroke-linecap:butt;stroke-linejoin:miter;stroke-opacity:1"
       id="path3606" />
    <path
       sodipodi:nodetypes="csssssssssssccsssssssssssc"
       d="M 1121.7119,1467.7747 C 1121.7123,1467.7718 1121.7117,1467.7745 1121.7119,1467.7747 C 1121.744,1467.7953 1121.7081,1467.7509 1121.7119,1467.7747 C 1121.7626,1468.0905 1121.5103,1467.9875 1121.4337,1467.854 C 1121.238,1467.5133 1121.5788,1467.132 1121.8909,1467.0165 C 1122.6812,1466.7241 1123.432,1467.4303 1123.629,1468.1482 C 1124.0458,1469.6676 1122.7136,1471.0136 1121.3161,1471.3062 C 1118.697,1471.8548 1116.4754,1469.5711 1116.0806,1467.1369 C 1115.4023,1462.9578 1119.0453,1459.5154 1122.9624,1459.0199 C 1129.2554,1458.2239 1134.3318,1463.7217 1134.9165,1469.6605 C 1135.8084,1478.7197 1127.869,1485.9155 1119.2713,1486.5673 C 1106.6921,1487.5217 1096.8184,1476.4584 1096.1314,1464.4637 C 1095.1607,1447.5053 1110.1284,1434.3175 1126.3629,1433.6409 M 1121.7119,1467.7747 C 1121.7147,1467.7737 1121.712,1467.7743 1121.7119,1467.7747 C 1121.7089,1467.8125 1121.7343,1467.7841 1121.7119,1467.7747 C 1121.5752,1467.7169 1121.5272,1467.5503 1121.5925,1467.4545 C 1121.8137,1467.1296 1122.2976,1467.2421 1122.5466,1467.4629 C 1123.1768,1468.0224 1122.9078,1469.017 1122.3674,1469.5291 C 1121.2237,1470.6129 1119.4089,1470.0722 1118.4922,1468.9773 C 1116.7741,1466.9257 1117.7415,1463.8901 1119.7025,1462.3947 C 1123.0691,1459.8273 1127.8217,1461.4186 1130.1046,1464.64 C 1133.772,1469.8154 1131.315,1476.8835 1126.3522,1480.1977 C 1118.7822,1485.2532 1108.6942,1481.641 1104.0678,1474.3649 C 1097.2987,1463.7195 1102.3109,1449.6422 1112.66,1443.5397 C 1127.0543,1435.0519 1129.903,1444.2312 1126.3629,1433.6409"
       style="opacity:1;fill:#e7f1ff;fill-opacity:1;fill-rule:evenodd;stroke:none;stroke-width:1px;stroke-linecap:butt;stroke-linejoin:miter;stroke-opacity:1"
       id="path3668" />
    <path
       style="opacity:1;fill:#e7f1ff;fill-opacity:1;stroke:none;stroke-width:1;stroke-linejoin:round;stroke-miterlimit:4;stroke-dasharray:none;stroke-dashoffset:0;stroke-opacity:1"
       d="M 1168.0128,1480.2363 C 1153.9983,1480.2363 1142.619,1491.6033 1142.619,1505.6176 C 1142.619,1519.632 1153.9983,1531.0113 1168.0128,1531.0113 C 1182.0271,1531.0113 1193.4066,1519.632 1193.4066,1505.6176 C 1193.4066,1491.6033 1182.0271,1480.2363 1168.0128,1480.2363 z M 1168.0128,1487.1045 C 1178.2315,1487.1045 1186.526,1495.3989 1186.526,1505.6176 C 1186.526,1515.8365 1178.2315,1524.1309 1168.0128,1524.1309 C 1157.7939,1524.1309 1149.4996,1515.8365 1149.4996,1505.6176 C 1149.4996,1495.3989 1157.7939,1487.1045 1168.0128,1487.1045 z"
       id="path3652" />
    <path
       id="path3654"
       d="M 1168.0128,1493.7238 C 1161.4438,1493.7238 1156.1097,1499.052 1156.1097,1505.621 C 1156.1097,1512.1899 1161.4438,1517.5237 1168.0128,1517.5237 C 1174.5818,1517.5237 1179.9157,1512.1899 1179.9157,1505.621 C 1179.9157,1499.052 1174.5818,1493.7238 1168.0128,1493.7238 z M 1168.0128,1496.9431 C 1172.8027,1496.9431 1176.6905,1500.8311 1176.6905,1505.621 C 1176.6905,1510.4108 1172.8027,1514.2986 1168.0128,1514.2986 C 1163.2228,1514.2986 1159.3349,1510.4108 1159.3349,1505.621 C 1159.3349,1500.8311 1163.2228,1496.9431 1168.0128,1496.9431 z"
       style="opacity:1;fill:#e7f1ff;fill-opacity:1;stroke:none;stroke-width:1;stroke-linejoin:round;stroke-miterlimit:4;stroke-dasharray:none;stroke-dashoffset:0;stroke-opacity:1" />
    <path
       id="path3658"
       d="M 1188.6019,1443.8987 C 1179.2681,1443.8987 1171.6891,1451.4693 1171.6891,1460.8033 C 1171.6891,1470.1373 1179.2681,1477.7162 1188.6019,1477.7162 C 1197.936,1477.7162 1205.5148,1470.1373 1205.5148,1460.8033 C 1205.5148,1451.4693 1197.936,1443.8987 1188.6019,1443.8987 z M 1188.6019,1448.473 C 1195.4081,1448.473 1200.9323,1453.9973 1200.9323,1460.8033 C 1200.9323,1467.6093 1195.4081,1473.1336 1188.6019,1473.1336 C 1181.796,1473.1336 1176.2717,1467.6093 1176.2717,1460.8033 C 1176.2717,1453.9973 1181.796,1448.473 1188.6019,1448.473 z"
       style="opacity:1;fill:#e7f1ff;fill-opacity:1;stroke:none;stroke-width:1;stroke-linejoin:round;stroke-miterlimit:4;stroke-dasharray:none;stroke-dashoffset:0;stroke-opacity:1" />
    <path
       style="opacity:1;fill:#e7f1ff;fill-opacity:1;stroke:none;stroke-width:1;stroke-linejoin:round;stroke-miterlimit:4;stroke-dasharray:none;stroke-dashoffset:0;stroke-opacity:1"
       d="M 1188.6019,1452.8818 C 1184.2268,1452.8818 1180.6743,1456.4305 1180.6743,1460.8055 C 1180.6743,1465.1807 1184.2268,1468.7331 1188.6019,1468.7331 C 1192.9771,1468.7331 1196.5295,1465.1807 1196.5295,1460.8055 C 1196.5295,1456.4305 1192.9771,1452.8818 1188.6019,1452.8818 z M 1188.6019,1455.026 C 1191.7922,1455.026 1194.3816,1457.6154 1194.3816,1460.8055 C 1194.3816,1463.9959 1191.7922,1466.5852 1188.6019,1466.5852 C 1185.4118,1466.5852 1182.8224,1463.9959 1182.8224,1460.8055 C 1182.8224,1457.6154 1185.4118,1455.026 1188.6019,1455.026 z"
       id="path3660" />
    <path
       transform="matrix(-0.9679513,0,0,-0.9679513,1404.385,1068.4751)"
       sodipodi:nodetypes="cccc"
       d="M 373.82647,9.1947481 C 321.49122,-12.306164 230.30772,63.25072 334.00723,218.82243 C 348.43662,241.37427 321.1875,232.13552 328.69961,231.38685 C 223.11475,58.84704 320.96767,-14.683318 373.56705,9.1947481"
       style="opacity:0.17000002;fill:#e7f1ff;fill-opacity:1;fill-rule:evenodd;stroke:none;stroke-width:1px;stroke-linecap:butt;stroke-linejoin:miter;stroke-opacity:1;filter:url(#filter3474)"
       id="path3704" />
  </g>
</svg>
