<?xml version="1.0" encoding="UTF-8" standalone="no"?>
<!-- Created with Inkscape (http://www.inkscape.org/) -->
<svg
   xmlns:dc="http://purl.org/dc/elements/1.1/"
   xmlns:cc="http://creativecommons.org/ns#"
   xmlns:rdf="http://www.w3.org/1999/02/22-rdf-syntax-ns#"
   xmlns:svg="http://www.w3.org/2000/svg"
   xmlns="http://www.w3.org/2000/svg"
   xmlns:sodipodi="http://sodipodi.sourceforge.net/DTD/sodipodi-0.dtd"
   xmlns:inkscape="http://www.inkscape.org/namespaces/inkscape"
   width="2048"
   height="1536"
   id="svg2"
   sodipodi:version="0.32"
   inkscape:version="0.46"
   sodipodi:docname="2048x1536.svg"
   inkscape:output_extension="org.inkscape.output.svg.inkscape"
   version="1.0"
   style="display:inline">
  <defs
     id="defs4">
    <inkscape:perspective
       sodipodi:type="inkscape:persp3d"
       inkscape:vp_x="0 : 384 : 1"
       inkscape:vp_y="0 : 1000 : 0"
       inkscape:vp_z="1360 : 384 : 1"
       inkscape:persp3d-origin="680 : 256 : 1"
       id="perspective109" />
    <filter
       inkscape:collect="always"
       id="filter3670">
      <feGaussianBlur
         inkscape:collect="always"
         stdDeviation="1.4864866"
         id="feGaussianBlur3672" />
    </filter>
    <filter
       inkscape:collect="always"
       id="filter3474">
      <feGaussianBlur
         inkscape:collect="always"
         stdDeviation="1.6061345"
         id="feGaussianBlur3476" />
    </filter>
    <filter
       inkscape:collect="always"
       id="filter3387">
      <feGaussianBlur
         inkscape:collect="always"
         stdDeviation="1.7344037"
         id="feGaussianBlur3389" />
    </filter>
    <filter
       inkscape:collect="always"
       id="filter3466">
      <feGaussianBlur
         inkscape:collect="always"
         stdDeviation="3.2352817"
         id="feGaussianBlur3468" />
    </filter>
  </defs>
  <sodipodi:namedview
     id="base"
     pagecolor="#ffffff"
     bordercolor="#666666"
     borderopacity="1.0"
     gridtolerance="10000"
     guidetolerance="10"
     objecttolerance="10"
     inkscape:pageopacity="0.0"
     inkscape:pageshadow="2"
     inkscape:zoom="0.65104167"
     inkscape:cx="1514.794"
     inkscape:cy="330.75815"
     inkscape:document-units="px"
     inkscape:current-layer="layer1"
     showgrid="false"
     showborder="true"
     inkscape:showpageshadow="false"
     showguides="false"
     inkscape:guide-bbox="true"
     inkscape:window-width="1360"
     inkscape:window-height="693"
     inkscape:window-x="0"
     inkscape:window-y="25">
    <sodipodi:guide
       orientation="0,1"
       position="2214.8215,759.57019"
       id="guide3161" />
    <sodipodi:guide
       orientation="1,0"
       position="1689.5113,1249.3865"
       id="guide3163" />
    <sodipodi:guide
       orientation="1,0"
       position="800,1611.4246"
       id="guide3274" />
    <sodipodi:guide
       orientation="0,1"
       position="2647.8475,1540.4367"
       id="guide3286" />
    <sodipodi:guide
       orientation="0,1"
       position="2477.4766,0"
       id="guide3288" />
    <sodipodi:guide
       orientation="1,0"
       position="2045.4132,466.74651"
       id="guide3290" />
    <sodipodi:guide
       orientation="1,0"
       position="0,0"
       id="guide3932" />
    <sodipodi:guide
       orientation="0,1"
       position="1610.5709,1241.9002"
       id="guide8458" />
    <sodipodi:guide
       orientation="1,0"
       position="578,1274.2196"
       id="guide8464" />
    <sodipodi:guide
       orientation="1,0"
       position="1988.7352,934.82463"
       id="guide8466" />
    <sodipodi:guide
       orientation="0,1"
       position="71.957677,300"
       id="guide5363" />
    <inkscape:grid
       type="xygrid"
       id="grid5369"
       visible="true"
       enabled="true"
       units="mm"
       spacingx="1mm"
       spacingy="1mm"
       color="#008aff"
       opacity="0.1254902"
       empcolor="#008aff"
       empopacity="0.25098039" />
  </sodipodi:namedview>
  <metadata
     id="metadata7">
    <rdf:RDF>
      <cc:Work
         rdf:about="">
        <dc:format>image/svg+xml</dc:format>
        <dc:type
           rdf:resource="http://purl.org/dc/dcmitype/StillImage" />
        <dc:creator>
          <cc:Agent>
            <dc:title>Alain Reguera Delgado</dc:title>
          </cc:Agent>
        </dc:creator>
        <dc:rights>
          <cc:Agent>
            <dc:title>The CentOS Project</dc:title>
          </cc:Agent>
        </dc:rights>
        <dc:publisher>
          <cc:Agent>
            <dc:title>The CentOS Project</dc:title>
          </cc:Agent>
        </dc:publisher>
        <dc:title>TreeFlower</dc:title>
        <dc:date>2010-04-22</dc:date>
        <dc:language>en</dc:language>
        <dc:description>Artistic Motif for CentOS Project.</dc:description>
        <dc:identifier />
        <cc:license
           rdf:resource="http://creativecommons.org/licenses/by-sa/3.0/" />
        <dc:contributor>
          <cc:Agent>
            <dc:title />
          </cc:Agent>
        </dc:contributor>
      </cc:Work>
      <cc:License
         rdf:about="http://creativecommons.org/licenses/by-sa/3.0/">
        <cc:permits
           rdf:resource="http://creativecommons.org/ns#Reproduction" />
        <cc:permits
           rdf:resource="http://creativecommons.org/ns#Distribution" />
        <cc:requires
           rdf:resource="http://creativecommons.org/ns#Notice" />
        <cc:requires
           rdf:resource="http://creativecommons.org/ns#Attribution" />
        <cc:permits
           rdf:resource="http://creativecommons.org/ns#DerivativeWorks" />
        <cc:requires
           rdf:resource="http://creativecommons.org/ns#ShareAlike" />
      </cc:License>
    </rdf:RDF>
  </metadata>
  <g
     inkscape:label="Background"
     inkscape:groupmode="layer"
     id="layer1"
     style="display:inline"
     transform="translate(-67.999994,-823.15657)">
    <g
       transform="matrix(1.1571082,0.9854835,0.9854835,-1.1571082,188.53328,1148.0122)"
       id="g17290"
       style="opacity:0.1;filter:url(#filter3670)" />
    <g
       style="opacity:0.1"
       id="g22175"
       transform="matrix(0.381003,0.1771145,0.1771145,-0.381003,638.50485,867.48913)" />
    <g
       style="opacity:0.1"
       transform="matrix(0.8187318,0,0,0.8187318,475.17619,676.7082)"
       id="g22181">
      <g
         id="g22183"
         transform="matrix(0.4010554,0,0,0.4010554,297.65753,82.48033)" />
    </g>
    <g
       style="opacity:0.1"
       inkscape:transform-center-y="44.005377"
       inkscape:transform-center-x="-10.433289"
       transform="matrix(-0.4683679,-0.5724281,0.5724281,-0.4683679,859.65712,1116.3958)"
       id="g22197" />
    <g
       style="opacity:0.1"
       id="g22243"
       transform="matrix(0.1747465,0,0,-0.1747465,686.59619,1192.9507)" />
    <g
       id="g10023"
       transform="matrix(1.5141043,0,0,1.5141043,-64.269164,-1140.9464)"
       style="fill:#060e1a">
      <g
         transform="matrix(2.042901,0,0,2.042901,-91.286491,-1055.472)"
         id="g8979"
         style="fill:#060e1a">
        <g
           transform="matrix(0.753824,0,0,0.753824,43.591171,320.09806)"
           id="g11750"
           style="fill:#060e1a;display:inline">
          <g
             style="fill:#060e1a;fill-opacity:1;display:inline"
             transform="matrix(0.4179296,0,0,0.4190481,-0.2144611,1050.3541)"
             id="g3054">
            <text
               xml:space="preserve"
               style="font-size:69.71334076px;font-style:normal;font-weight:normal;text-align:center;text-anchor:middle;fill:#060e1a;fill-opacity:1;stroke:none;stroke-width:1px;stroke-linecap:butt;stroke-linejoin:miter;stroke-opacity:1;display:inline;font-family:Bitstream Vera Sans"
               x="333.58936"
               y="104.39967"
               id="text3056"><tspan
                 sodipodi:role="line"
                 id="tspan3058"
                 x="333.58936"
                 y="104.39967"
                 style="font-style:normal;font-variant:normal;font-weight:200;font-stretch:normal;text-align:center;text-anchor:middle;fill:#060e1a;fill-opacity:1;font-family:Denmark;-inkscape-font-specification:Denmark Ultra-Light">TreeFl  wer</tspan></text>
          </g>
          <path
             sodipodi:type="star"
             style="opacity:1;fill:#060e1a;fill-opacity:1;stroke:none;stroke-width:1;stroke-linejoin:round;stroke-miterlimit:4;stroke-dasharray:none;stroke-dashoffset:0;stroke-opacity:1;display:inline"
             id="path4446"
             sodipodi:sides="5"
             sodipodi:cx="162.94955"
             sodipodi:cy="203.83304"
             sodipodi:r1="25.691782"
             sodipodi:r2="26.272663"
             sodipodi:arg1="0.48689923"
             sodipodi:arg2="-0.54381798"
             inkscape:flatsided="false"
             inkscape:rounded="1.88"
             inkscape:randomized="0"
             d="M 185.65564,215.85391 C 230.04118,234.53637 228.68309,169.06242 185.43211,190.23938 C 105.57307,229.34073 166.01559,140.53997 158.53359,229.14246 C 154.48141,277.12882 216.33116,255.60463 182.82538,221.01455 C 120.95999,157.14707 224.0923,187.19038 137.51425,207.45425 C 90.624323,218.42899 130.20767,270.60026 152.75094,228.04545 C 194.37506,149.47183 197.67181,256.84038 151.64563,180.76165 C 126.71825,139.55805 89.332353,193.32586 136.77063,201.61562 C 224.36115,216.92193 123.26635,253.23603 181.39865,185.95292 C 212.88261,149.51296 150.19351,130.57202 156.96871,178.25019 C 169.4785,266.28363 103.70173,181.35843 185.65564,215.85391 z"
             transform="matrix(0.1877957,-6.5668885e-2,-6.5649806e-2,-0.1877411,140.84415,1133.7555)" />
        </g>
      </g>
      <path
         sodipodi:nodetypes="csssssssssssccsssssssssssc"
         d="M 95.707267,1260.5138 C 95.707509,1260.5134 95.70738,1260.5138 95.707267,1260.5138 C 95.701106,1260.5138 95.709904,1260.5109 95.707267,1260.5138 C 95.671809,1260.5527 95.715801,1260.5613 95.738418,1260.5499 C 95.796112,1260.5207 95.783712,1260.4375 95.751146,1260.3933 C 95.668892,1260.2817 95.501873,1260.311 95.409989,1260.392 C 95.215321,1260.5632 95.276892,1260.8687 95.442589,1261.0352 C 95.753191,1261.3473 96.265084,1261.2341 96.539397,1260.935 C 97.01025,1260.4216 96.820339,1259.619 96.326448,1259.197 C 95.533044,1258.5188 94.338116,1258.816 93.721115,1259.5799 C 92.779828,1260.7452 93.221346,1262.452 94.344677,1263.3186 C 95.98829,1264.5865 98.345767,1263.9574 99.524138,1262.3701 C 101.1901,1260.1258 100.3235,1256.9597 98.152325,1255.3997 M 95.707267,1260.5138 C 95.707063,1260.5134 95.70733,1260.5137 95.707267,1260.5138 C 95.704349,1260.5193 95.703357,1260.5131 95.707267,1260.5138 C 95.73132,1260.5183 95.753035,1260.4997 95.752591,1260.4805 C 95.751597,1260.4159 95.674848,1260.3876 95.620751,1260.3956 C 95.483506,1260.4156 95.430603,1260.5766 95.458638,1260.6959 C 95.517938,1260.9482 95.816456,1261.0379 96.041352,1260.9701 C 96.463004,1260.8433 96.604347,1260.3385 96.469794,1259.9556 C 96.238821,1259.2983 95.441477,1259.0876 94.836441,1259.3243 C 93.864471,1259.7047 93.563641,1260.8986 93.94654,1261.8028 C 94.53076,1263.1822 96.244405,1263.597 97.538093,1263.0145 C 99.430874,1262.1623 100.01375,1259.7736 99.142003,1257.9991 C 97.929555,1255.5311 96.708442,1256.5361 98.152325,1255.3997"
         style="opacity:1;fill:#060e1a;fill-opacity:1;fill-rule:evenodd;stroke:none;stroke-width:1px;stroke-linecap:butt;stroke-linejoin:miter;stroke-opacity:1"
         id="path9995" />
      <g
         transform="matrix(0.6023818,-0.8498805,0.8498805,0.6023818,-1001.8974,609.50651)"
         id="g10011"
         style="fill:#060e1a">
        <path
           sodipodi:nodetypes="csssssssssssccsssssssssssc"
           d="M 94.755812,1245.7201 C 94.756563,1245.7205 94.755904,1245.7199 94.755812,1245.7201 C 94.749327,1245.7275 94.762071,1245.7201 94.755812,1245.7201 C 94.672542,1245.7209 94.708833,1245.66 94.746055,1245.6454 C 94.841402,1245.6082 94.926448,1245.7106 94.944169,1245.7954 C 94.989051,1246.0103 94.778436,1246.1761 94.586019,1246.199 C 94.178858,1246.248 93.883545,1245.8536 93.861896,1245.4827 C 93.82127,1244.7872 94.494572,1244.303 95.136406,1244.2947 C 96.238324,1244.2809 96.984544,1245.351 96.96154,1246.3783 C 96.924802,1248.029 95.314445,1249.1246 93.763049,1249.0469 C 91.39655,1248.9286 89.849204,1246.6081 90.011666,1244.37 C 90.24932,1241.0949 93.476703,1238.978 96.590953,1239.2621 C 100.99406,1239.6636 103.81406,1244.0236 103.36449,1248.2287 M 94.755812,1245.7201 C 94.756036,1245.7208 94.755962,1245.7201 94.755812,1245.7201 C 94.746234,1245.7179 94.752549,1245.7256 94.755812,1245.7201 C 94.775918,1245.6871 94.820733,1245.6811 94.842858,1245.7018 C 94.917992,1245.7711 94.870487,1245.8915 94.804022,1245.9469 C 94.635763,1246.0876 94.390072,1245.9801 94.27897,1245.8214 C 94.043908,1245.4854 94.252913,1245.0389 94.569926,1244.8451 C 95.164055,1244.4816 95.908396,1244.847 96.218046,1245.4095 C 96.74968,1246.3749 96.157407,1247.5371 95.240396,1248.0011 C 93.767111,1248.7464 92.041988,1247.8424 91.379419,1246.4375 C 90.368728,1244.2944 91.686262,1241.8361 93.737134,1240.9247 C 96.737619,1239.5909 100.16913,1241.4222 101.34262,1244.321 C 102.9747,1248.3527 100.5021,1248.7333 103.36449,1248.2287"
           style="opacity:1;fill:#060e1a;fill-opacity:1;fill-rule:evenodd;stroke:none;stroke-width:1px;stroke-linecap:butt;stroke-linejoin:miter;stroke-opacity:1"
           id="path10003" />
        <path
           id="path10005"
           style="opacity:1;fill:#060e1a;fill-opacity:1;fill-rule:evenodd;stroke:none;stroke-width:1px;stroke-linecap:butt;stroke-linejoin:miter;stroke-opacity:1"
           d="M 115.39129,1244.7928 C 115.39005,1244.7932 115.39114,1244.7924 115.39129,1244.7928 C 115.40195,1244.8049 115.38099,1244.7928 115.39129,1244.7928 C 115.5282,1244.7941 115.46853,1244.694 115.40733,1244.6699 C 115.25055,1244.6087 115.11071,1244.777 115.08157,1244.9165 C 115.00778,1245.2696 115.35408,1245.5426 115.67047,1245.5803 C 116.33996,1245.6609 116.82554,1245.0122 116.86114,1244.4022 C 116.92794,1243.2588 115.82084,1242.4626 114.76548,1242.4489 C 112.95361,1242.4263 111.72661,1244.1858 111.76444,1245.8749 C 111.82485,1248.5892 114.47273,1250.3909 117.02367,1250.2629 C 120.91487,1250.0683 123.45915,1246.2529 123.19202,1242.5726 C 122.80124,1237.1875 117.4945,1233.7067 112.37379,1234.1737 C 105.13382,1234.834 100.49693,1242.0031 101.23615,1248.9175 M 115.39129,1244.7928 C 115.39092,1244.7939 115.39104,1244.7928 115.39129,1244.7928 C 115.40703,1244.7889 115.39665,1244.8017 115.39129,1244.7928 C 115.35822,1244.7384 115.28453,1244.7285 115.24816,1244.7625 C 115.12462,1244.8766 115.20272,1245.0744 115.31202,1245.1656 C 115.58868,1245.397 115.99267,1245.2203 116.17535,1244.9593 C 116.56185,1244.4068 116.21819,1243.6725 115.69693,1243.3539 C 114.72001,1242.7561 113.4961,1243.3571 112.98696,1244.282 C 112.1128,1245.8694 113.08666,1247.7804 114.59449,1248.5433 C 117.01699,1249.7688 119.85359,1248.2823 120.94304,1245.9723 C 122.6049,1242.4483 120.4385,1238.4062 117.06629,1236.9077 C 112.13263,1234.7145 106.49026,1237.7257 104.56071,1242.4922 C 101.87709,1249.1215 105.94274,1249.7472 101.23615,1248.9175"
           sodipodi:nodetypes="csssssssssssccsssssssssssc" />
        <path
           sodipodi:nodetypes="csssssssssssccsssssssssssc"
           d="M 108.58635,1230.0116 C 108.58598,1230.0124 108.58608,1230.0115 108.58635,1230.0116 C 108.59729,1230.0119 108.58159,1230.0167 108.58635,1230.0116 C 108.65026,1229.9441 108.57292,1229.9276 108.53266,1229.9468 C 108.42985,1229.9964 108.44886,1230.1437 108.50477,1230.2227 C 108.64617,1230.4225 108.94185,1230.3764 109.10676,1230.2366 C 109.45612,1229.941 109.35799,1229.4 109.07127,1229.1005 C 108.53377,1228.5391 107.62659,1228.7216 107.13219,1229.2398 C 106.28389,1230.1299 106.59163,1231.5527 107.44866,1232.3142 C 108.82569,1233.5382 110.9445,1233.0543 112.05939,1231.7274 C 113.76035,1229.7033 113.03933,1226.676 111.08666,1225.1086 C 108.22948,1222.8149 104.04771,1223.8445 101.91411,1226.6055 C 98.89751,1230.5092 100.31874,1236.126 104.09705,1238.9529 M 108.58635,1230.0116 C 108.58674,1230.0122 108.58624,1230.0117 108.58635,1230.0116 C 108.59169,1230.0019 108.59327,1230.013 108.58635,1230.0116 C 108.54402,1230.0028 108.50507,1230.035 108.50516,1230.0687 C 108.5048,1230.1828 108.6392,1230.2354 108.73503,1230.2232 C 108.97785,1230.1926 109.07669,1229.9101 109.03132,1229.6988 C 108.9353,1229.2514 108.41155,1229.083 108.01234,1229.1949 C 107.26391,1229.4043 106.99721,1230.2903 107.22167,1230.9706 C 107.60685,1232.1385 109.00664,1232.5373 110.08241,1232.1403 C 111.81073,1231.5024 112.38234,1229.4057 111.73746,1227.797 C 110.75365,1225.343 107.74365,1224.5523 105.4409,1225.5362 C 102.07151,1226.9752 100.96149,1231.1709 102.43924,1234.3321 C 104.49453,1238.7286 106.68384,1236.9968 104.09705,1238.9529"
           style="opacity:1;fill:#060e1a;fill-opacity:1;fill-rule:evenodd;stroke:none;stroke-width:1px;stroke-linecap:butt;stroke-linejoin:miter;stroke-opacity:1"
           id="path10007" />
      </g>
    </g>
    <path
       sodipodi:type="star"
       style="opacity:1;fill:#e7f1ff;fill-opacity:1;stroke:none;stroke-width:1;stroke-linejoin:round;stroke-miterlimit:4;stroke-dasharray:none;stroke-dashoffset:0;stroke-opacity:1"
       id="path3674"
       sodipodi:sides="5"
       sodipodi:cx="162.94955"
       sodipodi:cy="203.83304"
       sodipodi:r1="25.691782"
       sodipodi:r2="26.272663"
       sodipodi:arg1="0.48689923"
       sodipodi:arg2="-0.54381798"
       inkscape:flatsided="false"
       inkscape:rounded="1.88"
       inkscape:randomized="0"
       d="M 185.65564,215.85391 C 230.04118,234.53637 228.68309,169.06242 185.43211,190.23938 C 105.57307,229.34073 166.01559,140.53997 158.53359,229.14246 C 154.48141,277.12882 216.33116,255.60463 182.82538,221.01455 C 120.95999,157.14707 224.0923,187.19038 137.51425,207.45425 C 90.624323,218.42899 130.20767,270.60026 152.75094,228.04545 C 194.37506,149.47183 197.67181,256.84038 151.64563,180.76165 C 126.71825,139.55805 89.332353,193.32586 136.77063,201.61562 C 224.36115,216.92193 123.26635,253.23603 181.39865,185.95292 C 212.88261,149.51296 150.19351,130.57202 156.96871,178.25019 C 169.4785,266.28363 103.70173,181.35843 185.65564,215.85391 z"
       transform="matrix(1.3357528,0,0,1.3357528,1015.3766,1523.9618)" />
    <path
       sodipodi:nodetypes="csccsc"
       d="M 355.18161,-47.68625 C 365.85766,-8.7142536 389.752,21.968041 324.30392,77.665812 C 258.85586,133.36359 274.12404,228.4141 310.16512,267.26223 C 346.20619,306.11035 354.77883,299.98799 319.01965,260.47203 C 283.26044,220.9561 266.35924,134.17038 328.43009,80.511203 C 390.50092,26.852037 366.66586,-8.8173476 355.23651,-47.403257"
       style="opacity:0.17000002;fill:#e7f1ff;fill-opacity:1;fill-rule:evenodd;stroke:none;stroke-width:1px;stroke-linecap:butt;stroke-linejoin:miter;stroke-opacity:1;filter:url(#filter3466)"
       id="path3443"
       transform="matrix(4.2152272,0,0,4.2152272,322.65976,1119.4336)" />
    <path
       sodipodi:nodetypes="csccsc"
       d="M 348.37198,7.7413837 C 356.95697,39.080156 376.17126,63.752885 323.54212,108.54145 C 270.913,153.33002 283.19069,229.76353 312.17261,261.0027 C 341.15452,292.24186 348.04809,287.31865 319.29285,255.54246 C 290.5376,223.76629 276.94674,153.97879 326.86012,110.82953 C 376.77349,67.68028 357.60687,38.997255 348.41612,7.9689477"
       style="opacity:0.85;fill:#e7f1ff;fill-opacity:1;fill-rule:evenodd;stroke:none;stroke-width:1px;stroke-linecap:butt;stroke-linejoin:miter;stroke-opacity:1;filter:url(#filter3387)"
       id="path3385"
       transform="matrix(4.2152272,0,0,4.2152272,322.65976,1119.4336)" />
    <path
       id="path2454"
       style="opacity:1;fill:#e7f1ff;fill-opacity:1;fill-rule:evenodd;stroke:none;stroke-width:1px;stroke-linecap:butt;stroke-linejoin:miter;stroke-opacity:1"
       d="M 1438.0449,1907.9716 C 1438.0574,1907.9866 1438.0438,1907.9742 1438.0449,1907.9716 C 1438.1521,1907.7389 1438.1091,1908.1209 1438.0449,1907.9716 C 1437.192,1905.9907 1436.1293,1907.4897 1436.175,1908.5244 C 1436.2918,1911.1713 1439.6074,1912.1104 1441.801,1911.6398 C 1447.3538,1910.4483 1449.0758,1903.7204 1447.6038,1898.9227 C 1444.4892,1888.7719 1432.0475,1885.924 1423.0379,1889.3058 C 1406.1535,1895.6434 1401.7599,1916.6609 1408.3036,1931.9393 C 1419.5374,1958.1687 1452.6985,1964.5988 1476.7771,1953.2724 C 1515.4615,1935.0752 1524.4924,1885.458 1506.3709,1849.552 C 1478.7292,1794.7821 1407.5647,1782.5105 1356.2864,1809.85 C 1281.262,1849.8505 1265.0318,1948.4624 1304.4424,2019.1946 C 1360.1631,2119.1997 1492.9612,2140.1863 1587.7841,2085.406 M 1438.0449,1907.9716 C 1438.064,1907.9676 1438.0465,1907.974 1438.0449,1907.9716 C 1437.8901,1907.7675 1438.1373,1907.8382 1438.0449,1907.9716 C 1437.4745,1908.794 1437.8044,1909.9166 1438.5208,1910.2256 C 1440.9537,1911.2748 1443.301,1908.888 1443.9195,1906.7313 C 1445.4851,1901.2723 1440.3625,1896.5831 1435.4373,1895.6207 C 1425.0165,1893.5848 1416.6417,1903.2165 1415.3792,1912.7569 C 1413.0132,1930.6356 1429.4804,1944.4146 1446.04,1945.8423 C 1474.4685,1948.2935 1495.7655,1922.0746 1497.1216,1895.4995 C 1499.2998,1852.8044 1459.7918,1821.4586 1419.5828,1820.523 C 1358.2497,1819.0955 1313.8923,1876.0814 1313.8437,1934.1927 C 1313.7723,2019.2143 1393.1329,2081.2166 1474.0603,2078.5654 C 1586.6212,2074.8784 1569.6813,2012.3583 1587.7841,2085.406"
       sodipodi:nodetypes="csssssssssssccsssssssssssc" />
    <path
       sodipodi:nodetypes="csssssssssssccsssssssssssc"
       d="M 1212.9331,1988.2044 C 1212.9423,1988.2044 1212.9336,1988.2033 1212.9331,1988.2044 C 1212.8801,1988.3146 1213.0074,1988.1829 1212.9331,1988.2044 C 1211.9456,1988.4932 1212.1735,1987.647 1212.5677,1987.3492 C 1213.5762,1986.5873 1214.9295,1987.5206 1215.4234,1988.4698 C 1216.6736,1990.8732 1214.7242,1993.5514 1212.5132,1994.4691 C 1207.8352,1996.4106 1203.0056,1992.7032 1201.5096,1988.3634 C 1198.7058,1980.2304 1205.0952,1972.2256 1212.7006,1969.9857 C 1225.757,1966.1403 1238.2024,1976.3743 1241.3598,1988.6685 C 1246.4323,2008.4198 1230.9404,2026.8245 1212.2332,2031.0798 C 1183.6977,2037.5716 1157.5511,2015.1446 1152.0101,1987.9848 C 1143.9032,1948.2472 1175.215,1912.3007 1213.1957,1905.2817 C 1266.8949,1895.3586 1314.9832,1937.7898 1323.6767,1989.2982 M 1212.9331,1988.2044 C 1212.9374,1988.2128 1212.9344,1988.2044 1212.9331,1988.2044 C 1212.811,1988.2097 1212.9121,1988.279 1212.9331,1988.2044 C 1213.0619,1987.7449 1213.5749,1987.5247 1213.9062,1987.6941 C 1215.0315,1988.2692 1214.8679,1989.858 1214.2633,1990.7409 C 1212.7326,1992.9759 1209.4517,1992.5189 1207.6005,1991.0012 C 1203.684,1987.7898 1204.6781,1981.7833 1207.8009,1978.4185 C 1213.6532,1972.1131 1223.7244,1973.9768 1229.2838,1979.6294 C 1238.8277,1989.3335 1235.6656,2005.1327 1226.3097,2013.7109 C 1211.2787,2027.492 1187.7456,2022.5001 1175.177,2008.0055 C 1156.0052,1985.8953 1163.4655,1952.2659 1184.8102,1934.5804 C 1216.0396,1908.7053 1262.9573,1919.0249 1286.5872,1949.577 C 1319.4537,1992.0716 1291.3233,2004.853 1323.6767,1989.2982"
       style="opacity:1;fill:#e7f1ff;fill-opacity:1;fill-rule:evenodd;stroke:none;stroke-width:1px;stroke-linecap:butt;stroke-linejoin:miter;stroke-opacity:1"
       id="path3257" />
    <path
       id="path3373"
       style="opacity:1;fill:#e7f1ff;fill-opacity:1;fill-rule:evenodd;stroke:none;stroke-width:1px;stroke-linecap:butt;stroke-linejoin:miter;stroke-opacity:1"
       d="M 1520.8972,2157.5078 C 1520.898,2157.5023 1520.8966,2157.5074 1520.8972,2157.5078 C 1520.9595,2157.548 1520.8898,2157.4615 1520.8972,2157.5078 C 1520.9959,2158.1229 1520.5048,2157.922 1520.3558,2157.6622 C 1519.9746,2156.999 1520.6379,2156.2568 1521.2457,2156.0319 C 1522.784,2155.463 1524.2453,2156.8373 1524.629,2158.235 C 1525.4405,2161.1924 1522.8473,2163.8127 1520.1268,2164.3824 C 1515.0283,2165.4503 1510.7039,2161.0047 1509.935,2156.2663 C 1508.6147,2148.1311 1515.7063,2141.4303 1523.3313,2140.4658 C 1535.5815,2138.916 1545.4634,2149.6181 1546.6015,2161.179 C 1548.3377,2178.8137 1532.8826,2192.821 1516.1462,2194.0903 C 1491.6594,2195.9477 1472.4389,2174.4117 1471.1019,2151.0627 C 1469.212,2118.0511 1498.3484,2092.3795 1529.9509,2091.0621 M 1520.8972,2157.5078 C 1520.9027,2157.5058 1520.8974,2157.507 1520.8972,2157.5078 C 1520.8912,2157.5817 1520.9406,2157.5262 1520.8972,2157.5078 C 1520.6311,2157.3955 1520.5377,2157.0708 1520.6645,2156.8844 C 1521.0955,2156.2521 1522.0373,2156.471 1522.522,2156.9009 C 1523.7486,2157.9901 1523.2253,2159.9263 1522.1731,2160.9232 C 1519.947,2163.0327 1516.4139,2161.9802 1514.6294,2159.849 C 1511.2852,2155.8552 1513.1683,2149.9462 1516.9857,2147.035 C 1523.5389,2142.0375 1532.7906,2145.135 1537.2345,2151.4059 C 1544.3737,2161.4804 1539.5907,2175.2394 1529.9301,2181.6908 C 1515.194,2191.5318 1495.5567,2184.5004 1486.5508,2170.3366 C 1473.3741,2149.614 1483.1309,2122.2109 1503.2765,2110.3317 C 1531.2968,2093.8093 1536.8422,2111.6776 1529.9509,2091.0621"
       sodipodi:nodetypes="csssssssssssccsssssssssssc" />
    <path
       style="opacity:1;fill:#e7f1ff;fill-opacity:1;stroke:none;stroke-width:1;stroke-linejoin:round;stroke-miterlimit:4;stroke-dasharray:none;stroke-dashoffset:0;stroke-opacity:1"
       d="M 1686.5686,1761.8788 C 1668.6914,1761.8788 1654.1756,1776.3789 1654.1756,1794.256 C 1654.1756,1812.1331 1668.6914,1826.6489 1686.5686,1826.6489 C 1704.4457,1826.6489 1718.9615,1812.1331 1718.9615,1794.256 C 1718.9615,1776.3789 1704.4457,1761.8788 1686.5686,1761.8788 z M 1686.5686,1770.6399 C 1699.604,1770.6399 1710.1845,1781.2206 1710.1845,1794.256 C 1710.1845,1807.2914 1699.604,1817.8717 1686.5686,1817.8717 C 1673.5331,1817.8717 1662.9526,1807.2914 1662.9526,1794.256 C 1662.9526,1781.2206 1673.5331,1770.6399 1686.5686,1770.6399 z"
       id="path3294" />
    <path
       id="path3296"
       d="M 1686.5686,1779.084 C 1678.1889,1779.084 1671.3849,1785.8804 1671.3849,1794.2601 C 1671.3849,1802.64 1678.1889,1809.4438 1686.5686,1809.4438 C 1694.9481,1809.4438 1701.7523,1802.64 1701.7523,1794.2601 C 1701.7523,1785.8804 1694.9481,1779.084 1686.5686,1779.084 z M 1686.5686,1783.1904 C 1692.6786,1783.1904 1697.6382,1788.1503 1697.6382,1794.2601 C 1697.6382,1800.3701 1692.6786,1805.3297 1686.5686,1805.3297 C 1680.4584,1805.3297 1675.4989,1800.3701 1675.4989,1794.2601 C 1675.4989,1788.1503 1680.4584,1783.1904 1686.5686,1783.1904 z"
       style="opacity:1;fill:#e7f1ff;fill-opacity:1;stroke:none;stroke-width:1;stroke-linejoin:round;stroke-miterlimit:4;stroke-dasharray:none;stroke-dashoffset:0;stroke-opacity:1" />
    <path
       style="opacity:1;fill:#e7f1ff;fill-opacity:1;stroke:none;stroke-width:1;stroke-linejoin:round;stroke-miterlimit:4;stroke-dasharray:none;stroke-dashoffset:0;stroke-opacity:1"
       d="M 1788.8877,1696.1542 C 1774.1184,1696.1542 1762.1262,1708.1334 1762.1262,1722.9027 C 1762.1262,1737.6718 1774.1184,1749.664 1788.8877,1749.664 C 1803.6568,1749.664 1815.6492,1737.6718 1815.6492,1722.9027 C 1815.6492,1708.1334 1803.6568,1696.1542 1788.8877,1696.1542 z M 1788.8877,1703.3923 C 1799.657,1703.3923 1808.398,1712.1335 1808.398,1722.9027 C 1808.398,1733.6718 1799.657,1742.4129 1788.8877,1742.4129 C 1778.1185,1742.4129 1769.3773,1733.6718 1769.3773,1722.9027 C 1769.3773,1712.1335 1778.1185,1703.3923 1788.8877,1703.3923 z"
       id="path3300" />
    <path
       id="path3302"
       d="M 1788.8877,1710.3683 C 1781.9649,1710.3683 1776.3436,1715.9831 1776.3436,1722.906 C 1776.3436,1729.8289 1781.9649,1735.45 1788.8877,1735.45 C 1795.8106,1735.45 1801.4317,1729.8289 1801.4317,1722.906 C 1801.4317,1715.9831 1795.8106,1710.3683 1788.8877,1710.3683 z M 1788.8877,1713.7609 C 1793.9357,1713.7609 1798.0328,1717.8583 1798.0328,1722.906 C 1798.0328,1727.954 1793.9357,1732.0513 1788.8877,1732.0513 C 1783.8398,1732.0513 1779.7424,1727.954 1779.7424,1722.906 C 1779.7424,1717.8583 1783.8398,1713.7609 1788.8877,1713.7609 z"
       style="opacity:1;fill:#e7f1ff;fill-opacity:1;stroke:none;stroke-width:1;stroke-linejoin:round;stroke-miterlimit:4;stroke-dasharray:none;stroke-dashoffset:0;stroke-opacity:1" />
    <g
       id="g3280"
       transform="matrix(1.6905395,0,0,1.6905395,1628.939,1515.877)"
       style="opacity:1;fill:#e7f1ff">
      <path
         id="path3282"
         d="M 126.21875,144.40625 C 90.82931,144.40625 62.09375,173.11056 62.09375,208.5 C 62.09375,243.88944 90.82931,272.62499 126.21875,272.625 C 161.60819,272.625 190.34374,243.88944 190.34375,208.5 C 190.34375,173.11056 161.60819,144.40626 126.21875,144.40625 z M 126.21875,161.75 C 152.02355,161.75 172.96875,182.6952 172.96875,208.5 C 172.96875,234.30481 152.02355,255.25 126.21875,255.25 C 100.41395,255.25 79.46875,234.3048 79.46875,208.5 C 79.46875,182.6952 100.41395,161.75 126.21875,161.75 z"
         style="opacity:1;fill:#e7f1ff;fill-opacity:1;stroke:none;stroke-width:1;stroke-linejoin:round;stroke-miterlimit:4;stroke-dasharray:none;stroke-dashoffset:0;stroke-opacity:1" />
      <path
         style="opacity:1;fill:#e7f1ff;fill-opacity:1;stroke:none;stroke-width:1;stroke-linejoin:round;stroke-miterlimit:4;stroke-dasharray:none;stroke-dashoffset:0;stroke-opacity:1"
         d="M 126.21875,178.46538 C 109.63052,178.46538 96.161181,191.92007 96.161181,208.5083 C 96.161181,225.09654 109.63052,238.56587 126.21875,238.56587 C 142.80698,238.56587 156.27631,225.09654 156.27632,208.5083 C 156.27632,191.92007 142.80698,178.46538 126.21875,178.46538 z M 126.21875,186.59499 C 138.31434,186.59499 148.13207,196.41271 148.13207,208.5083 C 148.13207,220.60389 138.31434,230.42162 126.21875,230.42162 C 114.12316,230.42162 104.30543,220.60389 104.30543,208.5083 C 104.30543,196.41271 114.12316,186.59499 126.21875,186.59499 z"
         id="path3284" />
    </g>
    <path
       sodipodi:type="arc"
       style="opacity:1;fill:#e7f1ff;fill-opacity:1;stroke:none;stroke-width:1;stroke-linejoin:round;stroke-miterlimit:4;stroke-dasharray:none;stroke-dashoffset:0;stroke-opacity:1"
       id="path3308"
       sodipodi:cx="171.6313"
       sodipodi:cy="207.84"
       sodipodi:rx="40.069565"
       sodipodi:ry="40.069565"
       d="M 211.70087,207.84 A 40.069565,40.069565 0 1 1 131.56174,207.84 A 40.069565,40.069565 0 1 1 211.70087,207.84 z"
       transform="matrix(1.2645682,0,0,1.2645682,1625.2773,1605.5532)" />
    <g
       transform="matrix(0.3150113,0,0,0.3150113,1843.8018,1657.1801)"
       id="g3318"
       style="opacity:1;fill:#e7f1ff">
      <path
         style="opacity:1;fill:#e7f1ff;fill-opacity:1;stroke:none;stroke-width:1;stroke-linejoin:round;stroke-miterlimit:4;stroke-dasharray:none;stroke-dashoffset:0;stroke-opacity:1"
         d="M 126.21875,144.40625 C 90.82931,144.40625 62.09375,173.11056 62.09375,208.5 C 62.09375,243.88944 90.82931,272.62499 126.21875,272.625 C 161.60819,272.625 190.34374,243.88944 190.34375,208.5 C 190.34375,173.11056 161.60819,144.40626 126.21875,144.40625 z M 126.21875,161.75 C 152.02355,161.75 172.96875,182.6952 172.96875,208.5 C 172.96875,234.30481 152.02355,255.25 126.21875,255.25 C 100.41395,255.25 79.46875,234.3048 79.46875,208.5 C 79.46875,182.6952 100.41395,161.75 126.21875,161.75 z"
         id="path3320" />
      <path
         id="path3322"
         d="M 126.21875,178.46538 C 109.63052,178.46538 96.161181,191.92007 96.161181,208.5083 C 96.161181,225.09654 109.63052,238.56587 126.21875,238.56587 C 142.80698,238.56587 156.27631,225.09654 156.27632,208.5083 C 156.27632,191.92007 142.80698,178.46538 126.21875,178.46538 z M 126.21875,186.59499 C 138.31434,186.59499 148.13207,196.41271 148.13207,208.5083 C 148.13207,220.60389 138.31434,230.42162 126.21875,230.42162 C 114.12316,230.42162 104.30543,220.60389 104.30543,208.5083 C 104.30543,196.41271 114.12316,186.59499 126.21875,186.59499 z"
         style="opacity:1;fill:#e7f1ff;fill-opacity:1;stroke:none;stroke-width:1;stroke-linejoin:round;stroke-miterlimit:4;stroke-dasharray:none;stroke-dashoffset:0;stroke-opacity:1" />
    </g>
    <path
       transform="matrix(0.2356367,0,0,0.2356367,1843.1195,1673.89)"
       d="M 211.70087,207.84 A 40.069565,40.069565 0 1 1 131.56174,207.84 A 40.069565,40.069565 0 1 1 211.70087,207.84 z"
       sodipodi:ry="40.069565"
       sodipodi:rx="40.069565"
       sodipodi:cy="207.84"
       sodipodi:cx="171.6313"
       id="path3324"
       style="opacity:1;fill:#e7f1ff;fill-opacity:1;stroke:none;stroke-width:1;stroke-linejoin:round;stroke-miterlimit:4;stroke-dasharray:none;stroke-dashoffset:0;stroke-opacity:1"
       sodipodi:type="arc" />
    <path
       sodipodi:type="star"
       style="opacity:1;fill:#e7f1ff;fill-opacity:1;stroke:none;stroke-width:1;stroke-linejoin:round;stroke-miterlimit:4;stroke-dasharray:none;stroke-dashoffset:0;stroke-opacity:1"
       id="path11209"
       sodipodi:sides="5"
       sodipodi:cx="162.94955"
       sodipodi:cy="203.83304"
       sodipodi:r1="25.691782"
       sodipodi:r2="26.272663"
       sodipodi:arg1="0.48689923"
       sodipodi:arg2="-0.54381798"
       inkscape:flatsided="false"
       inkscape:rounded="1.88"
       inkscape:randomized="0"
       d="M 185.65564,215.85391 C 230.04118,234.53637 228.68309,169.06242 185.43211,190.23938 C 105.57307,229.34073 166.01559,140.53997 158.53359,229.14246 C 154.48141,277.12882 216.33116,255.60463 182.82538,221.01455 C 120.95999,157.14707 224.0923,187.19038 137.51425,207.45425 C 90.624323,218.42899 130.20767,270.60026 152.75094,228.04545 C 194.37506,149.47183 197.67181,256.84038 151.64563,180.76165 C 126.71825,139.55805 89.332353,193.32586 136.77063,201.61562 C 224.36115,216.92193 123.26635,253.23603 181.39865,185.95292 C 212.88261,149.51296 150.19351,130.57202 156.96871,178.25019 C 169.4785,266.28363 103.70173,181.35843 185.65564,215.85391 z"
       transform="matrix(1.5456805,0,0,1.5456805,1385.0808,1089.0293)" />
    <path
       transform="matrix(0.8019923,0,0,0.8019923,1577.7561,1504.879)"
       d="M 185.65564,215.85391 C 230.04118,234.53637 228.68309,169.06242 185.43211,190.23938 C 105.57307,229.34073 166.01559,140.53997 158.53359,229.14246 C 154.48141,277.12882 216.33116,255.60463 182.82538,221.01455 C 120.95999,157.14707 224.0923,187.19038 137.51425,207.45425 C 90.624323,218.42899 130.20767,270.60026 152.75094,228.04545 C 194.37506,149.47183 197.67181,256.84038 151.64563,180.76165 C 126.71825,139.55805 89.332353,193.32586 136.77063,201.61562 C 224.36115,216.92193 123.26635,253.23603 181.39865,185.95292 C 212.88261,149.51296 150.19351,130.57202 156.96871,178.25019 C 169.4785,266.28363 103.70173,181.35843 185.65564,215.85391 z"
       inkscape:randomized="0"
       inkscape:rounded="1.88"
       inkscape:flatsided="false"
       sodipodi:arg2="-0.54381798"
       sodipodi:arg1="0.48689923"
       sodipodi:r2="26.272663"
       sodipodi:r1="25.691782"
       sodipodi:cy="203.83304"
       sodipodi:cx="162.94955"
       sodipodi:sides="5"
       id="path11211"
       style="opacity:1;fill:#e7f1ff;fill-opacity:1;stroke:none;stroke-width:1;stroke-linejoin:round;stroke-miterlimit:4;stroke-dasharray:none;stroke-dashoffset:0;stroke-opacity:1"
       sodipodi:type="star" />
    <path
       style="opacity:0.85;fill:#e7f1ff;fill-opacity:1;fill-rule:evenodd;stroke:none;stroke-width:1px;stroke-linecap:butt;stroke-linejoin:miter;stroke-opacity:1"
       d="M 1723.125 328.90625 L 1723.3125 329.875 C 1723.6586 331.0436 1724.0224 332.20792 1724.375 333.375 C 1723.9555 331.89054 1723.5336 330.39771 1723.125 328.90625 z M 1724.375 333.375 C 1761.1105 463.37045 1837.8073 567.14996 1618.4688 753.8125 C 1599.5189 769.93928 1582.5835 787.03422 1567.5 804.90625 C 1552.6644 767.01018 1512.9306 739.98304 1471.3125 750.15625 C 1459.357 753.07855 1448.3693 759.32903 1439.6875 767.75 C 1426.1192 769.15926 1412.0026 760.02502 1410.5625 745.75 C 1409.5588 735.8012 1416.163 725.29245 1426.6875 724.46875 C 1433.5872 723.92845 1440.8794 728.59049 1441.25 735.9375 C 1441.4807 740.5101 1438.2842 745.36219 1433.375 745.4375 C 1430.5152 745.4817 1427.4688 743.41451 1427.5625 740.3125 C 1427.6125 738.6574 1428.868 736.86433 1430.6875 737.03125 C 1431.5475 737.11025 1432.5164 737.81966 1432.3438 738.78125 C 1432.2925 739.06625 1432.0694 739.38246 1431.7812 739.46875 L 1431.75 739.46875 C 1431.6622 739.48979 1431.5663 739.49964 1431.4688 739.46875 C 1431.3408 739.42845 1431.2917 739.24433 1431.375 739.09375 C 1431.1945 738.76943 1431.0368 739.04245 1431.0625 739.21875 C 1431.1286 739.66977 1431.6954 739.77515 1432.0625 739.65625 C 1432.9925 739.35563 1433.1792 738.1706 1432.8438 737.375 C 1432.1339 735.69161 1429.9518 735.42005 1428.4688 736.15625 C 1425.6886 737.53512 1425.3013 741.21715 1426.6875 743.71875 C 1429.0674 748.01348 1434.8564 748.5459 1438.7812 746.1875 C 1445.0866 742.39847 1445.7589 733.73745 1442.0312 727.90625 C 1438.4775 722.34717 1432.3148 719.92344 1426.1562 720.25 C 1422.4612 720.44594 1418.7698 721.62873 1415.6562 723.71875 C 1403.5095 731.87304 1402.459 749.04665 1410.4375 760.46875 C 1416.1484 768.64456 1424.8728 773.0203 1434.0938 773.90625 C 1422.7609 787.95664 1417.296 806.30767 1422.25 825.0625 C 1428.411 848.3868 1452.2463 866.55501 1476.7188 859.5 C 1492.7622 854.8749 1505.293 838.12908 1499.9062 821.21875 C 1496.5534 810.69285 1485.2475 802.41796 1474.0938 806.40625 C 1467.5965 808.72945 1462.4418 816.00992 1465.2812 822.9375 C 1466.7963 826.6342 1471.1879 829.60599 1475.1562 827.6875 C 1477.0317 826.7805 1478.5805 824.33881 1477.375 822.3125 C 1476.899 821.5121 1475.682 820.7881 1474.8438 821.5 C 1474.5159 821.7782 1474.3439 822.51855 1475.1875 822.21875 C 1475.2766 821.81285 1475.7352 821.58815 1476.0312 821.71875 C 1477.0374 822.16287 1476.9501 823.54645 1476.4688 824.34375 C 1475.2496 826.36165 1472.4023 826.13335 1470.7188 824.90625 C 1467.1565 822.31004 1467.7035 817.04725 1470.25 813.96875 C 1475.0225 808.20015 1483.8578 809.33285 1488.9688 813.96875 C 1497.7425 821.92727 1495.7976 835.80165 1488.0938 843.71875 C 1475.717 856.43817 1455.0143 853.25245 1443.375 841.28125 C 1425.6208 823.02085 1430.424 793.45625 1448.0938 777.03125 C 1473.9455 753.00053 1515.2352 759.6255 1537.2812 785 C 1552.2178 802.19156 1554.239 813.92934 1555.5312 819.75 C 1524.7862 859.69153 1502.7947 903.04781 1488.25 947.71875 C 1249.8672 894.53746 1352.7312 709.57554 1253.125 596.375 L 1252.875 596.5625 C 1353.1297 710.50023 1239.6997 909.59784 1484.0312 961.53125 C 1456.9167 1055.0143 1461.4017 1153.2454 1485.6562 1237.25 C 1471.0877 1244.8316 1447.2711 1254.0566 1406.0625 1255.4062 C 1339.0445 1257.6018 1273.0857 1215.4628 1252.4375 1152.625 C 1252.3627 1152.3973 1252.2924 1152.1657 1252.2188 1151.9375 C 1248.0752 1139.0929 1245.8317 1125.3893 1245.8438 1111.0312 C 1245.8924 1052.9199 1290.2601 995.94747 1351.5938 997.375 C 1391.8028 998.3106 1431.3032 1029.6481 1429.125 1072.3438 C 1427.7689 1098.9189 1406.4603 1125.1386 1378.0312 1122.6875 C 1361.4716 1121.2598 1345.0091 1107.4724 1347.375 1089.5938 C 1348.6375 1080.0533 1357.0168 1070.4323 1367.4375 1072.4688 C 1372.3627 1073.4312 1377.4724 1078.1035 1375.9062 1083.5625 C 1375.2877 1085.7192 1372.9642 1088.1118 1370.5312 1087.0625 C 1369.8148 1086.7535 1369.4614 1085.6349 1370.0312 1084.8125 C 1370.1006 1084.7124 1369.9999 1084.6582 1370 1084.7188 C 1369.1555 1082.8967 1368.1426 1084.3591 1368.1875 1085.375 C 1368.3043 1088.0219 1371.6189 1088.9389 1373.8125 1088.4688 C 1379.3653 1087.2772 1381.0657 1080.5796 1379.5938 1075.7812 C 1376.4792 1065.6305 1364.0412 1062.7749 1355.0312 1066.1562 C 1338.1468 1072.4939 1333.7688 1093.5035 1340.3125 1108.7812 C 1351.5463 1135.0107 1384.7032 1141.4514 1408.7812 1130.125 C 1447.4657 1111.9278 1456.4965 1062.3128 1438.375 1026.4062 C 1410.7334 971.63639 1339.5601 959.348 1288.2812 986.6875 C 1244.2129 1010.1833 1220.4491 1053.9008 1216.3125 1100.3125 C 1196.6383 1085.0226 1171.5901 1077.2461 1145.1875 1082.125 C 1107.2068 1089.144 1075.8931 1125.1061 1084 1164.8438 C 1089.541 1192.0035 1115.6833 1214.4293 1144.2188 1207.9375 C 1162.926 1203.6822 1178.4474 1185.2513 1173.375 1165.5 C 1170.2176 1153.2058 1157.7439 1142.9984 1144.6875 1146.8438 C 1137.0821 1149.0837 1130.6962 1157.0858 1133.5 1165.2188 C 1134.996 1169.5585 1139.822 1173.254 1144.5 1171.3125 C 1146.711 1170.3948 1148.6876 1167.7159 1147.4375 1165.3125 C 1146.9436 1164.3633 1145.571 1163.4256 1144.5625 1164.1875 C 1144.1781 1164.4779 1143.97 1165.2903 1144.875 1165.0625 C 1144.8876 1165.0712 1144.927 1165.0998 1144.9375 1165.0625 C 1145.0663 1164.603 1145.575 1164.3618 1145.9062 1164.5312 C 1147.0315 1165.1064 1146.8546 1166.7108 1146.25 1167.5938 C 1144.7193 1169.8287 1141.445 1169.3614 1139.5938 1167.8438 C 1135.6773 1164.6324 1136.6897 1158.6148 1139.8125 1155.25 C 1145.6648 1148.9446 1155.7219 1150.8161 1161.2812 1156.4688 C 1170.8251 1166.1729 1167.6684 1181.9843 1158.3125 1190.5625 C 1143.2815 1204.3436 1119.7561 1199.3383 1107.1875 1184.8438 C 1088.0157 1162.7336 1095.4678 1129.123 1116.8125 1111.4375 C 1146.8743 1086.5298 1191.4735 1095.1617 1215.8438 1123.0938 C 1217.0509 1148.3712 1223.9407 1173.6027 1236.4375 1196.0312 C 1287.9383 1288.4625 1405.2769 1313.3822 1497.625 1273.375 C 1516.0193 1322.3796 1541.2439 1364.8992 1570.5312 1396.4688 C 1692.6966 1528.1489 1721.7723 1507.3817 1600.5625 1373.4375 C 1479.3526 1239.4937 1422.0413 945.3215 1632.4375 763.4375 C 1647.2393 750.64159 1660.5893 738.15434 1672.625 725.9375 C 1692.4497 763.78561 1738.5575 786.33158 1779.6562 768.34375 C 1790.9385 763.40569 1800.6786 755.36052 1807.7812 745.5625 C 1820.9042 741.8438 1836.3768 748.40579 1840.25 762.21875 C 1842.9494 771.84695 1838.2575 783.34724 1828.0312 785.96875 C 1821.3273 787.68745 1813.3161 784.33018 1811.6875 777.15625 C 1810.6738 772.69125 1812.9893 767.35632 1817.8125 766.4375 C 1820.6221 765.9024 1823.9965 767.4283 1824.4375 770.5 C 1824.6729 772.1391 1823.7274 774.13294 1821.9062 774.28125 C 1821.0456 774.35125 1819.9951 773.7896 1820 772.8125 C 1820.0019 772.4265 1820.2668 771.93952 1820.7188 772 C 1820.8519 772.0177 1820.9624 772.18094 1820.9062 772.34375 C 1821.1397 772.63214 1821.2434 772.32535 1821.1875 772.15625 C 1821.0449 771.72302 1820.4664 771.72595 1820.125 771.90625 C 1819.2608 772.36257 1819.2825 773.55525 1819.75 774.28125 C 1820.7386 775.81787 1822.9151 775.7302 1824.25 774.75 C 1826.7517 772.91363 1826.5145 769.2259 1824.7188 767 C 1821.6358 763.17858 1815.8357 763.65795 1812.375 766.65625 C 1806.815 771.47283 1807.6379 780.11555 1812.3125 785.21875 C 1819.4433 793.00302 1831.8114 791.69925 1839.0312 784.78125 C 1849.5948 774.65973 1847.6674 757.5676 1837.8438 747.6875 C 1830.8106 740.61414 1821.4562 737.84802 1812.2188 738.5625 C 1820.971 722.76758 1823.202 703.7555 1815.0938 686.125 C 1805.0135 664.2077 1778.4259 650.37272 1755.5312 661.53125 C 1740.5221 668.84615 1731.0355 687.51801 1739.25 703.25 C 1744.3629 713.0422 1756.9483 719.25323 1767.25 713.40625 C 1773.2509 710.00025 1777.0509 701.96108 1773.0625 695.625 C 1770.9343 692.244 1766.1111 690.05241 1762.5312 692.625 C 1760.8397 693.8407 1759.7142 696.49223 1761.25 698.28125 C 1761.8569 698.98785 1763.2032 699.50187 1763.9062 698.65625 C 1764.1788 698.32886 1764.1948 697.55489 1763.4375 697.96875 C 1763.4349 697.96704 1763.4414 697.99545 1763.4375 698 C 1763.4195 698.415 1763.0331 698.7026 1762.7188 698.625 C 1761.651 698.36042 1761.4752 696.9933 1761.8125 696.125 C 1762.6663 693.92761 1765.5371 693.67445 1767.4062 694.59375 C 1771.3619 696.53858 1771.6975 701.81095 1769.7188 705.28125 C 1766.0094 711.78465 1757.1134 712.21905 1751.2812 708.53125 C 1741.2695 702.20005 1740.8039 688.1866 1747.0312 679.0625 C 1757.0365 664.40409 1777.9755 663.9586 1791.5 673.75 C 1812.1299 688.68552 1812.4568 718.6562 1797.875 737.875 C 1776.5406 765.99331 1734.7383 766.54915 1708.6562 745.34375 C 1690.254 730.38171 1686.6791 718.79774 1684.4375 713.5625 C 1729.2028 665.25427 1753.2405 621.29914 1764.0625 580.0625 C 1845.7389 559.65067 1807.8374 481.53254 1841.375 436.8125 L 1841.2812 436.75 C 1808.3777 480.62418 1841.4905 551.94035 1765.5938 573.84375 C 1785.7938 486.81682 1748.0585 411.76067 1724.375 333.375 z M 1370.0312 1084.8125 C 1370.0633 1084.8871 1370.0878 1084.8296 1370.0938 1084.7812 C 1370.0834 1084.7892 1370.0519 1084.7689 1370.0312 1084.8125 z "
       transform="translate(67.999994,823.15657)"
       id="path11213" />
    <path
       sodipodi:type="star"
       style="opacity:1;fill:#e7f1ff;fill-opacity:1;stroke:none;stroke-width:1;stroke-linejoin:round;stroke-miterlimit:4;stroke-dasharray:none;stroke-dashoffset:0;stroke-opacity:1"
       id="path3375"
       sodipodi:sides="5"
       sodipodi:cx="162.94955"
       sodipodi:cy="203.83304"
       sodipodi:r1="25.691782"
       sodipodi:r2="26.272663"
       sodipodi:arg1="0.48689923"
       sodipodi:arg2="-0.54381798"
       inkscape:flatsided="false"
       inkscape:rounded="1.88"
       inkscape:randomized="0"
       d="M 185.65564,215.85391 C 230.04118,234.53637 228.68309,169.06242 185.43211,190.23938 C 105.57307,229.34073 166.01559,140.53997 158.53359,229.14246 C 154.48141,277.12882 216.33116,255.60463 182.82538,221.01455 C 120.95999,157.14707 224.0923,187.19038 137.51425,207.45425 C 90.624323,218.42899 130.20767,270.60026 152.75094,228.04545 C 194.37506,149.47183 197.67181,256.84038 151.64563,180.76165 C 126.71825,139.55805 89.332353,193.32586 136.77063,201.61562 C 224.36115,216.92193 123.26635,253.23603 181.39865,185.95292 C 212.88261,149.51296 150.19351,130.57202 156.96871,178.25019 C 169.4785,266.28363 103.70173,181.35843 185.65564,215.85391 z"
       transform="matrix(0.3349984,0,0,0.3349984,1406.6615,1544.5903)" />
    <path
       id="path3447"
       style="opacity:0.17000002;fill:#e7f1ff;fill-opacity:1;fill-rule:evenodd;stroke:none;stroke-width:1px;stroke-linecap:butt;stroke-linejoin:miter;stroke-opacity:1;filter:url(#filter3474)"
       d="M 373.82647,9.1947481 C 321.49122,-12.306164 230.30772,63.25072 334.00723,218.82243 C 348.43662,241.37427 321.1875,232.13552 328.69961,231.38685 C 223.11475,58.84704 320.96767,-14.683318 373.56705,9.1947481"
       sodipodi:nodetypes="cccc"
       transform="matrix(4.2152272,0,0,4.2152272,322.65976,1119.4336)" />
    <g
       id="g3270"
       transform="matrix(4.5225973,0,0,4.5225973,1384.5394,1238.3198)"
       style="opacity:1;fill:#e7f1ff">
      <path
         id="path3263"
         d="M 126.21875,144.40625 C 90.82931,144.40625 62.09375,173.11056 62.09375,208.5 C 62.09375,243.88944 90.82931,272.62499 126.21875,272.625 C 161.60819,272.625 190.34374,243.88944 190.34375,208.5 C 190.34375,173.11056 161.60819,144.40626 126.21875,144.40625 z M 126.21875,161.75 C 152.02355,161.75 172.96875,182.6952 172.96875,208.5 C 172.96875,234.30481 152.02355,255.25 126.21875,255.25 C 100.41395,255.25 79.46875,234.3048 79.46875,208.5 C 79.46875,182.6952 100.41395,161.75 126.21875,161.75 z"
         style="opacity:1;fill:#e7f1ff;fill-opacity:1;stroke:none;stroke-width:1;stroke-linejoin:round;stroke-miterlimit:4;stroke-dasharray:none;stroke-dashoffset:0;stroke-opacity:1" />
      <path
         style="opacity:1;fill:#e7f1ff;fill-opacity:1;stroke:none;stroke-width:1;stroke-linejoin:round;stroke-miterlimit:4;stroke-dasharray:none;stroke-dashoffset:0;stroke-opacity:1"
         d="M 126.21875,178.46538 C 109.63052,178.46538 96.161181,191.92007 96.161181,208.5083 C 96.161181,225.09654 109.63052,238.56587 126.21875,238.56587 C 142.80698,238.56587 156.27631,225.09654 156.27632,208.5083 C 156.27632,191.92007 142.80698,178.46538 126.21875,178.46538 z M 126.21875,186.59499 C 138.31434,186.59499 148.13207,196.41271 148.13207,208.5083 C 148.13207,220.60389 138.31434,230.42162 126.21875,230.42162 C 114.12316,230.42162 104.30543,220.60389 104.30543,208.5083 C 104.30543,196.41271 114.12316,186.59499 126.21875,186.59499 z"
         id="path3268" />
    </g>
    <g
       transform="matrix(0.790568,0,0,0.790568,1564.0222,1781.0015)"
       id="g3286"
       style="opacity:1;fill:#e7f1ff">
      <path
         style="opacity:1;fill:#e7f1ff;fill-opacity:1;stroke:none;stroke-width:1;stroke-linejoin:round;stroke-miterlimit:4;stroke-dasharray:none;stroke-dashoffset:0;stroke-opacity:1"
         d="M 126.21875,144.40625 C 90.82931,144.40625 62.09375,173.11056 62.09375,208.5 C 62.09375,243.88944 90.82931,272.62499 126.21875,272.625 C 161.60819,272.625 190.34374,243.88944 190.34375,208.5 C 190.34375,173.11056 161.60819,144.40626 126.21875,144.40625 z M 126.21875,161.75 C 152.02355,161.75 172.96875,182.6952 172.96875,208.5 C 172.96875,234.30481 152.02355,255.25 126.21875,255.25 C 100.41395,255.25 79.46875,234.3048 79.46875,208.5 C 79.46875,182.6952 100.41395,161.75 126.21875,161.75 z"
         id="path3288" />
      <path
         id="path3290"
         d="M 126.21875,178.46538 C 109.63052,178.46538 96.161181,191.92007 96.161181,208.5083 C 96.161181,225.09654 109.63052,238.56587 126.21875,238.56587 C 142.80698,238.56587 156.27631,225.09654 156.27632,208.5083 C 156.27632,191.92007 142.80698,178.46538 126.21875,178.46538 z M 126.21875,186.59499 C 138.31434,186.59499 148.13207,196.41271 148.13207,208.5083 C 148.13207,220.60389 138.31434,230.42162 126.21875,230.42162 C 114.12316,230.42162 104.30543,220.60389 104.30543,208.5083 C 104.30543,196.41271 114.12316,186.59499 126.21875,186.59499 z"
         style="opacity:1;fill:#e7f1ff;fill-opacity:1;stroke:none;stroke-width:1;stroke-linejoin:round;stroke-miterlimit:4;stroke-dasharray:none;stroke-dashoffset:0;stroke-opacity:1" />
    </g>
    <path
       sodipodi:nodetypes="csssssssssssccsssssssssssc"
       d="M 1944.111,2155.7005 C 1944.12,2155.7112 1944.1103,2155.7023 1944.111,2155.7005 C 1944.1877,2155.5344 1944.157,2155.8071 1944.111,2155.7005 C 1943.5021,2154.2857 1942.7431,2155.3562 1942.7758,2156.0953 C 1942.8591,2157.9854 1945.227,2158.6562 1946.7936,2158.3202 C 1950.7592,2157.469 1951.989,2152.6645 1950.9376,2149.2382 C 1948.7135,2141.9892 1939.8281,2139.9549 1933.3937,2142.3702 C 1921.3358,2146.8963 1918.1982,2161.9059 1922.8712,2172.8171 C 1930.8939,2191.549 1954.576,2196.1409 1971.7718,2188.052 C 1999.3983,2175.0567 2005.8478,2139.6224 1992.9062,2113.98 C 1973.1658,2074.8658 1922.3436,2066.102 1885.7231,2085.6268 C 1832.1443,2114.1931 1820.5534,2184.6169 1848.6986,2235.1306 C 1888.4917,2306.5497 1974.8331,2308.1853 2042.5511,2269.0642 M 1944.111,2155.7005 C 1944.1247,2155.6976 1944.1122,2155.7021 1944.111,2155.7005 C 1944.0005,2155.5548 1944.1772,2155.6054 1944.111,2155.7005 C 1943.7038,2156.2879 1943.9394,2157.0897 1944.4509,2157.3101 C 1946.1885,2158.0595 1947.8648,2156.355 1948.3066,2154.8149 C 1949.4246,2150.916 1945.7663,2147.5673 1942.249,2146.88 C 1934.8068,2145.4262 1928.826,2152.3048 1927.9244,2159.1177 C 1926.2347,2171.886 1937.9948,2181.7262 1949.8209,2182.7461 C 1970.1229,2184.4963 1985.3325,2165.7723 1986.3008,2146.7936 C 1987.8565,2116.3024 1959.6416,2093.9172 1930.9264,2093.2489 C 1887.1251,2092.2293 1855.4474,2132.926 1855.4125,2174.4265 C 1855.3616,2235.1448 1912.0372,2279.4237 1969.8317,2277.5305 C 2050.2172,2274.8974 2029.6229,2216.8968 2042.5511,2269.0642"
       style="opacity:1;fill:#e7f1ff;fill-opacity:1;fill-rule:evenodd;stroke:none;stroke-width:1px;stroke-linecap:butt;stroke-linejoin:miter;stroke-opacity:1"
       id="path3484" />
    <g
       transform="matrix(2.532477,0,0,-2.532477,1772.7777,2340.2074)"
       id="g3516"
       style="opacity:1;fill:#e7f1ff">
      <path
         style="opacity:1;fill:#e7f1ff;fill-opacity:1;stroke:none;stroke-width:1;stroke-linejoin:round;stroke-miterlimit:4;stroke-dasharray:none;stroke-dashoffset:0;stroke-opacity:1"
         d="M 126.21875,144.40625 C 90.82931,144.40625 62.09375,173.11056 62.09375,208.5 C 62.09375,243.88944 90.82931,272.62499 126.21875,272.625 C 161.60819,272.625 190.34374,243.88944 190.34375,208.5 C 190.34375,173.11056 161.60819,144.40626 126.21875,144.40625 z M 126.21875,161.75 C 152.02355,161.75 172.96875,182.6952 172.96875,208.5 C 172.96875,234.30481 152.02355,255.25 126.21875,255.25 C 100.41395,255.25 79.46875,234.3048 79.46875,208.5 C 79.46875,182.6952 100.41395,161.75 126.21875,161.75 z"
         id="path3518" />
      <path
         id="path3520"
         d="M 126.21875,178.46538 C 109.63052,178.46538 96.161181,191.92007 96.161181,208.5083 C 96.161181,225.09654 109.63052,238.56587 126.21875,238.56587 C 142.80698,238.56587 156.27631,225.09654 156.27632,208.5083 C 156.27632,191.92007 142.80698,178.46538 126.21875,178.46538 z M 126.21875,186.59499 C 138.31434,186.59499 148.13207,196.41271 148.13207,208.5083 C 148.13207,220.60389 138.31434,230.42162 126.21875,230.42162 C 114.12316,230.42162 104.30543,220.60389 104.30543,208.5083 C 104.30543,196.41271 114.12316,186.59499 126.21875,186.59499 z"
         style="opacity:1;fill:#e7f1ff;fill-opacity:1;stroke:none;stroke-width:1;stroke-linejoin:round;stroke-miterlimit:4;stroke-dasharray:none;stroke-dashoffset:0;stroke-opacity:1" />
    </g>
    <g
       id="g3528"
       transform="matrix(2.532477,0,0,-2.532477,1772.7777,2340.2074)"
       style="opacity:1;fill:#e7f1ff">
      <path
         id="path3530"
         d="M 126.21875,144.40625 C 90.82931,144.40625 62.09375,173.11056 62.09375,208.5 C 62.09375,243.88944 90.82931,272.62499 126.21875,272.625 C 161.60819,272.625 190.34374,243.88944 190.34375,208.5 C 190.34375,173.11056 161.60819,144.40626 126.21875,144.40625 z M 126.21875,161.75 C 152.02355,161.75 172.96875,182.6952 172.96875,208.5 C 172.96875,234.30481 152.02355,255.25 126.21875,255.25 C 100.41395,255.25 79.46875,234.3048 79.46875,208.5 C 79.46875,182.6952 100.41395,161.75 126.21875,161.75 z"
         style="opacity:1;fill:#e7f1ff;fill-opacity:1;stroke:none;stroke-width:1;stroke-linejoin:round;stroke-miterlimit:4;stroke-dasharray:none;stroke-dashoffset:0;stroke-opacity:1" />
      <path
         style="opacity:1;fill:#e7f1ff;fill-opacity:1;stroke:none;stroke-width:1;stroke-linejoin:round;stroke-miterlimit:4;stroke-dasharray:none;stroke-dashoffset:0;stroke-opacity:1"
         d="M 126.21875,178.46538 C 109.63052,178.46538 96.161181,191.92007 96.161181,208.5083 C 96.161181,225.09654 109.63052,238.56587 126.21875,238.56587 C 142.80698,238.56587 156.27631,225.09654 156.27632,208.5083 C 156.27632,191.92007 142.80698,178.46538 126.21875,178.46538 z M 126.21875,186.59499 C 138.31434,186.59499 148.13207,196.41271 148.13207,208.5083 C 148.13207,220.60389 138.31434,230.42162 126.21875,230.42162 C 114.12316,230.42162 104.30543,220.60389 104.30543,208.5083 C 104.30543,196.41271 114.12316,186.59499 126.21875,186.59499 z"
         id="path3532" />
    </g>
    <path
       id="path3552"
       style="opacity:1;fill:#e7f1ff;fill-opacity:1;fill-rule:evenodd;stroke:none;stroke-width:1px;stroke-linecap:butt;stroke-linejoin:miter;stroke-opacity:1"
       d="M 2086.1159,1826.5102 C 2086.1209,1826.5042 2086.1155,1826.5092 2086.1159,1826.5102 C 2086.1587,1826.6032 2086.1415,1826.4505 2086.1159,1826.5102 C 2085.7748,1827.3024 2085.3499,1826.703 2085.3682,1826.2892 C 2085.4149,1825.2306 2086.7408,1824.8551 2087.618,1825.0435 C 2089.8385,1825.5199 2090.5272,1828.2104 2089.9385,1830.1288 C 2088.6929,1834.1882 2083.7176,1835.3271 2080.1146,1833.9745 C 2073.3625,1831.4403 2071.6057,1823.0356 2074.2225,1816.9256 C 2078.7148,1806.4363 2091.9759,1803.8651 2101.6048,1808.3947 C 2117.0747,1815.6717 2120.6861,1835.5135 2113.4393,1849.8721 C 2102.3854,1871.7746 2073.9269,1876.6816 2053.421,1865.7488 C 2023.4189,1849.7528 2016.9286,1810.3183 2032.6885,1782.0325 C 2054.9712,1742.0408 2108.0767,1733.6482 2145.9962,1755.5548 M 2086.1159,1826.5102 C 2086.1234,1826.512 2086.1166,1826.5094 2086.1159,1826.5102 C 2086.054,1826.5919 2086.1528,1826.5635 2086.1159,1826.5102 C 2085.8878,1826.1814 2086.0197,1825.7324 2086.3061,1825.609 C 2087.2791,1825.1894 2088.2178,1826.1437 2088.4651,1827.0061 C 2089.0912,1829.1894 2087.0427,1831.0644 2085.0732,1831.4494 C 2080.9059,1832.2634 2077.5568,1828.4118 2077.0519,1824.5968 C 2076.1058,1817.4468 2082.6909,1811.9368 2089.3132,1811.3658 C 2100.6815,1810.3856 2109.1983,1820.8704 2109.7406,1831.4976 C 2110.6116,1848.5713 2094.8123,1861.1065 2078.7331,1861.4806 C 2054.206,1862.0516 2036.4676,1839.2631 2036.4481,1816.0244 C 2036.4197,1782.0247 2068.1556,1757.2301 2100.5184,1758.29 C 2145.5312,1759.7648 2138.757,1784.7663 2145.9962,1755.5548"
       sodipodi:nodetypes="csssssssssssccsssssssssssc" />
    <g
       id="g3570"
       transform="matrix(2.0952135,0,0,2.0952135,1362.7281,1947.5645)"
       style="opacity:1;fill:#e7f1ff">
      <path
         id="path3572"
         d="M 126.21875,144.40625 C 90.82931,144.40625 62.09375,173.11056 62.09375,208.5 C 62.09375,243.88944 90.82931,272.62499 126.21875,272.625 C 161.60819,272.625 190.34374,243.88944 190.34375,208.5 C 190.34375,173.11056 161.60819,144.40626 126.21875,144.40625 z M 126.21875,161.75 C 152.02355,161.75 172.96875,182.6952 172.96875,208.5 C 172.96875,234.30481 152.02355,255.25 126.21875,255.25 C 100.41395,255.25 79.46875,234.3048 79.46875,208.5 C 79.46875,182.6952 100.41395,161.75 126.21875,161.75 z"
         style="opacity:1;fill:#e7f1ff;fill-opacity:1;stroke:none;stroke-width:1;stroke-linejoin:round;stroke-miterlimit:4;stroke-dasharray:none;stroke-dashoffset:0;stroke-opacity:1" />
      <path
         style="opacity:1;fill:#e7f1ff;fill-opacity:1;stroke:none;stroke-width:1;stroke-linejoin:round;stroke-miterlimit:4;stroke-dasharray:none;stroke-dashoffset:0;stroke-opacity:1"
         d="M 126.21875,178.46538 C 109.63052,178.46538 96.161181,191.92007 96.161181,208.5083 C 96.161181,225.09654 109.63052,238.56587 126.21875,238.56587 C 142.80698,238.56587 156.27631,225.09654 156.27632,208.5083 C 156.27632,191.92007 142.80698,178.46538 126.21875,178.46538 z M 126.21875,186.59499 C 138.31434,186.59499 148.13207,196.41271 148.13207,208.5083 C 148.13207,220.60389 138.31434,230.42162 126.21875,230.42162 C 114.12316,230.42162 104.30543,220.60389 104.30543,208.5083 C 104.30543,196.41271 114.12316,186.59499 126.21875,186.59499 z"
         id="path3574" />
    </g>
    <g
       transform="matrix(0.3662518,0,0,0.3662518,1445.8785,2198.9763)"
       id="g3576"
       style="opacity:1;fill:#e7f1ff">
      <path
         style="opacity:1;fill:#e7f1ff;fill-opacity:1;stroke:none;stroke-width:1;stroke-linejoin:round;stroke-miterlimit:4;stroke-dasharray:none;stroke-dashoffset:0;stroke-opacity:1"
         d="M 126.21875,144.40625 C 90.82931,144.40625 62.09375,173.11056 62.09375,208.5 C 62.09375,243.88944 90.82931,272.62499 126.21875,272.625 C 161.60819,272.625 190.34374,243.88944 190.34375,208.5 C 190.34375,173.11056 161.60819,144.40626 126.21875,144.40625 z M 126.21875,161.75 C 152.02355,161.75 172.96875,182.6952 172.96875,208.5 C 172.96875,234.30481 152.02355,255.25 126.21875,255.25 C 100.41395,255.25 79.46875,234.3048 79.46875,208.5 C 79.46875,182.6952 100.41395,161.75 126.21875,161.75 z"
         id="path3578" />
      <path
         id="path3580"
         d="M 126.21875,178.46538 C 109.63052,178.46538 96.161181,191.92007 96.161181,208.5083 C 96.161181,225.09654 109.63052,238.56587 126.21875,238.56587 C 142.80698,238.56587 156.27631,225.09654 156.27632,208.5083 C 156.27632,191.92007 142.80698,178.46538 126.21875,178.46538 z M 126.21875,186.59499 C 138.31434,186.59499 148.13207,196.41271 148.13207,208.5083 C 148.13207,220.60389 138.31434,230.42162 126.21875,230.42162 C 114.12316,230.42162 104.30543,220.60389 104.30543,208.5083 C 104.30543,196.41271 114.12316,186.59499 126.21875,186.59499 z"
         style="opacity:1;fill:#e7f1ff;fill-opacity:1;stroke:none;stroke-width:1;stroke-linejoin:round;stroke-miterlimit:4;stroke-dasharray:none;stroke-dashoffset:0;stroke-opacity:1" />
    </g>
    <g
       transform="matrix(2.0952135,0,0,2.0952135,1362.7281,1947.5645)"
       id="g3582"
       style="opacity:1;fill:#e7f1ff">
      <path
         style="opacity:1;fill:#e7f1ff;fill-opacity:1;stroke:none;stroke-width:1;stroke-linejoin:round;stroke-miterlimit:4;stroke-dasharray:none;stroke-dashoffset:0;stroke-opacity:1"
         d="M 126.21875,144.40625 C 90.82931,144.40625 62.09375,173.11056 62.09375,208.5 C 62.09375,243.88944 90.82931,272.62499 126.21875,272.625 C 161.60819,272.625 190.34374,243.88944 190.34375,208.5 C 190.34375,173.11056 161.60819,144.40626 126.21875,144.40625 z M 126.21875,161.75 C 152.02355,161.75 172.96875,182.6952 172.96875,208.5 C 172.96875,234.30481 152.02355,255.25 126.21875,255.25 C 100.41395,255.25 79.46875,234.3048 79.46875,208.5 C 79.46875,182.6952 100.41395,161.75 126.21875,161.75 z"
         id="path3584" />
      <path
         id="path3586"
         d="M 126.21875,178.46538 C 109.63052,178.46538 96.161181,191.92007 96.161181,208.5083 C 96.161181,225.09654 109.63052,238.56587 126.21875,238.56587 C 142.80698,238.56587 156.27631,225.09654 156.27632,208.5083 C 156.27632,191.92007 142.80698,178.46538 126.21875,178.46538 z M 126.21875,186.59499 C 138.31434,186.59499 148.13207,196.41271 148.13207,208.5083 C 148.13207,220.60389 138.31434,230.42162 126.21875,230.42162 C 114.12316,230.42162 104.30543,220.60389 104.30543,208.5083 C 104.30543,196.41271 114.12316,186.59499 126.21875,186.59499 z"
         style="opacity:1;fill:#e7f1ff;fill-opacity:1;stroke:none;stroke-width:1;stroke-linejoin:round;stroke-miterlimit:4;stroke-dasharray:none;stroke-dashoffset:0;stroke-opacity:1" />
    </g>
    <path
       sodipodi:nodetypes="csssssssssssccsssssssssssc"
       d="M 1621.9646,2372.5655 C 1621.9689,2372.5706 1621.9644,2372.5667 1621.9646,2372.5655 C 1622.0002,2372.4886 1621.986,2372.6151 1621.9646,2372.5655 C 1621.6825,2371.91 1621.3309,2372.4064 1621.3461,2372.7486 C 1621.3846,2373.6241 1622.4817,2373.935 1623.2074,2373.7791 C 1625.0446,2373.385 1625.6143,2371.1591 1625.1273,2369.5719 C 1624.0967,2366.2135 1619.9805,2365.2712 1616.9996,2366.3901 C 1611.4135,2368.487 1609.9597,2375.4404 1612.1248,2380.4954 C 1615.8416,2389.1732 1626.8127,2391.3006 1634.7792,2387.5533 C 1647.5781,2381.533 1650.5658,2365.1171 1644.5704,2353.2376 C 1635.4251,2335.117 1611.8802,2331.0567 1594.915,2340.1021 C 1570.0932,2353.3364 1564.7232,2385.962 1577.7623,2409.3638 C 1596.1975,2442.4505 1640.1338,2449.3936 1671.5059,2431.2698 M 1621.9646,2372.5655 C 1621.971,2372.5643 1621.9652,2372.5663 1621.9646,2372.5655 C 1621.9134,2372.4982 1621.9954,2372.5213 1621.9646,2372.5655 C 1621.7761,2372.8375 1621.8852,2373.2091 1622.1222,2373.3112 C 1622.9271,2373.6585 1623.7037,2372.8688 1623.9084,2372.1554 C 1624.4263,2370.3489 1622.7315,2368.7975 1621.102,2368.4792 C 1617.6542,2367.8059 1614.8834,2370.9925 1614.4659,2374.1488 C 1613.683,2380.0641 1619.1311,2384.6227 1624.61,2385.0951 C 1634.0154,2385.906 1641.0616,2377.2317 1641.5103,2368.4392 C 1642.2309,2354.3135 1629.1597,2343.9429 1615.8565,2343.6331 C 1595.5644,2343.1607 1580.8889,2362.0147 1580.8727,2381.2409 C 1580.8492,2409.3704 1607.1056,2429.8837 1633.8804,2429.0067 C 1671.1212,2427.7866 1665.5167,2407.102 1671.5059,2431.2698"
       style="opacity:1;fill:#e7f1ff;fill-opacity:1;fill-rule:evenodd;stroke:none;stroke-width:1px;stroke-linecap:butt;stroke-linejoin:miter;stroke-opacity:1"
       id="path3606" />
    <path
       sodipodi:nodetypes="csssssssssssccsssssssssssc"
       d="M 1520.8972,2157.5078 C 1520.898,2157.5023 1520.8966,2157.5074 1520.8972,2157.5078 C 1520.9595,2157.548 1520.8898,2157.4615 1520.8972,2157.5078 C 1520.9959,2158.1229 1520.5048,2157.922 1520.3558,2157.6622 C 1519.9746,2156.999 1520.6379,2156.2568 1521.2457,2156.0319 C 1522.784,2155.463 1524.2453,2156.8373 1524.629,2158.235 C 1525.4405,2161.1924 1522.8473,2163.8127 1520.1268,2164.3824 C 1515.0283,2165.4503 1510.7039,2161.0047 1509.935,2156.2663 C 1508.6147,2148.1311 1515.7063,2141.4303 1523.3313,2140.4658 C 1535.5815,2138.916 1545.4634,2149.6181 1546.6015,2161.179 C 1548.3377,2178.8137 1532.8826,2192.821 1516.1462,2194.0903 C 1491.6594,2195.9477 1472.4389,2174.4117 1471.1019,2151.0627 C 1469.212,2118.0511 1498.3484,2092.3795 1529.9509,2091.0621 M 1520.8972,2157.5078 C 1520.9027,2157.5058 1520.8974,2157.507 1520.8972,2157.5078 C 1520.8912,2157.5817 1520.9406,2157.5262 1520.8972,2157.5078 C 1520.6311,2157.3955 1520.5377,2157.0708 1520.6645,2156.8844 C 1521.0955,2156.2521 1522.0373,2156.471 1522.522,2156.9009 C 1523.7486,2157.9901 1523.2253,2159.9263 1522.1731,2160.9232 C 1519.947,2163.0327 1516.4139,2161.9802 1514.6294,2159.849 C 1511.2852,2155.8552 1513.1683,2149.9462 1516.9857,2147.035 C 1523.5389,2142.0375 1532.7906,2145.135 1537.2345,2151.4059 C 1544.3737,2161.4804 1539.5907,2175.2394 1529.9301,2181.6908 C 1515.194,2191.5318 1495.5567,2184.5004 1486.5508,2170.3366 C 1473.3741,2149.614 1483.1309,2122.2109 1503.2765,2110.3317 C 1531.2968,2093.8093 1536.8422,2111.6776 1529.9509,2091.0621"
       style="opacity:1;fill:#e7f1ff;fill-opacity:1;fill-rule:evenodd;stroke:none;stroke-width:1px;stroke-linecap:butt;stroke-linejoin:miter;stroke-opacity:1"
       id="path3668" />
    <path
       style="opacity:1;fill:#e7f1ff;fill-opacity:1;stroke:none;stroke-width:1;stroke-linejoin:round;stroke-miterlimit:4;stroke-dasharray:none;stroke-dashoffset:0;stroke-opacity:1"
       d="M 1611.0273,2181.7657 C 1583.7465,2181.7657 1561.5952,2203.8929 1561.5952,2231.1735 C 1561.5952,2258.4541 1583.7465,2280.6055 1611.0273,2280.6055 C 1638.3079,2280.6055 1660.4592,2258.4541 1660.4592,2231.1735 C 1660.4592,2203.8929 1638.3079,2181.7657 1611.0273,2181.7657 z M 1611.0273,2195.1356 C 1630.9192,2195.1356 1647.0654,2211.2816 1647.0654,2231.1735 C 1647.0654,2251.0659 1630.9192,2267.2119 1611.0273,2267.2119 C 1591.1351,2267.2119 1574.9891,2251.0659 1574.9891,2231.1735 C 1574.9891,2211.2816 1591.1351,2195.1356 1611.0273,2195.1356 z"
       id="path3652" />
    <path
       id="path3654"
       d="M 1611.0273,2208.0208 C 1598.2399,2208.0208 1587.8567,2218.3928 1587.8567,2231.18 C 1587.8567,2243.9673 1598.2399,2254.3504 1611.0273,2254.3504 C 1623.8144,2254.3504 1634.1977,2243.9673 1634.1977,2231.18 C 1634.1977,2218.3928 1623.8144,2208.0208 1611.0273,2208.0208 z M 1611.0273,2214.2877 C 1620.3514,2214.2877 1627.9196,2221.8559 1627.9196,2231.18 C 1627.9196,2240.504 1620.3514,2248.0722 1611.0273,2248.0722 C 1601.703,2248.0722 1594.1348,2240.504 1594.1348,2231.18 C 1594.1348,2221.8559 1601.703,2214.2877 1611.0273,2214.2877 z"
       style="opacity:1;fill:#e7f1ff;fill-opacity:1;stroke:none;stroke-width:1;stroke-linejoin:round;stroke-miterlimit:4;stroke-dasharray:none;stroke-dashoffset:0;stroke-opacity:1" />
    <path
       id="path3658"
       d="M 1651.1065,2111.0304 C 1632.937,2111.0304 1618.1836,2125.7678 1618.1836,2143.9371 C 1618.1836,2162.1069 1632.937,2176.8602 1651.1065,2176.8602 C 1669.2763,2176.8602 1684.0296,2162.1069 1684.0296,2143.9371 C 1684.0296,2125.7678 1669.2763,2111.0304 1651.1065,2111.0304 z M 1651.1065,2119.9348 C 1664.3554,2119.9348 1675.109,2130.6885 1675.109,2143.9371 C 1675.109,2157.1858 1664.3554,2167.9396 1651.1065,2167.9396 C 1637.8579,2167.9396 1627.1042,2157.1858 1627.1042,2143.9371 C 1627.1042,2130.6885 1637.8579,2119.9348 1651.1065,2119.9348 z"
       style="opacity:1;fill:#e7f1ff;fill-opacity:1;stroke:none;stroke-width:1;stroke-linejoin:round;stroke-miterlimit:4;stroke-dasharray:none;stroke-dashoffset:0;stroke-opacity:1" />
    <path
       style="opacity:1;fill:#e7f1ff;fill-opacity:1;stroke:none;stroke-width:1;stroke-linejoin:round;stroke-miterlimit:4;stroke-dasharray:none;stroke-dashoffset:0;stroke-opacity:1"
       d="M 1651.1065,2128.517 C 1642.5898,2128.517 1635.6746,2135.4249 1635.6746,2143.9416 C 1635.6746,2152.4585 1642.5898,2159.3737 1651.1065,2159.3737 C 1659.6234,2159.3737 1666.5387,2152.4585 1666.5387,2143.9416 C 1666.5387,2135.4249 1659.6234,2128.517 1651.1065,2128.517 z M 1651.1065,2132.6908 C 1657.3167,2132.6908 1662.3573,2137.7316 1662.3573,2143.9416 C 1662.3573,2150.1518 1657.3167,2155.1923 1651.1065,2155.1923 C 1644.8965,2155.1923 1639.8559,2150.1518 1639.8559,2143.9416 C 1639.8559,2137.7316 1644.8965,2132.6908 1651.1065,2132.6908 z"
       id="path3660" />
    <path
       transform="matrix(-4.2152272,0,0,-4.2152272,3265.8586,1690.0347)"
       sodipodi:nodetypes="cccc"
       d="M 373.82647,9.1947481 C 321.49122,-12.306164 230.30772,63.25072 334.00723,218.82243 C 348.43662,241.37427 321.1875,232.13552 328.69961,231.38685 C 223.11475,58.84704 320.96767,-14.683318 373.56705,9.1947481"
       style="opacity:0.17000002;fill:#e7f1ff;fill-opacity:1;fill-rule:evenodd;stroke:none;stroke-width:1px;stroke-linecap:butt;stroke-linejoin:miter;stroke-opacity:1;filter:url(#filter3474)"
       id="path3704" />
  </g>
</svg>
