<?xml version="1.0" encoding="UTF-8" standalone="no"?>
<!-- Created with Inkscape (http://www.inkscape.org/) -->
<svg
   xmlns:dc="http://purl.org/dc/elements/1.1/"
   xmlns:cc="http://creativecommons.org/ns#"
   xmlns:rdf="http://www.w3.org/1999/02/22-rdf-syntax-ns#"
   xmlns:svg="http://www.w3.org/2000/svg"
   xmlns="http://www.w3.org/2000/svg"
   xmlns:xlink="http://www.w3.org/1999/xlink"
   xmlns:sodipodi="http://sodipodi.sourceforge.net/DTD/sodipodi-0.dtd"
   xmlns:inkscape="http://www.inkscape.org/namespaces/inkscape"
   width="3543.3069"
   height="5346.6021"
   id="svg3511"
   sodipodi:version="0.32"
   inkscape:version="0.46"
   sodipodi:docname="poster.svg"
   inkscape:output_extension="org.inkscape.output.svg.inkscape"
   version="1.0">
  <defs
     id="defs3513">
    <linearGradient
       id="linearGradient4722">
      <stop
         id="stop4724"
         offset="0"
         style="stop-color:#15335e;stop-opacity:0.953" />
      <stop
         id="stop4726"
         offset="1"
         style="stop-color:#204c8d;stop-opacity:0;" />
    </linearGradient>
    <filter
       inkscape:collect="always"
       id="filter3670">
      <feGaussianBlur
         inkscape:collect="always"
         stdDeviation="1.4864866"
         id="feGaussianBlur3672" />
    </filter>
    <filter
       inkscape:collect="always"
       id="filter3700">
      <feGaussianBlur
         inkscape:collect="always"
         stdDeviation="1.5874831"
         id="feGaussianBlur3702" />
    </filter>
    <filter
       inkscape:collect="always"
       id="filter3474">
      <feGaussianBlur
         inkscape:collect="always"
         stdDeviation="1.6061345"
         id="feGaussianBlur3476" />
    </filter>
    <filter
       inkscape:collect="always"
       id="filter3387">
      <feGaussianBlur
         inkscape:collect="always"
         stdDeviation="1.7344037"
         id="feGaussianBlur3389" />
    </filter>
    <filter
       inkscape:collect="always"
       id="filter3466">
      <feGaussianBlur
         inkscape:collect="always"
         stdDeviation="3.2352817"
         id="feGaussianBlur3468" />
    </filter>
    <radialGradient
       inkscape:collect="always"
       xlink:href="#linearGradient8650"
       id="radialGradient3795"
       gradientUnits="userSpaceOnUse"
       gradientTransform="matrix(6.235767,0,0,4.745569,-282.675,1065.559)"
       cx="19.701141"
       cy="2.8969381"
       fx="19.701141"
       fy="2.8969381"
       r="17.171415" />
    <radialGradient
       inkscape:collect="always"
       xlink:href="#linearGradient8650"
       id="radialGradient3793"
       gradientUnits="userSpaceOnUse"
       gradientTransform="matrix(6.235767,0,0,4.745569,-282.675,1065.559)"
       cx="19.701141"
       cy="2.8969381"
       fx="19.701141"
       fy="2.8969381"
       r="17.171415" />
    <radialGradient
       inkscape:collect="always"
       xlink:href="#linearGradient8650"
       id="radialGradient3791"
       gradientUnits="userSpaceOnUse"
       gradientTransform="matrix(6.235767,0,0,4.745569,-282.675,1065.559)"
       cx="19.701141"
       cy="2.8969381"
       fx="19.701141"
       fy="2.8969381"
       r="17.171415" />
    <linearGradient
       id="linearGradient8650"
       inkscape:collect="always">
      <stop
         id="stop8652"
         offset="0"
         style="stop-color:#ffffff;stop-opacity:1;" />
      <stop
         id="stop8654"
         offset="1"
         style="stop-color:#ffffff;stop-opacity:0;" />
    </linearGradient>
    <radialGradient
       inkscape:collect="always"
       xlink:href="#linearGradient8650"
       id="radialGradient3789"
       gradientUnits="userSpaceOnUse"
       gradientTransform="matrix(6.235767,0,0,4.745569,-282.675,1065.559)"
       cx="19.701141"
       cy="2.8969381"
       fx="19.701141"
       fy="2.8969381"
       r="17.171415" />
    <linearGradient
       id="linearGradient4055">
      <stop
         style="stop-color:#000000;stop-opacity:1"
         offset="0"
         id="stop4057" />
      <stop
         style="stop-color:#204c8d;stop-opacity:0;"
         offset="1"
         id="stop4059" />
    </linearGradient>
    <inkscape:perspective
       sodipodi:type="inkscape:persp3d"
       inkscape:vp_x="0 : 526.18109 : 1"
       inkscape:vp_y="0 : 1000 : 0"
       inkscape:vp_z="744.09448 : 526.18109 : 1"
       inkscape:persp3d-origin="372.04724 : 350.78739 : 1"
       id="perspective3519" />
    <linearGradient
       inkscape:collect="always"
       xlink:href="#linearGradient4055"
       id="linearGradient4061"
       x1="958.01971"
       y1="949.92352"
       x2="958.01971"
       y2="666.59259"
       gradientUnits="userSpaceOnUse"
       gradientTransform="translate(-499.14224,-60.929173)" />
    <inkscape:perspective
       id="perspective2989"
       inkscape:persp3d-origin="372.04724 : 350.78739 : 1"
       inkscape:vp_z="744.09448 : 526.18109 : 1"
       inkscape:vp_y="0 : 1000 : 0"
       inkscape:vp_x="0 : 526.18109 : 1"
       sodipodi:type="inkscape:persp3d" />
    <pattern
       patternUnits="userSpaceOnUse"
       width="6017.8569"
       height="5657.5"
       patternTransform="matrix(0.1227161,0,0,0.1227161,-104.94006,1128.0406)"
       id="pattern2995">
      <image
         transform="matrix(0,-1,1,0,0,0)"
         xlink:href="=BGFILE="
         sodipodi:absref="=BGFILE="
         width="5657.5"
         height="6017.8569"
         id="image2991"
         x="-5657.5"
         y="0" />
    </pattern>
    <linearGradient
       inkscape:collect="always"
       xlink:href="#linearGradient4722"
       id="linearGradient4200"
       x1="141.09525"
       y1="1143.4851"
       x2="141.09525"
       y2="1324.4185"
       gradientUnits="userSpaceOnUse" />
    <linearGradient
       inkscape:collect="always"
       xlink:href="#linearGradient4722"
       id="linearGradient4206"
       gradientUnits="userSpaceOnUse"
       x1="44.948891"
       y1="1143.4905"
       x2="262.35922"
       y2="1636.7206" />
    <clipPath
       clipPathUnits="userSpaceOnUse"
       id="clipPath4212">
      <rect
         style="opacity:1;fill:#000000;fill-opacity:1;fill-rule:nonzero;stroke:#153b73;stroke-width:2.00032759;stroke-linecap:round;marker:none;marker-start:none;marker-mid:none;marker-end:none;stroke-miterlimit:4;stroke-dasharray:none;stroke-dashoffset:0;stroke-opacity:1;visibility:visible;display:inline;overflow:visible;enable-background:accumulate"
         id="rect4214"
         width="264.48471"
         height="400.1069"
         x="157.38719"
         y="-101.50469"
         inkscape:label="#rect3521" />
    </clipPath>
  </defs>
  <sodipodi:namedview
     id="base"
     pagecolor="#ffffff"
     bordercolor="#666666"
     borderopacity="1.0"
     gridtolerance="10000"
     guidetolerance="10"
     objecttolerance="10"
     inkscape:pageopacity="1"
     inkscape:pageshadow="2"
     inkscape:zoom="0.72045624"
     inkscape:cx="78.133566"
     inkscape:cy="-239.44666"
     inkscape:document-units="px"
     inkscape:current-layer="layer5"
     showgrid="false"
     inkscape:window-width="1024"
     inkscape:window-height="768"
     inkscape:window-x="0"
     inkscape:window-y="0"
     showguides="true"
     inkscape:guide-bbox="true"
     units="m"
     inkscape:showpageshadow="false"
     showborder="false">
    <sodipodi:guide
       orientation="1,0"
       position="3112.5,712.5"
       id="guide4268" />
    <sodipodi:guide
       orientation="0,1"
       position="2837.5,4812.5"
       id="guide2766" />
    <sodipodi:guide
       orientation="0,1"
       position="2737.5,775"
       id="guide2768" />
    <sodipodi:guide
       orientation="0,1"
       position="2762.5,3675"
       id="guide2770" />
    <sodipodi:guide
       orientation="0,1"
       position="247.79756,-141.59861"
       id="guide3591" />
    <sodipodi:guide
       orientation="0,1"
       position="253.95402,-183.15472"
       id="guide3593" />
    <sodipodi:guide
       orientation="0,1"
       position="266.26694,-290.89279"
       id="guide3595" />
    <sodipodi:guide
       orientation="1,0"
       position="49.251689,-427.87405"
       id="guide3597" />
    <sodipodi:guide
       orientation="1,0"
       position="383.2397,-270.88429"
       id="guide3599" />
    <sodipodi:guide
       orientation="0,1"
       position="320.13598,-677.21072"
       id="guide3601" />
    <sodipodi:guide
       orientation="1,0"
       position="217.01525,-298.58837"
       id="guide2585" />
  </sodipodi:namedview>
  <metadata
     id="metadata3516">
    <rdf:RDF>
      <cc:Work
         rdf:about="">
        <dc:format>image/svg+xml</dc:format>
        <dc:type
           rdf:resource="http://purl.org/dc/dcmitype/StillImage" />
      </cc:Work>
    </rdf:RDF>
  </metadata>
  <g
     inkscape:label="background"
     inkscape:groupmode="layer"
     id="layer1"
     transform="translate(-44.948889,4318.3314)" />
  <g
     inkscape:groupmode="layer"
     id="layer4"
     inkscape:label="Concept"
     transform="translate(-44.948889,4318.3314)" />
  <g
     inkscape:groupmode="layer"
     id="layer2"
     inkscape:label="shadow-bottom"
     style="opacity:1"
     transform="translate(-44.948889,4318.3314)" />
  <g
     inkscape:groupmode="layer"
     id="layer6"
     inkscape:label="Message-Bottom"
     transform="translate(-44.948889,4318.3314)" />
  <g
     inkscape:groupmode="layer"
     id="layer5"
     inkscape:label="Message-Header"
     transform="translate(-44.948889,4318.3314)">
    <flowRoot
       xml:space="preserve"
       id="flowRoot4250"
       style="font-size:40px;font-style:normal;font-weight:normal;fill:#000000;fill-opacity:1;stroke:none;stroke-width:1px;stroke-linecap:butt;stroke-linejoin:miter;stroke-opacity:1;font-family:Bitstream Vera Sans"><flowRegion
         id="flowRegion4252"><rect
           id="rect4254"
           width="611.42859"
           height="265.71429"
           x="71.428574"
           y="103.79076" /></flowRegion><flowPara
         id="flowPara4256" /></flowRoot>    <rect
       style="fill:url(#pattern2995);fill-opacity:1;fill-rule:nonzero;stroke:#153b73;stroke-width:3.26391196;stroke-linecap:round;marker:none;marker-start:none;marker-mid:none;marker-end:none;stroke-miterlimit:4;stroke-dasharray:none;stroke-dashoffset:0;stroke-opacity:1;visibility:visible;display:inline;overflow:visible;enable-background:accumulate"
       id="TREEFLOWER"
       width="431.55673"
       height="652.84998"
       x="46.580845"
       y="1145.1224"
       inkscape:label="#rect3521" />
    <rect
       inkscape:label="#rect3521"
       y="1145.1224"
       x="46.580845"
       height="652.84998"
       width="431.55673"
       id="rect2705"
       style="fill:url(#linearGradient4206);fill-opacity:1;fill-rule:nonzero;stroke:#153b73;stroke-width:3.26391196000000017;stroke-linecap:round;marker:none;marker-start:none;marker-mid:none;marker-end:none;stroke-miterlimit:4;stroke-dasharray:none;stroke-dashoffset:0;stroke-opacity:1;visibility:visible;display:inline;overflow:visible;enable-background:accumulate;opacity:0.8" />
    <g
       style="opacity:0.9;display:inline"
       id="g4036"
       transform="matrix(1.6316888,0,0,1.6316888,-210.22607,1310.7465)"
       clip-path="url(#clipPath4212)">
      <path
         transform="matrix(0.254211,0,0,0.254211,206.58577,132.64824)"
         d="M 185.65564,215.85391 C 230.04118,234.53637 228.68309,169.06242 185.43211,190.23938 C 105.57307,229.34073 166.01559,140.53997 158.53359,229.14246 C 154.48141,277.12882 216.33116,255.60463 182.82538,221.01455 C 120.95999,157.14707 224.0923,187.19038 137.51425,207.45425 C 90.624323,218.42899 130.20767,270.60026 152.75094,228.04545 C 194.37506,149.47183 197.67181,256.84038 151.64563,180.76165 C 126.71825,139.55805 89.332353,193.32586 136.77063,201.61562 C 224.36115,216.92193 123.26635,253.23603 181.39865,185.95292 C 212.88261,149.51296 150.19351,130.57202 156.96871,178.25019 C 169.4785,266.28363 103.70173,181.35843 185.65564,215.85391 z"
         inkscape:randomized="0"
         inkscape:rounded="1.88"
         inkscape:flatsided="false"
         sodipodi:arg2="-0.54381798"
         sodipodi:arg1="0.48689923"
         sodipodi:r2="26.272663"
         sodipodi:r1="25.691782"
         sodipodi:cy="203.83304"
         sodipodi:cx="162.94955"
         sodipodi:sides="5"
         id="path3674"
         style="opacity:1;fill:#ffffff;fill-opacity:1;stroke:none;stroke-width:1;stroke-linejoin:round;stroke-miterlimit:4;stroke-dasharray:none;stroke-dashoffset:0;stroke-opacity:1"
         sodipodi:type="star" />
      <path
         transform="matrix(0.8022122,0,0,0.8022122,74.752807,55.661334)"
         id="path3443"
         style="opacity:0.2;fill:#ffffff;fill-opacity:1;fill-rule:evenodd;stroke:none;stroke-width:1px;stroke-linecap:butt;stroke-linejoin:miter;stroke-opacity:1;filter:url(#filter3466)"
         d="M 355.18161,-47.68625 C 365.85766,-8.7142536 389.752,21.968041 324.30392,77.665812 C 258.85586,133.36359 274.12404,228.4141 310.16512,267.26223 C 346.20619,306.11035 354.77883,299.98799 319.01965,260.47203 C 283.26044,220.9561 266.35924,134.17038 328.43009,80.511203 C 390.50092,26.852037 366.66586,-8.8173476 355.23651,-47.403257"
         sodipodi:nodetypes="csccsc" />
      <path
         transform="matrix(0.8022122,0,0,0.8022122,74.752807,55.661334)"
         id="path3385"
         style="fill:#ffffff;fill-opacity:1;fill-rule:evenodd;stroke:none;stroke-width:1px;stroke-linecap:butt;stroke-linejoin:miter;stroke-opacity:1;filter:url(#filter3387)"
         d="M 348.37198,7.7413837 C 356.95697,39.080156 376.17126,63.752885 323.54212,108.54145 C 270.913,153.33002 283.19069,229.76353 312.17261,261.0027 C 341.15452,292.24186 348.04809,287.31865 319.29285,255.54246 C 290.5376,223.76629 276.94674,153.97879 326.86012,110.82953 C 376.77349,67.68028 357.60687,38.997255 348.41612,7.9689477"
         sodipodi:nodetypes="csccsc" />
      <g
         transform="matrix(0.6107311,0.5201462,0.5201462,-0.6107311,73.7969,164.03559)"
         id="g3334">
        <path
           id="path2454"
           style="fill:#ffffff;fill-opacity:1;fill-rule:evenodd;stroke:none;stroke-width:1px;stroke-linecap:butt;stroke-linejoin:miter;stroke-opacity:1"
           d="M 236.05574,132.77327 C 236.06031,132.7725 236.05592,132.77265 236.05574,132.77327 C 236.03929,132.83179 236.09028,132.7562 236.05574,132.77327 C 235.59699,132.99985 235.63565,132.56568 235.80306,132.38584 C 236.23129,131.92574 236.97459,132.26613 237.29836,132.68855 C 238.11797,133.7579 237.3941,135.23789 236.39028,135.87794 C 234.26634,137.23219 231.58115,135.8328 230.47415,133.83612 C 228.39955,130.09427 230.8389,125.62254 234.37095,123.86964 C 240.4345,120.86037 247.41275,124.7999 250.01933,130.54937 C 254.207,139.78642 248.20587,150.13689 239.40988,153.83437 C 225.99278,159.47443 211.25219,150.74421 206.19628,137.91875 C 198.79906,119.15404 211.03629,98.847308 229.03432,92.134551 C 254.48085,82.643722 281.69353,99.280482 290.39311,123.76003 M 236.05574,132.77327 C 236.05856,132.77695 236.05636,132.77314 236.05574,132.77327 C 235.99637,132.78632 236.05192,132.81162 236.05574,132.77327 C 236.07921,132.53703 236.31149,132.385 236.48838,132.43939 C 237.08916,132.62415 237.146,133.41631 236.92598,133.90093 C 236.369,135.12772 234.72253,135.18665 233.68498,134.60286 C 231.48968,133.36763 231.45867,130.33984 232.69815,128.42258 C 235.02098,124.82954 240.11458,124.87397 243.32502,127.16331 C 248.83646,131.09351 248.64993,139.10482 244.80703,144.11307 C 238.63305,152.15928 226.67593,151.74341 219.26989,145.72747 C 207.97297,136.55095 208.72729,119.43569 217.65721,108.93276 C 230.72242,93.566137 254.59291,94.575279 268.80135,107.50237 C 288.56373,125.48253 275.8873,134.16849 290.39311,123.76003"
           sodipodi:nodetypes="csssssssssssccsssssssssssc" />
        <path
           sodipodi:nodetypes="csssssssssssccsssssssssssc"
           d="M 207.73997,83.655621 C 207.74165,83.657035 207.73989,83.65592 207.73997,83.655621 C 207.74736,83.627577 207.75005,83.670982 207.73997,83.655621 C 207.60605,83.451579 207.51704,83.639477 207.54242,83.753902 C 207.60738,84.046604 207.99533,84.086228 208.23057,83.990734 C 208.82604,83.748999 208.88596,82.96539 208.62777,82.459592 C 208.0815,81.389388 206.63899,81.316059 205.70125,81.869743 C 203.94382,82.907356 203.86651,85.335916 204.89557,86.910338 C 206.66218,89.613178 210.48412,89.679198 212.94544,87.944447 C 216.89979,85.157403 216.9328,79.450398 214.20872,75.804243 C 210.05348,70.242484 201.88146,70.271046 196.70292,74.324099 C 189.12628,80.254061 189.25216,91.562728 195.0322,98.672596 C 203.20432,108.72488 218.41634,108.45837 227.90954,100.49275 M 207.73997,83.655621 C 207.74203,83.654782 207.74021,83.655818 207.73997,83.655621 C 207.71871,83.635909 207.74767,83.638924 207.73997,83.655621 C 207.69254,83.758452 207.75134,83.877104 207.83723,83.897485 C 208.12896,83.966667 208.34375,83.654605 208.37038,83.402134 C 208.43774,82.762989 207.77484,82.340895 207.20704,82.330282 C 206.0057,82.307823 205.26131,83.545587 205.30777,84.633609 C 205.39486,86.672637 207.50046,87.88519 209.37403,87.719418 C 212.59044,87.434825 214.44961,84.094908 214.07933,81.106533 C 213.48443,76.305442 208.4663,73.587134 203.96668,74.271718 C 197.1031,75.315971 193.27757,82.53731 194.41225,89.014725 C 196.0724,98.491745 206.13357,103.84483 215.10087,101.96161 C 227.57339,99.342276 224.45881,92.706794 227.90954,100.49275"
           style="fill:#ffffff;fill-opacity:1;fill-rule:evenodd;stroke:none;stroke-width:1px;stroke-linecap:butt;stroke-linejoin:miter;stroke-opacity:1"
           id="path3257" />
        <path
           id="path3373"
           style="fill:#ffffff;fill-opacity:1;fill-rule:evenodd;stroke:none;stroke-width:1px;stroke-linecap:butt;stroke-linejoin:miter;stroke-opacity:1"
           d="M 289.4035,100.44919 C 289.40278,100.45031 289.40331,100.44917 289.4035,100.44919 C 289.42091,100.45151 289.39504,100.45641 289.4035,100.44919 C 289.51592,100.35328 289.39629,100.31405 289.32948,100.33797 C 289.15857,100.39919 289.16418,100.63525 289.23938,100.76933 C 289.42975,101.10872 289.90504,101.08531 290.18932,100.89186 C 290.79082,100.48254 290.72551,99.610403 290.32178,99.08904 C 289.5652,98.111941 288.10039,98.249631 287.23259,98.987207 C 285.74281,100.25342 285.99293,102.55443 287.22169,103.90153 C 289.1958,106.06577 292.62676,105.65291 294.61063,103.73998 C 297.63679,100.82205 297.00003,95.914917 294.17254,93.111235 C 290.03569,89.009208 283.25162,89.942251 279.41863,93.953644 C 273.99938,99.625161 275.31284,108.7435 280.81792,113.84254 M 289.4035,100.44919 C 289.40416,100.45037 289.4034,100.44935 289.4035,100.44919 C 289.41373,100.43493 289.41411,100.45255 289.4035,100.44919 C 289.33813,100.4285 289.27131,100.47282 289.26558,100.52596 C 289.24613,100.70646 289.44989,100.81184 289.60357,100.80869 C 289.99265,100.8007 290.19596,100.37046 290.15929,100.02855 C 290.0817,99.30515 289.28167,98.951812 288.63157,99.062211 C 287.41324,99.26913 286.84445,100.626 287.08609,101.73896 C 287.50092,103.64963 289.64832,104.51328 291.4155,104.06426 C 294.25462,103.34286 295.50716,100.12215 294.75474,97.470926 C 293.60702,93.426842 288.97879,91.676194 285.17355,92.848957 C 279.60614,94.564826 277.15314,101.01489 278.96437,106.25917 C 281.48358,113.55337 285.23367,111.17921 280.81792,113.84254"
           sodipodi:nodetypes="csssssssssssccsssssssssssc" />
      </g>
      <g
         transform="matrix(9.6137231e-2,0,0,9.6137231e-2,322.18794,164.04415)"
         id="g3292">
        <path
           style="opacity:1;fill:#ffffff;fill-opacity:1;stroke:none;stroke-width:1;stroke-linejoin:round;stroke-miterlimit:4;stroke-dasharray:none;stroke-dashoffset:0;stroke-opacity:1"
           d="M 126.21875,144.40625 C 90.82931,144.40625 62.09375,173.11056 62.09375,208.5 C 62.09375,243.88944 90.82931,272.62499 126.21875,272.625 C 161.60819,272.625 190.34374,243.88944 190.34375,208.5 C 190.34375,173.11056 161.60819,144.40626 126.21875,144.40625 z M 126.21875,161.75 C 152.02355,161.75 172.96875,182.6952 172.96875,208.5 C 172.96875,234.30481 152.02355,255.25 126.21875,255.25 C 100.41395,255.25 79.46875,234.3048 79.46875,208.5 C 79.46875,182.6952 100.41395,161.75 126.21875,161.75 z"
           id="path3294" />
        <path
           id="path3296"
           d="M 126.21875,178.46538 C 109.63052,178.46538 96.161181,191.92007 96.161181,208.5083 C 96.161181,225.09654 109.63052,238.56587 126.21875,238.56587 C 142.80698,238.56587 156.27631,225.09654 156.27632,208.5083 C 156.27632,191.92007 142.80698,178.46538 126.21875,178.46538 z M 126.21875,186.59499 C 138.31434,186.59499 148.13207,196.41271 148.13207,208.5083 C 148.13207,220.60389 138.31434,230.42162 126.21875,230.42162 C 114.12316,230.42162 104.30543,220.60389 104.30543,208.5083 C 104.30543,196.41271 114.12316,186.59499 126.21875,186.59499 z"
           style="opacity:1;fill:#ffffff;fill-opacity:1;stroke:none;stroke-width:1;stroke-linejoin:round;stroke-miterlimit:4;stroke-dasharray:none;stroke-dashoffset:0;stroke-opacity:1" />
      </g>
      <g
         transform="matrix(7.9423966e-2,0,0,7.9423966e-2,343.77012,153.94937)"
         id="g3298">
        <path
           style="opacity:1;fill:#ffffff;fill-opacity:1;stroke:none;stroke-width:1;stroke-linejoin:round;stroke-miterlimit:4;stroke-dasharray:none;stroke-dashoffset:0;stroke-opacity:1"
           d="M 126.21875,144.40625 C 90.82931,144.40625 62.09375,173.11056 62.09375,208.5 C 62.09375,243.88944 90.82931,272.62499 126.21875,272.625 C 161.60819,272.625 190.34374,243.88944 190.34375,208.5 C 190.34375,173.11056 161.60819,144.40626 126.21875,144.40625 z M 126.21875,161.75 C 152.02355,161.75 172.96875,182.6952 172.96875,208.5 C 172.96875,234.30481 152.02355,255.25 126.21875,255.25 C 100.41395,255.25 79.46875,234.3048 79.46875,208.5 C 79.46875,182.6952 100.41395,161.75 126.21875,161.75 z"
           id="path3300" />
        <path
           id="path3302"
           d="M 126.21875,178.46538 C 109.63052,178.46538 96.161181,191.92007 96.161181,208.5083 C 96.161181,225.09654 109.63052,238.56587 126.21875,238.56587 C 142.80698,238.56587 156.27631,225.09654 156.27632,208.5083 C 156.27632,191.92007 142.80698,178.46538 126.21875,178.46538 z M 126.21875,186.59499 C 138.31434,186.59499 148.13207,196.41271 148.13207,208.5083 C 148.13207,220.60389 138.31434,230.42162 126.21875,230.42162 C 114.12316,230.42162 104.30543,220.60389 104.30543,208.5083 C 104.30543,196.41271 114.12316,186.59499 126.21875,186.59499 z"
           style="opacity:1;fill:#ffffff;fill-opacity:1;stroke:none;stroke-width:1;stroke-linejoin:round;stroke-miterlimit:4;stroke-dasharray:none;stroke-dashoffset:0;stroke-opacity:1" />
      </g>
      <g
         transform="matrix(0.8022122,0,0,0.8022122,84.570115,64.942904)"
         id="g3310">
        <g
           id="g3280"
           transform="matrix(0.4010554,0,0,0.4010554,297.65753,82.48033)">
          <path
             id="path3282"
             d="M 126.21875,144.40625 C 90.82931,144.40625 62.09375,173.11056 62.09375,208.5 C 62.09375,243.88944 90.82931,272.62499 126.21875,272.625 C 161.60819,272.625 190.34374,243.88944 190.34375,208.5 C 190.34375,173.11056 161.60819,144.40626 126.21875,144.40625 z M 126.21875,161.75 C 152.02355,161.75 172.96875,182.6952 172.96875,208.5 C 172.96875,234.30481 152.02355,255.25 126.21875,255.25 C 100.41395,255.25 79.46875,234.3048 79.46875,208.5 C 79.46875,182.6952 100.41395,161.75 126.21875,161.75 z"
             style="opacity:1;fill:#ffffff;fill-opacity:1;stroke:none;stroke-width:1;stroke-linejoin:round;stroke-miterlimit:4;stroke-dasharray:none;stroke-dashoffset:0;stroke-opacity:1" />
          <path
             style="opacity:1;fill:#ffffff;fill-opacity:1;stroke:none;stroke-width:1;stroke-linejoin:round;stroke-miterlimit:4;stroke-dasharray:none;stroke-dashoffset:0;stroke-opacity:1"
             d="M 126.21875,178.46538 C 109.63052,178.46538 96.161181,191.92007 96.161181,208.5083 C 96.161181,225.09654 109.63052,238.56587 126.21875,238.56587 C 142.80698,238.56587 156.27631,225.09654 156.27632,208.5083 C 156.27632,191.92007 142.80698,178.46538 126.21875,178.46538 z M 126.21875,186.59499 C 138.31434,186.59499 148.13207,196.41271 148.13207,208.5083 C 148.13207,220.60389 138.31434,230.42162 126.21875,230.42162 C 114.12316,230.42162 104.30543,220.60389 104.30543,208.5083 C 104.30543,196.41271 114.12316,186.59499 126.21875,186.59499 z"
             id="path3284" />
        </g>
        <path
           sodipodi:type="arc"
           style="opacity:1;fill:#ffffff;fill-opacity:1;stroke:none;stroke-width:1;stroke-linejoin:round;stroke-miterlimit:4;stroke-dasharray:none;stroke-dashoffset:0;stroke-opacity:1"
           id="path3308"
           sodipodi:cx="171.6313"
           sodipodi:cy="207.84"
           sodipodi:rx="40.069565"
           sodipodi:ry="40.069565"
           d="M 211.70087,207.84 A 40.069565,40.069565 0 1 1 131.56174,207.84 A 40.069565,40.069565 0 1 1 211.70087,207.84 z"
           transform="matrix(0.3,0,0,0.3,296.78885,103.75465)" />
      </g>
      <g
         transform="matrix(0.1494824,0,0,0.1494824,319.75123,145.67208)"
         id="g3316">
        <g
           transform="matrix(0.4010554,0,0,0.4010554,297.65753,82.48033)"
           id="g3318">
          <path
             style="opacity:1;fill:#ffffff;fill-opacity:1;stroke:none;stroke-width:1;stroke-linejoin:round;stroke-miterlimit:4;stroke-dasharray:none;stroke-dashoffset:0;stroke-opacity:1"
             d="M 126.21875,144.40625 C 90.82931,144.40625 62.09375,173.11056 62.09375,208.5 C 62.09375,243.88944 90.82931,272.62499 126.21875,272.625 C 161.60819,272.625 190.34374,243.88944 190.34375,208.5 C 190.34375,173.11056 161.60819,144.40626 126.21875,144.40625 z M 126.21875,161.75 C 152.02355,161.75 172.96875,182.6952 172.96875,208.5 C 172.96875,234.30481 152.02355,255.25 126.21875,255.25 C 100.41395,255.25 79.46875,234.3048 79.46875,208.5 C 79.46875,182.6952 100.41395,161.75 126.21875,161.75 z"
             id="path3320" />
          <path
             id="path3322"
             d="M 126.21875,178.46538 C 109.63052,178.46538 96.161181,191.92007 96.161181,208.5083 C 96.161181,225.09654 109.63052,238.56587 126.21875,238.56587 C 142.80698,238.56587 156.27631,225.09654 156.27632,208.5083 C 156.27632,191.92007 142.80698,178.46538 126.21875,178.46538 z M 126.21875,186.59499 C 138.31434,186.59499 148.13207,196.41271 148.13207,208.5083 C 148.13207,220.60389 138.31434,230.42162 126.21875,230.42162 C 114.12316,230.42162 104.30543,220.60389 104.30543,208.5083 C 104.30543,196.41271 114.12316,186.59499 126.21875,186.59499 z"
             style="opacity:1;fill:#ffffff;fill-opacity:1;stroke:none;stroke-width:1;stroke-linejoin:round;stroke-miterlimit:4;stroke-dasharray:none;stroke-dashoffset:0;stroke-opacity:1" />
        </g>
        <path
           transform="matrix(0.3,0,0,0.3,296.78885,103.75465)"
           d="M 211.70087,207.84 A 40.069565,40.069565 0 1 1 131.56174,207.84 A 40.069565,40.069565 0 1 1 211.70087,207.84 z"
           sodipodi:ry="40.069565"
           sodipodi:rx="40.069565"
           sodipodi:cy="207.84"
           sodipodi:cx="171.6313"
           id="path3324"
           style="opacity:1;fill:#ffffff;fill-opacity:1;stroke:none;stroke-width:1;stroke-linejoin:round;stroke-miterlimit:4;stroke-dasharray:none;stroke-dashoffset:0;stroke-opacity:1"
           sodipodi:type="arc" />
      </g>
      <path
         transform="matrix(0.294163,0,0,0.294163,276.94525,49.875019)"
         d="M 185.65564,215.85391 C 230.04118,234.53637 228.68309,169.06242 185.43211,190.23938 C 105.57307,229.34073 166.01559,140.53997 158.53359,229.14246 C 154.48141,277.12882 216.33116,255.60463 182.82538,221.01455 C 120.95999,157.14707 224.0923,187.19038 137.51425,207.45425 C 90.624323,218.42899 130.20767,270.60026 152.75094,228.04545 C 194.37506,149.47183 197.67181,256.84038 151.64563,180.76165 C 126.71825,139.55805 89.332353,193.32586 136.77063,201.61562 C 224.36115,216.92193 123.26635,253.23603 181.39865,185.95292 C 212.88261,149.51296 150.19351,130.57202 156.96871,178.25019 C 169.4785,266.28363 103.70173,181.35843 185.65564,215.85391 z"
         inkscape:randomized="0"
         inkscape:rounded="1.88"
         inkscape:flatsided="false"
         sodipodi:arg2="-0.54381798"
         sodipodi:arg1="0.48689923"
         sodipodi:r2="26.272663"
         sodipodi:r1="25.691782"
         sodipodi:cy="203.83304"
         sodipodi:cx="162.94955"
         sodipodi:sides="5"
         id="path3330"
         style="opacity:1;fill:#ffffff;fill-opacity:1;stroke:none;stroke-width:1;stroke-linejoin:round;stroke-miterlimit:4;stroke-dasharray:none;stroke-dashoffset:0;stroke-opacity:1"
         sodipodi:type="star" />
      <path
         sodipodi:type="star"
         style="opacity:1;fill:#ffffff;fill-opacity:1;stroke:none;stroke-width:1;stroke-linejoin:round;stroke-miterlimit:4;stroke-dasharray:none;stroke-dashoffset:0;stroke-opacity:1"
         id="path3332"
         sodipodi:sides="5"
         sodipodi:cx="162.94955"
         sodipodi:cy="203.83304"
         sodipodi:r1="25.691782"
         sodipodi:r2="26.272663"
         sodipodi:arg1="0.48689923"
         sodipodi:arg2="-0.54381798"
         inkscape:flatsided="false"
         inkscape:rounded="1.88"
         inkscape:randomized="0"
         d="M 185.65564,215.85391 C 230.04118,234.53637 228.68309,169.06242 185.43211,190.23938 C 105.57307,229.34073 166.01559,140.53997 158.53359,229.14246 C 154.48141,277.12882 216.33116,255.60463 182.82538,221.01455 C 120.95999,157.14707 224.0923,187.19038 137.51425,207.45425 C 90.624323,218.42899 130.20767,270.60026 152.75094,228.04545 C 194.37506,149.47183 197.67181,256.84038 151.64563,180.76165 C 126.71825,139.55805 89.332353,193.32586 136.77063,201.61562 C 224.36115,216.92193 123.26635,253.23603 181.39865,185.95292 C 212.88261,149.51296 150.19351,130.57202 156.96871,178.25019 C 169.4785,266.28363 103.70173,181.35843 185.65564,215.85391 z"
         transform="matrix(0.1526295,0,0,0.1526295,313.61386,129.01655)" />
      <path
         sodipodi:nodetypes="csccsc"
         d="M 354.22109,61.871567 C 361.10807,87.011915 376.52202,106.80468 334.30227,142.73462 C 292.08254,178.66457 301.93186,239.98047 325.18151,265.04091 C 348.43116,290.10135 353.96126,286.15189 330.89346,260.66064 C 307.82564,235.1694 296.92288,179.18501 336.96401,144.57015 C 377.00513,109.95529 361.62943,86.945411 354.2565,62.054121"
         style="fill:#ffffff;fill-opacity:1;fill-rule:evenodd;stroke:none;stroke-width:1px;stroke-linecap:butt;stroke-linejoin:miter;stroke-opacity:1"
         id="path3340" />
      <g
         id="g3347"
         transform="matrix(-0.332517,1.8495754e-2,-1.8495754e-2,-0.332517,442.83906,171.89961)">
        <path
           sodipodi:nodetypes="csssssssssssccsssssssssssc"
           d="M 236.05574,132.77327 C 236.06031,132.7725 236.05592,132.77265 236.05574,132.77327 C 236.03929,132.83179 236.09028,132.7562 236.05574,132.77327 C 235.59699,132.99985 235.63565,132.56568 235.80306,132.38584 C 236.23129,131.92574 236.97459,132.26613 237.29836,132.68855 C 238.11797,133.7579 237.3941,135.23789 236.39028,135.87794 C 234.26634,137.23219 231.58115,135.8328 230.47415,133.83612 C 228.39955,130.09427 230.8389,125.62254 234.37095,123.86964 C 240.4345,120.86037 247.41275,124.7999 250.01933,130.54937 C 254.207,139.78642 248.20587,150.13689 239.40988,153.83437 C 225.99278,159.47443 211.25219,150.74421 206.19628,137.91875 C 198.79906,119.15404 211.03629,98.847308 229.03432,92.134551 C 254.48085,82.643722 281.69353,99.280482 290.39311,123.76003 M 236.05574,132.77327 C 236.05856,132.77695 236.05636,132.77314 236.05574,132.77327 C 235.99637,132.78632 236.05192,132.81162 236.05574,132.77327 C 236.07921,132.53703 236.31149,132.385 236.48838,132.43939 C 237.08916,132.62415 237.146,133.41631 236.92598,133.90093 C 236.369,135.12772 234.72253,135.18665 233.68498,134.60286 C 231.48968,133.36763 231.45867,130.33984 232.69815,128.42258 C 235.02098,124.82954 240.11458,124.87397 243.32502,127.16331 C 248.83646,131.09351 248.64993,139.10482 244.80703,144.11307 C 238.63305,152.15928 226.67593,151.74341 219.26989,145.72747 C 207.97297,136.55095 208.72729,119.43569 217.65721,108.93276 C 230.72242,93.566137 254.59291,94.575279 268.80135,107.50237 C 288.56373,125.48253 275.8873,134.16849 290.39311,123.76003"
           style="fill:#ffffff;fill-opacity:1;fill-rule:evenodd;stroke:none;stroke-width:1px;stroke-linecap:butt;stroke-linejoin:miter;stroke-opacity:1"
           id="path3349" />
        <path
           id="path3351"
           style="fill:#ffffff;fill-opacity:1;fill-rule:evenodd;stroke:none;stroke-width:1px;stroke-linecap:butt;stroke-linejoin:miter;stroke-opacity:1"
           d="M 205.61927,88.533492 C 205.62079,88.534659 205.61921,88.533755 205.61927,88.533492 C 205.62459,88.50886 205.62862,88.54644 205.61927,88.533492 C 205.49515,88.361527 205.42512,88.528075 205.45157,88.626426 C 205.51924,88.878009 205.85755,88.897446 206.05807,88.805479 C 206.56567,88.57267 206.58747,87.890125 206.34384,87.460999 C 205.82837,86.55304 204.57332,86.545005 203.78062,87.061806 C 202.29503,88.030306 202.32156,90.141486 203.27558,91.46854 C 204.91336,93.74672 208.23368,93.65666 210.30343,92.055845 C 213.62868,89.483983 213.43728,84.528544 210.93195,81.468402 C 207.1104,76.800544 200.01749,77.140433 195.67836,80.858506 C 189.32984,86.298358 189.87516,96.110387 195.16687,102.05949 C 202.64856,110.47064 215.84361,109.65273 223.77739,102.37185 M 205.61927,88.533492 C 205.62102,88.532687 205.61948,88.533658 205.61927,88.533492 C 205.60005,88.517198 205.62531,88.5187 205.61927,88.533492 C 205.58206,88.624588 205.63768,88.72532 205.71302,88.739694 C 205.96893,88.788508 206.14336,88.509326 206.15674,88.289132 C 206.19057,87.731707 205.59884,87.390855 205.10554,87.403536 C 204.0618,87.430356 203.46333,88.533543 203.54562,89.476251 C 203.69984,91.242938 205.57444,92.21435 207.19446,91.99821 C 209.97561,91.62714 211.46075,88.656119 211.02408,86.076233 C 210.32254,81.931412 205.86156,79.765181 201.9819,80.532957 C 196.064,81.704101 193.02155,88.120347 194.25631,93.699546 C 196.06288,101.86239 205.00324,106.12139 212.715,104.14083 C 223.44122,101.38611 220.48164,95.746038 223.77739,102.37185"
           sodipodi:nodetypes="csssssssssssccsssssssssssc" />
      </g>
      <g
         transform="matrix(0.3307441,3.8960827e-2,-3.8960827e-2,0.3307441,234.13606,102.6439)"
         id="g3353">
        <path
           id="path3355"
           style="fill:#ffffff;fill-opacity:1;fill-rule:evenodd;stroke:none;stroke-width:1px;stroke-linecap:butt;stroke-linejoin:miter;stroke-opacity:1"
           d="M 236.05574,132.77327 C 236.06031,132.7725 236.05592,132.77265 236.05574,132.77327 C 236.03929,132.83179 236.09028,132.7562 236.05574,132.77327 C 235.59699,132.99985 235.63565,132.56568 235.80306,132.38584 C 236.23129,131.92574 236.97459,132.26613 237.29836,132.68855 C 238.11797,133.7579 237.3941,135.23789 236.39028,135.87794 C 234.26634,137.23219 231.58115,135.8328 230.47415,133.83612 C 228.39955,130.09427 230.8389,125.62254 234.37095,123.86964 C 240.4345,120.86037 247.41275,124.7999 250.01933,130.54937 C 254.207,139.78642 248.20587,150.13689 239.40988,153.83437 C 225.99278,159.47443 211.25219,150.74421 206.19628,137.91875 C 198.79906,119.15404 211.03629,98.847308 229.03432,92.134551 C 254.48085,82.643722 281.69353,99.280482 290.39311,123.76003 M 236.05574,132.77327 C 236.05856,132.77695 236.05636,132.77314 236.05574,132.77327 C 235.99637,132.78632 236.05192,132.81162 236.05574,132.77327 C 236.07921,132.53703 236.31149,132.385 236.48838,132.43939 C 237.08916,132.62415 237.146,133.41631 236.92598,133.90093 C 236.369,135.12772 234.72253,135.18665 233.68498,134.60286 C 231.48968,133.36763 231.45867,130.33984 232.69815,128.42258 C 235.02098,124.82954 240.11458,124.87397 243.32502,127.16331 C 248.83646,131.09351 248.64993,139.10482 244.80703,144.11307 C 238.63305,152.15928 226.67593,151.74341 219.26989,145.72747 C 207.97297,136.55095 208.72729,119.43569 217.65721,108.93276 C 230.72242,93.566137 254.59291,94.575279 268.80135,107.50237 C 288.56373,125.48253 275.8873,134.16849 290.39311,123.76003"
           sodipodi:nodetypes="csssssssssssccsssssssssssc" />
        <path
           sodipodi:nodetypes="csssssssssssccsssssssssssc"
           d="M 205.61927,88.533492 C 205.62079,88.534659 205.61921,88.533755 205.61927,88.533492 C 205.62459,88.50886 205.62862,88.54644 205.61927,88.533492 C 205.49515,88.361527 205.42512,88.528075 205.45157,88.626426 C 205.51924,88.878009 205.85755,88.897446 206.05807,88.805479 C 206.56567,88.57267 206.58747,87.890125 206.34384,87.460999 C 205.82837,86.55304 204.57332,86.545005 203.78062,87.061806 C 202.29503,88.030306 202.32156,90.141486 203.27558,91.46854 C 204.91336,93.74672 208.23368,93.65666 210.30343,92.055845 C 213.62868,89.483983 213.43728,84.528544 210.93195,81.468402 C 207.1104,76.800544 200.01749,77.140433 195.67836,80.858506 C 189.32984,86.298358 189.87516,96.110387 195.16687,102.05949 C 202.64856,110.47064 215.84361,109.65273 223.77739,102.37185 M 205.61927,88.533492 C 205.62102,88.532687 205.61948,88.533658 205.61927,88.533492 C 205.60005,88.517198 205.62531,88.5187 205.61927,88.533492 C 205.58206,88.624588 205.63768,88.72532 205.71302,88.739694 C 205.96893,88.788508 206.14336,88.509326 206.15674,88.289132 C 206.19057,87.731707 205.59884,87.390855 205.10554,87.403536 C 204.0618,87.430356 203.46333,88.533543 203.54562,89.476251 C 203.69984,91.242938 205.57444,92.21435 207.19446,91.99821 C 209.97561,91.62714 211.46075,88.656119 211.02408,86.076233 C 210.32254,81.931412 205.86156,79.765181 201.9819,80.532957 C 196.064,81.704101 193.02155,88.120347 194.25631,93.699546 C 196.06288,101.86239 205.00324,106.12139 212.715,104.14083 C 223.44122,101.38611 220.48164,95.746038 223.77739,102.37185"
           style="fill:#ffffff;fill-opacity:1;fill-rule:evenodd;stroke:none;stroke-width:1px;stroke-linecap:butt;stroke-linejoin:miter;stroke-opacity:1"
           id="path3357" />
      </g>
      <path
         transform="matrix(6.3754517e-2,0,0,6.3754517e-2,281.05234,136.57417)"
         d="M 185.65564,215.85391 C 230.04118,234.53637 228.68309,169.06242 185.43211,190.23938 C 105.57307,229.34073 166.01559,140.53997 158.53359,229.14246 C 154.48141,277.12882 216.33116,255.60463 182.82538,221.01455 C 120.95999,157.14707 224.0923,187.19038 137.51425,207.45425 C 90.624323,218.42899 130.20767,270.60026 152.75094,228.04545 C 194.37506,149.47183 197.67181,256.84038 151.64563,180.76165 C 126.71825,139.55805 89.332353,193.32586 136.77063,201.61562 C 224.36115,216.92193 123.26635,253.23603 181.39865,185.95292 C 212.88261,149.51296 150.19351,130.57202 156.96871,178.25019 C 169.4785,266.28363 103.70173,181.35843 185.65564,215.85391 z"
         inkscape:randomized="0"
         inkscape:rounded="1.88"
         inkscape:flatsided="false"
         sodipodi:arg2="-0.54381798"
         sodipodi:arg1="0.48689923"
         sodipodi:r2="26.272663"
         sodipodi:r1="25.691782"
         sodipodi:cy="203.83304"
         sodipodi:cx="162.94955"
         sodipodi:sides="5"
         id="path3375"
         style="opacity:1;fill:#ffffff;fill-opacity:1;stroke:none;stroke-width:1;stroke-linejoin:round;stroke-miterlimit:4;stroke-dasharray:none;stroke-dashoffset:0;stroke-opacity:1"
         sodipodi:type="star" />
      <path
         sodipodi:nodetypes="cccc"
         d="M 264.77135,112.77658 C 283.95964,134.58375 263.66408,170.38166 311.21077,179.99954 C 312.95886,180.73681 311.29448,182.99592 309.51451,182.43492 C 261.96782,172.81704 283.91293,134.6148 264.72463,112.80762"
         style="fill:#ffffff;fill-opacity:1;fill-rule:evenodd;stroke:none;stroke-width:1px;stroke-linecap:butt;stroke-linejoin:miter;stroke-opacity:1"
         id="path3377" />
      <path
         transform="matrix(0.8022122,0,0,0.8022122,74.752807,55.661334)"
         sodipodi:nodetypes="cccc"
         d="M 373.82647,9.1947481 C 321.49122,-12.306164 230.30772,63.25072 334.00723,218.82243 C 348.43662,241.37427 321.1875,232.13552 328.69961,231.38685 C 223.11475,58.84704 320.96767,-14.683318 373.56705,9.1947481"
         style="opacity:0.2;fill:#ffffff;fill-opacity:1;fill-rule:evenodd;stroke:none;stroke-width:1px;stroke-linecap:butt;stroke-linejoin:miter;stroke-opacity:1;filter:url(#filter3474)"
         id="path3447" />
      <g
         id="g3490">
        <g
           id="g3270"
           transform="matrix(0.8607087,0,0,0.8607087,276.84221,78.286909)">
          <path
             id="path3263"
             d="M 126.21875,144.40625 C 90.82931,144.40625 62.09375,173.11056 62.09375,208.5 C 62.09375,243.88944 90.82931,272.62499 126.21875,272.625 C 161.60819,272.625 190.34374,243.88944 190.34375,208.5 C 190.34375,173.11056 161.60819,144.40626 126.21875,144.40625 z M 126.21875,161.75 C 152.02355,161.75 172.96875,182.6952 172.96875,208.5 C 172.96875,234.30481 152.02355,255.25 126.21875,255.25 C 100.41395,255.25 79.46875,234.3048 79.46875,208.5 C 79.46875,182.6952 100.41395,161.75 126.21875,161.75 z"
             style="opacity:1;fill:#ffffff;fill-opacity:1;stroke:none;stroke-width:1;stroke-linejoin:round;stroke-miterlimit:4;stroke-dasharray:none;stroke-dashoffset:0;stroke-opacity:1" />
          <path
             style="opacity:1;fill:#ffffff;fill-opacity:1;stroke:none;stroke-width:1;stroke-linejoin:round;stroke-miterlimit:4;stroke-dasharray:none;stroke-dashoffset:0;stroke-opacity:1"
             d="M 126.21875,178.46538 C 109.63052,178.46538 96.161181,191.92007 96.161181,208.5083 C 96.161181,225.09654 109.63052,238.56587 126.21875,238.56587 C 142.80698,238.56587 156.27631,225.09654 156.27632,208.5083 C 156.27632,191.92007 142.80698,178.46538 126.21875,178.46538 z M 126.21875,186.59499 C 138.31434,186.59499 148.13207,196.41271 148.13207,208.5083 C 148.13207,220.60389 138.31434,230.42162 126.21875,230.42162 C 114.12316,230.42162 104.30543,220.60389 104.30543,208.5083 C 104.30543,196.41271 114.12316,186.59499 126.21875,186.59499 z"
             id="path3268" />
        </g>
        <g
           transform="matrix(0.1504553,0,0,0.1504553,311.00012,181.56628)"
           id="g3286">
          <path
             style="opacity:1;fill:#ffffff;fill-opacity:1;stroke:none;stroke-width:1;stroke-linejoin:round;stroke-miterlimit:4;stroke-dasharray:none;stroke-dashoffset:0;stroke-opacity:1"
             d="M 126.21875,144.40625 C 90.82931,144.40625 62.09375,173.11056 62.09375,208.5 C 62.09375,243.88944 90.82931,272.62499 126.21875,272.625 C 161.60819,272.625 190.34374,243.88944 190.34375,208.5 C 190.34375,173.11056 161.60819,144.40626 126.21875,144.40625 z M 126.21875,161.75 C 152.02355,161.75 172.96875,182.6952 172.96875,208.5 C 172.96875,234.30481 152.02355,255.25 126.21875,255.25 C 100.41395,255.25 79.46875,234.3048 79.46875,208.5 C 79.46875,182.6952 100.41395,161.75 126.21875,161.75 z"
             id="path3288" />
          <path
             id="path3290"
             d="M 126.21875,178.46538 C 109.63052,178.46538 96.161181,191.92007 96.161181,208.5083 C 96.161181,225.09654 109.63052,238.56587 126.21875,238.56587 C 142.80698,238.56587 156.27631,225.09654 156.27632,208.5083 C 156.27632,191.92007 142.80698,178.46538 126.21875,178.46538 z M 126.21875,186.59499 C 138.31434,186.59499 148.13207,196.41271 148.13207,208.5083 C 148.13207,220.60389 138.31434,230.42162 126.21875,230.42162 C 114.12316,230.42162 104.30543,220.60389 104.30543,208.5083 C 104.30543,196.41271 114.12316,186.59499 126.21875,186.59499 z"
             style="opacity:1;fill:#ffffff;fill-opacity:1;stroke:none;stroke-width:1;stroke-linejoin:round;stroke-miterlimit:4;stroke-dasharray:none;stroke-dashoffset:0;stroke-opacity:1" />
        </g>
        <path
           sodipodi:nodetypes="csssssssssssccsssssssssssc"
           d="M 383.33594,252.87631 C 383.33764,252.87835 383.33579,252.87666 383.33594,252.87631 C 383.3505,252.84469 383.34466,252.8966 383.33594,252.87631 C 383.22002,252.60709 383.0756,252.81082 383.08182,252.95144 C 383.09767,253.31118 383.54832,253.43883 383.84645,253.37486 C 384.60115,253.21291 384.83519,252.29852 384.63512,251.64647 C 384.21181,250.26685 382.52083,249.87975 381.2963,250.3394 C 379.0015,251.20078 378.40436,254.05728 379.29373,256.13384 C 380.82055,259.69875 385.32754,260.57266 388.60012,259.03326 C 393.85783,256.56003 395.08523,249.81643 392.62229,244.93636 C 388.86543,237.49246 379.19329,235.82459 372.22395,239.5404 C 362.0272,244.97692 359.82132,258.37949 365.1777,267.9929 C 372.75084,281.58483 389.18274,281.89616 402.07037,274.45087 M 383.33594,252.87631 C 383.33853,252.87576 383.33616,252.87661 383.33594,252.87631 C 383.31489,252.84857 383.34851,252.85818 383.33594,252.87631 C 383.25842,252.98808 383.30326,253.14067 383.40061,253.18266 C 383.73128,253.32524 384.05032,253.00085 384.13439,252.70775 C 384.34716,251.96579 383.65094,251.32847 382.98155,251.19768 C 381.56521,250.92096 380.42697,252.23003 380.25539,253.52667 C 379.93382,255.95664 382.17192,257.82935 384.42257,258.02341 C 388.28634,258.35653 391.18089,254.79307 391.36518,251.1812 C 391.66124,245.37839 386.2916,241.11815 380.82672,240.99096 C 372.49077,240.79694 366.46208,248.54205 366.45544,256.4401 C 366.44577,267.99557 377.23185,276.42245 388.23088,276.06214 C 403.52931,275.56102 399.60996,264.52278 402.07037,274.45087"
           style="fill:#ffffff;fill-opacity:1;fill-rule:evenodd;stroke:none;stroke-width:1px;stroke-linecap:butt;stroke-linejoin:miter;stroke-opacity:1"
           id="path3484" />
      </g>
      <g
         transform="matrix(0.5599607,0,0,-0.5599607,195.70822,331.82795)"
         id="g3512">
        <g
           transform="matrix(0.8607087,0,0,0.8607087,276.84221,78.286909)"
           id="g3516">
          <path
             style="opacity:1;fill:#ffffff;fill-opacity:1;stroke:none;stroke-width:1;stroke-linejoin:round;stroke-miterlimit:4;stroke-dasharray:none;stroke-dashoffset:0;stroke-opacity:1"
             d="M 126.21875,144.40625 C 90.82931,144.40625 62.09375,173.11056 62.09375,208.5 C 62.09375,243.88944 90.82931,272.62499 126.21875,272.625 C 161.60819,272.625 190.34374,243.88944 190.34375,208.5 C 190.34375,173.11056 161.60819,144.40626 126.21875,144.40625 z M 126.21875,161.75 C 152.02355,161.75 172.96875,182.6952 172.96875,208.5 C 172.96875,234.30481 152.02355,255.25 126.21875,255.25 C 100.41395,255.25 79.46875,234.3048 79.46875,208.5 C 79.46875,182.6952 100.41395,161.75 126.21875,161.75 z"
             id="path3518" />
          <path
             id="path3520"
             d="M 126.21875,178.46538 C 109.63052,178.46538 96.161181,191.92007 96.161181,208.5083 C 96.161181,225.09654 109.63052,238.56587 126.21875,238.56587 C 142.80698,238.56587 156.27631,225.09654 156.27632,208.5083 C 156.27632,191.92007 142.80698,178.46538 126.21875,178.46538 z M 126.21875,186.59499 C 138.31434,186.59499 148.13207,196.41271 148.13207,208.5083 C 148.13207,220.60389 138.31434,230.42162 126.21875,230.42162 C 114.12316,230.42162 104.30543,220.60389 104.30543,208.5083 C 104.30543,196.41271 114.12316,186.59499 126.21875,186.59499 z"
             style="opacity:1;fill:#ffffff;fill-opacity:1;stroke:none;stroke-width:1;stroke-linejoin:round;stroke-miterlimit:4;stroke-dasharray:none;stroke-dashoffset:0;stroke-opacity:1" />
        </g>
        <g
           id="g3528"
           transform="matrix(0.8607087,0,0,0.8607087,276.84221,78.286909)">
          <path
             id="path3530"
             d="M 126.21875,144.40625 C 90.82931,144.40625 62.09375,173.11056 62.09375,208.5 C 62.09375,243.88944 90.82931,272.62499 126.21875,272.625 C 161.60819,272.625 190.34374,243.88944 190.34375,208.5 C 190.34375,173.11056 161.60819,144.40626 126.21875,144.40625 z M 126.21875,161.75 C 152.02355,161.75 172.96875,182.6952 172.96875,208.5 C 172.96875,234.30481 152.02355,255.25 126.21875,255.25 C 100.41395,255.25 79.46875,234.3048 79.46875,208.5 C 79.46875,182.6952 100.41395,161.75 126.21875,161.75 z"
             style="opacity:1;fill:#ffffff;fill-opacity:1;stroke:none;stroke-width:1;stroke-linejoin:round;stroke-miterlimit:4;stroke-dasharray:none;stroke-dashoffset:0;stroke-opacity:1" />
          <path
             style="opacity:1;fill:#ffffff;fill-opacity:1;stroke:none;stroke-width:1;stroke-linejoin:round;stroke-miterlimit:4;stroke-dasharray:none;stroke-dashoffset:0;stroke-opacity:1"
             d="M 126.21875,178.46538 C 109.63052,178.46538 96.161181,191.92007 96.161181,208.5083 C 96.161181,225.09654 109.63052,238.56587 126.21875,238.56587 C 142.80698,238.56587 156.27631,225.09654 156.27632,208.5083 C 156.27632,191.92007 142.80698,178.46538 126.21875,178.46538 z M 126.21875,186.59499 C 138.31434,186.59499 148.13207,196.41271 148.13207,208.5083 C 148.13207,220.60389 138.31434,230.42162 126.21875,230.42162 C 114.12316,230.42162 104.30543,220.60389 104.30543,208.5083 C 104.30543,196.41271 114.12316,186.59499 126.21875,186.59499 z"
             id="path3532" />
        </g>
        <path
           id="path3552"
           style="fill:#ffffff;fill-opacity:1;fill-rule:evenodd;stroke:none;stroke-width:1px;stroke-linecap:butt;stroke-linejoin:miter;stroke-opacity:1"
           d="M 383.33594,252.87631 C 383.33764,252.87835 383.33579,252.87666 383.33594,252.87631 C 383.3505,252.84469 383.34466,252.8966 383.33594,252.87631 C 383.22002,252.60709 383.0756,252.81082 383.08182,252.95144 C 383.09767,253.31118 383.54832,253.43883 383.84645,253.37486 C 384.60115,253.21291 384.83519,252.29852 384.63512,251.64647 C 384.21181,250.26685 382.52083,249.87975 381.2963,250.3394 C 379.0015,251.20078 378.40436,254.05728 379.29373,256.13384 C 380.82055,259.69875 385.32754,260.57266 388.60012,259.03326 C 393.85783,256.56003 395.08523,249.81643 392.62229,244.93636 C 388.86543,237.49246 379.19329,235.82459 372.22395,239.5404 C 362.0272,244.97692 359.82132,258.37949 365.1777,267.9929 C 372.75084,281.58483 390.79973,284.43714 403.68736,276.99185 M 383.33594,252.87631 C 383.33853,252.87576 383.33616,252.87661 383.33594,252.87631 C 383.31489,252.84857 383.34851,252.85818 383.33594,252.87631 C 383.25842,252.98808 383.30326,253.14067 383.40061,253.18266 C 383.73128,253.32524 384.05032,253.00085 384.13439,252.70775 C 384.34716,251.96579 383.65094,251.32847 382.98155,251.19768 C 381.56521,250.92096 380.42697,252.23003 380.25539,253.52667 C 379.93382,255.95664 382.17192,257.82935 384.42257,258.02341 C 388.28634,258.35653 391.18089,254.79307 391.36518,251.1812 C 391.66124,245.37839 386.2916,241.11815 380.82672,240.99096 C 372.49077,240.79694 366.46208,248.54205 366.45544,256.4401 C 366.44577,267.99557 377.23185,276.42245 388.23088,276.06214 C 403.52931,275.56102 401.22695,267.06376 403.68736,276.99185"
           sodipodi:nodetypes="csssssssssssccsssssssssssc" />
      </g>
      <g
         transform="matrix(0.4632766,0,0,0.4632766,144.43674,176.99687)"
         id="g3566">
        <g
           id="g3570"
           transform="matrix(0.8607087,0,0,0.8607087,276.84221,78.286909)">
          <path
             id="path3572"
             d="M 126.21875,144.40625 C 90.82931,144.40625 62.09375,173.11056 62.09375,208.5 C 62.09375,243.88944 90.82931,272.62499 126.21875,272.625 C 161.60819,272.625 190.34374,243.88944 190.34375,208.5 C 190.34375,173.11056 161.60819,144.40626 126.21875,144.40625 z M 126.21875,161.75 C 152.02355,161.75 172.96875,182.6952 172.96875,208.5 C 172.96875,234.30481 152.02355,255.25 126.21875,255.25 C 100.41395,255.25 79.46875,234.3048 79.46875,208.5 C 79.46875,182.6952 100.41395,161.75 126.21875,161.75 z"
             style="opacity:1;fill:#ffffff;fill-opacity:1;stroke:none;stroke-width:1;stroke-linejoin:round;stroke-miterlimit:4;stroke-dasharray:none;stroke-dashoffset:0;stroke-opacity:1" />
          <path
             style="opacity:1;fill:#ffffff;fill-opacity:1;stroke:none;stroke-width:1;stroke-linejoin:round;stroke-miterlimit:4;stroke-dasharray:none;stroke-dashoffset:0;stroke-opacity:1"
             d="M 126.21875,178.46538 C 109.63052,178.46538 96.161181,191.92007 96.161181,208.5083 C 96.161181,225.09654 109.63052,238.56587 126.21875,238.56587 C 142.80698,238.56587 156.27631,225.09654 156.27632,208.5083 C 156.27632,191.92007 142.80698,178.46538 126.21875,178.46538 z M 126.21875,186.59499 C 138.31434,186.59499 148.13207,196.41271 148.13207,208.5083 C 148.13207,220.60389 138.31434,230.42162 126.21875,230.42162 C 114.12316,230.42162 104.30543,220.60389 104.30543,208.5083 C 104.30543,196.41271 114.12316,186.59499 126.21875,186.59499 z"
             id="path3574" />
        </g>
        <g
           transform="matrix(0.1504553,0,0,0.1504553,311.00012,181.56628)"
           id="g3576">
          <path
             style="opacity:1;fill:#ffffff;fill-opacity:1;stroke:none;stroke-width:1;stroke-linejoin:round;stroke-miterlimit:4;stroke-dasharray:none;stroke-dashoffset:0;stroke-opacity:1"
             d="M 126.21875,144.40625 C 90.82931,144.40625 62.09375,173.11056 62.09375,208.5 C 62.09375,243.88944 90.82931,272.62499 126.21875,272.625 C 161.60819,272.625 190.34374,243.88944 190.34375,208.5 C 190.34375,173.11056 161.60819,144.40626 126.21875,144.40625 z M 126.21875,161.75 C 152.02355,161.75 172.96875,182.6952 172.96875,208.5 C 172.96875,234.30481 152.02355,255.25 126.21875,255.25 C 100.41395,255.25 79.46875,234.3048 79.46875,208.5 C 79.46875,182.6952 100.41395,161.75 126.21875,161.75 z"
             id="path3578" />
          <path
             id="path3580"
             d="M 126.21875,178.46538 C 109.63052,178.46538 96.161181,191.92007 96.161181,208.5083 C 96.161181,225.09654 109.63052,238.56587 126.21875,238.56587 C 142.80698,238.56587 156.27631,225.09654 156.27632,208.5083 C 156.27632,191.92007 142.80698,178.46538 126.21875,178.46538 z M 126.21875,186.59499 C 138.31434,186.59499 148.13207,196.41271 148.13207,208.5083 C 148.13207,220.60389 138.31434,230.42162 126.21875,230.42162 C 114.12316,230.42162 104.30543,220.60389 104.30543,208.5083 C 104.30543,196.41271 114.12316,186.59499 126.21875,186.59499 z"
             style="opacity:1;fill:#ffffff;fill-opacity:1;stroke:none;stroke-width:1;stroke-linejoin:round;stroke-miterlimit:4;stroke-dasharray:none;stroke-dashoffset:0;stroke-opacity:1" />
        </g>
        <g
           transform="matrix(0.8607087,0,0,0.8607087,276.84221,78.286909)"
           id="g3582">
          <path
             style="opacity:1;fill:#ffffff;fill-opacity:1;stroke:none;stroke-width:1;stroke-linejoin:round;stroke-miterlimit:4;stroke-dasharray:none;stroke-dashoffset:0;stroke-opacity:1"
             d="M 126.21875,144.40625 C 90.82931,144.40625 62.09375,173.11056 62.09375,208.5 C 62.09375,243.88944 90.82931,272.62499 126.21875,272.625 C 161.60819,272.625 190.34374,243.88944 190.34375,208.5 C 190.34375,173.11056 161.60819,144.40626 126.21875,144.40625 z M 126.21875,161.75 C 152.02355,161.75 172.96875,182.6952 172.96875,208.5 C 172.96875,234.30481 152.02355,255.25 126.21875,255.25 C 100.41395,255.25 79.46875,234.3048 79.46875,208.5 C 79.46875,182.6952 100.41395,161.75 126.21875,161.75 z"
             id="path3584" />
          <path
             id="path3586"
             d="M 126.21875,178.46538 C 109.63052,178.46538 96.161181,191.92007 96.161181,208.5083 C 96.161181,225.09654 109.63052,238.56587 126.21875,238.56587 C 142.80698,238.56587 156.27631,225.09654 156.27632,208.5083 C 156.27632,191.92007 142.80698,178.46538 126.21875,178.46538 z M 126.21875,186.59499 C 138.31434,186.59499 148.13207,196.41271 148.13207,208.5083 C 148.13207,220.60389 138.31434,230.42162 126.21875,230.42162 C 114.12316,230.42162 104.30543,220.60389 104.30543,208.5083 C 104.30543,196.41271 114.12316,186.59499 126.21875,186.59499 z"
             style="opacity:1;fill:#ffffff;fill-opacity:1;stroke:none;stroke-width:1;stroke-linejoin:round;stroke-miterlimit:4;stroke-dasharray:none;stroke-dashoffset:0;stroke-opacity:1" />
        </g>
        <path
           sodipodi:nodetypes="csssssssssssccsssssssssssc"
           d="M 383.33594,252.87631 C 383.33764,252.87835 383.33579,252.87666 383.33594,252.87631 C 383.3505,252.84469 383.34466,252.8966 383.33594,252.87631 C 383.22002,252.60709 383.0756,252.81082 383.08182,252.95144 C 383.09767,253.31118 383.54832,253.43883 383.84645,253.37486 C 384.60115,253.21291 384.83519,252.29852 384.63512,251.64647 C 384.21181,250.26685 382.52083,249.87975 381.2963,250.3394 C 379.0015,251.20078 378.40436,254.05728 379.29373,256.13384 C 380.82055,259.69875 385.32754,260.57266 388.60012,259.03326 C 393.85783,256.56003 395.08523,249.81643 392.62229,244.93636 C 388.86543,237.49246 379.19329,235.82459 372.22395,239.5404 C 362.0272,244.97692 359.82132,258.37949 365.1777,267.9929 C 372.75084,281.58483 390.79973,284.43714 403.68736,276.99185 M 383.33594,252.87631 C 383.33853,252.87576 383.33616,252.87661 383.33594,252.87631 C 383.31489,252.84857 383.34851,252.85818 383.33594,252.87631 C 383.25842,252.98808 383.30326,253.14067 383.40061,253.18266 C 383.73128,253.32524 384.05032,253.00085 384.13439,252.70775 C 384.34716,251.96579 383.65094,251.32847 382.98155,251.19768 C 381.56521,250.92096 380.42697,252.23003 380.25539,253.52667 C 379.93382,255.95664 382.17192,257.82935 384.42257,258.02341 C 388.28634,258.35653 391.18089,254.79307 391.36518,251.1812 C 391.66124,245.37839 386.2916,241.11815 380.82672,240.99096 C 372.49077,240.79694 366.46208,248.54205 366.45544,256.4401 C 366.44577,267.99557 377.23185,276.42245 388.23088,276.06214 C 403.52931,275.56102 401.22695,267.06376 403.68736,276.99185"
           style="fill:#ffffff;fill-opacity:1;fill-rule:evenodd;stroke:none;stroke-width:1px;stroke-linecap:butt;stroke-linejoin:miter;stroke-opacity:1"
           id="path3606" />
      </g>
      <path
         sodipodi:type="star"
         style="opacity:1;fill:#ffffff;fill-opacity:1;stroke:none;stroke-width:1;stroke-linejoin:round;stroke-miterlimit:4;stroke-dasharray:none;stroke-dashoffset:0;stroke-opacity:1;filter:url(#filter3700)"
         id="path3698"
         sodipodi:sides="5"
         sodipodi:cx="162.94955"
         sodipodi:cy="203.83304"
         sodipodi:r1="25.691782"
         sodipodi:r2="26.272663"
         sodipodi:arg1="0.48689923"
         sodipodi:arg2="-0.54381798"
         inkscape:flatsided="false"
         inkscape:rounded="1.88"
         inkscape:randomized="0"
         d="M 185.65564,215.85391 C 230.04118,234.53637 228.68309,169.06242 185.43211,190.23938 C 105.57307,229.34073 166.01559,140.53997 158.53359,229.14246 C 154.48141,277.12882 216.33116,255.60463 182.82538,221.01455 C 120.95999,157.14707 224.0923,187.19038 137.51425,207.45425 C 90.624323,218.42899 130.20767,270.60026 152.75094,228.04545 C 194.37506,149.47183 197.67181,256.84038 151.64563,180.76165 C 126.71825,139.55805 89.332353,193.32586 136.77063,201.61562 C 224.36115,216.92193 123.26635,253.23603 181.39865,185.95292 C 212.88261,149.51296 150.19351,130.57202 156.96871,178.25019 C 169.4785,266.28363 103.70173,181.35843 185.65564,215.85391 z"
         transform="matrix(0.254211,0,0,0.254211,206.58577,132.64824)" />
      <g
         style="filter:url(#filter3670)"
         id="g3662"
         transform="matrix(0.6107311,0.5201462,0.5201462,-0.6107311,73.7969,164.03559)">
        <path
           sodipodi:nodetypes="csssssssssssccsssssssssssc"
           d="M 236.05574,132.77327 C 236.06031,132.7725 236.05592,132.77265 236.05574,132.77327 C 236.03929,132.83179 236.09028,132.7562 236.05574,132.77327 C 235.59699,132.99985 235.63565,132.56568 235.80306,132.38584 C 236.23129,131.92574 236.97459,132.26613 237.29836,132.68855 C 238.11797,133.7579 237.3941,135.23789 236.39028,135.87794 C 234.26634,137.23219 231.58115,135.8328 230.47415,133.83612 C 228.39955,130.09427 230.8389,125.62254 234.37095,123.86964 C 240.4345,120.86037 247.41275,124.7999 250.01933,130.54937 C 254.207,139.78642 248.20587,150.13689 239.40988,153.83437 C 225.99278,159.47443 211.25219,150.74421 206.19628,137.91875 C 198.79906,119.15404 211.03629,98.847308 229.03432,92.134551 C 254.48085,82.643722 281.69353,99.280482 290.39311,123.76003 M 236.05574,132.77327 C 236.05856,132.77695 236.05636,132.77314 236.05574,132.77327 C 235.99637,132.78632 236.05192,132.81162 236.05574,132.77327 C 236.07921,132.53703 236.31149,132.385 236.48838,132.43939 C 237.08916,132.62415 237.146,133.41631 236.92598,133.90093 C 236.369,135.12772 234.72253,135.18665 233.68498,134.60286 C 231.48968,133.36763 231.45867,130.33984 232.69815,128.42258 C 235.02098,124.82954 240.11458,124.87397 243.32502,127.16331 C 248.83646,131.09351 248.64993,139.10482 244.80703,144.11307 C 238.63305,152.15928 226.67593,151.74341 219.26989,145.72747 C 207.97297,136.55095 208.72729,119.43569 217.65721,108.93276 C 230.72242,93.566137 254.59291,94.575279 268.80135,107.50237 C 288.56373,125.48253 275.8873,134.16849 290.39311,123.76003"
           style="fill:#ffffff;fill-opacity:1;fill-rule:evenodd;stroke:none;stroke-width:1px;stroke-linecap:butt;stroke-linejoin:miter;stroke-opacity:1"
           id="path3664" />
        <path
           id="path3666"
           style="fill:#ffffff;fill-opacity:1;fill-rule:evenodd;stroke:none;stroke-width:1px;stroke-linecap:butt;stroke-linejoin:miter;stroke-opacity:1"
           d="M 207.73997,83.655621 C 207.74165,83.657035 207.73989,83.65592 207.73997,83.655621 C 207.74736,83.627577 207.75005,83.670982 207.73997,83.655621 C 207.60605,83.451579 207.51704,83.639477 207.54242,83.753902 C 207.60738,84.046604 207.99533,84.086228 208.23057,83.990734 C 208.82604,83.748999 208.88596,82.96539 208.62777,82.459592 C 208.0815,81.389388 206.63899,81.316059 205.70125,81.869743 C 203.94382,82.907356 203.86651,85.335916 204.89557,86.910338 C 206.66218,89.613178 210.48412,89.679198 212.94544,87.944447 C 216.89979,85.157403 216.9328,79.450398 214.20872,75.804243 C 210.05348,70.242484 201.88146,70.271046 196.70292,74.324099 C 189.12628,80.254061 189.25216,91.562728 195.0322,98.672596 C 203.20432,108.72488 218.41634,108.45837 227.90954,100.49275 M 207.73997,83.655621 C 207.74203,83.654782 207.74021,83.655818 207.73997,83.655621 C 207.71871,83.635909 207.74767,83.638924 207.73997,83.655621 C 207.69254,83.758452 207.75134,83.877104 207.83723,83.897485 C 208.12896,83.966667 208.34375,83.654605 208.37038,83.402134 C 208.43774,82.762989 207.77484,82.340895 207.20704,82.330282 C 206.0057,82.307823 205.26131,83.545587 205.30777,84.633609 C 205.39486,86.672637 207.50046,87.88519 209.37403,87.719418 C 212.59044,87.434825 214.44961,84.094908 214.07933,81.106533 C 213.48443,76.305442 208.4663,73.587134 203.96668,74.271718 C 197.1031,75.315971 193.27757,82.53731 194.41225,89.014725 C 196.0724,98.491745 206.13357,103.84483 215.10087,101.96161 C 227.57339,99.342276 224.45881,92.706794 227.90954,100.49275"
           sodipodi:nodetypes="csssssssssssccsssssssssssc" />
        <path
           sodipodi:nodetypes="csssssssssssccsssssssssssc"
           d="M 289.4035,100.44919 C 289.40278,100.45031 289.40331,100.44917 289.4035,100.44919 C 289.42091,100.45151 289.39504,100.45641 289.4035,100.44919 C 289.51592,100.35328 289.39629,100.31405 289.32948,100.33797 C 289.15857,100.39919 289.16418,100.63525 289.23938,100.76933 C 289.42975,101.10872 289.90504,101.08531 290.18932,100.89186 C 290.79082,100.48254 290.72551,99.610403 290.32178,99.08904 C 289.5652,98.111941 288.10039,98.249631 287.23259,98.987207 C 285.74281,100.25342 285.99293,102.55443 287.22169,103.90153 C 289.1958,106.06577 292.62676,105.65291 294.61063,103.73998 C 297.63679,100.82205 297.00003,95.914917 294.17254,93.111235 C 290.03569,89.009208 283.25162,89.942251 279.41863,93.953644 C 273.99938,99.625161 275.31284,108.7435 280.81792,113.84254 M 289.4035,100.44919 C 289.40416,100.45037 289.4034,100.44935 289.4035,100.44919 C 289.41373,100.43493 289.41411,100.45255 289.4035,100.44919 C 289.33813,100.4285 289.27131,100.47282 289.26558,100.52596 C 289.24613,100.70646 289.44989,100.81184 289.60357,100.80869 C 289.99265,100.8007 290.19596,100.37046 290.15929,100.02855 C 290.0817,99.30515 289.28167,98.951812 288.63157,99.062211 C 287.41324,99.26913 286.84445,100.626 287.08609,101.73896 C 287.50092,103.64963 289.64832,104.51328 291.4155,104.06426 C 294.25462,103.34286 295.50716,100.12215 294.75474,97.470926 C 293.60702,93.426842 288.97879,91.676194 285.17355,92.848957 C 279.60614,94.564826 277.15314,101.01489 278.96437,106.25917 C 281.48358,113.55337 285.23367,111.17921 280.81792,113.84254"
           style="fill:#ffffff;fill-opacity:1;fill-rule:evenodd;stroke:none;stroke-width:1px;stroke-linecap:butt;stroke-linejoin:miter;stroke-opacity:1"
           id="path3668" />
      </g>
      <g
         transform="matrix(0.1467064,0,0,0.1467064,301.42867,236.65153)"
         id="g3650">
        <path
           style="opacity:1;fill:#ffffff;fill-opacity:1;stroke:none;stroke-width:1;stroke-linejoin:round;stroke-miterlimit:4;stroke-dasharray:none;stroke-dashoffset:0;stroke-opacity:1"
           d="M 126.21875,144.40625 C 90.82931,144.40625 62.09375,173.11056 62.09375,208.5 C 62.09375,243.88944 90.82931,272.62499 126.21875,272.625 C 161.60819,272.625 190.34374,243.88944 190.34375,208.5 C 190.34375,173.11056 161.60819,144.40626 126.21875,144.40625 z M 126.21875,161.75 C 152.02355,161.75 172.96875,182.6952 172.96875,208.5 C 172.96875,234.30481 152.02355,255.25 126.21875,255.25 C 100.41395,255.25 79.46875,234.3048 79.46875,208.5 C 79.46875,182.6952 100.41395,161.75 126.21875,161.75 z"
           id="path3652" />
        <path
           id="path3654"
           d="M 126.21875,178.46538 C 109.63052,178.46538 96.161181,191.92007 96.161181,208.5083 C 96.161181,225.09654 109.63052,238.56587 126.21875,238.56587 C 142.80698,238.56587 156.27631,225.09654 156.27632,208.5083 C 156.27632,191.92007 142.80698,178.46538 126.21875,178.46538 z M 126.21875,186.59499 C 138.31434,186.59499 148.13207,196.41271 148.13207,208.5083 C 148.13207,220.60389 138.31434,230.42162 126.21875,230.42162 C 114.12316,230.42162 104.30543,220.60389 104.30543,208.5083 C 104.30543,196.41271 114.12316,186.59499 126.21875,186.59499 z"
           style="opacity:1;fill:#ffffff;fill-opacity:1;stroke:none;stroke-width:1;stroke-linejoin:round;stroke-miterlimit:4;stroke-dasharray:none;stroke-dashoffset:0;stroke-opacity:1" />
      </g>
      <g
         id="g3656"
         transform="matrix(9.7710377e-2,0,0,9.7710377e-2,315.24052,230.26498)">
        <path
           id="path3658"
           d="M 126.21875,144.40625 C 90.82931,144.40625 62.09375,173.11056 62.09375,208.5 C 62.09375,243.88944 90.82931,272.62499 126.21875,272.625 C 161.60819,272.625 190.34374,243.88944 190.34375,208.5 C 190.34375,173.11056 161.60819,144.40626 126.21875,144.40625 z M 126.21875,161.75 C 152.02355,161.75 172.96875,182.6952 172.96875,208.5 C 172.96875,234.30481 152.02355,255.25 126.21875,255.25 C 100.41395,255.25 79.46875,234.3048 79.46875,208.5 C 79.46875,182.6952 100.41395,161.75 126.21875,161.75 z"
           style="opacity:1;fill:#ffffff;fill-opacity:1;stroke:none;stroke-width:1;stroke-linejoin:round;stroke-miterlimit:4;stroke-dasharray:none;stroke-dashoffset:0;stroke-opacity:1" />
        <path
           style="opacity:1;fill:#ffffff;fill-opacity:1;stroke:none;stroke-width:1;stroke-linejoin:round;stroke-miterlimit:4;stroke-dasharray:none;stroke-dashoffset:0;stroke-opacity:1"
           d="M 126.21875,178.46538 C 109.63052,178.46538 96.161181,191.92007 96.161181,208.5083 C 96.161181,225.09654 109.63052,238.56587 126.21875,238.56587 C 142.80698,238.56587 156.27631,225.09654 156.27632,208.5083 C 156.27632,191.92007 142.80698,178.46538 126.21875,178.46538 z M 126.21875,186.59499 C 138.31434,186.59499 148.13207,196.41271 148.13207,208.5083 C 148.13207,220.60389 138.31434,230.42162 126.21875,230.42162 C 114.12316,230.42162 104.30543,220.60389 104.30543,208.5083 C 104.30543,196.41271 114.12316,186.59499 126.21875,186.59499 z"
           id="path3660" />
      </g>
      <path
         id="path3704"
         style="opacity:0.1;fill:#ffffff;fill-opacity:1;fill-rule:evenodd;stroke:none;stroke-width:1px;stroke-linecap:butt;stroke-linejoin:miter;stroke-opacity:1;filter:url(#filter3474)"
         d="M 373.82647,9.1947481 C 321.49122,-12.306164 177.28819,121.86141 419.89885,337.87538 C 434.32824,360.42722 398.596,344.82613 406.10811,344.07746 C 166.91405,114.27656 320.96767,-14.683318 373.56705,9.1947481"
         sodipodi:nodetypes="cccc"
         transform="matrix(-0.8022122,0,0,-0.8022122,634.88155,164.2541)" />
      <path
         id="path5631"
         style="fill:#ffffff;fill-opacity:1;fill-rule:evenodd;stroke:none;stroke-width:1px;stroke-linecap:butt;stroke-linejoin:miter;stroke-opacity:1"
         d="M 376.70885,82.392207 C 370.2883,90.953533 377.07935,105.00749 361.16985,108.7834 C 360.58492,109.07284 361.14184,109.95975 361.73743,109.73951 C 377.64694,105.96361 370.30393,90.965715 376.72448,82.404389"
         sodipodi:nodetypes="cccc" />
    </g>
    <text
       xml:space="preserve"
       style="font-size:89.7798233px;font-style:normal;font-weight:normal;text-align:center;text-anchor:middle;fill:#ffffff;fill-opacity:1;stroke:none;stroke-width:1px;stroke-linecap:butt;stroke-linejoin:miter;stroke-opacity:1;font-family:Bitstream Vera Sans"
       x="261.83633"
       y="1324.6443"
       id="text4258"><tspan
         sodipodi:role="line"
         id="tspan4260"
         x="261.83633"
         y="1324.6443"
         style="font-style:normal;font-variant:normal;font-weight:bold;font-stretch:normal;fill:#ffffff;fill-opacity:1;font-family:Denmark;-inkscape-font-specification:Denmark Bold">CentOS</tspan></text>
    <text
       id="text4270"
       y="1188.6071"
       x="262.59506"
       style="font-size:22.09019661px;font-style:normal;font-variant:normal;font-weight:bold;font-stretch:normal;fill:#ffffff;fill-opacity:1;stroke:none;stroke-width:1px;stroke-linecap:butt;stroke-linejoin:miter;stroke-opacity:1;font-family:DejaVu LGC Sans;-inkscape-font-specification:DejaVu LGC Sans Bold"
       xml:space="preserve"><tspan
         y="1188.6071"
         x="262.59506"
         id="tspan4272"
         sodipodi:role="line"
         style="font-weight:bold;text-align:center;text-anchor:middle;-inkscape-font-specification:DejaVu LGC Sans Bold">=EVENTNAME=</tspan></text>
    <text
       xml:space="preserve"
       style="font-size:14.19024658px;font-style:normal;font-variant:normal;font-weight:normal;font-stretch:normal;fill:#ffffff;fill-opacity:1;stroke:none;stroke-width:1px;stroke-linecap:butt;stroke-linejoin:miter;stroke-opacity:1;font-family:DejaVu LGC Sans;-inkscape-font-specification:DejaVu LGC Sans"
       x="262.54492"
       y="1207.603"
       id="text4274"><tspan
         style="text-align:center;text-anchor:middle"
         sodipodi:role="line"
         id="tspan4276"
         x="262.54492"
         y="1207.603">=EVENTDATE=</tspan></text>
    <g
       id="g2587"
       transform="translate(-101.53253,-8.823788)"
       style="text-align:start;text-anchor:start">
      <text
         xml:space="preserve"
         style="font-size:13.05564785px;font-style:normal;font-variant:normal;font-weight:normal;font-stretch:normal;text-align:start;text-anchor:start;fill:#ffffff;fill-opacity:1;stroke:none;stroke-width:1px;stroke-linecap:butt;stroke-linejoin:miter;stroke-opacity:1;font-family:DejaVu LGC Sans;-inkscape-font-specification:DejaVu LGC Sans"
         x="165.09808"
         y="1772.5765"
         id="text4279"><tspan
           style="font-weight:bold;text-align:start;text-anchor:start;-inkscape-font-specification:DejaVu LGC Sans Bold"
           sodipodi:role="line"
           id="tspan4281"
           x="165.09808"
           y="1772.5765">=ENTITY=</tspan></text>
      <text
         id="text4283"
         y="1788.2433"
         x="165.09808"
         style="font-size:13.05564785px;font-style:normal;font-variant:normal;font-weight:normal;font-stretch:normal;text-align:start;text-anchor:start;fill:#ffffff;fill-opacity:1;stroke:none;stroke-width:1px;stroke-linecap:butt;stroke-linejoin:miter;stroke-opacity:1;font-family:DejaVu LGC Sans;-inkscape-font-specification:DejaVu LGC Sans"
         xml:space="preserve"><tspan
           y="1788.2433"
           x="165.09808"
           id="tspan4285"
           sodipodi:role="line"
           style="font-weight:bold;text-align:start;text-anchor:start;-inkscape-font-specification:DejaVu LGC Sans Bold">=URL=</tspan></text>
    </g>
    <rect
       inkscape:label="#rect3521"
       y="1145.1224"
       x="46.580845"
       height="652.84998"
       width="431.55673"
       id="rect2576"
       style="fill:none;fill-opacity:1;fill-rule:nonzero;stroke:#153b73;stroke-width:3.26391196;stroke-linecap:round;marker:none;marker-start:none;marker-mid:none;marker-end:none;stroke-miterlimit:4;stroke-dasharray:none;stroke-dashoffset:0;stroke-opacity:1;visibility:visible;display:inline;overflow:visible;enable-background:accumulate" />
    <text
       id="text4202"
       y="1349.16"
       x="262.05322"
       style="font-size:29.71581841px;font-style:normal;font-weight:normal;text-align:center;text-anchor:middle;fill:#ffffff;fill-opacity:1;stroke:none;stroke-width:1px;stroke-linecap:butt;stroke-linejoin:miter;stroke-opacity:1;font-family:Bitstream Vera Sans"
       xml:space="preserve"><tspan
         style="font-size:16.93821907px;font-style:normal;font-variant:normal;font-weight:bold;font-stretch:normal;fill:#ffffff;fill-opacity:1;font-family:Denmark;-inkscape-font-specification:Denmark Bold"
         y="1349.16"
         x="262.05322"
         id="tspan4204"
         sodipodi:role="line">=DESCRIPTION=</tspan></text>
  </g>
  <g
     inkscape:groupmode="layer"
     id="layer3"
     inkscape:label="Logo"
     transform="translate(-44.948889,4318.3314)" />
</svg>
