<?xml version="1.0" encoding="UTF-8" standalone="no"?>
<!-- Created with Inkscape (http://www.inkscape.org/) -->
<svg
   xmlns:dc="http://purl.org/dc/elements/1.1/"
   xmlns:cc="http://creativecommons.org/ns#"
   xmlns:rdf="http://www.w3.org/1999/02/22-rdf-syntax-ns#"
   xmlns:svg="http://www.w3.org/2000/svg"
   xmlns="http://www.w3.org/2000/svg"
   xmlns:xlink="http://www.w3.org/1999/xlink"
   xmlns:sodipodi="http://sodipodi.sourceforge.net/DTD/sodipodi-0.dtd"
   xmlns:inkscape="http://www.inkscape.org/namespaces/inkscape"
   width="800.00006"
   height="600.00012"
   id="svg2"
   sodipodi:version="0.32"
   inkscape:version="0.46"
   sodipodi:docname="motif.svg"
   inkscape:output_extension="org.inkscape.output.svg.inkscape"
   version="1.0"
   style="display:inline">
  <defs
     id="defs4">
    <inkscape:perspective
       sodipodi:type="inkscape:persp3d"
       inkscape:vp_x="0 : 300.00006 : 1"
       inkscape:vp_y="0 : 1000 : 0"
       inkscape:vp_z="800.00006 : 300.00006 : 1"
       inkscape:persp3d-origin="400.00003 : 200.00004 : 1"
       id="perspective2458" />
    <linearGradient
       id="linearGradient5333">
      <stop
         style="stop-color:#2c67bd;stop-opacity:1;"
         offset="0"
         id="stop5335" />
      <stop
         style="stop-color:#95b7e9;stop-opacity:0;"
         offset="1"
         id="stop5337" />
    </linearGradient>
    <linearGradient
       id="linearGradient5341">
      <stop
         style="stop-color:#114696;stop-opacity:1;"
         offset="0"
         id="stop5343" />
      <stop
         style="stop-color:#114696;stop-opacity:0;"
         offset="1"
         id="stop5345" />
    </linearGradient>
    <clipPath
       clipPathUnits="userSpaceOnUse"
       id="clipPath11108">
      <rect
         y="249.50511"
         x="53.650307"
         height="300"
         width="640"
         id="rect11110"
         style="opacity:1;fill:#ffffff;fill-opacity:1;stroke:none;stroke-width:10;stroke-linecap:round;stroke-linejoin:round;stroke-miterlimit:4;stroke-dasharray:none;stroke-dashoffset:0;stroke-opacity:1" />
    </clipPath>
    <filter
       inkscape:collect="always"
       id="filter3670">
      <feGaussianBlur
         inkscape:collect="always"
         stdDeviation="1.4864866"
         id="feGaussianBlur3672" />
    </filter>
    <linearGradient
       inkscape:collect="always"
       xlink:href="#linearGradient5341"
       id="linearGradient2874"
       gradientUnits="userSpaceOnUse"
       x1="506.48218"
       y1="394.94901"
       x2="626.01465"
       y2="550.56775" />
    <linearGradient
       inkscape:collect="always"
       xlink:href="#linearGradient5333"
       id="linearGradient2876"
       gradientUnits="userSpaceOnUse"
       x1="696.16772"
       y1="345.62885"
       x2="392.72235"
       y2="549.03717" />
  </defs>
  <sodipodi:namedview
     id="base"
     pagecolor="#ffffff"
     bordercolor="#666666"
     borderopacity="1.0"
     gridtolerance="10000"
     guidetolerance="10"
     objecttolerance="10"
     inkscape:pageopacity="0.0"
     inkscape:pageshadow="2"
     inkscape:zoom="0.83333316"
     inkscape:cx="449.74919"
     inkscape:cy="328.05385"
     inkscape:document-units="px"
     inkscape:current-layer="layer1"
     showgrid="false"
     showborder="false"
     inkscape:showpageshadow="false"
     showguides="false"
     inkscape:guide-bbox="true"
     inkscape:window-width="1360"
     inkscape:window-height="693"
     inkscape:window-x="0"
     inkscape:window-y="25">
    <sodipodi:guide
       orientation="0,1"
       position="2214.8215,759.57019"
       id="guide3161" />
    <sodipodi:guide
       orientation="1,0"
       position="1689.5113,1249.3865"
       id="guide3163" />
    <sodipodi:guide
       orientation="1,0"
       position="800,1611.4246"
       id="guide3274" />
    <sodipodi:guide
       orientation="0,1"
       position="2647.8475,1540.4367"
       id="guide3286" />
    <sodipodi:guide
       orientation="0,1"
       position="2477.4766,0"
       id="guide3288" />
    <sodipodi:guide
       orientation="1,0"
       position="2045.4132,466.74651"
       id="guide3290" />
    <sodipodi:guide
       orientation="1,0"
       position="0,0"
       id="guide3932" />
    <sodipodi:guide
       orientation="0,1"
       position="1610.5709,1241.9002"
       id="guide8458" />
    <sodipodi:guide
       orientation="1,0"
       position="1988.7352,934.82463"
       id="guide8466" />
    <sodipodi:guide
       orientation="0,1"
       position="71.957677,300"
       id="guide5363" />
    <inkscape:grid
       type="xygrid"
       id="grid5369"
       visible="true"
       enabled="true"
       units="mm"
       spacingx="1mm"
       spacingy="1mm"
       color="#008aff"
       opacity="0.1254902"
       empcolor="#008aff"
       empopacity="0.25098039" />
    <sodipodi:guide
       orientation="1,0"
       position="424.80009,30.000006"
       id="guide4873" />
    <sodipodi:guide
       orientation="1,0"
       position="750.00015,68.400014"
       id="guide4875" />
  </sodipodi:namedview>
  <metadata
     id="metadata7">
    <rdf:RDF>
      <cc:Work
         rdf:about="">
        <dc:format>image/svg+xml</dc:format>
        <dc:type
           rdf:resource="http://purl.org/dc/dcmitype/StillImage" />
        <dc:creator>
          <cc:Agent>
            <dc:title>Alain Reguera Delgado</dc:title>
          </cc:Agent>
        </dc:creator>
        <dc:rights>
          <cc:Agent>
            <dc:title>The CentOS Project</dc:title>
          </cc:Agent>
        </dc:rights>
        <dc:publisher>
          <cc:Agent>
            <dc:title>The CentOS Project</dc:title>
          </cc:Agent>
        </dc:publisher>
        <dc:title>TreeFlower</dc:title>
        <dc:date>2010-09-25</dc:date>
        <dc:language>en</dc:language>
        <dc:description>Artistic Motif for CentOS Project.</dc:description>
        <dc:identifier />
        <cc:license
           rdf:resource="http://creativecommons.org/licenses/by-sa/3.0/" />
        <dc:contributor>
          <cc:Agent>
            <dc:title />
          </cc:Agent>
        </dc:contributor>
      </cc:Work>
      <cc:License
         rdf:about="http://creativecommons.org/licenses/by-sa/3.0/">
        <cc:permits
           rdf:resource="http://creativecommons.org/ns#Reproduction" />
        <cc:permits
           rdf:resource="http://creativecommons.org/ns#Distribution" />
        <cc:requires
           rdf:resource="http://creativecommons.org/ns#Notice" />
        <cc:requires
           rdf:resource="http://creativecommons.org/ns#Attribution" />
        <cc:permits
           rdf:resource="http://creativecommons.org/ns#DerivativeWorks" />
        <cc:requires
           rdf:resource="http://creativecommons.org/ns#ShareAlike" />
      </cc:License>
    </rdf:RDF>
  </metadata>
  <g
     inkscape:label="Background"
     inkscape:groupmode="layer"
     id="layer1"
     style="display:inline"
     transform="translate(-67.999994,-823.15657)">
    <image
       y="823.15668"
       x="67.999992"
       id="CENTOSARTWORK"
       height="600"
       width="800"
       sodipodi:absref="/home/centos/artwork/trunk/Identity/Themes/Motifs/TreeFlower/Backgrounds/Img/800x600.png"
       xlink:href="/home/centos/artwork/trunk/Identity/Themes/Motifs/TreeFlower/Backgrounds/Img/800x600.png"
       inkscape:label="#image3474" />
    <g
       transform="matrix(1.1571082,0.9854835,0.9854835,-1.1571082,208.53328,1168.0122)"
       id="g17290"
       style="opacity:0.1;filter:url(#filter3670)" />
    <g
       style="opacity:0.1"
       id="g22175"
       transform="matrix(0.381003,0.1771145,0.1771145,-0.381003,658.50485,887.48913)" />
    <g
       style="opacity:0.1"
       transform="matrix(0.8187318,0,0,0.8187318,495.17619,696.7082)"
       id="g22181">
      <g
         id="g22183"
         transform="matrix(0.4010554,0,0,0.4010554,297.65753,82.48033)" />
    </g>
    <g
       style="opacity:0.1"
       inkscape:transform-center-y="44.005377"
       inkscape:transform-center-x="-10.433289"
       transform="matrix(-0.4683679,-0.5724281,0.5724281,-0.4683679,879.65712,1136.3958)"
       id="g22197" />
    <g
       style="opacity:0.1"
       id="g22243"
       transform="matrix(0.1747465,0,0,-0.1747465,706.59619,1212.9507)" />
    <text
       xml:space="preserve"
       style="font-size:5.91338491px;font-style:normal;font-variant:normal;font-weight:normal;font-stretch:normal;text-align:center;line-height:125%;writing-mode:lr-tb;text-anchor:middle;fill:#000000;fill-opacity:1;stroke:none;stroke-width:1px;stroke-linecap:butt;stroke-linejoin:miter;stroke-opacity:1;font-family:DejaVu LGC Sans Mono;-inkscape-font-specification:DejaVu LGC Sans Mono"
       x="195.21674"
       y="1311.8235"
       id="text3223"
       sodipodi:linespacing="125%"
       transform="scale(1.0163639,0.9838995)"><tspan
         sodipodi:role="line"
         id="tspan3225"
         x="195.21674"
         y="1311.8235"
         style="font-size:4.92782116px;font-style:normal;font-variant:normal;font-weight:normal;font-stretch:normal;font-family:DejaVu LGC Sans Mono;-inkscape-font-specification:DejaVu LGC Sans Mono" /></text>
    <g
       style="display:inline"
       transform="matrix(2,0,0,2,-328.32825,1124.5063)"
       id="g2854"
       clip-path="url(#clipPath11108)">
      <path
         sodipodi:nodetypes="cssscczz"
         style="opacity:1;fill:url(#linearGradient2874);fill-opacity:1;stroke:none;stroke-width:1;stroke-linejoin:round;stroke-miterlimit:4;stroke-dasharray:none;stroke-dashoffset:0;stroke-opacity:1"
         d="M 332.65542,266.49474 C 486.997,266.49474 612.31948,400.3424 612.31948,565.3627 C 612.31948,730.38299 486.997,864.37631 332.65542,864.37636 C 178.31383,864.37636 52.991394,730.38299 52.991359,565.3627 C 52.991359,400.3424 178.31383,266.49479 332.65542,266.49474 z M 255.76561,550.73848 C 258.22694,776.86762 551.96474,806.34568 551.96474,562.55876 C 551.96474,321.5745 253.27326,321.75843 255.76561,550.73848 z"
         id="path2856" />
      <path
         id="path2858"
         d="M 652.15934,345.62884 C 508.98072,345.62884 392.72236,461.76076 392.72236,604.93939 C 392.72236,748.11801 508.98072,864.37632 652.15934,864.37636 C 795.33796,864.37636 960.66526,696.24509 960.6653,553.06647 C 960.6653,409.88784 795.33796,345.62888 652.15934,345.62884 z M 667.58102,816.5121 C 563.17994,816.5121 347.67019,824.35795 440.58662,586.71377 C 534.0498,347.67119 906.64559,496.44382 667.58102,816.5121 z"
         style="opacity:1;fill:url(#linearGradient2876);fill-opacity:1;stroke:none;stroke-width:1;stroke-linejoin:round;stroke-miterlimit:4;stroke-dasharray:none;stroke-dashoffset:0;stroke-opacity:1"
         sodipodi:nodetypes="cssscczc" />
      <path
         sodipodi:type="arc"
         style="opacity:1;fill:none;fill-opacity:1;stroke:#002974;stroke-width:6.9840126;stroke-linecap:round;stroke-linejoin:round;stroke-miterlimit:4;stroke-dasharray:none;stroke-dashoffset:0;stroke-opacity:1"
         id="path2860"
         sodipodi:cx="364.51242"
         sodipodi:cy="249.52905"
         sodipodi:rx="159.82468"
         sodipodi:ry="159.82468"
         d="M 524.3371,249.52905 A 159.82468,159.82468 0 1 1 204.68774,249.52905 A 159.82468,159.82468 0 1 1 524.3371,249.52905 z"
         transform="matrix(1.4790557,0,0,1.4790557,100.25083,211.36438)" />
      <g
         transform="matrix(1.8368457,1.8004341,1.8004341,-1.8368457,-480.16409,178.07318)"
         id="g2862"
         style="opacity:1;fill:#002974;fill-opacity:1">
        <path
           id="path2864"
           style="fill:#002974;fill-opacity:1;fill-rule:evenodd;stroke:none;stroke-width:1px;stroke-linecap:butt;stroke-linejoin:miter;stroke-opacity:1"
           d="M 225.7785,132.74383 C 225.78369,132.74295 225.7787,132.74312 225.7785,132.74383 C 225.75982,132.81026 225.8177,132.72445 225.7785,132.74383 C 225.25769,133.00106 225.30159,132.50817 225.49164,132.30399 C 225.97779,131.78167 226.82161,132.1681 227.18917,132.64765 C 228.11964,133.86162 227.29786,135.54178 226.15828,136.26839 C 223.74709,137.8058 220.69873,136.21715 219.44201,133.95043 C 217.08683,129.7025 219.8561,124.62599 223.86584,122.63601 C 230.74947,119.21975 238.6715,123.69208 241.63061,130.21916 C 246.38465,140.70548 239.57189,152.45582 229.58627,156.65337 C 214.35455,163.05624 197.62035,153.14527 191.88064,138.58522 C 183.48298,117.28264 197.37525,94.22949 217.80745,86.608856 C 246.69554,75.834423 277.58864,94.721249 287.46481,122.51158 M 225.7785,132.74383 C 225.78169,132.748 225.7792,132.74367 225.7785,132.74383 C 225.71109,132.75865 225.77416,132.78737 225.7785,132.74383 C 225.80514,132.47564 226.06883,132.30304 226.26965,132.36479 C 226.95168,132.57454 227.01621,133.47384 226.76642,134.024 C 226.13412,135.41671 224.26497,135.48361 223.08709,134.82086 C 220.59489,133.41857 220.55968,129.98129 221.9668,127.80472 C 224.60379,123.72574 230.38628,123.77617 234.03092,126.37514 C 240.28776,130.83689 240.076,139.93169 235.71336,145.6173 C 228.70438,154.75173 215.1301,154.27962 206.72241,147.45003 C 193.89763,137.03243 194.75397,117.60238 204.89162,105.67897 C 219.72386,88.234058 246.82276,89.379683 262.95284,104.05512 C 285.38801,124.46704 270.99714,134.32774 287.46481,122.51158"
           sodipodi:nodetypes="csssssssssssccsssssssssssc" />
        <path
           id="path2866"
           style="fill:#002974;fill-opacity:1;fill-rule:evenodd;stroke:none;stroke-width:1px;stroke-linecap:butt;stroke-linejoin:miter;stroke-opacity:1"
           d="M 289.46772,101.63923 C 289.46673,101.64012 289.46754,101.63916 289.46772,101.63923 C 289.48392,101.646 289.45767,101.64399 289.46772,101.63923 C 289.60123,101.5759 289.49594,101.50687 289.42521,101.51257 C 289.24425,101.52718 289.18821,101.75656 289.2259,101.90559 C 289.32134,102.28284 289.78633,102.38399 290.11117,102.27124 C 290.7985,102.03265 290.96253,101.17359 290.70847,100.56509 C 290.2324,99.424698 288.78227,99.176238 287.75235,99.662419 C 285.98427,100.49706 285.62663,102.78382 286.46226,104.4044 C 287.80476,107.008 291.22488,107.50271 293.6384,106.17232 C 297.31994,104.14297 297.98284,99.239302 295.98288,95.796117 C 293.05679,90.758445 286.26378,89.8929 281.51853,92.767914 C 274.80948,96.832766 273.70345,105.97858 277.69098,112.33513 M 289.46772,101.63923 C 289.46805,101.64054 289.46758,101.63935 289.46772,101.63923 C 289.48131,101.62812 289.47709,101.64523 289.46772,101.63923 C 289.40999,101.60223 289.33393,101.62762 289.31456,101.67744 C 289.24879,101.84665 289.41808,102.00145 289.56728,102.03842 C 289.94502,102.13201 290.25334,101.76955 290.30696,101.42988 C 290.4204,100.71123 289.73997,100.16178 289.08355,100.0991 C 287.85336,99.981655 286.9509,101.14362 286.89442,102.28111 C 286.79745,104.23389 288.6459,105.62688 290.46904,105.65348 C 293.39807,105.6962 295.446,102.91271 295.40985,100.15702 C 295.35469,95.95359 291.34193,93.058249 287.36258,93.19977 C 281.54044,93.406838 277.49261,98.995722 277.87588,104.53071 C 278.40897,112.22926 282.64788,110.91342 277.69098,112.33513"
           sodipodi:nodetypes="csssssssssssccsssssssssssc" />
      </g>
      <path
         sodipodi:nodetypes="csccsc"
         d="M 475.95177,-319.77115 C 508.32434,-201.59779 580.77832,-108.56099 382.32244,60.329343 C 183.86667,229.21972 230.16385,517.43792 339.44989,635.23567 C 448.73594,753.03342 474.73043,734.4688 366.29918,614.64601 C 257.86783,494.82327 206.61891,231.66607 394.83408,68.957336 C 583.0492,-93.7514 510.77501,-201.91039 476.11822,-318.91305"
         style="opacity:1;fill:#002974;fill-opacity:1;fill-rule:evenodd;stroke:none;stroke-width:1px;stroke-linecap:butt;stroke-linejoin:miter;stroke-opacity:1"
         id="path2868" />
      <path
         sodipodi:nodetypes="csssssssssssccsssssssssssc"
         d="M 655.84266,301.94854 C 655.83909,301.94886 655.84242,301.94812 655.84266,301.94854 C 655.86613,301.98897 655.81367,301.94248 655.84266,301.94854 C 656.22777,302.02914 656.11556,301.7133 655.95635,301.61155 C 655.54913,301.35125 655.06109,301.74746 654.90118,302.12417 C 654.49631,303.0778 655.31961,304.04072 656.18995,304.32444 C 658.0315,304.92476 659.76197,303.36702 660.20266,301.66774 C 661.02853,298.48319 658.35332,295.62228 655.38676,294.99563 C 650.29401,293.91979 645.85504,298.19349 645.0187,302.97504 C 643.67509,310.65701 650.13156,317.21081 657.39099,318.27417 C 668.46425,319.8962 677.76251,310.56445 679.06329,300.04389 C 680.96641,284.65145 667.95425,271.88251 653.26415,270.34175 C 632.49449,268.16333 616.19174,285.31264 614.41671,305.21031 M 655.84266,301.94854 C 655.84126,301.95183 655.84217,301.94857 655.84266,301.94854 C 655.88938,301.94687 655.85287,301.97638 655.84266,301.94854 C 655.77978,301.77716 655.57766,301.7086 655.45638,301.78307 C 655.04457,302.03603 655.15442,302.63676 655.41132,302.95533 C 656.06169,303.76177 657.29891,303.48937 657.95928,302.85538 C 659.35654,301.51397 658.798,299.25366 657.50684,298.06423 C 655.08716,295.83519 651.3032,296.84672 649.35258,299.16796 C 646.00396,303.15295 647.68174,309.08203 651.50507,312.07279 C 657.64759,316.87773 666.47053,314.27122 670.82917,308.3693 C 677.4777,299.36677 673.62833,286.76832 664.9619,280.6636 C 652.28224,271.73192 634.70302,277.06865 626.60717,289.423 C 615.3467,306.60656 625.23847,308.84365 614.41671,305.21031"
         style="fill:#002974;fill-opacity:1;fill-rule:evenodd;stroke:none;stroke-width:1px;stroke-linecap:butt;stroke-linejoin:miter;stroke-opacity:1"
         id="path2870" />
      <path
         sodipodi:nodetypes="csccssccc"
         id="path2872"
         d="M 590.93396,221.09889 C 589.66298,221.8839 591.33178,220.1716 591.12948,221.6517 C 590.92718,223.13182 591.03514,223.62225 592.04888,224.71953 C 620.484,256.23985 620.32591,305.00545 598.88093,341.6415 C 597.97576,343.18471 597.96401,345.09393 598.85013,346.64816 C 599.73623,348.20239 601.38518,349.16479 603.17427,349.17193 C 604.96334,349.17906 606.61991,348.22984 607.51839,346.68272 C 627.10899,309.506 627.7776,256.61862 596.58353,222.04001 C 594.97103,220.22014 593.00297,219.82168 590.93396,221.09889 z"
         style="opacity:1;fill:#002974;fill-opacity:1;stroke:none;stroke-width:10;stroke-linecap:round;stroke-linejoin:round;stroke-miterlimit:4;stroke-dasharray:none;stroke-dashoffset:0;stroke-opacity:1" />
    </g>
    <flowRoot
       xml:space="preserve"
       id="flowRoot4325"
       style="font-size:15.16308308px;font-style:normal;font-variant:normal;font-weight:normal;font-stretch:normal;text-indent:0;text-align:justify;text-decoration:none;line-height:129.99999523%;letter-spacing:normal;word-spacing:normal;text-transform:none;direction:ltr;block-progression:tb;writing-mode:lr-tb;text-anchor:start;fill:#ffffff;fill-opacity:1;fill-rule:nonzero;stroke:none;stroke-width:1px;stroke-linecap:butt;stroke-linejoin:miter;marker:none;marker-start:none;marker-mid:none;marker-end:none;stroke-miterlimit:4;stroke-dasharray:none;stroke-dashoffset:0;stroke-opacity:1;visibility:visible;display:inline;overflow:visible;enable-background:accumulate;font-family:DejaVu LGC Sans;-inkscape-font-specification:DejaVu LGC Sans"
       transform="matrix(0.7913958,0,0,0.7913958,425.00116,917.62369)"><flowRegion
         id="flowRegion4327"><rect
           id="rect4329"
           width="410.03979"
           height="145.42876"
           x="86.549889"
           y="299.62109"
           style="font-size:15.16308308px;font-style:normal;font-variant:normal;font-weight:normal;font-stretch:normal;text-align:justify;line-height:129.99999523%;writing-mode:lr-tb;text-anchor:start;fill:#ffffff;font-family:DejaVu LGC Sans;-inkscape-font-specification:DejaVu LGC Sans" /></flowRegion><flowPara
         id="flowPara4331">CentOS like trees, has roots, trunk, branches, leaves and flowers. Day by day they work together in freedom, ruled by the laws of nature and open standards, to show the beauty of its existence.</flowPara><flowPara
         id="flowPara4893" /></flowRoot>    <g
       id="g4857"
       transform="matrix(0.3457531,0,0,0.3457531,547.9671,747.24706)">
      <g
         transform="matrix(2.5307075,0,0,2.5307075,-67.883865,-2089.8296)"
         id="g10023"
         style="fill:#ffffff">
        <g
           id="g8979"
           transform="matrix(2.042901,0,0,2.042901,-91.286491,-1055.472)"
           style="fill:#ffffff">
          <g
             style="fill:#ffffff;display:inline"
             id="g11750"
             transform="matrix(0.753824,0,0,0.753824,43.591171,320.09806)">
            <g
               id="g3054"
               transform="matrix(0.4179296,0,0,0.4190481,-0.2144611,1050.3541)"
               style="fill:#ffffff;fill-opacity:1;display:inline">
              <text
                 id="text3056"
                 y="104.39967"
                 x="333.58936"
                 style="font-size:69.71334076px;font-style:normal;font-weight:normal;text-align:center;text-anchor:middle;fill:#ffffff;fill-opacity:1;stroke:none;stroke-width:1px;stroke-linecap:butt;stroke-linejoin:miter;stroke-opacity:1;display:inline;font-family:Bitstream Vera Sans"
                 xml:space="preserve"><tspan
                   style="font-style:normal;font-variant:normal;font-weight:200;font-stretch:normal;text-align:center;text-anchor:middle;fill:#ffffff;fill-opacity:1;font-family:Denmark;-inkscape-font-specification:Denmark Ultra-Light"
                   y="104.39967"
                   x="333.58936"
                   id="tspan3058"
                   sodipodi:role="line">TreeFl  wer</tspan></text>
            </g>
            <path
               transform="matrix(0.1877957,-6.5668885e-2,-6.5649806e-2,-0.1877411,140.84415,1133.7555)"
               d="M 185.65564,215.85391 C 230.04118,234.53637 228.68309,169.06242 185.43211,190.23938 C 105.57307,229.34073 166.01559,140.53997 158.53359,229.14246 C 154.48141,277.12882 216.33116,255.60463 182.82538,221.01455 C 120.95999,157.14707 224.0923,187.19038 137.51425,207.45425 C 90.624323,218.42899 130.20767,270.60026 152.75094,228.04545 C 194.37506,149.47183 197.67181,256.84038 151.64563,180.76165 C 126.71825,139.55805 89.332353,193.32586 136.77063,201.61562 C 224.36115,216.92193 123.26635,253.23603 181.39865,185.95292 C 212.88261,149.51296 150.19351,130.57202 156.96871,178.25019 C 169.4785,266.28363 103.70173,181.35843 185.65564,215.85391 z"
               inkscape:randomized="0"
               inkscape:rounded="1.88"
               inkscape:flatsided="false"
               sodipodi:arg2="-0.54381798"
               sodipodi:arg1="0.48689923"
               sodipodi:r2="26.272663"
               sodipodi:r1="25.691782"
               sodipodi:cy="203.83304"
               sodipodi:cx="162.94955"
               sodipodi:sides="5"
               id="path4446"
               style="opacity:1;fill:#ffffff;fill-opacity:1;stroke:none;stroke-width:1;stroke-linejoin:round;stroke-miterlimit:4;stroke-dasharray:none;stroke-dashoffset:0;stroke-opacity:1;display:inline"
               sodipodi:type="star" />
          </g>
        </g>
        <path
           id="path9995"
           style="opacity:1;fill:#ffffff;fill-opacity:1;fill-rule:evenodd;stroke:none;stroke-width:1px;stroke-linecap:butt;stroke-linejoin:miter;stroke-opacity:1"
           d="M 95.707267,1260.5138 C 95.707509,1260.5134 95.70738,1260.5138 95.707267,1260.5138 C 95.701106,1260.5138 95.709904,1260.5109 95.707267,1260.5138 C 95.671809,1260.5527 95.715801,1260.5613 95.738418,1260.5499 C 95.796112,1260.5207 95.783712,1260.4375 95.751146,1260.3933 C 95.668892,1260.2817 95.501873,1260.311 95.409989,1260.392 C 95.215321,1260.5632 95.276892,1260.8687 95.442589,1261.0352 C 95.753191,1261.3473 96.265084,1261.2341 96.539397,1260.935 C 97.01025,1260.4216 96.820339,1259.619 96.326448,1259.197 C 95.533044,1258.5188 94.338116,1258.816 93.721115,1259.5799 C 92.779828,1260.7452 93.221346,1262.452 94.344677,1263.3186 C 95.98829,1264.5865 98.345767,1263.9574 99.524138,1262.3701 C 101.1901,1260.1258 100.3235,1256.9597 98.152325,1255.3997 M 95.707267,1260.5138 C 95.707063,1260.5134 95.70733,1260.5137 95.707267,1260.5138 C 95.704349,1260.5193 95.703357,1260.5131 95.707267,1260.5138 C 95.73132,1260.5183 95.753035,1260.4997 95.752591,1260.4805 C 95.751597,1260.4159 95.674848,1260.3876 95.620751,1260.3956 C 95.483506,1260.4156 95.430603,1260.5766 95.458638,1260.6959 C 95.517938,1260.9482 95.816456,1261.0379 96.041352,1260.9701 C 96.463004,1260.8433 96.604347,1260.3385 96.469794,1259.9556 C 96.238821,1259.2983 95.441477,1259.0876 94.836441,1259.3243 C 93.864471,1259.7047 93.563641,1260.8986 93.94654,1261.8028 C 94.53076,1263.1822 96.244405,1263.597 97.538093,1263.0145 C 99.430874,1262.1623 100.01375,1259.7736 99.142003,1257.9991 C 97.929555,1255.5311 96.708442,1256.5361 98.152325,1255.3997"
           sodipodi:nodetypes="csssssssssssccsssssssssssc" />
        <g
           id="g10011"
           transform="matrix(0.6023818,-0.8498805,0.8498805,0.6023818,-1001.8974,609.50651)"
           style="fill:#ffffff">
          <path
             id="path10003"
             style="opacity:1;fill:#ffffff;fill-opacity:1;fill-rule:evenodd;stroke:none;stroke-width:1px;stroke-linecap:butt;stroke-linejoin:miter;stroke-opacity:1"
             d="M 94.755812,1245.7201 C 94.756563,1245.7205 94.755904,1245.7199 94.755812,1245.7201 C 94.749327,1245.7275 94.762071,1245.7201 94.755812,1245.7201 C 94.672542,1245.7209 94.708833,1245.66 94.746055,1245.6454 C 94.841402,1245.6082 94.926448,1245.7106 94.944169,1245.7954 C 94.989051,1246.0103 94.778436,1246.1761 94.586019,1246.199 C 94.178858,1246.248 93.883545,1245.8536 93.861896,1245.4827 C 93.82127,1244.7872 94.494572,1244.303 95.136406,1244.2947 C 96.238324,1244.2809 96.984544,1245.351 96.96154,1246.3783 C 96.924802,1248.029 95.314445,1249.1246 93.763049,1249.0469 C 91.39655,1248.9286 89.849204,1246.6081 90.011666,1244.37 C 90.24932,1241.0949 93.476703,1238.978 96.590953,1239.2621 C 100.99406,1239.6636 103.81406,1244.0236 103.36449,1248.2287 M 94.755812,1245.7201 C 94.756036,1245.7208 94.755962,1245.7201 94.755812,1245.7201 C 94.746234,1245.7179 94.752549,1245.7256 94.755812,1245.7201 C 94.775918,1245.6871 94.820733,1245.6811 94.842858,1245.7018 C 94.917992,1245.7711 94.870487,1245.8915 94.804022,1245.9469 C 94.635763,1246.0876 94.390072,1245.9801 94.27897,1245.8214 C 94.043908,1245.4854 94.252913,1245.0389 94.569926,1244.8451 C 95.164055,1244.4816 95.908396,1244.847 96.218046,1245.4095 C 96.74968,1246.3749 96.157407,1247.5371 95.240396,1248.0011 C 93.767111,1248.7464 92.041988,1247.8424 91.379419,1246.4375 C 90.368728,1244.2944 91.686262,1241.8361 93.737134,1240.9247 C 96.737619,1239.5909 100.16913,1241.4222 101.34262,1244.321 C 102.9747,1248.3527 100.5021,1248.7333 103.36449,1248.2287"
             sodipodi:nodetypes="csssssssssssccsssssssssssc" />
          <path
             sodipodi:nodetypes="csssssssssssccsssssssssssc"
             d="M 115.39129,1244.7928 C 115.39005,1244.7932 115.39114,1244.7924 115.39129,1244.7928 C 115.40195,1244.8049 115.38099,1244.7928 115.39129,1244.7928 C 115.5282,1244.7941 115.46853,1244.694 115.40733,1244.6699 C 115.25055,1244.6087 115.11071,1244.777 115.08157,1244.9165 C 115.00778,1245.2696 115.35408,1245.5426 115.67047,1245.5803 C 116.33996,1245.6609 116.82554,1245.0122 116.86114,1244.4022 C 116.92794,1243.2588 115.82084,1242.4626 114.76548,1242.4489 C 112.95361,1242.4263 111.72661,1244.1858 111.76444,1245.8749 C 111.82485,1248.5892 114.47273,1250.3909 117.02367,1250.2629 C 120.91487,1250.0683 123.45915,1246.2529 123.19202,1242.5726 C 122.80124,1237.1875 117.4945,1233.7067 112.37379,1234.1737 C 105.13382,1234.834 100.49693,1242.0031 101.23615,1248.9175 M 115.39129,1244.7928 C 115.39092,1244.7939 115.39104,1244.7928 115.39129,1244.7928 C 115.40703,1244.7889 115.39665,1244.8017 115.39129,1244.7928 C 115.35822,1244.7384 115.28453,1244.7285 115.24816,1244.7625 C 115.12462,1244.8766 115.20272,1245.0744 115.31202,1245.1656 C 115.58868,1245.397 115.99267,1245.2203 116.17535,1244.9593 C 116.56185,1244.4068 116.21819,1243.6725 115.69693,1243.3539 C 114.72001,1242.7561 113.4961,1243.3571 112.98696,1244.282 C 112.1128,1245.8694 113.08666,1247.7804 114.59449,1248.5433 C 117.01699,1249.7688 119.85359,1248.2823 120.94304,1245.9723 C 122.6049,1242.4483 120.4385,1238.4062 117.06629,1236.9077 C 112.13263,1234.7145 106.49026,1237.7257 104.56071,1242.4922 C 101.87709,1249.1215 105.94274,1249.7472 101.23615,1248.9175"
             style="opacity:1;fill:#ffffff;fill-opacity:1;fill-rule:evenodd;stroke:none;stroke-width:1px;stroke-linecap:butt;stroke-linejoin:miter;stroke-opacity:1"
             id="path10005" />
          <path
             id="path10007"
             style="opacity:1;fill:#ffffff;fill-opacity:1;fill-rule:evenodd;stroke:none;stroke-width:1px;stroke-linecap:butt;stroke-linejoin:miter;stroke-opacity:1"
             d="M 108.58635,1230.0116 C 108.58598,1230.0124 108.58608,1230.0115 108.58635,1230.0116 C 108.59729,1230.0119 108.58159,1230.0167 108.58635,1230.0116 C 108.65026,1229.9441 108.57292,1229.9276 108.53266,1229.9468 C 108.42985,1229.9964 108.44886,1230.1437 108.50477,1230.2227 C 108.64617,1230.4225 108.94185,1230.3764 109.10676,1230.2366 C 109.45612,1229.941 109.35799,1229.4 109.07127,1229.1005 C 108.53377,1228.5391 107.62659,1228.7216 107.13219,1229.2398 C 106.28389,1230.1299 106.59163,1231.5527 107.44866,1232.3142 C 108.82569,1233.5382 110.9445,1233.0543 112.05939,1231.7274 C 113.76035,1229.7033 113.03933,1226.676 111.08666,1225.1086 C 108.22948,1222.8149 104.04771,1223.8445 101.91411,1226.6055 C 98.89751,1230.5092 100.31874,1236.126 104.09705,1238.9529 M 108.58635,1230.0116 C 108.58674,1230.0122 108.58624,1230.0117 108.58635,1230.0116 C 108.59169,1230.0019 108.59327,1230.013 108.58635,1230.0116 C 108.54402,1230.0028 108.50507,1230.035 108.50516,1230.0687 C 108.5048,1230.1828 108.6392,1230.2354 108.73503,1230.2232 C 108.97785,1230.1926 109.07669,1229.9101 109.03132,1229.6988 C 108.9353,1229.2514 108.41155,1229.083 108.01234,1229.1949 C 107.26391,1229.4043 106.99721,1230.2903 107.22167,1230.9706 C 107.60685,1232.1385 109.00664,1232.5373 110.08241,1232.1403 C 111.81073,1231.5024 112.38234,1229.4057 111.73746,1227.797 C 110.75365,1225.343 107.74365,1224.5523 105.4409,1225.5362 C 102.07151,1226.9752 100.96149,1231.1709 102.43924,1234.3321 C 104.49453,1238.7286 106.68384,1236.9968 104.09705,1238.9529"
             sodipodi:nodetypes="csssssssssssccsssssssssssc" />
        </g>
      </g>
      <text
         transform="scale(0.8572094,1.1665761)"
         id="text5087"
         y="942.5423"
         x="891.48566"
         style="font-size:25px;font-style:normal;font-variant:normal;font-weight:normal;font-stretch:normal;fill:#ffffff;fill-opacity:1;stroke:none;stroke-width:1;stroke-linecap:butt;stroke-linejoin:miter;stroke-miterlimit:4;stroke-dasharray:none;stroke-opacity:1;font-family:DejaVu LGC Sans;-inkscape-font-specification:DejaVu LGC Sans"
         xml:space="preserve"><tspan
           y="942.5423"
           x="891.48566"
           id="tspan5089"
           sodipodi:role="line">™</tspan></text>
    </g>
    <flowRoot
       xml:space="preserve"
       id="flowRoot4897"
       style="font-size:15.16308308px;font-style:normal;font-variant:normal;font-weight:normal;font-stretch:normal;text-indent:0;text-align:end;text-decoration:none;line-height:129.99999523%;letter-spacing:normal;word-spacing:normal;text-transform:none;direction:ltr;block-progression:tb;writing-mode:lr-tb;text-anchor:end;fill:#ffffff;fill-opacity:1;fill-rule:nonzero;stroke:none;stroke-width:1px;stroke-linecap:butt;stroke-linejoin:miter;marker:none;marker-start:none;marker-mid:none;marker-end:none;stroke-miterlimit:4;stroke-dasharray:none;stroke-dashoffset:0;stroke-opacity:1;visibility:visible;display:inline;overflow:visible;enable-background:accumulate;font-family:DejaVu LGC Sans;-inkscape-font-specification:DejaVu LGC Sans"
       transform="matrix(0.7913958,0,0,0.7913958,362.29781,1107.8254)"><flowRegion
         id="flowRegion4899"><rect
           id="rect4901"
           width="490.90759"
           height="153.37822"
           x="86.549889"
           y="299.62109"
           style="font-size:15.16308308px;font-style:normal;font-variant:normal;font-weight:normal;font-stretch:normal;text-align:end;line-height:129.99999523%;writing-mode:lr-tb;text-anchor:end;fill:#ffffff;font-family:DejaVu LGC Sans;-inkscape-font-specification:DejaVu LGC Sans" /></flowRegion><flowPara
         id="flowPara4907">Copyright © 2009-2010 Alain Reguera Delgado.</flowPara><flowPara
         id="flowPara4909">Creative Commons Attribution-ShareAlike 3.0 License.</flowPara><flowPara
         id="flowPara4911" /></flowRoot>  </g>
</svg>
